<?xml version="1.0" encoding="utf-8"?>
<!-- Generator: Adobe Illustrator 24.3.0, SVG Export Plug-In . SVG Version: 6.00 Build 0)  -->
<svg version="1.1" id="Layer_1" xmlns="http://www.w3.org/2000/svg" xmlns:xlink="http://www.w3.org/1999/xlink" x="0px" y="0px"
	 viewBox="0 0 32 32" style="enable-background:new 0 0 32 32;" xml:space="preserve">
<path d="M15.98,10.87c-2.35,2.35-4.65,4.66-6.95,6.96C6.95,19.92,4.87,22,2.79,24.08c-0.44,0.44-0.95,0.64-1.57,0.43
	c-0.55-0.18-0.85-0.57-0.95-1.12c-0.11-0.61,0.2-1.06,0.62-1.47c2.25-2.24,4.5-4.5,6.75-6.75c2.36-2.36,4.72-4.72,7.09-7.08
	c0.91-0.91,1.63-0.91,2.55,0.01c4.6,4.6,9.19,9.19,13.79,13.79c0.15,0.15,0.32,0.31,0.44,0.49c0.41,0.61,0.29,1.41-0.27,1.89
	c-0.57,0.48-1.36,0.46-1.94-0.11c-1.41-1.38-2.79-2.77-4.18-4.17c-2.9-2.9-5.79-5.79-8.69-8.69C16.3,11.17,16.17,11.05,15.98,10.87z
	"/>
</svg>
