<?xml version="1.0" encoding="utf-8"?>
<!-- Generator: Adobe Illustrator 24.3.0, SVG Export Plug-In . SVG Version: 6.00 Build 0)  -->
<svg version="1.1" id="Layer_1" xmlns="http://www.w3.org/2000/svg" xmlns:xlink="http://www.w3.org/1999/xlink" x="0px" y="0px"
	 viewBox="0 0 32 32" style="enable-background:new 0 0 32 32;" xml:space="preserve">
<path d="M21.13,15.98c-2.35-2.35-4.66-4.65-6.96-6.95C12.08,6.95,10,4.87,7.92,2.79C7.48,2.35,7.29,1.84,7.49,1.22
	c0.18-0.55,0.57-0.85,1.12-0.95c0.61-0.11,1.06,0.2,1.47,0.62c2.24,2.25,4.5,4.5,6.75,6.75c2.36,2.36,4.72,4.72,7.08,7.09
	c0.91,0.91,0.91,1.63-0.01,2.55c-4.6,4.6-9.19,9.19-13.79,13.79c-0.15,0.15-0.31,0.32-0.49,0.44c-0.61,0.41-1.41,0.29-1.89-0.27
	c-0.48-0.57-0.46-1.36,0.11-1.94c1.38-1.41,2.77-2.79,4.17-4.18c2.9-2.9,5.79-5.79,8.69-8.69C20.83,16.3,20.95,16.17,21.13,15.98z"
	/>
</svg>
