<?xml version="1.0" encoding="utf-8"?>
<!-- Generator: Adobe Illustrator 24.3.0, SVG Export Plug-In . SVG Version: 6.00 Build 0)  -->
<svg version="1.1" id="Layer_1" xmlns="http://www.w3.org/2000/svg" xmlns:xlink="http://www.w3.org/1999/xlink" x="0px" y="0px"
	 viewBox="0 0 32 32" style="enable-background:new 0 0 32 32;" xml:space="preserve">
<g>
	<path d="M30.7,14.15c-1.99-0.26-3.98-0.53-5.97-0.8c-0.49-0.07-0.98-0.13-1.47-0.18c-0.32-0.03-0.52,0.16-0.55,0.46
		c-0.03,0.29,0.15,0.48,0.44,0.54c0.17,0.03,0.35,0.04,0.52,0.07c0.58,0.09,0.58,0.09,0.58,0.68c0,0.69-0.04,0.73-0.74,0.64
		c-0.27-0.03-0.53-0.06-0.8-0.1c-1.04-0.15-0.98-0.16-1.05-1.22c-0.07-1.02,0.16-1.89,0.81-2.67c0.14-0.17,0.21-0.48,0.16-0.69
		c-0.07-0.31-0.39-0.3-0.67-0.32c-3.44-0.16-6.87-0.32-10.31-0.5c-0.37-0.02-0.63,0.1-0.84,0.41c-0.71,1.02-1.45,2.03-2.15,3.05
		c-0.19,0.27-0.38,0.4-0.73,0.36c-0.86-0.11-1.73-0.2-2.59-0.29c-1.34-0.14-2.69-0.3-4.03-0.43c-0.54-0.05-0.75,0.15-0.71,0.69
		c0.02,0.35,0.09,0.69,0.13,1.04c0.03,0.29,0.18,0.41,0.47,0.44c4.23,0.47,8.46,0.95,12.69,1.43c3.78,0.43,7.55,0.85,11.33,1.27
		c1.54,0.17,3.09,0.34,4.63,0.52c0.26,0.03,0.46,0.01,0.55-0.31c0.31-1.05,0.64-2.1,0.96-3.15C31.54,14.45,31.38,14.24,30.7,14.15z
		 M15.03,14.29c-0.03,0.24-0.17,0.34-0.42,0.32c-1.5-0.16-3.01-0.31-4.51-0.48c-0.36-0.04-0.45-0.23-0.24-0.52
		c0.54-0.77,1.08-1.53,1.64-2.28c0.08-0.11,0.29-0.2,0.44-0.19c1.02,0.03,2.03,0.09,3.05,0.14c0.26,0.01,0.46,0.06,0.42,0.39
		C15.28,12.54,15.16,13.42,15.03,14.29z M20.86,12.18c-0.11,0.2-0.19,0.44-0.2,0.67c-0.03,0.64-0.01,1.28-0.01,1.92
		c0,0.32-0.11,0.49-0.45,0.44c-1.26-0.14-2.52-0.28-3.79-0.41c-0.28-0.03-0.37-0.15-0.34-0.42c0.12-0.89,0.24-1.77,0.36-2.66
		c0.04-0.28,0.2-0.37,0.48-0.36c1.21,0.07,2.43,0.12,3.64,0.19C21.06,11.58,21.12,11.72,20.86,12.18z M26.73,15.9
		c-0.36-0.03-0.72-0.09-1.07-0.12c-0.28-0.02-0.39-0.15-0.4-0.44c-0.02-0.86,0-0.89,0.86-0.75c0.2,0.03,0.4,0.05,0.6,0.07
		c0.61,0.08,0.61,0.08,0.61,0.69C27.33,15.92,27.29,15.95,26.73,15.9z M29.27,16.17c-0.11-0.01-0.21-0.02-0.32-0.02
		c-0.58-0.05-0.59-0.06-0.59-0.65c0-0.57,0.04-0.6,0.59-0.54c0.32,0.04,0.64,0.07,0.94,0.16c0.1,0.03,0.24,0.22,0.24,0.32
		C30.11,16.09,29.91,16.24,29.27,16.17z"/>
	<path d="M29.27,19.53c-1.8-0.19-3.59-0.39-5.39-0.59c-3.71-0.42-7.42-0.84-11.13-1.26c-2.09-0.24-4.18-0.47-6.26-0.71
		c-1.46-0.17-2.93-0.33-4.39-0.49c-0.2-0.02-0.4,0.05-0.6,0.08c0.07,0.2,0.09,0.44,0.21,0.6c0.37,0.48,0.73,0.96,1.17,1.37
		c2.31,2.14,5.14,3.15,8.22,3.3c2.93,0.14,5.86,0.03,8.8,0.03c0,0.02,0,0.03,0,0.05c2.96,0,5.92,0,8.88,0.01
		c0.35,0,0.54-0.11,0.62-0.46c0.09-0.4,0.23-0.8,0.36-1.19C29.94,19.68,29.88,19.6,29.27,19.53z"/>
</g>
</svg>
