<?xml version="1.0" encoding="utf-8"?>
<!-- Generator: Adobe Illustrator 24.3.0, SVG Export Plug-In . SVG Version: 6.00 Build 0)  -->
<svg version="1.1" id="Layer_1" xmlns="http://www.w3.org/2000/svg" xmlns:xlink="http://www.w3.org/1999/xlink" x="0px" y="0px"
	 viewBox="0 0 32 32" style="enable-background:new 0 0 32 32;" xml:space="preserve">
<g>
	<path d="M6.37,6.38c0,2.2,0.01,4.31-0.01,6.42c0,0.18-0.11,0.39-0.22,0.54c-1.27,1.69-1.7,3.58-1.53,5.69
		c0.13,1.61,0.61,2.21,2.22,2.21c0.44,0,0.88,0.01,1.31,0c0.99-0.04,1.71-0.76,1.73-1.75c0.02-1,0.04-2.01-0.01-3
		c-0.02-0.4-0.16-0.84-0.39-1.16c-1.1-1.52-1.54-3.18-1.36-5.06C8.22,9,8.13,7.72,8.13,6.4c0.88,0,1.71,0,2.62,0
		c0-0.53,0-1.01,0-1.5c0-1.82,1.06-2.88,2.88-2.89c1.62,0,3.24-0.01,4.86,0c1.64,0.01,2.74,1.1,2.75,2.74c0,0.51,0,1.02,0,1.62
		c0.22,0,0.41,0,0.6,0c1.79,0,3.57-0.01,5.36,0c2.66,0.01,4.54,1.88,4.54,4.55c0.01,4.84,0.01,9.69,0,14.53
		c0,2.64-1.87,4.52-4.5,4.52c-7.49,0.01-14.98,0.01-22.47,0c-2.64,0-4.51-1.88-4.52-4.51c-0.01-4.86-0.01-9.72,0-14.59
		c0-2.62,1.89-4.49,4.53-4.51C5.29,6.37,5.79,6.38,6.37,6.38z M19.48,6.35c0-0.63,0.03-1.21-0.01-1.79
		c-0.03-0.51-0.37-0.79-0.87-0.8c-1.73-0.01-3.46-0.01-5.19,0c-0.45,0-0.82,0.23-0.86,0.68c-0.06,0.62-0.02,1.26-0.02,1.91
		C14.86,6.35,17.13,6.35,19.48,6.35z"/>
	<path d="M7.25,16.87c-0.48,0-0.86-0.38-0.87-0.86c-0.01-0.49,0.4-0.89,0.9-0.88c0.48,0.01,0.85,0.41,0.84,0.88
		C8.11,16.49,7.73,16.87,7.25,16.87z"/>
</g>
</svg>
