<?xml version="1.0" encoding="utf-8"?>
<!-- Generator: Adobe Illustrator 24.3.0, SVG Export Plug-In . SVG Version: 6.00 Build 0)  -->
<svg version="1.1" id="Layer_1" xmlns="http://www.w3.org/2000/svg" xmlns:xlink="http://www.w3.org/1999/xlink" x="0px" y="0px"
	 viewBox="0 0 32 32" style="enable-background:new 0 0 32 32;" xml:space="preserve">
<g>
	<path d="M0.33,2c0-0.19-0.01-0.37,0-0.56c0.05-0.64,0.46-1.06,1.1-1.13C3.16,0.12,4.7,0.7,5.98,1.79C7.33,2.94,8.6,4.2,9.82,5.5
		c3.93,4.18,7.81,8.4,11.71,12.61c1.61,1.75,2.72,3.84,3.96,5.84c0.43,0.69,0.82,1.42,1.19,2.15c0.08,0.16,0.02,0.39,0.02,0.59
		c-0.2-0.01-0.44,0.05-0.59-0.04c-1.86-1.09-3.71-2.19-5.55-3.31c-2.11-1.28-3.84-3.01-5.63-4.68c-4-3.73-7.94-7.51-11.89-11.28
		C1.9,6.32,0.98,5.09,0.55,3.57c-0.14-0.51-0.2-1.04-0.3-1.56C0.28,2,0.3,2,0.33,2z"/>
	<path d="M6.78,12.46c1.64,1.55,3.22,3.05,4.79,4.53c-0.65,0.85-1.33,1.65-1.9,2.53c-2,3.1-3.96,6.23-5.94,9.35
		C3.64,29,3.55,29.15,3.4,29.38c-0.31-0.33-0.61-0.61-0.86-0.93c-0.08-0.11-0.08-0.33-0.04-0.47c0.62-2.29,1.25-4.57,1.88-6.85
		c0.75-2.71,1.49-5.43,2.23-8.14C6.66,12.83,6.71,12.69,6.78,12.46z"/>
	<path d="M16.99,11.57C15.5,10,14,8.41,12.45,6.77c0.89-0.25,1.72-0.47,2.54-0.7c4.28-1.17,8.56-2.34,12.83-3.53
		c0.36-0.1,0.62-0.09,0.86,0.22c0.18,0.22,0.42,0.39,0.67,0.62C25.26,6.19,20.88,8.46,16.99,11.57z"/>
	<path d="M25.78,22.5c-0.59-0.93-1.13-1.8-1.71-2.72c0.75-0.21,1.45-0.41,2.15-0.61c1.09-0.31,2.18-0.63,3.27-0.91
		c0.17-0.04,0.41,0.03,0.55,0.14c0.31,0.25,0.58,0.55,0.93,0.88C29.22,20.37,27.52,21.42,25.78,22.5z"/>
	<path d="M19.84,24.11c0.86,0.54,1.73,1.09,2.65,1.67c-1.06,1.72-2.11,3.42-3.22,5.23c-0.36-0.39-0.68-0.72-0.97-1.07
		c-0.07-0.08-0.11-0.24-0.08-0.34c0.5-1.8,1.02-3.59,1.53-5.38C19.76,24.19,19.79,24.17,19.84,24.11z"/>
	<path d="M24.09,2.54c-0.85,0.23-1.64,0.46-2.45,0.66c-0.09,0.02-0.3-0.08-0.32-0.16c-0.15-0.52-0.27-1.04-0.38-1.57
		c-0.05-0.27,0.1-0.37,0.37-0.38C22.49,1.03,23.33,1.62,24.09,2.54z"/>
	<path d="M2.53,24.09c-0.9-0.74-1.48-1.56-1.45-2.72c0.01-0.35,0.14-0.49,0.46-0.43c0.49,0.1,0.97,0.22,1.45,0.34
		c0.21,0.06,0.28,0.19,0.21,0.42C2.97,22.48,2.76,23.26,2.53,24.09z"/>
	<path d="M4.92,15.42c-0.24,0.87-0.47,1.69-0.7,2.52c-0.86-0.48-1.5-1.8-1.3-2.72c0.02-0.09,0.15-0.21,0.24-0.22
		C3.78,14.94,4.36,15.05,4.92,15.42z"/>
	<path d="M17.99,4.2c-0.84,0.23-1.63,0.46-2.43,0.66c-0.08,0.02-0.27-0.12-0.29-0.21c-0.11-0.48-0.2-0.97-0.26-1.46
		C15,3.11,15.2,2.93,15.31,2.92C16.42,2.83,17.26,3.32,17.99,4.2z"/>
	<path d="M28.15,14.95c-0.08,0.11-0.14,0.27-0.25,0.31c-0.12,0.04-0.32,0.02-0.42-0.06c-0.34-0.3-0.66-0.64-0.98-0.96
		c-0.33-0.33-0.69-0.65-0.99-1.01c-0.1-0.12-0.05-0.37-0.07-0.56c0.19,0.01,0.45-0.06,0.56,0.03c0.68,0.63,1.33,1.3,1.99,1.96
		C28.05,14.72,28.08,14.82,28.15,14.95z"/>
	<path d="M15.35,27.79c-0.09,0.1-0.18,0.27-0.28,0.29c-0.15,0.02-0.35-0.03-0.46-0.13c-0.46-0.43-0.9-0.88-1.34-1.33
		c-0.21-0.21-0.45-0.41-0.62-0.65c-0.08-0.12-0.09-0.42-0.01-0.48c0.12-0.09,0.42-0.11,0.51-0.03c0.7,0.66,1.37,1.34,2.04,2.03
		C15.26,27.56,15.29,27.67,15.35,27.79z"/>
	<path d="M8.57,27.39c0.13,0.08,0.24,0.12,0.32,0.2c0.56,0.55,1.13,1.1,1.66,1.68c0.1,0.11,0.05,0.37,0.08,0.56
		c-0.19-0.01-0.46,0.06-0.57-0.03c-0.6-0.55-1.17-1.14-1.73-1.73c-0.08-0.09-0.11-0.3-0.07-0.42C8.29,27.54,8.46,27.48,8.57,27.39z"
		/>
	<path d="M27.79,8.14c0.14,0.1,0.27,0.17,0.37,0.27c0.53,0.52,1.06,1.05,1.58,1.58c0.2,0.2,0.3,0.42,0.07,0.63
		c-0.21,0.2-0.42,0.09-0.6-0.09c-0.54-0.55-1.1-1.09-1.63-1.65c-0.1-0.1-0.13-0.31-0.11-0.46C27.49,8.32,27.66,8.25,27.79,8.14z"/>
	<path d="M23.26,10.17c0.33-0.01,1.51,1.15,1.47,1.41c-0.02,0.11-0.1,0.26-0.2,0.3c-0.11,0.04-0.31,0.04-0.39-0.03
		c-0.38-0.34-0.74-0.71-1.09-1.09c-0.07-0.08-0.07-0.27-0.03-0.39C23.07,10.27,23.21,10.21,23.26,10.17z"/>
	<path d="M11.95,24.42c-0.07,0.09-0.13,0.23-0.22,0.26c-0.12,0.04-0.31,0.04-0.39-0.03c-0.37-0.34-0.74-0.69-1.06-1.07
		c-0.08-0.09-0.08-0.36,0-0.46c0.07-0.09,0.36-0.16,0.43-0.09c0.41,0.36,0.79,0.75,1.17,1.14C11.91,24.23,11.91,24.31,11.95,24.42z"
		/>
	<path d="M30.67,11.17c0.33,0,1.11,0.77,1.08,1.02c-0.01,0.11-0.09,0.27-0.18,0.31c-0.11,0.05-0.31,0.05-0.39-0.02
		c-0.26-0.22-0.51-0.46-0.73-0.73c-0.07-0.09-0.07-0.28-0.02-0.39C30.47,11.26,30.62,11.21,30.67,11.17z"/>
	<path d="M11.49,30.35c0.12,0.05,0.21,0.06,0.27,0.12c0.24,0.23,0.5,0.44,0.69,0.71c0.08,0.1,0.08,0.39,0.01,0.45
		c-0.11,0.09-0.38,0.14-0.48,0.07c-0.28-0.2-0.52-0.46-0.73-0.72c-0.07-0.09-0.07-0.28-0.02-0.4C11.26,30.48,11.4,30.42,11.49,30.35
		z"/>
</g>
</svg>
