<?xml version="1.0" encoding="utf-8"?>
<!-- Generator: Adobe Illustrator 24.3.0, SVG Export Plug-In . SVG Version: 6.00 Build 0)  -->
<svg version="1.1" id="Layer_1" xmlns="http://www.w3.org/2000/svg" xmlns:xlink="http://www.w3.org/1999/xlink" x="0px" y="0px"
	 viewBox="0 0 32 32" style="enable-background:new 0 0 32 32;" xml:space="preserve">
<g>
	<path d="M12.61,10.89c0.02-2.49,0.24-4.95,1.01-7.32c0.25-0.78,0.64-1.51,1.01-2.25c0.13-0.26,0.35-0.48,0.56-0.67
		c0.55-0.51,1.16-0.54,1.66,0.02c0.42,0.47,0.79,1.02,1.06,1.59c0.74,1.57,1.07,3.26,1.28,4.97c0.32,2.58,0.36,5.17-0.08,7.73
		c-0.25,1.51-0.66,3-1.04,4.49c-0.46,1.79-0.97,3.56-1.42,5.34c-0.1,0.4-0.3,0.43-0.62,0.42c-0.29-0.01-0.53,0.03-0.64-0.39
		c-0.68-2.64-1.4-5.26-2.1-7.9C12.77,14.94,12.62,12.92,12.61,10.89z"/>
	<path d="M20.44,1.09c0.73,0.43,1.5,0.79,2.17,1.29c3.5,2.59,5.13,6.08,4.79,10.43c-0.16,2.08-1,3.94-2.3,5.58
		c-1.7,2.15-3.4,4.3-5.09,6.46c-0.21,0.27-0.43,0.4-0.77,0.37c-0.27-0.03-0.55-0.01-0.91-0.01c0.42-0.75,0.8-1.43,1.18-2.1
		c1.15-2.05,2.37-4.06,3.43-6.15c1.51-2.96,1.7-6.11,1-9.32c-0.53-2.45-1.6-4.61-3.48-6.32c-0.04-0.03-0.07-0.08-0.1-0.11
		C20.39,1.16,20.42,1.12,20.44,1.09z"/>
	<path d="M11.52,1.29C8.72,4.04,7.67,7.47,7.71,11.3c0.03,2.46,0.73,4.72,1.99,6.85c1.32,2.24,2.57,4.52,3.85,6.79
		c0.03,0.06,0.06,0.13,0.12,0.26c-0.45,0-0.86,0.01-1.27-0.01c-0.1-0.01-0.2-0.13-0.28-0.23c-1.76-2.23-3.52-4.45-5.28-6.68
		C2.75,13.08,4.37,5.5,9.94,2.01c0.5-0.31,1.04-0.57,1.56-0.85C11.51,1.21,11.52,1.25,11.52,1.29z"/>
	<path d="M17.33,25.15c0.05-0.22,0.1-0.45,0.16-0.67c0.65-2.44,1.32-4.88,1.96-7.33c0.61-2.35,0.77-4.74,0.7-7.15
		c-0.08-2.5-0.38-4.96-1.25-7.32c-0.25-0.69-0.61-1.34-0.96-2.11c0.52,0.29,1,0.52,1.44,0.82c1.57,1.11,2.6,2.65,3.26,4.42
		c1.23,3.29,1.35,6.62,0.04,9.91c-0.54,1.34-1.32,2.58-2.03,3.85c-0.99,1.78-2,3.55-3.01,5.33c-0.06,0.1-0.13,0.19-0.2,0.29
		C17.4,25.18,17.36,25.16,17.33,25.15z"/>
	<path d="M14.56,25.19c-0.35-0.61-0.7-1.23-1.05-1.84c-1.2-2.12-2.41-4.22-3.58-6.35c-1.2-2.18-1.6-4.54-1.44-7.01
		c0.14-2.17,0.7-4.21,1.85-6.07c0.79-1.27,1.79-2.32,3.13-3.02c0.19-0.1,0.39-0.18,0.62-0.28c-1.98,3.58-2.26,7.43-2.22,11.34
		c0.03,2.62,0.62,5.15,1.34,7.65c0.48,1.69,0.92,3.4,1.38,5.1c0.04,0.14,0.06,0.29,0.09,0.43C14.65,25.16,14.6,25.17,14.56,25.19z"
		/>
	<path d="M16.02,28.21c0.9,0,1.79,0,2.69,0c0.52,0,0.64,0.14,0.56,0.67c-0.11,0.77-0.23,1.55-0.33,2.32
		c-0.05,0.37-0.2,0.54-0.59,0.54c-1.57-0.01-3.13-0.01-4.7,0c-0.34,0-0.51-0.13-0.56-0.48c-0.11-0.82-0.23-1.63-0.35-2.45
		c-0.06-0.47,0.06-0.6,0.55-0.61C14.2,28.21,15.11,28.21,16.02,28.21z"/>
	<path d="M16.36,27.45c-0.24,0-0.45,0-0.69,0c0-0.49,0-0.97,0-1.47c0.22,0,0.44,0,0.69,0C16.36,26.45,16.36,26.93,16.36,27.45z"/>
	<path d="M12.48,25.99c0.75-0.1,0.75-0.1,0.97,0.53c0.1,0.29,0.19,0.58,0.29,0.87c-0.66,0.19-0.74,0.15-0.94-0.45
		C12.7,26.63,12.59,26.33,12.48,25.99z"/>
	<path d="M18.28,27.39c0.13-0.41,0.26-0.82,0.4-1.22c0.16-0.44,0.53-0.13,0.87-0.25c-0.17,0.52-0.26,0.99-0.48,1.39
		c-0.09,0.16-0.48,0.15-0.73,0.21C18.33,27.48,18.3,27.44,18.28,27.39z"/>
</g>
</svg>
