<?xml version="1.0" encoding="utf-8"?>
<!-- Generator: Adobe Illustrator 24.3.0, SVG Export Plug-In . SVG Version: 6.00 Build 0)  -->
<svg version="1.1" id="Layer_1" xmlns="http://www.w3.org/2000/svg" xmlns:xlink="http://www.w3.org/1999/xlink" x="0px" y="0px"
	 viewBox="0 0 32 32" style="enable-background:new 0 0 32 32;" xml:space="preserve">
<g>
	<path d="M16.91,19.73c-0.57,0-1.04,0.05-1.49-0.02c-0.39-0.06-0.45,0.12-0.54,0.42c-0.18,0.57-0.33,1.18-0.64,1.67
		c-0.86,1.37-2.17,2.04-3.76,2.07c-2.01,0.04-4.03,0.05-6.05-0.01c-1.73-0.05-3.03-0.88-3.76-2.48c-0.15-0.32-0.25-0.68-0.28-1.03
		c-0.08-0.99-0.13-1.99-0.15-2.98c-0.01-0.43,0.32-0.84,0.1-1.31c-0.05-0.11,0.06-0.31,0.14-0.45c1.21-2.17,2.42-4.33,3.63-6.49
		c0.29-0.52,0.8-0.66,1.32-0.71c1.47-0.14,2.57,0.49,3.38,1.69c0.18,0.26,0.3,0.55,0.45,0.83c0.17,0.32,0.13,0.66-0.13,0.86
		c-0.21,0.16-0.54,0.22-0.81,0.22c-0.35,0-0.44-0.32-0.48-0.62C7.7,10.24,7.06,9.76,5.93,9.62c-0.32-0.04-0.52,0.04-0.62,0.41
		c-0.33,1.26-0.7,2.5-1.08,3.81c0.19,0.01,0.33,0.03,0.47,0.03c1.8,0,3.59,0.04,5.39-0.01c1.71-0.05,3.21,0.32,4.28,1.73
		c1.06-0.49,2.07-0.58,2.94,0.1c0.59-0.46,1.12-1,1.76-1.32c0.58-0.29,1.28-0.46,1.93-0.47c2.34-0.05,4.69-0.02,6.98-0.02
		c-0.4-1.37-0.82-2.77-1.21-4.18c-0.09-0.31-0.25-0.38-0.52-0.38c-1.03,0-1.81,0.66-1.97,1.68c-0.05,0.33-0.08,0.66-0.5,0.75
		c-0.32,0.07-0.6,0.03-0.82-0.23c-0.27-0.31-0.23-0.64-0.07-0.99c0.57-1.25,1.47-2.1,2.84-2.38c0.6-0.12,1.18-0.05,1.72,0.21
		c0.21,0.1,0.41,0.29,0.52,0.49c1.22,2.13,2.41,4.27,3.61,6.41c0.2,0.36,0.26,0.71-0.03,1.07c-0.07,0.08-0.08,0.25-0.05,0.36
		c0.21,0.66,0.31,1.32,0.2,2.02c-0.1,0.65-0.09,1.32-0.22,1.96c-0.39,1.85-2,3.18-3.91,3.22c-2.14,0.04-4.28,0.11-6.42-0.01
		c-1.86-0.1-3.63-1.32-4.1-3.61C17,20.04,16.94,19.84,16.91,19.73z M8.85,15.5c-0.62,0-1.15,0.01-1.68-0.01
		c-0.26-0.01-0.38,0.09-0.5,0.31c-0.87,1.66-1.75,3.31-2.63,4.97c-0.2,0.38-0.4,0.76-0.62,1.2c0.59,0,1.1-0.02,1.6,0.01
		c0.3,0.02,0.46-0.08,0.6-0.35c0.61-1.18,1.24-2.35,1.86-3.52C7.92,17.26,8.36,16.42,8.85,15.5z M20.79,21.97
		c0.61,0,1.15-0.01,1.68,0.01c0.26,0.01,0.39-0.08,0.51-0.31c1.02-1.94,2.05-3.88,3.07-5.82c0.05-0.1,0.09-0.21,0.15-0.36
		c-0.6,0-1.14,0.02-1.67-0.01c-0.25-0.01-0.37,0.1-0.47,0.3c-0.22,0.44-0.46,0.87-0.69,1.31C22.53,18.7,21.68,20.29,20.79,21.97z
		 M10.31,15.54c-0.72-0.1-0.72-0.1-1.03,0.47c-0.69,1.3-1.39,2.61-2.08,3.92c-0.35,0.66-0.7,1.32-1.05,2
		c0.73,0.11,0.73,0.11,1.03-0.47c0.7-1.33,1.41-2.66,2.11-3.99C9.64,16.83,9.97,16.2,10.31,15.54z M27.71,15.54
		c-0.74-0.09-0.74-0.09-1.04,0.48c-0.7,1.32-1.4,2.64-2.1,3.95c-0.34,0.65-0.68,1.3-1.03,1.96c0.73,0.09,0.73,0.09,1.04-0.48
		c0.79-1.49,1.58-2.97,2.36-4.46C27.2,16.51,27.45,16.03,27.71,15.54z"/>
</g>
</svg>
