<?xml version="1.0" encoding="utf-8"?>
<!-- Generator: Adobe Illustrator 24.3.0, SVG Export Plug-In . SVG Version: 6.00 Build 0)  -->
<svg version="1.1" id="Layer_1" xmlns="http://www.w3.org/2000/svg" xmlns:xlink="http://www.w3.org/1999/xlink" x="0px" y="0px"
	 viewBox="0 0 32 32" style="enable-background:new 0 0 32 32;" xml:space="preserve">
<g>
	<path d="M26.8,12.91c-0.94-1.59-2.08-2.83-3.36-3.77c-1.02,0.68-2.04,1.35-3.06,2.03c-0.1,0.07-0.2,0.12-0.31,0.06
		c-0.12-0.06-0.14-0.17-0.14-0.3c-0.03-1.2-0.07-2.4-0.1-3.59c-0.97-0.29-1.98-0.46-2.99-0.52c-2.68,0-4.52,0.41-6.26,1.26
		c-6.22,3.07-8.69,10.53-5.79,16.5c1.57,3.22,4.06,5.43,7.47,6.58c1.95,0.66,3.94,0.73,5.95,0.4c2.88-0.48,5.3-1.78,7.19-4.01
		c1.71-2.01,2.66-4.36,2.94-6.98C28.63,17.85,28.19,15.26,26.8,12.91z M15.91,22.51c-0.16,0.57-0.41,1.01-1.01,1.21
		c-0.09,0.03-0.17,0.26-0.17,0.4c0.01,0.51-0.06,0.68-0.54,0.84c-0.35,0.11-0.42,0.32-0.37,0.64c0.05,0.34,0.06,0.68-0.19,0.96
		c-0.05,0.06-0.11,0.13-0.17,0.14c-0.69,0.18-0.79,0.78-0.88,1.33c-0.1,0.55,0.22,0.98,0.57,1.36c0.05,0.06,0.1,0.12,0.17,0.2
		c-0.85,0.15-1.17-0.04-1.42-0.79c-0.12-0.37-0.25-0.74-0.4-1.1c-0.21-0.49-0.39-0.96-0.41-1.52c-0.01-0.37-0.26-0.75-0.44-1.11
		c-0.25-0.49-0.5-0.96-0.43-1.54c0.01-0.06-0.15-0.21-0.23-0.21c-0.37,0-0.75-0.01-0.99-0.32c-0.35-0.45-0.81-0.91-0.92-1.42
		c-0.12-0.57,0.16-1.18,0.58-1.66c0.08-0.09,0.17-0.18,0.21-0.28c0.09-0.23-0.03-0.4-0.28-0.37c-0.4,0.06-0.72-0.04-1-0.35
		c-0.08-0.08-0.26-0.11-0.38-0.1c-0.37,0.02-0.69-0.08-0.96-0.33c-0.34-0.31-0.71-0.51-1.18-0.55c-0.45-0.04-0.58-0.26-0.5-0.7
		c0.62-3.35,2.38-5.94,5.21-7.83c0.21-0.14,0.35-0.14,0.52,0.06c0.34,0.38,0.37,0.38,0.8,0.14c0.27-0.15,0.53-0.34,0.77-0.54
		c0.3-0.25,1.11-0.18,1.36,0.16c0.22,0.3,0.38,0.65,0.53,0.91c-0.69,0.18-1.34,0.36-1.99,0.52c-0.11,0.03-0.25-0.05-0.38-0.09
		c-0.03-0.01-0.04-0.05-0.06-0.07c-0.17-0.21-0.4-0.22-0.58-0.09c-0.32,0.23-0.97-0.03-0.98,0.68c0,0.32-0.05,0.59,0.42,0.57
		c0.14-0.01,0.3,0.22,0.49,0.36c0.06-0.11,0.11-0.2,0.14-0.3c0.13-0.38,0.4-0.55,0.79-0.56c0.28,0,0.57,0.04,0.85,0
		c0.37-0.06,0.74-0.14,1.08-0.29c0.24-0.1,0.4-0.1,0.54,0.09c0.18,0.26,0.32,0.54,0.49,0.8c0.11,0.17,0.26,0.31,0.45,0.53
		c-0.18,0.16-0.41,0.4-0.67,0.6c-0.08,0.06-0.25,0.03-0.36,0c-0.34-0.1-0.67-0.21-1.04-0.33c0,0.22,0,0.39,0,0.56
		c0,0.23-0.11,0.34-0.34,0.34c-0.04,0-0.09,0-0.13,0c-1.1-0.03-1.75,0.5-1.98,1.62c-0.14,0.68-0.36,1.29-0.92,1.75
		c-0.18,0.15-0.31,0.19-0.54,0.06c-0.52-0.3-1.09-0.42-1.7-0.29c-0.14,0.03-0.27,0.08-0.39,0.15c-0.23,0.13-0.36,0.31-0.17,0.58
		c0.05,0.07,0.07,0.16,0.11,0.24c0.16,0.33,0.24,0.35,0.48,0.08c0.17-0.2,0.36-0.22,0.49-0.16c0.25,0.47,0.45,0.85,0.69,1.32
		c0.3,0,0.68,0.09,1.06-0.22c0.23-0.18,0.63-0.17,0.95-0.2c0.08-0.01,0.19,0.16,0.25,0.26c0.11,0.17,0.19,0.36,0.26,0.49
		c0.34-0.12,0.64-0.33,0.93-0.32c0.7,0.04,1.39,0.21,1.65,1.02c0.07,0.22,0.22,0.37,0.49,0.35c0.08-0.01,0.17,0.04,0.23,0.08
		c0.31,0.21,0.61,0.45,0.93,0.65C15.89,21.29,16.1,21.83,15.91,22.51z M24.22,10.91c-0.02,0.02-0.03,0.05-0.05,0.07
		c-0.37-0.2-0.77-0.35-0.87-0.87C23.61,10.38,23.92,10.65,24.22,10.91z M21.15,13.08c0.3-0.65,0.97-0.76,1.48-0.25
		c0.03,0.03,0.06,0.05,0.14,0.12c0.01-0.22,0.02-0.38,0.03-0.55c0.02-0.53,0.2-0.73,0.73-0.75c0.37-0.01,0.75,0.01,0.99-0.4
		c0.73,0.75,1.3,1.56,1.78,2.44c-0.04,0.03-0.08,0.07-0.11,0.1c-0.16-0.2-0.33-0.39-0.49-0.59c-0.13-0.16-0.26-0.16-0.41-0.01
		c-0.13,0.14-0.23,0.27-0.05,0.43c0.22,0.2,0.45,0.41,0.74,0.69c-0.35,0.17-0.61,0.32-0.88,0.42c-0.19,0.06-0.45-0.33-0.53-0.61
		c-0.09-0.37-0.24-0.72-0.37-1.08c-0.63,0.43-1.16,0.85-1.75,1.16c-0.28,0.15-0.71,0.16-1.02,0.07C21.13,14.16,21,13.41,21.15,13.08
		z M27.42,21.96c-0.38,1.65-1.11,3.15-2.15,4.49c-0.05,0.07-0.11,0.13-0.17,0.19c0.04-0.83-0.52-1.41-0.82-2.09
		c-0.11-0.24-0.12-0.4,0.09-0.57c0.08-0.06,0.15-0.13,0.22-0.2c0.44-0.42,0.41-0.42,0.18-0.96c-0.12-0.3-0.12-0.65-0.2-0.98
		c-0.03-0.14-0.07-0.32-0.16-0.38c-0.63-0.4-1.31-0.53-2.01-0.18c-1.33,0.67-2.51,0.06-2.7-1.43c-0.05-0.41-0.06-0.82-0.05-1.24
		c0-0.15,0.1-0.33,0.21-0.45c0.17-0.18,0.25-0.36,0.23-0.61c-0.02-0.23-0.02-0.46,0-0.68c0.03-0.47,0.31-0.68,0.78-0.73
		c0.38-0.03,0.77-0.12,1.12-0.28c0.55-0.26,1.11-0.14,1.66-0.14c0.09,0,0.17,0.12,0.26,0.18c0.33,0.21,0.65,0.42,0.99,0.61
		c0.06,0.03,0.19-0.03,0.27-0.07c0.36-0.22,0.71-0.46,1.07-0.67c0.08-0.04,0.21-0.03,0.3,0.01c0.22,0.09,0.44,0.19,0.64,0.31
		c0.07,0.04,0.12,0.14,0.14,0.23C27.85,18.19,27.86,20.07,27.42,21.96z"/>
	<path d="M25.89,7.49c1.28-0.87,1.87-2.12,1.73-3.66c-0.13-1.45-0.91-2.5-2.19-3.19c-0.2-0.07-0.4-0.17-0.61-0.23
		c-0.18-0.06-0.37-0.09-0.56-0.12c-2.39-0.34-4.54,1.5-4.52,3.91c0.01,1.05,0.04,2.09,0.07,3.14c1.28,0.38,2.5,0.97,3.62,1.8
		C24.26,8.59,25.08,8.05,25.89,7.49z M21.95,3.29c0.5-0.96,1.7-1.34,2.66-0.84c0.97,0.5,1.35,1.7,0.85,2.66
		c-0.5,0.97-1.71,1.35-2.67,0.85C21.82,5.45,21.45,4.25,21.95,3.29z"/>
</g>
</svg>
