<?xml version="1.0" encoding="utf-8"?>
<!-- Generator: Adobe Illustrator 24.3.0, SVG Export Plug-In . SVG Version: 6.00 Build 0)  -->
<svg version="1.1" id="Layer_1" xmlns="http://www.w3.org/2000/svg" xmlns:xlink="http://www.w3.org/1999/xlink" x="0px" y="0px"
	 viewBox="0 0 32 32" style="enable-background:new 0 0 32 32;" xml:space="preserve">
<g>
	<path d="M2.18,16.89c0.71-0.39,1.36-0.76,2.03-1.1c0.12-0.06,0.33-0.04,0.46,0.02c0.48,0.23,0.94,0.49,1.41,0.73
		c0.5,0.26,1,0.28,1.52,0.04c3.66-1.67,7.31-3.34,10.98-5c1.67-0.76,3.34-1.54,5.05-2.22c1.29-0.51,2.66-0.63,4.05-0.52
		c0.1,0.01,0.2,0.04,0.43,0.08c-0.59,0.32-1.08,0.58-1.56,0.84c-0.11,0.06-0.26,0.09-0.32,0.18c-0.11,0.17-0.26,0.41-0.21,0.57
		c0.08,0.28,0.35,0.31,0.62,0.18c0.84-0.44,1.69-0.87,2.52-1.33c0.3-0.17,0.58-0.21,0.88-0.06c0.45,0.22,0.91,0.42,1.34,0.67
		c0.5,0.29,0.51,0.62,0.02,0.91c-1.61,0.95-3.21,1.91-4.87,2.77c-1.43,0.73-2.93,1.32-4.39,1.96c-0.11,0.05-0.23,0.07-0.46,0.14
		c0.39-0.61,0.75-1.11,1.04-1.65c0.1-0.19,0.07-0.45,0.09-0.68c-0.23-0.02-0.49-0.13-0.67-0.05c-1.73,0.7-3.46,1.43-5.17,2.17
		c-0.23,0.1-0.44,0.33-0.58,0.55c-0.27,0.42-0.51,0.86-0.7,1.32c-0.18,0.43-0.48,0.63-0.92,0.75c-3.21,0.91-6.46,1.64-9.77,2.1
		c-1.09,0.15-1.81-0.61-1.57-1.68c0.09-0.39-0.05-0.71-0.34-0.96C2.8,17.39,2.51,17.17,2.18,16.89z"/>
	<path d="M21.19,14.79c-1.17,1.82-2.4,3.61-3.48,5.49c-0.71,1.23-1.6,2.09-2.95,2.51c-0.36,0.11-0.7,0.31-1.13,0.4
		c0.29-0.57,0.58-1.15,0.88-1.72c0.83-1.6,1.67-3.21,2.51-4.81c0.07-0.13,0.16-0.3,0.29-0.35c1.27-0.55,2.55-1.08,3.82-1.61
		C21.15,14.73,21.17,14.76,21.19,14.79z"/>
	<path d="M18.71,10.54c-1.15,0.52-2.26,1.04-3.38,1.54c-0.08,0.03-0.19,0.06-0.26,0.02c-1.04-0.49-2.07-0.99-3.2-1.54
		c0.83-0.4,1.55-0.75,2.27-1.09c0.08-0.04,0.19-0.02,0.27,0c1.38,0.32,2.76,0.64,4.14,0.96C18.59,10.46,18.63,10.49,18.71,10.54z"/>
	<path d="M3.51,15.16c-0.69,0.38-1.28,0.72-1.89,1.03c-0.08,0.04-0.23,0.04-0.29-0.01c-0.35-0.26-0.68-0.53-1.08-0.86
		c0.63-0.31,1.2-0.59,1.77-0.86c0.07-0.03,0.18-0.01,0.26,0.03C2.66,14.7,3.04,14.91,3.51,15.16z"/>
</g>
</svg>
