<?xml version="1.0" encoding="utf-8"?>
<!-- Generator: Adobe Illustrator 24.3.0, SVG Export Plug-In . SVG Version: 6.00 Build 0)  -->
<svg version="1.1" id="Layer_1" xmlns="http://www.w3.org/2000/svg" xmlns:xlink="http://www.w3.org/1999/xlink" x="0px" y="0px"
	 viewBox="0 0 32 32" style="enable-background:new 0 0 32 32;" xml:space="preserve">
<g>
	<path d="M20.86,4.87c0.55-0.41,1.13-0.7,1.83-0.58c0.01,0.03,0.03,0.06,0.02,0.08c-0.92,1.39-1.13,2.96-1.18,4.58
		c-0.02,0.56-0.02,1.12,0,1.68c0.01,0.24-0.07,0.37-0.28,0.49c-0.54,0.29-1.09,0.58-1.6,0.91c-0.2,0.13-0.39,0.35-0.47,0.56
		c-0.26,0.71-0.43,1.42-0.1,2.19c0.28,0.64,0.08,1.31-0.15,2.05c0.59-0.39,0.98-0.83,1.08-1.43c0.2-1.15,0.83-2.01,1.72-2.7
		c0.25-0.19,0.31-0.4,0.31-0.7c0.02-1.54,0.03-3.09,0.13-4.62c0.07-1.07,0.42-2.09,1.14-2.93c0.79-0.92,1.79-1.31,2.97-0.97
		c1.16,0.34,1.89,1.12,2.06,2.34c0.04,0.31,0.01,0.62,0.01,0.96c0.07,0,0.17,0.01,0.27,0c1.2-0.14,2.25,0.41,2.81,1.5
		c0.55,1.07,0.39,2.33-0.42,3.2c-0.77,0.83-1.76,1.22-2.85,1.41c-1.65,0.29-3.32,0.23-4.99,0.17c-0.42-0.02-0.73,0.1-1.02,0.38
		c-0.61,0.58-1.13,1.18-1.28,2.07c-0.16,0.95-0.85,1.6-1.61,2.14c-0.23,0.16-0.31,0.33-0.3,0.61c0.02,0.55,0,1.09,0.01,1.64
		c0.01,0.35-0.18,0.49-0.49,0.52c-1.88,0.2-3.68-1.61-3.47-3.49c0.04-0.32,0.2-0.46,0.51-0.46c0.85,0,1.69,0,2.58,0
		c0.23-0.42,0.34-0.93,0.16-1.41c-0.34-0.94-0.27-1.85,0.1-2.76c0.12-0.29,0.05-0.5-0.09-0.76c-0.69-1.27-1.4-2.53-2.01-3.84
		c-0.39-0.85-0.49-1.79-0.19-2.72c0.33-1.05,1.07-1.63,2.13-1.78c1.05-0.14,1.96,0.36,2.48,1.31C20.73,4.63,20.78,4.74,20.86,4.87z"
		/>
	<path d="M14.57,28.78c-3.3,0-6.6,0-9.91,0c0.44-2.77-1.97-4.84-4.39-4.36c0-1.19,0-2.37,0-3.56c2.53,0.45,4.8-1.67,4.4-4.37
		c3.3,0,6.6,0,9.9,0c-0.42,2.63,1.78,4.82,4.37,4.36c0,1.18,0,2.36,0,3.55c-1.29-0.19-2.41,0.13-3.33,1.06
		C14.71,26.38,14.38,27.49,14.57,28.78z M9.61,19.86c-0.38-0.25-0.75-0.66-1.2-0.78c-1.46-0.42-2.69,0.64-2.61,2.16
		c0.04,0.8,0.38,1.49,0.88,2.07c0.85,0.97,1.77,1.89,2.66,2.83c0.22,0.23,0.42,0.13,0.6-0.05c0.78-0.8,1.61-1.56,2.33-2.41
		c0.44-0.53,0.79-1.18,1.04-1.83c0.31-0.78,0.2-1.57-0.42-2.21c-0.55-0.57-1.26-0.83-2.01-0.56C10.4,19.23,10,19.61,9.61,19.86z"/>
	<path d="M13.71,14.89c0.79,0.13,1.15,0.45,1.21,1.07c-1.11,0-2.22,0-3.33,0c0.07-0.62,0.36-0.89,1.22-1.1
		c0-0.85,0.02-1.71-0.01-2.56c-0.01-0.33-0.26-0.51-0.59-0.51c-1.74-0.01-3.47-0.01-5.21,0c-0.37,0-0.59,0.23-0.6,0.6
		c-0.01,0.82,0,1.64,0,2.48c0.63,0.1,1.15,0.35,1.26,1.09c-1.13,0-2.23,0-3.34,0c-0.02-0.57,0.36-0.93,1.18-1.08
		c0.01-0.13,0.02-0.28,0.02-0.42c0-0.68-0.01-1.37,0.01-2.05c0.02-0.87,0.62-1.48,1.48-1.49c1.74-0.01,3.47-0.01,5.21,0
		c0.84,0.01,1.44,0.61,1.47,1.45c0.02,0.7,0,1.39,0.01,2.09C13.69,14.61,13.71,14.75,13.71,14.89z"/>
	<path d="M2.6,28.8c-0.33,0-0.66,0.01-0.98,0c-0.75-0.02-1.33-0.57-1.35-1.32c-0.02-0.71,0-1.42-0.01-2.13
		c0-0.33,0.18-0.46,0.47-0.5c1.83-0.23,3.69,1.58,3.51,3.42c-0.03,0.36-0.2,0.55-0.57,0.54C3.31,28.79,2.95,28.8,2.6,28.8z"/>
	<path d="M2.66,16.48c0.33,0,0.66,0,0.98,0c0.44,0.01,0.58,0.13,0.58,0.6c0,1.33-0.57,2.37-1.75,2.96
		c-0.49,0.25-1.09,0.31-1.65,0.38c-0.42,0.05-0.56-0.14-0.57-0.56c0-0.66-0.01-1.31,0-1.97c0.01-0.85,0.57-1.4,1.42-1.42
		C2.01,16.47,2.34,16.48,2.66,16.48z"/>
	<path d="M16.59,28.8c-0.35,0-0.71-0.01-1.06,0c-0.32,0.01-0.47-0.14-0.52-0.45c-0.25-1.87,1.66-3.77,3.53-3.5
		c0.27,0.04,0.42,0.18,0.42,0.46c0,0.75,0.02,1.5-0.01,2.25c-0.03,0.69-0.6,1.21-1.3,1.24C17.3,28.81,16.95,28.8,16.59,28.8
		C16.59,28.8,16.59,28.8,16.59,28.8z"/>
	<path d="M12.14,12.3c-0.2,0.56-0.59,0.8-1.11,0.81c-0.94,0.01-1.88,0.01-2.82,0c-0.57-0.01-0.9-0.26-1.08-0.81
		C8.79,12.3,10.44,12.3,12.14,12.3z"/>
	<path d="M9.68,25.77c-1.13-1.13-2.29-2.06-2.98-3.37c-0.21-0.4-0.35-0.87-0.4-1.32c-0.08-0.7,0.41-1.34,1.05-1.53
		c0.75-0.22,1.39,0.02,1.79,0.69c0.47,0.77,0.49,0.77,0.94,0.02c0.41-0.68,1.02-0.92,1.79-0.71c0.64,0.17,1.09,0.8,1.08,1.52
		c0,0.66-0.24,1.25-0.65,1.74C11.47,23.8,10.58,24.76,9.68,25.77z"/>
</g>
</svg>
