<?xml version="1.0" encoding="utf-8"?>
<!-- Generator: Adobe Illustrator 24.3.0, SVG Export Plug-In . SVG Version: 6.00 Build 0)  -->
<svg version="1.1" id="Layer_1" xmlns="http://www.w3.org/2000/svg" xmlns:xlink="http://www.w3.org/1999/xlink" x="0px" y="0px"
	 viewBox="0 0 32 32" style="enable-background:new 0 0 32 32;" xml:space="preserve">
<g>
	<path d="M29.16,21.98c-8.79,0-17.53,0-26.33,0c0,0.83,0.01,1.61,0,2.38c-0.02,0.84-0.63,1.38-1.46,1.29
		c-0.56-0.06-1.03-0.52-1.1-1.08c-0.02-0.15-0.02-0.31-0.02-0.47c0-5.4,0-10.81,0-16.21c0-0.28,0.02-0.58,0.13-0.83
		c0.23-0.56,0.78-0.81,1.41-0.71C2.32,6.44,2.75,6.9,2.81,7.47c0.02,0.15,0.01,0.31,0.01,0.47c0,3.13,0,6.26,0,9.38
		c0,0.17,0,0.33,0,0.51c9.65,0,19.24,0,28.87,0c0.01,0.07,0.03,0.15,0.03,0.23c0,2.08,0,4.15,0,6.23c0,0.57-0.26,0.99-0.78,1.22
		c-0.47,0.21-0.92,0.14-1.32-0.18c-0.35-0.28-0.48-0.65-0.48-1.09C29.16,23.48,29.16,22.73,29.16,21.98z"/>
	<path d="M12.24,16.74c-0.02-0.04-0.05-0.08-0.04-0.12c0-1.66-0.03-3.33,0.03-4.99c0.05-1.18,1-2.07,2.17-2.22
		c0.18-0.02,0.37-0.04,0.55-0.04c3.84,0,7.68-0.02,11.52,0c2.31,0.01,3.97,1.09,4.87,3.22c0.25,0.6,0.32,1.29,0.37,1.95
		c0.06,0.72,0.01,1.44,0.01,2.19C25.21,16.74,18.72,16.74,12.24,16.74z"/>
	<path d="M7.63,16.19c-1.75,0.01-3.16-1.38-3.16-3.11c0-1.72,1.38-3.12,3.1-3.14c1.75-0.01,3.16,1.35,3.18,3.1
		C10.77,14.78,9.38,16.18,7.63,16.19z"/>
</g>
</svg>
