<?xml version="1.0" encoding="utf-8"?>
<!-- Generator: Adobe Illustrator 24.3.0, SVG Export Plug-In . SVG Version: 6.00 Build 0)  -->
<svg version="1.1" id="Layer_1" xmlns="http://www.w3.org/2000/svg" xmlns:xlink="http://www.w3.org/1999/xlink" x="0px" y="0px"
	 viewBox="0 0 32 32" style="enable-background:new 0 0 32 32;" xml:space="preserve">
<g>
	<path d="M13.53,5.33c0.57-1.5,1.51-2.6,2.88-3.31c3.95-2.05,8.65,0.82,8.64,5.27c0,0.38,0.09,0.54,0.46,0.66
		c4.35,1.48,5.93,6.91,3.06,10.52c-0.36,0.45-0.41,0.8-0.15,1.32c1.09,2.18,2.14,4.38,3.21,6.56c0.13,0.26,0.16,0.49,0.03,0.77
		c-0.35,0.76-0.67,1.53-1.03,2.35c-0.26-0.07-0.52-0.14-0.77-0.21c-0.53-0.14-1.06-0.26-1.59-0.41c-0.64-0.18-0.76-0.39-0.63-1.05
		c0.06-0.31,0.12-0.62,0.17-0.93c0.09-0.6-0.13-0.96-0.71-1.17c-0.23-0.08-0.46-0.17-0.71-0.26c0.06-0.38,0.13-0.74,0.18-1.1
		c0.09-0.57-0.09-1.01-0.63-1.12c-0.91-0.19-1.34-0.79-1.62-1.58c-0.15-0.44-0.45-0.58-0.92-0.58c-3.48,0.06-6.34-2.37-6.84-5.89
		c-0.44-3.13,1.36-6.35,4.83-7.36c0.79-0.23,1.64-0.25,2.5-0.37c0.46-1.75-1.3-4.26-3.52-4.82c-2.75-0.7-5.08,1.02-5.7,3
		c0.7,0.19,1.39,0.42,2.09,0.57c0.6,0.12,1.02,0.41,1.32,0.94c0.15,0.26,0.33,0.51,0.52,0.8c-1.04,0.8-1.88,1.78-2.47,3.03
		c-0.72-0.6-1.2-1.29-1.49-2.13c0.05-0.03,0.08-0.05,0.1-0.05c0.48,0.07,0.74-0.06,0.82-0.39c0.08-0.35-0.11-0.58-0.61-0.71
		c-0.85-0.22-1.69-0.44-2.55-0.64c-0.19-0.04-0.45-0.02-0.62,0.07c-0.13,0.08-0.25,0.34-0.21,0.48c0.05,0.18,0.22,0.39,0.39,0.46
		c0.35,0.14,0.74,0.18,1.1,0.31c0.15,0.05,0.31,0.21,0.35,0.36c0.35,1.26,1,2.31,2.02,3.12c0.21,0.16,0.24,0.31,0.19,0.55
		c-0.68,2.99,0.09,5.55,2.27,7.69c0.17,0.16,0.22,0.3,0.15,0.53c-0.82,2.95-1.62,5.91-2.42,8.87c-0.29,1.06-0.77,1.33-1.82,1.04
		c-4.06-1.12-8.13-2.22-12.19-3.33c-0.18-0.05-0.37-0.1-0.55-0.16c-0.63-0.21-0.93-0.75-0.75-1.39c0.53-1.98,1.07-3.96,1.61-5.94
		c1.12-4.08,2.24-8.15,3.35-12.23c0.11-0.4,0.33-0.68,0.7-0.86C7.3,5.98,8.63,5.31,9.99,4.69c0.28-0.13,0.67-0.12,0.99-0.05
		C11.83,4.83,12.66,5.09,13.53,5.33z M23.28,9.67c-0.77-0.64-2.33-0.61-3.25,0.42c-0.88,0.98-0.87,2.47,0.03,3.44
		c0.92,0.99,2.41,1.11,3.46,0.28c1.01-0.8,1.29-2.26,0.61-3.29c-0.17,0.21-0.33,0.44-0.52,0.63c-0.19,0.19-0.26,0.38-0.25,0.65
		c0.02,0.82-0.68,1.45-1.49,1.39c-0.81-0.06-1.4-0.78-1.3-1.59c0.1-0.79,0.84-1.37,1.62-1.17c0.45,0.11,0.66-0.05,0.85-0.38
		C23.12,9.92,23.2,9.79,23.28,9.67z M26.89,19.87c-0.59,0.02-0.82,0.43-0.6,0.88c1.08,2.24,2.17,4.48,3.26,6.72
		c0.17,0.36,0.48,0.46,0.77,0.32c0.32-0.16,0.4-0.45,0.22-0.83c-0.28-0.58-0.56-1.16-0.84-1.74c-0.8-1.64-1.59-3.27-2.4-4.9
		C27.21,20.11,26.99,19.96,26.89,19.87z M2.77,25.19c0.06-0.24,0.11-0.44,0.17-0.64c0.15-0.55,0.31-1.11,0.44-1.67
		c0.08-0.34-0.03-0.62-0.39-0.7C2.64,22.1,2.4,22.26,2.3,22.61c-0.25,0.92-0.51,1.84-0.75,2.77c-0.1,0.4,0.03,0.62,0.42,0.75
		c0.31,0.1,0.63,0.18,0.95,0.26c0.77,0.21,1.53,0.42,2.3,0.62c0.33,0.08,0.61-0.03,0.7-0.39c0.08-0.35-0.08-0.58-0.42-0.68
		c-0.12-0.03-0.23-0.08-0.35-0.11C4.37,25.62,3.59,25.41,2.77,25.19z"/>
</g>
</svg>
