<?xml version="1.0" encoding="utf-8"?>
<!-- Generator: Adobe Illustrator 24.3.0, SVG Export Plug-In . SVG Version: 6.00 Build 0)  -->
<svg version="1.1" id="Layer_1" xmlns="http://www.w3.org/2000/svg" xmlns:xlink="http://www.w3.org/1999/xlink" x="0px" y="0px"
	 viewBox="0 0 32 32" style="enable-background:new 0 0 32 32;" xml:space="preserve">
<g>
	<path d="M3,12.32c2.47-1.56,5.24-0.75,6.61,1.12c1.44,1.97,1.19,4.73-0.59,6.38c-1.78,1.65-4.51,1.71-6.37,0.17
		c-1.59-1.32-2.67-4.27-0.49-6.95C-1.27,9.1,0.27,3.61,4.02,1.48c3.93-2.23,9.42-0.5,10.94,4.4c0.69-0.36,1.38-0.71,2.07-1.06
		c1.2-0.62,2.39-1.25,3.59-1.87c1.25-0.64,2.45-0.25,3.09,0.99c2.55,4.91,5.1,9.82,7.65,14.73c0.75,1.44,0.41,2.58-1.03,3.33
		c-2.42,1.26-4.83,2.52-7.26,3.76c-1.16,0.6-2.36,0.22-2.97-0.95c-2.07-3.96-4.12-7.92-6.17-11.88c-0.06-0.12-0.13-0.24-0.2-0.36
		c-0.6,0.57-1.18,1.11-1.8,1.69c0.95,1.72,1,3.49-0.12,5.2c-0.77,1.18-1.88,1.86-3.28,2.05c1.49-0.89,2.5-2.15,2.92-3.85
		c0.42-1.69,0.07-3.24-0.77-4.74c0.17,0.13,0.34,0.27,0.53,0.42c0.74-0.45,1.34-1.05,1.83-1.78c0.06-0.09,0.04-0.27-0.01-0.37
		c-0.25-0.51-0.53-1.01-0.78-1.52c-0.51-1.05-0.15-2.24,0.85-2.82c0.95-0.55,0.95-0.55,0.45-1.58c-1.2-2.49-3.71-3.92-6.42-3.67
		c-2.71,0.25-4.94,2.15-5.6,4.87C0.99,8.66,1.53,10.6,3,12.32z M7.17,14.73c-0.01-0.59-0.48-1.05-1.07-1.05
		c-0.58,0-1.05,0.48-1.06,1.07c0,0.6,0.51,1.09,1.1,1.07C6.73,15.81,7.18,15.32,7.17,14.73z M15.2,7.99
		C14.62,8,14.15,8.48,14.16,9.07c0.01,0.59,0.49,1.05,1.08,1.04c0.58-0.01,1.06-0.49,1.05-1.08C16.27,8.45,15.79,7.99,15.2,7.99z"/>
	<path d="M2.84,21.57c1.05,0.26,2.05,0.5,3.1,0.76c-0.08,0.33-0.17,0.74-0.27,1.15c-0.45,1.89-0.89,3.79-1.36,5.67
		c-0.07,0.26-0.25,0.53-0.46,0.71c-0.49,0.43-1.02,0.81-1.54,1.21c-0.51,0.39-0.84,0.24-1.05-0.37c-0.34-0.98-0.18-1.92,0.07-2.9
		c0.51-1.96,0.95-3.94,1.43-5.92C2.78,21.76,2.82,21.63,2.84,21.57z"/>
	<path d="M7.78,23.1c1.04-0.36,2.02-0.71,3.03-1.06c0.06,0.27,0.15,0.63,0.24,0.98c0.43,1.84,0.88,3.68,1.29,5.52
		c0.04,0.2,0,0.45-0.08,0.64c-0.27,0.63-0.57,1.23-0.87,1.85c-0.27,0.57-0.64,0.58-1.1,0.16c-0.89-0.81-1.08-1.9-1.33-2.98
		c-0.39-1.68-0.78-3.36-1.17-5.03C7.77,23.12,7.78,23.07,7.78,23.1z"/>
</g>
</svg>
