<?xml version="1.0" encoding="utf-8"?>
<!-- Generator: Adobe Illustrator 24.3.0, SVG Export Plug-In . SVG Version: 6.00 Build 0)  -->
<svg version="1.1" id="Layer_1" xmlns="http://www.w3.org/2000/svg" xmlns:xlink="http://www.w3.org/1999/xlink" x="0px" y="0px"
	 viewBox="0 0 32 32" style="enable-background:new 0 0 32 32;" xml:space="preserve">
<g>
	<path d="M15.9,26.2c-0.33,0.34-0.64,0.65-0.92,0.98c-0.08,0.09-0.11,0.24-0.12,0.37c-0.06,1.04-0.1,2.08-0.15,3.11
		c-0.03,0.66-0.44,1.09-1.03,1.09c-0.57-0.01-0.99-0.43-1.02-1.07c-0.06-1.23-0.11-2.46-0.18-3.69c-0.02-0.44,0.08-0.82,0.41-1.11
		c0.63-0.56,0.82-1.25,0.76-2.08c-0.06-0.82-0.03-1.64-0.01-2.46c0.01-0.28-0.09-0.42-0.34-0.52c-0.48-0.2-0.94-0.43-1.42-0.64
		c-0.35-0.16-0.55-0.43-0.63-0.8c-0.23-1.01-0.49-2.02-0.71-3.03c-0.06-0.27-0.03-0.57-0.06-0.85c-0.01-0.13-0.06-0.26-0.13-0.36
		c-1.17-1.58-2.34-3.17-3.52-4.74c-0.09-0.12-0.3-0.22-0.46-0.23c-0.52-0.05-0.95-0.26-1.25-0.68c-0.95-1.34-1.9-2.67-2.82-4.03
		C1.73,4.64,1.73,3.65,2.31,2.94c0.24-0.3,0.61-0.56,0.98-0.68c2.41-0.81,4.89-1.35,7.42-1.67c2.98-0.38,5.97-0.43,8.96-0.18
		c3.05,0.26,6.01,0.9,8.94,1.77c1.36,0.41,1.95,2.03,1.15,3.24c-0.7,1.06-1.45,2.09-2.18,3.13c-0.24,0.35-0.49,0.69-0.75,1.03
		c-0.31,0.39-0.72,0.56-1.21,0.59c-0.14,0.01-0.31,0.09-0.4,0.2c-1.2,1.59-2.38,3.2-3.57,4.8c-0.05,0.07-0.13,0.17-0.12,0.25
		c0.12,1.1-0.34,2.09-0.57,3.12c-0.34,1.55-0.05,1.34-1.72,2.03c-0.66,0.27-0.94,0.6-0.87,1.34c0.08,0.96,0.01,1.94,0.03,2.91
		c0.01,0.22,0.09,0.5,0.25,0.65c0.6,0.58,0.78,1.25,0.7,2.08c-0.11,1.02-0.09,2.05-0.15,3.07c-0.04,0.86-0.73,1.35-1.45,1.04
		c-0.42-0.18-0.61-0.52-0.63-0.97c-0.04-0.98-0.09-1.97-0.11-2.95c-0.01-0.33-0.1-0.57-0.35-0.78C16.42,26.74,16.2,26.49,15.9,26.2z
		 M9.85,9.27c0.49,1.82,0.97,3.58,1.46,5.34c0.04,0.13,0.13,0.29,0.24,0.34c0.36,0.17,0.53,0.45,0.63,0.81
		c0.25,0.84,0.52,1.67,0.79,2.5c0.04,0.12,0.16,0.26,0.27,0.31c0.79,0.36,1.6,0.61,2.49,0.52c0.47-0.05,0.97,0.06,1.43-0.03
		c0.59-0.11,1.17-0.35,1.74-0.55c0.07-0.03,0.12-0.17,0.15-0.27c0.27-0.83,0.53-1.66,0.79-2.5c0.1-0.34,0.27-0.61,0.61-0.77
		c0.11-0.05,0.21-0.2,0.25-0.33c0.18-0.6,0.34-1.21,0.5-1.81c0.32-1.17,0.63-2.34,0.96-3.54C18.05,8.42,13.98,8.43,9.85,9.27z
		 M7.21,9.94c1.16,1.57,2.28,3.07,3.39,4.58c0.02-0.01,0.04-0.03,0.07-0.04c-0.46-1.69-0.92-3.37-1.39-5.1
		C8.58,9.57,7.93,9.75,7.21,9.94z M24.81,9.94c-0.73-0.2-1.38-0.37-2.07-0.56c-0.47,1.74-0.93,3.41-1.38,5.09
		c0.02,0.01,0.05,0.02,0.07,0.03C22.54,13.01,23.65,11.51,24.81,9.94z"/>
	<path d="M17.91,16.76c0.01,1.09-0.84,1.94-1.91,1.93c-1.06-0.01-1.89-0.85-1.89-1.91c0-1.07,0.83-1.91,1.89-1.91
		C17.06,14.86,17.9,15.69,17.91,16.76z"/>
</g>
</svg>
