<?xml version="1.0" encoding="utf-8"?>
<!-- Generator: Adobe Illustrator 24.3.0, SVG Export Plug-In . SVG Version: 6.00 Build 0)  -->
<svg version="1.1" id="Layer_1" xmlns="http://www.w3.org/2000/svg" xmlns:xlink="http://www.w3.org/1999/xlink" x="0px" y="0px"
	 viewBox="0 0 32 32" style="enable-background:new 0 0 32 32;" xml:space="preserve">
<g>
	<g>
		<path d="M23.88,4.16c0.43,0,0.79,0,1.16,0c1.68,0.02,2.77,1.11,2.78,2.79c0.01,4.27,0,8.54,0,12.8c0,3.02,0,6.03,0,9.05
			c0,1.88-1.06,2.94-2.93,2.94c-5.93,0-11.87,0-17.8,0c-1.84,0-2.92-1.06-2.92-2.89c0-7.26,0-14.53,0-21.79
			c0-1.62,0.81-2.49,2.37-2.89c3.1-0.79,6.17-1.67,9.25-2.52c1.52-0.42,3.04-0.85,4.56-1.27c2.01-0.55,3.52,0.6,3.53,2.7
			C23.89,3.41,23.88,3.74,23.88,4.16z M16.03,22.53c3.98-0.02,7.22-3.26,7.2-7.22c-0.02-3.99-3.3-7.23-7.29-7.2
			c-3.93,0.03-7.15,3.26-7.17,7.2C8.75,19.29,12.03,22.55,16.03,22.53z M15.68,23.87c-1.91,0-3.81,0-5.72,0
			c-0.84,0-1.17,0.19-1.17,0.66c0,0.46,0.35,0.66,1.18,0.66c3.81,0,7.63,0,11.44,0c0.18,0,0.42,0.05,0.54-0.04
			c0.23-0.17,0.55-0.45,0.54-0.66c-0.01-0.22-0.37-0.44-0.61-0.61c-0.11-0.08-0.32-0.02-0.48-0.02
			C19.5,23.87,17.59,23.87,15.68,23.87z M12.02,4.07c0,0.02,0.01,0.04,0.01,0.06c3.49,0,6.98,0,10.52,0c0-0.4,0.01-0.76,0-1.13
			c-0.02-1.12-0.71-1.64-1.79-1.35c-0.83,0.22-1.66,0.45-2.49,0.68C16.19,2.91,14.1,3.49,12.02,4.07z M15.63,27.8
			c1.15,0,2.3,0,3.45,0c0.47,0,0.84-0.16,0.84-0.67c0-0.49-0.38-0.64-0.81-0.64c-2.28,0-4.56-0.01-6.83,0
			c-0.45,0-0.85,0.13-0.83,0.68c0.02,0.54,0.41,0.64,0.87,0.64C13.41,27.8,14.52,27.8,15.63,27.8z"/>
	</g>
	<g>
		<path d="M15.68,23.87c1.91,0,3.81,0,5.72,0c0.16,0,0.37-0.06,0.48,0.02c0.24,0.16,0.6,0.39,0.61,0.61
			c0.01,0.21-0.31,0.48-0.54,0.66c-0.12,0.09-0.36,0.04-0.54,0.04c-3.81,0-7.63,0-11.44,0c-0.83,0-1.18-0.2-1.18-0.66
			c0-0.47,0.33-0.66,1.17-0.66C11.87,23.87,13.77,23.87,15.68,23.87z"/>
	</g>
	<path d="M14.06,16.01c1.31,0,2.55,0,3.87,0c-0.11,1.69-0.28,3.35-1.28,4.78c-0.43,0.61-0.88,0.59-1.32-0.03
		c-0.77-1.07-0.99-2.32-1.17-3.58C14.1,16.82,14.09,16.45,14.06,16.01z"/>
	<path d="M17.93,14.62c-1.29,0-2.54,0-3.87,0c0.11-1.63,0.28-3.22,1.19-4.62c0.51-0.78,0.98-0.77,1.5,0.01
		c0.71,1.07,0.93,2.3,1.1,3.54C17.89,13.89,17.9,14.23,17.93,14.62z"/>
	<path d="M12.59,14.66c-0.58,0-1.23,0-1.88,0c-0.16,0-0.32-0.02-0.47-0.04c-0.02-1.82,1.61-4.02,3.34-4.62
		C13.26,11.51,12.93,13.05,12.59,14.66z"/>
	<path d="M21.78,14.66c-0.76,0-1.47,0.02-2.18-0.02c-0.13-0.01-0.33-0.22-0.36-0.36c-0.27-1.43-0.52-2.87-0.76-4.25
		C19.89,10.37,21.73,12.63,21.78,14.66z"/>
	<path d="M13.66,20.67c-1.8-0.6-3.46-2.86-3.42-4.66c0.81,0,1.62,0,2.45,0c0.12,0.81,0.19,1.6,0.35,2.38
		C13.2,19.14,13.44,19.87,13.66,20.67z"/>
	<path d="M19.31,16.01c0.85,0,1.64,0,2.44,0c0.11,1.73-1.55,4.01-3.4,4.67c0.21-0.78,0.45-1.52,0.61-2.28
		C19.12,17.63,19.19,16.83,19.31,16.01z"/>
</g>
</svg>
