<?xml version="1.0" encoding="utf-8"?>
<!-- Generator: Adobe Illustrator 24.3.0, SVG Export Plug-In . SVG Version: 6.00 Build 0)  -->
<svg version="1.1" id="Layer_1" xmlns="http://www.w3.org/2000/svg" xmlns:xlink="http://www.w3.org/1999/xlink" x="0px" y="0px"
	 viewBox="0 0 32 32" style="enable-background:new 0 0 32 32;" xml:space="preserve">
<g>
	<path d="M17.08,25.65c-5.4-0.01-9.77-4.39-9.76-9.8c0-5.37,4.4-9.75,9.77-9.75c5.42,0.01,9.8,4.39,9.79,9.82
		C26.86,21.29,22.46,25.66,17.08,25.65z M24.69,15.9c0.02-4.16-3.38-7.59-7.54-7.62c-4.2-0.03-7.64,3.35-7.67,7.53
		c-0.03,4.2,3.36,7.64,7.53,7.66C21.24,23.5,24.67,20.11,24.69,15.9z"/>
	<path d="M1.34,13.7c0.39,0,0.7,0,1.08,0c0-0.17,0-0.33,0-0.48c0-2.23,0-4.46,0-6.69c0-0.12,0-0.24,0-0.36
		c0.02-0.35,0.19-0.59,0.55-0.58c0.36,0.01,0.53,0.25,0.53,0.6c0,0.15,0,0.3,0,0.45c0,2.34,0,4.67,0,7.04c0.36,0,0.69,0,1.08,0
		c0-0.16,0-0.32,0-0.48c0-2.25,0-4.49,0-6.74c0-0.14-0.05-0.31,0.02-0.4c0.14-0.19,0.32-0.42,0.51-0.47c0.3-0.07,0.5,0.17,0.55,0.47
		C5.69,6.18,5.68,6.3,5.68,6.43c0,2.74-0.01,5.49,0.01,8.23c0,0.77-0.24,1.38-0.88,1.82c-0.55,0.38-0.72,0.93-0.68,1.58
		c0.12,2.08,0.22,4.15,0.33,6.23c0.02,0.3,0.04,0.6,0.04,0.9c-0.01,0.87-0.67,1.54-1.5,1.55c-0.81,0.01-1.55-0.67-1.55-1.51
		c0-0.81,0.06-1.63,0.1-2.44c0.08-1.55,0.16-3.1,0.26-4.65c0.05-0.74-0.19-1.32-0.8-1.76C0.48,16,0.25,15.46,0.25,14.81
		c0-2.83,0-5.67,0-8.5c0-0.48,0.19-0.74,0.54-0.74c0.36-0.01,0.55,0.26,0.55,0.77c0,2.28,0,4.55,0,6.83
		C1.34,13.33,1.34,13.5,1.34,13.7z"/>
	<path d="M29.13,15.9c0.75,0,1.43,0,2.16,0c0.06,1.22,0.13,2.41,0.19,3.61c0.09,1.7,0.17,3.4,0.25,5.1
		c0.01,0.28,0.04,0.58-0.01,0.85c-0.14,0.81-0.87,1.35-1.66,1.27c-0.82-0.09-1.43-0.75-1.39-1.6c0.09-2.29,0.22-4.57,0.33-6.85
		C29.03,17.49,29.08,16.71,29.13,15.9z"/>
	<path d="M31.3,14.79c-0.7,0-1.34,0.01-1.99-0.01c-0.09,0-0.23-0.14-0.25-0.24c-0.38-1.5-0.81-2.99-1.09-4.51
		c-0.36-1.94,0.75-3.94,2.46-4.69c0.46-0.2,0.86,0,0.86,0.49C31.3,8.79,31.3,11.76,31.3,14.79z"/>
	<path d="M17.1,9.37c3.61,0,6.52,2.94,6.51,6.55c-0.01,3.58-2.94,6.49-6.53,6.48c-3.6,0-6.52-2.94-6.51-6.55
		C10.58,12.27,13.51,9.36,17.1,9.37z"/>
</g>
</svg>
