<?xml version="1.0" encoding="utf-8"?>
<!-- Generator: Adobe Illustrator 24.3.0, SVG Export Plug-In . SVG Version: 6.00 Build 0)  -->
<svg version="1.1" id="Layer_1" xmlns="http://www.w3.org/2000/svg" xmlns:xlink="http://www.w3.org/1999/xlink" x="0px" y="0px"
	 viewBox="0 0 32 32" style="enable-background:new 0 0 32 32;" xml:space="preserve">
<path d="M15.94,31.74C7.25,31.71,0.21,24.6,0.25,15.91C0.29,7.25,7.39,0.23,16.06,0.26c8.69,0.03,15.74,7.14,15.69,15.83
	C31.71,24.74,24.61,31.77,15.94,31.74z M12.74,22.56c0.14-0.06,0.38-0.14,0.57-0.27c2.92-1.87,5.83-3.74,8.74-5.61
	c0.69-0.44,0.69-0.92,0-1.37c-2.91-1.88-5.82-3.75-8.75-5.6c-0.24-0.15-0.68-0.25-0.88-0.14c-0.21,0.12-0.34,0.54-0.34,0.83
	c-0.03,2.01-0.01,4.02-0.01,6.02c0,1.74,0,3.48,0,5.23C12.06,22.08,12.15,22.43,12.74,22.56z"/>
</svg>
