<?xml version="1.0" encoding="utf-8"?>
<!-- Generator: Adobe Illustrator 24.3.0, SVG Export Plug-In . SVG Version: 6.00 Build 0)  -->
<svg version="1.1" id="Layer_1" xmlns="http://www.w3.org/2000/svg" xmlns:xlink="http://www.w3.org/1999/xlink" x="0px" y="0px"
	 viewBox="0 0 32 32" style="enable-background:new 0 0 32 32;" xml:space="preserve">
<g>
	<path d="M0.25,21.29c0-0.97-0.01-1.85,0.01-2.73c0-0.12,0.19-0.29,0.32-0.35c2.08-0.95,4.16-1.92,6.27-2.83
		c3.11-1.33,6.3-2.44,9.54-3.38c3.37-0.97,6.77-1.77,10.27-2.11c1.47-0.14,2.96-0.17,4.44-0.25c0.19-0.01,0.37,0.02,0.64,0.03
		c-0.33,0.64-0.62,1.23-0.93,1.8c-1.45,2.79-2.9,5.58-4.37,8.36c-0.09,0.18-0.31,0.36-0.5,0.41c-2.34,0.65-4.71,0.69-7.11,0.41
		c-2.23-0.26-4.38-0.88-6.56-1.39c-2.58-0.6-5.15-0.53-7.7,0.17C3.25,19.81,2,20.36,0.82,21.08C0.67,21.17,0.48,21.21,0.25,21.29z
		 M12.56,16.29c0-0.45-0.38-0.84-0.82-0.85c-0.46-0.01-0.86,0.4-0.85,0.87c0.01,0.46,0.39,0.83,0.85,0.82
		C12.19,17.12,12.56,16.75,12.56,16.29z M16.99,15.43c0.48,0,0.83-0.37,0.82-0.84c-0.01-0.47-0.37-0.83-0.84-0.83
		c-0.47,0.01-0.83,0.38-0.83,0.85C16.15,15.07,16.52,15.43,16.99,15.43z M14.31,14.61c-0.46-0.01-0.85,0.36-0.86,0.82
		c-0.01,0.46,0.36,0.84,0.83,0.85c0.47,0.01,0.84-0.34,0.85-0.82C15.14,14.98,14.79,14.61,14.31,14.61z"/>
	<path d="M22.38,9.6c-4.88,0.86-9.57,2.3-14.15,4.29c-0.25-0.82-0.49-1.62-0.76-2.5c0.96-0.31,1.89-0.62,2.82-0.92
		c0.12-0.04,0.24-0.05,0.36-0.1c0.3-0.12,0.5-0.33,0.39-0.67c-0.1-0.33-0.37-0.44-0.69-0.34c-0.96,0.3-1.91,0.61-2.86,0.92
		c-0.09,0.03-0.18,0.07-0.3,0.11c-0.1-0.28-0.2-0.54-0.28-0.77c-0.76,0-1.49,0-2.22,0C4.68,9.57,4.67,9.51,4.66,9.45
		c0.99-0.32,1.96-0.69,2.96-0.94c2.34-0.59,4.72-0.77,7.12-0.56c0.91,0.08,1.8,0.34,2.7,0.53C19,8.82,20.55,9.17,22.1,9.51
		C22.2,9.53,22.28,9.57,22.38,9.6z"/>
	<path d="M29.38,19.56c-0.84,0.89-1.85,1.54-2.96,2.03c-2.61,1.17-5.36,1.43-8.19,1.22c-2.02-0.15-3.92-0.8-5.86-1.31
		C8.52,20.5,4.71,20.59,0.95,22c-0.18,0.07-0.35,0.13-0.55,0.16c0.86-0.69,1.83-1.19,2.84-1.6c2.42-0.98,4.95-1.27,7.52-0.91
		c1.21,0.16,2.39,0.5,3.57,0.8c2.6,0.64,5.21,1.1,7.9,1.01c2.44-0.08,4.75-0.63,6.91-1.8C29.23,19.62,29.3,19.6,29.38,19.56z"/>
	<path d="M0.52,23.58c1.11-0.78,2.22-1.26,3.42-1.54c1.88-0.44,3.76-0.37,5.62,0.14c2.07,0.56,4.16,0.98,6.33,0.96
		c0.77-0.01,1.54,0.2,2.34,0.42c-0.63,0.15-1.25,0.35-1.89,0.44c-2.15,0.31-4.26,0.08-6.34-0.56c-2.31-0.72-4.67-1-7.07-0.5
		C2.15,23.1,1.39,23.35,0.52,23.58z"/>
	<path d="M9.48,21.54c1.33,0.29,2.66,0.57,3.99,0.86c-0.01,0.06-0.03,0.13-0.04,0.19c-1.33-0.28-2.66-0.57-3.98-0.85
		C9.45,21.67,9.46,21.6,9.48,21.54z"/>
</g>
</svg>
