<?xml version="1.0" encoding="utf-8"?>
<!-- Generator: Adobe Illustrator 24.3.0, SVG Export Plug-In . SVG Version: 6.00 Build 0)  -->
<svg version="1.1" id="Layer_1" xmlns="http://www.w3.org/2000/svg" xmlns:xlink="http://www.w3.org/1999/xlink" x="0px" y="0px"
	 viewBox="0 0 32 32" style="enable-background:new 0 0 32 32;" xml:space="preserve">
<g>
	<path d="M23.7,29.92c0,0.27,0.01,0.54,0,0.81c-0.01,0.61-0.41,1.03-0.95,1.02c-0.52-0.01-0.9-0.42-0.92-1.01
		c-0.01-0.26,0-0.52,0-0.8c-3.89,0-7.75,0-11.66,0c0,0.23,0,0.46,0,0.69c0,0.68-0.36,1.12-0.93,1.12c-0.56,0.01-0.94-0.43-0.95-1.11
		c0-0.24,0-0.49,0-0.72c-0.2-0.08-0.37-0.13-0.53-0.2c-0.82-0.38-1.29-1.01-1.29-1.92c-0.01-5.96-0.01-11.92,0-17.87
		c0-1.18,0.93-2.12,2.1-2.12c4.95-0.01,9.89-0.01,14.84,0c1.16,0,2.09,0.93,2.1,2.09c0.01,5.97,0.01,11.94,0,17.91
		c0,0.93-0.49,1.56-1.33,1.94C24.04,29.81,23.88,29.85,23.7,29.92z M11.99,18.83c0-2.5,0.01-5-0.01-7.5c0-0.27-0.12-0.59-0.29-0.81
		c-0.22-0.28-0.58-0.35-0.93-0.19c-0.39,0.17-0.59,0.46-0.58,0.9c0,2.1,0,4.21,0,6.31c0,2.94,0,5.87,0.01,8.81
		c0,0.23,0.05,0.5,0.17,0.7c0.19,0.34,0.63,0.47,1.01,0.35c0.39-0.12,0.63-0.46,0.64-0.94C11.99,23.91,11.99,21.37,11.99,18.83z
		 M21.83,18.87c0-2.54,0-5.08,0-7.62c0-0.59-0.39-0.99-0.92-0.98c-0.51,0.01-0.89,0.41-0.89,0.97c0,5.08,0,10.16,0.01,15.25
		c0,0.21,0.09,0.46,0.22,0.63c0.25,0.33,0.61,0.39,1,0.27c0.38-0.12,0.59-0.46,0.59-0.94C21.83,23.92,21.83,21.39,21.83,18.87z"/>
	<path d="M20,5.93c-0.64,0-1.24,0-1.86,0c0-1.04,0-2.05,0-3.06c0-0.62-0.14-0.77-0.78-0.77c-0.93,0-1.86,0-2.79,0
		c-0.55,0-0.71,0.16-0.71,0.71c0,1.02,0,2.05,0,3.11c-0.63,0-1.23,0-1.85,0c0-1.2-0.08-2.39,0.02-3.56c0.11-1.27,1.14-2.09,2.42-2.1
		c1.04-0.01,2.08-0.01,3.11,0c1.3,0.01,2.33,0.91,2.42,2.2C20.06,3.6,20,4.75,20,5.93z"/>
</g>
</svg>
