<?xml version="1.0" encoding="utf-8"?>
<!-- Generator: Adobe Illustrator 24.3.0, SVG Export Plug-In . SVG Version: 6.00 Build 0)  -->
<svg version="1.1" id="Layer_1" xmlns="http://www.w3.org/2000/svg" xmlns:xlink="http://www.w3.org/1999/xlink" x="0px" y="0px"
	 viewBox="0 0 32 32" style="enable-background:new 0 0 32 32;" xml:space="preserve">
<g>
	<path d="M16,5.39c0.44-0.79,0.82-1.51,1.22-2.21c0.36-0.64,1-0.85,1.58-0.53c0.55,0.3,0.73,0.96,0.4,1.58
		c-0.57,1.08-1.15,2.14-1.75,3.21c-0.13,0.24-0.12,0.4,0,0.64c3.43,6.27,6.85,12.55,10.27,18.83c0.13,0.25,0.28,0.36,0.58,0.35
		c0.72-0.02,1.44-0.01,2.16-0.01c0.77,0,1.29,0.45,1.3,1.11c0.01,0.66-0.51,1.14-1.27,1.14c-9.66,0-19.31,0-28.97,0
		c-0.76,0-1.28-0.48-1.26-1.14c0.01-0.65,0.51-1.1,1.25-1.11c0.73-0.01,1.47-0.01,2.2,0c0.27,0.01,0.42-0.07,0.55-0.31
		c3.3-6.06,6.58-12.12,9.92-18.16c0.42-0.76,0.48-1.33-0.01-2.05c-0.53-0.8-0.95-1.68-1.4-2.54c-0.26-0.5-0.18-0.98,0.17-1.34
		c0.35-0.36,0.85-0.47,1.29-0.21c0.22,0.12,0.41,0.34,0.54,0.55C15.19,3.88,15.57,4.6,16,5.39z M12.7,27.22c2.21,0,4.43,0,6.68,0
		c0-0.17,0-0.31,0-0.45c0-1.42,0.04-2.84-0.02-4.26c-0.08-1.7-1.48-3.03-3.16-3.13c-1.69-0.09-3.29,1.05-3.46,2.76
		C12.57,23.81,12.7,25.5,12.7,27.22z"/>
</g>
</svg>
