<?xml version="1.0" encoding="utf-8"?>
<!-- Generator: Adobe Illustrator 24.3.0, SVG Export Plug-In . SVG Version: 6.00 Build 0)  -->
<svg version="1.1" id="Layer_1" xmlns="http://www.w3.org/2000/svg" xmlns:xlink="http://www.w3.org/1999/xlink" x="0px" y="0px"
	 viewBox="0 0 32 32" style="enable-background:new 0 0 32 32;" xml:space="preserve">
<g>
	<path d="M15.93,30.9c-0.24-1.63-0.52-3.25-0.73-4.88c-0.38-3.07-0.79-6.15-1.07-9.23c-0.34-3.78-0.56-7.57-0.04-11.35
		c0.16-1.12,0.52-2.22,0.87-3.3c0.15-0.48,0.44-1.06,1.04-1.04c0.55,0.02,0.8,0.58,1.01,1.03c0.69,1.46,0.89,3.03,1.01,4.61
		c0.31,3.98,0.09,7.95-0.35,11.91c-0.45,4.05-1.05,8.08-1.59,12.12c-0.01,0.05-0.04,0.09-0.06,0.13
		C15.99,30.9,15.96,30.9,15.93,30.9z M17.14,3.84c-0.16-0.69-0.37-0.78-1.46-0.75C15.2,3.11,14.9,3.3,14.81,3.84
		C15.6,3.84,16.35,3.84,17.14,3.84z"/>
	<path d="M18.2,17.47c0.11-1.77,0.22-3.5,0.34-5.3c0.55,0.25,1.06,0.49,1.62,0.75c0-0.23-0.01-0.4,0-0.57
		c0.02-0.36,0.23-0.55,0.59-0.55c0.36,0,0.57,0.17,0.61,0.53c0,0.02,0.01,0.03,0,0.05c-0.24,0.97,0.33,1.34,1.11,1.66
		c1.19,0.5,2.34,1.09,3.57,1.68c0.02-0.24,0.04-0.42,0.05-0.6c0.02-0.37,0.21-0.56,0.57-0.56c0.38,0,0.67,0.2,0.59,0.58
		c-0.23,1.03,0.35,1.41,1.18,1.73c0.84,0.33,1.65,0.77,2.47,1.16c0.82,0.39,0.95,0.64,0.81,1.64c-0.81-0.15-1.61-0.3-2.42-0.46
		c-2.89-0.57-5.78-1.14-8.67-1.69c-0.31-0.06-0.64-0.06-0.95-0.06C19.2,17.47,18.73,17.47,18.2,17.47z"/>
	<path d="M5.94,15.74c1.57-0.75,3.05-1.45,4.51-2.17c0.1-0.05,0.18-0.23,0.19-0.36c0.03-0.27,0-0.54,0-0.81
		c0-0.38,0.18-0.61,0.57-0.62c0.42-0.01,0.62,0.21,0.63,0.62c0,0.15,0,0.29,0,0.5c0.56-0.26,1.05-0.49,1.59-0.74
		c0.12,1.8,0.23,3.53,0.34,5.23c-0.07,0.05-0.08,0.07-0.09,0.07c-2.38-0.18-4.63,0.56-6.93,0.97c-2.01,0.36-4,0.78-6,1.17
		c-0.16,0.03-0.32,0.05-0.48,0.07c-0.1-1.04,0-1.24,0.84-1.64c1.05-0.5,2.09-1.02,3.15-1.5c0.38-0.17,0.54-0.4,0.48-0.81
		c-0.03-0.2-0.02-0.4-0.02-0.61c0.01-0.37,0.22-0.56,0.57-0.57c0.35-0.01,0.58,0.15,0.6,0.53C5.91,15.28,5.92,15.46,5.94,15.74z"/>
	<path d="M20.89,30.7c-1.5-0.29-2.86-0.55-4.28-0.81c0.08-0.57,0.16-1.12,0.25-1.75c1.19,0.54,2.33,1.02,3.42,1.59
		C20.54,29.86,20.65,30.29,20.89,30.7z"/>
	<path d="M15.12,28.14c0.09,0.61,0.17,1.15,0.26,1.74c-1.39,0.27-2.77,0.53-4.21,0.81c0.21-0.56,0.4-0.99,0.96-1.21
		C13.12,29.09,14.08,28.61,15.12,28.14z"/>
</g>
</svg>
