<?xml version="1.0" encoding="utf-8"?>
<!-- Generator: Adobe Illustrator 24.3.0, SVG Export Plug-In . SVG Version: 6.00 Build 0)  -->
<svg version="1.1" id="Layer_1" xmlns="http://www.w3.org/2000/svg" xmlns:xlink="http://www.w3.org/1999/xlink" x="0px" y="0px"
	 viewBox="0 0 32 32" style="enable-background:new 0 0 32 32;" xml:space="preserve">
<g>
	<path d="M18.27,18.08c0.05,1.13,0.09,2.23,0.14,3.34c0.03,0.64,0.11,1.28,0.1,1.92c0,0.33-0.08,0.68-0.22,0.98
		c-0.98,2.15-1.97,4.29-2.97,6.43c-0.41,0.88-1.3,1.22-2.1,0.83c-0.78-0.38-1.05-1.26-0.64-2.14c0.91-1.96,1.82-3.91,2.72-5.87
		c0.09-0.2,0.14-0.45,0.13-0.67c-0.07-1.67-0.19-3.33-0.23-5c-0.02-0.88,0.09-1.77,0.15-2.66c0.05-0.83,0.1-1.66,0.17-2.5
		c0.04-0.47,0.2-0.89,0.6-1.21c0.43-0.34,0.84-0.7,1.22-1.13c-0.1,0.04-0.19,0.08-0.29,0.13c-0.52,0.28-1.02,0.58-1.56,0.82
		c-0.3,0.14-0.46,0.35-0.57,0.64c-0.52,1.26-1.04,2.52-1.57,3.78c-0.2,0.47-0.52,0.8-1.05,0.86c-0.5,0.05-0.92-0.11-1.21-0.53
		c-0.26-0.38-0.28-0.8-0.11-1.21c0.65-1.59,1.31-3.18,2-4.76c0.12-0.27,0.42-0.5,0.69-0.66c0.84-0.48,1.7-0.92,2.53-1.43
		c-0.1,0.01-0.2,0.03-0.31,0.05c-0.01-0.04-0.03-0.08-0.03-0.12c0.18-0.87,0.95-1.51,1.86-1.47c1.17,0.05,2.35,0.13,3.52,0.24
		c0.99,0.09,1.69,0.94,1.63,1.97c-0.02,0.39,0.07,0.68,0.34,0.95c0.27,0.27,0.53,0.55,0.75,0.87c0.37,0.53,0.87,0.76,1.49,0.89
		c0.95,0.2,1.88,0.46,2.82,0.71c0.75,0.2,1.11,0.85,0.93,1.57c-0.17,0.64-0.85,1.04-1.55,0.87c-1.34-0.33-2.68-0.65-4.01-1.03
		c-0.36-0.1-0.68-0.37-1.04-0.57c-0.01,0.08-0.03,0.2-0.04,0.33c-0.1,1.57-0.21,3.14-0.3,4.71c-0.01,0.25,0.02,0.52,0.1,0.76
		c0.28,0.88,0.56,1.77,0.89,2.64c0.35,0.9,0.41,1.83,0.49,2.77c0.16,1.95,0.34,3.89,0.51,5.84c0.06,0.7-0.26,1.29-0.83,1.56
		c-0.56,0.28-1.21,0.19-1.68-0.22c-0.32-0.29-0.47-0.65-0.51-1.08c-0.2-2.33-0.35-4.66-0.65-6.98c-0.13-0.98-0.57-1.93-0.88-2.89
		c-0.2-0.61-0.41-1.22-0.61-1.82C18.92,18.04,18.93,18.04,18.27,18.08z"/>
	<path d="M9.13,21.12c0.31-0.69,0.6-1.32,0.89-1.95c0.29-0.63,0.59-1.26,0.88-1.88c0.39,0.14,0.75,0.27,1.16,0.42
		c-0.39,0.86-0.79,1.73-1.19,2.6c-0.11,0.24-0.21,0.47-0.33,0.7c-0.18,0.35-0.32,0.65,0.01,1.05c0.15,0.18,0.15,0.63,0.04,0.88
		c-1.16,2.58-2.34,5.14-3.53,7.7c-0.26,0.56-0.78,0.75-1.37,0.53C5.54,31.11,5.41,31.06,5.27,31c-0.41,0.71-0.83,0.91-1.32,0.62
		c-0.43-0.25-0.51-0.72-0.19-1.31c-0.09-0.05-0.18-0.1-0.27-0.15c-0.7-0.33-0.92-0.88-0.59-1.58c0.84-1.82,1.68-3.64,2.52-5.46
		c0.3-0.64,0.6-1.29,0.89-1.93c0.35-0.76,0.86-0.96,1.63-0.62C8.32,20.74,8.7,20.92,9.13,21.12z"/>
	<path d="M20.09,5.78c-1.53-0.01-2.76-1.25-2.76-2.77c0-1.54,1.26-2.78,2.8-2.76c1.52,0.02,2.75,1.28,2.74,2.79
		C22.86,4.57,21.61,5.8,20.09,5.78z"/>
</g>
</svg>
