<?xml version="1.0" encoding="utf-8"?>
<!-- Generator: Adobe Illustrator 24.3.0, SVG Export Plug-In . SVG Version: 6.00 Build 0)  -->
<svg version="1.1" id="Layer_1" xmlns="http://www.w3.org/2000/svg" xmlns:xlink="http://www.w3.org/1999/xlink" x="0px" y="0px"
	 viewBox="0 0 32 32" style="enable-background:new 0 0 32 32;" xml:space="preserve">
<g>
	<path d="M16.39,14.78c0.3,0.74,0.23,1.3-0.08,1.92c-1.85,3.74-3.66,7.51-5.49,11.27c-0.07,0.14-0.12,0.28-0.21,0.5
		c0.62-0.05,1.17-0.1,1.72-0.14c5.67-0.45,11.25,0.05,16.75,1.46c0.69,0.18,1.39,0.34,2.08,0.53c0.47,0.13,0.64,0.4,0.56,0.87
		c-0.07,0.43-0.36,0.54-0.75,0.54c-9.99,0-19.98,0-29.97,0c-0.39,0-0.68-0.11-0.75-0.53c-0.07-0.46,0.1-0.74,0.59-0.84
		c2.56-0.54,5.12-1.08,7.69-1.59c0.36-0.07,0.57-0.18,0.73-0.52c1.53-3.18,3.07-6.34,4.61-9.51c0.49-1.01,0.94-2.04,1.49-3.02
		C15.59,15.35,16.03,15.11,16.39,14.78z"/>
	<path d="M24.79,15.43c-2.18-1.06-4.29-2.09-6.45-3.13c1.38-2.86,2.74-5.69,4.13-8.57c0.85,0.56,1.4,1.32,1.82,2.18
		c0.57,1.18,0.83,2.44,0.94,3.74C25.38,11.58,25.2,13.48,24.79,15.43z"/>
	<path d="M21.45,3.27c-1.37,2.84-2.73,5.66-4.12,8.53c-2.14-1.03-4.27-2.05-6.45-3.11c0.27-0.32,0.51-0.6,0.75-0.87
		c1.61-1.75,3.38-3.27,5.6-4.2c1.26-0.52,2.55-0.81,3.92-0.46C21.24,3.19,21.32,3.22,21.45,3.27z"/>
	<path d="M25.52,5.65c4.03,3.43,6.08,7.75,6.23,13.09c-0.36-0.16-0.67-0.29-0.96-0.43c-1.53-0.74-3.06-1.48-4.59-2.21
		c-0.26-0.12-0.36-0.23-0.3-0.56c0.48-2.35,0.71-4.73,0.3-7.11C26.05,7.51,25.76,6.62,25.52,5.65z"/>
	<path d="M9.85,8.2c-1.97-0.95-3.9-1.88-5.91-2.85c4.26-3.22,8.92-4.3,14.09-3.26C14.61,3.19,12.11,5.49,9.85,8.2z"/>
	<path d="M10.31,9.67c2.17,1.05,4.31,2.08,6.44,3.12c-0.6,1.5-2.82,2.27-4.48,1.58C10.44,13.62,9.52,11.47,10.31,9.67z"/>
	<path d="M17.91,13.32c2.17,1.05,4.31,2.09,6.45,3.13c-0.43,1.19-2.49,2.4-4.49,1.54C18.01,17.19,17.08,15,17.91,13.32z"/>
	<path d="M31.51,19.92c-0.95,1.8-3.03,2.43-4.71,1.46c-1.55-0.89-2.19-2.97-1.31-4.39C27.49,17.96,29.48,18.94,31.51,19.92z"/>
	<path d="M3.17,6.23c2.05,0.99,4.05,1.95,6.08,2.93c-0.61,1.15-1.52,1.79-2.76,1.89c-1.38,0.11-2.47-0.46-3.18-1.65
		C2.71,8.4,2.7,7.35,3.17,6.23z"/>
	<path d="M23.04,2.69c-0.41-0.18-0.76-0.34-1.14-0.51c0.26-0.54,0.48-1.07,0.75-1.57c0.16-0.3,0.45-0.43,0.79-0.27
		c0.36,0.16,0.46,0.46,0.32,0.81C23.55,1.65,23.3,2.15,23.04,2.69z"/>
</g>
</svg>
