<?xml version="1.0" encoding="utf-8"?>
<!-- Generator: Adobe Illustrator 24.3.0, SVG Export Plug-In . SVG Version: 6.00 Build 0)  -->
<svg version="1.1" id="Layer_1" xmlns="http://www.w3.org/2000/svg" xmlns:xlink="http://www.w3.org/1999/xlink" x="0px" y="0px"
	 viewBox="0 0 32 32" style="enable-background:new 0 0 32 32;" xml:space="preserve">
<g>
	<path d="M21.29,7.04c2.06,0.22,3.3,1.21,3.52,2.81c-1.31,0-2.62,0-3.93,0c-0.96,0-1.26,0.31-1.26,1.28c0,1.84,0,3.69,0,5.53
		c0,0.83,0.33,1.17,1.16,1.17c2.23,0,4.46,0.05,6.68-0.01c2.45-0.07,4.4,1.83,4.29,4.28c-0.04,1,0,1.99-0.01,2.99
		c0,0.73-0.45,1.11-1.23,1.02c-0.15-1.59-0.83-2.91-2.14-3.88c-0.98-0.73-2.08-1.04-3.3-1.01c-2.56,0.07-4.27,1.71-5.05,4.92
		c-0.56,0-1.13,0-1.69,0c-0.57,0-1.15,0-1.76,0c-0.18-1.69-0.9-3.06-2.3-4.02c-0.94-0.65-1.99-0.94-3.13-0.89
		c-1.34,0.05-2.49,0.56-3.45,1.49c-0.96,0.93-1.45,2.09-1.58,3.4c-0.78,0.08-1.24-0.3-1.24-1.03c0-5.07-0.01-10.13,0-15.2
		c0-1.24,0.72-2.22,1.88-2.67c0.12-0.05,0.19-0.24,0.28-0.36c0.01-0.02,0-0.05,0-0.08c0-0.27,0.08-0.6-0.04-0.8
		C6.87,5.8,6.53,5.76,6.29,5.65C5.24,5.18,4.64,4.37,4.57,3.22C4.53,2.64,4.89,2.2,5.42,2.16C5.9,2.12,6.33,2.51,6.4,3.06
		c0.09,0.66,0.42,0.96,1.09,0.96c4.44,0,8.88,0,13.32,0c0.67,0,1-0.3,1.09-0.96c0.07-0.55,0.5-0.94,0.98-0.9
		c0.53,0.05,0.88,0.48,0.86,1.06c-0.04,1.18-0.89,2.26-2.04,2.53c-0.34,0.08-0.45,0.21-0.42,0.54C21.31,6.53,21.29,6.78,21.29,7.04z
		 M12.24,17.84c1.17,0,2.35,0,3.52,0c0.76,0,1.09-0.34,1.09-1.11c0-1.92,0-3.85,0-5.77c0-0.76-0.34-1.11-1.1-1.11
		c-2.34,0-4.67,0-7.01,0c-0.78,0-1.12,0.34-1.12,1.13c0,1.91,0,3.82,0,5.73c0,0.79,0.33,1.12,1.12,1.12
		C9.91,17.84,11.07,17.84,12.24,17.84z M8.88,7.04c1.47,0,2.89,0,4.3,0c0-0.41,0-0.78,0-1.17c-1.45,0-2.87,0-4.3,0
		C8.88,6.28,8.88,6.65,8.88,7.04z M19.4,7.06c0-0.42,0-0.81,0-1.19c-1.45,0-2.86,0-4.29,0c0,0.4,0,0.79,0,1.19
		C16.55,7.06,17.97,7.06,19.4,7.06z"/>
	<path d="M28.66,26.45c0,1.86-1.54,3.4-3.39,3.39c-1.86-0.01-3.38-1.55-3.37-3.41c0.01-1.84,1.53-3.36,3.37-3.37
		C27.13,23.05,28.66,24.59,28.66,26.45z"/>
	<path d="M14.69,26.47c-0.01,1.87-1.54,3.4-3.4,3.38c-1.87-0.02-3.36-1.55-3.34-3.43c0.01-1.85,1.53-3.36,3.38-3.36
		C13.19,23.06,14.7,24.59,14.69,26.47z"/>
	<path d="M3.01,12.02c0,3.07,0,6.12,0,9.17c-1.52,0.3-2.75-0.7-2.76-2.22c-0.01-1.5,0-3,0-4.5C0.25,12.76,1.25,11.86,3.01,12.02z"/>
	<path d="M26.38,15.99c-1.64,0-3.24,0-4.87,0c0-1.4,0-2.8,0-4.25c0.09-0.01,0.2-0.04,0.31-0.04c1.05,0,2.1,0,3.16-0.01
		c0.21,0,0.35,0.03,0.41,0.28C25.71,13.29,26.04,14.61,26.38,15.99z"/>
	<path d="M9.5,11.72c0.62,0,1.2,0,1.8,0c0,1.42,0,2.82,0,4.25c-0.59,0-1.18,0-1.8,0C9.5,14.57,9.5,13.16,9.5,11.72z"/>
	<path d="M13.19,11.72c0.62,0,1.2,0,1.8,0c0,1.42,0,2.83,0,4.26c-0.6,0-1.19,0-1.8,0C13.19,14.56,13.19,13.16,13.19,11.72z"/>
</g>
</svg>
