<?xml version="1.0" encoding="utf-8"?>
<!-- Generator: Adobe Illustrator 24.3.0, SVG Export Plug-In . SVG Version: 6.00 Build 0)  -->
<svg version="1.1" id="Layer_1" xmlns="http://www.w3.org/2000/svg" xmlns:xlink="http://www.w3.org/1999/xlink" x="0px" y="0px"
	 viewBox="0 0 32 32" style="enable-background:new 0 0 32 32;" xml:space="preserve">
<g>
	<path d="M24.37,5.96c0.21-0.19,0.4-0.36,0.6-0.55c-0.94-0.92-1.85-1.82-2.74-2.69c0.85-0.83,1.64-1.61,2.47-2.43
		C27.6,2,30.14,4.21,31.75,7.32c-0.81,0.81-1.6,1.59-2.41,2.4c-0.88-0.91-1.78-1.83-2.68-2.75c-0.26,0.25-0.45,0.44-0.64,0.62
		c5.79,6.86,3.86,16.37-2.1,21.01c-5.87,4.57-14.33,4.05-19.5-1.28c-5.26-5.41-5.57-13.87-0.78-19.61
		C8.47,1.92,17.69,0.38,24.37,5.96z M22.54,8.74c-2.08-1.87-4.45-2.78-7.2-2.94c0,1.03,0,1.99,0,2.95c-0.28,0-0.5,0-0.78,0
		c0-0.82,0-1.6,0-2.39c0-0.56-0.04-0.59-0.61-0.54C12.5,5.96,11.11,6.33,9.8,7C8.94,7.45,8.14,7.98,7.37,8.73
		c0.73,0.7,1.43,1.37,2.09,1.99c-0.21,0.26-0.38,0.47-0.58,0.72c-0.61-0.62-1.18-1.2-1.75-1.79C6.88,9.4,6.69,9.36,6.43,9.67
		c-0.94,1.11-1.64,2.35-2.09,3.73c-0.3,0.94-0.51,1.89-0.52,2.96c0.99,0,1.97,0,2.94,0c0,0.37,0,0.66,0,1c-1,0-1.96,0-2.93,0
		c0,0.13-0.01,0.22,0,0.3c0.18,2.39,1.05,4.5,2.6,6.33c0.33,0.39,0.41,0.39,0.77,0.02c0.56-0.57,1.13-1.14,1.68-1.7
		c0.24,0.22,0.43,0.39,0.72,0.65c-0.74,0.71-1.44,1.38-2.16,2.07c2.02,1.82,4.39,2.72,7.14,2.88c0-1.02,0-1.99,0-2.96
		c0.29,0,0.52,0,0.79,0c0,0.98,0,1.93,0,2.96c2.76-0.09,5.11-1.06,7.21-2.91c-0.74-0.7-1.44-1.37-2.14-2.04
		c0.22-0.24,0.4-0.44,0.63-0.69c0.6,0.61,1.17,1.2,1.74,1.79c0.25,0.26,0.45,0.27,0.7-0.03c0.98-1.16,1.73-2.47,2.14-3.93
		c0.25-0.87,0.36-1.78,0.56-2.76c-1.1,0-2.07,0-3.04,0c0-0.36,0-0.66,0-0.99c1,0,1.96,0,2.92,0c0.01-0.09,0.02-0.13,0.02-0.17
		c-0.16-2.48-1.06-4.67-2.68-6.55c-0.22-0.25-0.41-0.24-0.64,0c-0.57,0.6-1.16,1.19-1.73,1.78c-0.24-0.23-0.42-0.4-0.62-0.6
		C21.12,10.13,21.81,9.45,22.54,8.74z"/>
	<path d="M19.38,12.74c-0.29,0.86-0.52,1.63-0.82,2.37c-0.45,1.14-0.91,2.28-1.43,3.39c-0.5,1.06-1.61,1.62-2.69,1.45
		c-1.16-0.18-2.06-1.03-2.26-2.13c-0.21-1.15,0.28-2.3,1.38-2.8c1.49-0.68,3.03-1.25,4.55-1.85C18.48,13.01,18.87,12.9,19.38,12.74z
		"/>
</g>
</svg>
