<?xml version="1.0" standalone="no"?>
<!DOCTYPE svg PUBLIC "-//W3C//DTD SVG 1.1//EN" "http://www.w3.org/Graphics/SVG/1.1/DTD/svg11.dtd" >
<svg xmlns="http://www.w3.org/2000/svg">
<metadata>Generated by IcoMoon</metadata>
<defs>
<font id="icomoon" horiz-adv-x="1024">
<font-face units-per-em="1024" ascent="960" descent="-64" />
<missing-glyph horiz-adv-x="1024" />
<glyph unicode="&#x20;" horiz-adv-x="512" d="" />
<glyph unicode="&#xe900;" glyph-name="play-button" d="M510.080-55.68c-278.080 0.96-503.36 228.48-502.080 506.56 1.28 277.12 228.48 501.76 505.92 500.8 278.080-0.96 503.68-228.48 502.080-506.56-1.28-276.8-228.48-501.76-505.92-500.8zM407.68 238.080c4.48 1.92 12.16 4.48 18.24 8.64 93.44 59.84 186.56 119.68 279.68 179.52 22.080 14.080 22.080 29.44 0 43.84-93.12 60.16-186.24 120-280 179.2-7.68 4.8-21.76 8-28.16 4.48-6.72-3.84-10.88-17.28-10.88-26.56-0.96-64.32-0.32-128.64-0.32-192.64 0-55.68 0-111.36 0-167.36-0.32-13.76 2.56-24.96 21.44-29.12z" />
<glyph unicode="&#xe901;" glyph-name="arrow-down" d="M512.64 283.84c75.2 75.2 148.8 149.12 222.4 222.72 66.56 66.56 133.12 133.12 199.68 199.68 14.080 14.080 30.4 20.48 50.24 13.76 17.6-5.76 27.2-18.24 30.4-35.84 3.52-19.52-6.4-33.92-19.84-47.040-72-71.68-144-144-216-216-75.52-75.52-151.040-151.040-226.88-226.56-29.12-29.12-52.16-29.12-81.6 0.32-147.2 147.2-294.080 294.080-441.28 441.28-4.8 5.12-9.92 9.92-13.76 15.68-13.44 19.52-9.6 45.12 8.32 60.16 18.24 15.36 43.52 14.72 62.080-3.52 45.12-44.16 89.28-88.64 133.76-133.44 92.8-92.8 185.28-185.28 278.080-278.080 4.16-3.52 8.32-7.36 14.4-13.12z" />
<glyph unicode="&#xe902;" glyph-name="arrow-left" d="M347.84 447.36c75.2-75.2 149.12-148.8 222.72-222.4 66.56-66.56 133.12-133.12 199.68-199.68 14.080-14.080 20.48-30.4 13.76-50.24-5.76-17.6-18.24-27.2-35.84-30.4-19.52-3.52-33.92 6.4-47.040 19.84-71.68 72-144 144-216 216-75.52 75.52-151.040 151.040-226.56 226.88-29.12 29.12-29.12 52.16 0.32 81.6 147.2 147.2 294.080 294.080 441.28 441.28 4.8 4.8 9.92 10.24 15.68 14.080 19.52 13.12 45.12 9.28 60.48-8.64 15.36-18.24 14.72-43.52-3.52-62.080-44.16-45.12-88.64-89.28-133.44-133.76-92.8-92.8-185.28-185.28-278.080-278.080-3.84-4.16-7.68-8.32-13.44-14.4z" />
<glyph unicode="&#xe903;" glyph-name="arrow-right" d="M676.16 448.64c-75.2 75.2-149.12 148.8-222.72 222.4-66.88 66.56-133.44 133.12-200 199.68-14.080 14.080-20.16 30.4-13.76 50.24 5.76 17.6 18.24 27.2 35.84 30.4 19.52 3.52 33.92-6.4 47.040-19.84 71.68-72 144-144 216-216 75.52-75.52 151.040-151.040 226.56-226.88 29.12-29.12 29.12-52.16-0.32-81.6-147.2-147.2-294.080-294.080-441.28-441.28-4.8-4.8-9.92-10.24-15.68-14.080-19.52-13.12-45.12-9.28-60.48 8.64-15.36 18.24-14.72 43.52 3.52 62.080 44.16 45.12 88.64 89.28 133.44 133.76 92.8 92.8 185.28 185.28 278.080 278.080 4.16 4.16 8 8.32 13.76 14.4z" />
<glyph unicode="&#xe904;" glyph-name="arrow-up" d="M511.36 612.16c-75.2-75.2-148.8-149.12-222.4-222.72-66.56-66.88-133.12-133.44-199.68-200-14.080-14.080-30.4-20.48-50.24-13.76-17.6 5.76-27.2 18.24-30.4 35.84-3.52 19.52 6.4 33.92 19.84 47.040 72 71.68 144 144 216 216 75.52 75.52 151.040 151.040 226.88 226.56 29.12 29.12 52.16 29.12 81.6-0.32 147.2-147.2 294.080-294.080 441.28-441.28 4.8-4.8 10.24-9.92 14.080-15.68 13.12-19.52 9.28-45.12-8.64-60.48-18.24-15.36-43.52-14.72-62.080 3.52-45.12 44.16-89.28 88.64-133.76 133.44-92.8 92.8-185.28 185.28-278.080 278.080-4.16 4.16-8.32 8-14.4 13.76z" />
<glyph unicode="&#xe905;" glyph-name="boat" d="M982.4 507.2c-63.68 8.32-127.36 16.96-191.040 25.6-15.68 2.24-31.36 4.16-47.040 5.76-10.24 0.96-16.64-5.12-17.6-14.72-0.96-9.28 4.8-15.36 14.080-17.28 5.44-0.96 11.2-1.28 16.64-2.24 18.56-2.88 18.56-2.88 18.56-21.76 0-22.080-1.28-23.36-23.68-20.48-8.64 0.96-16.96 1.92-25.6 3.2-33.28 4.8-31.36 5.12-33.6 39.040-2.24 32.64 5.12 60.48 25.92 85.44 4.48 5.44 6.72 15.36 5.12 22.080-2.24 9.92-12.48 9.6-21.44 10.24-110.080 5.12-219.84 10.24-329.92 16-11.84 0.64-20.16-3.2-26.88-13.12-22.72-32.64-46.4-64.96-68.8-97.6-6.080-8.64-12.16-12.8-23.36-11.52-27.52 3.52-55.36 6.4-82.88 9.28-42.88 4.48-86.080 9.6-128.96 13.76-17.28 1.6-24-4.8-22.72-22.080 0.64-11.2 2.88-22.080 4.16-33.28 0.96-9.28 5.76-13.12 15.040-14.080 135.36-15.040 270.72-30.4 406.080-45.76 120.96-13.76 241.6-27.2 362.56-40.64 49.28-5.44 98.88-10.88 148.16-16.64 8.32-0.96 14.72-0.32 17.6 9.92 9.92 33.6 20.48 67.2 30.72 100.8 5.76 20.48 0.64 27.2-21.12 30.080zM480.96 502.72c-0.96-7.68-5.44-10.88-13.44-10.24-48 5.12-96.32 9.92-144.32 15.36-11.52 1.28-14.4 7.36-7.68 16.64 17.28 24.64 34.56 48.96 52.48 72.96 2.56 3.52 9.28 6.4 14.080 6.080 32.64-0.96 64.96-2.88 97.6-4.48 8.32-0.32 14.72-1.92 13.44-12.48-4.16-27.84-8-56-12.16-83.84zM667.52 570.24c-3.52-6.4-6.080-14.080-6.4-21.44-0.96-20.48-0.32-40.96-0.32-61.44 0-10.24-3.52-15.68-14.4-14.080-40.32 4.48-80.64 8.96-121.28 13.12-8.96 0.96-11.84 4.8-10.88 13.44 3.84 28.48 7.68 56.64 11.52 85.12 1.28 8.96 6.4 11.84 15.36 11.52 38.72-2.24 77.76-3.84 116.48-6.080 16.32-0.96 18.24-5.44 9.92-20.16zM855.36 451.2c-11.52 0.96-23.040 2.88-34.24 3.84-8.96 0.64-12.48 4.8-12.8 14.080-0.64 27.52 0 28.48 27.52 24 6.4-0.96 12.8-1.6 19.2-2.24 19.52-2.56 19.52-2.56 19.52-22.080 0-18.24-1.28-19.2-19.2-17.6zM936.64 442.56c-3.52 0.32-6.72 0.64-10.24 0.64-18.56 1.6-18.88 1.92-18.88 20.8 0 18.24 1.28 19.2 18.88 17.28 10.24-1.28 20.48-2.24 30.080-5.12 3.2-0.96 7.68-7.040 7.68-10.24-0.64-20.8-7.040-25.6-27.52-23.36zM936.64 335.040c-57.6 6.080-114.88 12.48-172.48 18.88-118.72 13.44-237.44 26.88-356.16 40.32-66.88 7.68-133.76 15.040-200.32 22.72-46.72 5.44-93.76 10.56-140.48 15.68-6.4 0.64-12.8-1.6-19.2-2.56 2.24-6.4 2.88-14.080 6.72-19.2 11.84-15.36 23.36-30.72 37.44-43.84 73.92-68.48 164.48-100.8 263.040-105.6 93.76-4.48 187.52-0.96 281.6-0.96 0-0.64 0-0.96 0-1.6 94.72 0 189.44 0 284.16-0.32 11.2 0 17.28 3.52 19.84 14.72 2.88 12.8 7.36 25.6 11.52 38.080 5.76 18.88 3.84 21.44-15.68 23.68z" />
<glyph unicode="&#xe906;" glyph-name="briefcase" d="M203.84 755.84c0-70.4 0.32-137.92-0.32-205.44 0-5.76-3.52-12.48-7.040-17.28-40.64-54.080-54.4-114.56-48.96-182.080 4.16-51.52 19.52-70.72 71.040-70.72 14.080 0 28.16-0.32 41.92 0 31.68 1.28 54.72 24.32 55.36 56 0.64 32 1.28 64.32-0.32 96-0.64 12.8-5.12 26.88-12.48 37.12-35.2 48.64-49.28 101.76-43.52 161.92 3.52 40.64 0.64 81.6 0.64 123.84 28.16 0 54.72 0 83.84 0 0 16.96 0 32.32 0 48 0 58.24 33.92 92.16 92.16 92.48 51.84 0 103.68 0.32 155.52 0 52.48-0.32 87.68-35.2 88-87.68 0-16.32 0-32.64 0-51.84 7.040 0 13.12 0 19.2 0 57.28 0 114.24 0.32 171.52 0 85.12-0.32 145.28-60.16 145.28-145.6 0.32-154.88 0.32-310.080 0-464.96 0-84.48-59.84-144.64-144-144.64-239.68-0.32-479.36-0.32-719.040 0-84.48 0-144.32 60.16-144.64 144.32-0.32 155.52-0.32 311.040 0 466.88 0 83.84 60.48 143.68 144.96 144.32 16.32-0.32 32.32-0.64 50.88-0.64zM623.36 756.8c0 20.16 0.96 38.72-0.32 57.28-0.96 16.32-11.84 25.28-27.84 25.6-55.36 0.32-110.72 0.32-166.080 0-14.4 0-26.24-7.36-27.52-21.76-1.92-19.84-0.64-40.32-0.64-61.12 74.56 0 147.2 0 222.4 0zM232 420.16c-15.36 0-27.52 12.16-27.84 27.52-0.32 15.68 12.8 28.48 28.8 28.16 15.36-0.32 27.2-13.12 26.88-28.16-0.32-15.36-12.48-27.52-27.84-27.52z" />
<glyph unicode="&#xe907;" glyph-name="calendar-check" d="M694.656 502.656c5.808-5.794 9.401-13.805 9.401-22.656s-3.593-16.862-9.401-22.655l-192.001-192.001c-5.794-5.808-13.805-9.401-22.656-9.401s-16.862 3.593-22.655 9.401l-96.001 96.001c-5.798 5.798-9.384 13.808-9.384 22.656 0 17.695 14.345 32.040 32.040 32.040 8.848 0 16.858-3.586 22.656-9.384v0l73.344-73.408 169.344 169.408c5.794 5.808 13.805 9.401 22.656 9.401s16.862-3.593 22.655-9.401l0.001-0.001zM224 960c17.673 0 32-14.327 32-32v0-32h512v32c0 17.673 14.327 32 32 32s32-14.327 32-32v0-32h64c70.692 0 128-57.308 128-128v0-704c0-70.692-57.308-128-128-128v0h-768c-70.692 0-128 57.308-128 128v0 704c0 70.692 57.308 128 128 128v0h64v32c0 17.673 14.327 32 32 32v0zM64 704v-640c0-35.346 28.654-64 64-64v0h768c35.346 0 64 28.654 64 64v0 640z" />
<glyph unicode="&#xe908;" glyph-name="calendar-fill" d="M224 960c17.673 0 32-14.327 32-32v0-32h512v32c0 17.673 14.327 32 32 32s32-14.327 32-32v0-32h64c70.692 0 128-57.308 128-128v0-704c0-70.692-57.308-128-128-128v0h-768c-70.692 0-128 57.308-128 128v0 576h1024v64h-1024v64c0 70.692 57.308 128 128 128v0h64v32c0 17.673 14.327 32 32 32v0z" />
<glyph unicode="&#xe909;" glyph-name="count-1" d="M10.56 896c0 6.080-0.32 11.84 0 17.92 1.6 20.48 14.72 33.92 35.2 36.16 55.36 6.080 104.64-12.48 145.6-47.36 43.2-36.8 83.84-77.12 122.88-118.72 125.76-133.76 249.92-268.8 374.72-403.52 51.52-56 87.040-122.88 126.72-186.88 13.76-22.080 26.24-45.44 38.080-68.8 2.56-5.12 0.64-12.48 0.64-18.88-6.4 0.32-14.080-1.6-18.88 1.28-59.52 34.88-118.72 70.080-177.6 105.92-67.52 40.96-122.88 96.32-180.16 149.76-128 119.36-254.080 240.32-380.48 360.96-36.48 33.92-65.92 73.28-79.68 121.92-4.48 16.32-6.4 33.28-9.6 49.92 0.96 0.32 1.6 0.32 2.56 0.32zM216.96 561.28c52.48-49.6 103.040-97.6 153.28-144.96-20.8-27.2-42.56-52.8-60.8-80.96-64-99.2-126.72-199.36-190.080-299.2-2.88-4.16-5.76-8.96-10.56-16.32-9.92 10.56-19.52 19.52-27.52 29.76-2.56 3.52-2.56 10.56-1.28 15.040 19.84 73.28 40 146.24 60.16 219.2 24 86.72 47.68 173.76 71.36 260.48 1.6 5.12 3.2 9.6 5.44 16.96zM543.68 589.76c-47.68 50.24-95.68 101.12-145.28 153.6 28.48 8 55.040 15.040 81.28 22.4 136.96 37.44 273.92 74.88 410.56 112.96 11.52 3.2 19.84 2.88 27.52-7.040 5.76-7.040 13.44-12.48 21.44-19.84-130.88-89.92-271.040-162.56-395.52-262.080zM824.96 240c-18.88 29.76-36.16 57.6-54.72 87.040 24 6.72 46.4 13.12 68.8 19.52 34.88 9.92 69.76 20.16 104.64 29.12 5.44 1.28 13.12-0.96 17.6-4.48 9.92-8 18.56-17.6 29.76-28.16-56-34.88-110.4-68.48-166.080-103.040zM634.88 188.48c27.52-17.28 55.36-34.88 84.8-53.44-33.92-55.040-67.52-109.44-103.040-167.36-11.52 12.48-21.76 23.040-31.040 34.24-2.24 2.56-3.52 7.68-2.56 10.88 16 57.6 32.64 114.88 48.96 172.16 0.32 0.96 1.28 1.6 2.88 3.52zM770.88 878.72c-27.2-7.36-52.48-14.72-78.4-21.12-2.88-0.64-9.6 2.56-10.24 5.12-4.8 16.64-8.64 33.28-12.16 50.24-1.6 8.64 3.2 11.84 11.84 12.16 37.76 1.92 64.64-16.96 88.96-46.4zM80.96 189.12c-28.8 23.68-47.36 49.92-46.4 87.040 0.32 11.2 4.48 15.68 14.72 13.76 15.68-3.2 31.040-7.040 46.4-10.88 6.72-1.92 8.96-6.080 6.72-13.44-7.36-24.96-14.080-49.92-21.44-76.48zM157.44 466.56c-7.68-27.84-15.040-54.080-22.4-80.64-27.52 15.36-48 57.6-41.6 87.040 0.64 2.88 4.8 6.72 7.68 7.040 19.84 1.92 38.4-1.6 56.32-13.44zM575.68 825.6c-26.88-7.36-52.16-14.72-77.76-21.12-2.56-0.64-8.64 3.84-9.28 6.72-3.52 15.36-6.4 31.040-8.32 46.72-0.32 2.56 6.080 8.32 9.6 8.64 35.52 2.88 62.4-12.8 85.76-40.96zM900.8 481.6c-2.56-3.52-4.48-8.64-8-9.92-3.84-1.28-10.24-0.64-13.44 1.92-10.88 9.6-21.12 20.48-31.36 30.72-10.56 10.56-22.080 20.8-31.68 32.32-3.2 3.84-1.6 11.84-2.24 17.92 6.080-0.32 14.4 1.92 17.92-0.96 21.76-20.16 42.56-41.6 63.68-62.72 1.92-1.92 2.88-5.12 5.12-9.28zM491.2 70.72c-2.88-3.2-5.76-8.64-8.96-9.28-4.8-0.64-11.2 0.96-14.72 4.16-14.72 13.76-28.8 28.16-42.88 42.56-6.72 6.72-14.4 13.12-19.84 20.8-2.56 3.84-2.88 13.44-0.32 15.36 3.84 2.88 13.44 3.52 16.32 0.96 22.4-21.12 43.84-42.88 65.28-64.96 2.24-2.24 3.2-5.76 5.12-9.6zM274.24 83.52c4.16-2.56 7.68-3.84 10.24-6.4 17.92-17.6 36.16-35.2 53.12-53.76 3.2-3.52 1.6-11.84 2.56-17.92-6.080 0.32-14.72-1.92-18.24 0.96-19.2 17.6-37.44 36.48-55.36 55.36-2.56 2.88-3.52 9.6-2.24 13.44 0.96 3.52 6.4 5.44 9.92 8.32zM889.28 699.52c4.48-3.2 8.64-5.44 11.84-8.64 16.96-16.64 33.92-33.6 50.56-50.56 6.4-6.4 9.6-13.44 2.24-20.16-6.72-6.4-13.44-2.88-19.2 2.88-17.28 17.6-35.2 34.88-52.16 52.8-3.2 3.2-4.16 9.92-3.52 14.72 0.64 3.2 6.080 5.44 10.24 8.96zM744.32 634.56c10.56 0.32 48.32-36.8 47.040-45.12-0.64-3.52-3.2-8.32-6.4-9.6-3.52-1.28-9.92-1.28-12.48 0.96-12.16 10.88-23.68 22.72-34.88 34.88-2.24 2.56-2.24 8.64-0.96 12.48 1.6 3.2 6.080 5.12 7.68 6.4zM382.4 178.56c-2.24-2.88-4.16-7.36-7.040-8.32-3.84-1.28-9.92-1.28-12.48 0.96-11.84 10.88-23.68 22.080-33.92 34.24-2.56 2.88-2.56 11.52 0 14.72 2.24 2.88 11.52 5.12 13.76 2.88 13.12-11.52 25.28-24 37.44-36.48 0.96-1.92 0.96-4.48 2.24-8zM981.44 602.56c10.56 0 35.52-24.64 34.56-32.64-0.32-3.52-2.88-8.64-5.76-9.92-3.52-1.6-9.92-1.6-12.48 0.64-8.32 7.040-16.32 14.72-23.36 23.36-2.24 2.88-2.24 8.96-0.64 12.48 1.28 3.2 6.080 4.8 7.68 6.080zM367.68-11.2c3.84-1.6 6.72-1.92 8.64-3.84 7.68-7.36 16-14.080 22.080-22.72 2.56-3.2 2.56-12.48 0.32-14.4-3.52-2.88-12.16-4.48-15.36-2.24-8.96 6.4-16.64 14.72-23.36 23.040-2.24 2.88-2.24 8.96-0.64 12.8 0.96 3.2 5.44 5.12 8.32 7.36z" />
<glyph unicode="&#xe90a;" glyph-name="count-2" d="M857.6 546.88c-30.080 50.88-66.56 90.56-107.52 120.64-32.64-21.76-65.28-43.2-97.92-64.96-3.2-2.24-6.4-3.84-9.92-1.92-3.84 1.92-4.48 5.44-4.48 9.6-0.96 38.4-2.24 76.8-3.2 114.88-31.040 9.28-63.36 14.72-95.68 16.64-85.76 0-144.64-13.12-200.32-40.32-199.040-98.24-278.080-336.96-185.28-528 50.24-103.040 129.92-173.76 239.040-210.56 62.4-21.12 126.080-23.36 190.4-12.8 92.16 15.36 169.6 56.96 230.080 128.32 54.72 64.32 85.12 139.52 94.080 223.36 9.28 87.040-4.8 169.92-49.28 245.12zM509.12 239.68c-5.12-18.24-13.12-32.32-32.32-38.72-2.88-0.96-5.44-8.32-5.44-12.8 0.32-16.32-1.92-21.76-17.28-26.88-11.2-3.52-13.44-10.24-11.84-20.48 1.6-10.88 1.92-21.76-6.080-30.72-1.6-1.92-3.52-4.16-5.44-4.48-22.080-5.76-25.28-24.96-28.16-42.56-3.2-17.6 7.040-31.36 18.24-43.52 1.6-1.92 3.2-3.84 5.44-6.4-27.2-4.8-37.44 1.28-45.44 25.28-3.84 11.84-8 23.68-12.8 35.2-6.72 15.68-12.48 30.72-13.12 48.64-0.32 11.84-8.32 24-14.080 35.52-8 15.68-16 30.72-13.76 49.28 0.32 1.92-4.8 6.72-7.36 6.72-11.84 0-24 0.32-31.68 10.24-11.2 14.4-25.92 29.12-29.44 45.44-3.84 18.24 5.12 37.76 18.56 53.12 2.56 2.88 5.44 5.76 6.72 8.96 2.88 7.36-0.96 12.8-8.96 11.84-12.8-1.92-23.040 1.28-32 11.2-2.56 2.56-8.32 3.52-12.16 3.2-11.84-0.64-22.080 2.56-30.72 10.56-10.88 9.92-22.72 16.32-37.76 17.6-14.4 1.28-18.56 8.32-16 22.4 19.84 107.2 76.16 190.080 166.72 250.56 6.72 4.48 11.2 4.48 16.64-1.92 10.88-12.16 11.84-12.16 25.6-4.48 8.64 4.8 16.96 10.88 24.64 17.28 9.6 8 35.52 5.76 43.52-5.12 7.040-9.6 12.16-20.8 16.96-29.12-22.080-5.76-42.88-11.52-63.68-16.64-3.52-0.96-8 1.6-12.16 2.88-0.96 0.32-1.28 1.6-1.92 2.24-5.44 6.72-12.8 7.040-18.56 2.88-10.24-7.36-31.040 0.96-31.36-21.76 0-10.24-1.6-18.88 13.44-18.24 4.48 0.32 9.6-7.040 15.68-11.52 1.92 3.52 3.52 6.4 4.48 9.6 4.16 12.16 12.8 17.6 25.28 17.92 8.96 0 18.24-1.28 27.2 0 11.84 1.92 23.68 4.48 34.56 9.28 7.68 3.2 12.8 3.2 17.28-2.88 5.76-8.32 10.24-17.28 15.68-25.6 3.52-5.44 8.32-9.92 14.4-16.96-5.76-5.12-13.12-12.8-21.44-19.2-2.56-1.92-8-0.96-11.52 0-10.88 3.2-21.44 6.72-33.28 10.56 0-7.040 0-12.48 0-17.92 0-7.36-3.52-10.88-10.88-10.88-1.28 0-2.88 0-4.16 0-35.2 0.96-56-16-63.36-51.84-4.48-21.76-11.52-41.28-29.44-56-5.76-4.8-9.92-6.080-17.28-1.92-16.64 9.6-34.88 13.44-54.4 9.28-4.48-0.96-8.64-2.56-12.48-4.8-7.36-4.16-11.52-9.92-5.44-18.56 1.6-2.24 2.24-5.12 3.52-7.68 5.12-10.56 7.68-11.2 15.36-2.56 5.44 6.4 11.52 7.040 15.68 5.12 8-15.040 14.4-27.2 22.080-42.24 9.6 0 21.76-2.88 33.92 7.040 7.36 5.76 20.16 5.44 30.4 6.4 2.56 0.32 6.080-5.12 8-8.32 3.52-5.44 6.080-11.52 8.32-15.68 10.88 3.84 20.48 10.56 29.76 10.24 22.4-1.28 44.48-6.72 52.8-32.64 2.24-7.040 7.040-11.84 15.68-11.2 2.56 0.32 5.44-1.28 7.36-2.56 9.92-6.72 19.52-14.4 29.76-20.8 18.88-11.84 25.6-29.12 19.52-50.88zM775.040 610.88c-0.64-0.64-0.96-1.6-1.6-2.24-11.84 6.4-24.64 11.2-27.84 27.84 9.92-8.64 19.84-17.28 29.44-25.6zM676.8 541.44c9.6 20.8 31.040 24.32 47.36 8 0.96-0.96 1.92-1.6 4.48-3.84 0.32 7.040 0.64 12.16 0.96 17.6 0.64 16.96 6.4 23.36 23.36 24 11.84 0.32 24-0.32 31.68 12.8 23.36-24 41.6-49.92 56.96-78.080-1.28-0.96-2.56-2.24-3.52-3.2-5.12 6.4-10.56 12.48-15.68 18.88-4.16 5.12-8.32 5.12-13.12 0.32-4.16-4.48-7.36-8.64-1.6-13.76 7.040-6.4 14.4-13.12 23.68-22.080-11.2-5.44-19.52-10.24-28.16-13.44-6.080-1.92-14.4 10.56-16.96 19.52-2.88 11.84-7.68 23.040-11.84 34.56-20.16-13.76-37.12-27.2-56-37.12-8.96-4.8-22.72-5.12-32.64-2.24-9.6 3.52-13.76 27.52-8.96 38.080zM877.44 257.28c-12.16-52.8-35.52-100.8-68.8-143.68-1.6-2.24-3.52-4.16-5.44-6.080 1.28 26.56-16.64 45.12-26.24 66.88-3.52 7.68-3.84 12.8 2.88 18.24 2.56 1.92 4.8 4.16 7.040 6.4 14.080 13.44 13.12 13.44 5.76 30.72-3.84 9.6-3.84 20.8-6.4 31.36-0.96 4.48-2.24 10.24-5.12 12.16-20.16 12.8-41.92 16.96-64.32 5.76-42.56-21.44-80.32-1.92-86.4 45.76-1.6 13.12-1.92 26.24-1.6 39.68 0 4.8 3.2 10.56 6.72 14.4 5.44 5.76 8 11.52 7.36 19.52-0.64 7.36-0.64 14.72 0 21.76 0.96 15.040 9.92 21.76 24.96 23.36 12.16 0.96 24.64 3.84 35.84 8.96 17.6 8.32 35.52 4.48 53.12 4.48 2.88 0 5.44-3.84 8.32-5.76 10.56-6.72 20.8-13.44 31.68-19.52 1.92-0.96 6.080 0.96 8.64 2.24 11.52 7.040 22.72 14.72 34.24 21.44 2.56 1.28 6.72 0.96 9.6-0.32 7.040-2.88 14.080-6.080 20.48-9.92 2.24-1.28 3.84-4.48 4.48-7.36 16.96-59.84 17.28-120 3.2-180.48zM828.48 720.32c40.96 27.84 59.84 67.84 55.36 117.12-4.16 46.4-29.12 80-70.080 102.080-6.4 2.24-12.8 5.44-19.52 7.36-5.76 1.92-11.84 2.88-17.92 3.84-76.48 10.88-145.28-48-144.64-125.12 0.32-33.6 1.28-66.88 2.24-100.48 40.96-12.16 80-31.040 115.84-57.6 26.56 17.6 52.8 34.88 78.72 52.8zM702.4 854.72c16 30.72 54.4 42.88 85.12 26.88 31.040-16 43.2-54.4 27.2-85.12-16-31.040-54.72-43.2-85.44-27.2-31.040 16.32-42.88 54.72-26.88 85.44z" />
<glyph unicode="&#xe90b;" glyph-name="count-3" d="M541.12 328.64c-18.24 0-33.28-1.6-47.68 0.64-12.48 1.92-14.4-3.84-17.28-13.44-5.76-18.24-10.56-37.76-20.48-53.44-27.52-43.84-69.44-65.28-120.32-66.24-64.32-1.28-128.96-1.6-193.6 0.32-55.36 1.6-96.96 28.16-120.32 79.36-4.8 10.24-8 21.76-8.96 32.96-2.56 31.68-4.16 63.68-4.8 95.36-0.32 13.76 10.24 26.88 3.2 41.92-1.6 3.52 1.92 9.92 4.48 14.4 38.72 69.44 77.44 138.56 116.16 207.68 9.28 16.64 25.6 21.12 42.24 22.72 47.040 4.48 82.24-15.68 108.16-54.080 5.76-8.32 9.6-17.6 14.4-26.56 5.44-10.24 4.16-21.12-4.16-27.52-6.72-5.12-17.28-7.040-25.92-7.040-11.2 0-14.080 10.24-15.36 19.84-4.48 36.8-24.96 52.16-61.12 56.64-10.24 1.28-16.64-1.28-19.84-13.12-10.56-40.32-22.4-80-34.56-121.92 6.080-0.32 10.56-0.96 15.040-0.96 57.6 0 114.88-1.28 172.48 0.32 54.72 1.6 102.72-10.24 136.96-55.36 33.92 15.68 66.24 18.56 94.080-3.2 18.88 14.72 35.84 32 56.32 42.24 18.56 9.28 40.96 14.72 61.76 15.040 74.88 1.6 150.080 0.64 223.36 0.64-12.8 43.84-26.24 88.64-38.72 133.76-2.88 9.92-8 12.16-16.64 12.16-32.96 0-57.92-21.12-63.040-53.76-1.6-10.56-2.56-21.12-16-24-10.24-2.24-19.2-0.96-26.24 7.36-8.64 9.92-7.36 20.48-2.24 31.68 18.24 40 47.040 67.2 90.88 76.16 19.2 3.84 37.76 1.6 55.040-6.72 6.72-3.2 13.12-9.28 16.64-15.68 39.040-68.16 77.12-136.64 115.52-205.12 6.4-11.52 8.32-22.72-0.96-34.24-2.24-2.56-2.56-8-1.6-11.52 6.72-21.12 9.92-42.24 6.4-64.64-3.2-20.8-2.88-42.24-7.040-62.72-12.48-59.2-64-101.76-125.12-103.040-68.48-1.28-136.96-3.52-205.44 0.32-59.52 3.2-116.16 42.24-131.2 115.52-1.6 7.36-3.52 13.76-4.48 17.28zM283.2 464c-19.84 0-36.8-0.32-53.76 0.32-8.32 0.32-12.16-2.88-16-9.92-27.84-53.12-56-105.92-84.16-159.040-6.4-12.16-12.8-24.32-19.84-38.4 18.88 0 35.2 0.64 51.2-0.32 9.6-0.64 14.72 2.56 19.2 11.2 19.52 37.76 39.68 75.2 59.52 112.64 14.080 27.2 28.16 54.080 43.84 83.52zM665.28 256.96c19.52 0 36.8 0.32 53.76-0.32 8.32-0.32 12.48 2.56 16.32 9.92 32.64 62.080 65.6 124.16 98.24 186.24 1.6 3.2 2.88 6.72 4.8 11.52-19.2 0-36.48-0.64-53.44 0.32-8 0.32-11.84-3.2-15.040-9.6-7.040-14.080-14.72-27.84-22.080-41.92-26.88-51.52-54.080-102.4-82.56-156.16zM329.92 462.72c-23.040 3.2-23.040 3.2-32.96-15.040-22.080-41.6-44.48-83.52-66.56-125.44-11.2-21.12-22.4-42.24-33.6-64 23.36-3.52 23.36-3.52 32.96 15.040 22.4 42.56 45.12 85.12 67.52 127.68 11.2 20.48 21.76 40.64 32.64 61.76zM886.72 462.72c-23.68 2.88-23.68 2.88-33.28-15.36-22.4-42.24-44.8-84.48-67.2-126.4-10.88-20.8-21.76-41.6-32.96-62.72 23.36-2.88 23.36-2.88 33.28 15.36 25.28 47.68 50.56 95.040 75.52 142.72 8.32 15.36 16.32 30.72 24.64 46.4z" />
<glyph unicode="&#xe90c;" glyph-name="count-4" d="M403.52 611.52c0.64 79.68 7.68 158.4 32.32 234.24 8 24.96 20.48 48.32 32.32 72 4.16 8.32 11.2 15.36 17.92 21.44 17.6 16.32 37.12 17.28 53.12-0.64 13.44-15.040 25.28-32.64 33.92-50.88 23.68-50.24 34.24-104.32 40.96-159.040 10.24-82.56 11.52-165.44-2.56-247.36-8-48.32-21.12-96-33.28-143.68-14.72-57.28-31.040-113.92-45.44-170.88-3.2-12.8-9.6-13.76-19.84-13.44-9.28 0.32-16.96-0.96-20.48 12.48-21.76 84.48-44.8 168.32-67.2 252.8-16.64 63.36-21.44 128-21.76 192.96zM654.080 925.12c23.36-13.76 48-25.28 69.44-41.28 112-82.88 164.16-194.56 153.28-333.76-5.12-66.56-32-126.080-73.6-178.56-54.4-68.8-108.8-137.6-162.88-206.72-6.72-8.64-13.76-12.8-24.64-11.84-8.64 0.96-17.6 0.32-29.12 0.32 13.44 24 25.6 45.76 37.76 67.2 36.8 65.6 75.84 129.92 109.76 196.8 48.32 94.72 54.4 195.52 32 298.24-16.96 78.4-51.2 147.52-111.36 202.24-1.28 0.96-2.24 2.56-3.2 3.52 0.96 1.6 1.92 2.88 2.56 3.84zM368.64 918.72c-89.6-88-123.2-197.76-121.92-320.32 0.96-78.72 23.36-151.040 63.68-219.2 42.24-71.68 82.24-144.64 123.2-217.28 0.96-1.92 1.92-4.16 3.84-8.32-14.4 0-27.52-0.32-40.64 0.32-3.2 0.32-6.4 4.16-8.96 7.36-56.32 71.36-112.64 142.4-168.96 213.76-130.88 166.4-79.040 408.96 99.2 520.64 16 9.92 33.28 18.24 49.92 27.2 0.32-1.6 0.64-2.88 0.64-4.16zM554.56 155.2c1.6 7.040 3.2 14.4 5.12 21.44 20.8 78.080 42.24 156.16 62.72 234.56 19.52 75.2 24.64 151.68 22.4 228.8-2.56 80-12.16 158.72-40 234.24-8 22.080-19.52 42.88-30.72 67.52 16.64-9.28 32-16.64 46.080-26.24 50.24-35.52 83.2-84.8 104.32-141.44 39.36-105.28 43.2-211.84 1.28-317.12-17.28-42.88-42.24-82.56-64.96-123.2-31.68-56.96-64-113.6-96.32-170.56-1.92-3.2-4.16-6.080-6.4-9.28-1.28 0.32-2.56 0.96-3.52 1.28zM465.92 153.92c-11.2 19.52-22.4 39.36-33.6 58.88-38.4 67.84-77.12 135.040-114.56 203.2-38.4 69.76-51.2 145.28-46.080 224.32 4.48 69.44 22.4 134.72 59.2 194.24 25.28 40.64 57.28 74.24 100.16 96.64 6.080 3.2 12.48 5.76 19.84 8.96-63.36-114.56-72.32-237.76-71.040-362.88 0.96-83.84 19.84-164.8 42.88-244.8 15.36-54.080 29.44-108.8 44.16-163.2 1.28-4.48 1.92-9.28 2.88-13.76-0.96-0.64-2.56-0.96-3.84-1.6zM512.64 57.28c28.8 0 57.28 0 86.080 0 16.64 0 20.48-4.48 17.92-21.44-3.52-24.64-7.36-49.6-10.56-74.24-1.6-11.84-6.4-17.28-18.88-17.28-50.24 0.32-100.16 0.32-150.4 0-10.88 0-16.32 4.16-17.92 15.36-3.52 26.24-7.36 52.16-11.2 78.4-1.92 15.040 1.92 19.2 17.6 19.52 29.12-0.32 58.24-0.32 87.36-0.32zM523.52 81.6c-7.68 0-14.4 0-22.080 0 0 15.68 0 31.040 0 47.040 7.040 0 14.080 0 22.080 0 0-15.040 0-30.4 0-47.040zM399.36 128.32c24 3.2 24 3.2 31.040-16.96 3.2-9.28 6.080-18.56 9.28-27.84-21.12-6.080-23.68-4.8-30.080 14.4-3.2 9.92-6.72 19.52-10.24 30.4zM584.96 83.52c4.16 13.12 8.32 26.24 12.8 39.040 5.12 14.080 16.96 4.16 27.84 8-5.44-16.64-8.32-31.68-15.36-44.48-2.88-5.12-15.36-4.8-23.36-6.72-0.32 1.28-1.28 2.56-1.92 4.16z" />
<glyph unicode="&#xe90d;" glyph-name="envelope" d="M0 704c0 70.692 57.308 128 128 128v0h768c70.692 0 128-57.308 128-128v0-512c0-70.692-57.308-128-128-128v0h-768c-70.692 0-128 57.308-128 128v0zM128 768c-35.346 0-64-28.654-64-64v0-13.888l448-268.8 448 268.8v13.888c0 35.346-28.654 64-64 64v0zM960 615.488l-301.312-180.8 301.312-185.408zM957.824 175.424l-360.96 222.144-84.864-50.88-84.864 50.88-360.96-222.080c7.537-27.561 32.354-47.484 61.823-47.488h768.001c0.002 0 0.005 0 0.008 0 29.451 0 54.256 19.893 61.711 46.975l0.105 0.449zM64 249.28l301.312 185.408-301.312 180.8z" />
<glyph unicode="&#xe90e;" glyph-name="facebook" d="M1024 444.864c0 284.544-229.248 515.2-512 515.2-282.88-0.064-512.128-230.656-512.128-515.264 0-257.088 187.264-470.208 432-508.864v360h-129.92v148.864h130.048v113.6c0 129.088 76.48 200.384 193.408 200.384 56.064 0 114.624-10.048 114.624-10.048v-126.72h-64.576c-63.552 0-83.392-39.744-83.392-80.512v-96.64h141.952l-22.656-148.864h-119.36v-360c244.736 38.656 432 251.776 432 508.864z" />
<glyph unicode="&#xe90f;" glyph-name="flight" d="M69.76 419.52c22.72 12.48 43.52 24.32 64.96 35.2 3.84 1.92 10.56 1.28 14.72-0.64 15.36-7.36 30.080-15.68 45.12-23.36 16-8.32 32-8.96 48.64-1.28 117.12 53.44 233.92 106.88 351.36 160 53.44 24.32 106.88 49.28 161.6 71.040 41.28 16.32 85.12 20.16 129.6 16.64 3.2-0.32 6.4-1.28 13.76-2.56-18.88-10.24-34.56-18.56-49.92-26.88-3.52-1.92-8.32-2.88-10.24-5.76-3.52-5.44-8.32-13.12-6.72-18.24 2.56-8.96 11.2-9.92 19.84-5.76 26.88 14.080 54.080 27.84 80.64 42.56 9.6 5.44 18.56 6.72 28.16 1.92 14.4-7.040 29.12-13.44 42.88-21.44 16-9.28 16.32-19.84 0.64-29.12-51.52-30.4-102.72-61.12-155.84-88.64-45.76-23.36-93.76-42.24-140.48-62.72-3.52-1.6-7.36-2.24-14.72-4.48 12.48 19.52 24 35.52 33.28 52.8 3.2 6.080 2.24 14.4 2.88 21.76-7.36 0.64-15.68 4.16-21.44 1.6-55.36-22.4-110.72-45.76-165.44-69.44-7.36-3.2-14.080-10.56-18.56-17.6-8.64-13.44-16.32-27.52-22.4-42.24-5.76-13.76-15.36-20.16-29.44-24-102.72-29.12-206.72-52.48-312.64-67.2-34.88-4.8-57.92 19.52-50.24 53.76 2.88 12.48-1.6 22.72-10.88 30.72-9.28 7.36-18.56 14.4-29.12 23.36zM678.080 486.72c-37.44-58.24-76.8-115.52-111.36-175.68-22.72-39.36-51.2-66.88-94.4-80.32-11.52-3.52-22.4-9.92-36.16-12.8 9.28 18.24 18.56 36.8 28.16 55.040 26.56 51.2 53.44 102.72 80.32 153.92 2.24 4.16 5.12 9.6 9.28 11.2 40.64 17.6 81.6 34.56 122.24 51.52 0.64-0.96 1.28-1.92 1.92-2.88zM598.72 622.72c-36.8-16.64-72.32-33.28-108.16-49.28-2.56-0.96-6.080-1.92-8.32-0.64-33.28 15.68-66.24 31.68-102.4 49.28 26.56 12.8 49.6 24 72.64 34.88 2.56 1.28 6.080 0.64 8.64 0 44.16-10.24 88.32-20.48 132.48-30.72 1.28-0.96 2.56-1.92 5.12-3.52zM112.32 474.88c-22.080-12.16-40.96-23.040-60.48-32.96-2.56-1.28-7.36-1.28-9.28 0.32-11.2 8.32-21.76 16.96-34.56 27.52 20.16 9.92 38.4 18.88 56.64 27.52 2.24 0.96 5.76 0.32 8.32-0.96 12.16-6.72 24.32-13.44 39.36-21.44z" />
<glyph unicode="&#xe910;" glyph-name="geo-alt" d="M778.624 387.84c-33.536-67.968-78.976-135.68-125.44-196.48-46.861-60.567-93.080-114.17-141.915-165.25l0.731 0.77c-48.104 50.31-94.323 103.913-137.709 159.824l-3.475 4.656c-46.464 60.8-91.904 128.512-125.44 196.48-33.92 68.672-53.376 132.992-53.376 188.16 0 176.731 143.269 320 320 320s320-143.269 320-320v0c0-55.168-19.52-119.488-53.376-188.16zM512-64s384 363.904 384 640c0 212.077-171.923 384-384 384s-384-171.923-384-384v0c0-276.096 384-640 384-640zM512 448c-70.692 0-128 57.308-128 128s57.308 128 128 128v0c70.692 0 128-57.308 128-128s-57.308-128-128-128v0zM512 384c106.039 0 192 85.961 192 192s-85.961 192-192 192v0c-106.039 0-192-85.961-192-192s85.961-192 192-192v0z" />
<glyph unicode="&#xe911;" glyph-name="geo-alt-fill" d="M512-64s384 363.904 384 640c0 212.077-171.923 384-384 384s-384-171.923-384-384v0c0-276.096 384-640 384-640zM512 384c-106.039 0-192 85.961-192 192s85.961 192 192 192v0c106.039 0 192-85.961 192-192s-85.961-192-192-192v0z" />
<glyph unicode="&#xe912;" glyph-name="globe" d="M857.6 546.88c-30.080 50.88-66.56 90.56-107.52 120.64-32.64-21.76-65.28-43.2-97.92-64.96-3.2-2.24-6.4-3.84-9.92-1.92-3.84 1.92-4.48 5.44-4.48 9.6-0.96 38.4-2.24 76.8-3.2 114.88-31.040 9.28-63.36 14.72-95.68 16.64-85.76 0-144.64-13.12-200.32-40.32-199.040-98.24-278.080-336.96-185.28-528 50.24-103.040 129.92-173.76 239.040-210.56 62.4-21.12 126.080-23.36 190.4-12.8 92.16 15.36 169.6 56.96 230.080 128.32 54.72 64.32 85.12 139.52 94.080 223.36 9.28 87.040-4.8 169.92-49.28 245.12zM509.12 239.68c-5.12-18.24-13.12-32.32-32.32-38.72-2.88-0.96-5.44-8.32-5.44-12.8 0.32-16.32-1.92-21.76-17.28-26.88-11.2-3.52-13.44-10.24-11.84-20.48 1.6-10.88 1.92-21.76-6.080-30.72-1.6-1.92-3.52-4.16-5.44-4.48-22.080-5.76-25.28-24.96-28.16-42.56-3.2-17.6 7.040-31.36 18.24-43.52 1.6-1.92 3.2-3.84 5.44-6.4-27.2-4.8-37.44 1.28-45.44 25.28-3.84 11.84-8 23.68-12.8 35.2-6.72 15.68-12.48 30.72-13.12 48.64-0.32 11.84-8.32 24-14.080 35.52-8 15.68-16 30.72-13.76 49.28 0.32 1.92-4.8 6.72-7.36 6.72-11.84 0-24 0.32-31.68 10.24-11.2 14.4-25.92 29.12-29.44 45.44-3.84 18.24 5.12 37.76 18.56 53.12 2.56 2.88 5.44 5.76 6.72 8.96 2.88 7.36-0.96 12.8-8.96 11.84-12.8-1.92-23.040 1.28-32 11.2-2.56 2.56-8.32 3.52-12.16 3.2-11.84-0.64-22.080 2.56-30.72 10.56-10.88 9.92-22.72 16.32-37.76 17.6-14.4 1.28-18.56 8.32-16 22.4 19.84 107.2 76.16 190.080 166.72 250.56 6.72 4.48 11.2 4.48 16.64-1.92 10.88-12.16 11.84-12.16 25.6-4.48 8.64 4.8 16.96 10.88 24.64 17.28 9.6 8 35.52 5.76 43.52-5.12 7.040-9.6 12.16-20.8 16.96-29.12-22.080-5.76-42.88-11.52-63.68-16.64-3.52-0.96-8 1.6-12.16 2.88-0.96 0.32-1.28 1.6-1.92 2.24-5.44 6.72-12.8 7.040-18.56 2.88-10.24-7.36-31.040 0.96-31.36-21.76 0-10.24-1.6-18.88 13.44-18.24 4.48 0.32 9.6-7.040 15.68-11.52 1.92 3.52 3.52 6.4 4.48 9.6 4.16 12.16 12.8 17.6 25.28 17.92 8.96 0 18.24-1.28 27.2 0 11.84 1.92 23.68 4.48 34.56 9.28 7.68 3.2 12.8 3.2 17.28-2.88 5.76-8.32 10.24-17.28 15.68-25.6 3.52-5.44 8.32-9.92 14.4-16.96-5.76-5.12-13.12-12.8-21.44-19.2-2.56-1.92-8-0.96-11.52 0-10.88 3.2-21.44 6.72-33.28 10.56 0-7.040 0-12.48 0-17.92 0-7.36-3.52-10.88-10.88-10.88-1.28 0-2.88 0-4.16 0-35.2 0.96-56-16-63.36-51.84-4.48-21.76-11.52-41.28-29.44-56-5.76-4.8-9.92-6.080-17.28-1.92-16.64 9.6-34.88 13.44-54.4 9.28-4.48-0.96-8.64-2.56-12.48-4.8-7.36-4.16-11.52-9.92-5.44-18.56 1.6-2.24 2.24-5.12 3.52-7.68 5.12-10.56 7.68-11.2 15.36-2.56 5.44 6.4 11.52 7.040 15.68 5.12 8-15.040 14.4-27.2 22.080-42.24 9.6 0 21.76-2.88 33.92 7.040 7.36 5.76 20.16 5.44 30.4 6.4 2.56 0.32 6.080-5.12 8-8.32 3.52-5.44 6.080-11.52 8.32-15.68 10.88 3.84 20.48 10.56 29.76 10.24 22.4-1.28 44.48-6.72 52.8-32.64 2.24-7.040 7.040-11.84 15.68-11.2 2.56 0.32 5.44-1.28 7.36-2.56 9.92-6.72 19.52-14.4 29.76-20.8 18.88-11.84 25.6-29.12 19.52-50.88zM775.040 610.88c-0.64-0.64-0.96-1.6-1.6-2.24-11.84 6.4-24.64 11.2-27.84 27.84 9.92-8.64 19.84-17.28 29.44-25.6zM676.8 541.44c9.6 20.8 31.040 24.32 47.36 8 0.96-0.96 1.92-1.6 4.48-3.84 0.32 7.040 0.64 12.16 0.96 17.6 0.64 16.96 6.4 23.36 23.36 24 11.84 0.32 24-0.32 31.68 12.8 23.36-24 41.6-49.92 56.96-78.080-1.28-0.96-2.56-2.24-3.52-3.2-5.12 6.4-10.56 12.48-15.68 18.88-4.16 5.12-8.32 5.12-13.12 0.32-4.16-4.48-7.36-8.64-1.6-13.76 7.040-6.4 14.4-13.12 23.68-22.080-11.2-5.44-19.52-10.24-28.16-13.44-6.080-1.92-14.4 10.56-16.96 19.52-2.88 11.84-7.68 23.040-11.84 34.56-20.16-13.76-37.12-27.2-56-37.12-8.96-4.8-22.72-5.12-32.64-2.24-9.6 3.52-13.76 27.52-8.96 38.080zM877.44 257.28c-12.16-52.8-35.52-100.8-68.8-143.68-1.6-2.24-3.52-4.16-5.44-6.080 1.28 26.56-16.64 45.12-26.24 66.88-3.52 7.68-3.84 12.8 2.88 18.24 2.56 1.92 4.8 4.16 7.040 6.4 14.080 13.44 13.12 13.44 5.76 30.72-3.84 9.6-3.84 20.8-6.4 31.36-0.96 4.48-2.24 10.24-5.12 12.16-20.16 12.8-41.92 16.96-64.32 5.76-42.56-21.44-80.32-1.92-86.4 45.76-1.6 13.12-1.92 26.24-1.6 39.68 0 4.8 3.2 10.56 6.72 14.4 5.44 5.76 8 11.52 7.36 19.52-0.64 7.36-0.64 14.72 0 21.76 0.96 15.040 9.92 21.76 24.96 23.36 12.16 0.96 24.64 3.84 35.84 8.96 17.6 8.32 35.52 4.48 53.12 4.48 2.88 0 5.44-3.84 8.32-5.76 10.56-6.72 20.8-13.44 31.68-19.52 1.92-0.96 6.080 0.96 8.64 2.24 11.52 7.040 22.72 14.72 34.24 21.44 2.56 1.28 6.72 0.96 9.6-0.32 7.040-2.88 14.080-6.080 20.48-9.92 2.24-1.28 3.84-4.48 4.48-7.36 16.96-59.84 17.28-120 3.2-180.48zM828.48 720.32c40.96 27.84 59.84 67.84 55.36 117.12-4.16 46.4-29.12 80-70.080 102.080-6.4 2.24-12.8 5.44-19.52 7.36-5.76 1.92-11.84 2.88-17.92 3.84-76.48 10.88-145.28-48-144.64-125.12 0.32-33.6 1.28-66.88 2.24-100.48 40.96-12.16 80-31.040 115.84-57.6 26.56 17.6 52.8 34.88 78.72 52.8zM702.4 854.72c16 30.72 54.4 42.88 85.12 26.88 31.040-16 43.2-54.4 27.2-85.12-16-31.040-54.72-43.2-85.44-27.2-31.040 16.32-42.88 54.72-26.88 85.44z" />
<glyph unicode="&#xe913;" glyph-name="honey-moon-packs" d="M667.52 804.16c17.6 13.12 36.16 22.4 58.56 18.56 0.32-0.96 0.96-1.92 0.64-2.56-29.44-44.48-36.16-94.72-37.76-146.56-0.64-17.92-0.64-35.84 0-53.76 0.32-7.68-2.24-11.84-8.96-15.68-17.28-9.28-34.88-18.56-51.2-29.12-6.4-4.16-12.48-11.2-15.040-17.92-8.32-22.72-13.76-45.44-3.2-70.080 8.96-20.48 2.56-41.92-4.8-65.6 18.88 12.48 31.36 26.56 34.56 45.76 6.4 36.8 26.56 64.32 55.040 86.4 8 6.080 9.92 12.8 9.92 22.4 0.64 49.28 0.96 98.88 4.16 147.84 2.24 34.24 13.44 66.88 36.48 93.76 25.28 29.44 57.28 41.92 95.040 31.040 37.12-10.88 60.48-35.84 65.92-74.88 1.28-9.92 0.32-19.84 0.32-30.72 2.24 0 5.44-0.32 8.64 0 38.4 4.48 72-13.12 89.92-48 17.6-34.24 12.48-74.56-13.44-102.4-24.64-26.56-56.32-39.040-91.2-45.12-52.8-9.28-106.24-7.36-159.68-5.44-13.44 0.64-23.36-3.2-32.64-12.16-19.52-18.56-36.16-37.76-40.96-66.24-5.12-30.4-27.2-51.2-51.52-68.48-7.36-5.12-9.92-10.56-9.6-19.52 0.64-17.6 0-34.88 0.32-52.48 0.32-11.2-5.76-15.68-15.68-16.64-60.16-6.4-117.76 51.52-111.040 111.68 1.28 10.24 6.4 14.72 16.32 14.72 27.2 0 54.080 0 82.56 0 7.36 13.44 10.88 29.76 5.12 45.12-10.88 30.080-8.64 59.2 3.2 88.32 3.84 9.28 1.6 16-2.88 24.32-22.080 40.64-44.8 80.96-64.32 122.88-12.48 27.2-15.68 57.28-6.080 87.040 10.56 33.6 34.24 52.16 68.16 56.96 33.6 4.48 62.72-11.52 79.36-41.92 1.6-3.84 3.2-7.36 5.76-11.52zM466.24 39.040c-105.6 0-211.2 0-317.12 0 14.080 88.64-63.040 154.88-140.48 139.52 0 38.080 0 75.84 0 113.92 80.96-14.4 153.6 53.44 140.8 139.84 105.6 0 211.2 0 316.8 0-13.44-84.16 56.96-154.24 139.84-139.52 0-37.76 0-75.52 0-113.6-41.28 6.080-77.12-4.16-106.56-33.92-28.8-29.44-39.36-64.96-33.28-106.24zM307.52 324.48c-12.16 8-24 21.12-38.4 24.96-46.72 13.44-86.080-20.48-83.52-69.12 1.28-25.6 12.16-47.68 28.16-66.24 27.2-31.040 56.64-60.48 85.12-90.56 7.040-7.36 13.44-4.16 19.2 1.6 24.96 25.6 51.52 49.92 74.56 77.12 14.080 16.96 25.28 37.76 33.28 58.56 9.92 24.96 6.4 50.24-13.44 70.72-17.6 18.24-40.32 26.56-64.32 17.92-15.36-4.8-28.16-16.96-40.64-24.96zM438.72 483.52c25.28-4.16 36.8-14.4 38.72-34.24-35.52 0-71.040 0-106.56 0 2.24 19.84 11.52 28.48 39.040 35.2 0 27.2 0.64 54.72-0.32 81.92-0.32 10.56-8.32 16.32-18.88 16.32-55.68 0.32-111.040 0.32-166.72 0-11.84 0-18.88-7.36-19.2-19.2-0.32-26.24 0-52.48 0-79.36 20.16-3.2 36.8-11.2 40.32-34.88-36.16 0-71.36 0-106.88 0-0.64 18.24 11.52 29.76 37.76 34.56 0.32 4.16 0.64 8.96 0.64 13.44 0 21.76-0.32 43.84 0.32 65.6 0.64 27.84 19.84 47.36 47.36 47.68 55.68 0.32 111.040 0.32 166.72 0 26.88-0.32 46.080-19.52 47.040-46.4 0.64-22.4 0-44.48 0.32-66.88-0.32-4.8 0.32-9.28 0.32-13.76zM83.2 38.4c-10.56 0-21.12-0.32-31.36 0-24 0.64-42.56 18.24-43.2 42.24-0.64 22.72 0 45.44-0.32 68.16 0 10.56 5.76 14.72 15.040 16 58.56 7.36 118.080-50.56 112.32-109.44-0.96-11.52-6.4-17.6-18.24-17.28-11.52 0.64-23.040 0.32-34.24 0.32zM85.12 432.64c10.56 0 21.12 0 31.36 0 14.080-0.32 18.56-4.16 18.56-19.2 0-42.56-18.24-75.84-56-94.72-15.68-8-34.88-9.92-52.8-12.16-13.44-1.6-17.92 4.48-18.24 17.92 0 21.12-0.32 41.92 0 63.040 0.32 27.2 18.24 44.8 45.44 45.44 10.88 0 21.44-0.32 31.68-0.32zM530.88 38.4c-11.2 0-22.72 0.32-33.92 0-10.24-0.32-15.040 4.48-16.64 14.4-8 59.84 53.12 120.64 112.96 112 8.64-1.28 13.44-5.76 13.44-14.72 0-24 0.64-48-0.32-72-0.96-22.080-19.2-38.72-41.6-39.68-11.2-0.32-22.4 0-33.92 0 0 0 0 0 0 0zM388.48 566.4c-6.4-17.92-18.88-25.6-35.52-25.92-30.080-0.32-60.16-0.32-90.24 0-18.24 0.32-28.8 8.32-34.56 25.92 53.12 0 105.92 0 160.32 0zM309.76 135.36c-36.16 36.16-73.28 65.92-95.36 107.84-6.72 12.8-11.2 27.84-12.8 42.24-2.56 22.4 13.12 42.88 33.6 48.96 24 7.040 44.48-0.64 57.28-22.080 15.040-24.64 15.68-24.64 30.080-0.64 13.12 21.76 32.64 29.44 57.28 22.72 20.48-5.44 34.88-25.6 34.56-48.64 0-21.12-7.68-40-20.8-55.68-26.56-31.68-55.040-62.4-83.84-94.72z" />
<glyph unicode="&#xe914;" glyph-name="hotels" d="M933.12 256.64c-281.28 0-560.96 0-842.56 0 0-26.56 0.32-51.52 0-76.16-0.64-26.88-20.16-44.16-46.72-41.28-17.92 1.92-32.96 16.64-35.2 34.56-0.64 4.8-0.64 9.92-0.64 15.040 0 172.8 0 345.92 0 518.72 0 8.96 0.64 18.56 4.16 26.56 7.36 17.92 24.96 25.92 45.12 22.72 16.96-2.88 30.72-17.6 32.64-35.84 0.64-4.8 0.32-9.92 0.32-15.040 0-100.16 0-200.32 0-300.16 0-5.44 0-10.56 0-16.32 308.8 0 615.68 0 923.84 0 0.32-2.24 0.96-4.8 0.96-7.36 0-66.56 0-132.8 0-199.36 0-18.24-8.32-31.68-24.96-39.040-15.040-6.72-29.44-4.48-42.24 5.76-11.2 8.96-15.36 20.8-15.36 34.88 0.64 24.32 0.64 48.32 0.64 72.32zM391.68 424.32c-0.64 1.28-1.6 2.56-1.28 3.84 0 53.12-0.96 106.56 0.96 159.68 1.6 37.76 32 66.24 69.44 71.040 5.76 0.64 11.84 1.28 17.6 1.28 122.88 0 245.76 0.64 368.64 0 73.92-0.32 127.040-34.88 155.84-103.040 8-19.2 10.24-41.28 11.84-62.4 1.92-23.040 0.32-46.080 0.32-70.080-208.32-0.32-416-0.32-623.36-0.32zM244.16 441.92c-56-0.32-101.12 44.16-101.12 99.52 0 55.040 44.16 99.84 99.2 100.48 56 0.32 101.12-43.2 101.76-99.2 0.64-55.68-43.84-100.48-99.84-100.8z" />
<glyph unicode="&#xe915;" glyph-name="instagram" d="M512 960c-138.944 0-156.416-0.64-211.008-3.072-54.592-2.56-91.776-11.136-124.352-23.808-35.506-13.538-65.767-33.638-90.647-59.030l-0.041-0.042c-25.434-24.921-45.534-55.182-58.496-88.978l-0.576-1.71c-12.672-32.512-21.312-69.76-23.808-124.16-2.432-54.72-3.072-72.128-3.072-211.264 0-139.008 0.64-156.416 3.072-211.008 2.56-54.528 11.136-91.712 23.808-124.288 13.12-33.664 30.592-62.208 59.072-90.688 28.416-28.48 56.96-46.016 90.624-59.072 32.64-12.672 69.76-21.312 124.288-23.808 54.656-2.432 72.064-3.072 211.136-3.072s156.416 0.64 211.072 3.072c54.464 2.56 91.776 11.136 124.352 23.808 35.481 13.546 65.72 33.645 90.582 59.029l0.042 0.043c28.48 28.48 45.952 57.024 59.072 90.688 12.608 32.576 21.248 69.76 23.808 124.288 2.432 54.592 3.072 72 3.072 211.072s-0.64 156.48-3.072 211.136c-2.56 54.464-11.2 91.712-23.808 124.224-13.538 35.506-33.638 65.767-59.030 90.647l-0.042 0.041c-24.921 25.434-55.182 45.534-88.978 58.496l-1.71 0.576c-32.64 12.672-69.888 21.312-124.352 23.808-54.656 2.432-72 3.072-211.136 3.072zM466.112 867.712h45.952c136.704 0 152.896-0.448 206.848-2.944 49.92-2.24 77.056-10.624 95.104-17.6 23.872-9.28 40.96-20.416 58.88-38.336s28.992-34.944 38.272-58.88c7.040-17.984 15.36-45.12 17.6-95.040 2.496-53.952 3.008-70.144 3.008-206.784s-0.512-152.896-3.008-206.848c-2.24-49.92-10.624-76.992-17.6-95.040-8.727-23.051-21.781-42.687-38.301-58.782l-0.035-0.034c-17.92-17.92-34.944-28.992-58.88-38.272-17.92-7.040-45.056-15.36-95.040-17.664-53.952-2.432-70.144-3.008-206.848-3.008s-152.96 0.576-206.912 3.008c-49.92 2.304-76.992 10.624-95.040 17.664-23.072 8.7-42.731 21.734-58.849 38.241l-0.031 0.031c-16.587 16.142-29.663 35.801-38.033 57.782l-0.367 1.098c-6.976 17.984-15.36 45.12-17.6 95.040-2.432 53.952-2.944 70.144-2.944 206.912s0.512 152.832 2.944 206.784c2.304 49.92 10.624 77.056 17.664 95.104 9.28 23.872 20.416 40.96 38.336 58.88s34.944 28.992 58.88 38.272c18.048 7.040 45.12 15.36 95.040 17.664 47.232 2.176 65.536 2.816 160.96 2.88zM785.344 782.72c-33.932 0-61.44-27.508-61.44-61.44s27.508-61.44 61.44-61.44v0c33.932 0 61.44 27.508 61.44 61.44s-27.508 61.44-61.44 61.44v0zM512.064 710.912c-1.22 0.020-2.66 0.032-4.102 0.032-145.238 0-262.976-117.738-262.976-262.976s117.738-262.976 262.976-262.976c1.443 0 2.882 0.012 4.319 0.035l-0.217-0.003c143.462 2.309 258.874 119.149 258.874 262.944s-115.411 260.634-258.657 262.941l-0.217 0.003zM512.064 618.688c94.268 0 170.688-76.42 170.688-170.688s-76.42-170.688-170.688-170.688v0c-94.268 0-170.688 76.42-170.688 170.688s76.42 170.688 170.688 170.688v0z" />
<glyph unicode="&#xe916;" glyph-name="key" d="M96 565.76c79.040 49.92 167.68 24 211.52-35.84 46.080-63.040 38.080-151.36-18.88-204.16s-144.32-54.72-203.84-5.44c-50.88 42.24-85.44 136.64-15.68 222.4-109.76 126.080-60.48 301.76 59.52 369.92 125.76 71.36 301.44 16 350.080-140.8 22.080 11.52 44.16 22.72 66.24 33.92 38.4 19.84 76.48 40 114.88 59.84 40 20.48 78.4 8 98.88-31.68 81.6-157.12 163.2-314.24 244.8-471.36 24-46.080 13.12-82.56-32.96-106.56-77.44-40.32-154.56-80.64-232.32-120.32-37.12-19.2-75.52-7.040-95.040 30.4-66.24 126.72-131.84 253.44-197.44 380.16-1.92 3.84-4.16 7.68-6.4 11.52-19.2-18.24-37.76-35.52-57.6-54.080 30.4-55.040 32-111.68-3.84-166.4-24.64-37.76-60.16-59.52-104.96-65.6 47.68 28.48 80 68.8 93.44 123.2 13.44 54.080 2.24 103.68-24.64 151.68 5.44-4.16 10.88-8.64 16.96-13.44 23.68 14.4 42.88 33.6 58.56 56.96 1.92 2.88 1.28 8.64-0.32 11.84-8 16.32-16.96 32.32-24.96 48.64-16.32 33.6-4.8 71.68 27.2 90.24 30.4 17.6 30.4 17.6 14.4 50.56-38.4 79.68-118.72 125.44-205.44 117.44s-158.080-68.8-179.2-155.84c-17.28-70.080 0-132.16 47.040-187.2zM229.44 488.64c-0.32 18.88-15.36 33.6-34.24 33.6-18.56 0-33.6-15.36-33.92-34.24 0-19.2 16.32-34.88 35.2-34.24 18.88 0.32 33.28 16 32.96 34.88zM486.4 704.32c-18.56-0.32-33.6-15.68-33.28-34.56s15.68-33.6 34.56-33.28c18.56 0.32 33.92 15.68 33.6 34.56-0.64 18.56-16 33.28-34.88 33.28zM90.88 269.76c33.6-8.32 65.6-16 99.2-24.32-2.56-10.56-5.44-23.68-8.64-36.8-14.4-60.48-28.48-121.28-43.52-181.44-2.24-8.32-8-16.96-14.72-22.72-15.68-13.76-32.64-25.92-49.28-38.72-16.32-12.48-26.88-7.68-33.6 11.84-10.88 31.36-5.76 61.44 2.24 92.8 16.32 62.72 30.4 126.080 45.76 189.44 0.64 3.84 1.92 8 2.56 9.92zM248.96 220.8c33.28 11.52 64.64 22.72 96.96 33.92 1.92-8.64 4.8-20.16 7.68-31.36 13.76-58.88 28.16-117.76 41.28-176.64 1.28-6.4 0-14.4-2.56-20.48-8.64-20.16-18.24-39.36-27.84-59.2-8.64-18.24-20.48-18.56-35.2-5.12-28.48 25.92-34.56 60.8-42.56 95.36-12.48 53.76-24.96 107.52-37.44 160.96-0.64 1.92-0.32 3.52-0.32 2.56z" />
<glyph unicode="&#xe917;" glyph-name="key-icon" d="M432.96 789.44c18.24 48 48.32 83.2 92.16 105.92 126.4 65.6 276.8-26.24 276.48-168.64 0-12.16 2.88-17.28 14.72-21.12 139.2-47.36 189.76-221.12 97.92-336.64-11.52-14.4-13.12-25.6-4.8-42.24 34.88-69.76 68.48-140.16 102.72-209.92 4.16-8.32 5.12-15.68 0.96-24.64-11.2-24.32-21.44-48.96-32.96-75.2-8.32 2.24-16.64 4.48-24.64 6.72-16.96 4.48-33.92 8.32-50.88 13.12-20.48 5.76-24.32 12.48-20.16 33.6 1.92 9.92 3.84 19.84 5.44 29.76 2.88 19.2-4.16 30.72-22.72 37.44-7.36 2.56-14.72 5.44-22.72 8.32 1.92 12.16 4.16 23.68 5.76 35.2 2.88 18.24-2.88 32.32-20.16 35.84-29.12 6.080-42.88 25.28-51.84 50.56-4.8 14.080-14.4 18.56-29.44 18.56-111.36-1.92-202.88 75.84-218.88 188.48-14.080 100.16 43.52 203.2 154.56 235.52 25.28 7.36 52.48 8 80 11.84 14.72 56-41.6 136.32-112.64 154.24-88 22.4-162.56-32.64-182.4-96 22.4-6.080 44.48-13.44 66.88-18.24 19.2-3.84 32.64-13.12 42.24-30.080 4.8-8.32 10.56-16.32 16.64-25.6-33.28-25.6-60.16-56.96-79.040-96.96-23.040 19.2-38.4 41.28-47.68 68.16 1.6 0.96 2.56 1.6 3.2 1.6 15.36-2.24 23.68 1.92 26.24 12.48 2.56 11.2-3.52 18.56-19.52 22.72-27.2 7.040-54.080 14.080-81.6 20.48-6.080 1.28-14.4 0.64-19.84-2.24-4.16-2.56-8-10.88-6.72-15.36 1.6-5.76 7.040-12.48 12.48-14.72 11.2-4.48 23.68-5.76 35.2-9.92 4.8-1.6 9.92-6.72 11.2-11.52 11.2-40.32 32-73.92 64.64-99.84 6.72-5.12 7.68-9.92 6.080-17.6-21.76-95.68 2.88-177.6 72.64-246.080 5.44-5.12 7.040-9.6 4.8-16.96-26.24-94.4-51.84-189.12-77.44-283.84-9.28-33.92-24.64-42.56-58.24-33.28-129.92 35.84-260.16 71.040-390.080 106.56-5.76 1.6-11.84 3.2-17.6 5.12-20.16 6.72-29.76 24-24 44.48 16.96 63.36 34.24 126.72 51.52 190.080 35.84 130.56 71.68 260.8 107.2 391.36 3.52 12.8 10.56 21.76 22.4 27.52 42.56 20.16 85.12 41.6 128.64 61.44 8.96 4.16 21.44 3.84 31.68 1.6 27.2-6.080 53.76-14.4 81.6-22.080zM744.96 650.56c-24.64 20.48-74.56 19.52-104-13.44-28.16-31.36-27.84-79.040 0.96-110.080 29.44-31.68 77.12-35.52 110.72-8.96 32.32 25.6 41.28 72.32 19.52 105.28-5.44-6.72-10.56-14.080-16.64-20.16s-8.32-12.16-8-20.8c0.64-26.24-21.76-46.4-47.68-44.48s-44.8 24.96-41.6 50.88c3.2 25.28 26.88 43.84 51.84 37.44 14.4-3.52 21.12 1.6 27.2 12.16 2.56 4.16 5.12 8.32 7.68 12.16zM860.48 324.16c-18.88-0.64-26.24-13.76-19.2-28.16 34.56-71.68 69.44-143.36 104.32-215.040 5.44-11.52 15.36-14.72 24.64-10.24 10.24 5.12 12.8 14.4 7.040 26.56-8.96 18.56-17.92 37.12-26.88 55.68-25.6 52.48-50.88 104.64-76.8 156.8-2.88 6.72-9.92 11.52-13.12 14.4zM88.64 153.92c1.92 7.68 3.52 14.080 5.44 20.48 4.8 17.6 9.92 35.52 14.080 53.44 2.56 10.88-0.96 19.84-12.48 22.4-11.2 2.56-18.88-2.56-22.080-13.76-8-29.44-16.32-58.88-24-88.64-3.2-12.8 0.96-19.84 13.44-24 9.92-3.2 20.16-5.76 30.4-8.32 24.64-6.72 48.96-13.44 73.6-19.84 10.56-2.56 19.52 0.96 22.4 12.48 2.56 11.2-2.56 18.56-13.44 21.76-3.84 0.96-7.36 2.56-11.2 3.52-24.96 6.72-49.92 13.44-76.16 20.48z" />
<glyph unicode="&#xe918;" glyph-name="linkedin" d="M0 886.656c0 40.512 33.664 73.344 75.2 73.344h873.6c41.536 0 75.2-32.832 75.2-73.344v-877.312c0-40.512-33.664-73.344-75.2-73.344h-873.6c-41.536 0-75.2 32.832-75.2 73.344zM316.352 102.784v462.4h-153.664v-462.4zM239.552 628.352c53.568 0 86.912 35.456 86.912 79.872-0.96 45.376-33.28 79.872-85.888 79.872s-86.976-34.56-86.976-79.872c0-44.416 33.344-79.872 84.928-79.872zM553.664 102.784v258.24c0 13.824 1.024 27.648 5.12 37.504 11.072 27.584 36.352 56.192 78.848 56.192 55.616 0 77.824-42.368 77.824-104.576v-247.36h153.664v265.216c0 142.080-75.776 208.128-176.896 208.128-81.536 0-118.080-44.8-138.56-76.352v-1.6h-1.024l1.024 1.6v65.408h-153.6c1.92-43.392 0-462.4 0-462.4z" />
<glyph unicode="&#xe919;" glyph-name="parachute" d="M508.8 121.6c-10.56-10.88-20.48-20.8-29.44-31.36-2.56-2.88-3.52-7.68-3.84-11.84-1.92-33.28-3.2-66.56-4.8-99.52-0.96-21.12-14.080-34.88-32.96-34.88-18.24 0.32-31.68 13.76-32.64 34.24-1.92 39.36-3.52 78.72-5.76 118.080-0.64 14.080 2.56 26.24 13.12 35.52 20.16 17.92 26.24 40 24.32 66.56-1.92 26.24-0.96 52.48-0.32 78.72 0.32 8.96-2.88 13.44-10.88 16.64-15.36 6.4-30.080 13.76-45.44 20.48-11.2 5.12-17.6 13.76-20.16 25.6-7.36 32.32-15.68 64.64-22.72 96.96-1.92 8.64-0.96 18.24-1.92 27.2-0.32 4.16-1.92 8.32-4.16 11.52-37.44 50.56-74.88 101.44-112.64 151.68-2.88 3.84-9.6 7.040-14.72 7.36-16.64 1.6-30.4 8.32-40 21.76-30.4 42.88-60.8 85.44-90.24 128.96-18.24 26.24-18.24 57.92 0.32 80.64 7.68 9.6 19.52 17.92 31.36 21.76 77.12 25.92 156.48 43.2 237.44 53.44 95.36 12.16 191.040 13.76 286.72 5.76 97.6-8.32 192.32-28.8 286.080-56.64 43.52-13.12 62.4-64.96 36.8-103.68-22.4-33.92-46.4-66.88-69.76-100.16-7.68-11.2-15.68-22.080-24-32.96-9.92-12.48-23.040-17.92-38.72-18.88-4.48-0.32-9.92-2.88-12.8-6.4-38.4-50.88-76.16-102.4-114.24-153.6-1.6-2.24-4.16-5.44-3.84-8 3.84-35.2-10.88-66.88-18.24-99.84-10.88-49.6-1.6-42.88-55.040-64.96-21.12-8.64-30.080-19.2-27.84-42.88 2.56-30.72 0.32-62.080 0.96-93.12 0.32-7.040 2.88-16 8-20.8 19.2-18.56 24.96-40 22.4-66.56-3.52-32.64-2.88-65.6-4.8-98.24-1.28-27.52-23.36-43.2-46.4-33.28-13.44 5.76-19.52 16.64-20.16 31.040-1.28 31.36-2.88 63.040-3.52 94.4-0.32 10.56-3.2 18.24-11.2 24.96-7.68 7.040-14.72 15.040-24.32 24.32zM315.2 663.36c15.68-58.24 31.040-114.56 46.72-170.88 1.28-4.16 4.16-9.28 7.68-10.88 11.52-5.44 16.96-14.4 20.16-25.92 8-26.88 16.64-53.44 25.28-80 1.28-3.84 5.12-8.32 8.64-9.92 25.28-11.52 51.2-19.52 79.68-16.64 15.040 1.6 31.040-1.92 45.76 0.96 18.88 3.52 37.44 11.2 55.68 17.6 2.24 0.96 3.84 5.44 4.8 8.64 8.64 26.56 16.96 53.12 25.28 80 3.2 10.88 8.64 19.52 19.52 24.64 3.52 1.6 6.72 6.4 8 10.56 5.76 19.2 10.88 38.72 16 57.92 10.24 37.44 20.16 74.88 30.72 113.28-131.52 27.84-261.76 27.52-393.92 0.64zM230.72 641.92c37.12-50.24 72.96-98.24 108.48-146.56 0.64 0.32 1.28 0.96 2.24 1.28-14.72 54.080-29.44 107.84-44.48 163.2-22.4-6.080-43.2-11.84-66.24-17.92zM793.92 641.92c-23.36 6.4-44.16 11.84-66.24 17.92-15.040-55.68-29.76-109.12-44.16-162.88 0.64-0.32 1.6-0.64 2.24-0.96 35.52 47.68 71.040 95.68 108.16 145.92zM573.12 423.68c0.32-34.88-26.88-62.080-61.12-61.76-33.92 0.32-60.48 27.2-60.48 61.12 0 34.24 26.56 61.12 60.48 61.12 33.92 0.32 60.8-26.24 61.12-60.48z" />
<glyph unicode="&#xe91a;" glyph-name="passport" d="M764.16 826.88c13.76 0 25.28 0 37.12 0 53.76-0.64 88.64-35.52 88.96-89.28 0.32-136.64 0-273.28 0-409.6 0-96.64 0-192.96 0-289.6 0-60.16-33.92-94.080-93.76-94.080-189.76 0-379.84 0-569.6 0-58.88 0-93.44 33.92-93.44 92.48 0 232.32 0 464.96 0 697.28 0 51.84 25.92 79.68 75.84 92.48 99.2 25.28 197.44 53.44 296 80.64 48.64 13.44 97.28 27.2 145.92 40.64 64.32 17.6 112.64-19.2 112.96-86.4 0.32-10.56 0-21.12 0-34.56zM512.96 239.040c127.36 0.64 231.040 104.32 230.4 231.040-0.64 127.68-105.6 231.36-233.28 230.4-125.76-0.96-228.8-104.32-229.44-230.4-0.64-127.36 104.32-231.68 232.32-231.040zM501.76 196.16c-61.12 0-121.92 0-183.040 0-26.88 0-37.44-6.080-37.44-21.12 0-14.72 11.2-21.12 37.76-21.12 121.92 0 244.16 0 366.080 0 5.76 0 13.44-1.6 17.28 1.28 7.36 5.44 17.6 14.4 17.28 21.12-0.32 7.040-11.84 14.080-19.52 19.52-3.52 2.56-10.24 0.64-15.36 0.64-60.8-0.32-121.92-0.32-183.040-0.32zM384.64 829.76c0-0.64 0.32-1.28 0.32-1.92 111.68 0 223.36 0 336.64 0 0 12.8 0.32 24.32 0 36.16-0.64 35.84-22.72 52.48-57.28 43.2-26.56-7.040-53.12-14.4-79.68-21.76-66.56-18.56-133.44-37.12-200-55.68zM500.16 70.4c36.8 0 73.6 0 110.4 0 15.040 0 26.88 5.12 26.88 21.44 0 15.68-12.16 20.48-25.92 20.48-72.96 0-145.92 0.32-218.56 0-14.4 0-27.2-4.16-26.56-21.76 0.64-17.28 13.12-20.48 27.84-20.48 34.88 0.32 70.4 0.32 105.92 0.32zM501.76 196.16c61.12 0 121.92 0 183.040 0 5.12 0 11.84 1.92 15.36-0.64 7.68-5.12 19.2-12.48 19.52-19.52 0.32-6.72-9.92-15.36-17.28-21.12-3.84-2.88-11.52-1.28-17.28-1.28-121.92 0-244.16 0-366.080 0-26.56 0-37.76 6.4-37.76 21.12 0 15.040 10.56 21.12 37.44 21.12 61.12 0.32 121.92 0.32 183.040 0.32zM449.92 447.68c41.92 0 81.6 0 123.84 0-3.52-54.080-8.96-107.2-40.96-152.96-13.76-19.52-28.16-18.88-42.24 0.96-24.64 34.24-31.68 74.24-37.44 114.56-1.92 11.52-2.24 23.36-3.2 37.44zM573.76 492.16c-41.28 0-81.28 0-123.84 0 3.52 52.16 8.96 103.040 38.080 147.84 16.32 24.96 31.36 24.64 48-0.32 22.72-34.24 29.76-73.6 35.2-113.28 1.28-10.88 1.6-21.76 2.56-34.24zM402.88 490.88c-18.56 0-39.36 0-60.16 0-5.12 0-10.24 0.64-15.040 1.28-0.64 58.24 51.52 128.64 106.88 147.84-10.24-48.32-20.8-97.6-31.68-149.12zM696.96 490.88c-24.32 0-47.040-0.64-69.76 0.64-4.16 0.32-10.56 7.040-11.52 11.52-8.64 45.76-16.64 91.84-24.32 136 45.12-10.88 104-83.2 105.6-148.16zM437.12 298.56c-57.6 19.2-110.72 91.52-109.44 149.12 25.92 0 51.84 0 78.4 0 3.84-25.92 6.080-51.2 11.2-76.16 5.12-24 12.8-47.36 19.84-72.96zM617.92 447.68c27.2 0 52.48 0 78.080 0 3.52-55.36-49.6-128.32-108.8-149.44 6.72 24.96 14.4 48.64 19.52 72.96 5.12 24.64 7.36 50.24 11.2 76.48z" />
<glyph unicode="&#xe91b;" glyph-name="person-circle" d="M704 576c0-106.039-85.961-192-192-192s-192 85.961-192 192v0c0 106.039 85.961 192 192 192s192-85.961 192-192v0zM0 448c0 282.77 229.23 512 512 512s512-229.23 512-512v0c0-282.77-229.23-512-512-512s-512 229.23-512 512v0zM512 896c-247.414-0.014-447.976-200.585-447.976-448 0-106.199 36.952-203.768 98.7-280.549l-0.676 0.869c45.44 73.216 145.472 151.68 349.952 151.68s304.448-78.4 349.952-151.68c61.072 75.912 98.024 173.481 98.024 279.68 0 247.415-200.563 447.986-447.974 448h-0.002z" />
<glyph unicode="&#xe91c;" glyph-name="plate-with-spoon" d="M546.56 139.2c-172.8 0.32-312.64 140.48-312.32 313.6 0 171.84 140.8 312 312.64 312 173.44-0.32 313.6-140.48 313.28-314.24-0.64-171.84-141.44-311.68-313.6-311.36zM790.080 451.2c0.64 133.12-108.16 242.88-241.28 243.84-134.4 0.96-244.48-107.2-245.44-240.96-0.96-134.4 107.52-244.48 240.96-245.12 135.36-0.96 245.12 107.52 245.76 242.24zM42.88 521.6c12.48 0 22.4 0 34.56 0 0 5.44 0 10.56 0 15.36 0 71.36 0 142.72 0 214.080 0 3.84 0 7.68 0 11.52 0.64 11.2 6.080 18.88 17.6 18.56s16.96-8 16.96-19.2c0-4.8 0-9.6 0-14.4 0-74.88 0-149.44 0-225.28 11.52 0 22.080 0 34.56 0 0 5.12 0 10.24 0 15.36 0 72 0 143.68 0 215.68 0 4.48-1.6 9.92 0.64 12.8 4.48 6.080 10.24 13.44 16.32 15.040 9.6 2.24 16-5.44 17.6-15.040 0.96-3.84 0.64-7.68 0.64-11.84 0-87.68-0.32-175.68 0.32-263.36 0-24.64-7.68-44.16-28.16-58.24-17.6-12.16-23.040-29.76-21.76-50.56 3.84-66.56 7.040-132.8 10.56-199.36 0.64-9.6 1.28-19.2 1.28-28.8-0.32-27.84-21.44-49.28-48-49.6-25.92-0.32-49.6 21.44-49.6 48.32 0 25.92 1.92 52.16 3.2 78.080 2.56 49.6 5.12 99.2 8.32 148.8 1.6 23.68-6.080 42.24-25.6 56.32-16.96 12.16-24.32 29.44-24.32 50.24 0 90.56 0 181.44 0 272 0 15.36 6.080 23.68 17.28 23.68 11.52 0.32 17.6-8.32 17.6-24.64 0-72.96 0-145.6 0-218.56 0-5.12 0-10.56 0-16.96zM932.16 451.2c24 0 45.76 0 69.12 0 1.92-39.040 4.16-77.12 6.080-115.52 2.88-54.4 5.44-108.8 8-163.2 0.32-8.96 1.28-18.56-0.32-27.2-4.48-25.92-27.84-43.2-53.12-40.64-26.24 2.88-45.76 24-44.48 51.2 2.88 73.28 7.040 146.24 10.56 219.2 0.96 25.28 2.56 50.24 4.16 76.16zM1001.6 486.72c-22.4 0-42.88-0.32-63.68 0.32-2.88 0-7.36 4.48-8 7.68-12.16 48-25.92 95.68-34.88 144.32-11.52 62.080 24 126.080 78.72 150.080 14.72 6.4 27.52 0 27.52-15.68 0.32-94.72 0.32-189.76 0.32-286.72zM547.2 660.16c115.52 0 208.64-94.080 208.32-209.6-0.32-114.56-94.080-207.68-208.96-207.36-115.2 0-208.64 94.080-208.32 209.6 0.32 114.56 94.080 207.68 208.96 207.36z" />
<glyph unicode="&#xe91d;" glyph-name="plus" d="M512 704c17.673 0 32-14.327 32-32v0-192h192c17.673 0 32-14.327 32-32s-14.327-32-32-32v0h-192v-192c0-17.673-14.327-32-32-32s-32 14.327-32 32v0 192h-192c-17.673 0-32 14.327-32 32s14.327 32 32 32v0h192v192c0 17.673 14.327 32 32 32v0z" />
<glyph unicode="&#xe91e;" glyph-name="search" d="M751.488 297.984c50.265 67.948 80.455 153.397 80.455 245.897 0 229.75-186.25 416-416 416s-416-186.25-416-416c0-229.75 186.25-416 416-416 92.605 0 178.143 30.259 247.265 81.429l-1.128-0.798h-0.064q2.816-3.84 6.272-7.36l246.4-246.4c11.586-11.594 27.595-18.765 45.28-18.765 35.353 0 64.013 28.66 64.013 64.013 0 17.669-7.158 33.665-18.733 45.248l-246.4 246.4c-2.242 2.271-4.644 4.369-7.194 6.281l-0.166 0.119zM768 544c0-194.404-157.596-352-352-352s-352 157.596-352 352v0c0 194.404 157.596 352 352 352s352-157.596 352-352v0z" />
<glyph unicode="&#xe91f;" glyph-name="ship" d="M8 278.72c0 31.040-0.32 59.2 0.32 87.36 0 3.84 6.080 9.28 10.24 11.2 66.56 30.4 133.12 61.44 200.64 90.56 99.52 42.56 201.6 78.080 305.28 108.16 107.84 31.040 216.64 56.64 328.64 67.52 47.040 4.48 94.72 5.44 142.080 8 6.080 0.32 11.84-0.64 20.48-0.96-10.56-20.48-19.84-39.36-29.76-57.6-46.4-89.28-92.8-178.56-139.84-267.52-2.88-5.76-9.92-11.52-16-13.12-74.88-20.8-150.72-22.080-227.52-13.12-71.36 8.32-140.16 28.16-209.92 44.48-82.56 19.2-164.8 16.96-246.4-5.44-42.24-12.16-82.24-29.76-120-52.8-4.8-2.88-10.88-4.16-18.24-6.72zM401.92 438.72c0 14.4-12.16 26.88-26.24 27.2-14.72 0.32-27.52-12.8-27.2-27.84 0.32-14.72 12.48-26.56 27.2-26.24 14.4 0.32 26.24 12.16 26.24 26.88zM543.68 466.24c15.36 0 26.56 11.84 26.24 26.88s-11.84 26.56-26.88 26.56c-15.040-0.32-26.56-12.16-26.56-27.2 0.32-14.72 12.16-26.24 27.2-26.24zM457.92 492.48c-14.72 0.32-27.2-11.52-27.52-26.24s11.52-26.88 26.56-27.2c15.040-0.32 26.88 10.88 27.2 26.24s-10.88 27.2-26.24 27.2zM716.16 652.8c-156.16-27.52-306.24-73.6-452.8-137.28-8 26.24-15.68 51.84-24.32 80 30.72 9.92 60.48 19.84 90.24 29.44 3.84 1.28 7.68 1.6 11.52 3.2 9.6 3.84 16 10.56 12.48 21.44-3.2 10.56-11.84 14.080-22.080 10.88-30.72-9.6-61.12-19.52-91.52-29.44-2.88-0.96-5.76-2.24-9.6-3.52-3.2 8.96-6.4 17.28-8.96 24.64-24.32 0-47.68 0-71.040 0-0.32 1.6-0.64 3.52-0.96 5.44 31.68 10.24 62.72 22.080 94.72 30.080 74.88 18.88 151.040 24.64 227.84 17.92 29.12-2.56 57.6-10.88 86.4-16.96 49.92-10.88 99.52-22.080 149.12-32.96 3.2-0.64 5.76-1.92 8.96-2.88zM940.16 334.080c-26.88-28.48-59.2-49.28-94.72-64.96-83.52-37.44-171.52-45.76-262.080-39.040-64.64 4.8-125.44 25.6-187.52 41.92-123.2 32-245.12 29.12-365.44-16-5.76-2.24-11.2-4.16-17.6-5.12 27.52 22.080 58.56 38.080 90.88 51.2 77.44 31.36 158.4 40.64 240.64 29.12 38.72-5.12 76.48-16 114.24-25.6 83.2-20.48 166.72-35.2 252.8-32.32 78.080 2.56 152 20.16 221.12 57.6 2.88 1.28 5.12 1.92 7.68 3.2zM16.64 205.44c35.52 24.96 71.040 40.32 109.44 49.28 60.16 14.080 120.32 11.84 179.84-4.48 66.24-17.92 133.12-31.36 202.56-30.72 24.64 0.32 49.28-6.4 74.88-13.44-20.16-4.8-40-11.2-60.48-14.080-68.8-9.92-136.32-2.56-202.88 17.92-73.92 23.040-149.44 32-226.24 16-24.96-5.12-49.28-13.12-77.12-20.48zM303.36 270.72c42.56-9.28 85.12-18.24 127.68-27.52-0.32-1.92-0.96-4.16-1.28-6.080-42.56 8.96-85.12 18.24-127.36 27.2 0 2.24 0.32 4.48 0.96 6.4z" />
<glyph unicode="&#xe920;" glyph-name="star-fill" d="M231.168-28.352c-24.704-12.672-52.736 9.536-47.744 37.888l53.12 302.72-225.472 214.784c-21.056 20.096-10.112 56.832 18.112 60.8l313.472 44.544 139.776 276.928c12.608 24.96 46.72 24.96 59.328 0l139.776-276.928 313.472-44.544c28.224-3.968 39.168-40.704 18.048-60.8l-225.408-214.784 53.12-302.72c4.992-28.352-23.040-50.56-47.744-37.888l-281.024 144.384-280.896-144.384z" />
<glyph unicode="&#xe921;" glyph-name="suitcase" d="M758.4 2.56c0-8.64 0.32-17.28 0-25.92-0.32-19.52-13.12-32.96-30.4-32.64-16.64 0.32-28.8 13.44-29.44 32.32-0.32 8.32 0 16.64 0 25.6-124.48 0-248 0-373.12 0 0-7.36 0-14.72 0-22.080 0-21.76-11.52-35.84-29.76-35.84-17.92-0.32-30.080 13.76-30.4 35.52 0 7.68 0 15.68 0 23.040-6.4 2.56-11.84 4.16-16.96 6.4-26.24 12.16-41.28 32.32-41.28 61.44-0.32 190.72-0.32 381.44 0 571.84 0 37.76 29.76 67.84 67.2 67.84 158.4 0.32 316.48 0.32 474.88 0 37.12 0 66.88-29.76 67.2-66.88 0.32-191.040 0.32-382.080 0-573.12 0-29.76-15.68-49.92-42.56-62.080-4.48-1.92-9.6-3.2-15.36-5.44zM383.68 357.44c0 80 0.32 160-0.32 240 0 8.64-3.84 18.88-9.28 25.92-7.040 8.96-18.56 11.2-29.76 6.080-12.48-5.44-18.88-14.72-18.56-28.8 0-67.2 0-134.72 0-201.92 0-94.080 0-187.84 0.32-281.92 0-7.36 1.6-16 5.44-22.4 6.080-10.88 20.16-15.040 32.32-11.2 12.48 3.84 20.16 14.72 20.48 30.080-0.64 81.6-0.64 162.88-0.64 244.16zM698.56 356.16c0 81.28 0 162.56 0 243.84 0 18.88-12.48 31.68-29.44 31.36-16.32-0.32-28.48-13.12-28.48-31.040 0-162.56 0-325.12 0.32-488 0-6.72 2.88-14.72 7.040-20.16 8-10.56 19.52-12.48 32-8.64 12.16 3.84 18.88 14.72 18.88 30.080-0.32 80.96-0.32 161.92-0.32 242.56zM640 770.24c-20.48 0-39.68 0-59.52 0 0 33.28 0 65.6 0 97.92 0 19.84-4.48 24.64-24.96 24.64-29.76 0-59.52 0-89.28 0-17.6 0-22.72-5.12-22.72-22.72 0-32.64 0-65.6 0-99.52-20.16 0-39.36 0-59.2 0 0 38.4-2.56 76.48 0.64 113.92 3.52 40.64 36.48 66.88 77.44 67.2 33.28 0.32 66.56 0.32 99.52 0 41.6-0.32 74.56-29.12 77.44-70.4 2.56-36.48 0.64-73.28 0.64-111.040z" />
<glyph unicode="&#xe922;" glyph-name="telephone" d="M233.856 875.008c-8.014 10.24-20.375 16.76-34.258 16.76-11.992 0-22.848-4.865-30.701-12.728l-66.176-66.24c-30.912-30.976-42.304-74.816-28.8-113.28 59.36-165.517 150.428-306.846 266.732-422.892l0.020-0.020c116.066-116.324 257.395-207.392 415.062-264.278l7.85-2.474c38.464-13.504 82.304-2.112 113.28 28.8l66.176 66.176c7.864 7.854 12.728 18.71 12.728 30.702 0 13.883-6.52 26.244-16.665 34.186l-0.095 0.072-147.648 114.816c-7.277 5.671-16.551 9.093-26.623 9.093-3.728 0-7.346-0.469-10.799-1.35l0.301 0.065-140.16-35.008c-8.101-2.096-17.401-3.299-26.982-3.299-30.864 0-58.811 12.484-79.069 32.678l-157.181 157.245c-20.221 20.26-32.726 48.229-32.726 79.118 0 9.562 1.198 18.845 3.453 27.705l-0.167-0.775 35.072 140.16c0.816 3.152 1.285 6.77 1.285 10.497 0 10.072-3.422 19.345-9.166 26.72l0.073-0.097zM120.576 927.296c20.211 20.218 48.136 32.723 78.982 32.723 35.74 0 67.559-16.789 88.001-42.91l0.185-0.245 114.816-147.584c21.056-27.072 28.48-62.336 20.16-95.616l-35.008-140.16c-0.81-3.14-1.275-6.745-1.275-10.458 0-11.978 4.839-22.826 12.669-30.695l157.246-157.246c7.869-7.836 18.722-12.68 30.706-12.68 3.732 0 7.354 0.47 10.811 1.353l-0.301-0.065 140.096 35.008c8.111 2.101 17.423 3.307 27.016 3.307 25.959 0 49.856-8.832 68.849-23.654l-0.249 0.187 147.584-114.816c53.056-41.28 57.92-119.68 10.432-167.104l-66.176-66.176c-47.36-47.36-118.144-68.16-184.128-44.928-175.631 62.789-325.586 159.389-448.606 282.846l-0.034 0.034c-123.485 123.038-220.083 272.971-280.273 440.277l-2.607 8.299c-23.168 65.92-2.368 136.768 44.992 184.128z" />
<glyph unicode="&#xe923;" glyph-name="telephone-fill" d="M120.64 927.296c20.204 20.175 48.1 32.651 78.91 32.651 35.708 0 67.502-16.758 87.946-42.839l0.184-0.243 114.88-147.584c21.056-27.072 28.48-62.336 20.16-95.616l-35.008-140.16c-0.81-3.14-1.275-6.745-1.275-10.458 0-11.978 4.839-22.826 12.669-30.695l157.246-157.246c7.869-7.836 18.722-12.68 30.706-12.68 3.732 0 7.354 0.47 10.811 1.353l-0.301-0.065 140.096 35.008c8.111 2.101 17.423 3.307 27.016 3.307 25.959 0 49.856-8.832 68.849-23.654l-0.249 0.187 147.584-114.816c53.056-41.28 57.92-119.68 10.432-167.104l-66.176-66.176c-47.36-47.36-118.144-68.16-184.128-44.928-175.631 62.789-325.586 159.389-448.606 282.846l-0.034 0.034c-123.485 123.038-220.083 272.971-280.273 440.277l-2.607 8.299c-23.168 65.92-2.368 136.768 44.992 184.128z" />
<glyph unicode="&#xe924;" glyph-name="tent" d="M512 787.52c14.080 25.28 26.24 48.32 39.040 70.72 11.52 20.48 32 27.2 50.56 16.96 17.6-9.6 23.36-30.72 12.8-50.56-18.24-34.56-36.8-68.48-56-102.72-4.16-7.68-3.84-12.8 0-20.48 109.76-200.64 219.2-401.6 328.64-602.56 4.16-8 8.96-11.52 18.56-11.2 23.040 0.64 46.080 0.32 69.12 0.32 24.64 0 41.28-14.4 41.6-35.52s-16.32-36.48-40.64-36.48c-309.12 0-617.92 0-927.040 0-24.32 0-40.96 15.36-40.32 36.48 0.32 20.8 16.32 35.2 40 35.52 23.36 0.32 47.040 0.32 70.4 0 8.64-0.32 13.44 2.24 17.6 9.92 105.6 193.92 210.56 387.84 317.44 581.12 13.44 24.32 15.36 42.56-0.32 65.6-16.96 25.6-30.4 53.76-44.8 81.28-8.32 16-5.76 31.36 5.44 42.88s27.2 15.040 41.28 6.72c7.040-3.84 13.12-10.88 17.28-17.6 13.44-22.080 25.6-45.12 39.36-70.4zM406.4 88.96c70.72 0 141.76 0 213.76 0 0 5.44 0 9.92 0 14.4 0 45.44 1.28 90.88-0.64 136.32-2.56 54.4-47.36 96.96-101.12 100.16-54.080 2.88-105.28-33.6-110.72-88.32-5.44-53.44-1.28-107.52-1.28-162.56z" />
<glyph unicode="&#xe925;" glyph-name="toptop" d="M509.76-28.8c-7.68 52.16-16.64 104-23.36 156.16-12.16 98.24-25.28 196.8-34.24 295.36-10.88 120.96-17.92 242.24-1.28 363.2 5.12 35.84 16.64 71.040 27.84 105.6 4.8 15.36 14.080 33.92 33.28 33.28 17.6-0.64 25.6-18.56 32.32-32.96 22.080-46.72 28.48-96.96 32.32-147.52 9.92-127.36 2.88-254.4-11.2-381.12-14.4-129.6-33.6-258.56-50.88-387.84-0.32-1.6-1.28-2.88-1.92-4.16-0.96 0-1.92 0-2.88 0zM548.48 837.12c-5.12 22.080-11.84 24.96-46.72 24-15.36-0.64-24.96-6.72-27.84-24 25.28 0 49.28 0 74.56 0zM582.4 400.96c3.52 56.64 7.040 112 10.88 169.6 17.6-8 33.92-15.68 51.84-24 0 7.36-0.32 12.8 0 18.24 0.64 11.52 7.36 17.6 18.88 17.6s18.24-5.44 19.52-16.96c0-0.64 0.32-0.96 0-1.6-7.68-31.040 10.56-42.88 35.52-53.12 38.080-16 74.88-34.88 114.24-53.76 0.64 7.68 1.28 13.44 1.6 19.2 0.64 11.84 6.72 17.92 18.24 17.92 12.16 0 21.44-6.4 18.88-18.56-7.36-32.96 11.2-45.12 37.76-55.36 26.88-10.56 52.8-24.64 79.040-37.12s30.4-20.48 25.92-52.48c-25.92 4.8-51.52 9.6-77.44 14.72-92.48 18.24-184.96 36.48-277.44 54.080-9.92 1.92-20.48 1.92-30.4 1.92-15.040-0.32-30.080-0.32-47.040-0.32zM190.080 456.32c50.24 24 97.6 46.4 144.32 69.44 3.2 1.6 5.76 7.36 6.080 11.52 0.96 8.64 0 17.28 0 25.92 0 12.16 5.76 19.52 18.24 19.84 13.44 0.32 19.84-6.72 20.16-19.84 0-4.8 0-9.28 0-16 17.92 8.32 33.6 15.68 50.88 23.68 3.84-57.6 7.36-112.96 10.88-167.36-2.24-1.6-2.56-2.24-2.88-2.24-76.16 5.76-148.16-17.92-221.76-31.040-64.32-11.52-128-24.96-192-37.44-5.12-0.96-10.24-1.6-15.36-2.24-3.2 33.28 0 39.68 26.88 52.48 33.6 16 66.88 32.64 100.8 48 12.16 5.44 17.28 12.8 15.36 25.92-0.96 6.4-0.64 12.8-0.64 19.52 0.32 11.84 7.040 17.92 18.24 18.24s18.56-4.8 19.2-16.96c0.64-6.72 0.96-12.48 1.6-21.44zM668.48-22.4c-48 9.28-91.52 17.6-136.96 25.92 2.56 18.24 5.12 35.84 8 56 38.080-17.28 74.56-32.64 109.44-50.88 8.32-4.16 11.84-17.92 19.52-31.040zM483.84 59.52c2.88-19.52 5.44-36.8 8.32-55.68-44.48-8.64-88.64-16.96-134.72-25.92 6.72 17.92 12.8 31.68 30.72 38.72 31.68 12.48 62.4 27.84 95.68 42.88z" />
<glyph unicode="&#xe926;" glyph-name="travel" d="M584.64 381.44c1.6-36.16 2.88-71.36 4.48-106.88 0.96-20.48 3.52-40.96 3.2-61.44 0-10.56-2.56-21.76-7.040-31.36-31.36-68.8-63.040-137.28-95.040-205.76-13.12-28.16-41.6-39.040-67.2-26.56-24.96 12.16-33.6 40.32-20.48 68.48 29.12 62.72 58.24 125.12 87.040 187.84 2.88 6.4 4.48 14.4 4.16 21.44-2.24 53.44-6.080 106.56-7.36 160-0.64 28.16 2.88 56.64 4.8 85.12 1.6 26.56 3.2 53.12 5.44 80 1.28 15.040 6.4 28.48 19.2 38.72 13.76 10.88 26.88 22.4 39.040 36.16-3.2-1.28-6.080-2.56-9.28-4.16-16.64-8.96-32.64-18.56-49.92-26.24-9.6-4.48-14.72-11.2-18.24-20.48-16.64-40.32-33.28-80.64-50.24-120.96-6.4-15.040-16.64-25.6-33.6-27.52-16-1.6-29.44 3.52-38.72 16.96-8.32 12.16-8.96 25.6-3.52 38.72 20.8 50.88 41.92 101.76 64 152.32 3.84 8.64 13.44 16 22.080 21.12 26.88 15.36 54.4 29.44 80.96 45.76-3.2-0.32-6.4-0.96-9.92-1.6-0.32 1.28-0.96 2.56-0.96 3.84 5.76 27.84 30.4 48.32 59.52 47.040 37.44-1.6 75.2-4.16 112.64-7.68 31.68-2.88 54.080-30.080 52.16-63.040-0.64-12.48 2.24-21.76 10.88-30.4s16.96-17.6 24-27.84c11.84-16.96 27.84-24.32 47.68-28.48 30.4-6.4 60.16-14.72 90.24-22.72 24-6.4 35.52-27.2 29.76-50.24-5.44-20.48-27.2-33.28-49.6-27.84-42.88 10.56-85.76 20.8-128.32 32.96-11.52 3.2-21.76 11.84-33.28 18.24-0.32-2.56-0.96-6.4-1.28-10.56-3.2-50.24-6.72-100.48-9.6-150.72-0.32-8 0.64-16.64 3.2-24.32 8.96-28.16 17.92-56.64 28.48-84.48 11.2-28.8 13.12-58.56 15.68-88.64 5.12-62.4 10.88-124.48 16.32-186.88 1.92-22.4-8.32-41.28-26.56-49.92-17.92-8.96-38.72-6.080-53.76 7.040-10.24 9.28-15.040 20.8-16.32 34.56-6.4 74.56-11.2 149.12-20.8 223.36-4.16 31.36-18.24 61.76-28.16 92.48-6.4 19.52-13.12 39.040-19.52 58.24-5.44 17.6-5.12 17.6-26.24 16.32zM292.16 284.16c9.92 22.080 19.2 42.24 28.48 62.4s18.88 40.32 28.16 60.16c12.48-4.48 24-8.64 37.12-13.44-12.48-27.52-25.28-55.36-38.080-83.2-3.52-7.68-6.72-15.040-10.56-22.4-5.76-11.2-10.24-20.8 0.32-33.6 4.8-5.76 4.8-20.16 1.28-28.16-37.12-82.56-74.88-164.48-112.96-246.4-8.32-17.92-24.96-24-43.84-16.96-4.8 1.92-8.96 3.52-13.44 5.44-13.12-22.72-26.56-29.12-42.24-19.84-13.76 8-16.32 23.040-6.080 41.92-2.88 1.6-5.76 3.2-8.64 4.8-22.4 10.56-29.44 28.16-18.88 50.56 26.88 58.24 53.76 116.48 80.64 174.72 9.6 20.48 19.2 41.28 28.48 61.76 11.2 24.32 27.52 30.72 52.16 19.84 12.16-5.44 24.32-11.2 38.080-17.6zM642.88 775.040c-48.96 0.32-88.32 40-88.32 88.64 0 49.28 40.32 88.96 89.6 88.32 48.64-0.64 88-40.96 87.68-89.28-0.32-48.96-40.32-88.32-88.96-87.68z" />
<glyph unicode="&#xe927;" glyph-name="twitter-x" d="M806.4 912h157.056l-343.040-393.088 403.584-534.912h-315.968l-247.488 324.48-283.2-324.48h-157.12l366.912 420.48-387.136 507.52h324.032l223.68-296.512 258.752 296.512zM751.36 78.208h87.040l-561.728 744.512h-93.312z" />
<glyph unicode="&#xe928;" glyph-name="umbrella" d="M524.48 487.040c9.6-23.68 7.36-41.6-2.56-61.44-59.2-119.68-117.12-240.32-175.68-360.64-2.24-4.48-3.84-8.96-6.72-16 19.84 1.6 37.44 3.2 55.040 4.48 181.44 14.4 360-1.6 536-46.72 22.080-5.76 44.48-10.88 66.56-16.96 15.040-4.16 20.48-12.8 17.92-27.84-2.24-13.76-11.52-17.28-24-17.28-319.68 0-639.36 0-959.040 0-12.48 0-21.76 3.52-24 16.96-2.24 14.72 3.2 23.68 18.88 26.88 81.92 17.28 163.84 34.56 246.080 50.88 11.52 2.24 18.24 5.76 23.36 16.64 48.96 101.76 98.24 202.88 147.52 304.32 15.68 32.32 30.080 65.28 47.68 96.64 7.36 11.84 21.44 19.52 32.96 30.080zM793.28 466.24c-69.76 33.92-137.28 66.88-206.4 100.16 44.16 91.52 87.68 182.080 132.16 274.24 27.2-17.92 44.8-42.24 58.24-69.76 18.24-37.76 26.56-78.080 30.080-119.68 4.8-61.76-0.96-122.56-14.080-184.96zM686.4 855.36c-43.84-90.88-87.36-181.12-131.84-272.96-68.48 32.96-136.64 65.6-206.4 99.52 8.64 10.24 16.32 19.2 24 27.84 51.52 56 108.16 104.64 179.2 134.4 40.32 16.64 81.6 25.92 125.44 14.72 2.88-0.96 5.44-1.92 9.6-3.52zM816.64 779.2c128.96-109.76 194.56-248 199.36-418.88-11.52 5.12-21.44 9.28-30.72 13.76-48.96 23.68-97.92 47.36-146.88 70.72-8.32 3.84-11.52 7.36-9.6 17.92 15.36 75.2 22.72 151.36 9.6 227.52-4.8 29.44-14.080 57.92-21.76 88.96zM315.2 697.6c-63.040 30.4-124.8 60.16-189.12 91.2 136.32 103.040 285.44 137.6 450.88 104.32-109.44-35.2-189.44-108.8-261.76-195.52zM329.92 650.56c69.44-33.6 137.92-66.56 206.080-99.84-19.2-48-90.24-72.64-143.36-50.56-58.56 24-88 92.8-62.72 150.4zM573.12 533.76c69.44-33.6 137.92-66.88 206.4-100.16-13.76-38.080-79.68-76.8-143.68-49.28-59.52 25.6-89.28 95.68-62.72 149.44zM1008.32 322.56c-30.4-57.6-96.96-77.76-150.72-46.72-49.6 28.48-70.080 95.040-41.92 140.48 64-31.040 127.68-62.4 192.64-93.76zM101.44 760.64c65.6-31.68 129.6-62.4 194.56-93.76-19.52-36.8-48.64-57.28-88.32-60.48-44.16-3.52-79.040 14.72-101.76 52.8-19.2 32-19.52 65.6-4.48 101.44zM737.28 873.92c-13.12 5.76-24.32 10.88-36.48 16.32 8.32 17.28 15.36 34.24 24 50.24 5.12 9.6 14.4 13.76 25.28 8.64 11.52-5.12 14.72-14.72 10.24-25.92-6.72-16-14.72-32-23.040-49.28z" />
<glyph unicode="&#xe929;" glyph-name="van" d="M681.28 734.72c65.92-7.040 105.6-38.72 112.64-89.92-41.92 0-83.84 0-125.76 0-30.72 0-40.32-9.92-40.32-40.96 0-58.88 0-118.080 0-176.96 0-26.56 10.56-37.44 37.12-37.44 71.36 0 142.72-1.6 213.76 0.32 78.4 2.24 140.8-58.56 137.28-136.96-1.28-32 0-63.68-0.32-95.68 0-23.36-14.4-35.52-39.36-32.64-4.8 50.88-26.56 93.12-68.48 124.16-31.36 23.36-66.56 33.28-105.6 32.32-81.92-2.24-136.64-54.72-161.6-157.44-17.92 0-36.16 0-54.080 0-18.24 0-36.8 0-56.32 0-5.76 54.080-28.8 97.92-73.6 128.64-30.080 20.8-63.68 30.080-100.16 28.48-42.88-1.6-79.68-17.92-110.4-47.68s-46.4-66.88-50.56-108.8c-24.96-2.56-39.68 9.6-39.68 32.96 0 162.24-0.32 324.16 0 486.4 0 39.68 23.040 71.040 60.16 85.44 3.84 1.6 6.080 7.68 8.96 11.52 0.32 0.64 0 1.6 0 2.56 0 8.64 2.56 19.2-1.28 25.6-3.84 5.76-14.72 7.040-22.4 10.56-33.6 15.040-52.8 40.96-55.040 77.76-1.28 18.56 10.24 32.64 27.2 33.92 15.36 1.28 29.12-11.2 31.36-28.8 2.88-21.12 13.44-30.72 34.88-30.72 142.080 0 284.16 0 426.24 0 21.44 0 32 9.6 34.88 30.72 2.24 17.6 16 30.080 31.36 28.8 16.96-1.6 28.16-15.36 27.52-33.92-1.28-37.76-28.48-72.32-65.28-80.96-10.88-2.56-14.4-6.72-13.44-17.28 0.96-7.68 0.32-15.68 0.32-24zM391.68 389.12c37.44 0 75.2 0 112.64 0 24.32 0 34.88 10.88 34.88 35.52 0 61.44 0 123.2 0 184.64 0 24.32-10.88 35.52-35.2 35.52-74.88 0-149.44 0-224.32 0-24.96 0-35.84-10.88-35.84-36.16 0-61.12 0-122.24 0-183.36 0-25.28 10.56-35.84 35.84-35.84 37.44-0.32 74.56-0.32 112-0.32zM284.16 734.72c47.040 0 92.48 0 137.6 0 0 13.12 0 24.96 0 37.44-46.4 0-91.84 0-137.6 0 0-13.12 0-24.96 0-37.44zM620.8 734.080c0 13.44 0 25.92 0 38.080-46.4 0-91.52 0-137.28 0 0-12.8 0-25.28 0-38.080 46.080 0 91.52 0 137.28 0zM917.12 113.6c0-59.52-49.28-108.8-108.48-108.48-59.52 0.32-108.16 49.6-107.84 109.12 0.32 58.88 48.96 107.52 107.84 107.84 59.52 0.32 108.48-48.96 108.48-108.48zM470.080 112.96c-0.32-59.84-49.28-108.8-108.8-108.16-59.84 0.64-107.52 49.6-106.88 109.76 0.32 59.2 48.96 107.52 108.16 107.52 59.52 0 107.84-48.96 107.52-109.12zM96.32 575.36c0-98.24 0-195.84 0-293.44-48.64-9.6-88 22.4-88.32 71.040-0.32 48 0 96 0 144 0 54.72 32 83.52 88.32 78.4zM844.16 448.32c-52.48 0-103.68 0-155.84 0 0 44.8 0 89.6 0 136 2.88 0.32 6.4 1.28 9.92 1.28 33.6 0 67.2 0 101.12 0.32 6.72 0 11.2-0.96 13.12-8.96 10.24-42.24 20.8-84.48 31.68-128.64zM304 584.96c19.84 0 38.4 0 57.6 0 0-45.44 0-90.24 0-136-18.88 0-37.76 0-57.6 0 0 44.8 0 89.92 0 136zM422.080 584.96c19.84 0 38.4 0 57.6 0 0-45.44 0-90.56 0-136.32-19.2 0-38.080 0-57.6 0 0 45.44 0 90.24 0 136.32z" />
<glyph unicode="&#xe92a;" glyph-name="watch" d="M779.84 769.28c6.72 6.080 12.8 11.52 19.2 17.6-30.080 29.44-59.2 58.24-87.68 86.080 27.2 26.56 52.48 51.52 79.040 77.76 92.8-54.72 174.080-125.44 225.6-224.96-25.92-25.92-51.2-50.88-77.12-76.8-28.16 29.12-56.96 58.56-85.76 88-8.32-8-14.4-14.080-20.48-19.84 185.28-219.52 123.52-523.84-67.2-672.32-187.84-146.24-458.56-129.6-624 40.96-168.32 173.12-178.24 443.84-24.96 627.52 154.56 185.28 449.6 234.56 663.36 56zM721.28 680.32c-66.56 59.84-142.4 88.96-230.4 94.080 0-32.96 0-63.68 0-94.4-8.96 0-16 0-24.96 0 0 26.24 0 51.2 0 76.48 0 17.92-1.28 18.88-19.52 17.28-46.4-4.48-90.88-16.32-132.8-37.76-27.52-14.4-53.12-31.36-77.76-55.36 23.36-22.4 45.76-43.84 66.88-63.68-6.72-8.32-12.16-15.040-18.56-23.040-19.52 19.84-37.76 38.4-56 57.28-8 8-14.080 9.28-22.4-0.64-30.080-35.52-52.48-75.2-66.88-119.36-9.6-30.080-16.32-60.48-16.64-94.72 31.68 0 63.040 0 94.080 0 0-11.84 0-21.12 0-32-32 0-62.72 0-93.76 0 0-4.16-0.32-7.040 0-9.6 5.76-76.48 33.6-144 83.2-202.56 10.56-12.48 13.12-12.48 24.64-0.64 17.92 18.24 36.16 36.48 53.76 54.4 7.68-7.040 13.76-12.48 23.040-20.8-23.68-22.72-46.080-44.16-69.12-66.24 64.64-58.24 140.48-87.040 228.48-92.16 0 32.64 0 63.68 0 94.72 9.28 0 16.64 0 25.28 0 0-31.36 0-61.76 0-94.72 88.32 2.88 163.52 33.92 230.72 93.12-23.68 22.4-46.080 43.84-68.48 65.28 7.040 7.68 12.8 14.080 20.16 22.080 19.2-19.52 37.44-38.4 55.68-57.28 8-8.32 14.4-8.64 22.4 0.96 31.36 37.12 55.36 79.040 68.48 125.76 8 27.84 11.52 56.96 17.92 88.32-35.2 0-66.24 0-97.28 0 0 11.52 0 21.12 0 31.68 32 0 62.72 0 93.44 0 0.32 2.88 0.64 4.16 0.64 5.44-5.12 79.36-33.92 149.44-85.76 209.6-7.040 8-13.12 7.68-20.48 0-18.24-19.2-37.12-38.080-55.36-56.96-7.68 7.36-13.44 12.8-19.84 19.2 21.76 21.76 43.84 43.52 67.2 66.24zM620.16 552.32c-9.28-27.52-16.64-52.16-26.24-75.84-14.4-36.48-29.12-72.96-45.76-108.48-16-33.92-51.52-51.84-86.080-46.4-37.12 5.76-65.92 32.96-72.32 68.16-6.72 36.8 8.96 73.6 44.16 89.6 47.68 21.76 96.96 40 145.6 59.2 11.84 5.12 24.32 8.64 40.64 13.76z" />
<glyph unicode="&#xe92b;" glyph-name="youtube" d="M515.264 832.064h5.696c52.608-0.192 319.168-2.112 391.040-21.44 44.276-12.301 78.412-46.543 90.348-89.977l0.212-0.903c6.464-24.32 11.008-56.512 14.080-89.728l0.64-6.656 1.408-16.64 0.512-6.656c4.16-58.496 4.672-113.28 4.736-125.248v-4.8c-0.064-12.416-0.64-70.912-5.248-131.84l-0.512-6.72-0.576-6.656c-3.2-36.608-7.936-72.96-15.040-99.712-12.148-44.336-46.284-78.578-89.655-90.665l-0.905-0.215c-74.24-19.968-356.416-21.376-395.52-21.44h-9.088c-19.776 0-101.568 0.384-187.328 3.328l-10.88 0.384-5.568 0.256-21.888 0.896c-71.040 3.136-138.688 8.192-169.856 16.64-44.262 12.29-78.392 46.506-90.348 89.913l-0.212 0.903c-7.104 26.688-11.84 63.104-15.040 99.712l-0.512 6.72-0.512 6.656c-2.995 38.331-4.895 83.74-5.243 129.517l-0.005 0.787v7.872c0.128 13.76 0.64 61.312 4.096 113.792l0.448 6.592 0.192 3.328 0.512 6.656 1.408 16.64 0.64 6.656c3.072 33.216 7.616 65.472 14.080 89.728 12.148 44.336 46.284 78.578 89.655 90.665l0.905 0.215c31.168 8.32 98.816 13.44 169.856 16.64l10.88 0.448 16.512 0.576 10.944 0.448c53.316 1.841 117.317 3.024 181.54 3.26l1.244 0.004zM409.6 626.624v-308.352l266.048 154.112z" />
</font>
</defs>
</svg>
