<?xml version="1.0" encoding="utf-8"?>
<!-- Generator: Adobe Illustrator 24.3.0, SVG Export Plug-In . SVG Version: 6.00 Build 0)  -->
<svg version="1.1" id="Layer_1" xmlns="http://www.w3.org/2000/svg" xmlns:xlink="http://www.w3.org/1999/xlink" x="0px" y="0px"
	 viewBox="0 0 500 500" style="enable-background:new 0 0 500 500;" xml:space="preserve">
<style type="text/css">
	.st0{fill:#012039;}
</style>
<g>
	<g>
		<g>
			<rect x="420.36" y="-425.12" class="st0" width="2.5" height="19.13"/>
			<rect x="1191.11" y="-366.31" class="st0" width="42.61" height="177.39"/>
			<rect x="812.62" y="-321.66" class="st0" width="30.82" height="10.09"/>
			<rect x="1129.71" y="-425.12" class="st0" width="2.49" height="19.13"/>
			<path class="st0" d="M534.09-210.46c-72.6,0-131.65-59.06-131.65-131.65c0-72.6,59.06-131.66,131.65-131.66
				c72.59,0,131.65,59.06,131.65,131.66C665.74-269.51,606.68-210.46,534.09-210.46z M534.09-470.98
				c-71.06,0-128.87,57.81-128.87,128.87c0,71.06,57.81,128.86,128.87,128.86s128.87-57.81,128.87-128.86
				C662.96-413.17,605.15-470.98,534.09-470.98z"/>
			<path class="st0" d="M534.09-237.7c-57.57,0-104.41-46.84-104.41-104.41c0-57.57,46.84-104.41,104.41-104.41
				c57.57,0,104.41,46.84,104.41,104.41C638.5-284.54,591.66-237.7,534.09-237.7z M534.09-443.9
				c-56.12,0-101.78,45.66-101.78,101.78c0,56.12,45.66,101.78,101.78,101.78c56.12,0,101.78-45.66,101.78-101.78
				C635.87-398.24,590.21-443.9,534.09-443.9z"/>
			<path class="st0" d="M429.83-340.72h208.09c-0.09-0.93-0.09-1.86-0.01-2.79H429.96C430-342.58,429.96-341.64,429.83-340.72z"/>
			<path class="st0" d="M403.08-343.51h-8.31c-0.77,0-1.39,0.63-1.39,1.4c0,0.77,0.62,1.39,1.39,1.39h8.44
				C403.09-341.64,403.04-342.58,403.08-343.51z"/>
			<path class="st0" d="M673.4-343.51h-9.08c0.08,0.93,0.08,1.86-0.01,2.79h9.09c0.77,0,1.4-0.62,1.4-1.39
				C674.8-342.88,674.18-343.51,673.4-343.51z"/>
			<path class="st0" d="M394.77-338.97c-1.74,0-3.14-1.4-3.14-3.14c0-1.74,1.41-3.14,3.14-3.14s3.14,1.4,3.14,3.14
				C397.92-340.37,396.51-338.97,394.77-338.97z"/>
			<path class="st0" d="M673.4-338.97c1.74,0,3.15-1.4,3.15-3.14c0-1.74-1.41-3.14-3.15-3.14c-1.73,0-3.14,1.4-3.14,3.14
				C670.26-340.37,671.67-338.97,673.4-338.97z"/>
			<path class="st0" d="M534.09-472.57c0.48,0,0.94,0.03,1.39,0.07v-8.93c0-0.77-0.62-1.39-1.39-1.39c-0.77,0-1.39,0.62-1.39,1.39
				v8.93C533.15-472.54,533.61-472.57,534.09-472.57z"/>
			<path class="st0" d="M534.79-238.86l0.7,0.03v-206.36c-0.45,0.04-0.92,0.07-1.39,0.07c-0.48,0-0.94-0.03-1.39-0.07v206.48
				C533.37-238.8,534.06-238.86,534.79-238.86z"/>
			<path class="st0" d="M534.79-211.42c-0.73,0-1.42-0.06-2.09-0.15v8.77c0,0.77,0.62,1.39,1.39,1.39c0.77,0,1.39-0.62,1.39-1.39
				v-8.65L534.79-211.42z"/>
			<path class="st0" d="M530.95-481.43c0-1.73,1.41-3.14,3.14-3.14s3.14,1.41,3.14,3.14c0,1.74-1.41,3.14-3.14,3.14
				S530.95-479.69,530.95-481.43z"/>
			<path class="st0" d="M530.95-202.8c0,1.74,1.41,3.15,3.14,3.15s3.14-1.41,3.14-3.15c0-1.73-1.41-3.14-3.14-3.14
				S530.95-204.53,530.95-202.8z"/>
			<path class="st0" d="M608.08-270.09L462.09-416.08c-0.55,0.74-1.18,1.43-1.92,2.02l145.81,145.82
				C606.63-268.93,607.32-269.55,608.08-270.09z"/>
			<path class="st0" d="M633.59-244.59l-6.33-6.32c-0.52,0.77-1.14,1.48-1.81,2.13l6.17,6.16c0.27,0.27,0.63,0.41,0.99,0.41
				c0.36,0,0.71-0.14,0.98-0.41C634.13-243.16,634.13-244.04,633.59-244.59z"/>
			<path class="st0" d="M443.38-434.8l-6.81-6.82c-0.54-0.54-1.43-0.54-1.97,0c-0.55,0.55-0.55,1.43,0,1.97l6.91,6.92
				C442.05-433.49,442.66-434.18,443.38-434.8z"/>
			<path class="st0" d="M433.36-438.4c-1.23-1.23-1.23-3.22,0-4.45c1.23-1.23,3.22-1.23,4.45,0c1.23,1.23,1.23,3.22,0,4.45
				C436.57-437.17,434.58-437.17,433.36-438.4z"/>
			<path class="st0" d="M630.38-241.38c1.23,1.23,3.22,1.23,4.45,0c1.23-1.23,1.23-3.21,0-4.44c-1.23-1.23-3.22-1.23-4.45,0
				C629.15-244.6,629.15-242.61,630.38-241.38z"/>
			<path class="st0" d="M462.74-268.8l145.19-145.19c-0.69-0.65-1.28-1.36-1.8-2.14L460.76-270.75
				C461.5-270.17,462.16-269.51,462.74-268.8z"/>
			<path class="st0" d="M441.6-251.6l-7.01,7.01c-0.55,0.55-0.55,1.42,0,1.97c0.27,0.27,0.63,0.41,0.98,0.41
				c0.36,0,0.71-0.14,0.99-0.41l6.8-6.8C442.69-250.08,442.11-250.81,441.6-251.6z"/>
			<path class="st0" d="M633.59-441.61c-0.54-0.54-1.42-0.54-1.97,0l-6.28,6.28c0.73,0.59,1.38,1.26,1.95,1.99l6.29-6.3
				C634.13-440.19,634.13-441.07,633.59-441.61z"/>
			<path class="st0" d="M630.38-442.85c1.23-1.23,3.22-1.23,4.45,0c1.23,1.23,1.23,3.22,0,4.45c-1.23,1.23-3.22,1.23-4.45,0
				C629.15-439.63,629.15-441.62,630.38-442.85z"/>
			<path class="st0" d="M433.36-245.82c-1.23,1.23-1.23,3.21,0,4.44c1.23,1.23,3.22,1.23,4.45,0c1.23-1.23,1.23-3.21,0-4.44
				C436.57-247.05,434.58-247.05,433.36-245.82z"/>
			<path class="st0" d="M408.58-373.29l-9.73-2.3c-0.76-0.18-1.5,0.28-1.68,1.03c-0.17,0.75,0.29,1.5,1.04,1.68l9.85,2.33
				C408.15-371.48,408.32-372.4,408.58-373.29z"/>
			<path class="st0" d="M434.4-367.17c-0.1,0.92-0.3,1.84-0.57,2.73l200.74,47.57c0.15-0.92,0.39-1.82,0.71-2.7L434.4-367.17z"/>
			<path class="st0" d="M669.97-311.34l-9.1-2.15c-0.05,0.93-0.17,1.86-0.39,2.77l8.84,2.09l0.32,0.04c0.63,0,1.2-0.44,1.36-1.07
				C671.19-310.41,670.72-311.17,669.97-311.34z"/>
			<path class="st0" d="M397.8-371.18c-1.69-0.4-2.73-2.1-2.33-3.79c0.4-1.69,2.1-2.73,3.79-2.33c1.69,0.4,2.73,2.09,2.33,3.78
				C401.18-371.83,399.49-370.78,397.8-371.18z"/>
			<path class="st0" d="M668.93-306.93c1.69,0.4,3.38-0.64,3.79-2.33c0.4-1.69-0.65-3.38-2.34-3.78c-1.68-0.4-3.38,0.64-3.78,2.33
				C666.19-309.02,667.24-307.33,668.93-306.93z"/>
			<path class="st0" d="M565.54-468.79l2.03-8.57c0.18-0.75-0.29-1.5-1.04-1.68c-0.76-0.18-1.5,0.29-1.68,1.03l-2,8.45
				C563.81-469.38,564.71-469.12,565.54-468.79z"/>
			<path class="st0" d="M511.67-241.45l47.61-200.94c-0.98-0.06-1.9-0.2-2.76-0.42l-47.55,200.65
				C509.93-242,510.83-241.76,511.67-241.45z"/>
			<path class="st0" d="M502.64-215.43l-2.03,8.56c-0.17,0.75,0.29,1.49,1.04,1.67l0.32,0.04c0.63,0,1.2-0.43,1.35-1.07l2.07-8.73
				C504.41-215.03,503.5-215.19,502.64-215.43z"/>
			<path class="st0" d="M563.16-478.4c0.4-1.69,2.09-2.73,3.78-2.33c1.69,0.4,2.73,2.09,2.34,3.78c-0.4,1.69-2.1,2.73-3.79,2.33
				C563.8-475.02,562.75-476.71,563.16-478.4z"/>
			<path class="st0" d="M498.91-207.27c-0.4,1.69,0.65,3.38,2.34,3.78c1.69,0.4,3.38-0.64,3.78-2.33c0.4-1.69-0.65-3.39-2.33-3.79
				C501-210.01,499.31-208.97,498.91-207.27z"/>
			<path class="st0" d="M466.88-453.73l-4.74-7.68c-0.4-0.66-1.27-0.86-1.92-0.46c-0.65,0.4-0.86,1.26-0.46,1.92l4.79,7.76
				C465.24-452.79,466.02-453.3,466.88-453.73z"/>
			<path class="st0" d="M608.42-224.28l-4.54-7.37c-0.68,0.61-1.45,1.15-2.3,1.6l4.47,7.24c0.26,0.42,0.72,0.66,1.18,0.66l0.74-0.21
				C608.62-222.76,608.82-223.62,608.42-224.28z"/>
			<path class="st0" d="M589.54-254.87L481.32-430.32c-0.72,0.56-1.51,1.04-2.39,1.44L587.11-253.5
				C587.85-254.04,588.66-254.5,589.54-254.87z"/>
			<path class="st0" d="M458.28-459.04c-0.91-1.48-0.46-3.41,1.02-4.32c1.47-0.91,3.41-0.45,4.32,1.02
				c0.91,1.48,0.46,3.41-1.02,4.32C461.12-457.1,459.18-457.56,458.28-459.04z"/>
			<path class="st0" d="M604.55-221.89c0.91,1.47,2.85,1.93,4.33,1.02c1.48-0.91,1.94-2.84,1.03-4.32
				c-0.92-1.48-2.85-1.94-4.32-1.03C604.11-225.3,603.64-223.37,604.55-221.89z"/>
			<path class="st0" d="M653.85-415.99c-0.41-0.66-1.26-0.85-1.92-0.46l-6.99,4.31c0.48,0.8,0.88,1.66,1.18,2.54l7.26-4.48
				C654.05-414.47,654.25-415.33,653.85-415.99z"/>
			<path class="st0" d="M447.24-286.91l176.14-108.65c-0.57-0.73-1.06-1.53-1.47-2.37L445.75-289.26
				C446.33-288.53,446.83-287.74,447.24-286.91z"/>
			<path class="st0" d="M423.05-275.25l-8.26,5.09c-0.65,0.41-0.86,1.27-0.45,1.92c0.26,0.43,0.72,0.66,1.18,0.66l0.74-0.21
				l7.95-4.9C423.73-273.5,423.35-274.36,423.05-275.25z"/>
			<path class="st0" d="M651.01-417.93c1.48-0.91,3.41-0.45,4.32,1.03c0.91,1.48,0.45,3.41-1.02,4.33
				c-1.48,0.91-3.41,0.45-4.32-1.02C649.08-415.08,649.54-417.02,651.01-417.93z"/>
			<path class="st0" d="M413.87-271.65c-1.48,0.91-1.93,2.85-1.03,4.32c0.92,1.48,2.85,1.94,4.33,1.02
				c1.48-0.91,1.94-2.85,1.03-4.33C417.28-272.1,415.34-272.56,413.87-271.65z"/>
			<path class="st0" d="M656.46-275.51l-8.03-4.47c-0.26,0.9-0.61,1.77-1.04,2.6l7.72,4.3l0.68,0.17c0.48,0,0.96-0.26,1.22-0.71
				C657.38-274.29,657.13-275.14,656.46-275.51z"/>
			<path class="st0" d="M625.18-292.94L445.11-393.3c-0.47,0.8-0.98,1.58-1.47,2.37L623.8-290.53
				C624.17-291.38,624.64-292.19,625.18-292.94z"/>
			<path class="st0" d="M421.07-406.69l-8-4.46c-0.67-0.37-1.52-0.14-1.89,0.54c-0.37,0.67-0.13,1.52,0.54,1.9l7.66,4.27
				C419.93-405.2,420.48-405.97,421.07-406.69z"/>
			<path class="st0" d="M410.87-407.18c-1.51-0.85-2.06-2.76-1.22-4.28c0.85-1.52,2.76-2.06,4.27-1.22
				c1.52,0.85,2.07,2.76,1.22,4.27C414.29-406.89,412.38-406.34,410.87-407.18z"/>
			<path class="st0" d="M654.25-271.55c1.52,0.85,3.43,0.3,4.28-1.22c0.85-1.51,0.3-3.43-1.22-4.27c-1.52-0.85-3.43-0.3-4.27,1.21
				C652.19-274.31,652.74-272.4,654.25-271.55z"/>
			<path class="st0" d="M598.78-455.33l4.35-7.8c0.37-0.67,0.13-1.52-0.54-1.89c-0.67-0.37-1.52-0.14-1.9,0.54l-4.32,7.75
				C597.22-456.35,598.03-455.87,598.78-455.33z"/>
			<path class="st0" d="M484.72-250.66L585.5-431.5c-0.87-0.35-1.69-0.78-2.47-1.29L482.37-252.16
				C483.23-251.75,484.01-251.24,484.72-250.66z"/>
			<path class="st0" d="M468.95-228.07l-3.89,6.97c-0.38,0.67-0.14,1.52,0.54,1.89l0.67,0.17c0.49,0,0.96-0.26,1.22-0.72l3.96-7.1
				C470.54-227.17,469.71-227.58,468.95-228.07z"/>
			<path class="st0" d="M599.16-465.34c0.85-1.52,2.76-2.06,4.27-1.22c1.52,0.85,2.06,2.76,1.22,4.27
				c-0.85,1.52-2.76,2.06-4.28,1.22C598.86-461.91,598.32-463.82,599.16-465.34z"/>
			<path class="st0" d="M463.52-221.95c-0.84,1.52-0.3,3.43,1.22,4.28c1.52,0.85,3.43,0.3,4.27-1.22c0.85-1.52,0.3-3.43-1.22-4.28
				C466.29-224.01,464.37-223.46,463.52-221.95z"/>
			<path class="st0" d="M497.12-467.07c0.83-0.33,1.73-0.58,2.68-0.75l-2.47-8.69c-0.21-0.73-0.98-1.18-1.72-0.96
				c-0.74,0.21-1.17,0.98-0.96,1.72L497.12-467.07z"/>
			<path class="st0" d="M563.73-242.95L507.3-441.43c-0.83,0.3-1.74,0.52-2.71,0.66L561-242.38
				C561.85-242.65,562.75-242.85,563.73-242.95z"/>
			<path class="st0" d="M571.18-216.75c-0.82,0.36-1.71,0.65-2.66,0.85l2.33,8.18c0.17,0.61,0.73,1.01,1.34,1.01l0.38-0.05
				c0.74-0.21,1.17-0.98,0.96-1.72L571.18-216.75z"/>
			<path class="st0" d="M492.97-475.26c-0.47-1.67,0.5-3.41,2.17-3.88c1.67-0.48,3.41,0.49,3.88,2.16c0.47,1.67-0.5,3.41-2.17,3.88
				C495.18-472.62,493.45-473.59,492.97-475.26z"/>
			<path class="st0" d="M569.16-207.25c0.48,1.67,2.21,2.64,3.89,2.17c1.66-0.48,2.64-2.22,2.16-3.88
				c-0.47-1.67-2.21-2.64-3.88-2.16C569.66-210.66,568.69-208.92,569.16-207.25z"/>
			<path class="st0" d="M408.24-307.79l-8.54,2.43c-0.74,0.21-1.17,0.98-0.96,1.72c0.17,0.61,0.73,1.02,1.34,1.02l0.38-0.06
				l8.7-2.47C408.78-305.99,408.46-306.87,408.24-307.79z"/>
			<path class="st0" d="M435.17-312.55l198.3-56.37c-0.36-0.85-0.64-1.74-0.84-2.66l-198.04,56.3
				C434.88-314.4,435.07-313.49,435.17-312.55z"/>
			<path class="st0" d="M669.43-380.59c-0.21-0.74-0.97-1.18-1.72-0.96l-8.08,2.3c0.28,0.88,0.46,1.8,0.55,2.74l8.29-2.36
				C669.22-379.08,669.65-379.85,669.43-380.59z"/>
			<path class="st0" d="M667.24-383.24c1.67-0.47,3.41,0.49,3.88,2.17c0.48,1.67-0.5,3.41-2.17,3.88c-1.67,0.48-3.4-0.49-3.88-2.16
				C664.6-381.02,665.57-382.76,667.24-383.24z"/>
			<path class="st0" d="M399.23-307.04c-1.67,0.47-2.64,2.21-2.17,3.88c0.47,1.67,2.21,2.64,3.88,2.17
				c1.67-0.48,2.64-2.21,2.16-3.88C402.63-306.55,400.89-307.51,399.23-307.04z"/>
			<path class="st0" d="M561.26-342.11c0,15-12.16,27.16-27.17,27.16c-15,0-27.17-12.16-27.17-27.16
				c0-15.01,12.16-27.17,27.17-27.17C549.1-369.28,561.26-357.12,561.26-342.11z"/>
			<path class="st0" d="M534.09-466.03c3.8,0,6.89,3.09,6.89,6.89c0,3.8-3.09,6.9-6.89,6.9c-3.8,0-6.9-3.09-6.9-6.9
				C527.2-462.95,530.29-466.03,534.09-466.03 M534.09-468.82c-5.35,0-9.68,4.34-9.68,9.68c0,5.35,4.33,9.68,9.68,9.68
				c5.35,0,9.68-4.33,9.68-9.68C543.77-464.49,539.44-468.82,534.09-468.82z"/>
			<path class="st0" d="M534.09-231.98c3.8,0,6.89,3.1,6.89,6.9c0,3.8-3.09,6.89-6.89,6.89c-3.8,0-6.9-3.09-6.9-6.89
				C527.2-228.89,530.29-231.98,534.09-231.98 M534.09-234.77c-5.35,0-9.68,4.33-9.68,9.68c0,5.34,4.33,9.68,9.68,9.68
				c5.35,0,9.68-4.34,9.68-9.68C543.77-230.43,539.44-234.77,534.09-234.77z"/>
			<path class="st0" d="M651.12-349.01c3.8,0,6.9,3.1,6.9,6.9c0,3.8-3.09,6.9-6.9,6.9c-3.8,0-6.89-3.1-6.89-6.9
				C644.22-345.91,647.32-349.01,651.12-349.01 M651.12-351.79c-5.35,0-9.68,4.33-9.68,9.68c0,5.34,4.33,9.68,9.68,9.68
				c5.35,0,9.68-4.33,9.68-9.68C660.79-347.47,656.46-351.79,651.12-351.79z"/>
			<path class="st0" d="M417.06-349.01c3.8,0,6.9,3.1,6.9,6.9c0,3.8-3.09,6.9-6.9,6.9c-3.8,0-6.9-3.1-6.9-6.9
				C410.17-345.91,413.26-349.01,417.06-349.01 M417.06-351.79c-5.35,0-9.68,4.33-9.68,9.68c0,5.34,4.33,9.68,9.68,9.68
				c5.35,0,9.68-4.33,9.68-9.68C426.75-347.47,422.41-351.79,417.06-351.79z"/>
			<path class="st0" d="M616.84-431.76L616.84-431.76c1.84,0,3.57,0.72,4.87,2.02c2.68,2.69,2.68,7.06,0,9.75
				c-1.31,1.3-3.03,2.02-4.87,2.02c-1.84,0-3.58-0.72-4.88-2.02c-1.3-1.3-2.02-3.03-2.02-4.87c0-1.84,0.72-3.57,2.02-4.87
				C613.27-431.04,615-431.76,616.84-431.76 M616.84-434.55c-2.48,0-4.96,0.95-6.85,2.84c-3.78,3.78-3.79,9.91,0,13.69
				c1.89,1.89,4.37,2.83,6.85,2.83c2.47,0,4.95-0.95,6.84-2.83c3.78-3.78,3.78-9.91,0-13.69
				C621.79-433.6,619.32-434.55,616.84-434.55z"/>
			<path class="st0" d="M451.34-266.26L451.34-266.26c1.84,0,3.57,0.71,4.87,2.02c1.3,1.3,2.02,3.03,2.02,4.87
				c0,1.84-0.71,3.57-2.02,4.88c-1.3,1.3-3.03,2.02-4.88,2.02c-1.84,0-3.57-0.72-4.88-2.02c-2.68-2.69-2.68-7.06,0-9.75
				C447.77-265.54,449.5-266.26,451.34-266.26 M451.34-269.04c-2.48,0-4.95,0.94-6.85,2.83c-3.78,3.78-3.78,9.91,0,13.7
				c1.89,1.89,4.37,2.84,6.85,2.84c2.48,0,4.96-0.95,6.85-2.84c3.78-3.78,3.78-9.91,0-13.7
				C456.29-268.1,453.82-269.04,451.34-269.04z"/>
			<path class="st0" d="M616.84-266.26L616.84-266.26c1.84,0,3.57,0.71,4.87,2.02c2.68,2.69,2.69,7.06,0,9.75
				c-1.31,1.3-3.03,2.02-4.87,2.02c-1.84,0-3.58-0.72-4.88-2.02c-1.3-1.3-2.02-3.03-2.02-4.88c0-1.84,0.72-3.57,2.02-4.87
				C613.27-265.54,615-266.26,616.84-266.26 M616.84-269.04c-2.48,0-4.96,0.94-6.85,2.83c-3.78,3.78-3.78,9.91,0,13.7
				c1.89,1.89,4.37,2.84,6.85,2.84c2.47,0,4.95-0.95,6.84-2.84c3.79-3.78,3.78-9.91,0-13.7
				C621.79-268.1,619.32-269.04,616.84-269.04z"/>
			<path class="st0" d="M451.34-431.76L451.34-431.76c1.84,0,3.57,0.72,4.87,2.02c1.3,1.3,2.02,3.04,2.02,4.87
				c0,1.84-0.72,3.57-2.02,4.88c-1.3,1.3-3.03,2.02-4.88,2.02c-1.84,0-3.57-0.72-4.88-2.02c-2.68-2.69-2.68-7.06,0-9.75
				C447.77-431.04,449.5-431.76,451.34-431.76 M451.34-434.55c-2.48,0-4.95,0.95-6.85,2.84c-3.78,3.78-3.78,9.91,0,13.69
				c1.89,1.89,4.37,2.83,6.85,2.83c2.48,0,4.96-0.95,6.85-2.83c3.78-3.78,3.78-9.91,0-13.69
				C456.29-433.6,453.82-434.55,451.34-434.55z"/>
			<path class="st0" d="M561.09-462.88L561.09-462.88c0.54,0,1.07,0.06,1.6,0.19c1.79,0.42,3.31,1.52,4.28,3.09
				c0.96,1.57,1.26,3.42,0.84,5.21c-0.74,3.12-3.5,5.31-6.7,5.31c-0.54,0-1.07-0.06-1.6-0.19c-3.7-0.88-5.99-4.6-5.12-8.3
				C555.13-460.7,557.89-462.88,561.09-462.88 M561.09-465.66c-4.38,0-8.36,3-9.41,7.45c-1.23,5.2,1.98,10.42,7.18,11.65
				c0.75,0.18,1.5,0.26,2.24,0.26c4.38,0,8.35-3,9.41-7.45c1.23-5.2-1.98-10.42-7.18-11.65
				C562.58-465.58,561.83-465.66,561.09-465.66z"/>
			<path class="st0" d="M507.07-235.14L507.07-235.14c0.53,0,1.07,0.06,1.6,0.19c3.7,0.88,6,4.6,5.12,8.3
				c-0.74,3.12-3.5,5.3-6.7,5.3c-0.53,0-1.07-0.06-1.6-0.19c-3.7-0.87-6-4.6-5.12-8.3C501.11-232.96,503.86-235.14,507.07-235.14
				 M507.07-237.93c-4.38,0-8.35,3-9.41,7.45c-1.23,5.2,1.98,10.42,7.18,11.65c0.75,0.18,1.5,0.26,2.24,0.26
				c4.39,0,8.36-3,9.41-7.45c1.23-5.2-1.98-10.42-7.19-11.65C508.56-237.85,507.81-237.93,507.07-237.93z"/>
			<path class="st0" d="M647.95-322L647.95-322c0.53,0,1.07,0.06,1.6,0.19c1.79,0.43,3.31,1.52,4.28,3.09
				c0.97,1.57,1.27,3.42,0.84,5.21c-0.74,3.13-3.5,5.31-6.7,5.31c-0.54,0-1.07-0.06-1.6-0.19c-3.7-0.87-5.99-4.6-5.11-8.3
				C641.99-319.82,644.74-322,647.95-322 M647.95-324.79c-4.39,0-8.36,3-9.41,7.45c-1.24,5.2,1.98,10.42,7.18,11.66
				c0.75,0.18,1.51,0.26,2.24,0.26c4.38,0,8.35-3,9.41-7.45c1.23-5.2-1.98-10.42-7.18-11.65
				C649.44-324.7,648.69-324.79,647.95-324.79z"/>
			<path class="st0" d="M420.22-376.02L420.22-376.02c0.53,0,1.07,0.06,1.6,0.19c3.7,0.87,6,4.6,5.12,8.3
				c-0.74,3.13-3.49,5.3-6.7,5.3c-0.53,0-1.07-0.06-1.6-0.19c-1.79-0.43-3.31-1.52-4.27-3.09c-0.97-1.57-1.26-3.42-0.84-5.21
				C414.26-373.84,417.01-376.02,420.22-376.02 M420.22-378.81c-4.38,0-8.35,2.99-9.41,7.45c-1.24,5.2,1.98,10.42,7.18,11.65
				c0.75,0.18,1.51,0.26,2.24,0.26c4.38,0,8.36-3,9.41-7.45c1.23-5.2-1.98-10.42-7.19-11.65
				C421.71-378.72,420.96-378.81,420.22-378.81z"/>
			<path class="st0" d="M633.7-410.42L633.7-410.42c2.41,0,4.61,1.22,5.87,3.27c1.99,3.24,0.98,7.5-2.25,9.49
				c-1.09,0.67-2.34,1.03-3.61,1.03c-2.41,0-4.61-1.23-5.88-3.28c-0.96-1.57-1.26-3.42-0.84-5.21c0.42-1.79,1.52-3.31,3.09-4.28
				C631.18-410.07,632.43-410.42,633.7-410.42 M633.7-413.21c-1.74,0-3.49,0.47-5.08,1.44c-4.55,2.8-5.97,8.76-3.16,13.32
				c1.83,2.97,5,4.6,8.25,4.6c1.73,0,3.49-0.47,5.07-1.44c4.55-2.81,5.96-8.77,3.16-13.32C640.12-411.58,636.94-413.21,633.7-413.21
				z"/>
			<path class="st0" d="M434.47-287.59L434.47-287.59c2.41,0,4.61,1.23,5.87,3.28c0.97,1.57,1.27,3.41,0.85,5.21
				c-0.42,1.79-1.52,3.31-3.09,4.28c-1.09,0.67-2.34,1.03-3.61,1.03c-2.42,0-4.61-1.23-5.87-3.28c-0.97-1.57-1.27-3.42-0.84-5.2
				c0.43-1.79,1.53-3.31,3.1-4.28C431.95-287.24,433.2-287.59,434.47-287.59 M434.47-290.38c-1.73,0-3.49,0.47-5.07,1.44
				c-4.55,2.81-5.97,8.77-3.16,13.32c1.83,2.97,5,4.6,8.25,4.6c1.73,0,3.49-0.47,5.07-1.44c4.55-2.81,5.97-8.77,3.16-13.32
				C440.89-288.75,437.71-290.38,434.47-290.38z"/>
			<path class="st0" d="M595.5-249.39L595.5-249.39c2.41,0,4.6,1.22,5.86,3.27c2,3.24,0.99,7.5-2.24,9.49
				c-1.09,0.67-2.34,1.02-3.61,1.02c-2.42,0-4.61-1.23-5.88-3.28c-0.97-1.57-1.27-3.42-0.84-5.21c0.43-1.79,1.52-3.31,3.09-4.28
				C592.98-249.04,594.22-249.39,595.5-249.39 M595.5-252.18c-1.73,0-3.49,0.47-5.07,1.44c-4.55,2.81-5.97,8.77-3.16,13.32
				c1.83,2.97,5,4.6,8.25,4.6c1.73,0,3.48-0.46,5.07-1.44c4.55-2.81,5.96-8.77,3.16-13.32C601.92-250.55,598.75-252.18,595.5-252.18
				z"/>
			<path class="st0" d="M472.66-448.63L472.66-448.63c2.42,0,4.61,1.23,5.88,3.28c0.97,1.57,1.27,3.42,0.84,5.21
				c-0.43,1.79-1.53,3.31-3.09,4.28c-1.09,0.67-2.34,1.03-3.61,1.03c-2.42,0-4.61-1.23-5.88-3.28c-1.99-3.24-0.98-7.49,2.25-9.49
				C470.15-448.27,471.4-448.63,472.66-448.63 M472.66-451.41c-1.73,0-3.49,0.47-5.07,1.44c-4.55,2.81-5.96,8.77-3.16,13.32
				c1.83,2.97,5,4.6,8.25,4.6c1.73,0,3.49-0.46,5.07-1.44c4.55-2.8,5.96-8.77,3.16-13.32C479.08-449.78,475.91-451.41,472.66-451.41
				z"/>
			<path class="st0" d="M591.28-451.12L591.28-451.12c1.17,0,2.33,0.31,3.36,0.88c1.61,0.9,2.77,2.37,3.27,4.14
				c0.5,1.77,0.28,3.63-0.62,5.24c-1.22,2.18-3.53,3.53-6.02,3.53c-1.17,0-2.33-0.31-3.36-0.88c-3.32-1.86-4.5-6.07-2.64-9.38
				C586.47-449.76,588.78-451.12,591.28-451.12 M591.28-453.9c-3.39,0-6.69,1.78-8.45,4.95c-2.61,4.67-0.95,10.57,3.71,13.18
				c1.5,0.84,3.12,1.24,4.72,1.24c3.39,0,6.68-1.78,8.46-4.95c2.61-4.67,0.95-10.56-3.72-13.18
				C594.5-453.5,592.88-453.9,591.28-453.9z"/>
			<path class="st0" d="M476.92-246.9L476.92-246.9c1.17,0,2.33,0.3,3.36,0.88c3.31,1.86,4.5,6.07,2.64,9.39
				c-1.22,2.17-3.52,3.53-6.02,3.53c-1.17,0-2.33-0.31-3.37-0.88c-3.31-1.86-4.5-6.07-2.65-9.39
				C472.11-245.55,474.42-246.9,476.92-246.9 M476.92-249.69c-3.39,0-6.68,1.79-8.46,4.96c-2.61,4.67-0.95,10.56,3.72,13.17
				c1.5,0.84,3.12,1.24,4.72,1.24c3.39,0,6.68-1.78,8.45-4.95c2.61-4.67,0.95-10.57-3.71-13.18
				C480.14-249.29,478.52-249.69,476.92-249.69z"/>
			<path class="st0" d="M636.2-291.83L636.2-291.83c1.17,0,2.34,0.31,3.36,0.88c1.61,0.9,2.77,2.37,3.27,4.14
				c0.5,1.77,0.28,3.63-0.62,5.24c-1.22,2.18-3.52,3.53-6.02,3.53c-1.17,0-2.33-0.3-3.36-0.88c-3.31-1.86-4.5-6.07-2.64-9.39
				C631.4-290.48,633.71-291.83,636.2-291.83 M636.2-294.61c-3.39,0-6.68,1.78-8.45,4.95c-2.61,4.67-0.95,10.56,3.71,13.18
				c1.5,0.83,3.12,1.23,4.72,1.23c3.39,0,6.68-1.79,8.45-4.95c2.61-4.67,0.95-10.57-3.71-13.18
				C639.43-294.22,637.81-294.61,636.2-294.61z"/>
			<path class="st0" d="M431.99-406.2L431.99-406.2c1.17,0,2.33,0.31,3.36,0.88c3.31,1.86,4.51,6.07,2.64,9.39
				c-1.22,2.18-3.52,3.53-6.02,3.53c-1.17,0-2.33-0.31-3.36-0.88c-1.61-0.9-2.77-2.37-3.27-4.14c-0.5-1.78-0.27-3.64,0.63-5.25
				C427.19-404.84,429.49-406.19,431.99-406.2 M431.99-408.98c-3.39,0-6.68,1.79-8.45,4.95c-2.61,4.67-0.95,10.56,3.71,13.18
				c1.5,0.84,3.12,1.24,4.73,1.24c3.39,0,6.68-1.78,8.45-4.95c2.61-4.67,0.95-10.57-3.72-13.18
				C435.22-408.58,433.6-408.98,431.99-408.98z"/>
			<path class="st0" d="M646.73-380.77L646.73-380.77c3.07,0,5.8,2.07,6.63,5.02c1.03,3.66-1.11,7.48-4.77,8.51
				c-0.61,0.18-1.25,0.26-1.88,0.26c-3.06,0-5.79-2.07-6.62-5.03c-0.5-1.77-0.28-3.64,0.62-5.24c0.9-1.61,2.37-2.76,4.15-3.26
				C645.47-380.68,646.1-380.77,646.73-380.77 M646.73-383.56c-0.87,0-1.75,0.12-2.63,0.36c-5.14,1.46-8.14,6.8-6.69,11.94
				c1.21,4.27,5.08,7.06,9.31,7.06c0.87,0,1.75-0.11,2.63-0.37c5.15-1.45,8.14-6.8,6.69-11.94
				C654.84-380.77,650.96-383.56,646.73-383.56z"/>
			<path class="st0" d="M421.47-317.25L421.47-317.25c3.07,0,5.79,2.07,6.62,5.03c0.5,1.77,0.28,3.63-0.62,5.24
				c-0.9,1.61-2.37,2.76-4.15,3.26c-0.61,0.17-1.25,0.26-1.88,0.26c-3.07,0-5.79-2.07-6.63-5.03c-0.5-1.77-0.28-3.64,0.62-5.24
				c0.9-1.61,2.37-2.77,4.15-3.27C420.2-317.16,420.84-317.25,421.47-317.25 M421.47-320.03c-0.87,0-1.76,0.12-2.63,0.37
				c-5.15,1.46-8.15,6.8-6.7,11.95c1.21,4.26,5.09,7.05,9.31,7.05c0.87,0,1.76-0.12,2.64-0.37c5.14-1.45,8.14-6.8,6.69-11.95
				C429.57-317.25,425.69-320.03,421.47-320.03z"/>
			<path class="st0" d="M565.86-236.37c3.07,0,5.79,2.06,6.63,5.02c1.03,3.66-1.11,7.48-4.77,8.51c-0.61,0.17-1.25,0.26-1.88,0.26
				c-3.07,0-5.79-2.06-6.63-5.03c-0.5-1.77-0.28-3.63,0.62-5.24c0.9-1.61,2.37-2.76,4.14-3.26
				C564.6-236.29,565.23-236.37,565.86-236.37 M565.86-239.16c-0.87,0-1.75,0.12-2.63,0.37c-5.15,1.45-8.14,6.8-6.69,11.94
				c1.21,4.27,5.09,7.06,9.31,7.06c0.87,0,1.76-0.12,2.64-0.37c5.15-1.46,8.14-6.8,6.69-11.95
				C573.97-236.37,570.09-239.16,565.86-239.16z"/>
			<path class="st0" d="M502.33-461.64L502.33-461.64c3.06,0,5.79,2.07,6.62,5.03c0.5,1.77,0.28,3.63-0.62,5.24
				c-0.9,1.61-2.37,2.77-4.15,3.27c-0.61,0.17-1.24,0.26-1.87,0.26c-3.07,0-5.8-2.06-6.63-5.03c-1.03-3.66,1.11-7.47,4.76-8.51
				C501.07-461.55,501.7-461.64,502.33-461.64 M502.33-464.43c-0.87,0-1.76,0.12-2.63,0.36c-5.14,1.45-8.14,6.8-6.69,11.94
				c1.2,4.27,5.09,7.06,9.31,7.06c0.87,0,1.75-0.12,2.63-0.37c5.15-1.45,8.14-6.8,6.69-11.95
				C510.44-461.64,506.56-464.43,502.33-464.43z"/>
			<polygon class="st0" points="430.76,-188.92 533.93,-338.3 637.11,-188.92 640.49,-188.92 533.93,-343.2 427.37,-188.92 			"/>
			<path class="st0" d="M810.59-188.92h74.29v-251.56h4.3v-53.96h-8.79v-19.16h0l-16.43-24.44v-19.55h6.26
				c0,0-14.47-20.33-18.76-39.88h-2.54v-24.64h-2.36v24.64h-2.53c-4.31,19.55-18.77,39.88-18.77,39.88h6.26v19.55l-16.43,24.44
				v19.16h-8.8v53.96h4.3V-188.92z M871.85-485.37c5.15,0,9.32,6.43,9.32,14.37c0,7.94-4.17,14.37-9.32,14.37
				c-5.14,0-9.31-6.44-9.31-14.37C862.54-478.93,866.71-485.37,871.85-485.37z M827.06-485.37c7.04,0,12.75,6.43,12.75,14.37
				c0,7.94-5.71,14.37-12.75,14.37S814.3-463.06,814.3-471C814.3-478.93,820.02-485.37,827.06-485.37z"/>
			<rect x="198.16" y="-342.25" class="st0" width="79.69" height="152.86"/>
			<rect x="206.65" y="-364.41" class="st0" width="3.37" height="25.94"/>
			<rect x="265.97" y="-364.41" class="st0" width="3.38" height="25.94"/>
			<rect x="201.4" y="-352.93" class="st0" width="73.2" height="14.47"/>
			<polygon class="st0" points="238,-385.45 210.61,-348.69 265.39,-348.69 			"/>
			<rect x="233.56" y="-403.83" class="st0" width="8.88" height="36.76"/>
			<rect x="236.26" y="-423.28" class="st0" width="3.47" height="19.45"/>
			<rect x="340.52" y="-278.6" class="st0" width="46.51" height="89.21"/>
			<rect x="345.48" y="-291.53" class="st0" width="1.97" height="15.14"/>
			<rect x="380.11" y="-291.53" class="st0" width="1.97" height="15.14"/>
			<rect x="342.42" y="-284.83" class="st0" width="42.72" height="8.44"/>
			<polygon class="st0" points="363.78,-303.81 347.8,-282.36 379.77,-282.36 			"/>
			<rect x="361.19" y="-314.54" class="st0" width="5.18" height="21.45"/>
			<rect x="362.76" y="-325.89" class="st0" width="2.03" height="11.36"/>
			<rect x="34.74" y="-278.6" class="st0" width="46.51" height="89.21"/>
			<rect x="39.69" y="-291.53" class="st0" width="1.97" height="15.14"/>
			<rect x="74.32" y="-291.53" class="st0" width="1.97" height="15.14"/>
			<rect x="36.63" y="-284.83" class="st0" width="42.72" height="8.44"/>
			<polygon class="st0" points="58,-303.81 42.01,-282.36 73.98,-282.36 			"/>
			<rect x="55.41" y="-314.54" class="st0" width="5.18" height="21.45"/>
			<rect x="56.98" y="-325.89" class="st0" width="2.03" height="11.36"/>
			<polygon class="st0" points="344.51,-249.61 272.7,-276.4 272.7,-300.6 344.51,-273.82 			"/>
			<path class="st0" d="M73.98-226.01c-0.6,0-1.13-0.44-1.22-1.06c-0.1-0.67,0.37-1.3,1.05-1.41c0.68-0.1,69.07-10.9,126.69-72.97
				c0.46-0.5,1.25-0.52,1.75-0.07c0.5,0.47,0.53,1.25,0.06,1.75c-58.23,62.73-127.46,73.63-128.14,73.74L73.98-226.01z"/>
			<path class="st0" d="M77.43-212.58c-0.56,0-1.08-0.39-1.21-0.96c-0.15-0.67,0.26-1.33,0.93-1.49
				c0.69-0.16,69.65-16.72,123.46-84.77c0.42-0.53,1.2-0.62,1.74-0.2c0.54,0.43,0.63,1.2,0.2,1.74
				C148.18-229.5,78.4-212.77,77.71-212.61L77.43-212.58z"/>
			<path class="st0" d="M73.98-201.8c-0.66,0-1.2-0.52-1.23-1.18c-0.04-0.68,0.49-1.26,1.18-1.3c0.69-0.03,69.82-3.95,133.35-59.96
				c0.51-0.45,1.29-0.4,1.75,0.11c0.45,0.52,0.4,1.3-0.11,1.75C144.7-205.77,74.74-201.84,74.03-201.8L73.98-201.8z"/>
			<path class="st0" d="M73.8-192.37c-0.62,0-1.17-0.48-1.23-1.12c-0.07-0.68,0.43-1.28,1.11-1.35
				c0.71-0.07,71.25-7.41,133.55-67.77c0.49-0.48,1.27-0.46,1.75,0.03c0.47,0.49,0.46,1.27-0.03,1.75
				c-62.95,60.99-134.32,68.38-135.04,68.44L73.8-192.37z"/>
			<path class="st0" d="M92.28-188.92l0.1-0.47v-41.98c0-0.68-0.55-1.24-1.24-1.24c-0.68,0-1.23,0.56-1.23,1.24v41.98l0.09,0.47
				H92.28z"/>
			<path class="st0" d="M102.07-188.92l0.09-0.47v-45.14c0-0.68-0.55-1.24-1.24-1.24c-0.68,0-1.24,0.55-1.24,1.24v45.14l0.09,0.47
				H102.07z"/>
			<path class="st0" d="M111.87-188.92l0.09-0.47v-48.8c0-0.69-0.55-1.24-1.24-1.24c-0.68,0-1.24,0.56-1.24,1.24v48.8l0.1,0.47
				H111.87z"/>
			<path class="st0" d="M121.66-188.92l0.09-0.47v-53.39c0-0.69-0.56-1.24-1.23-1.24c-0.69,0-1.24,0.55-1.24,1.24v53.39l0.09,0.47
				H121.66z"/>
			<path class="st0" d="M131.45-188.92l0.1-0.47v-57.98c0-0.68-0.56-1.24-1.24-1.24c-0.68,0-1.23,0.56-1.23,1.24v57.98l0.09,0.47
				H131.45z"/>
			<path class="st0" d="M141.24-188.92l0.09-0.47v-62.87c0-0.68-0.56-1.24-1.24-1.24c-0.68,0-1.24,0.56-1.24,1.24v62.87l0.09,0.47
				H141.24z"/>
			<path class="st0" d="M151.03-188.92l0.09-0.47v-69.05c0-0.68-0.55-1.23-1.24-1.23c-0.68,0-1.24,0.55-1.24,1.23v69.05l0.09,0.47
				H151.03z"/>
			<path class="st0" d="M160.82-188.92l0.09-0.47v-74.53c0-0.69-0.56-1.24-1.24-1.24c-0.69,0-1.24,0.56-1.24,1.24v74.53l0.1,0.47
				H160.82z"/>
			<path class="st0" d="M170.61-188.92l0.1-0.47v-82.2c0-0.68-0.56-1.24-1.24-1.24c-0.68,0-1.24,0.55-1.24,1.24v82.2l0.09,0.47
				H170.61z"/>
			<path class="st0" d="M180.4-188.92l0.09-0.47v-90.07c0-0.68-0.55-1.24-1.24-1.24c-0.68,0-1.24,0.56-1.24,1.24v90.07l0.1,0.47
				H180.4z"/>
			<path class="st0" d="M190.19-188.92l0.09-0.47v-94.94c0-0.68-0.55-1.24-1.23-1.24c-0.68,0-1.24,0.55-1.24,1.24v94.94l0.1,0.47
				H190.19z"/>
			<path class="st0" d="M272.79-208.42c-0.61,0-1.13-0.44-1.23-1.06c-0.1-0.68,0.37-1.31,1.04-1.41
				c0.37-0.05,36.79-5.82,67.47-38.88c0.47-0.5,1.25-0.53,1.75-0.06c0.5,0.46,0.54,1.25,0.07,1.75
				c-31.3,33.72-68.55,39.58-68.92,39.64L272.79-208.42z"/>
			<path class="st0" d="M274.64-201.22c-0.56,0-1.07-0.39-1.2-0.96c-0.16-0.67,0.26-1.33,0.93-1.48
				c0.36-0.08,37.09-8.93,65.75-45.17c0.42-0.53,1.2-0.63,1.74-0.2c0.53,0.42,0.62,1.2,0.2,1.74
				c-29.23,36.96-66.76,45.96-67.14,46.05L274.64-201.22z"/>
			<path class="st0" d="M272.79-195.46c-0.66,0-1.21-0.52-1.24-1.18c-0.04-0.68,0.49-1.26,1.18-1.29
				c0.36-0.02,37.18-2.12,71.01-31.95c0.51-0.45,1.29-0.4,1.75,0.11c0.45,0.52,0.4,1.3-0.11,1.75
				c-34.52,30.43-72.16,32.55-72.54,32.57H272.79z"/>
			<path class="st0" d="M272.7-190.41c-0.63,0-1.17-0.48-1.23-1.12c-0.07-0.68,0.44-1.28,1.11-1.35
				c0.38-0.03,37.94-3.96,71.13-36.11c0.49-0.47,1.27-0.46,1.75,0.03c0.48,0.49,0.47,1.28-0.02,1.75
				c-33.84,32.78-72.24,36.76-72.62,36.8L272.7-190.41z"/>
			<path class="st0" d="M283.12-188.92l0.09-0.47v-22.47c0-0.68-0.55-1.24-1.23-1.24c-0.68,0-1.24,0.56-1.24,1.24v22.47l0.09,0.47
				H283.12z"/>
			<path class="st0" d="M288.36-188.92l0.1-0.47v-24.16c0-0.68-0.56-1.24-1.24-1.24c-0.68,0-1.24,0.55-1.24,1.24v24.16l0.1,0.47
				H288.36z"/>
			<path class="st0" d="M293.6-188.92l0.1-0.47v-26.12c0-0.68-0.55-1.23-1.24-1.23c-0.68,0-1.24,0.55-1.24,1.23v26.12l0.09,0.47
				H293.6z"/>
			<path class="st0" d="M298.84-188.92l0.09-0.47v-28.57c0-0.69-0.55-1.24-1.24-1.24c-0.68,0-1.24,0.55-1.24,1.24v28.57l0.09,0.47
				H298.84z"/>
			<path class="st0" d="M304.08-188.92l0.09-0.47v-31.03c0-0.68-0.55-1.24-1.24-1.24c-0.68,0-1.24,0.56-1.24,1.24v31.03l0.09,0.47
				H304.08z"/>
			<path class="st0" d="M309.32-188.92l0.09-0.47v-33.65c0-0.68-0.55-1.24-1.24-1.24c-0.68,0-1.24,0.55-1.24,1.24v33.65l0.1,0.47
				H309.32z"/>
			<path class="st0" d="M314.56-188.92l0.09-0.47v-36.96c0-0.68-0.55-1.24-1.24-1.24c-0.68,0-1.24,0.56-1.24,1.24v36.96l0.09,0.47
				H314.56z"/>
			<path class="st0" d="M319.8-188.92l0.1-0.47v-39.89c0-0.68-0.56-1.24-1.24-1.24c-0.68,0-1.23,0.56-1.23,1.24v39.89l0.09,0.47
				H319.8z"/>
			<path class="st0" d="M325.04-188.92l0.09-0.47v-44c0-0.68-0.56-1.24-1.24-1.24c-0.68,0-1.24,0.56-1.24,1.24v44l0.1,0.47H325.04z"
				/>
			<path class="st0" d="M330.28-188.92l0.09-0.47v-48.21c0-0.68-0.55-1.24-1.24-1.24c-0.68,0-1.24,0.56-1.24,1.24v48.21l0.1,0.47
				H330.28z"/>
			<path class="st0" d="M335.52-188.92l0.09-0.47v-50.81c0-0.68-0.55-1.23-1.24-1.23c-0.68,0-1.24,0.56-1.24,1.23v50.81l0.09,0.47
				H335.52z"/>
			<rect x="415.01" y="-480.02" class="st0" width="31.23" height="291.09"/>
			<rect x="412.43" y="-361.03" class="st0" width="36.39" height="172.11"/>
			<rect x="408.2" y="-343.32" class="st0" width="44.86" height="154.4"/>
			<rect x="418.34" y="-493.02" class="st0" width="1.32" height="15.22"/>
			<rect x="441.59" y="-493.02" class="st0" width="1.32" height="15.22"/>
			<rect x="416.28" y="-486.28" class="st0" width="28.69" height="8.48"/>
			<polygon class="st0" points="430.63,-505.36 419.9,-483.79 441.36,-483.79 			"/>
			<rect x="428.89" y="-516.14" class="st0" width="3.48" height="21.56"/>
			<rect x="429.95" y="-527.55" class="st0" width="1.36" height="11.41"/>
			<polygon class="st0" points="974.77,-192.46 974.77,-192.09 -38.11,-192.09 -38.11,-178.17 974.77,-178.17 1421.51,-178.17 
				1421.51,-192.46 			"/>
			<path class="st0" d="M1348.64-188.92v-57.3h-22.46v-108.46h-7.48v-29.32h-6.21v-22.96h-2.3v-19.81h-5.55v-23.72h-4.35v23.72
				h-5.55v19.81h-2.29v22.96h-6.22v29.32h-7.48v108.46h-20.99v-147.27h-9.12v-25.47h-5.55v-171.08h-2.74v-9.01h-4.43v-9.69h-2.85
				v9.69h-3.16l-16.69-22.41v-20.52h-2.28v-16.42h-2.93v16.42h-2.28v20.52l-16.7,22.41h-3.16v-9.69h-2.85v9.69h-4.43v9.01h-2.74
				v171.08h-5.55v25.47h-9.12v147.27h-20.02v-154.41h3.65c1.34,0,2.44-1.09,2.44-2.43c0-1.34-1.09-2.43-2.44-2.43h-2.47
				l-21.91-44.99l-21.91,44.99h-2.48c-1.35,0-2.43,1.09-2.43,2.43c0,1.35,1.09,2.43,2.43,2.43h3.65v154.41h-10.97v-57.3h-21.64
				v-121.55h-2.74v-9.01h-4.43v-9.69h-2.85v9.69h-4.03v-80.48h-7.49v-37.65h-5.25v-7.49h-2.74v-6.72h-2.74v-13.34h-2.71v13.34h-2.73
				v6.72h-2.74v7.49h-5.25v37.65h-7.49v80.48h-4.03v-9.69h-2.85v9.69h-4.43v9.01h-2.73v199.36h-19.34v-77.82h-20.17v-92.75h-9.01
				v-37.29h-7.5v-29.21h-2.76v-25.2h-6.69v-30.17h-5.24v30.17h-6.69v25.2h-2.76v29.21h-7.49v37.29h-9.01v207.34H1348.64z"/>
			<polygon class="st0" points="642.52,-188.92 642.52,-291.32 606.66,-329.01 606.66,-188.92 			"/>
			<polygon class="st0" points="729.46,-188.92 729.46,-281.02 721.56,-281.02 721.56,-313.84 710.62,-313.84 710.62,-325.4 
				675.35,-325.4 675.35,-313.84 664.41,-313.84 664.41,-281.02 656.51,-281.02 656.51,-208.13 653.62,-208.13 653.62,-188.92 			
				"/>
			<polygon class="st0" points="795.01,-188.92 795.01,-330.48 785.99,-330.48 785.99,-356.91 778.5,-356.91 778.5,-377.61 
				775.74,-377.61 775.74,-395.48 757.13,-395.48 757.13,-377.61 754.36,-377.61 754.36,-356.91 746.86,-356.91 746.86,-330.48 
				737.86,-330.48 737.86,-188.92 			"/>
		</g>
		<polyline class="st0" points="1421.51,-184.21 1421.51,-144.17 -38.11,-144.17 -38.11,-184.21 		"/>
	</g>
	<polyline class="st0" points="-38.11,-144.17 -38.11,-123.89 1421.51,-123.89 1421.51,-144.17 	"/>
</g>
<g>
	<g>
		<path class="st0" d="M499.75,500c-87.18-0.01-174.36-0.02-261.54-0.02c-78.48,0-156.95,0-235.43,0c-0.8,0-1.59,0-2.53,0
			c0-18.12,0-36.04,0-54.22c2.48,0,4.9-0.06,7.31,0.02c1.39,0.04,2.3-0.31,2.03-1.87c-0.52-2.98,0.94-5.21,2.42-7.61
			c12.34-19.99,24.58-40.03,36.84-60.07c0.41-0.67,0.73-1.4,1.29-2.48c-1.99,0-3.64,0-5.46,0c0-6.65,0-13.01,0-19.64
			c3.87,0,7.67-0.06,11.47,0.03c1.5,0.04,2.27-0.28,2.78-1.87c6.73-20.9,12.39-42.09,17.1-63.53c0.13-0.61,0.14-1.25,0.24-2.13
			c-2.22,0-4.3,0-6.54,0c0-1.57,0-2.9,0-4.58c1.96,0,3.88-0.06,5.8,0.02c1.38,0.06,1.93-0.37,2.2-1.84
			c5.36-28.78,9.57-57.73,12.98-86.8c3.72-31.77,5.68-63.65,5.28-95.65c-1.87-4.48-1.37-9.24-1.7-13.91
			c-0.04-0.54-0.76-1.15-1.31-1.5c-2.09-1.35-3.16-3.13-3.08-5.68c0.1-3.47,0.03-6.95,0.03-10.65c2.52-0.17,4.6-0.3,6.68-0.44
			c0-0.09,0-0.19,0-0.28c-1.59,0-3.18,0-4.72,0c-0.79-4.05-0.06-5.01,3.65-5.04c1.44-0.01,2.88,0,4.6,0c0-3.41-0.06-6.56,0.05-9.7
			c0.03-0.75,0.5-1.97,1.02-2.13c1.73-0.53,1.86-1.62,1.89-3.14c0.09-6.18,0.3-12.36,0.5-18.53c0.02-0.71,0.24-1.42,0.37-2.13
			c0.28,0,0.56,0.01,0.84,0.01c0.11,0.79,0.28,1.58,0.31,2.37c0.18,6.18,0.35,12.36,0.49,18.53c0.03,1.27-0.05,2.38,1.68,2.71
			c0.5,0.1,1.11,1.28,1.14,1.99c0.12,3.23,0.05,6.47,0.05,10.01c1.98,0,3.74-0.03,5.51,0.01c2,0.05,2.99,1.33,2.95,3.54
			c-0.04,2.05-1.56,1.41-2.65,1.52c-0.72,0.07-1.46,0.01-2.19,0.38c1.91,0,3.83,0,6.25,0c0,4.51,0.21,8.78-0.13,13.01
			c-0.1,1.26-1.77,2.36-2.62,3.61c-0.57,0.84-1.27,1.77-1.39,2.72c-0.27,2.25,0.04,4.59-0.34,6.81c-2.75,15.86-0.7,31.74,0.01,47.57
			c0.71,15.91,2.05,31.81,3.78,47.65c2.46,22.46,5.38,44.87,8.4,67.26c1.24,9.24,3.24,18.37,4.95,27.81c2.74,0,5.3,0,7.93,0
			c0,1.57,0,2.84,0,4.44c-2.26,0-4.41,0-6.86,0c1.2,5.68,2.32,10.99,3.43,16.3c3.49,16.73,8.35,33.08,13.69,49.3
			c0.51,1.56,1.2,1.97,2.73,1.93c3.81-0.11,7.63-0.03,11.69-0.03c0,6.53,0,12.89,0,19.49c-1.73,0.08-3.47,0.15-5.64,0.25
			c0.61,1.14,1.04,2.05,1.57,2.9c12.72,20.7,25.47,41.4,38.16,62.12c0.51,0.83,0.65,1.94,0.76,2.94c0.13,1.19,0.03,2.41,0.03,3.8
			c2.32,0,4.54,0,6.98,0c0.05-0.7,0.09-1.4,0.16-2.1c0.55-5.58,1.1-11.16,1.69-17.07c1.95,0,4.1,0,6.46,0c0-3.67,0-7.05,0-10.51
			c1.14-0.16,2.07-0.29,3.21-0.45c1.01-17.4,2.02-34.75,3.05-52.42c-2.11,0-4.15,0-6.35,0c0-4.75,0-9.18,0-13.86
			c3.1,0,6.08,0,9.34,0c-0.07-2.42,0.9-4.55-1.45-6.52c-1.03-0.86-1.2-2.97-1.38-4.55c-0.22-2-0.05-4.04-0.05-6.25
			c1.57-0.11,2.99-0.2,4.63-0.31c0-2.73,0-5.38,0-8.32c2.06,0,3.91-0.1,5.75,0.03c1.46,0.1,2.35-0.43,2.74-1.79
			c1.73-5.98,3.44-11.96,5.16-17.94c-0.23-0.11-0.46-0.22-0.69-0.33c-0.7,0.48-1.41,0.95-2.53,1.72c0.65-4.81,1.37-9.11,1.76-13.44
			c0.17-1.86-0.39-3.78-0.53-5.68c-0.05-0.65,0-1.41,0.3-1.96c0.73-1.35,1.64-2.6,2.42-3.8c-0.09-0.31-0.08-0.51-0.18-0.6
			c-4.14-3.78-5.18-7.81-0.75-11.98c-4.04-4.2-3.07-9.23-3.51-13.88c-0.13-1.43,0.47-2.95,0.29-4.36c-0.36-2.76-0.68-5.62-1.67-8.19
			c-1.23-3.18-1.74-6.23-0.67-9.48c1.31-3.99,2.63-7.98,3.96-12c-6.89-0.42-9.86-5.95-6.48-11.95c2.16-3.82,4.46-7.56,6.62-11.38
			c0.4-0.7,0.69-1.65,0.57-2.41c-0.71-4.62-1.49-9.24-2.41-13.83c-0.13-0.63-1.04-1.31-1.74-1.6c-3.8-1.57-4.23-2.87-2.2-6.5
			c0.44-0.78,0.86-2.27,0.48-2.7c-3.6-4.06-4.32-8.43-1.77-13.21c-4.41-2.18-5.72-4.74-4.51-9.51c1.34-5.3,3.42-10.32,6.81-14.72
			c0.41-0.53,0.62-1.49,0.46-2.15c-2.16-9.17-3.03-18.43-2.08-27.96c-0.82-0.16-1.5-0.29-2.15-0.41c-0.13-0.17-0.29-0.3-0.3-0.43
			c-0.19-3.55-0.34-7.11-0.56-10.65c-0.04-0.7-0.25-1.45-0.58-2.06c-1.42-2.65-1.58-5.37-0.99-8.28c0.2-0.97-0.26-2.07-0.48-3.53
			c2.49-1.45,0.11-4.11,0.62-6.28c-1.97-0.37-4.25-0.15-5.19-1.16c-0.84-0.9-0.17-3.17-0.23-4.84c-0.03-1.03-0.16-2.06-0.27-3.36
			c2.35,0,4.51,0,6.62,0c0.71-1.9,0.55-3.21-0.88-4.56c-2.65-2.5-3.13-7-0.58-10.02c2.3-2.73,5.38-4.81,8.13-7.15
			c0.76-0.64,1.59-1.19,2.76-2.05c1,1.51,2.11,3.3,0.91,5.77c0.19,0.16,0.39,0.31,0.58,0.47c2.4-1.85,4.81-3.69,7.21-5.53
			c0.02,0.03,0.2,0.17,0.18,0.26c-0.8,3.28-1.66,6.55-2.43,9.84c-0.83,3.51-2.61,6.4-5.14,8.97c-0.88,0.89-1.21,2.32-2.1,4.13
			c3.06,0,5.22,0,7.1,0c0.15,2.6,0.4,4.84,0.32,7.08c-0.02,0.61-0.97,1.57-1.63,1.7c-1.31,0.27-2.72,0.08-4.15,0.08
			c-0.22,0.84-0.31,1.48-0.55,2.06c-1.04,2.46-0.64,4.38,0.8,6.84c1.29,2.2,1.28,5.48,1.02,8.21c-0.5,5.31-0.65,10.55,0.49,15.77
			c0.92,4.2,2.03,8.37,2.96,12.57c0.4,1.81,0.58,3.68,0.9,5.83c3.93,0.02,7.85,1.9,12.4-0.05c-3.82-4.45-7.18-8.35-10.54-12.26
			c0.11-0.14,0.22-0.27,0.33-0.41c0.99,0.73,2,1.44,2.96,2.2c2.6,2.08,5.24,4.13,7.75,6.32c1.47,1.29,2.83,1.48,4.64,0.7
			c1.32-0.57,1.86-1.23,1.89-2.66c0.08-3.64,0.32-7.27,1.05-10.99c0.57,2.96,1.14,5.93,1.7,8.89c0.17,0.88,0.29,1.77,0.49,2.64
			c0.49,2.17,2.62,2.9,4.32,1.47c3.57-2.99,7.13-6.01,11.05-8.66c-2.92,3.73-5.85,7.46-8.78,11.2c1.11,1.59,2.4,1.85,4.09,1.35
			c4.34-1.3,8.72-2.48,13.3-3.18c-4.31,2.02-8.63,4.05-12.94,6.07c-0.09,0.25-0.18,0.49-0.27,0.74c0.82,0.34,1.63,0.98,2.45,0.98
			c3.82,0.01,7.64-0.16,11.46-0.25c0.85-0.02,1.7,0.08,2.58,0.69c-5.21,0.83-10.42,1.66-16.16,2.58c0.2,2.87,0.41,5.57,0.57,8.27
			c0.04,0.64,0.1,1.41-0.19,1.91c-1.51,2.55-0.85,4.91-0.01,7.53c0.79,2.44,2.21,5.14-0.47,7.66c-1,0.94,0.64,4.72,2.01,5.42
			c1.37,0.7,2.81,1.31,4.09,2.16c0.53,0.36,0.71,1.24,1.06,1.88c0.33,0.61,0.54,1.6,1.01,1.75c3.33,1.06,4.18,3.79,4.9,6.71
			c1.6,6.46,4.56,12.28,8.36,17.7c0.6,0.86,0.98,1.88,1.46,2.83c0.41-0.29,0.82-0.57,1.23-0.86c1.04-3.7,2.08-7.4,3.23-11.49
			c5.31,1.67,10.51,3.14,15.59,4.98c1.92,0.7,3.53,2.23,5.6,3.59c-0.48,1.38-0.35,3.38-2.6,4.69c-2.11,1.23-2.66,5.18-1.67,7.52
			c0.26,0.62,0.48,1.43,0.31,2.03c-0.7,2.4-1.64,4.73-2.33,7.13c-0.77,2.64-2.41,4.21-5.13,4.5c-1.52,0.16-2.54,0.73-3.07,2.25
			c-1.02,2.98-2.19,5.91-3.2,8.89c-0.44,1.3-0.62,2.69-0.97,4.03c-1.68,6.46-3.69,7.84-10.42,7.01c0.52,4.88,1,9.7,1.54,14.52
			c0.83,7.35,1.7,14.7,2.53,22.05c0.06,0.53,0.1,1.37-0.2,1.58c-2.33,1.69-1.54,4.05-1.44,6.23c0.07,1.46-0.09,2.57-1.41,3.59
			c-0.69,0.53-1.03,1.94-0.97,2.91c0.24,4.06,0.67,8.1,1.09,12.14c0.17,1.63,0.13,3.06-1.46,4.07c-0.38,0.24-0.68,0.94-0.66,1.41
			c0.33,6.07,0.73,12.13,1.12,18.29c1.33,0.1,2.44,0.18,3.84,0.29c0,2.71,0,5.35,0,8.22c1.73,0,3.16,0,4.66,0
			c0.76,4.06,0.92,8.17-1.49,11.15c-1.76,2.17-1.43,3.94-1.4,6.31c3.11,0,6.09,0,9.25,0c0,4.65,0,9.07,0,13.78
			c-2.05,0-4.12,0-6.47,0c0.97,17.71,1.93,35.11,2.89,52.62c1.06,0.13,2,0.25,3.2,0.4c0,3.43,0,6.81,0,10.4c2.26,0,4.26,0,6.68,0
			c0,2.29-0.14,4.37,0.03,6.43c0.36,4.25,0.89,8.48,1.37,12.88c4.15,0,8.34,0,12.64,0c0-21.17,0-42.27,0-63.48
			c2.37-0.86,2.76-3.24,2.76-5.37c-0.02-6.91-0.35-13.82-0.58-20.73c-0.02-0.63,0-1.39-0.33-1.88c-2.03-3.02-1.56-6.23-1.31-9.62
			c0.39-5.32,0.35-10.7,0.01-16.02c-0.14-2.19-1.82-4.24-2.31-6.46c-1.05-4.75-0.92-4.78,1.75-9.8c0.14,1.66,0.24,2.76,0.33,3.86
			c-0.15-3.5,1.62-7.06-0.58-10.55c-0.6-0.95-0.05-2.71,0.2-4.06c0.16-0.83,1.19-1.64,1.08-2.34c-0.61-3.84,1.86-6.07,4.23-8.25
			c1.73-1.59,2.38-3.31,2.21-5.58c-0.15-2.1-0.02-4.23-0.09-6.34c-0.06-1.72,0.15-3.1,1.47-4.59c1.1-1.25,1.37-3.42,1.58-5.24
			c0.56-4.68,0.84-9.38,1.33-14.07c0.11-1,0.65-1.96,0.99-2.93c0.3,0.01,0.59,0.02,0.89,0.03c0.28,0.84,0.71,1.66,0.81,2.52
			c0.69,5.87,1.31,11.75,1.97,17.63c0.05,0.48,0.03,1.14,0.32,1.4c2.94,2.65,2.03,6.17,1.86,9.31c-0.24,4.42,1.32,8.03,3.83,11.38
			c1.53,2.04,2.16,4.2,2.22,6.76c0.16,6.83,0.49,13.65,0.97,20.46c0.14,2.06,1.13,4.04,1.46,6.1c0.21,1.32-0.03,2.71-0.12,4.07
			c-0.17,2.38-0.43,4.76-0.56,7.14c-0.08,1.43,0.85,3.14-1.47,3.78c-0.33,0.09-0.49,1.28-0.51,1.96
			c-0.32,10.81-0.67,21.62-0.81,32.43c-0.02,1.4-0.13,3.28,1.72,4.3c0.48,0.27,0.52,1.59,0.52,2.42c0,17.57-0.04,35.13-0.05,52.7
			c0,2.36,0.02,4.73,0.28,7.06c0.08,0.75,0.97,1.99,1.52,2c5.18,0.15,10.36,0.09,15.66,0.09c0.06-0.67,0.15-1.14,0.14-1.6
			c-0.62-20.48-1.27-40.96-1.88-61.45c-0.93-31.29-1.83-62.59-2.75-93.88c-0.2-6.83-0.39-13.66-0.59-20.48
			c-0.1-3.61-0.1-3.61-3.84-4.21c0-19.52,0-39.07,0-58.9c1.42,0,2.84,0,4.35,0c0.14-0.69,0.32-1.14,0.32-1.59
			c-0.05-6.91-0.1-13.82-0.19-20.74c-0.01-1.15,0.35-2.53-1.32-3c-0.15-0.04-0.35-0.42-0.31-0.6c0.56-2.61,1.15-5.21,1.74-7.82
			c0.37,0.01,0.74,0.02,1.11,0.03c0.46,1.56,1,3.11,1.37,4.69c0.34,1.47,1.24,2.98-0.62,4.31c-0.49,0.36-0.21,1.85-0.22,2.82
			c-0.02,2.32-0.01,4.63-0.01,6.95c0.24,0.07,0.49,0.14,0.73,0.2c4.39-8.26,8.79-16.52,13.32-25.05c-3.5-0.73-2.28-3.13-2.3-4.91
			c-0.01-0.81,0.86-1.62,1.33-2.43c0.23,0.07,0.46,0.14,0.69,0.21c0-10.39,0-20.77,0-31.32c0.85,0,1.52,0,2.36,0
			c0.16,2.38,0.32,4.7,0.52,7.62c0.61-0.97,0.96-1.44,1.22-1.95c2.85-5.66,5.65-11.35,8.52-17c3.83-7.54,4.57-15.69,4.76-23.94
			c0.01-0.59-0.19-1.31-0.56-1.76c-1.84-2.27-1.66-3.04,1.23-4.04c-0.12-1.48-0.45-3.01-0.31-4.5c0.13-1.36,0.79-2.66,1.39-4.55
			c2.43,3.17,1.91,6.04,1.47,8.86c3.07,1.38,3.03,1.35,1.12,4.38c-0.35,0.55-0.33,1.4-0.32,2.11c0.09,9.78,1.27,19.25,6.46,27.91
			c2.66,4.43,4.72,9.22,7.61,13.77c0.11-2.19,0.22-4.39,0.33-6.74c0.8,0,1.48,0,2.27,0c0,10.42,0,20.72,0,30.98
			c3.8,1.17,1.35,4.21,2.37,6.32c-0.97,0.35-1.69,0.61-2.86,1.03c4.55,8.4,9,16.63,13.46,24.87c0.16-0.06,0.33-0.12,0.49-0.18
			c0-3.11,1.05-6.8-0.25-9.21c-1.81-3.34,0.11-5.66,0.38-8.4c0.04-0.39,0.52-0.73,1.36-1.85c0.79,3.25,1.42,5.85,2.05,8.45
			c-3.54,3.77-1.36,8.38-1.73,12.58c-0.38,4.34-0.09,8.74-0.09,13.33c1.77,0,3.28,0,4.98,0c0,19.83,0,39.44,0,58.99
			c-3.75,0.69-3.77,0.69-3.88,4.4c-1.37,45.27-2.74,90.55-4.08,135.82c-0.38,12.76-0.67,25.52-0.99,38.29c-0.02,0.96,0,1.91,0,3.05
			c5.96,0,11.68,0,17.68,0c0-2.66-0.16-5.25,0.03-7.81c0.83-11.72-1.61-23.27-1.81-34.94c-0.04-2.11-0.03-4.24-0.26-6.33
			c-0.24-2.12-0.57-4.26-1.18-6.3c-1.26-4.21,1-11.97,4.46-15.08c0.46-0.42,0.42-1.4,0.59-2.13c0.51-2.26,0.68-4.67,1.59-6.75
			c0.9-2.05,2.97-2.14,3.92-0.15c1.04,2.17,1.25,4.74,1.84,7.13c0.18,0.72,0.19,1.8,0.66,2.07c2.64,1.55,3.35,4.1,3.76,6.79
			c0.33,2.16,1.03,4.53,0.51,6.52c-2.49,9.45-0.58,19.24-2.48,28.67c-1.88,9.36-0.12,18.74-1.03,28.29c4.36,0,8.37,0,12.55,0
			c0.06-0.69,0.13-1.3,0.17-1.93c0.02-0.32,0-0.65,0-0.98c-0.08-11.17,0.23-22.34-1.55-33.46c-0.8-5.02-0.42-10.23-0.75-15.34
			c-0.17-2.69-0.98-5.34-1.03-8.02c-0.04-2.07,0.51-4.19,1.05-6.22c0.3-1.13,0.85-2.63,1.74-3.09c2.33-1.21,2.4-2.95,2.22-5.15
			c-0.1-1.23,0.22-2.69,0.86-3.73c0.69-1.13,1.91-2.51,3.02-2.62c0.84-0.09,2.27,1.48,2.71,2.6c0.66,1.69,0.59,3.64,1,5.44
			c0.23,0.98,0.74,1.91,1.26,2.79c0.74,1.23,2,2.28,2.34,3.58c1.08,4.11,2.41,8.25,0.27,12.51c-0.5,1-0.22,2.4-0.29,3.62
			c-0.38,7.06-0.14,14.23-1.29,21.16c-1.59,9.58-0.14,19.1-1.01,29.09c4.68,0,9.03,0,13.38,0
			C499.75,463.89,499.75,481.95,499.75,500z M53.48,445.56c33.96,0,67.53,0,101.37,0c-1.91-19.86-9.97-35.91-27.92-45.13
			c-17.73-9.11-35.59-7.76-51.85,3.83C61.18,414.17,54.61,428.48,53.48,445.56z M404.72,214.43c-11.69-0.08-20.74,9.03-20.8,20.93
			c-0.07,12,9.29,21.59,21.14,21.64c11.65,0.05,21.01-9.28,21.11-21.07C426.28,223.87,416.94,214.51,404.72,214.43z M121.98,353.75
			c-2.77-13.72-5.49-27.2-8.19-40.61c-6.68,0-13.07,0-19.38,0c-2.78,13.6-5.53,27.03-8.31,40.61
			C98.14,353.75,109.95,353.75,121.98,353.75z M286.91,400.19c0-9.85,0-19.53,0-29.26c-3.64,0-7.07,0-10.52,0
			c0,9.85,0,19.48,0,29.26C279.98,400.19,283.42,400.19,286.91,400.19z M267.15,400.16c0-9.93,0-19.62,0-29.32
			c-3.55,0-6.85,0-10.23,0c0,9.82,0,19.5,0,29.32C260.39,400.16,263.69,400.16,267.15,400.16z M237.13,370.82c0,9.9,0,19.57,0,29.29
			c3.58,0,6.88,0,10.26,0c0-9.83,0-19.5,0-29.29C243.89,370.82,240.58,370.82,237.13,370.82z M382.03,403.8c0,11.47,0,22.79,0,34.16
			c1.51,0,2.79,0,4.1,0c0-11.44,0-22.76,0-34.16C384.61,403.8,383.35,403.8,382.03,403.8z M386.15,396.83c0-11.37,0-22.61,0-33.95
			c-1.53,0-2.86,0-4.19,0c0,11.42,0,22.67,0,33.95C383.45,396.83,384.73,396.83,386.15,396.83z M386.1,355.51
			c0-11.34,0-22.58,0-33.8c-1.57,0-2.88,0-4.14,0c0,11.39,0,22.56,0,33.8C383.45,355.51,384.73,355.51,386.1,355.51z M416.12,362.81
			c0,11.4,0,22.64,0,34.01c1.45,0,2.72,0,4.13,0c0-11.37,0-22.67,0-34.01C418.7,362.81,417.43,362.81,416.12,362.81z M416.17,321.69
			c0,11.43,0,22.6,0,33.79c1.54,0,2.8,0,4.09,0c0-11.32,0-22.48,0-33.79C418.75,321.69,417.48,321.69,416.17,321.69z M420.22,437.95
			c0-11.5,0-22.8,0-34.04c-1.51,0-2.76,0-4.07,0c0,11.45,0,22.7,0,34.04C417.55,437.95,418.75,437.95,420.22,437.95z M408.49,362.82
			c0,11.4,0,22.64,0,33.88c1.56,0,2.87,0,4.18,0c0-11.4,0-22.57,0-33.88C411.21,362.82,409.94,362.82,408.49,362.82z M423.86,403.87
			c0,11.4,0,22.71,0,33.93c1.5,0,2.75,0,3.98,0c0-11.41,0-22.6,0-33.93C426.42,403.87,425.16,403.87,423.86,403.87z M412.7,437.96
			c0-11.5,0-22.75,0-34.12c-1.49,0-2.82,0-4.12,0c0,11.49,0,22.79,0,34.12C410.05,437.96,411.26,437.96,412.7,437.96z
			 M397.35,403.87c0,11.54,0,22.78,0,34c1.51,0,2.76,0,4.04,0c0-11.41,0-22.65,0-34C399.94,403.87,398.68,403.87,397.35,403.87z
			 M393.78,437.98c0-11.5,0-22.75,0-34.13c-1.42,0-2.68,0-4.02,0c0,11.44,0,22.75,0,34.13
			C391.17,437.98,392.37,437.98,393.78,437.98z M401.41,396.85c0-11.38,0-22.62,0-33.95c-1.45,0-2.77,0-4.11,0
			c0,11.4,0,22.63,0,33.95C398.76,396.85,400.02,396.85,401.41,396.85z M389.7,321.69c0,11.42,0,22.58,0,33.78c1.48,0,2.73,0,4.02,0
			c0-11.33,0-22.48,0-33.78C392.3,321.69,391.04,321.69,389.7,321.69z M423.8,362.83c0,11.38,0,22.61,0,33.94c1.43,0,2.69,0,4.06,0
			c0-11.39,0-22.64,0-33.94C426.42,362.83,425.16,362.83,423.8,362.83z M381.92,280.64c0,11.35,0,22.57,0,33.83
			c1.52,0,2.84,0,4.21,0c0-11.36,0-22.52,0-33.83C384.69,280.64,383.42,280.64,381.92,280.64z M393.73,314.55
			c0-11.44,0-22.61,0-33.91c-1.43,0-2.68,0-3.99,0c0,11.37,0,22.6,0,33.91C391.18,314.55,392.38,314.55,393.73,314.55z
			 M393.74,396.8c0-11.36,0-22.59,0-33.95c-1.43,0-2.7,0-3.98,0c0,11.36,0,22.65,0,33.95C391.22,396.8,392.41,396.8,393.74,396.8z
			 M412.65,355.51c0-11.43,0-22.57,0-33.78c-1.5,0-2.81,0-4.2,0c0,11.36,0,22.52,0,33.78C409.89,355.51,411.16,355.51,412.65,355.51
			z M397.3,321.63c0,11.36,0,22.6,0,33.86c1.46,0,2.72,0,3.99,0c0-11.39,0-22.62,0-33.86C399.82,321.63,398.63,321.63,397.3,321.63z
			 M423.77,280.68c0,11.44,0,22.62,0,33.82c1.44,0,2.69,0,4.04,0c0-11.34,0-22.51,0-33.82
			C426.38,280.68,425.13,280.68,423.77,280.68z M423.77,355.4c1.58,0,2.83,0,4.08,0c0-11.3,0-22.39,0-33.6c-1.47,0-2.78,0-4.08,0
			C423.77,333.11,423.77,344.21,423.77,355.4z M397.3,280.59c0,11.39,0,22.63,0,33.84c1.48,0,2.73,0,4.03,0c0-11.36,0-22.54,0-33.84
			C399.97,280.59,398.77,280.59,397.3,280.59z M412.44,314.55c0.16-0.42,0.27-0.56,0.27-0.71c0.03-10.57,0.07-21.14,0-31.71
			c0-0.53-0.91-1.3-1.54-1.51c-0.78-0.26-1.71-0.06-2.65-0.06c0,11.49,0,22.73,0,33.99C409.97,314.55,411.18,314.55,412.44,314.55z
			 M420.27,280.97c-4.23-0.89-4.33-0.82-4.33,3.16c0.01,9.09,0.02,18.17,0.03,27.26c0,1.03,0,2.05,0,3.12c1.64,0,2.9,0,4.3,0
			C420.27,303.23,420.27,292.08,420.27,280.97z M168.99,424.6c-4.29-2.11-8.21-4.03-12.13-5.96c-0.11,0.14-0.23,0.28-0.34,0.42
			c2.11,4.16,4.21,8.33,6.52,12.88C165.12,429.37,166.94,427.13,168.99,424.6z M44.68,432.01c2.21-4.49,4.22-8.58,6.24-12.68
			c-0.13-0.14-0.27-0.27-0.4-0.41c-3.85,1.89-7.69,3.77-11.8,5.78C40.84,427.32,42.67,429.55,44.68,432.01z M36.18,424.29
			c-1.75-2.31-3.28-4.33-4.96-6.54c-2.63,4.32-5.06,8.33-7.5,12.33c0.13,0.12,0.26,0.23,0.39,0.35
			C28.04,428.44,31.97,426.44,36.18,424.29z M171.82,424.24c4.32,2.18,8.35,4.23,12.39,6.27c0.1-0.14,0.2-0.27,0.29-0.41
			c-2.51-3.98-5.03-7.96-7.7-12.2C175.05,420.14,173.52,422.07,171.82,424.24z M406.45,158.39c0-5.15,0-10.06,0-15.05
			c-1.29,0-2.45,0-3.65,0c0,5.1,0,10.01,0,15.05C404.03,158.39,405.13,158.39,406.45,158.39z M420,143.31c-1.35,0-2.45,0-3.58,0
			c0,5.13,0,10.11,0,15.04c1.32,0,2.41,0,3.58,0C420,153.31,420,148.46,420,143.31z M413.19,143.34c-1.31,0-2.46,0-3.64,0
			c0,5.13,0,10.09,0,15.03c1.32,0,2.42,0,3.64,0C413.19,153.3,413.19,148.4,413.19,143.34z M396.07,143.26c0,5.23,0,10.15,0,15.16
			c1.29,0,2.39,0,3.61,0c0-5.11,0-10.09,0-15.16C398.39,143.26,397.28,143.26,396.07,143.26z M182,432.16
			c0.05-0.16,0.11-0.32,0.16-0.48c-3.82-2-7.64-4-11.54-6.05c-1.75,2.19-3.37,4.22-5.22,6.53C171.3,432.16,176.65,432.16,182,432.16
			z M246.23,129.58c0.29,2.53,0.28,4.92,0.89,7.15c0.62,2.3,1.84,4.43,2.78,6.58c0.74-2.53,1.04-5.06,2.21-7.08
			c1.14-1.98-0.15-3.35-0.29-4.99c-0.26-3.11-2.71-1.26-4.12-1.75C247.42,129.4,247.06,129.52,246.23,129.58z M110.71,181.74
			c-4.51,0-8.36,0-12.64,0c2.13,3.07,4.03,5.82,6.16,8.89C106.42,187.63,108.39,184.93,110.71,181.74z M37.2,425.7
			c-3.94,2.06-7.62,3.98-11.3,5.91c0.05,0.14,0.09,0.28,0.14,0.41c5.19,0,10.38,0,16,0C40.32,429.79,38.83,427.84,37.2,425.7z
			 M33.29,417.02c3.53,6.48,3.64,6.52,10.01,3.52c0.88-0.41,1.76-0.82,2.62-1.26c0.99-0.51,1.97-1.05,2.95-1.57
			c-0.08-0.23-0.16-0.46-0.24-0.69C43.55,417.02,38.47,417.02,33.29,417.02z M158.79,416.95c-0.03,0.19-0.06,0.37-0.09,0.56
			c3.31,1.67,6.61,3.37,9.95,4.97c0.55,0.26,1.62,0.36,1.93,0.04c1.57-1.65,2.97-3.47,4.71-5.56
			C169.37,416.95,164.08,416.95,158.79,416.95z M173.47,413.38c0.15-0.14,0.3-0.29,0.46-0.43c-2.23-3.7-4.47-7.41-6.92-11.46
			c-1.86,2.23-3.41,4.11-5.13,6.17C165.97,409.68,169.72,411.53,173.47,413.38z M149.58,400.81c-0.01,0.2-0.02,0.4-0.03,0.6
			c3.05,1.53,6.08,3.1,9.15,4.57c0.57,0.27,1.64,0.49,1.93,0.2c1.59-1.62,3.02-3.41,4.7-5.37
			C159.71,400.81,154.65,400.81,149.58,400.81z M60.73,402.88c-0.16-0.11-0.32-0.23-0.49-0.34c-3.78,1.8-7.56,3.59-11.6,5.52
			c1.7,2.12,3.25,4.05,5.04,6.29C56.14,410.34,58.44,406.61,60.73,402.88z M393,158.45c0-5.11,0-10.09,0-15.12c-1.26,0-2.36,0-3.5,0
			c0,5.14,0,10.13,0,15.12C390.77,158.45,391.81,158.45,393,158.45z M34.27,412.73c0.1,0.12,0.2,0.25,0.3,0.37
			c3.73-1.83,7.46-3.65,11.44-5.6c-1.75-2.15-3.3-4.07-5.02-6.19C38.62,405.34,36.44,409.03,34.27,412.73z M154.13,414.33
			c1.8-2.25,3.3-4.11,4.98-6.21c-4.09-2.02-7.86-3.87-12.24-6.03C149.46,406.45,151.65,410.15,154.13,414.33z M162.02,398.64
			c0.04-0.23,0.09-0.46,0.13-0.69c-3.35-1.57-6.7-3.16-10.07-4.69c-0.38-0.17-1.12-0.23-1.31-0.01c-1.5,1.69-2.92,3.46-4.51,5.38
			C151.88,398.64,156.95,398.64,162.02,398.64z M51.72,414.89c-1.42-1.8-2.66-3.48-4.03-5.04c-0.31-0.35-1.2-0.56-1.62-0.37
			c-3.35,1.53-6.66,3.17-9.97,4.78c0.04,0.21,0.09,0.42,0.13,0.63C41.23,414.89,46.23,414.89,51.72,414.89z M58.25,401.52
			c-0.04-0.26-0.09-0.52-0.13-0.78c-4.96,0-9.91,0-15.22,0c1.38,1.78,2.57,3.4,3.88,4.91c0.31,0.36,1.19,0.62,1.6,0.44
			C51.7,404.63,54.97,403.06,58.25,401.52z M171.62,414.98c0.04-0.14,0.09-0.28,0.13-0.42c-3.68-1.84-7.36-3.68-11.08-5.54
			c-1.63,2.08-3.07,3.93-4.66,5.96C161.52,414.98,166.57,414.98,171.62,414.98z M44.15,396.34c0.1,0.11,0.21,0.22,0.31,0.33
			c3.67-1.76,7.35-3.52,11.21-5.37c-1.77-2.09-3.25-3.85-4.97-5.88C48.39,389.27,46.27,392.81,44.15,396.34z M46,397.84
			c0.03,0.21,0.05,0.42,0.08,0.62c4.97,0,9.94,0,15.28,0c-1.38-1.72-2.61-3.39-4.02-4.89c-0.32-0.34-1.36-0.35-1.89-0.11
			C52.26,394.85,49.14,396.37,46,397.84z M58.46,391.77c1.7,2.11,3.19,3.96,4.83,5.99c2.3-3.82,4.4-7.33,6.51-10.84
			c-0.09-0.13-0.18-0.26-0.28-0.39C65.98,388.21,62.44,389.89,58.46,391.77z M152.34,391.24c3.89,1.89,7.41,3.59,10.92,5.3
			c0.12-0.13,0.25-0.26,0.37-0.39c-2.1-3.49-4.19-6.98-6.5-10.83C155.47,387.38,154.06,389.12,152.34,391.24z M138.97,386.7
			c-0.15,0.15-0.3,0.31-0.46,0.46c1.95,3.45,3.9,6.91,5.99,10.6c1.84-2.14,3.36-3.91,5.06-5.89
			C145.88,390.07,142.43,388.38,138.97,386.7z M428.38,207.64c0-3.35,0-6.46,0-9.6c-1.63,0-3.09,0-4.49,0c0,3.33,0,6.43,0,9.6
			C425.45,207.64,426.8,207.64,428.38,207.64z M385.36,198.06c-1.63,0-3.09,0-4.53,0c0,3.31,0,6.41,0,9.52c1.59,0,3.01,0,4.53,0
			C385.36,204.33,385.36,201.22,385.36,198.06z M384.06,263.84c-1.71,0-3.13,0-4.57,0c0,3.27,0,6.37,0,9.45c1.63,0,3.05,0,4.57,0
			C384.06,270.09,384.06,267.05,384.06,263.84z M416.19,197.97c0,3.36,0,6.47,0,9.57c1.59,0,2.93,0,4.37,0c0-3.26,0-6.37,0-9.57
			C419.02,197.97,417.66,197.97,416.19,197.97z M429.53,263.93c-1.69,0-3.1,0-4.53,0c0,3.22,0,6.25,0,9.28c1.62,0,3.03,0,4.53,0
			C429.53,270.04,429.53,267.06,429.53,263.93z M421.8,273.25c0-3.32,0-6.34,0-9.38c-1.6,0-2.93,0-4.38,0c0,3.18,0,6.2,0,9.38
			C418.95,273.25,420.36,273.25,421.8,273.25z M391.57,273.27c0-3.28,0-6.31,0-9.41c-1.57,0-2.92,0-4.39,0c0,3.17,0,6.21,0,9.41
			C388.68,273.27,390.02,273.27,391.57,273.27z M406.8,263.88c-1.66,0-3.07,0-4.52,0c0,3.2,0,6.23,0,9.35c1.58,0,2.99,0,4.52,0
			C406.8,270.07,406.8,267.11,406.8,263.88z M408.33,207.48c1.73,0,3.13,0,4.47,0c0-3.31,0-6.41,0-9.44c-1.61,0-3.02,0-4.47,0
			C408.33,201.26,408.33,204.29,408.33,207.48z M400.82,197.96c-1.62,0-3.04,0-4.5,0c0,3.27,0,6.38,0,9.58c1.6,0,3.01,0,4.5,0
			C400.82,204.27,400.82,201.16,400.82,197.96z M409.82,273.15c1.55,0,3,0,4.43,0c0-3.25,0-6.28,0-9.32c-1.54,0-2.9,0-4.43,0
			C409.82,266.97,409.82,270,409.82,273.15z M399.11,273.23c0-3.19,0-6.23,0-9.34c-1.57,0-2.98,0-4.5,0c0,3.18,0,6.21,0,9.34
			C396.2,273.23,397.63,273.23,399.11,273.23z M388.65,197.91c0,3.37,0,6.49,0,9.63c1.54,0,2.88,0,4.33,0c0-3.28,0-6.39,0-9.63
			C391.46,197.91,390.11,197.91,388.65,197.91z M140.77,385.1c-0.02,0.15-0.04,0.31-0.06,0.46c2.96,1.48,5.91,2.98,8.9,4.39
			c0.45,0.21,1.38,0.14,1.67-0.17c1.25-1.39,2.35-2.92,3.72-4.67C149.91,385.1,145.34,385.1,140.77,385.1z M83.14,367.2
			c0-2.4,0-4.68,0-7.02c-1.98,0-3.74,0-5.63,0c0,2.41,0,4.69,0,7.02C79.49,367.2,81.26,367.2,83.14,367.2z M64.17,360.14
			c-2.05,0-3.8,0-5.64,0c0,2.42,0,4.71,0,7.01c1.96,0,3.71,0,5.64,0C64.17,364.82,64.17,362.6,64.17,360.14z M67.19,385.68
			c-0.03-0.16-0.06-0.31-0.09-0.47c-4.57,0-9.14,0-14.24,0c1.5,1.78,2.65,3.23,3.92,4.56c0.28,0.29,1.08,0.41,1.47,0.23
			C61.25,388.62,64.22,387.13,67.19,385.68z M130.36,360.24c-1.97,0-3.77,0-5.55,0c0,2.44,0,4.67,0,6.93c1.94,0,3.69,0,5.55,0
			C130.36,364.8,130.36,362.57,130.36,360.24z M143.62,360.13c0,2.46,0,4.69,0,6.99c1.96,0,3.77,0,5.59,0c0-2.41,0-4.63,0-6.99
			C147.3,360.13,145.56,360.13,143.62,360.13z M96.5,360.22c0,2.5,0,4.72,0,6.94c1.96,0,3.71,0,5.52,0c0-2.37,0-4.58,0-6.94
			C100.09,360.22,98.35,360.22,96.5,360.22z M73.51,367.15c0-2.47,0-4.69,0-6.94c-1.95,0-3.7,0-5.57,0c0,2.38,0,4.6,0,6.94
			C69.86,367.15,71.61,367.15,73.51,367.15z M134.36,360.14c0,2.53,0,4.8,0,7.05c1.94,0,3.68,0,5.47,0c0-2.44,0-4.72,0-7.05
			C137.94,360.14,136.27,360.14,134.36,360.14z M92.73,360.23c-1.93,0-3.79,0-5.65,0c0,2.38,0,4.62,0,6.94c1.96,0,3.76,0,5.65,0
			C92.73,364.8,92.73,362.63,92.73,360.23z M54.52,367.21c0-2.5,0-4.72,0-6.99c-1.92,0-3.66,0-5.41,0c0,2.42,0,4.65,0,6.99
			C50.97,367.21,52.65,367.21,54.52,367.21z M120.84,367.17c0-2.47,0-4.69,0-6.96c-1.98,0-3.77,0-5.61,0c0,2.42,0,4.64,0,6.96
			C117.16,367.17,118.91,367.17,120.84,367.17z M105.98,367.06c2.01,0,3.73,0,5.42,0c0.98-6.71,0.33-7.57-5.07-6.91
			c-0.07,0.01-0.13,0.1-0.35,0.27C105.98,362.52,105.98,364.74,105.98,367.06z M158.63,367.15c0-2.47,0-4.7,0-7.03
			c-1.92,0-3.65,0-5.36,0c0,2.42,0,4.66,0,7.03C155.12,367.15,156.79,367.15,158.63,367.15z M104.37,162.39
			c-4.25,4.83-4.23,5.55,0.13,9.73C108.63,167.75,108.63,167.53,104.37,162.39z M133.29,344.65c-1.45,1.69-2.74,3.18-4.24,4.93
			c3.96,0,7.49,0,11.56,0C137.94,347.79,135.74,346.3,133.29,344.65z M120.67,301.79c-2.12-2-4.12-3.88-6.11-5.76
			c-0.17,0.11-0.35,0.22-0.52,0.33c0.86,3.32,1.73,6.63,2.74,10.52C118.27,304.92,119.42,303.41,120.67,301.79z M74.68,344.69
			c-2.36,1.6-4.42,2.99-6.48,4.39c0.09,0.17,0.18,0.34,0.27,0.5c3.4,0,6.8,0,10.65,0C77.49,347.79,76.16,346.32,74.68,344.69z
			 M87.56,302.2c1.05,1.25,2.23,2.64,3.78,4.48c0.86-3.84,1.59-7.13,2.46-10.97C91.5,298.1,89.67,300.01,87.56,302.2z
			 M113.43,242.43c1.43-1.75,2.66-3.26,4.15-5.09c-3.43,0-6.33,0-9.77,0C109.85,239.19,111.49,240.68,113.43,242.43z M131.95,343.69
			c-2.24-1.4-4.27-2.66-6.29-3.93c-0.14,0.16-0.29,0.32-0.43,0.48c0.7,2.73,1.4,5.45,2.22,8.65
			C129.16,346.91,130.47,345.41,131.95,343.69z M98.51,295.63c-0.27,0.08-0.54,0.16-0.8,0.24c0.43,3.41,0.85,6.82,1.32,10.56
			c3.72-2.99,4-4.37,1.87-7.5C100.14,297.82,99.31,296.73,98.51,295.63z M97.18,227.16c1.72-1.64,3.34-3.18,5.16-4.91
			c-3.24,0-6.08,0-9.43,0C94.49,224.06,95.73,225.49,97.18,227.16z M100.83,237.28c-3.57,0-6.56,0-10,0
			c1.61,1.87,2.9,3.37,4.31,5.01C97.05,240.61,98.78,239.09,100.83,237.28z M80.93,348.75c0.78-3.24,1.45-6.03,2.22-9.23
			c-2.53,1.45-4.62,2.66-6.89,3.96C77.83,345.24,79.21,346.8,80.93,348.75z M119.69,252.49c-3.48,0-6.44,0-9.92,0
			c2.15,1.83,3.85,3.28,5.69,4.85C116.89,255.7,118.15,254.25,119.69,252.49z M99.08,252.31c-3.85,0-6.93,0-10.44,0
			c1.62,1.81,2.95,3.29,4.42,4.94C94.98,255.67,96.77,254.2,99.08,252.31z M123.1,301.39c1.95,1.65,3.77,3.18,6.04,5.09
			c-0.83-3.87-1.53-7.12-2.34-10.89C125.42,297.76,124.35,299.44,123.1,301.39z M72.11,335.55c0.06,0.19,0.12,0.38,0.18,0.57
			c3.25,0,6.51,0,10.21,0c-1.6-1.77-2.88-3.19-4.29-4.76C76.08,332.83,74.1,334.19,72.11,335.55z M134.66,343.37
			c2.43,1.62,4.56,3.05,7.28,4.86c-1.09-3.45-2-6.3-3.02-9.53C137.37,340.39,136.09,341.8,134.66,343.37z M73.7,343.41
			c-1.57-1.65-2.83-2.95-4.36-4.55c-1,3.33-1.8,6-2.83,9.41C69.22,346.43,71.31,345.02,73.7,343.41z M116.46,273.12
			c-1.86-1.68-3.53-3.18-5.2-4.69c-0.16,0.12-0.31,0.24-0.47,0.36c0.48,3.02,0.97,6.05,1.54,9.63
			C113.91,276.39,115.08,274.88,116.46,273.12z M87.25,322.33c0.79-3.37,1.42-6.06,2.2-9.39c-2.48,1.66-4.38,2.93-6.4,4.28
			C84.44,318.93,85.65,320.39,87.25,322.33z M129.79,331.35c-1.42,1.6-2.67,3.01-3.99,4.5c3.42,0,6.56,0,10.4,0
			C133.73,334.11,131.89,332.82,129.79,331.35z M81.18,295.83c-0.79,3.76-1.42,6.78-2.22,10.56c2.32-1.87,4.04-3.25,5.9-4.75
			C83.68,299.77,82.62,298.1,81.18,295.83z M111.37,264.78c3.41,0,6.37,0,9.92,0c-2.18-1.86-3.91-3.34-5.76-4.92
			C114.08,261.57,112.85,263.02,111.37,264.78z M137.17,334.36c0.15-0.11,0.29-0.22,0.44-0.33c-0.77-2.64-1.55-5.27-2.26-7.71
			c-1.54,1.23-2.91,2.32-4.5,3.58C133.17,331.55,135.17,332.95,137.17,334.36z M97.02,264.76c-1.59-1.87-2.83-3.32-4.21-4.95
			c-1.84,1.59-3.54,3.06-5.73,4.95C90.72,264.76,93.58,264.76,97.02,264.76z M109.04,306.31c0.22-3.85,0.41-7.18,0.6-10.51
			c-1.29,0.99-2.04,2.04-2.72,3.14C104.87,302.24,105.12,303.35,109.04,306.31z M95.79,278.05c0.69-3.63,1.25-6.61,1.93-10.21
			c-2.2,1.94-3.96,3.5-5.84,5.16C93.13,274.62,94.25,276.06,95.79,278.05z M124.2,335.33c1.6-1.94,2.8-3.4,4.19-5.09
			c-2.13-1.39-4-2.6-6.37-4.15C122.79,329.34,123.42,332.01,124.2,335.33z M86.08,327.13c-0.14-0.18-0.29-0.35-0.43-0.53
			c-1.87,1.22-3.74,2.44-5.86,3.82c1.47,1.6,2.78,3.03,4.37,4.77C84.89,332.13,85.48,329.63,86.08,327.13z M109.52,249.7
			c3.23,0,6.04,0,9.28,0c-2.04-1.77-3.66-3.19-5.37-4.67C112.04,246.68,110.86,248.1,109.52,249.7z M107.66,234.69
			c3.26,0,5.88,0,8.57,0c-1.53-1.65-2.92-3.14-4.42-4.75C110.41,231.54,109.2,232.93,107.66,234.69z M127.49,338.24
			c-0.05,0.15-0.1,0.3-0.15,0.45c1.91,1.22,3.81,2.45,5.79,3.72c1.35-1.44,2.53-2.7,3.9-4.16
			C133.61,338.24,130.55,338.24,127.49,338.24z M114.11,279.23c3.14,0,5.9,0,9.05,0c-1.89-1.72-3.49-3.18-5.31-4.83
			C116.61,276,115.5,277.44,114.11,279.23z M85.22,279.16c3.12,0,5.88,0,9.07,0c-1.53-1.83-2.73-3.28-4.01-4.81
			C88.5,276.05,86.94,277.53,85.22,279.16z M72.88,325.73c-0.81,3-1.5,5.59-2.2,8.18c0.17,0.09,0.33,0.18,0.5,0.27
			c1.89-1.31,3.79-2.62,5.85-4.05C75.58,328.59,74.37,327.31,72.88,325.73z M102.11,190.99c-1.73-2.52-3.23-4.7-4.72-6.89
			c-0.18,0.12-0.36,0.23-0.54,0.35c-0.22,2.14-0.45,4.27-0.68,6.54C98.16,190.99,99.88,190.99,102.11,190.99z M101.02,234.66
			c-1.45-1.81-2.66-3.32-3.97-4.95c-1.79,1.66-3.35,3.11-5.33,4.95C95.05,234.66,97.81,234.66,101.02,234.66z M83.49,278.2
			c2.14-2,3.88-3.62,5.73-5.34c-1.34-1.52-2.53-2.87-4.03-4.57C84.59,271.77,84.09,274.68,83.49,278.2z M112.58,191.02
			c-0.23-2.43-0.44-4.71-0.66-7c-0.18-0.01-0.36-0.01-0.54-0.02c-1.54,2.26-3.08,4.52-4.78,7.02
			C108.83,191.02,110.57,191.02,112.58,191.02z M124.2,277.51c0.17-0.09,0.35-0.18,0.52-0.28c-0.45-2.8-0.9-5.59-1.42-8.84
			c-1.62,1.76-2.86,3.11-4.21,4.59C120.87,274.56,122.53,276.04,124.2,277.51z M119.03,312.95c0.73,3.36,1.31,6,1.98,9.08
			c1.58-1.84,2.81-3.26,4.12-4.78C123.1,315.83,121.33,314.58,119.03,312.95z M74.44,320.56c0.12,0.14,0.24,0.29,0.35,0.43
			c1.87-1.28,3.75-2.55,5.74-3.91c-1.35-1.66-2.46-3.02-3.84-4.72C75.88,315.33,75.16,317.95,74.44,320.56z M91.62,295.32
			c-3.07,0-5.72,0-8.61,0c1.18,1.78,2.19,3.3,3.32,5.01C88.14,298.62,89.75,297.1,91.62,295.32z M89.51,249.69c3.5,0,6.28,0,9.47,0
			c-1.43-1.79-2.62-3.26-3.88-4.84C93.25,246.45,91.62,247.86,89.51,249.69z M103.7,176.87c-1.73-2.71-3.1-4.85-4.47-6.99
			c-0.19,0.08-0.38,0.16-0.58,0.24c-0.27,2.19-0.54,4.39-0.84,6.75C99.69,176.87,101.27,176.87,103.7,176.87z M132.15,322.82
			c0.04-0.15,0.08-0.3,0.12-0.45c-1.91-1.29-3.82-2.58-5.86-3.96c-1.21,1.5-2.29,2.82-3.58,4.41
			C126.25,322.82,129.2,322.82,132.15,322.82z M84.19,325.52c-0.06-0.17-0.12-0.33-0.18-0.5c-2.92-0.13-5.83-0.26-9.45-0.42
			c1.74,1.85,2.94,3.12,4.19,4.45C80.68,327.79,82.43,326.65,84.19,325.52z M110.28,170.09c-0.24-0.09-0.47-0.17-0.71-0.26
			c-1.3,2.19-2.59,4.39-4.16,7.03c2.29,0,3.8,0,5.57,0C110.74,174.54,110.51,172.31,110.28,170.09z M121.8,300.27
			c1.15-1.86,2.09-3.4,3.07-5c-2.89,0-5.46,0-8.49,0C118.35,297.09,119.93,298.55,121.8,300.27z M251.36,126.41
			c0.03-0.32,0.06-0.64,0.09-0.96c-2.72-0.87-5.44-1.75-8.56-2.75c0.35,1.75,0.6,3.05,0.9,4.56
			C246.45,126.96,248.9,126.68,251.36,126.41z M99.58,254.77c-0.15-0.11-0.31-0.21-0.46-0.32c-1.6,1.37-3.2,2.73-4.9,4.18
			c1.34,1.54,2.47,2.83,3.97,4.55C98.72,259.98,99.15,257.38,99.58,254.77z M131.22,312.42c-1.35,1.76-2.39,3.13-3.54,4.64
			c2.03,1.4,3.81,2.64,6.21,4.3C132.9,318.05,132.14,315.51,131.22,312.42z M103.55,223.8c-2,1.83-3.48,3.2-5.11,4.69
			c1.37,1.53,2.58,2.87,4.27,4.76C103.01,229.86,103.24,227.2,103.55,223.8z M100.15,279.15c2.9,0,5.26,0,8.04,0
			c-1.49-1.77-2.7-3.21-4.07-4.84C102.78,275.95,101.62,277.36,100.15,279.15z M91.61,258.41c-1.42-1.58-2.58-2.86-4.09-4.54
			c-0.46,3.17-0.84,5.75-1.21,8.34c0.19,0.06,0.37,0.13,0.56,0.19C88.39,261.13,89.9,259.86,91.61,258.41z M111.93,227.17
			c1.3-1.63,2.43-3.03,3.8-4.75c-3.05,0-5.6,0-8.79,0C108.82,224.21,110.25,225.58,111.93,227.17z M104.43,157.56
			c3.32-3.6,3.29-4-0.29-7.06c-0.9,1.21-1.79,2.41-2.71,3.64C102.51,155.37,103.41,156.4,104.43,157.56z M102.41,207.61
			c-2.86,0-5.18,0-8.04,0c1.49,1.79,2.64,3.17,3.88,4.65C99.69,210.65,100.87,209.33,102.41,207.61z M80.59,338.97
			c-0.02-0.18-0.04-0.37-0.06-0.55c-2.94,0-5.88,0-8.95,0c3.29,4.15,3.29,4.15,7.4,1.6C79.53,339.68,80.06,339.32,80.59,338.97z
			 M101.78,239.7c-0.19-0.06-0.38-0.12-0.57-0.18c-1.53,1.29-3.06,2.58-4.77,4.02c1.27,1.48,2.42,2.82,3.9,4.54
			C100.88,244.9,101.33,242.3,101.78,239.7z M122.28,263.12c-0.54-3.22-0.99-5.86-1.53-9.07c-1.55,1.71-2.69,2.98-3.98,4.39
			C118.57,259.97,120.19,261.34,122.28,263.12z M106.64,219.63c2.96,0,5.37,0,8.15,0c-1.51-1.66-2.78-3.07-4.14-4.57
			C109.37,216.51,108.22,217.83,106.64,219.63z M117.83,271.85c1.26-1.46,2.38-2.77,3.7-4.31c-3.06,0-5.66,0-8.74,0
			C114.69,269.16,116.2,270.45,117.83,271.85z M93.69,219.54c2.85,0,5.33,0,8.18,0c-1.41-1.68-2.56-3.06-3.81-4.57
			C96.56,216.54,95.28,217.87,93.69,219.54z M84.77,323.01c0.09-0.21,0.17-0.43,0.26-0.64c-1.11-1.23-2.22-2.47-3.39-3.77
			c-1.94,1.25-3.68,2.38-6.01,3.88C79.1,322.68,81.94,322.85,84.77,323.01z M132.89,325.03c-2.62,0-5.52,0-9.12,0
			c2.28,1.53,3.98,2.67,5.75,3.86C130.73,327.5,131.84,326.24,132.89,325.03z M114.06,258.84c-1.7-1.52-3.25-2.91-5.15-4.61
			c0.39,3.25,0.7,5.9,1.08,9.05C111.57,261.56,112.74,260.28,114.06,258.84z M121.37,311.71c-0.05,0.17-0.09,0.34-0.14,0.51
			c1.67,1.26,3.33,2.52,5,3.78c1.35-1.62,2.35-2.83,3.56-4.29C126.71,311.71,124.04,311.71,121.37,311.71z M105.96,224.3
			c0.15,3.06,0.28,5.71,0.44,9.03c1.63-1.96,2.79-3.35,4.08-4.9C108.98,227.07,107.67,225.87,105.96,224.3z M90.62,271.83
			c1.62-1.52,3.02-2.83,4.75-4.46c-3.08,0-5.54,0-8.39,0C88.28,268.95,89.33,270.24,90.62,271.83z M102.95,272.87
			c-1-1.36-1.97-2.68-3.25-4.41c-0.47,3.47-0.87,6.37-1.26,9.27c0.18,0.03,0.36,0.06,0.55,0.09
			C100.28,276.18,101.59,274.56,102.95,272.87z M78.54,311.85c1.28,1.49,2.31,2.69,3.44,4.01c1.82-1.27,3.48-2.43,5.74-4.01
			C84.31,311.85,81.67,311.85,78.54,311.85z M118.5,239.37c-1.48,1.58-2.57,2.73-3.79,4.03c1.65,1.49,3.13,2.84,4.6,4.18
			c0.14-0.11,0.28-0.22,0.42-0.33C119.35,244.8,118.97,242.35,118.5,239.37z M108.28,248.26c1.5-1.81,2.59-3.14,3.75-4.54
			c-1.54-1.4-2.92-2.65-4.68-4.24C107.68,242.6,107.95,245.13,108.28,248.26z M88.66,247.42c0.17,0.09,0.34,0.18,0.5,0.27
			c1.48-1.38,2.97-2.76,4.52-4.21c-1.34-1.5-2.42-2.7-3.74-4.18C89.46,242.34,89.06,244.88,88.66,247.42z M103.47,209.38
			c-1.59,1.73-2.79,3.03-4.1,4.45c1.36,1.44,2.58,2.73,4.1,4.34C103.47,215.08,103.47,212.53,103.47,209.38z M107.39,295.16
			c-2.34,0-4.45,0-6.96,0c1.27,1.86,2.35,3.44,3.54,5.19C105.25,298.4,106.26,296.88,107.39,295.16z M102.37,193.81
			c-2.47,0-4.49,0-7.13,0c1.23,1.78,2.15,3.11,3.25,4.69C99.88,196.82,101.03,195.42,102.37,193.81z M92.08,224.43
			c-0.46,3.01-0.83,5.47-1.31,8.61c1.95-1.85,3.38-3.21,4.94-4.69C94.54,227.09,93.48,225.95,92.08,224.43z M106.32,193.74
			c1.37,1.73,2.53,3.19,3.85,4.85c1.05-1.67,1.91-3.03,3.06-4.85C110.59,193.74,108.69,193.74,106.32,193.74z M103.23,195.51
			c-1.38,1.7-2.41,2.95-3.59,4.4c1.17,1.27,2.24,2.43,3.59,3.9C103.23,200.85,103.23,198.49,103.23,195.51z M106.48,207.7
			c1.62,1.83,2.81,3.18,4.18,4.73c1.18-1.62,2.19-3,3.45-4.73C111.45,207.7,109.3,207.7,106.48,207.7z M105.68,209.67
			c0,2.8,0,5.31,0,8.33c1.45-1.65,2.55-2.89,3.7-4.2C108.15,212.43,107.03,211.18,105.68,209.67z M109.31,277.44
			c0.17-0.06,0.33-0.11,0.5-0.17c-0.34-2.58-0.69-5.15-1.11-8.32c-1.26,1.6-2.17,2.75-3.17,4.02
			C106.86,274.54,108.09,275.99,109.31,277.44z M117.68,232.62c-0.39-2.79-0.73-5.22-1.15-8.27c-1.36,1.6-2.35,2.77-3.29,3.86
			C114.74,229.7,116.04,230.99,117.68,232.62z M105.94,159.89c1.24,1.5,2.33,2.82,3.43,4.14c0.14-0.08,0.28-0.16,0.42-0.24
			c-0.18-2.38-0.36-4.76-0.59-7.73C107.87,157.6,107,158.64,105.94,159.89z M105.01,195.53c0.15,2.96,0.27,5.32,0.41,8.15
			C109.28,199.44,109.46,200.51,105.01,195.53z M255.52,144.21c-1.81,0.28-3.33,0.51-5.04,0.77c0.55,1.36,1.06,2.62,1.86,4.62
			C253.5,147.29,256.25,146.93,255.52,144.21z M89.03,306.92c-1.15-1.41-2.07-2.55-3.07-3.77c-1.5,1.22-2.8,2.27-4.64,3.77
			C84.24,306.92,86.4,306.92,89.03,306.92z M101.86,205.11c-1.29-1.45-2.31-2.58-3.43-3.83c-1.1,1.22-2.12,2.36-3.45,3.83
			C97.51,205.11,99.48,205.11,101.86,205.11z M104.33,139.57c-2.8,2.95-2.79,3.1,0.15,5.66
			C107.09,142.38,107.09,142.28,104.33,139.57z M106.78,205.04c2.35,0,4.37,0,6.86,0c-1.51-1.29-2.64-2.26-3.87-3.31
			C108.95,202.64,107.99,203.7,106.78,205.04z M119.03,306.74c2.64,0,4.85,0,7.6,0c-1.78-1.46-3.11-2.56-4.61-3.8
			C121,304.23,120.13,305.34,119.03,306.74z M104.34,134.4c2.74-2.9,2.74-3.27-0.02-5.66C101.86,131.74,101.86,131.74,104.34,134.4z
			 M96.9,213.38c-1.07-1.13-1.93-2.04-3.07-3.24c-0.39,2.64-0.71,4.82-1.15,7.75C94.37,216.09,95.55,214.83,96.9,213.38z
			 M99.15,163.66c0.18,0.07,0.36,0.13,0.53,0.2c0.95-1.24,1.9-2.48,2.92-3.81c-0.96-1.08-1.79-2.01-3.04-3.43
			C99.4,159.4,99.27,161.53,99.15,163.66z M111.87,213.6c1.28,1.34,2.37,2.49,3.47,3.64c0.13-0.1,0.27-0.2,0.4-0.29
			c-0.28-2.06-0.55-4.12-0.9-6.73C113.69,211.52,112.9,212.41,111.87,213.6z M101.36,267.69c1.15,1.57,1.99,2.71,2.96,4.03
			c1.15-1.37,2.15-2.55,3.39-4.03C105.41,267.69,103.65,267.69,101.36,267.69z M106.01,147.92c0.86,1.18,1.67,2.3,2.63,3.62
			c0-2.43,0-4.48,0-7.19C107.49,145.9,106.79,146.86,106.01,147.92z M104.4,105.65c2.37-2.53,2.35-2.98-0.15-4.97
			C102.53,102.3,101.95,103.96,104.4,105.65z M104.45,115.07c2.14-2.23,2.11-2.64-0.23-4.54
			C102.2,112.15,102.48,113.65,104.45,115.07z M100.05,151.46c1.1-1.45,1.82-2.4,2.65-3.5c-0.78-0.89-1.5-1.71-2.65-3.04
			C100.05,147.42,100.05,149.14,100.05,151.46z M108.28,139.57c0-1.82,0-3.37,0-5.07C105.69,136.72,105.69,136.96,108.28,139.57z
			 M103.95,303.55c-0.84,1.13-1.46,1.97-2.21,2.99c1.6,0,2.75,0,4.17,0C105.22,305.49,104.7,304.7,103.95,303.55z M111.27,199.95
			c0.75,0.89,1.47,1.75,2.19,2.61c0.17-0.1,0.34-0.2,0.51-0.29c-0.19-1.5-0.37-3-0.62-5.01c-0.78,0.93-1.15,1.35-1.49,1.79
			C111.66,199.28,111.51,199.56,111.27,199.95z M104.38,119.95c-1.77,1.93-1.77,1.93,0.17,3.82c0.47-0.53,0.94-1.06,1.47-1.66
			C105.44,121.36,104.92,120.66,104.38,119.95z M94.61,202.06c0.18,0.07,0.36,0.14,0.54,0.2c0.65-0.86,1.3-1.72,2.02-2.68
			c-0.64-0.69-1.13-1.22-1.93-2.08C94.99,199.37,94.8,200.71,94.61,202.06z"/>
		<g>
			<path class="st0" d="M391.73,248.75c-1.18-0.89-0.76-1.4,0.05-2.04c3.61-2.84,7.24-5.66,10.73-8.64
				c1.46-1.25,2.35-3.06,2.39-5.05c0.07-4.29-0.01-8.58,0.04-12.88c0.01-0.53,0.42-1.06,0.64-1.59c0.26,0.51,0.75,1.02,0.75,1.53
				c0.07,4.29,0.02,8.58,0.11,12.88c0.02,0.73,0.61,1.43,0.82,2.17c0.21,0.76,0.63,1.76,0.33,2.31c-0.35,0.64-1.36,0.96-2.13,1.31
				c-0.7,0.32-1.61,0.32-2.19,0.77C399.43,242.53,395.63,245.62,391.73,248.75z"/>
		</g>
	</g>
	<polygon class="st0" points="0.25,495.13 0.25,547.6 499.75,547.6 499.75,495.15 	"/>
</g>
<polygon class="st0" points="-45.71,670.79 -45.71,723.26 453.79,723.26 453.79,670.81 "/>
</svg>
