<?xml version="1.0" encoding="utf-8"?>
<!-- Generator: Adobe Illustrator 24.3.0, SVG Export Plug-In . SVG Version: 6.00 Build 0)  -->
<svg version="1.1" id="Layer_1" xmlns="http://www.w3.org/2000/svg" xmlns:xlink="http://www.w3.org/1999/xlink" x="0px" y="0px"
	 viewBox="0 0 500 500" style="enable-background:new 0 0 500 500;" xml:space="preserve">
<style type="text/css">
	.st0{fill:#012039;}
</style>
<g>
	<g>
		<path class="st0" d="M-134.2,500c-87.18-0.01-174.36-0.02-261.54-0.02c-78.48,0-156.95,0-235.43,0c-0.8,0-1.59,0-2.53,0
			c0-18.12,0-36.04,0-54.22c2.48,0,4.9-0.06,7.31,0.02c1.39,0.04,2.3-0.31,2.03-1.87c-0.52-2.98,0.94-5.21,2.42-7.61
			c12.34-19.99,24.58-40.03,36.84-60.07c0.41-0.67,0.73-1.4,1.29-2.48c-1.99,0-3.64,0-5.46,0c0-6.65,0-13.01,0-19.64
			c3.87,0,7.67-0.06,11.47,0.03c1.5,0.04,2.27-0.28,2.78-1.87c6.73-20.9,12.39-42.09,17.1-63.53c0.13-0.61,0.14-1.25,0.24-2.13
			c-2.22,0-4.3,0-6.54,0c0-1.57,0-2.9,0-4.58c1.96,0,3.88-0.06,5.8,0.02c1.38,0.06,1.93-0.37,2.2-1.84
			c5.36-28.78,9.58-57.73,12.98-86.8c3.72-31.77,5.68-63.65,5.28-95.65c-1.87-4.48-1.37-9.24-1.7-13.91
			c-0.04-0.54-0.76-1.15-1.31-1.5c-2.09-1.35-3.16-3.13-3.08-5.68c0.1-3.47,0.03-6.95,0.03-10.65c2.52-0.17,4.6-0.3,6.68-0.44
			c0-0.09,0-0.19,0-0.28c-1.59,0-3.18,0-4.72,0c-0.79-4.05-0.06-5.01,3.65-5.04c1.44-0.01,2.88,0,4.6,0c0-3.41-0.07-6.56,0.05-9.7
			c0.03-0.75,0.5-1.97,1.02-2.13c1.73-0.53,1.86-1.62,1.89-3.14c0.09-6.18,0.3-12.36,0.5-18.53c0.02-0.71,0.24-1.42,0.37-2.13
			c0.28,0,0.56,0.01,0.84,0.01c0.11,0.79,0.28,1.58,0.31,2.37c0.18,6.18,0.35,12.36,0.49,18.53c0.03,1.27-0.05,2.38,1.68,2.71
			c0.5,0.1,1.11,1.28,1.14,1.99c0.12,3.23,0.05,6.47,0.05,10.01c1.98,0,3.74-0.03,5.51,0.01c2,0.05,2.99,1.33,2.95,3.54
			c-0.04,2.05-1.56,1.41-2.65,1.52c-0.72,0.07-1.46,0.01-2.19,0.38c1.91,0,3.83,0,6.25,0c0,4.51,0.21,8.78-0.13,13.01
			c-0.1,1.26-1.77,2.36-2.62,3.61c-0.57,0.84-1.27,1.77-1.39,2.72c-0.27,2.25,0.04,4.59-0.34,6.81c-2.75,15.86-0.7,31.74,0.01,47.57
			c0.71,15.91,2.05,31.81,3.78,47.65c2.46,22.46,5.38,44.87,8.4,67.26c1.24,9.24,3.24,18.37,4.95,27.81c2.74,0,5.3,0,7.93,0
			c0,1.57,0,2.84,0,4.44c-2.26,0-4.41,0-6.86,0c1.2,5.68,2.32,10.99,3.43,16.3c3.49,16.73,8.35,33.08,13.69,49.3
			c0.51,1.56,1.2,1.97,2.73,1.93c3.81-0.11,7.63-0.03,11.69-0.03c0,6.53,0,12.89,0,19.49c-1.73,0.08-3.47,0.15-5.64,0.25
			c0.61,1.14,1.04,2.05,1.57,2.9c12.72,20.7,25.47,41.4,38.16,62.12c0.51,0.83,0.65,1.94,0.76,2.94c0.13,1.19,0.03,2.41,0.03,3.8
			c2.32,0,4.54,0,6.98,0c0.05-0.7,0.09-1.4,0.16-2.1c0.55-5.58,1.1-11.16,1.69-17.07c1.95,0,4.1,0,6.46,0c0-3.67,0-7.05,0-10.51
			c1.14-0.16,2.07-0.29,3.21-0.45c1.01-17.4,2.02-34.75,3.05-52.42c-2.11,0-4.15,0-6.35,0c0-4.75,0-9.18,0-13.86
			c3.1,0,6.08,0,9.34,0c-0.07-2.42,0.9-4.55-1.45-6.52c-1.03-0.86-1.2-2.97-1.38-4.55c-0.22-2-0.05-4.04-0.05-6.25
			c1.57-0.11,2.99-0.2,4.63-0.31c0-2.73,0-5.38,0-8.32c2.06,0,3.91-0.1,5.75,0.03c1.46,0.1,2.35-0.43,2.74-1.79
			c1.73-5.98,3.44-11.96,5.16-17.94c-0.23-0.11-0.46-0.22-0.69-0.33c-0.7,0.48-1.41,0.95-2.53,1.72c0.65-4.81,1.37-9.11,1.76-13.44
			c0.17-1.86-0.39-3.78-0.53-5.68c-0.05-0.65,0-1.41,0.3-1.96c0.73-1.35,1.64-2.6,2.42-3.8c-0.09-0.31-0.08-0.51-0.18-0.6
			c-4.14-3.78-5.18-7.81-0.75-11.98c-4.04-4.2-3.07-9.23-3.51-13.88c-0.13-1.43,0.47-2.95,0.29-4.36c-0.36-2.76-0.68-5.62-1.67-8.19
			c-1.23-3.18-1.74-6.23-0.67-9.48c1.31-3.99,2.63-7.98,3.96-12c-6.89-0.42-9.86-5.95-6.48-11.95c2.16-3.82,4.46-7.56,6.62-11.38
			c0.4-0.7,0.69-1.65,0.57-2.41c-0.71-4.62-1.49-9.24-2.41-13.83c-0.13-0.63-1.04-1.31-1.74-1.6c-3.8-1.57-4.23-2.87-2.2-6.5
			c0.44-0.78,0.86-2.27,0.48-2.7c-3.6-4.06-4.32-8.43-1.77-13.21c-4.41-2.18-5.72-4.74-4.51-9.51c1.34-5.3,3.42-10.32,6.81-14.72
			c0.41-0.53,0.62-1.49,0.46-2.15c-2.16-9.17-3.03-18.43-2.08-27.96c-0.82-0.16-1.5-0.29-2.15-0.41c-0.13-0.17-0.29-0.3-0.3-0.43
			c-0.19-3.55-0.34-7.11-0.56-10.65c-0.04-0.7-0.25-1.45-0.58-2.06c-1.42-2.65-1.58-5.37-0.99-8.28c0.2-0.97-0.26-2.07-0.48-3.53
			c2.49-1.45,0.11-4.11,0.62-6.28c-1.97-0.37-4.25-0.15-5.19-1.16c-0.84-0.9-0.17-3.17-0.23-4.84c-0.03-1.03-0.16-2.06-0.27-3.36
			c2.35,0,4.51,0,6.62,0c0.71-1.9,0.55-3.21-0.88-4.56c-2.65-2.5-3.13-7-0.58-10.02c2.3-2.73,5.38-4.81,8.13-7.15
			c0.76-0.64,1.59-1.19,2.76-2.05c1,1.51,2.11,3.3,0.91,5.77c0.19,0.16,0.39,0.31,0.58,0.47c2.4-1.85,4.81-3.69,7.21-5.53
			c0.02,0.03,0.2,0.17,0.18,0.26c-0.8,3.28-1.66,6.55-2.43,9.84c-0.83,3.51-2.61,6.4-5.14,8.97c-0.88,0.89-1.21,2.32-2.1,4.13
			c3.06,0,5.22,0,7.1,0c0.15,2.6,0.4,4.84,0.32,7.08c-0.02,0.61-0.97,1.57-1.63,1.7c-1.31,0.27-2.72,0.08-4.15,0.08
			c-0.22,0.84-0.31,1.48-0.55,2.06c-1.04,2.46-0.64,4.38,0.8,6.84c1.29,2.2,1.28,5.48,1.02,8.21c-0.5,5.31-0.65,10.55,0.49,15.77
			c0.92,4.2,2.03,8.37,2.96,12.57c0.4,1.81,0.58,3.68,0.9,5.83c3.93,0.02,7.85,1.9,12.4-0.05c-3.82-4.45-7.18-8.35-10.54-12.26
			c0.11-0.14,0.22-0.27,0.33-0.41c0.99,0.73,2,1.44,2.96,2.2c2.6,2.08,5.24,4.13,7.75,6.32c1.47,1.29,2.83,1.48,4.64,0.7
			c1.32-0.57,1.86-1.23,1.89-2.66c0.08-3.64,0.32-7.27,1.05-10.99c0.57,2.96,1.14,5.93,1.7,8.89c0.17,0.88,0.29,1.77,0.49,2.64
			c0.49,2.17,2.62,2.9,4.32,1.47c3.57-2.99,7.13-6.01,11.05-8.66c-2.92,3.73-5.85,7.46-8.78,11.2c1.11,1.59,2.4,1.85,4.09,1.35
			c4.34-1.3,8.72-2.48,13.3-3.18c-4.31,2.02-8.63,4.05-12.94,6.07c-0.09,0.25-0.18,0.49-0.27,0.74c0.82,0.34,1.63,0.98,2.45,0.98
			c3.82,0.01,7.64-0.16,11.46-0.25c0.85-0.02,1.7,0.08,2.58,0.69c-5.21,0.83-10.42,1.66-16.16,2.58c0.2,2.87,0.41,5.57,0.57,8.27
			c0.04,0.64,0.1,1.41-0.19,1.91c-1.51,2.55-0.85,4.91-0.01,7.53c0.79,2.44,2.21,5.14-0.47,7.66c-1,0.94,0.64,4.72,2.01,5.42
			c1.37,0.7,2.81,1.31,4.09,2.16c0.53,0.36,0.71,1.24,1.06,1.88c0.33,0.61,0.54,1.6,1.01,1.75c3.33,1.06,4.18,3.79,4.9,6.71
			c1.6,6.46,4.56,12.28,8.36,17.7c0.6,0.86,0.98,1.88,1.46,2.83c0.41-0.29,0.82-0.57,1.23-0.86c1.04-3.7,2.08-7.4,3.23-11.49
			c5.31,1.67,10.51,3.14,15.59,4.98c1.92,0.7,3.53,2.23,5.6,3.59c-0.48,1.38-0.35,3.38-2.6,4.69c-2.11,1.23-2.66,5.18-1.67,7.52
			c0.26,0.62,0.48,1.43,0.31,2.03c-0.7,2.4-1.64,4.73-2.33,7.13c-0.77,2.64-2.41,4.21-5.13,4.5c-1.52,0.16-2.54,0.73-3.07,2.25
			c-1.02,2.98-2.19,5.91-3.2,8.89c-0.44,1.3-0.62,2.69-0.97,4.03c-1.68,6.46-3.69,7.84-10.42,7.01c0.52,4.88,1,9.7,1.54,14.52
			c0.83,7.35,1.7,14.7,2.53,22.05c0.06,0.53,0.1,1.37-0.2,1.58c-2.33,1.69-1.54,4.05-1.44,6.23c0.07,1.46-0.09,2.57-1.41,3.59
			c-0.69,0.53-1.03,1.94-0.97,2.91c0.24,4.06,0.67,8.1,1.09,12.14c0.17,1.63,0.13,3.06-1.46,4.07c-0.38,0.24-0.68,0.94-0.66,1.41
			c0.33,6.07,0.73,12.13,1.12,18.29c1.33,0.1,2.44,0.18,3.84,0.29c0,2.71,0,5.35,0,8.22c1.73,0,3.16,0,4.66,0
			c0.76,4.06,0.92,8.17-1.49,11.15c-1.76,2.17-1.43,3.94-1.4,6.31c3.11,0,6.09,0,9.25,0c0,4.65,0,9.07,0,13.78
			c-2.05,0-4.12,0-6.47,0c0.97,17.71,1.93,35.11,2.89,52.62c1.06,0.13,2,0.25,3.2,0.4c0,3.43,0,6.81,0,10.4c2.26,0,4.26,0,6.68,0
			c0,2.29-0.14,4.37,0.03,6.43c0.36,4.25,0.89,8.48,1.37,12.88c4.15,0,8.34,0,12.64,0c0-21.17,0-42.27,0-63.48
			c2.37-0.86,2.76-3.24,2.76-5.37c-0.02-6.91-0.35-13.82-0.58-20.73c-0.02-0.63,0-1.39-0.33-1.88c-2.03-3.02-1.56-6.23-1.31-9.62
			c0.39-5.32,0.35-10.7,0.01-16.02c-0.14-2.19-1.82-4.24-2.31-6.46c-1.05-4.75-0.92-4.78,1.75-9.8c0.14,1.66,0.24,2.76,0.33,3.86
			c-0.15-3.5,1.62-7.06-0.58-10.55c-0.6-0.95-0.05-2.71,0.2-4.06c0.16-0.83,1.19-1.64,1.08-2.34c-0.61-3.84,1.86-6.07,4.23-8.25
			c1.73-1.59,2.38-3.31,2.21-5.58c-0.15-2.1-0.02-4.23-0.09-6.34c-0.06-1.72,0.15-3.1,1.47-4.59c1.1-1.25,1.37-3.42,1.58-5.24
			c0.56-4.68,0.84-9.38,1.33-14.07c0.11-1,0.65-1.96,0.99-2.93c0.3,0.01,0.59,0.02,0.89,0.03c0.28,0.84,0.71,1.66,0.81,2.52
			c0.69,5.87,1.31,11.75,1.97,17.63c0.05,0.48,0.03,1.14,0.32,1.4c2.94,2.65,2.03,6.17,1.86,9.31c-0.24,4.42,1.32,8.03,3.83,11.38
			c1.53,2.04,2.16,4.2,2.22,6.76c0.16,6.83,0.49,13.65,0.97,20.46c0.14,2.06,1.13,4.04,1.46,6.1c0.21,1.32-0.03,2.71-0.12,4.07
			c-0.17,2.38-0.43,4.76-0.56,7.14c-0.08,1.43,0.85,3.14-1.47,3.78c-0.33,0.09-0.49,1.28-0.51,1.96
			c-0.32,10.81-0.67,21.62-0.81,32.43c-0.02,1.4-0.13,3.28,1.72,4.3c0.48,0.27,0.52,1.59,0.52,2.42c0,17.57-0.04,35.13-0.05,52.7
			c0,2.36,0.02,4.73,0.28,7.06c0.08,0.75,0.97,1.99,1.52,2c5.18,0.15,10.36,0.09,15.66,0.09c0.06-0.67,0.15-1.14,0.14-1.6
			c-0.62-20.48-1.27-40.96-1.88-61.45c-0.93-31.29-1.83-62.59-2.75-93.88c-0.2-6.83-0.39-13.66-0.59-20.48
			c-0.1-3.61-0.1-3.61-3.84-4.21c0-19.52,0-39.07,0-58.9c1.42,0,2.84,0,4.35,0c0.14-0.69,0.32-1.14,0.32-1.59
			c-0.04-6.91-0.1-13.82-0.19-20.74c-0.01-1.15,0.35-2.53-1.32-3c-0.15-0.04-0.35-0.42-0.31-0.6c0.56-2.61,1.15-5.21,1.74-7.82
			c0.37,0.01,0.74,0.02,1.11,0.03c0.46,1.56,1,3.11,1.37,4.69c0.34,1.47,1.24,2.98-0.62,4.31c-0.49,0.36-0.21,1.85-0.22,2.82
			c-0.02,2.32-0.01,4.63-0.01,6.95c0.24,0.07,0.49,0.14,0.73,0.2c4.39-8.26,8.79-16.52,13.32-25.05c-3.5-0.73-2.28-3.13-2.3-4.91
			c-0.01-0.81,0.86-1.62,1.33-2.43c0.23,0.07,0.46,0.14,0.69,0.21c0-10.39,0-20.77,0-31.32c0.85,0,1.52,0,2.36,0
			c0.16,2.38,0.32,4.7,0.52,7.62c0.61-0.97,0.96-1.44,1.22-1.95c2.85-5.66,5.65-11.35,8.52-17c3.83-7.54,4.57-15.69,4.76-23.94
			c0.01-0.59-0.19-1.31-0.56-1.76c-1.84-2.27-1.66-3.04,1.23-4.04c-0.12-1.48-0.45-3.01-0.31-4.5c0.13-1.36,0.79-2.66,1.39-4.55
			c2.43,3.17,1.91,6.04,1.47,8.86c3.07,1.38,3.03,1.35,1.12,4.38c-0.35,0.55-0.33,1.4-0.32,2.11c0.09,9.78,1.27,19.25,6.46,27.91
			c2.66,4.43,4.72,9.22,7.61,13.77c0.11-2.19,0.22-4.39,0.33-6.74c0.8,0,1.48,0,2.27,0c0,10.42,0,20.72,0,30.98
			c3.8,1.17,1.35,4.21,2.37,6.32c-0.97,0.35-1.69,0.61-2.86,1.03c4.55,8.4,9,16.63,13.46,24.87c0.16-0.06,0.33-0.12,0.49-0.18
			c0-3.11,1.05-6.8-0.25-9.21c-1.81-3.34,0.11-5.66,0.38-8.4c0.04-0.39,0.52-0.73,1.36-1.85c0.79,3.25,1.42,5.85,2.05,8.45
			c-3.54,3.77-1.36,8.38-1.73,12.58c-0.38,4.34-0.09,8.74-0.09,13.33c1.77,0,3.28,0,4.98,0c0,19.83,0,39.44,0,58.99
			c-3.75,0.69-3.77,0.69-3.88,4.4c-1.37,45.27-2.74,90.55-4.08,135.82c-0.38,12.76-0.67,25.52-0.99,38.29c-0.02,0.96,0,1.91,0,3.05
			c5.96,0,11.68,0,17.68,0c0-2.66-0.16-5.25,0.03-7.81c0.83-11.72-1.61-23.27-1.81-34.94c-0.04-2.11-0.03-4.24-0.26-6.33
			c-0.24-2.12-0.57-4.26-1.18-6.3c-1.26-4.21,1-11.97,4.46-15.08c0.46-0.42,0.42-1.4,0.59-2.13c0.51-2.26,0.68-4.67,1.59-6.75
			c0.9-2.05,2.97-2.14,3.92-0.15c1.04,2.17,1.25,4.74,1.84,7.13c0.18,0.72,0.19,1.8,0.66,2.07c2.64,1.55,3.35,4.1,3.76,6.79
			c0.33,2.16,1.03,4.53,0.51,6.52c-2.49,9.45-0.58,19.24-2.48,28.67c-1.88,9.36-0.12,18.74-1.03,28.29c4.36,0,8.37,0,12.55,0
			c0.06-0.69,0.13-1.3,0.17-1.93c0.02-0.32,0-0.65,0-0.98c-0.08-11.17,0.23-22.34-1.55-33.46c-0.8-5.02-0.42-10.23-0.75-15.34
			c-0.17-2.69-0.98-5.34-1.03-8.02c-0.04-2.07,0.51-4.19,1.05-6.22c0.3-1.13,0.85-2.63,1.74-3.09c2.33-1.21,2.4-2.95,2.22-5.15
			c-0.1-1.23,0.22-2.69,0.86-3.73c0.69-1.13,1.91-2.51,3.02-2.62c0.84-0.09,2.27,1.48,2.71,2.6c0.66,1.69,0.59,3.64,1,5.44
			c0.23,0.98,0.74,1.91,1.26,2.79c0.74,1.23,2,2.28,2.34,3.58c1.08,4.11,2.41,8.25,0.27,12.51c-0.5,1-0.22,2.4-0.29,3.62
			c-0.38,7.06-0.14,14.23-1.29,21.16c-1.59,9.58-0.14,19.1-1.01,29.09c4.68,0,9.03,0,13.38,0C-134.2,463.89-134.2,481.95-134.2,500z
			 M-580.46,445.56c33.96,0,67.53,0,101.37,0c-1.91-19.86-9.97-35.91-27.92-45.13c-17.73-9.11-35.59-7.76-51.85,3.83
			C-572.76,414.17-579.33,428.48-580.46,445.56z M-229.22,214.43c-11.69-0.08-20.74,9.03-20.8,20.93
			c-0.07,12,9.29,21.59,21.14,21.64c11.65,0.05,21.01-9.28,21.11-21.07C-207.67,223.87-217.01,214.51-229.22,214.43z
			 M-511.97,353.75c-2.77-13.72-5.49-27.2-8.19-40.61c-6.68,0-13.07,0-19.38,0c-2.78,13.6-5.53,27.03-8.31,40.61
			C-535.81,353.75-524,353.75-511.97,353.75z M-347.03,400.19c0-9.85,0-19.53,0-29.26c-3.64,0-7.07,0-10.52,0
			c0,9.85,0,19.48,0,29.26C-353.97,400.19-350.53,400.19-347.03,400.19z M-366.8,400.16c0-9.93,0-19.62,0-29.32
			c-3.55,0-6.85,0-10.23,0c0,9.82,0,19.5,0,29.32C-373.56,400.16-370.26,400.16-366.8,400.16z M-396.82,370.82
			c0,9.9,0,19.57,0,29.29c3.58,0,6.88,0,10.26,0c0-9.83,0-19.5,0-29.29C-390.06,370.82-393.37,370.82-396.82,370.82z M-251.92,403.8
			c0,11.47,0,22.79,0,34.16c1.51,0,2.79,0,4.1,0c0-11.44,0-22.76,0-34.16C-249.34,403.8-250.6,403.8-251.92,403.8z M-247.79,396.83
			c0-11.37,0-22.61,0-33.95c-1.53,0-2.86,0-4.19,0c0,11.42,0,22.67,0,33.95C-250.49,396.83-249.22,396.83-247.79,396.83z
			 M-247.85,355.51c0-11.34,0-22.58,0-33.8c-1.57,0-2.88,0-4.14,0c0,11.39,0,22.56,0,33.8
			C-250.5,355.51-249.22,355.51-247.85,355.51z M-217.83,362.81c0,11.4,0,22.64,0,34.01c1.45,0,2.72,0,4.13,0
			c0-11.37,0-22.67,0-34.01C-215.25,362.81-216.51,362.81-217.83,362.81z M-217.77,321.69c0,11.43,0,22.6,0,33.79
			c1.54,0,2.8,0,4.09,0c0-11.32,0-22.48,0-33.79C-215.2,321.69-216.47,321.69-217.77,321.69z M-213.73,437.95c0-11.5,0-22.8,0-34.04
			c-1.51,0-2.76,0-4.07,0c0,11.45,0,22.7,0,34.04C-216.4,437.95-215.2,437.95-213.73,437.95z M-225.46,362.82
			c0,11.4,0,22.64,0,33.88c1.56,0,2.87,0,4.18,0c0-11.4,0-22.57,0-33.88C-222.74,362.82-224.01,362.82-225.46,362.82z
			 M-210.08,403.87c0,11.4,0,22.71,0,33.93c1.5,0,2.75,0,3.98,0c0-11.41,0-22.6,0-33.93C-207.52,403.87-208.79,403.87-210.08,403.87
			z M-221.25,437.96c0-11.5,0-22.75,0-34.12c-1.49,0-2.82,0-4.12,0c0,11.49,0,22.79,0,34.12
			C-223.9,437.96-222.69,437.96-221.25,437.96z M-236.6,403.87c0,11.54,0,22.78,0,34c1.51,0,2.76,0,4.04,0c0-11.41,0-22.65,0-34
			C-234.01,403.87-235.27,403.87-236.6,403.87z M-240.17,437.98c0-11.5,0-22.75,0-34.13c-1.42,0-2.68,0-4.02,0
			c0,11.44,0,22.75,0,34.13C-242.78,437.98-241.57,437.98-240.17,437.98z M-232.54,396.85c0-11.38,0-22.62,0-33.95
			c-1.45,0-2.77,0-4.11,0c0,11.4,0,22.63,0,33.95C-235.19,396.85-233.93,396.85-232.54,396.85z M-244.24,321.69
			c0,11.42,0,22.58,0,33.78c1.48,0,2.73,0,4.02,0c0-11.33,0-22.48,0-33.78C-241.65,321.69-242.9,321.69-244.24,321.69z
			 M-210.15,362.83c0,11.38,0,22.61,0,33.94c1.43,0,2.69,0,4.06,0c0-11.39,0-22.64,0-33.94
			C-207.52,362.83-208.79,362.83-210.15,362.83z M-252.03,280.64c0,11.35,0,22.57,0,33.83c1.52,0,2.84,0,4.21,0
			c0-11.36,0-22.52,0-33.83C-249.26,280.64-250.53,280.64-252.03,280.64z M-240.22,314.55c0-11.44,0-22.61,0-33.91
			c-1.43,0-2.68,0-3.99,0c0,11.37,0,22.6,0,33.91C-242.77,314.55-241.57,314.55-240.22,314.55z M-240.21,396.8
			c0-11.36,0-22.59,0-33.95c-1.43,0-2.7,0-3.98,0c0,11.36,0,22.65,0,33.95C-242.72,396.8-241.54,396.8-240.21,396.8z M-221.3,355.51
			c0-11.43,0-22.57,0-33.78c-1.5,0-2.81,0-4.2,0c0,11.36,0,22.52,0,33.78C-224.06,355.51-222.79,355.51-221.3,355.51z
			 M-236.65,321.63c0,11.36,0,22.6,0,33.86c1.46,0,2.72,0,3.99,0c0-11.39,0-22.62,0-33.86
			C-234.13,321.63-235.32,321.63-236.65,321.63z M-210.18,280.68c0,11.44,0,22.62,0,33.82c1.44,0,2.69,0,4.04,0
			c0-11.34,0-22.51,0-33.82C-207.56,280.68-208.81,280.68-210.18,280.68z M-210.18,355.4c1.58,0,2.83,0,4.08,0
			c0-11.3,0-22.39,0-33.6c-1.47,0-2.78,0-4.08,0C-210.18,333.11-210.18,344.21-210.18,355.4z M-236.65,280.59
			c0,11.39,0,22.63,0,33.84c1.48,0,2.73,0,4.03,0c0-11.36,0-22.54,0-33.84C-233.98,280.59-235.18,280.59-236.65,280.59z
			 M-221.51,314.55c0.16-0.42,0.27-0.56,0.27-0.71c0.03-10.57,0.07-21.14,0-31.71c0-0.53-0.91-1.3-1.54-1.51
			c-0.78-0.26-1.71-0.06-2.65-0.06c0,11.49,0,22.73,0,33.99C-223.98,314.55-222.77,314.55-221.51,314.55z M-213.68,280.97
			c-4.23-0.89-4.33-0.82-4.33,3.16c0.01,9.09,0.02,18.17,0.03,27.26c0,1.03,0,2.05,0,3.12c1.64,0,2.9,0,4.3,0
			C-213.68,303.23-213.68,292.08-213.68,280.97z M-464.96,424.6c-4.29-2.11-8.21-4.03-12.13-5.96c-0.11,0.14-0.23,0.28-0.34,0.42
			c2.11,4.16,4.21,8.33,6.52,12.88C-468.83,429.37-467.01,427.13-464.96,424.6z M-589.27,432.01c2.21-4.49,4.22-8.58,6.24-12.68
			c-0.13-0.14-0.27-0.27-0.4-0.41c-3.85,1.89-7.69,3.77-11.8,5.78C-593.1,427.32-591.28,429.55-589.27,432.01z M-597.77,424.29
			c-1.75-2.31-3.28-4.33-4.96-6.54c-2.63,4.32-5.06,8.33-7.5,12.33c0.13,0.12,0.26,0.23,0.39,0.35
			C-605.91,428.44-601.98,426.44-597.77,424.29z M-462.13,424.24c4.32,2.18,8.35,4.23,12.39,6.27c0.1-0.14,0.2-0.27,0.29-0.41
			c-2.51-3.98-5.03-7.96-7.7-12.2C-458.9,420.14-460.42,422.07-462.13,424.24z M-227.49,158.39c0-5.15,0-10.06,0-15.05
			c-1.29,0-2.45,0-3.65,0c0,5.1,0,10.01,0,15.05C-229.91,158.39-228.81,158.39-227.49,158.39z M-213.95,143.31
			c-1.35,0-2.45,0-3.58,0c0,5.13,0,10.11,0,15.04c1.32,0,2.41,0,3.58,0C-213.95,153.31-213.95,148.46-213.95,143.31z
			 M-220.75,143.34c-1.31,0-2.46,0-3.64,0c0,5.13,0,10.09,0,15.03c1.32,0,2.42,0,3.64,0C-220.75,153.3-220.75,148.4-220.75,143.34z
			 M-237.88,143.26c0,5.23,0,10.15,0,15.16c1.29,0,2.39,0,3.61,0c0-5.11,0-10.09,0-15.16
			C-235.56,143.26-236.67,143.26-237.88,143.26z M-451.95,432.16c0.05-0.16,0.11-0.32,0.16-0.48c-3.82-2-7.64-4-11.54-6.05
			c-1.75,2.19-3.37,4.22-5.22,6.53C-462.64,432.16-457.3,432.16-451.95,432.16z M-387.72,129.58c0.29,2.53,0.28,4.92,0.89,7.15
			c0.62,2.3,1.84,4.43,2.78,6.58c0.74-2.53,1.04-5.06,2.21-7.08c1.14-1.98-0.15-3.35-0.29-4.99c-0.26-3.11-2.71-1.26-4.12-1.75
			C-386.53,129.4-386.88,129.52-387.72,129.58z M-523.23,181.74c-4.51,0-8.36,0-12.64,0c2.13,3.07,4.03,5.82,6.16,8.89
			C-527.53,187.63-525.56,184.93-523.23,181.74z M-596.75,425.7c-3.94,2.06-7.62,3.98-11.3,5.91c0.05,0.14,0.09,0.28,0.14,0.41
			c5.19,0,10.38,0,16,0C-593.62,429.79-595.12,427.84-596.75,425.7z M-600.66,417.02c3.53,6.48,3.64,6.52,10.01,3.52
			c0.88-0.41,1.76-0.82,2.62-1.26c0.99-0.51,1.97-1.05,2.95-1.57c-0.08-0.23-0.16-0.46-0.24-0.69
			C-590.4,417.02-595.48,417.02-600.66,417.02z M-475.16,416.95c-0.03,0.19-0.06,0.37-0.09,0.56c3.31,1.67,6.61,3.37,9.95,4.97
			c0.55,0.26,1.62,0.36,1.93,0.04c1.57-1.65,2.97-3.47,4.71-5.56C-464.58,416.95-469.87,416.95-475.16,416.95z M-460.48,413.38
			c0.15-0.14,0.3-0.29,0.46-0.43c-2.23-3.7-4.47-7.41-6.92-11.46c-1.86,2.23-3.41,4.11-5.13,6.17
			C-467.98,409.68-464.23,411.53-460.48,413.38z M-484.36,400.81c-0.01,0.2-0.02,0.4-0.03,0.6c3.05,1.53,6.08,3.1,9.15,4.57
			c0.57,0.27,1.64,0.49,1.93,0.2c1.59-1.62,3.02-3.41,4.7-5.37C-474.24,400.81-479.3,400.81-484.36,400.81z M-573.21,402.88
			c-0.16-0.11-0.32-0.23-0.49-0.34c-3.78,1.8-7.56,3.59-11.6,5.52c1.7,2.12,3.25,4.05,5.04,6.29
			C-577.8,410.34-575.51,406.61-573.21,402.88z M-240.94,158.45c0-5.11,0-10.09,0-15.12c-1.26,0-2.36,0-3.5,0
			c0,5.14,0,10.13,0,15.12C-243.18,158.45-242.14,158.45-240.94,158.45z M-599.68,412.73c0.1,0.12,0.2,0.25,0.3,0.37
			c3.73-1.83,7.46-3.65,11.44-5.6c-1.75-2.15-3.3-4.07-5.02-6.19C-595.33,405.34-597.5,409.03-599.68,412.73z M-479.81,414.33
			c1.8-2.25,3.3-4.11,4.98-6.21c-4.09-2.02-7.86-3.87-12.24-6.03C-484.48,406.45-482.29,410.15-479.81,414.33z M-471.93,398.64
			c0.04-0.23,0.09-0.46,0.13-0.69c-3.35-1.57-6.7-3.16-10.07-4.69c-0.38-0.17-1.12-0.23-1.31-0.01c-1.5,1.69-2.92,3.46-4.51,5.38
			C-482.07,398.64-477,398.64-471.93,398.64z M-582.22,414.89c-1.42-1.8-2.66-3.48-4.03-5.04c-0.31-0.35-1.2-0.56-1.62-0.37
			c-3.35,1.53-6.66,3.17-9.97,4.78c0.04,0.21,0.09,0.42,0.13,0.63C-592.71,414.89-587.72,414.89-582.22,414.89z M-575.7,401.52
			c-0.04-0.26-0.09-0.52-0.13-0.78c-4.96,0-9.91,0-15.22,0c1.38,1.78,2.57,3.4,3.88,4.91c0.31,0.36,1.19,0.62,1.6,0.44
			C-582.25,404.63-578.98,403.06-575.7,401.52z M-462.32,414.98c0.04-0.14,0.09-0.28,0.13-0.42c-3.68-1.84-7.36-3.68-11.08-5.54
			c-1.63,2.08-3.07,3.93-4.66,5.96C-472.42,414.98-467.37,414.98-462.32,414.98z M-589.79,396.34c0.1,0.11,0.21,0.22,0.31,0.33
			c3.67-1.76,7.35-3.52,11.21-5.37c-1.77-2.09-3.25-3.85-4.97-5.88C-585.55,389.27-587.67,392.81-589.79,396.34z M-587.95,397.84
			c0.03,0.21,0.05,0.42,0.08,0.62c4.97,0,9.94,0,15.28,0c-1.38-1.72-2.61-3.39-4.02-4.89c-0.32-0.34-1.36-0.35-1.89-0.11
			C-581.68,394.85-584.81,396.37-587.95,397.84z M-575.49,391.77c1.7,2.11,3.19,3.96,4.83,5.99c2.3-3.82,4.4-7.33,6.51-10.84
			c-0.09-0.13-0.18-0.26-0.28-0.39C-567.97,388.21-571.51,389.89-575.49,391.77z M-481.61,391.24c3.89,1.89,7.41,3.59,10.92,5.3
			c0.12-0.13,0.25-0.26,0.37-0.39c-2.1-3.49-4.19-6.98-6.5-10.83C-478.48,387.38-479.89,389.12-481.61,391.24z M-494.97,386.7
			c-0.15,0.15-0.3,0.31-0.46,0.46c1.95,3.45,3.9,6.91,5.99,10.6c1.84-2.14,3.36-3.91,5.06-5.89
			C-488.06,390.07-491.52,388.38-494.97,386.7z M-205.57,207.64c0-3.35,0-6.46,0-9.6c-1.63,0-3.09,0-4.49,0c0,3.33,0,6.43,0,9.6
			C-208.5,207.64-207.14,207.64-205.57,207.64z M-248.59,198.06c-1.63,0-3.09,0-4.53,0c0,3.31,0,6.41,0,9.52c1.59,0,3.01,0,4.53,0
			C-248.59,204.33-248.59,201.22-248.59,198.06z M-249.89,263.84c-1.71,0-3.13,0-4.57,0c0,3.27,0,6.37,0,9.45c1.63,0,3.05,0,4.57,0
			C-249.89,270.09-249.89,267.05-249.89,263.84z M-217.76,197.97c0,3.36,0,6.47,0,9.57c1.59,0,2.93,0,4.37,0c0-3.26,0-6.37,0-9.57
			C-214.93,197.97-216.29,197.97-217.76,197.97z M-204.41,263.93c-1.69,0-3.1,0-4.53,0c0,3.22,0,6.25,0,9.28c1.62,0,3.03,0,4.53,0
			C-204.41,270.04-204.41,267.06-204.41,263.93z M-212.15,273.25c0-3.32,0-6.34,0-9.38c-1.6,0-2.93,0-4.38,0c0,3.18,0,6.2,0,9.38
			C-214.99,273.25-213.59,273.25-212.15,273.25z M-242.38,273.27c0-3.28,0-6.31,0-9.41c-1.57,0-2.92,0-4.39,0c0,3.17,0,6.21,0,9.41
			C-245.27,273.27-243.93,273.27-242.38,273.27z M-227.15,263.88c-1.66,0-3.07,0-4.52,0c0,3.2,0,6.23,0,9.35c1.58,0,2.99,0,4.52,0
			C-227.15,270.07-227.15,267.11-227.15,263.88z M-225.62,207.48c1.73,0,3.13,0,4.47,0c0-3.31,0-6.41,0-9.44c-1.61,0-3.02,0-4.47,0
			C-225.62,201.26-225.62,204.29-225.62,207.48z M-233.13,197.96c-1.62,0-3.04,0-4.5,0c0,3.27,0,6.38,0,9.58c1.6,0,3.01,0,4.5,0
			C-233.13,204.27-233.13,201.16-233.13,197.96z M-224.13,273.15c1.55,0,3,0,4.43,0c0-3.25,0-6.28,0-9.32c-1.54,0-2.9,0-4.43,0
			C-224.13,266.97-224.13,270-224.13,273.15z M-234.83,273.23c0-3.19,0-6.23,0-9.34c-1.57,0-2.98,0-4.5,0c0,3.18,0,6.21,0,9.34
			C-237.74,273.23-236.32,273.23-234.83,273.23z M-245.29,197.91c0,3.37,0,6.49,0,9.63c1.54,0,2.88,0,4.33,0c0-3.28,0-6.39,0-9.63
			C-242.49,197.91-243.84,197.91-245.29,197.91z M-493.18,385.1c-0.02,0.15-0.04,0.31-0.06,0.46c2.96,1.48,5.91,2.98,8.9,4.39
			c0.45,0.21,1.38,0.14,1.67-0.17c1.25-1.39,2.35-2.92,3.72-4.67C-484.04,385.1-488.61,385.1-493.18,385.1z M-550.8,367.2
			c0-2.4,0-4.68,0-7.02c-1.98,0-3.74,0-5.63,0c0,2.41,0,4.69,0,7.02C-554.46,367.2-552.69,367.2-550.8,367.2z M-569.78,360.14
			c-2.05,0-3.8,0-5.64,0c0,2.42,0,4.71,0,7.01c1.96,0,3.71,0,5.64,0C-569.78,364.82-569.78,362.6-569.78,360.14z M-566.75,385.68
			c-0.03-0.16-0.06-0.31-0.09-0.47c-4.57,0-9.14,0-14.24,0c1.5,1.78,2.65,3.23,3.92,4.56c0.28,0.29,1.08,0.41,1.47,0.23
			C-572.69,388.62-569.73,387.13-566.75,385.68z M-503.59,360.24c-1.97,0-3.77,0-5.55,0c0,2.44,0,4.67,0,6.93c1.94,0,3.69,0,5.55,0
			C-503.59,364.8-503.59,362.57-503.59,360.24z M-490.33,360.13c0,2.46,0,4.69,0,6.99c1.96,0,3.77,0,5.59,0c0-2.41,0-4.63,0-6.99
			C-486.65,360.13-488.39,360.13-490.33,360.13z M-537.45,360.22c0,2.5,0,4.72,0,6.94c1.96,0,3.71,0,5.52,0c0-2.37,0-4.58,0-6.94
			C-533.86,360.22-535.59,360.22-537.45,360.22z M-560.43,367.15c0-2.47,0-4.69,0-6.94c-1.95,0-3.7,0-5.57,0c0,2.38,0,4.6,0,6.94
			C-564.08,367.15-562.33,367.15-560.43,367.15z M-499.59,360.14c0,2.53,0,4.8,0,7.05c1.94,0,3.68,0,5.47,0c0-2.44,0-4.72,0-7.05
			C-496.01,360.14-497.68,360.14-499.59,360.14z M-541.22,360.23c-1.93,0-3.79,0-5.65,0c0,2.38,0,4.62,0,6.94c1.96,0,3.76,0,5.65,0
			C-541.22,364.8-541.22,362.63-541.22,360.23z M-579.43,367.21c0-2.5,0-4.72,0-6.99c-1.92,0-3.66,0-5.41,0c0,2.42,0,4.65,0,6.99
			C-582.98,367.21-581.3,367.21-579.43,367.21z M-513.1,367.17c0-2.47,0-4.69,0-6.96c-1.98,0-3.77,0-5.61,0c0,2.42,0,4.64,0,6.96
			C-516.78,367.17-515.04,367.17-513.1,367.17z M-527.97,367.06c2.01,0,3.73,0,5.42,0c0.98-6.71,0.33-7.57-5.07-6.91
			c-0.07,0.01-0.13,0.1-0.35,0.27C-527.97,362.52-527.97,364.74-527.97,367.06z M-475.32,367.15c0-2.47,0-4.7,0-7.03
			c-1.92,0-3.65,0-5.36,0c0,2.42,0,4.66,0,7.03C-478.82,367.15-477.16,367.15-475.32,367.15z M-529.58,162.39
			c-4.25,4.83-4.23,5.55,0.13,9.73C-525.32,167.75-525.32,167.53-529.58,162.39z M-500.66,344.65c-1.45,1.69-2.74,3.18-4.24,4.93
			c3.96,0,7.49,0,11.56,0C-496.01,347.79-498.21,346.3-500.66,344.65z M-513.28,301.79c-2.12-2-4.12-3.88-6.11-5.76
			c-0.17,0.11-0.35,0.22-0.52,0.33c0.86,3.32,1.73,6.63,2.74,10.52C-515.67,304.92-514.52,303.41-513.28,301.79z M-559.27,344.69
			c-2.36,1.6-4.42,2.99-6.48,4.39c0.09,0.17,0.18,0.34,0.27,0.5c3.4,0,6.8,0,10.65,0C-556.46,347.79-557.79,346.32-559.27,344.69z
			 M-546.39,302.2c1.05,1.25,2.23,2.64,3.78,4.48c0.86-3.84,1.59-7.13,2.46-10.97C-542.44,298.1-544.28,300.01-546.39,302.2z
			 M-520.52,242.43c1.43-1.75,2.66-3.26,4.15-5.09c-3.43,0-6.33,0-9.77,0C-524.1,239.19-522.46,240.68-520.52,242.43z M-502,343.69
			c-2.24-1.4-4.27-2.66-6.29-3.93c-0.14,0.16-0.29,0.32-0.43,0.48c0.7,2.73,1.4,5.45,2.22,8.65
			C-504.79,346.91-503.48,345.41-502,343.69z M-535.44,295.63c-0.27,0.08-0.54,0.16-0.8,0.24c0.43,3.41,0.85,6.82,1.32,10.56
			c3.72-2.99,4-4.37,1.87-7.5C-533.81,297.82-534.64,296.73-535.44,295.63z M-536.76,227.16c1.72-1.64,3.34-3.18,5.16-4.91
			c-3.24,0-6.08,0-9.43,0C-539.46,224.06-538.21,225.49-536.76,227.16z M-533.11,237.28c-3.57,0-6.56,0-10,0
			c1.61,1.87,2.9,3.37,4.31,5.01C-536.9,240.61-535.17,239.09-533.11,237.28z M-553.01,348.75c0.78-3.24,1.45-6.03,2.22-9.23
			c-2.53,1.45-4.62,2.66-6.89,3.96C-556.12,345.24-554.74,346.8-553.01,348.75z M-514.26,252.49c-3.48,0-6.44,0-9.92,0
			c2.15,1.83,3.85,3.28,5.69,4.85C-517.05,255.7-515.79,254.25-514.26,252.49z M-534.86,252.31c-3.85,0-6.93,0-10.44,0
			c1.62,1.81,2.95,3.29,4.42,4.94C-538.97,255.67-537.17,254.2-534.86,252.31z M-510.85,301.39c1.95,1.65,3.77,3.18,6.04,5.09
			c-0.83-3.87-1.53-7.12-2.34-10.89C-508.52,297.76-509.6,299.44-510.85,301.39z M-561.83,335.55c0.06,0.19,0.12,0.38,0.18,0.57
			c3.25,0,6.51,0,10.21,0c-1.6-1.77-2.88-3.19-4.29-4.76C-557.87,332.83-559.85,334.19-561.83,335.55z M-499.29,343.37
			c2.43,1.62,4.56,3.05,7.28,4.86c-1.09-3.45-2-6.3-3.02-9.53C-496.58,340.39-497.85,341.8-499.29,343.37z M-560.25,343.41
			c-1.57-1.65-2.83-2.95-4.36-4.55c-1,3.33-1.8,6-2.83,9.41C-564.72,346.43-562.64,345.02-560.25,343.41z M-517.49,273.12
			c-1.86-1.68-3.53-3.18-5.2-4.69c-0.16,0.12-0.31,0.24-0.47,0.36c0.48,3.02,0.97,6.05,1.54,9.63
			C-520.04,276.39-518.87,274.88-517.49,273.12z M-546.7,322.33c0.79-3.37,1.42-6.06,2.2-9.39c-2.48,1.66-4.38,2.93-6.4,4.28
			C-549.5,318.93-548.29,320.39-546.7,322.33z M-504.15,331.35c-1.42,1.6-2.67,3.01-3.99,4.5c3.42,0,6.56,0,10.4,0
			C-500.22,334.11-502.06,332.82-504.15,331.35z M-552.77,295.83c-0.79,3.76-1.42,6.78-2.22,10.56c2.32-1.87,4.04-3.25,5.9-4.75
			C-550.27,299.77-551.33,298.1-552.77,295.83z M-522.58,264.78c3.41,0,6.37,0,9.92,0c-2.18-1.86-3.91-3.34-5.76-4.92
			C-519.87,261.57-521.09,263.02-522.58,264.78z M-496.78,334.36c0.15-0.11,0.29-0.22,0.44-0.33c-0.77-2.64-1.55-5.27-2.26-7.71
			c-1.54,1.23-2.91,2.32-4.5,3.58C-500.77,331.55-498.78,332.95-496.78,334.36z M-536.93,264.76c-1.59-1.87-2.83-3.32-4.21-4.95
			c-1.84,1.59-3.54,3.06-5.73,4.95C-543.23,264.76-540.36,264.76-536.93,264.76z M-524.91,306.31c0.22-3.85,0.41-7.18,0.6-10.51
			c-1.29,0.99-2.04,2.04-2.72,3.14C-529.08,302.24-528.83,303.35-524.91,306.31z M-538.15,278.05c0.69-3.63,1.25-6.61,1.93-10.21
			c-2.2,1.94-3.96,3.5-5.84,5.16C-540.81,274.62-539.69,276.06-538.15,278.05z M-509.75,335.33c1.6-1.94,2.8-3.4,4.19-5.09
			c-2.13-1.39-4-2.6-6.37-4.15C-511.16,329.34-510.53,332.01-509.75,335.33z M-547.87,327.13c-0.14-0.18-0.29-0.35-0.43-0.53
			c-1.87,1.22-3.74,2.44-5.86,3.82c1.47,1.6,2.78,3.03,4.37,4.77C-549.06,332.13-548.46,329.63-547.87,327.13z M-524.43,249.7
			c3.23,0,6.04,0,9.28,0c-2.04-1.77-3.66-3.19-5.37-4.67C-521.9,246.68-523.09,248.1-524.43,249.7z M-526.29,234.69
			c3.26,0,5.88,0,8.57,0c-1.53-1.65-2.92-3.14-4.42-4.75C-523.53,231.54-524.75,232.93-526.29,234.69z M-506.46,338.24
			c-0.05,0.15-0.1,0.3-0.15,0.45c1.91,1.22,3.81,2.45,5.79,3.72c1.35-1.44,2.53-2.7,3.9-4.16
			C-500.34,338.24-503.4,338.24-506.46,338.24z M-519.84,279.23c3.14,0,5.9,0,9.05,0c-1.89-1.72-3.49-3.18-5.31-4.83
			C-517.34,276-518.45,277.44-519.84,279.23z M-548.72,279.16c3.12,0,5.88,0,9.07,0c-1.53-1.83-2.73-3.28-4.01-4.81
			C-545.45,276.05-547.01,277.53-548.72,279.16z M-561.07,325.73c-0.81,3-1.5,5.59-2.2,8.18c0.17,0.09,0.33,0.18,0.5,0.27
			c1.89-1.31,3.79-2.62,5.85-4.05C-558.37,328.59-559.58,327.31-561.07,325.73z M-531.83,190.99c-1.73-2.52-3.23-4.7-4.72-6.89
			c-0.18,0.12-0.36,0.23-0.54,0.35c-0.22,2.14-0.45,4.27-0.68,6.54C-535.79,190.99-534.07,190.99-531.83,190.99z M-532.93,234.66
			c-1.45-1.81-2.66-3.32-3.97-4.95c-1.79,1.66-3.35,3.11-5.33,4.95C-538.89,234.66-536.14,234.66-532.93,234.66z M-550.45,278.2
			c2.14-2,3.88-3.62,5.73-5.34c-1.34-1.52-2.53-2.87-4.03-4.57C-549.35,271.77-549.85,274.68-550.45,278.2z M-521.36,191.02
			c-0.23-2.43-0.44-4.71-0.66-7c-0.18-0.01-0.36-0.01-0.54-0.02c-1.54,2.26-3.08,4.52-4.78,7.02
			C-525.12,191.02-523.37,191.02-521.36,191.02z M-509.75,277.51c0.17-0.09,0.35-0.18,0.52-0.28c-0.45-2.8-0.9-5.59-1.42-8.84
			c-1.62,1.76-2.86,3.11-4.21,4.59C-513.08,274.56-511.41,276.04-509.75,277.51z M-514.92,312.95c0.73,3.36,1.31,6,1.98,9.08
			c1.58-1.84,2.81-3.26,4.12-4.78C-510.84,315.83-512.61,314.58-514.92,312.95z M-559.5,320.56c0.12,0.14,0.24,0.29,0.35,0.43
			c1.88-1.28,3.75-2.55,5.74-3.91c-1.35-1.66-2.46-3.02-3.84-4.72C-558.06,315.33-558.78,317.95-559.5,320.56z M-542.32,295.32
			c-3.07,0-5.72,0-8.61,0c1.18,1.78,2.19,3.3,3.32,5.01C-545.81,298.62-544.2,297.1-542.32,295.32z M-544.43,249.69
			c3.5,0,6.28,0,9.47,0c-1.43-1.79-2.62-3.26-3.88-4.84C-540.69,246.45-542.32,247.86-544.43,249.69z M-530.24,176.87
			c-1.73-2.71-3.1-4.85-4.47-6.99c-0.19,0.08-0.38,0.16-0.58,0.24c-0.27,2.19-0.54,4.39-0.84,6.75
			C-534.26,176.87-532.68,176.87-530.24,176.87z M-501.8,322.82c0.04-0.15,0.08-0.3,0.12-0.45c-1.91-1.29-3.82-2.58-5.86-3.96
			c-1.21,1.5-2.29,2.82-3.58,4.41C-507.7,322.82-504.75,322.82-501.8,322.82z M-549.76,325.52c-0.06-0.17-0.12-0.33-0.18-0.5
			c-2.92-0.13-5.83-0.26-9.45-0.42c1.74,1.85,2.94,3.12,4.19,4.45C-553.26,327.79-551.51,326.65-549.76,325.52z M-523.67,170.09
			c-0.24-0.09-0.47-0.17-0.71-0.26c-1.3,2.19-2.59,4.39-4.16,7.03c2.29,0,3.8,0,5.57,0C-523.2,174.54-523.43,172.31-523.67,170.09z
			 M-512.15,300.27c1.15-1.86,2.09-3.4,3.07-5c-2.89,0-5.46,0-8.49,0C-515.6,297.09-514.01,298.55-512.15,300.27z M-382.59,126.41
			c0.03-0.32,0.06-0.64,0.09-0.96c-2.72-0.87-5.44-1.75-8.56-2.75c0.35,1.75,0.6,3.05,0.9,4.56
			C-387.5,126.96-385.04,126.68-382.59,126.41z M-534.36,254.77c-0.15-0.11-0.31-0.21-0.46-0.32c-1.6,1.37-3.2,2.73-4.9,4.18
			c1.34,1.54,2.47,2.83,3.97,4.55C-535.22,259.98-534.79,257.38-534.36,254.77z M-502.72,312.42c-1.35,1.76-2.39,3.13-3.54,4.64
			c2.03,1.4,3.81,2.64,6.21,4.3C-501.05,318.05-501.8,315.51-502.72,312.42z M-530.4,223.8c-2,1.83-3.48,3.2-5.11,4.69
			c1.37,1.53,2.58,2.87,4.27,4.76C-530.94,229.86-530.7,227.2-530.4,223.8z M-533.79,279.15c2.9,0,5.26,0,8.04,0
			c-1.49-1.77-2.7-3.21-4.07-4.84C-531.16,275.95-532.32,277.36-533.79,279.15z M-542.33,258.41c-1.42-1.58-2.58-2.86-4.09-4.54
			c-0.46,3.17-0.84,5.75-1.21,8.34c0.19,0.06,0.37,0.13,0.56,0.19C-545.56,261.13-544.05,259.86-542.33,258.41z M-522.02,227.17
			c1.3-1.63,2.43-3.03,3.8-4.75c-3.05,0-5.6,0-8.79,0C-525.13,224.21-523.69,225.58-522.02,227.17z M-529.52,157.56
			c3.32-3.6,3.29-4-0.29-7.06c-0.9,1.21-1.79,2.41-2.71,3.64C-531.44,155.37-530.54,156.4-529.52,157.56z M-531.53,207.61
			c-2.86,0-5.18,0-8.04,0c1.49,1.79,2.64,3.17,3.88,4.65C-534.25,210.65-533.08,209.33-531.53,207.61z M-553.35,338.97
			c-0.02-0.18-0.04-0.37-0.06-0.55c-2.94,0-5.88,0-8.95,0c3.29,4.15,3.29,4.15,7.4,1.6C-554.42,339.68-553.89,339.32-553.35,338.97z
			 M-532.17,239.7c-0.19-0.06-0.38-0.12-0.57-0.18c-1.53,1.29-3.06,2.58-4.77,4.02c1.27,1.48,2.42,2.82,3.9,4.54
			C-533.07,244.9-532.62,242.3-532.17,239.7z M-511.67,263.12c-0.54-3.22-0.99-5.86-1.53-9.07c-1.55,1.71-2.69,2.98-3.98,4.39
			C-515.38,259.97-513.76,261.34-511.67,263.12z M-527.3,219.63c2.96,0,5.37,0,8.15,0c-1.51-1.66-2.78-3.07-4.14-4.57
			C-524.57,216.51-525.73,217.83-527.3,219.63z M-516.11,271.85c1.26-1.46,2.38-2.77,3.7-4.31c-3.06,0-5.66,0-8.74,0
			C-519.26,269.16-517.75,270.45-516.11,271.85z M-540.26,219.54c2.85,0,5.33,0,8.18,0c-1.41-1.68-2.56-3.06-3.81-4.57
			C-537.39,216.54-538.67,217.87-540.26,219.54z M-549.18,323.01c0.09-0.21,0.17-0.43,0.26-0.64c-1.11-1.23-2.22-2.47-3.39-3.77
			c-1.94,1.25-3.68,2.38-6.01,3.88C-554.85,322.68-552.01,322.85-549.18,323.01z M-501.06,325.03c-2.62,0-5.52,0-9.12,0
			c2.28,1.53,3.98,2.67,5.75,3.86C-503.22,327.5-502.11,326.24-501.06,325.03z M-519.88,258.84c-1.7-1.52-3.25-2.91-5.15-4.61
			c0.39,3.25,0.7,5.9,1.08,9.05C-522.38,261.56-521.21,260.28-519.88,258.84z M-512.58,311.71c-0.04,0.17-0.09,0.34-0.14,0.51
			c1.67,1.26,3.33,2.52,5,3.78c1.35-1.62,2.35-2.83,3.56-4.29C-507.24,311.71-509.91,311.71-512.58,311.71z M-527.99,224.3
			c0.15,3.06,0.28,5.71,0.44,9.03c1.63-1.96,2.79-3.35,4.08-4.9C-524.97,227.07-526.28,225.87-527.99,224.3z M-543.32,271.83
			c1.62-1.52,3.02-2.83,4.75-4.46c-3.08,0-5.54,0-8.39,0C-545.67,268.95-544.62,270.24-543.32,271.83z M-531,272.87
			c-1-1.36-1.97-2.68-3.25-4.41c-0.47,3.47-0.87,6.37-1.26,9.27c0.18,0.03,0.36,0.06,0.55,0.09
			C-533.66,276.18-532.36,274.56-531,272.87z M-555.41,311.85c1.28,1.49,2.31,2.69,3.44,4.01c1.82-1.27,3.48-2.43,5.74-4.01
			C-549.64,311.85-552.27,311.85-555.41,311.85z M-515.44,239.37c-1.48,1.58-2.57,2.73-3.79,4.03c1.65,1.49,3.13,2.84,4.6,4.18
			c0.14-0.11,0.28-0.22,0.42-0.33C-514.59,244.8-514.98,242.35-515.44,239.37z M-525.67,248.26c1.5-1.81,2.59-3.14,3.75-4.54
			c-1.54-1.4-2.92-2.65-4.68-4.24C-526.26,242.6-526,245.13-525.67,248.26z M-545.29,247.42c0.17,0.09,0.34,0.18,0.5,0.27
			c1.48-1.38,2.97-2.76,4.52-4.21c-1.34-1.5-2.42-2.7-3.74-4.18C-544.48,242.34-544.89,244.88-545.29,247.42z M-530.48,209.38
			c-1.59,1.73-2.79,3.03-4.1,4.45c1.36,1.44,2.58,2.73,4.1,4.34C-530.48,215.08-530.48,212.53-530.48,209.38z M-526.56,295.16
			c-2.34,0-4.45,0-6.96,0c1.27,1.86,2.35,3.44,3.54,5.19C-528.69,298.4-527.69,296.88-526.56,295.16z M-531.58,193.81
			c-2.47,0-4.49,0-7.13,0c1.23,1.78,2.15,3.11,3.25,4.69C-534.07,196.82-532.91,195.42-531.58,193.81z M-541.87,224.43
			c-0.46,3.01-0.83,5.47-1.31,8.61c1.95-1.85,3.38-3.21,4.94-4.69C-539.41,227.09-540.47,225.95-541.87,224.43z M-527.63,193.74
			c1.37,1.73,2.53,3.19,3.85,4.85c1.05-1.67,1.91-3.03,3.06-4.85C-523.35,193.74-525.26,193.74-527.63,193.74z M-530.71,195.51
			c-1.38,1.7-2.41,2.95-3.59,4.4c1.17,1.27,2.24,2.43,3.59,3.9C-530.71,200.85-530.71,198.49-530.71,195.51z M-527.47,207.7
			c1.62,1.83,2.81,3.18,4.18,4.73c1.18-1.62,2.19-3,3.45-4.73C-522.5,207.7-524.64,207.7-527.47,207.7z M-528.27,209.67
			c0,2.8,0,5.31,0,8.33c1.45-1.65,2.55-2.89,3.7-4.2C-525.8,212.43-526.92,211.18-528.27,209.67z M-524.64,277.44
			c0.17-0.06,0.33-0.11,0.5-0.17c-0.34-2.58-0.69-5.15-1.11-8.32c-1.26,1.6-2.17,2.75-3.17,4.02
			C-527.09,274.54-525.86,275.99-524.64,277.44z M-516.27,232.62c-0.39-2.79-0.73-5.22-1.15-8.27c-1.36,1.6-2.35,2.77-3.29,3.86
			C-519.21,229.7-517.91,230.99-516.27,232.62z M-528.01,159.89c1.24,1.5,2.33,2.82,3.43,4.14c0.14-0.08,0.28-0.16,0.42-0.24
			c-0.18-2.38-0.36-4.76-0.59-7.73C-526.07,157.6-526.95,158.64-528.01,159.89z M-528.94,195.53c0.15,2.96,0.27,5.32,0.41,8.15
			C-524.67,199.44-524.49,200.51-528.94,195.53z M-378.43,144.21c-1.81,0.28-3.33,0.51-5.04,0.77c0.55,1.36,1.06,2.62,1.86,4.62
			C-380.45,147.29-377.7,146.93-378.43,144.21z M-544.92,306.92c-1.15-1.41-2.07-2.55-3.07-3.77c-1.5,1.22-2.8,2.27-4.64,3.77
			C-549.7,306.92-547.55,306.92-544.92,306.92z M-532.09,205.11c-1.29-1.45-2.31-2.58-3.43-3.83c-1.1,1.22-2.12,2.36-3.45,3.83
			C-536.43,205.11-534.47,205.11-532.09,205.11z M-529.61,139.57c-2.8,2.95-2.79,3.1,0.15,5.66
			C-526.86,142.38-526.86,142.28-529.61,139.57z M-527.17,205.04c2.35,0,4.37,0,6.86,0c-1.51-1.29-2.64-2.26-3.87-3.31
			C-525,202.64-525.96,203.7-527.17,205.04z M-514.92,306.74c2.64,0,4.85,0,7.6,0c-1.78-1.46-3.11-2.56-4.61-3.8
			C-512.95,304.23-513.82,305.34-514.92,306.74z M-529.61,134.4c2.74-2.9,2.74-3.27-0.02-5.66
			C-532.09,131.74-532.09,131.74-529.61,134.4z M-537.05,213.38c-1.07-1.13-1.93-2.04-3.07-3.24c-0.39,2.64-0.71,4.82-1.15,7.75
			C-539.58,216.09-538.4,214.83-537.05,213.38z M-534.8,163.66c0.18,0.07,0.36,0.13,0.53,0.2c0.95-1.24,1.9-2.48,2.92-3.81
			c-0.96-1.08-1.79-2.01-3.04-3.43C-534.55,159.4-534.67,161.53-534.8,163.66z M-522.08,213.6c1.28,1.34,2.37,2.49,3.47,3.64
			c0.13-0.1,0.27-0.2,0.4-0.29c-0.28-2.06-0.55-4.12-0.9-6.73C-520.26,211.52-521.04,212.41-522.08,213.6z M-532.59,267.69
			c1.15,1.57,1.99,2.71,2.96,4.03c1.15-1.37,2.15-2.55,3.39-4.03C-528.53,267.69-530.3,267.69-532.59,267.69z M-527.94,147.92
			c0.86,1.18,1.67,2.3,2.63,3.62c0-2.43,0-4.48,0-7.19C-526.46,145.9-527.16,146.86-527.94,147.92z M-529.55,105.65
			c2.37-2.53,2.35-2.98-0.15-4.97C-531.42,102.3-532,103.96-529.55,105.65z M-529.5,115.07c2.14-2.23,2.11-2.64-0.23-4.54
			C-531.75,112.15-531.47,113.65-529.5,115.07z M-533.9,151.46c1.1-1.45,1.82-2.4,2.65-3.5c-0.78-0.89-1.5-1.71-2.65-3.04
			C-533.9,147.42-533.9,149.14-533.9,151.46z M-525.66,139.57c0-1.82,0-3.37,0-5.07C-528.26,136.72-528.26,136.96-525.66,139.57z
			 M-530,303.55c-0.84,1.13-1.46,1.97-2.21,2.99c1.6,0,2.75,0,4.17,0C-528.73,305.49-529.24,304.7-530,303.55z M-522.68,199.95
			c0.75,0.89,1.47,1.75,2.19,2.61c0.17-0.1,0.34-0.2,0.51-0.29c-0.19-1.5-0.37-3-0.62-5.01c-0.78,0.93-1.15,1.35-1.49,1.79
			C-522.29,199.28-522.43,199.56-522.68,199.95z M-529.57,119.95c-1.77,1.93-1.77,1.93,0.17,3.82c0.47-0.53,0.94-1.06,1.47-1.66
			C-528.5,121.36-529.03,120.66-529.57,119.95z M-539.33,202.06c0.18,0.07,0.36,0.14,0.54,0.2c0.65-0.86,1.3-1.72,2.02-2.68
			c-0.64-0.69-1.13-1.22-1.93-2.08C-538.96,199.37-539.15,200.71-539.33,202.06z"/>
		<g>
			<path class="st0" d="M-242.22,248.75c-1.18-0.89-0.76-1.4,0.05-2.04c3.61-2.84,7.24-5.66,10.73-8.64
				c1.46-1.25,2.35-3.06,2.39-5.05c0.07-4.29-0.01-8.58,0.04-12.88c0.01-0.53,0.42-1.06,0.64-1.59c0.26,0.51,0.75,1.02,0.75,1.53
				c0.07,4.29,0.02,8.58,0.11,12.88c0.02,0.73,0.61,1.43,0.82,2.17c0.21,0.76,0.63,1.76,0.33,2.31c-0.35,0.64-1.36,0.96-2.13,1.31
				c-0.7,0.32-1.61,0.32-2.19,0.77C-234.52,242.53-238.32,245.62-242.22,248.75z"/>
		</g>
	</g>
	<polygon class="st0" points="-633.7,495.13 -633.7,547.6 -134.2,547.6 -134.2,495.15 	"/>
</g>
<g>
	<g>
		<g>
			<g>
				<rect x="403.62" y="212.76" class="st0" width="2.5" height="19.13"/>
				<rect x="1174.36" y="271.57" class="st0" width="42.61" height="177.39"/>
				<rect x="795.87" y="316.21" class="st0" width="30.82" height="10.09"/>
				<rect x="1112.96" y="212.76" class="st0" width="2.49" height="19.13"/>
				<path class="st0" d="M517.34,427.42c-72.6,0-131.65-59.06-131.65-131.65c0-72.6,59.06-131.66,131.65-131.66
					c72.59,0,131.65,59.06,131.65,131.66C649,368.36,589.93,427.42,517.34,427.42z M517.34,166.89
					c-71.06,0-128.87,57.81-128.87,128.87c0,71.06,57.81,128.86,128.87,128.86s128.87-57.81,128.87-128.86
					C646.21,224.7,588.4,166.89,517.34,166.89z"/>
				<path class="st0" d="M517.34,400.17c-57.57,0-104.41-46.84-104.41-104.41c0-57.57,46.84-104.41,104.41-104.41
					c57.57,0,104.41,46.84,104.41,104.41C621.75,353.34,574.91,400.17,517.34,400.17z M517.34,193.98
					c-56.12,0-101.78,45.66-101.78,101.78c0,56.12,45.66,101.78,101.78,101.78c56.12,0,101.78-45.66,101.78-101.78
					C619.13,239.64,573.46,193.98,517.34,193.98z"/>
				<path class="st0" d="M413.08,297.16h208.09c-0.09-0.93-0.09-1.86-0.01-2.79H413.21C413.26,295.3,413.21,296.23,413.08,297.16z"
					/>
				<path class="st0" d="M386.33,294.37h-8.31c-0.77,0-1.39,0.63-1.39,1.4c0,0.77,0.62,1.39,1.39,1.39h8.44
					C386.34,296.23,386.29,295.3,386.33,294.37z"/>
				<path class="st0" d="M656.66,294.37h-9.08c0.08,0.93,0.08,1.86-0.01,2.79h9.09c0.77,0,1.4-0.62,1.4-1.39
					C658.05,294.99,657.43,294.37,656.66,294.37z"/>
				<path class="st0" d="M378.03,298.9c-1.74,0-3.14-1.4-3.14-3.14c0-1.74,1.41-3.14,3.14-3.14s3.14,1.4,3.14,3.14
					C381.17,297.5,379.76,298.9,378.03,298.9z"/>
				<path class="st0" d="M656.66,298.9c1.74,0,3.15-1.4,3.15-3.14c0-1.74-1.41-3.14-3.15-3.14c-1.73,0-3.14,1.4-3.14,3.14
					C653.52,297.5,654.92,298.9,656.66,298.9z"/>
				<path class="st0" d="M517.34,165.31c0.48,0,0.94,0.03,1.39,0.07v-8.93c0-0.77-0.62-1.39-1.39-1.39c-0.77,0-1.39,0.62-1.39,1.39
					v8.93C516.4,165.33,516.86,165.31,517.34,165.31z"/>
				<path class="st0" d="M518.04,399.01l0.7,0.03V192.68c-0.45,0.04-0.92,0.07-1.39,0.07c-0.48,0-0.94-0.03-1.39-0.07v206.48
					C516.62,399.07,517.31,399.01,518.04,399.01z"/>
				<path class="st0" d="M518.04,426.45c-0.73,0-1.42-0.06-2.09-0.15v8.77c0,0.77,0.62,1.39,1.39,1.39c0.77,0,1.39-0.62,1.39-1.39
					v-8.65L518.04,426.45z"/>
				<path class="st0" d="M514.2,156.44c0-1.73,1.41-3.14,3.14-3.14c1.74,0,3.14,1.41,3.14,3.14c0,1.74-1.41,3.14-3.14,3.14
					C515.61,159.59,514.2,158.18,514.2,156.44z"/>
				<path class="st0" d="M514.2,435.07c0,1.74,1.41,3.15,3.14,3.15c1.74,0,3.14-1.41,3.14-3.15c0-1.73-1.41-3.14-3.14-3.14
					C515.61,431.94,514.2,433.34,514.2,435.07z"/>
				<path class="st0" d="M591.34,367.79L445.35,221.79c-0.55,0.74-1.18,1.43-1.92,2.02l145.81,145.82
					C589.88,368.95,590.57,368.32,591.34,367.79z"/>
				<path class="st0" d="M616.84,393.29l-6.33-6.32c-0.52,0.77-1.14,1.48-1.81,2.13l6.17,6.16c0.27,0.27,0.63,0.41,0.99,0.41
					c0.36,0,0.71-0.14,0.98-0.41C617.38,394.71,617.38,393.84,616.84,393.29z"/>
				<path class="st0" d="M426.63,203.08l-6.81-6.82c-0.54-0.54-1.43-0.54-1.97,0c-0.55,0.55-0.55,1.43,0,1.97l6.91,6.92
					C425.3,204.39,425.91,203.69,426.63,203.08z"/>
				<path class="st0" d="M416.61,199.47c-1.23-1.23-1.23-3.22,0-4.45c1.23-1.23,3.22-1.23,4.45,0c1.23,1.23,1.23,3.22,0,4.45
					C419.82,200.7,417.84,200.7,416.61,199.47z"/>
				<path class="st0" d="M613.63,396.49c1.23,1.23,3.22,1.23,4.45,0c1.23-1.23,1.23-3.21,0-4.44s-3.22-1.23-4.45,0
					C612.4,393.28,612.4,395.27,613.63,396.49z"/>
				<path class="st0" d="M446,369.08l145.19-145.19c-0.69-0.65-1.28-1.36-1.8-2.14L444.01,367.13
					C444.76,367.7,445.42,368.36,446,369.08z"/>
				<path class="st0" d="M424.86,386.28l-7.01,7.01c-0.55,0.55-0.55,1.42,0,1.97c0.27,0.27,0.63,0.41,0.98,0.41
					c0.36,0,0.71-0.14,0.99-0.41l6.8-6.8C425.95,387.8,425.36,387.06,424.86,386.28z"/>
				<path class="st0" d="M616.84,196.26c-0.54-0.54-1.42-0.54-1.97,0l-6.28,6.28c0.73,0.59,1.38,1.26,1.95,1.99l6.29-6.3
					C617.38,197.69,617.38,196.81,616.84,196.26z"/>
				<path class="st0" d="M613.63,195.03c1.23-1.23,3.22-1.23,4.45,0c1.23,1.23,1.23,3.22,0,4.45c-1.23,1.23-3.22,1.23-4.45,0
					C612.4,198.25,612.4,196.26,613.63,195.03z"/>
				<path class="st0" d="M416.61,392.05c-1.23,1.23-1.23,3.21,0,4.44c1.23,1.23,3.22,1.23,4.45,0c1.23-1.23,1.23-3.21,0-4.44
					C419.82,390.83,417.84,390.83,416.61,392.05z"/>
				<path class="st0" d="M391.83,264.59l-9.73-2.3c-0.76-0.18-1.5,0.28-1.68,1.03c-0.17,0.75,0.29,1.5,1.04,1.68l9.85,2.33
					C391.4,266.4,391.58,265.48,391.83,264.59z"/>
				<path class="st0" d="M417.65,270.71c-0.1,0.92-0.3,1.84-0.57,2.73L617.82,321c0.15-0.92,0.39-1.82,0.71-2.7L417.65,270.71z"/>
				<path class="st0" d="M653.22,326.53l-9.1-2.15c-0.05,0.93-0.17,1.86-0.39,2.77l8.84,2.09l0.32,0.04c0.63,0,1.2-0.44,1.36-1.07
					C654.44,327.46,653.97,326.71,653.22,326.53z"/>
				<path class="st0" d="M381.06,266.7c-1.69-0.4-2.73-2.1-2.33-3.79c0.4-1.69,2.1-2.73,3.79-2.33c1.69,0.4,2.73,2.09,2.33,3.78
					C384.44,266.05,382.74,267.09,381.06,266.7z"/>
				<path class="st0" d="M652.18,330.94c1.69,0.4,3.38-0.64,3.78-2.33c0.4-1.69-0.65-3.38-2.34-3.78c-1.68-0.4-3.38,0.64-3.78,2.33
					C649.45,328.85,650.49,330.54,652.18,330.94z"/>
				<path class="st0" d="M548.79,169.09l2.03-8.57c0.18-0.75-0.29-1.5-1.04-1.68c-0.76-0.18-1.5,0.29-1.68,1.03l-2,8.45
					C547.07,168.5,547.96,168.75,548.79,169.09z"/>
				<path class="st0" d="M494.92,396.43l47.61-200.94c-0.98-0.06-1.9-0.2-2.76-0.42l-47.55,200.65
					C493.18,395.88,494.08,396.11,494.92,396.43z"/>
				<path class="st0" d="M485.89,422.45l-2.03,8.56c-0.17,0.75,0.29,1.49,1.04,1.67l0.32,0.04c0.63,0,1.2-0.43,1.35-1.07l2.07-8.73
					C487.66,422.84,486.75,422.69,485.89,422.45z"/>
				<path class="st0" d="M546.41,159.48c0.4-1.69,2.09-2.73,3.78-2.33c1.69,0.4,2.73,2.09,2.34,3.78c-0.4,1.69-2.1,2.73-3.79,2.33
					C547.05,162.86,546.01,161.16,546.41,159.48z"/>
				<path class="st0" d="M482.16,430.6c-0.4,1.69,0.65,3.38,2.34,3.78c1.69,0.4,3.38-0.64,3.78-2.33c0.4-1.69-0.65-3.39-2.33-3.79
					C484.25,427.87,482.56,428.91,482.16,430.6z"/>
				<path class="st0" d="M450.13,184.14l-4.74-7.68c-0.4-0.66-1.27-0.86-1.92-0.46c-0.65,0.4-0.86,1.26-0.46,1.92l4.79,7.76
					C448.5,185.09,449.27,184.57,450.13,184.14z"/>
				<path class="st0" d="M591.67,413.6l-4.54-7.37c-0.68,0.61-1.45,1.15-2.3,1.6l4.47,7.24c0.26,0.42,0.72,0.66,1.18,0.66l0.74-0.21
					C591.87,415.12,592.07,414.26,591.67,413.6z"/>
				<path class="st0" d="M572.8,383.01L464.57,207.56c-0.72,0.56-1.51,1.04-2.39,1.44l108.18,175.38
					C571.1,383.83,571.91,383.38,572.8,383.01z"/>
				<path class="st0" d="M441.53,178.84c-0.91-1.48-0.46-3.41,1.02-4.32c1.47-0.91,3.41-0.45,4.32,1.02
					c0.91,1.48,0.46,3.41-1.02,4.32C444.38,180.77,442.44,180.31,441.53,178.84z"/>
				<path class="st0" d="M587.81,415.99c0.91,1.47,2.85,1.93,4.33,1.02c1.48-0.91,1.94-2.84,1.03-4.32
					c-0.92-1.48-2.85-1.94-4.32-1.03C587.36,412.57,586.9,414.51,587.81,415.99z"/>
				<path class="st0" d="M637.1,221.89c-0.41-0.66-1.26-0.85-1.92-0.46l-6.99,4.31c0.48,0.8,0.88,1.66,1.18,2.54l7.26-4.48
					C637.3,223.4,637.51,222.54,637.1,221.89z"/>
				<path class="st0" d="M430.5,350.97l176.14-108.65c-0.57-0.73-1.06-1.53-1.47-2.37L429,348.62
					C429.58,349.35,430.08,350.14,430.5,350.97z"/>
				<path class="st0" d="M406.3,362.62l-8.26,5.09c-0.65,0.41-0.86,1.27-0.45,1.92c0.26,0.43,0.72,0.66,1.18,0.66l0.74-0.21
					l7.95-4.9C406.98,364.37,406.6,363.52,406.3,362.62z"/>
				<path class="st0" d="M634.27,219.94c1.48-0.91,3.41-0.45,4.32,1.03c0.91,1.48,0.45,3.41-1.02,4.33
					c-1.48,0.91-3.41,0.45-4.32-1.02C632.33,222.79,632.79,220.86,634.27,219.94z"/>
				<path class="st0" d="M397.12,366.23c-1.48,0.91-1.93,2.85-1.03,4.32c0.92,1.48,2.85,1.94,4.33,1.02
					c1.48-0.91,1.94-2.85,1.03-4.33C400.53,365.78,398.6,365.32,397.12,366.23z"/>
				<path class="st0" d="M639.72,362.36l-8.03-4.47c-0.26,0.9-0.61,1.77-1.04,2.6l7.72,4.3l0.68,0.17c0.48,0,0.96-0.26,1.22-0.71
					C640.63,363.58,640.39,362.74,639.72,362.36z"/>
				<path class="st0" d="M608.44,344.93L428.36,244.58c-0.47,0.8-0.98,1.58-1.47,2.37l180.16,100.39
					C607.42,346.49,607.9,345.69,608.44,344.93z"/>
				<path class="st0" d="M404.32,231.18l-8-4.46c-0.67-0.37-1.52-0.14-1.89,0.54c-0.37,0.67-0.13,1.52,0.54,1.9l7.66,4.27
					C403.19,232.67,403.73,231.91,404.32,231.18z"/>
				<path class="st0" d="M394.12,230.69c-1.51-0.85-2.06-2.76-1.22-4.28c0.85-1.52,2.76-2.06,4.27-1.22
					c1.52,0.85,2.07,2.76,1.22,4.27C397.54,230.99,395.63,231.54,394.12,230.69z"/>
				<path class="st0" d="M637.51,366.32c1.52,0.85,3.43,0.3,4.28-1.22c0.85-1.51,0.3-3.43-1.22-4.27c-1.52-0.85-3.43-0.3-4.27,1.21
					C635.45,363.57,635.99,365.48,637.51,366.32z"/>
				<path class="st0" d="M582.03,182.54l4.35-7.8c0.37-0.67,0.13-1.52-0.54-1.89c-0.67-0.37-1.52-0.14-1.9,0.54l-4.32,7.75
					C580.48,181.53,581.28,182,582.03,182.54z"/>
				<path class="st0" d="M467.97,387.21l100.78-180.83c-0.87-0.35-1.69-0.78-2.47-1.29L465.62,385.71
					C466.48,386.13,467.26,386.64,467.97,387.21z"/>
				<path class="st0" d="M452.2,409.81l-3.89,6.97c-0.38,0.67-0.14,1.52,0.54,1.89l0.67,0.17c0.49,0,0.96-0.26,1.22-0.72l3.96-7.1
					C453.79,410.7,452.96,410.3,452.2,409.81z"/>
				<path class="st0" d="M582.41,172.54c0.85-1.52,2.76-2.06,4.27-1.22c1.52,0.85,2.06,2.76,1.22,4.27
					c-0.85,1.52-2.76,2.06-4.28,1.22C582.12,175.97,581.57,174.05,582.41,172.54z"/>
				<path class="st0" d="M446.78,415.93c-0.84,1.52-0.3,3.43,1.22,4.28c1.52,0.85,3.43,0.3,4.27-1.22c0.85-1.52,0.3-3.43-1.22-4.28
					C449.54,413.87,447.62,414.41,446.78,415.93z"/>
				<path class="st0" d="M480.37,170.81c0.83-0.33,1.73-0.58,2.68-0.75l-2.47-8.69c-0.21-0.73-0.98-1.18-1.72-0.96
					c-0.74,0.21-1.17,0.98-0.96,1.72L480.37,170.81z"/>
				<path class="st0" d="M546.98,394.93l-56.43-198.48c-0.83,0.3-1.74,0.52-2.71,0.66l56.4,198.38
					C545.1,395.22,546.01,395.03,546.98,394.93z"/>
				<path class="st0" d="M554.43,421.12c-0.82,0.36-1.71,0.65-2.66,0.85l2.33,8.18c0.17,0.61,0.73,1.01,1.34,1.01l0.38-0.05
					c0.74-0.21,1.17-0.98,0.96-1.72L554.43,421.12z"/>
				<path class="st0" d="M476.22,162.62c-0.47-1.67,0.5-3.41,2.17-3.88c1.67-0.48,3.41,0.49,3.88,2.16c0.47,1.67-0.5,3.41-2.17,3.88
					C478.43,165.25,476.7,164.28,476.22,162.62z"/>
				<path class="st0" d="M552.42,430.63c0.48,1.67,2.21,2.64,3.89,2.17c1.66-0.48,2.64-2.22,2.16-3.88
					c-0.47-1.67-2.21-2.64-3.88-2.16C552.91,427.22,551.95,428.96,552.42,430.63z"/>
				<path class="st0" d="M391.5,330.09l-8.54,2.43c-0.74,0.21-1.17,0.98-0.96,1.72c0.17,0.61,0.73,1.02,1.34,1.02l0.38-0.06
					l8.7-2.47C392.03,331.89,391.71,331,391.5,330.09z"/>
				<path class="st0" d="M418.43,325.32l198.3-56.37c-0.36-0.85-0.64-1.74-0.84-2.66l-198.04,56.3
					C418.14,323.48,418.33,324.39,418.43,325.32z"/>
				<path class="st0" d="M652.69,257.28c-0.21-0.74-0.97-1.18-1.72-0.96l-8.08,2.3c0.28,0.88,0.46,1.8,0.55,2.74l8.29-2.36
					C652.47,258.79,652.9,258.02,652.69,257.28z"/>
				<path class="st0" d="M650.49,254.64c1.67-0.47,3.41,0.49,3.88,2.17c0.48,1.67-0.5,3.41-2.17,3.88c-1.67,0.48-3.4-0.49-3.88-2.16
					C647.85,256.85,648.82,255.12,650.49,254.64z"/>
				<path class="st0" d="M382.48,330.84c-1.67,0.47-2.64,2.21-2.17,3.88c0.47,1.67,2.21,2.64,3.88,2.17
					c1.67-0.48,2.64-2.21,2.16-3.88C385.88,331.33,384.15,330.36,382.48,330.84z"/>
				<path class="st0" d="M544.51,295.77c0,15-12.16,27.16-27.17,27.16c-15,0-27.17-12.16-27.17-27.16
					c0-15.01,12.16-27.17,27.17-27.17C532.35,268.6,544.51,280.76,544.51,295.77z"/>
				<path class="st0" d="M517.34,171.84c3.8,0,6.89,3.09,6.89,6.89c0,3.8-3.09,6.9-6.89,6.9c-3.8,0-6.9-3.09-6.9-6.9
					C510.45,174.93,513.54,171.84,517.34,171.84 M517.34,169.05c-5.35,0-9.68,4.34-9.68,9.68c0,5.35,4.33,9.68,9.68,9.68
					c5.35,0,9.68-4.33,9.68-9.68C527.02,173.39,522.69,169.05,517.34,169.05z"/>
				<path class="st0" d="M517.34,405.89c3.8,0,6.89,3.1,6.89,6.9s-3.09,6.89-6.89,6.89c-3.8,0-6.9-3.09-6.9-6.89
					S513.54,405.89,517.34,405.89 M517.34,403.11c-5.35,0-9.68,4.33-9.68,9.68c0,5.34,4.33,9.68,9.68,9.68
					c5.35,0,9.68-4.34,9.68-9.68C527.02,407.44,522.69,403.11,517.34,403.11z"/>
				<path class="st0" d="M634.37,288.87c3.8,0,6.9,3.1,6.9,6.9c0,3.8-3.09,6.9-6.9,6.9c-3.8,0-6.89-3.1-6.89-6.9
					C627.48,291.96,630.57,288.87,634.37,288.87 M634.37,286.08c-5.35,0-9.68,4.33-9.68,9.68c0,5.34,4.33,9.68,9.68,9.68
					c5.35,0,9.68-4.33,9.68-9.68C644.05,290.41,639.72,286.08,634.37,286.08z"/>
				<path class="st0" d="M400.32,288.87c3.8,0,6.9,3.1,6.9,6.9c0,3.8-3.09,6.9-6.9,6.9c-3.8,0-6.9-3.1-6.9-6.9
					C393.42,291.96,396.51,288.87,400.32,288.87 M400.32,286.08c-5.35,0-9.68,4.33-9.68,9.68c0,5.34,4.33,9.68,9.68,9.68
					c5.35,0,9.68-4.33,9.68-9.68C410,290.41,405.67,286.08,400.32,286.08z"/>
				<path class="st0" d="M600.1,206.12L600.1,206.12c1.84,0,3.57,0.72,4.87,2.02c2.68,2.69,2.68,7.06,0,9.75
					c-1.31,1.3-3.03,2.02-4.87,2.02c-1.84,0-3.58-0.72-4.88-2.02c-1.3-1.3-2.02-3.03-2.02-4.87c0-1.84,0.72-3.57,2.02-4.87
					C596.52,206.84,598.25,206.12,600.1,206.12 M600.09,203.33c-2.48,0-4.96,0.95-6.85,2.84c-3.78,3.78-3.79,9.91,0,13.69
					c1.89,1.89,4.37,2.83,6.85,2.83c2.47,0,4.95-0.95,6.84-2.83c3.78-3.78,3.78-9.91,0-13.69
					C605.05,204.28,602.57,203.33,600.09,203.33z"/>
				<path class="st0" d="M434.59,371.62L434.59,371.62c1.84,0,3.57,0.71,4.87,2.02c1.3,1.3,2.02,3.03,2.02,4.87
					c0,1.84-0.71,3.57-2.02,4.88c-1.3,1.3-3.03,2.02-4.88,2.02c-1.84,0-3.57-0.72-4.88-2.02c-2.68-2.69-2.68-7.06,0-9.75
					C431.02,372.33,432.75,371.62,434.59,371.62 M434.59,368.83c-2.48,0-4.95,0.94-6.85,2.83c-3.78,3.78-3.78,9.91,0,13.7
					c1.89,1.89,4.37,2.84,6.85,2.84c2.48,0,4.96-0.95,6.85-2.84c3.78-3.78,3.78-9.91,0-13.7
					C439.54,369.77,437.07,368.83,434.59,368.83z"/>
				<path class="st0" d="M600.1,371.62L600.1,371.62c1.84,0,3.57,0.71,4.87,2.02c2.68,2.69,2.69,7.06,0,9.75
					c-1.31,1.3-3.03,2.02-4.87,2.02c-1.84,0-3.58-0.72-4.88-2.02c-1.3-1.3-2.02-3.03-2.02-4.88c0-1.84,0.72-3.57,2.02-4.87
					C596.52,372.33,598.25,371.62,600.1,371.62 M600.1,368.83c-2.48,0-4.96,0.94-6.85,2.83c-3.78,3.78-3.78,9.91,0,13.7
					c1.89,1.89,4.37,2.84,6.85,2.84c2.47,0,4.95-0.95,6.84-2.84c3.79-3.78,3.78-9.91,0-13.7
					C605.05,369.77,602.57,368.83,600.1,368.83z"/>
				<path class="st0" d="M434.59,206.12L434.59,206.12c1.84,0,3.57,0.72,4.87,2.02c1.3,1.3,2.02,3.04,2.02,4.87
					c0,1.84-0.72,3.57-2.02,4.88c-1.3,1.3-3.03,2.02-4.88,2.02c-1.84,0-3.57-0.72-4.88-2.02c-2.68-2.69-2.68-7.06,0-9.75
					C431.02,206.84,432.75,206.12,434.59,206.12 M434.59,203.33c-2.48,0-4.95,0.95-6.85,2.84c-3.78,3.78-3.78,9.91,0,13.69
					c1.89,1.89,4.37,2.83,6.85,2.83c2.48,0,4.96-0.95,6.85-2.83c3.78-3.78,3.78-9.91,0-13.69
					C439.55,204.28,437.07,203.33,434.59,203.33z"/>
				<path class="st0" d="M544.34,175L544.34,175c0.54,0,1.07,0.06,1.6,0.19c1.79,0.42,3.31,1.52,4.28,3.09
					c0.96,1.57,1.26,3.42,0.84,5.21c-0.74,3.13-3.5,5.31-6.7,5.31c-0.54,0-1.07-0.06-1.6-0.19c-3.7-0.88-5.99-4.6-5.12-8.3
					C538.38,177.18,541.14,175,544.34,175 M544.34,172.21c-4.38,0-8.36,3-9.41,7.45c-1.23,5.2,1.98,10.42,7.18,11.65
					c0.75,0.18,1.5,0.26,2.24,0.26c4.38,0,8.35-3,9.41-7.45c1.23-5.2-1.98-10.42-7.18-11.65
					C545.84,172.3,545.08,172.21,544.34,172.21z"/>
				<path class="st0" d="M490.32,402.73L490.32,402.73c0.53,0,1.07,0.06,1.6,0.19c3.7,0.88,6,4.6,5.12,8.3
					c-0.74,3.12-3.5,5.3-6.7,5.3c-0.53,0-1.07-0.06-1.6-0.19c-3.7-0.87-6-4.6-5.12-8.3C484.36,404.91,487.12,402.73,490.32,402.73
					 M490.32,399.94c-4.38,0-8.35,3-9.41,7.45c-1.23,5.2,1.98,10.42,7.18,11.65c0.75,0.18,1.5,0.26,2.24,0.26
					c4.39,0,8.36-3,9.41-7.45c1.23-5.2-1.98-10.42-7.19-11.65C491.82,400.03,491.06,399.94,490.32,399.94z"/>
				<path class="st0" d="M631.2,315.88L631.2,315.88c0.53,0,1.07,0.06,1.6,0.19c1.79,0.43,3.31,1.52,4.28,3.09
					c0.97,1.57,1.27,3.42,0.84,5.21c-0.74,3.13-3.5,5.31-6.7,5.31c-0.54,0-1.07-0.06-1.6-0.19c-3.7-0.87-5.99-4.6-5.11-8.3
					C625.24,318.06,628,315.88,631.2,315.88 M631.2,313.09c-4.39,0-8.36,3-9.41,7.45c-1.24,5.2,1.98,10.42,7.18,11.66
					c0.75,0.18,1.51,0.26,2.24,0.26c4.38,0,8.35-3,9.41-7.45c1.23-5.2-1.98-10.42-7.18-11.65
					C632.69,313.18,631.94,313.09,631.2,313.09z"/>
				<path class="st0" d="M403.47,261.85L403.47,261.85c0.53,0,1.07,0.06,1.6,0.19c3.7,0.87,6,4.6,5.12,8.3
					c-0.74,3.12-3.49,5.3-6.7,5.3c-0.53,0-1.07-0.06-1.6-0.19c-1.79-0.43-3.31-1.52-4.27-3.09c-0.97-1.57-1.26-3.42-0.84-5.21
					C397.51,264.03,400.26,261.85,403.47,261.85 M403.47,259.07c-4.38,0-8.35,2.99-9.41,7.45c-1.24,5.2,1.98,10.42,7.18,11.65
					c0.75,0.18,1.51,0.26,2.24,0.26c4.38,0,8.36-3,9.41-7.45c1.23-5.2-1.98-10.42-7.19-11.65
					C404.96,259.15,404.21,259.07,403.47,259.07z"/>
				<path class="st0" d="M616.95,227.45L616.95,227.45c2.41,0,4.61,1.22,5.87,3.27c1.99,3.24,0.98,7.5-2.25,9.49
					c-1.09,0.67-2.34,1.03-3.61,1.03c-2.41,0-4.61-1.23-5.88-3.28c-0.96-1.57-1.26-3.42-0.84-5.21c0.42-1.79,1.52-3.31,3.09-4.28
					C614.43,227.81,615.68,227.45,616.95,227.45 M616.95,224.66c-1.74,0-3.49,0.47-5.08,1.44c-4.55,2.8-5.97,8.76-3.16,13.32
					c1.83,2.97,5,4.6,8.25,4.6c1.73,0,3.49-0.47,5.07-1.44c4.55-2.81,5.96-8.77,3.16-13.32C623.37,226.3,620.2,224.66,616.95,224.66
					z"/>
				<path class="st0" d="M417.72,350.28L417.72,350.28c2.41,0,4.61,1.23,5.87,3.28c0.97,1.57,1.27,3.41,0.85,5.21
					c-0.42,1.79-1.52,3.31-3.09,4.28c-1.09,0.67-2.34,1.03-3.61,1.03c-2.42,0-4.61-1.23-5.87-3.28c-0.97-1.57-1.27-3.42-0.84-5.2
					c0.43-1.79,1.53-3.31,3.1-4.28C415.2,350.63,416.45,350.28,417.72,350.28 M417.72,347.5c-1.73,0-3.49,0.47-5.07,1.44
					c-4.55,2.81-5.97,8.77-3.16,13.32c1.83,2.97,5,4.6,8.25,4.6c1.73,0,3.49-0.47,5.07-1.44c4.55-2.81,5.97-8.77,3.16-13.32
					C424.14,349.13,420.97,347.5,417.72,347.5z"/>
				<path class="st0" d="M578.76,388.48L578.76,388.48c2.41,0,4.6,1.22,5.86,3.27c2,3.24,0.99,7.5-2.24,9.49
					c-1.09,0.67-2.34,1.02-3.61,1.02c-2.42,0-4.61-1.23-5.88-3.28c-0.97-1.57-1.27-3.42-0.84-5.21c0.43-1.79,1.52-3.31,3.09-4.28
					C576.23,388.83,577.48,388.48,578.76,388.48 M578.75,385.7c-1.73,0-3.49,0.47-5.07,1.44c-4.55,2.81-5.97,8.77-3.16,13.32
					c1.83,2.97,5,4.6,8.25,4.6c1.73,0,3.48-0.46,5.07-1.44c4.55-2.81,5.96-8.77,3.16-13.32C585.17,387.33,582,385.7,578.75,385.7z"
					/>
				<path class="st0" d="M455.92,189.25L455.92,189.25c2.42,0,4.61,1.23,5.88,3.28c0.97,1.57,1.27,3.42,0.84,5.21
					c-0.43,1.79-1.53,3.31-3.09,4.28c-1.09,0.67-2.34,1.03-3.61,1.03c-2.42,0-4.61-1.23-5.88-3.28c-1.99-3.24-0.98-7.49,2.25-9.49
					C453.4,189.61,454.65,189.25,455.92,189.25 M455.92,186.46c-1.73,0-3.49,0.47-5.07,1.44c-4.55,2.81-5.96,8.77-3.16,13.32
					c1.83,2.97,5,4.6,8.25,4.6c1.73,0,3.49-0.46,5.07-1.44c4.55-2.8,5.96-8.77,3.16-13.32C462.34,188.1,459.17,186.46,455.92,186.46
					z"/>
				<path class="st0" d="M574.53,186.76L574.53,186.76c1.17,0,2.33,0.31,3.36,0.88c1.61,0.9,2.77,2.37,3.27,4.14
					c0.5,1.77,0.28,3.63-0.62,5.24c-1.22,2.18-3.53,3.53-6.02,3.53c-1.17,0-2.33-0.31-3.36-0.88c-3.32-1.86-4.5-6.07-2.64-9.38
					C569.73,188.11,572.04,186.76,574.53,186.76 M574.53,183.97c-3.39,0-6.69,1.78-8.45,4.95c-2.61,4.67-0.95,10.57,3.71,13.18
					c1.5,0.84,3.12,1.24,4.72,1.24c3.39,0,6.68-1.78,8.46-4.95c2.61-4.67,0.95-10.56-3.72-13.18
					C577.75,184.37,576.13,183.97,574.53,183.97z"/>
				<path class="st0" d="M460.17,390.97L460.17,390.97c1.17,0,2.33,0.3,3.36,0.88c3.31,1.86,4.5,6.07,2.64,9.39
					c-1.22,2.17-3.52,3.53-6.02,3.53c-1.17,0-2.33-0.31-3.37-0.88c-3.31-1.86-4.5-6.07-2.65-9.39
					C455.37,392.32,457.67,390.97,460.17,390.97 M460.17,388.18c-3.39,0-6.68,1.79-8.46,4.96c-2.61,4.67-0.95,10.56,3.72,13.17
					c1.5,0.84,3.12,1.24,4.72,1.24c3.39,0,6.68-1.78,8.45-4.95c2.61-4.67,0.95-10.57-3.71-13.18
					C463.39,388.58,461.77,388.18,460.17,388.18z"/>
				<path class="st0" d="M619.45,346.05L619.45,346.05c1.17,0,2.34,0.31,3.36,0.88c1.61,0.9,2.77,2.37,3.27,4.14
					c0.5,1.77,0.28,3.63-0.62,5.24c-1.22,2.18-3.52,3.53-6.02,3.53c-1.17,0-2.33-0.3-3.36-0.88c-3.31-1.86-4.5-6.07-2.64-9.39
					C614.65,347.4,616.96,346.05,619.45,346.05 M619.45,343.26c-3.39,0-6.68,1.78-8.45,4.95c-2.61,4.67-0.95,10.56,3.71,13.18
					c1.5,0.83,3.12,1.23,4.72,1.23c3.39,0,6.68-1.79,8.45-4.95c2.61-4.67,0.95-10.57-3.71-13.18
					C622.68,343.66,621.06,343.26,619.45,343.26z"/>
				<path class="st0" d="M415.25,231.68L415.25,231.68c1.17,0,2.33,0.31,3.36,0.88c3.31,1.86,4.51,6.07,2.64,9.39
					c-1.22,2.18-3.52,3.53-6.02,3.53c-1.17,0-2.33-0.31-3.36-0.88c-1.61-0.9-2.77-2.37-3.27-4.14c-0.5-1.78-0.27-3.64,0.63-5.25
					C410.44,233.04,412.75,231.68,415.25,231.68 M415.25,228.9c-3.39,0-6.68,1.79-8.45,4.95c-2.61,4.67-0.95,10.56,3.71,13.18
					c1.5,0.84,3.12,1.24,4.73,1.24c3.39,0,6.68-1.78,8.45-4.95c2.61-4.67,0.95-10.57-3.72-13.18
					C418.47,229.29,416.85,228.9,415.25,228.9z"/>
				<path class="st0" d="M629.98,257.1L629.98,257.1c3.07,0,5.8,2.07,6.63,5.02c1.03,3.66-1.11,7.48-4.77,8.51
					c-0.61,0.18-1.25,0.26-1.88,0.26c-3.06,0-5.79-2.07-6.62-5.03c-0.5-1.77-0.28-3.64,0.62-5.24c0.9-1.61,2.37-2.76,4.15-3.26
					C628.72,257.19,629.35,257.1,629.98,257.1 M629.98,254.32c-0.87,0-1.75,0.12-2.63,0.36c-5.14,1.46-8.14,6.8-6.69,11.94
					c1.21,4.27,5.08,7.06,9.31,7.06c0.87,0,1.75-0.11,2.63-0.37c5.15-1.45,8.14-6.8,6.69-11.94
					C638.09,257.1,634.21,254.32,629.98,254.32z"/>
				<path class="st0" d="M404.72,320.63L404.72,320.63c3.07,0,5.79,2.07,6.62,5.03c0.5,1.77,0.28,3.63-0.62,5.24
					c-0.9,1.61-2.37,2.76-4.15,3.26c-0.61,0.17-1.25,0.26-1.88,0.26c-3.07,0-5.79-2.07-6.63-5.03c-0.5-1.77-0.28-3.64,0.62-5.24
					c0.9-1.61,2.37-2.77,4.15-3.27C403.46,320.72,404.09,320.63,404.72,320.63 M404.72,317.84c-0.87,0-1.76,0.12-2.63,0.37
					c-5.15,1.46-8.15,6.8-6.7,11.95c1.21,4.26,5.09,7.05,9.31,7.05c0.87,0,1.76-0.12,2.64-0.37c5.14-1.45,8.14-6.8,6.69-11.95
					C412.82,320.63,408.94,317.84,404.72,317.84z"/>
				<path class="st0" d="M549.12,401.5c3.07,0,5.79,2.06,6.63,5.02c1.03,3.66-1.11,7.48-4.77,8.51c-0.61,0.17-1.25,0.26-1.88,0.26
					c-3.07,0-5.79-2.06-6.63-5.03c-0.5-1.77-0.28-3.63,0.62-5.24c0.9-1.61,2.37-2.76,4.14-3.26
					C547.85,401.58,548.49,401.5,549.12,401.5 M549.12,398.71c-0.87,0-1.75,0.12-2.63,0.37c-5.15,1.45-8.14,6.8-6.69,11.94
					c1.21,4.27,5.09,7.06,9.31,7.06c0.87,0,1.76-0.12,2.64-0.37c5.15-1.46,8.14-6.8,6.69-11.95
					C557.22,401.5,553.34,398.71,549.12,398.71z"/>
				<path class="st0" d="M485.59,176.23L485.59,176.23c3.06,0,5.79,2.07,6.62,5.03c0.5,1.77,0.28,3.63-0.62,5.24
					c-0.9,1.61-2.37,2.77-4.15,3.27c-0.61,0.17-1.24,0.26-1.87,0.26c-3.07,0-5.8-2.06-6.63-5.03c-1.03-3.66,1.11-7.47,4.76-8.51
					C484.32,176.32,484.95,176.23,485.59,176.23 M485.58,173.45c-0.87,0-1.76,0.12-2.63,0.36c-5.14,1.45-8.14,6.8-6.69,11.94
					c1.2,4.27,5.09,7.06,9.31,7.06c0.87,0,1.75-0.12,2.63-0.37c5.15-1.45,8.14-6.8,6.69-11.95
					C493.69,176.23,489.81,173.45,485.58,173.45z"/>
				<polygon class="st0" points="414.01,448.96 517.19,299.57 620.36,448.96 623.75,448.96 517.19,294.67 410.62,448.96 				"/>
				<path class="st0" d="M793.84,448.96h74.29V197.39h4.3v-53.96h-8.79v-19.16h0l-16.43-24.44V80.29h6.26
					c0,0-14.47-20.33-18.76-39.88h-2.54V15.77h-2.36V40.4h-2.53c-4.31,19.55-18.77,39.88-18.77,39.88h6.26v19.55l-16.43,24.44v19.16
					h-8.8v53.96h4.3V448.96z M855.1,152.51c5.15,0,9.32,6.43,9.32,14.37c0,7.94-4.17,14.37-9.32,14.37c-5.14,0-9.31-6.44-9.31-14.37
					C845.79,158.94,849.96,152.51,855.1,152.51z M810.31,152.51c7.04,0,12.75,6.43,12.75,14.37c0,7.94-5.71,14.37-12.75,14.37
					c-7.04,0-12.76-6.44-12.76-14.37C797.55,158.94,803.27,152.51,810.31,152.51z"/>
				<rect x="181.41" y="295.63" class="st0" width="79.69" height="152.86"/>
				<rect x="189.9" y="273.47" class="st0" width="3.37" height="25.94"/>
				<rect x="249.22" y="273.47" class="st0" width="3.38" height="25.94"/>
				<rect x="184.65" y="284.95" class="st0" width="73.2" height="14.47"/>
				<polygon class="st0" points="221.25,252.43 193.87,289.19 248.64,289.19 				"/>
				<rect x="216.82" y="234.05" class="st0" width="8.88" height="36.76"/>
				<rect x="219.52" y="214.6" class="st0" width="3.47" height="19.45"/>
				<rect x="323.78" y="359.28" class="st0" width="46.51" height="89.21"/>
				<rect x="328.73" y="346.34" class="st0" width="1.97" height="15.14"/>
				<rect x="363.36" y="346.34" class="st0" width="1.97" height="15.14"/>
				<rect x="325.67" y="353.04" class="st0" width="42.72" height="8.44"/>
				<polygon class="st0" points="347.03,334.06 331.05,355.51 363.02,355.51 				"/>
				<rect x="344.44" y="323.34" class="st0" width="5.18" height="21.45"/>
				<rect x="346.02" y="311.98" class="st0" width="2.03" height="11.36"/>
				<rect x="17.99" y="359.28" class="st0" width="46.51" height="89.21"/>
				<rect x="22.95" y="346.34" class="st0" width="1.97" height="15.14"/>
				<rect x="57.57" y="346.34" class="st0" width="1.97" height="15.14"/>
				<rect x="19.89" y="353.04" class="st0" width="42.72" height="8.44"/>
				<polygon class="st0" points="41.25,334.06 25.26,355.51 57.23,355.51 				"/>
				<rect x="38.66" y="323.34" class="st0" width="5.18" height="21.45"/>
				<rect x="40.23" y="311.98" class="st0" width="2.03" height="11.36"/>
				<polygon class="st0" points="327.76,388.27 255.95,361.48 255.95,337.27 327.76,364.06 				"/>
				<path class="st0" d="M57.23,411.86c-0.6,0-1.13-0.44-1.22-1.06c-0.1-0.67,0.37-1.3,1.05-1.41c0.68-0.1,69.07-10.9,126.69-72.97
					c0.46-0.5,1.25-0.52,1.75-0.07c0.5,0.47,0.53,1.25,0.06,1.75c-58.23,62.73-127.46,73.63-128.14,73.74L57.23,411.86z"/>
				<path class="st0" d="M60.68,425.3c-0.56,0-1.08-0.39-1.21-0.96c-0.15-0.67,0.26-1.33,0.93-1.49
					c0.69-0.16,69.65-16.72,123.46-84.77c0.42-0.53,1.2-0.62,1.74-0.2c0.54,0.43,0.63,1.2,0.2,1.74
					c-54.37,68.76-124.14,85.48-124.84,85.65L60.68,425.3z"/>
				<path class="st0" d="M57.23,436.07c-0.66,0-1.2-0.52-1.23-1.18c-0.04-0.68,0.49-1.26,1.18-1.3
					c0.69-0.03,69.82-3.95,133.35-59.96c0.51-0.45,1.29-0.4,1.75,0.11c0.45,0.52,0.4,1.3-0.11,1.75
					c-64.21,56.61-134.17,60.54-134.87,60.57L57.23,436.07z"/>
				<path class="st0" d="M57.06,445.51c-0.62,0-1.17-0.48-1.23-1.12c-0.07-0.68,0.43-1.28,1.11-1.35
					c0.71-0.07,71.25-7.41,133.55-67.77c0.49-0.48,1.27-0.46,1.75,0.03c0.47,0.49,0.46,1.27-0.03,1.75
					c-62.95,60.99-134.32,68.38-135.04,68.44L57.06,445.51z"/>
				<path class="st0" d="M75.54,448.96l0.1-0.47V406.5c0-0.68-0.55-1.24-1.24-1.24c-0.68,0-1.23,0.56-1.23,1.24v41.98l0.09,0.47
					H75.54z"/>
				<path class="st0" d="M85.33,448.96l0.09-0.47v-45.14c0-0.68-0.55-1.24-1.24-1.24c-0.68,0-1.24,0.55-1.24,1.24v45.14l0.09,0.47
					H85.33z"/>
				<path class="st0" d="M95.12,448.96l0.09-0.47v-48.8c0-0.69-0.55-1.24-1.24-1.24c-0.68,0-1.24,0.56-1.24,1.24v48.8l0.1,0.47
					H95.12z"/>
				<path class="st0" d="M104.91,448.96l0.09-0.47v-53.39c0-0.69-0.56-1.24-1.23-1.24c-0.69,0-1.24,0.55-1.24,1.24v53.39l0.09,0.47
					H104.91z"/>
				<path class="st0" d="M114.7,448.96l0.1-0.47v-57.98c0-0.68-0.56-1.24-1.24-1.24c-0.68,0-1.23,0.56-1.23,1.24v57.98l0.09,0.47
					H114.7z"/>
				<path class="st0" d="M124.49,448.96l0.09-0.47v-62.87c0-0.68-0.56-1.24-1.24-1.24c-0.68,0-1.24,0.56-1.24,1.24v62.87l0.09,0.47
					H124.49z"/>
				<path class="st0" d="M134.28,448.96l0.09-0.47v-69.05c0-0.68-0.55-1.23-1.24-1.23c-0.68,0-1.24,0.55-1.24,1.23v69.05l0.09,0.47
					H134.28z"/>
				<path class="st0" d="M144.07,448.96l0.09-0.47v-74.53c0-0.69-0.56-1.24-1.24-1.24c-0.69,0-1.24,0.56-1.24,1.24v74.53l0.1,0.47
					H144.07z"/>
				<path class="st0" d="M153.86,448.96l0.1-0.47v-82.2c0-0.68-0.56-1.24-1.24-1.24c-0.68,0-1.24,0.55-1.24,1.24v82.2l0.09,0.47
					H153.86z"/>
				<path class="st0" d="M163.65,448.96l0.09-0.47v-90.07c0-0.68-0.55-1.24-1.24-1.24c-0.68,0-1.24,0.56-1.24,1.24v90.07l0.1,0.47
					H163.65z"/>
				<path class="st0" d="M173.44,448.96l0.09-0.47v-94.94c0-0.68-0.55-1.24-1.23-1.24c-0.68,0-1.24,0.55-1.24,1.24v94.94l0.1,0.47
					H173.44z"/>
				<path class="st0" d="M256.05,429.46c-0.61,0-1.13-0.44-1.23-1.06c-0.1-0.68,0.37-1.31,1.04-1.41
					c0.37-0.05,36.79-5.82,67.47-38.88c0.47-0.5,1.25-0.53,1.75-0.06c0.5,0.46,0.54,1.25,0.07,1.75
					c-31.3,33.72-68.55,39.58-68.92,39.64L256.05,429.46z"/>
				<path class="st0" d="M257.89,436.65c-0.56,0-1.07-0.39-1.2-0.96c-0.16-0.67,0.26-1.33,0.93-1.48
					c0.36-0.08,37.09-8.93,65.75-45.17c0.42-0.53,1.2-0.63,1.74-0.2c0.53,0.42,0.62,1.2,0.2,1.74
					c-29.23,36.96-66.76,45.96-67.14,46.05L257.89,436.65z"/>
				<path class="st0" d="M256.05,442.42c-0.66,0-1.21-0.52-1.24-1.18c-0.04-0.68,0.49-1.26,1.18-1.29
					c0.36-0.02,37.18-2.12,71.01-31.95c0.51-0.45,1.29-0.4,1.75,0.11c0.45,0.52,0.4,1.3-0.11,1.75
					c-34.52,30.43-72.16,32.55-72.54,32.57H256.05z"/>
				<path class="st0" d="M255.95,447.47c-0.63,0-1.17-0.48-1.23-1.12c-0.07-0.68,0.44-1.28,1.11-1.35
					c0.38-0.03,37.94-3.96,71.13-36.11c0.49-0.47,1.27-0.46,1.75,0.03c0.48,0.49,0.47,1.28-0.02,1.75
					c-33.84,32.78-72.24,36.76-72.62,36.8L255.95,447.47z"/>
				<path class="st0" d="M266.37,448.96l0.09-0.47v-22.47c0-0.68-0.55-1.24-1.23-1.24c-0.68,0-1.24,0.56-1.24,1.24v22.47l0.09,0.47
					H266.37z"/>
				<path class="st0" d="M271.62,448.96l0.1-0.47v-24.16c0-0.68-0.56-1.24-1.24-1.24c-0.68,0-1.24,0.55-1.24,1.24v24.16l0.1,0.47
					H271.62z"/>
				<path class="st0" d="M276.85,448.96l0.1-0.47v-26.12c0-0.68-0.55-1.23-1.24-1.23c-0.68,0-1.24,0.55-1.24,1.23v26.12l0.09,0.47
					H276.85z"/>
				<path class="st0" d="M282.09,448.96l0.09-0.47v-28.57c0-0.69-0.55-1.24-1.24-1.24c-0.68,0-1.24,0.55-1.24,1.24v28.57l0.09,0.47
					H282.09z"/>
				<path class="st0" d="M287.34,448.96l0.09-0.47v-31.03c0-0.68-0.55-1.24-1.24-1.24c-0.68,0-1.24,0.56-1.24,1.24v31.03l0.09,0.47
					H287.34z"/>
				<path class="st0" d="M292.57,448.96l0.09-0.47v-33.65c0-0.68-0.55-1.24-1.24-1.24c-0.68,0-1.24,0.55-1.24,1.24v33.65l0.1,0.47
					H292.57z"/>
				<path class="st0" d="M297.82,448.96l0.09-0.47v-36.96c0-0.68-0.55-1.24-1.24-1.24c-0.68,0-1.24,0.56-1.24,1.24v36.96l0.09,0.47
					H297.82z"/>
				<path class="st0" d="M303.06,448.96l0.1-0.47v-39.89c0-0.68-0.56-1.24-1.24-1.24c-0.68,0-1.23,0.56-1.23,1.24v39.89l0.09,0.47
					H303.06z"/>
				<path class="st0" d="M308.3,448.96l0.09-0.47v-44c0-0.68-0.56-1.24-1.24-1.24c-0.68,0-1.24,0.56-1.24,1.24v44l0.1,0.47H308.3z"
					/>
				<path class="st0" d="M313.53,448.96l0.09-0.47v-48.21c0-0.68-0.55-1.24-1.24-1.24c-0.68,0-1.24,0.56-1.24,1.24v48.21l0.1,0.47
					H313.53z"/>
				<path class="st0" d="M318.77,448.96l0.09-0.47v-50.81c0-0.68-0.55-1.23-1.24-1.23c-0.68,0-1.24,0.56-1.24,1.23v50.81l0.09,0.47
					H318.77z"/>
				<rect x="398.27" y="157.86" class="st0" width="31.23" height="291.09"/>
				<rect x="395.69" y="276.84" class="st0" width="36.39" height="172.11"/>
				<rect x="391.45" y="294.55" class="st0" width="44.86" height="154.4"/>
				<rect x="401.59" y="144.86" class="st0" width="1.32" height="15.22"/>
				<rect x="424.84" y="144.86" class="st0" width="1.32" height="15.22"/>
				<rect x="399.54" y="151.6" class="st0" width="28.69" height="8.48"/>
				<polygon class="st0" points="413.88,132.52 403.15,154.08 424.62,154.08 				"/>
				<rect x="412.14" y="121.74" class="st0" width="3.48" height="21.56"/>
				<rect x="413.2" y="110.32" class="st0" width="1.36" height="11.41"/>
				<polygon class="st0" points="958.02,445.42 958.02,445.79 -54.86,445.79 -54.86,459.7 958.02,459.7 1404.77,459.7 
					1404.77,445.42 				"/>
				<path class="st0" d="M1331.89,448.96v-57.3h-22.46V283.2h-7.48v-29.32h-6.21v-22.96h-2.3v-19.81h-5.55V187.4h-4.35v23.72h-5.55
					v19.81h-2.29v22.96h-6.22v29.32H1262v108.46h-20.99V244.39h-9.12v-25.47h-5.55V47.84h-2.74v-9.01h-4.43v-9.69h-2.85v9.69h-3.16
					l-16.69-22.41V-4.1h-2.28v-16.42h-2.93V-4.1h-2.28v20.52l-16.7,22.41h-3.16v-9.69h-2.85v9.69h-4.43v9.01h-2.74v171.08h-5.55
					v25.47h-9.12v147.27h-20.02V237.25h3.65c1.34,0,2.44-1.09,2.44-2.43c0-1.34-1.09-2.43-2.44-2.43h-2.47l-21.91-44.99
					l-21.91,44.99h-2.48c-1.35,0-2.43,1.09-2.43,2.43c0,1.35,1.09,2.43,2.43,2.43h3.65v154.41h-10.97v-57.3h-21.64V212.82h-2.74
					v-9.01h-4.43v-9.69h-2.85v9.69h-4.03v-80.48h-7.49V85.69h-5.25v-7.49h-2.74v-6.72h-2.74V58.13h-2.71v13.34h-2.73v6.72h-2.74
					v7.49h-5.25v37.65h-7.49v80.48h-4.03v-9.69h-2.85v9.69h-4.43v9.01h-2.73v199.36h-19.34v-77.82h-20.17v-92.75h-9.01v-37.29h-7.49
					v-29.21h-2.76v-25.2h-6.69v-30.17h-5.24v30.17h-6.69v25.2h-2.76v29.21h-7.49v37.29h-9.01v207.34H1331.89z"/>
				<polygon class="st0" points="625.78,448.96 625.78,346.55 589.91,308.86 589.91,448.96 				"/>
				<polygon class="st0" points="712.71,448.96 712.71,356.86 704.81,356.86 704.81,324.03 693.87,324.03 693.87,312.48 
					658.61,312.48 658.61,324.03 647.66,324.03 647.66,356.86 639.76,356.86 639.76,429.75 636.87,429.75 636.87,448.96 				"/>
				<polygon class="st0" points="778.26,448.96 778.26,307.4 769.25,307.4 769.25,280.97 761.75,280.97 761.75,260.26 
					758.99,260.26 758.99,242.4 740.38,242.4 740.38,260.26 737.61,260.26 737.61,280.97 730.12,280.97 730.12,307.4 721.11,307.4 
					721.11,448.96 				"/>
			</g>
			<polyline class="st0" points="1404.77,453.66 1404.77,493.71 -54.86,493.71 -54.86,453.66 			"/>
		</g>
		<polyline class="st0" points="-54.86,493.71 -54.86,513.98 1404.77,513.98 1404.77,493.71 		"/>
	</g>
	<polygon class="st0" points="0,500 0,547.6 500.54,547.6 500.54,500.02 	"/>
</g>
</svg>
