<?xml version="1.0" encoding="utf-8"?>
<!-- Generator: Adobe Illustrator 24.3.0, SVG Export Plug-In . SVG Version: 6.00 Build 0)  -->
<svg version="1.1" id="Layer_1" xmlns="http://www.w3.org/2000/svg" xmlns:xlink="http://www.w3.org/1999/xlink" x="0px" y="0px"
	 viewBox="0 0 100 100" style="enable-background:new 0 0 100 100;" xml:space="preserve">
<path d="M11.6,38.34c0,0.06-0.09,0.06-0.02,0.12C11.65,38.41,11.6,38.37,11.6,38.34z M11.52,37.99c-0.06,0-0.13,0.06-0.2,0.15
	C11.45,38.22,11.58,38.18,11.52,37.99z M11.83,38.11c0.01,0-0.06,0-0.09,0.03C11.82,38.18,11.81,38.13,11.83,38.11z M12.03,38.02
	c0-0.01,0.02-0.05,0.02-0.08c-0.08,0.03-0.14,0.05-0.19,0.11c0.03,0.01,0.06,0.02,0.1,0.02c0,0-0.01-0.04-0.02-0.04
	C11.96,38.02,12.02,38.03,12.03,38.02z M11.83,38.34c-0.11,0.02-0.16,0.06-0.14,0.16c0.03-0.02,0.03,0,0.06,0.01
	c0.03-0.05,0.03-0.07,0.04-0.11c0.01,0.01,0.04,0.03,0.04,0.03C11.83,38.39,11.82,38.36,11.83,38.34z M11.22,38.44
	c0.01-0.13-0.05-0.12-0.13-0.01C11.14,38.45,11.16,38.43,11.22,38.44z M11.56,38.59c-0.03-0.05-0.02-0.09-0.07-0.13
	c0,0.04-0.01,0.11-0.01,0.14c0.01-0.02,0.01-0.04,0.03-0.01c-0.02,0.02-0.05,0.01-0.07,0.03c0,0,0,0.03,0,0.02
	C11.52,38.65,11.54,38.6,11.56,38.59z M11.37,38.56c-0.04-0.15-0.1-0.1-0.18,0.01c-0.03,0,0.02-0.04,0.02-0.03
	c-0.05,0.08-0.07,0.04,0.05,0.12c-0.02,0,0-0.04,0.02-0.04C11.33,38.7,11.34,38.62,11.37,38.56z M11.46,38.55
	c-0.01-0.02,0-0.07-0.01-0.09c-0.1,0.08-0.09,0.05-0.04,0.17C11.43,38.6,11.44,38.56,11.46,38.55z M15.62,42.9
	c-0.04-0.18-0.38-0.19-0.54-0.06c0.17,0.04,0.44,0.07,0.46,0.21C15.59,43.03,15.6,42.98,15.62,42.9z M41.08,47.92
	c0.03-0.11,0.26-0.35,0.22-0.46c-0.08-0.22-0.33-0.01-0.4,0.06c0.01-0.01-0.14,0.26-0.12,0.22c-0.02,0.04-0.15,0.04-0.12,0.16
	C40.72,48.09,41.02,48.06,41.08,47.92z M79.81,54.3c-0.13,0.01-0.23,0.08-0.14,0.18c0.02-0.06,0.07-0.08,0.14-0.12
	c0,0.03,0.02,0.03,0.04,0.02C79.86,54.33,79.83,54.33,79.81,54.3z M41.36,52.6C41.2,52.66,41.47,52.87,41.36,52.6L41.36,52.6z
	 M78.35,71.49C78.11,71.63,78.44,71.71,78.35,71.49L78.35,71.49z M69.99,83.92c0.01,0.04-0.06,0.01-0.01,0.07
	c0.06-0.03,0.04,0,0.09-0.12C70.06,83.88,69.99,83.92,69.99,83.92z M39.34,46.51c-0.05-0.02-0.07,0.02-0.11-0.04
	c-0.03,0.03-0.09,0.12-0.11,0.16C39.25,46.66,39.34,46.62,39.34,46.51z M39.61,46.53c-0.09-0.01-0.17-0.01-0.24,0.03
	C39.46,46.6,39.66,46.6,39.61,46.53z M44.63,72.01c0-0.08-0.02-0.15-0.02-0.23C44.53,71.85,44.57,71.95,44.63,72.01z M0.59,31.3
	c0.21-0.16-0.12-0.25-0.28-0.09C0.13,31.4,0.38,31.52,0.59,31.3z M78.39,32.91c0.07,0.02,0.13,0,0.17,0.09
	c-0.09-0.03-0.11-0.01-0.17-0.05c0.03,0.11,0.32,0.2,0.44,0.16c0.2-0.08,0.04-0.17-0.11-0.14c0,0.03,0.05,0.01,0.05,0.03
	c-0.13,0.06-0.17-0.04-0.16-0.18c0,0,0,0.04-0.04,0.03c-0.06-0.09-0.02-0.09-0.17-0.14c0.05,0.03,0.07,0.05,0.1,0.08
	c-0.12,0.04-0.02-0.01-0.05,0.07c-0.02-0.01-0.05-0.02-0.07-0.02C78.36,32.88,78.39,32.91,78.39,32.91z M70.17,12.73
	c0.07,0,0.15-0.02,0.22-0.01c-0.14-0.05-0.29,0-0.39,0.11C70.06,12.79,70.12,12.76,70.17,12.73z M43.93,7.78
	c-0.01,0.04-0.05,0.02-0.03,0.06c0.15-0.04,0.2-0.13,0.2-0.22c-0.09,0.02-0.07,0-0.09,0.1c0.01,0.01-0.08,0-0.05-0.02
	C43.96,7.72,43.94,7.75,43.93,7.78z M78.51,32.58c0.03,0,0.05,0.03,0.09,0.02c-0.01-0.06-0.01-0.03,0-0.09
	c-0.01-0.01-0.07-0.04-0.08-0.06C78.46,32.52,78.47,32.53,78.51,32.58z M70.63,12.82c0.03,0.02-0.15-0.07-0.22-0.09
	C70.48,12.75,70.55,12.79,70.63,12.82z M11.33,37.64c-0.04,0.01-0.07-0.01-0.1,0C11.33,37.94,11.54,37.57,11.33,37.64z M3.43,32.45
	c-0.02-0.15-0.16-0.15-0.28-0.16C3.01,32.64,3.4,32.69,3.43,32.45z M3.11,31.75c0.01,0.03,0.01,0.06,0.01,0.09
	c0.07-0.09,0.05-0.23,0.01-0.33C3.04,31.6,3.04,31.69,3.11,31.75z M2.9,33.47c-0.08-0.09-0.13-0.06-0.13,0.05
	C2.76,33.72,2.94,33.7,2.9,33.47z M11.12,38.16c0.05-0.03,0.09,0.01,0.11-0.08C11.08,38.1,11.12,38.15,11.12,38.16z M11.07,38.11
	c0.02-0.03,0.06-0.05,0.06-0.11c-0.06,0-0.15,0.03-0.22,0.06c0.01,0.02,0.02,0.02,0.01,0.05C10.98,38.1,11.03,38.11,11.07,38.11z
	 M0.79,31.51c-0.08-0.11-0.18-0.08-0.26,0.04C0.64,31.62,0.75,31.62,0.79,31.51z M1.49,33.95c0.01-0.15-0.2-0.29-0.25-0.09
	C1.2,34.03,1.42,34.1,1.49,33.95z M1.03,33.97C0.93,34,0.93,34.07,1.03,33.97L1.03,33.97z M2.5,33.8c-0.07-0.17-0.27-0.3-0.35-0.39
	c-0.02,0-0.03,0.01-0.04,0.03c0.03,0.06-0.05,0.24,0.01,0.33C2.21,33.92,2.47,34.02,2.5,33.8z M1.79,31.84
	c-0.26-0.11-0.55-0.16-0.33,0.14C1.52,31.72,1.76,31.97,1.79,31.84z M10.95,28.08c0.04-0.05,0.09-0.12,0.11-0.17
	C11,27.96,10.98,28.03,10.95,28.08z M43.88,7.85c-0.05,0-0.11-0.03-0.18,0C43.79,7.93,43.8,7.86,43.88,7.85z M70.06,12.92
	C70.06,12.92,70.07,12.91,70.06,12.92L70.06,12.92z M72.07,17.24c0.04-0.01,0.03,0.05,0.08,0.01c0-0.02,0-0.03,0-0.05
	C72.1,17.18,72.1,17.23,72.07,17.24z M71.31,17.81c-0.06-0.02-0.08-0.05-0.14-0.03c0.04,0.03,0.1,0.07,0.16,0.1
	C71.33,17.87,71.31,17.83,71.31,17.81z M71.88,17.21c0.05,0.01,0.07,0.06,0.15,0.04c-0.08-0.07-0.04-0.04-0.14-0.07
	c0.01-0.02,0.06-0.02,0.05-0.04c0,0-0.04-0.04-0.03-0.02C71.86,17.14,71.87,17.16,71.88,17.21z M43.69,9.23
	c0.04-0.03,0.07-0.11,0.13-0.15c-0.1-0.12-0.3-0.19-0.39-0.08c-0.13,0.16,0.15,0.21,0.18,0.31C43.63,9.26,43.75,9.15,43.69,9.23z
	 M10.87,26.8C10.88,26.86,10.88,26.86,10.87,26.8L10.87,26.8z M10.88,27.95c0.01,0.05,0,0.08,0.03,0.13c0.07-0.1,0.11-0.22,0.1-0.34
	C10.94,27.8,10.92,27.85,10.88,27.95z M10.84,27.93C10.88,28.03,10.84,27.93,10.84,27.93L10.84,27.93z M82.36,65.99
	c0.22,0.23,0.24,0.19,0.23-0.05C82.56,65.23,82.19,65.57,82.36,65.99z M71.25,18.76c0,0,0,0.07,0.03,0.11
	C71.28,18.83,71.26,18.81,71.25,18.76z M99.74,76.39c-0.24-0.64-0.38,0.21-0.56,0.3C99.4,77,99.83,76.68,99.74,76.39z M75.19,26.49
	c0,0.05-0.04,0.07-0.01,0.13C75.22,26.58,75.19,26.53,75.19,26.49z M97.42,77.58c-0.15-0.09-0.13-0.25-0.31-0.32
	c-0.16-0.06-0.4,0.03-0.42,0.2C96.64,77.85,97.53,78.14,97.42,77.58z M41.8,50.9C41.81,50.9,41.82,50.91,41.8,50.9L41.8,50.9z
	 M84.79,67.22c0-0.03,0.02-0.05-0.01-0.07C84.75,67.19,84.79,67.19,84.79,67.22z M84.56,67.05c-0.04,0.04-0.04,0.14-0.01,0.22
	c0.03,0.04,0.05,0.05,0.06,0.1c-0.02,0-0.06-0.02-0.08-0.03C84.62,67.63,84.83,67.15,84.56,67.05z M83.7,66.46
	c-0.06-0.01-0.13,0-0.2-0.02c0.14,0.07,0.28,0.15,0.36,0.27C83.92,66.54,83.82,66.13,83.7,66.46z M91.02,70.18
	c-0.45-0.57-0.34-1.29-0.48-1.97c-0.08-0.39-0.21-0.8-0.43-1.07c-0.03,0.05-0.07,0.05-0.09,0.08c0.03-0.2-0.16-0.17-0.1-0.38
	c0.02,0.01-0.02,0.06,0.02,0.06c-0.06-0.13-0.03-0.08-0.12-0.17c0.02-0.01,0.04-0.01,0.07-0.01c-0.07-0.03-0.04-0.03-0.11-0.03
	c-0.02-0.07-0.07-0.12-0.09-0.18c-0.06,0.11-0.04,0.07-0.12,0.08c-0.03-0.07-0.01-0.02-0.06-0.08c0.01-0.05,0.03-0.06,0.04-0.1
	c0.06,0.06,0.05,0.01,0.13,0.07c-0.02-0.18-0.11-0.42-0.23-0.19c0.05,0.03,0.03,0.03,0.05,0.08c-0.01-0.01-0.01-0.01-0.02,0
	c-0.11-0.05-0.03-0.01-0.14-0.01c0.07,0.01,0.08,0.02,0.13,0.06c-0.07,0.14-0.14,0.13-0.24,0.21c-0.06,0.05-0.01,0.17-0.08,0.2
	c-0.06,0.03-0.12-0.15-0.24-0.07c0.16,0.12,0.27,0.34,0.22,0.62c-0.04,0.21-0.23,0.89-0.52,0.51c0.03,0.05,0.03,0.13,0.06,0.2
	c-0.09,0.01-0.07,0.02-0.17,0.08c-0.04-0.04-0.02-0.05-0.07-0.05c0.04,0.17,0.02,0.37-0.18,0.25c-0.06-0.04-0.06-0.23-0.18-0.28
	c-0.01,0.03-0.01,0.04-0.02,0.08c-0.01-0.05-0.02-0.03-0.02-0.09c-0.08,0.06-0.13,0.14-0.08,0.25c-0.11,0.1-0.04,0.25,0.11,0.3
	c-0.02,0.01-0.06,0.05-0.09,0.06c0.19,0.08,0.11,0.29,0.05,0.39c0.06-0.14,0.05-0.27-0.09-0.28c0.15,0.22-0.11,0.13-0.2,0.26
	c-0.08,0.11-0.04,0.25,0.01,0.35c0.03-0.02,0.04-0.05,0.06-0.07c0.11,0.03,0.32,0.06,0.23,0.27c-0.03-0.16-0.03-0.1-0.1-0.15
	c0.01,0.05,0.02,0.03,0.01,0.08c-0.03-0.08-0.09-0.1-0.15-0.18c-0.11,0.15-0.23,0.53-0.36,0.6c-0.22,0.12,0.08-0.31-0.05-0.48
	c-0.08,0.05-0.16,0.15-0.21,0.23c0.06,0,0.03,0.02,0.1,0c-0.12,0.13-0.46,0.39-0.31,0.57c0.08,0.02,0.08,0.06,0.15,0.14
	c-0.1,0.06-0.26,0.06-0.33,0.17c0.05-0.21,0.19-0.2,0.04-0.34c-0.15-0.14-0.19,0.05-0.43,0.14c0.02,0.01,0.04,0.01,0.06,0.03
	c-0.09,0.03-0.14,0.07-0.23,0.12c-0.19,0.04-0.19,0.26-0.23,0.38c0.11,0.03,0.18,0.07,0.2,0.17c-0.04-0.03-0.06-0.05-0.1-0.07
	c-0.03,0.1,0.02,0.04-0.06,0.04c-0.02,0.01,0,0.04-0.01,0.05c-0.08-0.07-0.2-0.63-0.38-0.2c0.03,0,0.05-0.04,0.07-0.04
	c-0.01,0.04-0.04,0.06-0.01,0.1c-0.33-0.2-0.46-0.1-0.55,0.24c0-0.03-0.01-0.03-0.03-0.01c0.01-0.07,0-0.06-0.01-0.12
	c-0.21,0-0.36,0.4-0.36-0.02c-0.26,0.1-0.33,0.3-0.57,0.33c-0.62,0.07-0.32,0.01-0.42,0.47c0.01-0.02,0-0.03-0.01-0.04
	c0.08,0.33-0.4,0.76-0.51,1.02c-0.12,0.29,0,0.5,0,0.81c0,0.42,0.23,0.74,0.29,1.11c0.03,0.22,0,0.38,0.19,0.56
	c0.18,0.17,0.01,0.27,0.01,0.44c0,0.12,0.11,0.3,0.06,0.4c-0.08,0.2-0.24,0.46-0.37,0.62c0,0-0.01-0.03-0.01-0.03
	c-0.04,0.11-0.08,0.22-0.14,0.33c-0.07,0.13-0.15,0.44-0.25,0.57c-0.12,0.16-0.24,0.1-0.38,0.18c-0.06,0.15-0.04,0.3-0.04,0.46
	c-0.15,0.02-0.19,0.19-0.2,0.33c-0.01-0.03,0-0.06-0.01-0.09c-0.07,0.16-0.07,0.34-0.01,0.48c-0.17,0.01,0.06,0.73,0.16,0.9
	c0.15,0.26,0.39,0.59,0.36,0.86c0,0.03-0.09,0.19-0.1,0.27c-0.01,0.08,0.02,0.2,0.03,0.28c0.03,0.37,0.07,0.42,0.22,0.7
	c0.09,0.16,0.09,0.45,0.21,0.59c0.1,0.12,0.36,0.2,0.45,0.29c-0.03-0.03-0.08-0.06-0.13-0.09c0.07,0.2,0.27,0.16,0.45,0.19
	c0.18,0.03,0.24,0.14,0.37,0.23c0.34,0.24,0.59,0.15,0.95-0.08c0.42-0.27,0.79-0.23,1.2-0.35c0.15-0.04,0.36-0.19,0.39-0.35
	c0,0.03,0.02,0.05,0.02,0.07c0.03-0.32,0.25-0.75,0.34-1.01c0.07-0.19,0.36-0.59,0.19-0.73c0.01-0.02,0.01-0.03,0.03-0.05
	c0.01,0,0.02,0.03,0.03,0.04c0.16-0.48,0.21-0.95,0.34-1.44c0.12-0.47,0.36-0.97,0.54-1.42c0.07-0.19,0.11-0.45,0.14-0.56
	c0.05-0.22,0.44-1.05,0.35-1.23c0.02,0,0.03,0,0.05,0.04c0.22-0.76,0.63-1.57,0.78-2.32c0.11-0.55-0.24-1.45,0.48-1.65
	c-0.27-0.05-0.02-0.26,0.02-0.43c0.06-0.25-0.15-0.35-0.21-0.53c-0.02-0.05,0.03-0.2,0.03-0.27c-0.01-0.09-0.06-0.15-0.05-0.22
	c0-0.18,0.12-0.38,0.29-0.25c0.14,0.1,0.06,0.69,0.36,0.65C90.88,71.08,91.06,70.41,91.02,70.18z M90.4,72.04
	c-0.08,0.14-0.18,0.3-0.18,0.46C90.31,72.38,90.53,72.02,90.4,72.04z M82.85,66.67c0.07,0.02,0.16,0.02,0.23,0.02
	c-0.06-0.08-0.16-0.14-0.27-0.16C82.81,66.59,82.83,66.62,82.85,66.67z M78.3,61.19c0.03-0.08,0.06-0.14,0.04-0.22
	c-0.05,0.07-0.1,0.11-0.15,0.16c0,0.02,0.04-0.01,0.05,0.02c-0.13,0.03-0.18,0.12-0.27,0.19C78.11,61.44,78.24,61.33,78.3,61.19z
	 M77.97,58.34c0.04,0.01,0.02,0.06,0.08,0.05C78,58.32,77.92,58.32,77.97,58.34z M88.36,67.79c-0.04,0-0.06-0.02-0.1-0.01
	c-0.02,0.15,0.08,0.21,0.21,0.17C88.47,67.86,88.4,67.58,88.36,67.79z M78.04,58.27c0.03,0.05,0.03,0.09,0.11,0.06
	c0.01,0-0.03,0.02-0.01,0.03c0.04-0.02,0.05-0.05,0.07-0.08c-0.02,0.01,0,0.04,0.01,0.03c0.05-0.11,0.09-0.24,0.06-0.36
	c0,0,0,0.04-0.01,0.03c0.02-0.11,0.03-0.19,0.02-0.29c0,0.03,0,0.05-0.02,0.08c0,0-0.01-0.02-0.01-0.02
	c-0.02,0.02-0.01,0.04-0.02,0.06c-0.07-0.08-0.11-0.07-0.16-0.12c0,0.07,0.01,0.07,0.03,0.12c-0.03,0.05-0.04,0,0.02,0.1
	c0-0.02-0.04,0.04-0.04,0.07c0.06,0.04,0.02,0.02,0.07,0.08c-0.04,0-0.08-0.01-0.12-0.02c0.05,0.02,0.1,0.05,0.16,0.06
	c-0.02,0.01-0.06,0.02-0.11,0.02c0,0.01,0.03,0.03,0.04,0.02c-0.03,0.01-0.05,0-0.08,0.01c0.01,0.02,0.03,0.04,0.04,0.07
	C78.02,58.2,78.06,58.24,78.04,58.27z M73.05,78.1c-0.05,0.1-0.07,0.22-0.06,0.32C73.06,78.34,73.08,78.2,73.05,78.1z M77.52,58.83
	c0,0.01,0.04-0.02,0.02-0.09C77.52,58.76,77.53,58.79,77.52,58.83z M92.1,39.33c-0.1-0.01-0.18-0.01-0.26-0.1
	c0.03,0.04,0.03,0.11,0.05,0.15c-0.08,0.02-0.19,0.02-0.25,0.01c0.31-0.21-0.04-0.57,0.21-0.85c-0.35-0.09,0.09-0.65,0.12-0.84
	c-0.23-0.07-0.55-0.24-0.76-0.14c-0.15,0.07-0.24,0.26-0.39,0.38c-0.15,0.12-0.36,0.15-0.54,0.18c-0.09,0.02-0.21,0.04-0.31,0.03
	c-0.11,0-0.17,0.14-0.3,0.15c-0.47,0.04-0.95,0.03-1.38,0.17c-0.17,0.06-0.33,0.1-0.54,0.08c-0.17-0.02-0.36-0.11-0.54-0.02
	c-0.24,0.12-0.45,0.31-0.69,0.42c-0.43,0.2-0.6-0.01-1.02-0.05c-0.11-0.01-0.56,0.11-0.72,0.25c-0.23,0.21-0.83,0.44-1.15,0.25
	c-0.31-0.18-1.1-0.75-1-1.16c-0.09,0.03-0.18-0.03-0.25-0.14c0,0.02,0,0.03,0.01,0.05c-0.08-0.07-0.12-0.07-0.16-0.18
	c-0.14,0.07-0.51-0.04-0.56,0.14c-0.1,0.05-0.17,0.01-0.21-0.09c0.21,0.07,0.18-0.12,0.35-0.21c0.11-0.06,0.24-0.07,0.35-0.12
	c0.45-0.21,0.32-0.37,0.28-0.78c-0.21-0.07-0.23-0.36-0.39-0.5c-0.01,0.08-0.06,0.08-0.1,0.13c-0.13-0.04-0.35-0.36-0.48-0.54
	c-0.27,0.17-0.18-0.47-0.43-0.51c0.06,0.07,0.03,0.05,0.08,0.13c-0.09-0.09-0.14-0.18-0.25-0.26c-0.13-0.1-0.38-0.19-0.45-0.32
	c-0.18-0.34-0.64-0.97-1.04-0.82c-0.04-0.1-0.06-0.14-0.12-0.23c0.01-0.02,0.04,0.01,0.03-0.01c-0.04-0.01-0.03,0-0.05,0.01
	c-0.06-0.08-0.11-0.1-0.17-0.17c-0.04,0.06-0.1,0.06-0.15,0.02c-0.14,0.26-0.33-0.07-0.37-0.2c-0.07-0.22-0.04-0.16-0.25-0.42
	c-0.09,0.04-0.14,0.15-0.1,0.3c0.11,0.02,0.07,0.32-0.11,0.17c0.03,0.03-0.09-0.41-0.09-0.42c-0.05-0.17-0.15-0.03-0.23-0.18
	c0.05-0.01,0.04-0.01,0.07-0.04c-0.03,0-0.01,0-0.04,0.02c0.03-0.22-0.18-0.33-0.26-0.6c-0.06-0.22-0.06-0.49-0.09-0.64
	c-0.12-0.58-0.38-1.38-0.76-1.87c0,0.03,0.03,0.03,0.01,0.07c-0.07-0.07-0.09-0.09-0.17-0.19c-0.04,0.01-0.11,0.01-0.21,0.01
	c0.04-0.03,0.08-0.09,0.11-0.11c-0.11,0.14-0.35,0.04-0.22-0.13c-0.15-0.09-0.25-0.28-0.43-0.27c-0.02-0.21-0.16-0.03-0.25-0.1
	c-0.11-0.09-0.14-0.22-0.18-0.35c-0.1-0.31-0.16-0.64-0.16-0.97c0-0.15-0.04-0.35-0.05-0.49c-0.02-0.15,0.01-0.36,0.01-0.43
	c-0.02-0.35-0.18-0.66-0.13-0.94c0.05,0.08,0.09,0.13,0.18,0.22c-0.03-0.01-0.08-0.04-0.1-0.05c0.24,0.32-0.03-0.14-0.12-0.27
	c-0.21-0.32-0.17-0.54-0.3-0.84c0.19-0.14-0.46-0.54-0.52-0.6c-0.18-0.19-0.28-0.21-0.5-0.34c-0.15-0.08-0.23-0.18-0.31-0.31
	c0.01,0.03,0.04,0.05,0.05,0.08c-0.27-0.21-0.28-0.75-0.3-1.05c-0.03-0.38-0.01-0.37,0.33-0.27c-0.07-0.15-0.23-0.2-0.35-0.32
	c0.01,0.01,0.01,0.02,0.02,0.04c-0.4-0.32-0.46-0.79-0.71-1.21c-0.33-0.57-0.65-1.17-0.93-1.76c-0.05-0.11-0.15-0.24-0.18-0.35
	c-0.02-0.07-0.01-0.19-0.03-0.29c0-0.02-0.08-0.23-0.13-0.34c-0.07-0.14-0.09-0.18-0.19-0.33c-0.09-0.14-0.14-0.26-0.23-0.39
	c0.03,0,0.05-0.02,0.07-0.02c0,0-0.02-0.03-0.01-0.03c0.02,0.01,0.03,0.03,0.05,0.05c-0.03-0.08-0.03-0.07-0.04-0.15
	c-0.05-0.04-0.06-0.04-0.09-0.12c0.04,0.03,0.1,0.05,0.13,0.07c-0.05-0.25-0.3-0.36-0.43-0.52c-0.14-0.17-0.33-0.36-0.44-0.54
	c-0.1-0.18-0.12-0.35-0.27-0.5c-0.06-0.06,0.01-0.3-0.02-0.4c-0.11-0.4-0.55-0.43-0.15-0.85c-0.02-0.1-0.05-0.12,0.07-0.1
	c-0.01-0.05-0.02-0.04,0-0.09c0.02,0.2,0.15,0.5,0.19,0.76c0.01-0.01-0.02-0.02,0.01-0.04c0.1,0.11,0.27,0.36,0.4,0.54
	c0.15,0.21,0.07,0.54,0.23,0.73c-0.04-0.04-0.02-0.02,0.01-0.03c0.01,0.15,0.39,0.45,0.49,0.56c0.22,0.26,0.42,0.36,0.7,0.59
	c-0.01-0.01-0.01-0.03,0.01-0.01c-0.03-0.04-0.02-0.04-0.06-0.08c0.24-0.17,0.21-0.32,0.25-0.63c0.03-0.28,0.18-0.52,0.24-0.8
	c0.05-0.25,0.19-0.56,0.25-0.78c0.11-0.43-0.25-1.14-0.4-1.58c-0.12-0.34-0.21-0.71-0.36-1.03c-0.22,0.17-0.51,0.24-0.75,0.27
	c-0.2,0.02-0.18-0.08-0.35,0.02c0,0.01,0.05,0,0.05,0.01c-0.02,0.01-0.02,0-0.02,0.03c-0.08-0.02-0.03-0.02-0.13,0.02
	c0.01,0,0.01,0,0.01-0.01c0.01,0,0.03,0.01,0.02,0.02c-0.04,0-0.07,0-0.11,0.02c0-0.05,0.01-0.04-0.02-0.09
	c0-0.01,0.01,0.01,0.01,0.01c0-0.02,0.03-0.01,0.04-0.02c-0.01-0.07-0.04-0.1-0.04-0.11c-0.08,0.03-0.15,0.08-0.21,0.12
	c0.09-0.02,0.05,0.01,0.13-0.04c-0.04,0.1-0.06,0.07-0.12,0.1c0-0.04-0.02-0.02-0.06-0.06c0,0,0.03,0,0.03,0.02
	c-0.01,0.01-0.03,0.01-0.04,0.02c-0.01,0-0.17,0.03-0.25,0.06c-0.01-0.02,0.02,0.01-0.04-0.02c0.12-0.03,0.23-0.07,0.31-0.14
	c-0.49,0.3-0.46-0.15-0.86-0.19c0.1,0.05,0.09,0.09,0.07,0.17c-0.05,0.1-0.11,0.09-0.2,0.11c0,0.03,0.03,0.03,0.04,0.05
	c-0.04-0.02-0.06-0.01-0.11-0.04c0-0.05,0.02-0.02,0.01-0.08c0,0-0.03,0.03-0.04,0.02c0.06-0.13,0-0.16-0.11-0.08
	c-0.01-0.04,0-0.03-0.03-0.02c0.01-0.04,0-0.02,0.01-0.07c-0.07,0-0.06-0.01-0.14-0.05c0,0.01,0.01,0.02-0.02,0.01
	c0.04-0.1,0-0.08,0.1-0.11c0,0-0.03-0.06-0.03-0.08c0-0.01,0.04,0,0.06-0.01c-0.04-0.02-0.04-0.02-0.07-0.04
	c0-0.01,0.01-0.02,0.02-0.03c0.01,0.01,0.04,0.03,0.05,0.05c-0.01-0.02-0.04-0.09-0.04-0.1c0.01-0.01,0.01-0.02,0.01-0.03
	c0.13-0.03,0.14,0.16,0.29,0.24c-0.01-0.01-0.01,0-0.02-0.01c0.05,0.03,0.1,0.06,0.16,0.08c-0.12-0.07-0.31-0.36-0.41-0.33
	c-0.24,0.08-0.28,0.12-0.52,0.06c-0.19-0.06-0.31-0.21-0.53-0.13c0.13,0.04,0.14,0.07,0.17,0.13c-0.09-0.02-0.36,0.07-0.46,0.15
	c-0.05,0-0.15,0-0.23-0.01c0.14-0.09,0.36-0.2,0.52-0.27c-0.22,0.08-0.52,0.26-0.73,0.11c0.02,0.05,0,0.04,0.04,0.09
	c-0.01-0.02-0.06-0.04-0.07-0.08c0.03,0.15-0.07,0.27-0.2,0.32c0.02,0,0.09,0,0.09,0c-0.01,0-0.01,0-0.02,0
	c0.08,0.01,0.02,0.02,0.06,0.05c-0.02,0-0.01-0.03-0.02-0.04c-0.07,0.06-0.16,0.11-0.12-0.01c-0.06-0.05-0.08-0.02-0.12-0.09
	c0,0-0.06,0.03-0.02,0.03c-0.07,0.06-0.16,0.14-0.22,0.16c-0.07,0.11-0.56,0.48-0.81,0.5c-0.34,0.04-0.57-0.28-0.89-0.34
	c-0.2-0.04-0.51-0.08-0.66-0.11c-0.04-0.01-0.01-0.11-0.05-0.12c-0.09-0.02-0.16,0.12-0.26,0.07c-0.09-0.05-0.24-0.13-0.33-0.17
	c-0.36-0.2-0.95-0.22-1.44-0.35c-0.4-0.11-0.73,0.08-1.11,0.06c-0.15-0.01-0.18-0.54-0.28-0.61c-0.28-0.17-1.19,0.07-1.2-0.19
	c-0.28-0.13-0.57-0.09-0.84-0.18c0,0.03,0.02,0.06,0.02,0.09c-0.09-0.15-0.32-0.2-0.26-0.39c0.03,0.02,0,0.05,0.04,0.06
	c-0.03-0.39-0.05-0.24-0.35-0.44c-0.13-0.09-0.71-0.33-0.82-0.34c-0.1-0.01-0.31,0.03-0.43,0.05c-0.05,0.01-0.1-0.04-0.17-0.03
	c-0.12,0.01-0.17,0.16-0.28,0.21c-0.22,0.09-0.4-0.02-0.62,0.13c-0.21,0.15-0.46,0.23-0.66,0.4c-0.28,0.25-0.54,0.57-0.51,0.96
	c0.02,0.35,0.32,0.62,0.27,0.97c-0.11,0.75-1.27,1.47-1.86,0.79c-0.48-0.55-1.34-0.84-2.05-1c-0.6-0.13-1.2,0.02-1.61-0.56
	c-0.2-0.28-0.24-0.68-0.31-0.99c-0.06-0.3-0.75-0.19-0.98-0.31c-0.35-0.19-0.52-0.41-0.97-0.39c-0.19,0.01-0.32-0.18-0.52-0.17
	c-0.17,0.01-0.34,0.15-0.53,0.16c-0.58,0.04-0.81-0.29-1.3-0.48c0.04,0.02,0.08,0.06,0.12,0.08c-0.2,0-0.36-0.16-0.53-0.25
	c0.03,0.03,0.07,0.07,0.1,0.09c-0.16-0.01-0.34,0.01-0.36-0.17c0.06,0.01,0.15,0.02,0.19,0.03c-0.35-0.1-0.07-0.37-0.33-0.48
	c-0.17-0.08-0.16,0.34-0.36,0.2c-0.16-0.1,0.11-0.18,0.03-0.27c-0.08-0.08-0.22,0.05-0.35,0.02c-0.25-0.05-0.53-0.43-0.51-0.69
	c0.01-0.18,0.17-0.28,0.31-0.39c0.14-0.1,0.29-0.22,0.41-0.32c0.11-0.1,0.35-0.24,0.35-0.39c0-0.13,0.19-0.43,0.29-0.5
	c-0.16-0.08-0.18-0.26-0.09-0.39c-0.1-0.09-0.08-0.05-0.04-0.16c-0.23-0.17-0.57-0.25-0.66-0.61c-0.04-0.15-0.06-0.43,0.08-0.53
	c0.13-0.09,0.27-0.04,0.34-0.22c0.05-0.13,0.13-0.31,0.24-0.41c0.11-0.09,0.09-0.15,0.01-0.28c-0.1-0.16-0.04-0.1-0.2-0.03
	c-0.19,0.1-0.61,0.64-0.75,0.3c0,0-0.07,0.02-0.1,0.03c0.38-0.13-0.16-0.33,0.04-0.44c-0.03-0.03-0.05-0.08-0.12-0.09
	c0.08,0,0.1-0.02,0.17-0.03c-0.17-0.11-0.38-0.17-0.54-0.07c0.26,0.06-0.01,0.15-0.03,0.08c-0.03-0.08,0.16-0.23,0.02-0.24
	c-0.24-0.01-0.57,0.09-0.77,0.2c-0.33,0.18-0.49,0.39-0.89,0.44c-0.03,0-0.09-0.04-0.14-0.03c-0.1,0.01-0.17,0.04-0.28,0.06
	c-0.15,0.02-0.46,0.11-0.33-0.16c-0.22,0.11-0.49-0.15-0.74-0.13c0.32,0.25-0.31,0.24-0.37,0.23c-0.15-0.02-0.28-0.13-0.37-0.16
	c-0.08-0.02-0.11-0.14-0.25-0.06C38.06,4.36,38.1,4.47,38,4.55c-0.19,0.14-0.45,0.07-0.63,0.15c-0.08,0.04-0.8,0.51-0.68,0.03
	c-0.4-0.13-0.73-0.17-1.15-0.18c-0.16,0-0.42-0.06-0.56,0.08c-0.13,0.13-0.38,0.13-0.54,0.05c-0.04,0.11-0.11,0.15-0.2,0.04
	c-0.11-0.12-0.17,0.02-0.26,0.06c-0.19,0.1-0.24,0.19-0.47,0.22c-0.08,0.01-0.09-0.08-0.21-0.05c-0.51,0.15-1.04,0.12-1.54,0.23
	c-0.26,0.06-0.78,0.36-0.97,0.56c-0.1,0.11-0.18,0.52-0.41,0.42c-0.15-0.07-0.2-0.19-0.37-0.14c-0.06,0.38-0.36,0.09-0.43,0.2
	c-0.04,0.07-0.21,0.1-0.29,0.17c-0.14,0.12-0.14,0.28-0.25,0.4c-0.08,0.09-0.36,0.24-0.46,0.27c-0.17,0.06-0.28,0.14-0.49,0.14
	c-0.14,0-0.3-0.06-0.44-0.07c-0.21-0.01-0.34,0.07-0.51-0.17c0.04,0.05,0.1,0.13,0.16,0.19c-0.24,0.01-0.27-0.33-0.26-0.48
	c-0.06,0.24-0.34,0.37-0.58,0.34c-0.13-0.02-0.25-0.07-0.35-0.08c-0.07-0.01-0.15,0.16-0.19,0.01c-0.45,0.06-0.69,0.21-1.14-0.07
	c-0.23-0.14-0.38-0.33-0.49-0.56c-0.05-0.1-0.09-0.32-0.2-0.34c-0.04-0.01-0.58,0.24-0.6,0.26c-0.23,0.28-0.29,0.91-0.42,1.26
	c-0.16,0.43-0.46,1.11-0.82,1.4c-0.35,0.28-0.76,0.45-1.18,0.61c-0.31,0.12-0.58,0.24-0.79,0.44c-0.21,0.2-0.69,0.73-0.76,0.97
	c-0.08,0.27,0,0.51-0.24,0.76c-0.2,0.21-0.28,0.45-0.42,0.69c-0.11,0.19,0,0.63-0.01,0.87c-0.01,0.14-0.08,0.16-0.05,0.27
	c0.02,0.05,0.2,0.16,0.23,0.26c0.21,0.52-0.49,1.26-0.81,1.65c-0.29,0.35-0.61,0.5-0.95,0.77c-0.25,0.2-0.34,0.44-0.65,0.58
	c-0.21,0.09-0.41,0.21-0.62,0.25c-0.25,0.04-0.7,0.04-0.9,0.19c-0.2,0.15-0.28,0.47-0.38,0.7c-0.15,0.37-0.25,0.83-0.6,1.08
	c-0.3,0.21-0.69,0.28-0.86,0.62c-0.11,0.22-0.2,0.58-0.29,0.83c-0.11,0.3-0.1,0.56-0.15,0.86c-0.06,0.33-0.38,0.49-0.59,0.74
	c-0.26,0.3-0.59,0.47-0.79,0.83c0.1-0.07,0.2-0.24,0.28-0.33c0.05,0.28-0.37,0.86-0.53,1.09c0.14,0.04-0.08,0.3-0.15,0.44
	c-0.08,0.17-0.07,0.39-0.22,0.54c-0.08,0.08-0.18,0.04-0.28,0.13c-0.27,0.26-0.54,1.56-0.36,1.85c0.03-0.18,0.03-0.37,0.17-0.5
	c0.05,0.1,0.12,0.24,0.17,0.28c0.05,0.19,0.13,0.37,0.28,0.48c0-0.07,0.03-0.16,0.02-0.23c0.06,0.06,0.08,0.04,0.14,0.08
	c-0.01,0.01-0.07,0.01-0.07,0.02c0.1,0.08,0.35,0.57,0.25,0.66c0.09,0.12,0.01,0.25-0.05,0.33c0.03-0.01,0.05-0.03,0.07-0.04
	c0.03,0.06-0.05,0.05,0.02,0.05c-0.02,0.2-0.25,0.36-0.27,0.57c0.03-0.05,0.1-0.11,0.13-0.17c-0.02,0.04-0.03,0.07-0.05,0.1
	c0.04-0.04,0.1-0.08,0.13-0.1c-0.03,0.15-0.17,0.23-0.3,0.2c0.05,0.12,0.14,0.13,0.2,0.21c0.15,0.2,0.19,0.35,0.25,0.58
	c0.2,0.76,0.18,1.42-0.15,2.14c-0.23,0.52-0.26,0.91-0.31,1.47c-0.04,0.49-0.68,1.27-1.19,1.35c0.03,0.04,0.07,0.1,0.12,0.13
	c0-0.03,0-0.07,0-0.08c0.41-0.11,0.81,0.77,0.8,1.08c0-0.15,0.02-0.27,0.14-0.32c-0.03,0.04-0.05,0.06-0.08,0.1
	c0.15,0.02,0.21-0.12,0.31-0.17c-0.04,0.02,0.01-0.07,0.01-0.06c-0.01,0,0.09,0.04,0.11,0.04c-0.1,0.02-0.19,0.07-0.27,0.15
	c0.02,0.02,0.05,0,0.06,0.01c-0.05,0.05-0.06,0.05-0.11,0.09c-0.17-0.07-0.16,0.13-0.07,0.24c0.1-0.09,0.22-0.14,0.26-0.29
	c0,0.11-0.01,0.15,0,0.24c-0.02-0.02-0.03-0.02-0.04-0.06c-0.17,0.03-0.14,0.37,0.02,0.14c-0.11,0.14-0.01,0.28-0.02,0.47
	c0.09,0.03,0.18,0.03,0.26,0.01c-0.03-0.03,0-0.02,0.02-0.07c0.01,0.01,0.01,0.05,0.01,0.06c0.17-0.18,0.59-0.17,0.81-0.17
	c0.09,0,0.3,0.05,0.37,0c-0.09,0.1-1.21-0.07-1.08,0.29c0.03-0.01,0.04-0.02,0.06-0.02c-0.09-0.04-0.21-0.04-0.35,0
	c0.01,0.01,0.05,0.06,0.07,0.08c0,0-0.06-0.04-0.05,0.01c-0.07-0.09-0.27-0.16-0.2-0.29c-0.03-0.03-0.08-0.06-0.11-0.06
	c-0.33,0.22-0.01,0.54-0.15,0.85c0,0.02,0.03-0.02,0.03-0.01c0,0.04-0.03,0.08-0.03,0.12c0.07-0.04,0.08-0.01,0.11-0.01
	c-0.21,0.13,0.04,0.2,0.12-0.09c-0.07,0.14-0.06,0.13,0.03,0.13c0.02,0.01,0.04,0.08,0.07,0.08c0-0.03,0.01-0.07,0.01-0.1
	c0,0.01,0.02,0.06,0.04,0.04c-0.02,0.19,0.47,0.11,0.53-0.07c0.08,0.2,0.2,0.11,0.35,0.13c0.32,0.05,0.1-0.27,0.41-0.27
	c-0.24,0.03-0.09,0.31-0.43,0.31c-0.3,0-0.67,0.03-0.94,0.02c-0.02-0.03-0.03-0.05-0.06-0.08c-0.25,0.21-0.33,0.22-0.05,0.41
	c0.14,0.09,0.28,0.25,0.36,0.02c0,0.03,0.01,0.07,0.01,0.08c0.09-0.08,0.19-0.13,0.29-0.17c-0.11,0.06-0.21,0.13-0.25,0.22
	c-0.14,0-0.08,0.14-0.02,0.22c0.12,0.15,0.17,0.08,0.32,0.08c0.13,0,0.18-0.14,0.37-0.11c0,0-0.02,0.04-0.02,0.05
	c-0.18-0.1-0.29,0.12-0.29,0.28c0.06-0.04,0.06-0.06,0.1-0.11c0.01,0.02-0.03,0.08,0.02,0.07c0.11-0.11,0.05-0.07,0.15-0.12
	c-0.08,0.04-0.04,0.05-0.11,0.14c0.18-0.07,0.34-0.23,0.51-0.27c0.1-0.02,0.2,0.14,0.29,0.03c0.07-0.07,0.13-0.05,0.2-0.03
	c-0.12,0.1-0.07,0.22,0.08,0.24c-0.12,0.03-0.22-0.06-0.17-0.21c-0.23,0.17-0.56-0.07-0.56,0.32c0.03-0.01,0.03-0.03,0.06-0.04
	c0.02,0.01-0.03,0.05,0.01,0.07c0.01,0.01,0.05-0.05,0.06-0.05c-0.03,0.09-0.01,0.1-0.01,0.17c0.01-0.02,0.01-0.04,0.03-0.07
	c0.02,0,0,0.05,0.05,0.02c0-0.03-0.02-0.05-0.02-0.08c0.01,0,0.05,0.06,0.06,0.07c0-0.03-0.01-0.07-0.01-0.09c0.01,0,0.01,0,0.02,0
	c0.01,0.02,0.01,0.05,0.02,0.06c0.01-0.04,0.01-0.04,0.05-0.03c-0.01-0.03-0.03-0.03-0.05-0.06c0.03,0.02,0.06-0.03,0.07-0.05
	c0.01,0.04-0.01,0.06-0.01,0.09c0.03-0.03,0.04-0.04,0.06-0.1c0-0.01,0.06,0.03,0.05,0.04c-0.03,0.03-0.03,0.01-0.06,0.07
	c0.03-0.02,0.07-0.02,0.13-0.05c-0.01,0.02-0.05,0.04-0.05,0.06c0.01,0,0.1-0.03,0.07-0.03c0,0.03-0.01,0.03-0.02,0.06
	c0.03,0,0.02,0,0.04,0.02c0,0,0.01-0.03,0.03-0.03c0.01,0.01-0.02,0.05-0.02,0.06c0.04,0.01,0.05-0.01,0.09-0.02
	c-0.04,0.02-0.1,0.07-0.14,0.08c0-0.01-0.01-0.04-0.02-0.05c0,0,0.06,0,0.06-0.01c-0.03-0.02-0.05-0.05-0.06-0.01
	c-0.09-0.04-0.03-0.08-0.07,0.03c0.01,0.01-0.07-0.04-0.03-0.05c-0.02,0.01-0.05,0-0.07-0.01c0,0,0.05,0.05,0.05,0.06
	c-0.07,0-0.05-0.03-0.12-0.01c0.02,0.01,0.05,0,0.06,0.05c0,0-0.07-0.03-0.07-0.02c-0.04,0.05,0.01,0.03-0.07,0.03
	c-0.01,0.01,0,0.01-0.01,0.01c0,0,0.02,0.03,0.02,0.04c-0.04-0.01-0.03,0-0.09,0c-0.01,0.04-0.03,0.12-0.03,0.19
	c0.07-0.04,0.16-0.09,0.21-0.15c0-0.01-0.02,0.11-0.01,0.1c0.03-0.01,0.07-0.07,0.09-0.07c-0.19,0.09-0.28,0.38,0.04,0.38
	c0-0.04,0.03-0.13,0.03-0.14c-0.06,0.43,0.06,0.2,0.23,0.01c0.01,0.04,0.02,0.07,0.02,0.1c-0.09,0.03-0.22,0.21-0.06,0.18
	c0,0-0.05,0.07-0.06,0.08c0.02-0.01,0.07-0.03,0.09-0.05c0,0,0,0.01,0.01,0.01c-0.1,0.09-0.08,0.19,0.07,0.23
	c-0.01-0.11-0.01-0.18,0-0.26c0.02-0.01,0.04,0.02,0.06,0.02c0-0.04,0-0.05-0.01-0.08c0.11,0.06,0.04,0.03,0.13,0.02
	c0.07,0,0.06,0.03,0.15-0.06c0,0,0.02,0.04,0.02,0.03c-0.12,0.07-0.2,0.13-0.17,0.26c0.02-0.01,0.06-0.05,0.08-0.06
	c-0.04,0.09-0.01,0.15-0.02,0.21c0.04-0.05,0.1-0.1,0.13-0.13c-0.05,0.08-0.03,0.15-0.03,0.14c0,0.01-0.02,0.04-0.03,0.06
	c0.08-0.09,0.17-0.22,0.24-0.3c-0.05,0.14-0.16,0.25-0.12,0.35c-0.12,0.12-0.08,0.18,0.07,0.12c0.01,0.13,0.1,0.22,0.1,0.36
	c0.09-0.02,0.19,0.01,0.25,0.04c0.05,0.1,0.02,0.09,0.13,0c-0.08,0.23,0.07,0.12,0.16-0.02c-0.02,0.04-0.06,0.07-0.08,0.1
	c0.04,0.01,0.05,0,0.09,0.05c-0.15,0.06,0.26,0.42,0.36,0.15c-0.07,0.12-0.05,0.39,0.03,0.14c0,0,0.02-0.01,0.02-0.01
	c0,0,0.12,0.07,0.11,0.07c-0.07,0.1-0.1,0.25-0.19,0.34c0.05-0.02,0.11-0.05,0.16-0.08c0.11,0.03-0.01,0.11,0.12,0
	c-0.06,0.13-0.03,0.19,0.11,0.16c-0.04,0.14-0.02,0.11,0.03,0.2c0.04-0.07,0.05-0.06,0.09-0.1c0,0.01-0.01,0.05,0,0.05
	c-0.02,0.05-0.03,0.11,0.02,0.18c0-0.05,0.04-0.08,0.06-0.12c0.01,0.02-0.02,0.07-0.03,0.09c0.01,0,0.11,0.01,0.12,0.01
	c-0.16,0.03-0.25,0.15-0.13,0.28c0.04,0,0.13,0.02,0.23,0.02c-0.02,0.01-0.08,0.05-0.1,0.07c0.06,0.01,0.13,0.04,0.21,0.03
	c-0.23-0.02-0.35,0-0.29,0.25c0.06,0.25,0.16,0.11,0.08-0.03c0.06,0.01,0.09,0.01,0.13,0.01c-0.01,0.01,0.02,0.02,0.03,0.02
	c-0.02,0.03-0.04,0.04-0.07,0.06c0.1,0.04,0.19,0,0.25-0.1c0,0.03-0.04,0.1-0.07,0.12c0,0,0.01,0,0,0.01c0.01,0,0.07-0.01,0.07,0
	c-0.13,0-0.23,0.03-0.31,0.14c0.07,0.05,0.06,0.06,0.11,0.09c-0.1-0.06-0.19-0.14-0.3-0.15c0.02,0.14,0.15,0.23,0.15,0.4
	c0.08-0.06,0.15-0.06,0.23-0.1c0.03,0.1,0.04,0.1,0.12,0.18c-0.04,0.12-0.04,0.11,0.07,0.22c-0.08-0.02-0.09,0.01-0.17,0.01
	c0.08,0.09,0.12,0.12,0.24,0.11c-0.06,0.21,0.28,0.15,0.37,0.06c-0.05,0.05-0.05,0.11-0.08,0.17c-0.01-0.01,0.03-0.03,0.04-0.02
	c0.02,0.2,0.24,0.07,0.36,0.06c-0.07,0.08-0.57,0.14-0.22,0.26c-0.08-0.02-0.1-0.01-0.16,0c0.38,0.11,0.79,0.4,1.12,0.48
	c0,0.01-0.02,0.02-0.02,0.02c0.16,0.08,0.18,0.24,0.26,0.3c0.18,0.15,0.57,0.3,0.74,0.39c-0.06,0.07,0,0.05-0.02,0.12
	c-0.01,0-0.04-0.02-0.03-0.02c0.11,0.14,0.35,0.13,0.5,0.24c-0.03-0.03-0.06-0.07-0.1-0.09c0.05,0.03,0.11,0.05,0.16,0.08
	c-0.01,0.02-0.05,0-0.04,0.02c0.26,0.12,0.84,0.61,0.92,0.82c0.27,0.11,0.49,0.41,0.75,0.56c0.44,0.25,0.93,0.48,1.38,0.65
	c0.38,0.14,0.61-0.04,0.98-0.19c0.56-0.23,1.13-0.42,1.73-0.61c-0.01,0-0.02,0-0.03-0.01c0.2-0.01,0.47-0.04,0.69-0.04
	c-0.07-0.07-0.16-0.09-0.27-0.09c0.01,0.03,0.04,0.02,0.06,0.03c-0.06,0-0.13,0.03-0.19,0.04c0.02,0.02,0.06,0,0.08,0.02
	c-0.08-0.02-0.1-0.01-0.17-0.05c0,0,0.04,0.01,0.02-0.01c0.03,0.01,0.02,0.05,0.05,0.06c0-0.01,0.02-0.06,0.03-0.07
	c0.03,0.03,0,0,0.05-0.01c-0.01-0.01-0.04,0-0.05-0.01c0-0.01,0-0.01,0-0.02c0.09-0.04,0.26,0.03,0.41,0
	c-0.01,0.07,0.01,0.04,0.03,0.08c-0.01,0-0.02,0-0.02,0.01c0.37,0.02,0.8-0.08,1.18-0.11c-0.03-0.01-0.06-0.03-0.09-0.04
	c0,0,0.05,0,0.05-0.01c-0.22-0.05-0.48,0.05-0.65,0.07c0,0.03,0.03,0.01,0.04,0.02c-0.12-0.02-0.24,0-0.33,0.03
	c0.03-0.03,0.08-0.12,0.07-0.11c0.05-0.02,0.06-0.03,0.1-0.05c-0.03,0.04-0.01,0.04,0,0.07c0,0.01-0.04-0.01-0.06,0
	c0.09-0.01,0.13-0.02,0.18-0.06c0.04,0.01,0.08,0.03,0.13,0.05c0-0.03-0.03-0.01-0.03-0.02c0.19-0.05,0.37-0.01,0.65-0.02
	c-0.03-0.02-0.05,0-0.08-0.02c0.05-0.02,0.1-0.03,0.13-0.04c0.06,0.06,0.1,0.06,0.2,0.07c-0.02-0.03-0.08-0.08-0.09-0.1
	c0.07,0.04,0.06,0.04,0.12,0.11c-0.04,0.01-0.06,0.03-0.07,0.05c-0.05-0.02-0.1-0.03-0.15-0.05c0,0-0.07,0.01-0.12,0.02
	c0.12,0.06,0.25,0.12,0.34,0.03c0.04,0.13,0.4,0.16,0.53,0.11c0,0-0.05-0.05-0.05-0.05c0.01,0,0.08-0.03,0.1-0.05
	c-0.02-0.01-0.05-0.01-0.06-0.02c0.04-0.22,0.15-0.07,0.16-0.07c0.04,0.03-0.12,0.19,0.07,0.19c0.15,0,0.18,0.04,0.31-0.03
	c-0.11,0.19-0.36,0.01-0.51,0.07c0.42,0.05,0.87,0.17,1.24,0.32c0.24,0.1,0.16,0.14,0.44,0.01c0.35-0.15,0.64-0.32,1.05-0.45
	c0.17-0.05,0.4-0.08,0.59-0.18c0.22-0.12,0.46-0.26,0.7-0.37c0.34-0.16,0.68-0.01,1.03-0.13c0.1-0.04,0.09-0.2,0.17-0.28
	c0.1-0.1,0.24-0.14,0.38-0.18c0.75-0.23,1.61-0.27,2.39-0.27c-0.02-0.1,0.02-0.19,0.12-0.24c0.04,0.19,0.29-0.03,0.45,0
	c-0.18,0.07-0.35,0.13-0.5,0.21c-0.01,0-0.04-0.02-0.07-0.03c0.21,0.12,0.63,0.01,0.89,0.04c0.26,0.03,0.42,0.09,0.62,0.24
	c0.15,0.11,0.28,0.23,0.4,0.38c0.15,0.2,0.16,0.06,0.38-0.02c-0.05,0.06-0.12,0.11-0.16,0.16c-0.2,0.03,0.11,0.43,0.22,0.07
	c-0.05,0.25,0.09,0.04,0.2,0.17c-0.11-0.04-0.12,0.01-0.27,0c-0.25-0.01,0.05,0.22,0.19,0.22c0-0.01-0.02-0.03-0.01-0.05
	c0.1-0.01,0.13-0.07,0.26-0.12c-0.13,0.08-0.12,0.05-0.07,0.19c-0.05,0.01-0.09,0.04-0.13,0.05c-0.21-0.11-0.17,0.29-0.02,0.18
	c0,0,0.05,0.06,0.05,0.06c-0.02,0-0.03-0.01-0.05-0.01c0,0,0.03,0.06,0.03,0.06c-0.05-0.03-0.06-0.03-0.1-0.05
	c0.03,0.12,0.07,0.26,0.14,0.37c-0.01-0.01-0.03-0.02-0.04-0.02c0.04,0.05,0.08,0.12,0.11,0.16c0,0.09,0.17,0.23,0.27,0.3
	c-0.01,0-0.03-0.01-0.03-0.02c0.08,0.04,0.06,0.05,0.11,0.04c0.03,0.07,0.05,0.07,0.11,0.12c0,0-0.01-0.07-0.01-0.07
	c0.03,0.03,0.04,0,0.04-0.02c0.03,0.1,0.03,0.07,0.09,0.14c0-0.05-0.02-0.09-0.02-0.14c0,0.01,0.07,0.05,0.07,0.05
	c-0.01,0.13,0,0.14,0.14,0.09c0-0.01-0.03,0-0.03,0c0.02-0.07,0.04-0.08,0.01-0.17c0.02-0.02,0.04,0.04,0.06,0.04
	c-0.01-0.03-0.02-0.07-0.02-0.1c0.03,0.02,0.03,0.09,0.03,0.12c0.03-0.03,0.04-0.06,0.08-0.05c-0.26,0.26,0.44,0.19,0.26-0.08
	c0.08,0.22,0.22,0.25,0.15-0.03c0,0.04,0.01,0.09,0.02,0.13c0.01-0.08,0.03-0.14,0.05-0.22c-0.05,0.15-0.07,0.39,0.16,0.29
	c-0.1-0.11-0.14-0.41-0.19-0.57c0.04,0.01,0.06,0.01,0.08,0.02c-0.01,0.07,0.04,0.43,0.09,0.48c0.2,0.2,0.23-0.17,0.08-0.19
	c-0.01-0.04-0.01-0.08-0.03-0.13c0.04,0.06,0.06,0.06,0.11,0.09c-0.02-0.06-0.02-0.1-0.03-0.15c0.03,0.01,0.01,0.1,0.05,0.02
	c0.01,0.04,0.03,0.06,0.05,0.09c-0.05,0.07-0.05,0.18,0.04,0.24c-0.03-0.04-0.01-0.04,0-0.07c0.01,0.01-0.01,0.08,0.04,0.06
	c0.14-0.08,0.05-0.22-0.07-0.33c0.01,0,0.02-0.03,0.02-0.03c0.08,0.1,0.2,0.31,0.31,0.27c-0.04-0.03-0.06-0.03-0.08-0.06
	c0.18-0.02,0.31,0.08,0.34-0.16c-0.06,0.21,0.03,0.25,0.25,0.25c-0.01-0.01-0.03-0.01-0.04-0.01c0.15-0.04,0.63,0.02,0.72-0.1
	c0.07-0.1-0.09-0.36-0.17-0.47c0.12,0.09,0.19,0.28,0.3,0.17c-0.01,0.15,0.02,0.06,0.07,0.11c0.01,0.02-0.02,0.03-0.01,0.05
	c0.02-0.02,0.13-0.09,0.15-0.12c-0.03,0.1-0.07,0.2-0.05,0.24c-0.04,0.12-0.07,0.12,0.05,0.1c0,0-0.04,0.04-0.03,0.04
	c0.06,0.01,0.13-0.02,0.19-0.02c-0.05-0.09-0.07-0.18-0.08-0.27c0.03,0.12,0.09,0.16,0.17,0.24c0.04-0.01,0-0.05,0-0.07
	c0.03,0.01,0.05,0.07,0.07,0.07c0-0.03-0.01-0.08-0.02-0.12c0.07,0.06,0.05,0.07,0.07,0.14c0.02-0.01,0.03-0.02,0.04-0.04
	c-0.06,0.09-0.01,0.44,0.04,0.51c0.08,0.1,0.23,0.11,0.29,0.2c0.03-0.02,0.1-0.04,0.14-0.08c-0.05,0.14,0.05,0.17,0.18,0.14
	c-0.03-0.05-0.03-0.08-0.06-0.12c0.02,0.01,0.07,0.02,0.11,0.06c-0.02-0.04-0.04-0.08-0.08-0.13c0,0,0.05-0.05,0.05-0.04
	c0.06,0.21,0.22,0.06,0.32-0.02c-0.12,0.1-0.25,0.27,0.01,0.21c-0.01,0,0,0.03,0,0.03c-0.02,0.01-0.08,0.03-0.11,0.03
	c0,0,0.09,0.07,0.09,0.06c0,0-0.02,0.04-0.01,0.05c-0.06-0.05-0.07-0.03-0.15-0.07c0.01,0.12-0.06,0.07,0.05,0.15
	c-0.07-0.04-0.08-0.02-0.14-0.08c0.12,0.19,0.07,0.34,0.33,0.23c-0.08,0.02-0.14,0.07-0.21,0.11c0.15,0.08,0.23,0.24,0.34,0.32
	c-0.03,0.38-0.14,0.94-0.18,1.37c-0.02,0.14,0,0.22-0.04,0.37c-0.03,0.12-0.29,0.31,0.01,0.25c-0.19,0-0.36,0.24-0.42,0.43
	c-0.05,0.17,0.28,0.27,0.39,0.13c-0.05-0.01,0.12,0.05,0.16,0.07c0,0.01-0.05,0.09-0.07,0.12c-0.06-0.17-0.22-0.1-0.27,0.02
	c-0.04,0.12,0.09,0.41,0.05,0.57c0-0.02-0.04-0.11-0.04-0.15c-0.04,0.01-0.05-0.01-0.13,0c0.2-0.09,0.02-0.14-0.06-0.07
	c-0.19,0.17-0.07,0.06,0.02,0.29c0.11,0.25,0.44,0.24,0.71,0.26c-0.11,0.02-0.23,0.04-0.32,0.08c0.02,0.04,0.04,0.09,0.06,0.12
	c-0.07-0.11-0.17-0.18-0.27-0.11c-0.01,0-0.08-0.08-0.1-0.09c0,0.02-0.01,0.08-0.01,0.11c-0.08-0.09-0.09-0.07-0.16-0.1
	c0.01-0.06-0.01-0.15,0-0.21c-0.13,0.11-0.01,0.36-0.01,0.51c-0.01,0.26-0.31,0.54-0.28,0.72c-0.06,0-0.11,0.11-0.13,0.23
	c-0.01-0.11-0.06-0.16-0.13-0.24c0,0.02,0.02,0.05,0.02,0.06c-0.03,0.05-0.06-0.01-0.06,0.1c-0.05-0.1-0.13-0.23-0.18-0.28
	c0.01,0.16,0.14,0.47,0.27,0.47c-0.03,0.01-0.03,0.03-0.02,0.05c0,0-0.07-0.03-0.07-0.03c0.09,0.07,0.14,0.19,0.16,0.29
	c0-0.04,0-0.04,0-0.08c0.01,0.2,0.41,0.43,0.39,0.15c0.03,0.13-0.14,0.25-0.05,0.32c0.16,0.14,0.16-0.25,0.33,0.07
	c-0.04,0.01-0.13,0.01-0.17,0c0,0.02,0.03,0.05,0,0.07c-0.03-0.02-0.03-0.03-0.02-0.07c-0.1,0.06-0.1,0.03-0.15,0.07
	c0.01-0.17-0.26-0.39-0.35-0.53c0.05,0.13,0.38,0.77,0.43,0.78c0.01-0.02,0.03-0.06,0.04-0.08c0.04,0.02,0.04,0.07,0.07,0.08
	c0,0-0.01-0.05,0-0.05c0.08,0.07,0.11,0.13,0.16,0.24c-0.01,0-0.03,0.01-0.03,0.02c-0.06-0.11-0.09-0.18-0.2-0.17
	c-0.02-0.03,0.03-0.02,0-0.05c0.01,0-0.03,0.02-0.04,0.02c0,0-0.06-0.04-0.08-0.06c0.02,0.04,0.11,0.16,0.14,0.2
	c0.1,0.13,0.2,0.37,0.33,0.46c-0.01-0.01-0.04-0.05-0.05-0.07c0.03,0,0.06,0.06,0.09,0.08c0-0.01-0.01-0.07,0-0.07
	c0.04,0.17,0.2-0.02,0.35,0.14c-0.04,0.03-0.02,0.01-0.04,0.07c0.01,0.01,0.02,0.01,0.03,0.02c0.1-0.06,0-0.04,0.13,0
	c0.01-0.01-0.02-0.07-0.02-0.08c0.05,0.03,0.06,0.06,0.11,0.08c-0.07,0.04-0.18,0.07-0.22,0.08c-0.05-0.08-0.16-0.1-0.16-0.2
	c-0.07-0.01-0.06,0.02-0.16-0.02c0.26,0.39,0.68,0.55,0.97,0.9c0.19,0.22,0.37,0.43,0.57,0.67c0.16,0.19,0.36,0.49,0.58,0.62
	c0.2,0.12,0.32,0.31,0.39,0.45c-0.01-0.02,0.04,0.21,0.02,0.14c0.11,0.13,0.21,0.28,0.33,0.33c-0.01,0,0.03-0.07,0.03-0.06
	c-0.06,0.04,0.02,0.03-0.12,0.04c0.14,0.21,0.18,0.42,0.2,0.6c0.03,0.24,0.09,0.32,0.24,0.56c-0.03-0.01,0.08-0.03,0.07-0.03
	c-0.01,0.04-0.02,0.05-0.03,0.08c0.1-0.03,0.22-0.04,0.31-0.07c0.05-0.02,0.03-0.15,0.12-0.17c0.17-0.05,0.3,0.04,0.46,0.01
	c-0.35,0.04-0.64,0.28-1.03,0.32c0-0.02,0-0.04,0.01-0.05c-0.17,0.14,0.44,0.95,0.59,0.99c-0.05,0.48,0.29,1.03,0.51,1.46
	c0.18,0.36,0.29,0.66-0.06,0.84c0.02-0.03,0.05-0.06,0.07-0.08c-0.11,0.12-0.2,0.25-0.3,0.4c0-0.09,0.06-0.19,0.15-0.26
	c-0.32,0.14-0.08,0.41,0.02,0.6c0.07,0.13,0.02,0.31,0.05,0.41c0.12,0.38,0.41,0.72,0.6,1.07c0.25,0.45,0.24,1.66-0.17,2.13
	c-0.02-0.02,0.02-0.03,0.02-0.04c-0.1,0.1-0.1,0.19-0.19,0.29c-0.09,0.09-0.18,0.02-0.26,0.06c-0.3,0.17-0.29,0.42-0.48,0.67
	c-0.09,0.12-0.19,0.16-0.26,0.29c-0.08,0.16-0.04,0.4-0.12,0.6c-0.02,0.05-0.14,0.23-0.16,0.36c-0.02,0.12-0.03,0.42-0.08,0.6
	c-0.05,0.18-0.11,0.31-0.18,0.49c-0.05,0.13-0.05,0.39-0.14,0.62c-0.09,0.24-0.27,0.22-0.33,0.41c-0.01,0.02,0.07,0.43,0.08,0.48
	c0.02,0.22,0.04,0.45,0,0.66c-0.01-0.02-0.01-0.05-0.02-0.08c-0.07,0.68-0.13,1.39,0.25,2.01c0.17,0.27,0.41,0.51,0.58,0.8
	c0.14,0.25,0.27,0.51,0.41,0.77c0.37,0.68,0.58,1.4,1.01,2.05c0.23,0.35,0.36,0.64,0.59,0.95c0.22,0.29,0.53,0.73,0.45,1.13
	c-0.02,0.08-0.03,0.12-0.09,0.18c0-0.05-0.02-0.07-0.02-0.15c-0.1,0.21,0.09,0.42,0.05,0.64c-0.01-0.01-0.01-0.02-0.01-0.04
	c-0.11,0.14,0.04,0.44,0.03,0.62c-0.01,0.16-0.07,0.25-0.04,0.44c0.08,0.42,0.44,0.75,0.45,1.19c0.01,0.4-0.02,0.77,0.07,1.12
	c0.05,0.22,0.05,0.29,0.07,0.5c0.02,0.18,0.31,0.22,0.22,0.5c-0.01-0.01,0-0.05-0.01-0.06c-0.14,0.12,0.26,0.97,0.35,1.16
	c0.14,0.28,0.94,1.65,1.27,1.45c0.05,0.34,0.4,0.7,0.53,1.07c0.22,0.58,0.34,1.14,0.62,1.71c0.26,0.53,0.63,1,0.89,1.53
	c0.08,0.16,0.25,0.75,0.16,0.87c-0.05,0.07,0.01,0.3-0.04,0.42c-0.15,0.32-0.25,0.11-0.37,0.17c-0.02-0.01-0.02-0.02-0.01-0.03
	c-0.06,0.03-0.13,0.1-0.16,0.16c0.03,0.1,0.03,0.22,0.08,0.33c0.04-0.04,0.02-0.04,0.03-0.06c0.13,0.04,0.14,0.15,0.22,0.27
	c-0.05-0.06-0.15-0.11-0.21-0.14c0.23,0.21,0.31,0.5,0.49,0.72c0.12,0.15,0.12,0.31,0.09,0.43c-0.02,0.08-0.21,0.11-0.1,0.22
	c-0.07,0.14,0.02,0.34,0.16,0.41c-0.01-0.08-0.08-0.26-0.02-0.33c0.14-0.16,0.39-0.04,0.45,0.08c0.02,0.03-0.08,0.25-0.04,0.28
	c0.06,0.06,0.33-0.05,0.4-0.1c-0.19,0.27,0.53,0.13,0.19,0.47c0.19-0.06,0.23,0.15,0.41,0.21c0.07,0.03,0.43,0.06,0.5,0.04
	c0.03-0.01,0.26-0.26,0.34-0.31c0.08-0.05,0.13-0.15,0.22-0.18c0.12-0.04,0.54,0.08,0.34-0.08c0.15-0.09,0.32-0.05,0.5,0.01
	c0.16,0.06,0.22-0.07,0.35-0.08c0.18-0.02,0.26,0.08,0.45-0.02c0.14-0.07,0.02-0.23,0.31-0.23C57,95,57.7,94.9,57.85,94.97
	c-0.01-0.01-0.05-0.05-0.07-0.07c0,0,0.11,0.03,0.1,0.03c0,0.08,0.14,0.13,0.26,0.12c-0.01-0.01-0.03-0.06-0.04-0.08
	c0.11,0.12,0.3,0.1,0.49,0.12c-0.2-0.26,0.78-0.13,0.94-0.06c0.16,0.07,0.64,0.26,0.79,0.17c-0.04,0.02,0.08-0.21,0.07-0.22
	c-0.05-0.17,0.41-0.07,0.47-0.06c0.09,0.01,0.28,0.12,0.37,0.07c0.21-0.11-0.07-0.03-0.01-0.16c0.19-0.43,0.49-0.26,0.88-0.26
	c0.26,0,0.53-0.14,0.76-0.26c0.39-0.2,0.75-0.49,1.1-0.77c0.33-0.27,0.64-0.58,0.96-0.89c0.33-0.3,0.54-0.74,0.84-1
	c0.31-0.28,0.67-0.48,0.94-0.85c0.37-0.5,0.76-1.12,1.04-1.66c-0.02,0.01-0.05,0.03-0.07,0.04c0.12-0.19,0.26-0.56,0.45-0.8
	c0.13-0.16,0.44-0.37,0.47-0.55c0.14,0.03,0.28-0.04,0.36-0.16c-0.03,0-0.04,0.03-0.06,0.04c-0.01-0.01-0.02-0.02-0.03-0.04
	c0.16-0.03,0.6-0.36,0.49-0.57c0.3-0.34,0.34-1.14,0.48-1.59c0.15-0.49,0.12-0.99,0.19-1.5c-0.09,0.07-0.1,0.14-0.09,0.26
	c-0.05-0.02-0.2-0.09-0.24-0.12c-0.03-0.14-0.14-0.34-0.23-0.23c0.01-0.02,0.27-0.24,0.3-0.25c0-0.35,0.36-0.5,0.6-0.68
	c-0.02,0.02-0.03,0-0.03-0.02c0.05-0.02,0.09-0.04,0.14-0.06c-0.02,0.02-0.06,0.05-0.07,0.06c0.71-0.31,1.47-0.53,2.15-0.9
	c0.2-0.1,0.77-0.91,0.48-1.08c-0.04,0.16,0.03,0.11-0.12,0.08c-0.01,0.06-0.05,0.11-0.06,0.16c0.02-0.13,0.05-0.26,0.01-0.38
	c0.03,0.04,0.04,0.01,0.06,0.09c0.06-0.29,0.24-0.83,0.23-1.09c-0.01,0.01-0.02,0.03-0.06,0.05c-0.1-0.34,0-0.65,0.02-0.99
	c-0.01,0.04-0.03,0.12-0.04,0.17c0.01-0.09-0.02-0.19-0.02-0.27C73,78.9,72.99,78.89,73,79.01c-0.02-0.01-0.02-0.03-0.02-0.05
	c-0.02,0.13,0,0.24-0.03,0.36c-0.23-0.19,0-0.56-0.12-0.82c-0.09-0.2-0.25-0.64-0.2-0.86c-0.01,0.07-0.04,0.12-0.07,0.18
	c0-0.12,0.01-0.18-0.06-0.29c0.06-0.05,0.04-0.06,0.06-0.1c0.07-0.07,0.09-0.1-0.03-0.1c-0.01-0.15-0.01-0.32-0.2-0.29
	c0-0.02,0.03-0.05,0.03-0.07c-0.09-0.04-0.15-0.18-0.27-0.15c0.05-0.13,0.05-0.08-0.03-0.21c0.09-0.03,0.16-0.2,0.02-0.29
	c0.23,0.11,0.12-0.3,0.06-0.34c0.13-0.09-0.07-0.37-0.21-0.33c0.13-0.12,0.11,0.04,0.22,0.13c0.19,0.13,0.11,0.14,0.31,0.09
	c0.32-0.08,0.63-0.6,0.83-0.79c0,0-0.03,0-0.03,0.01c0.07-0.1,0.18-0.17,0.28-0.25c0,0-0.02,0-0.03,0.01
	c-0.01,0.01,0-0.04,0.01-0.03c0.09-0.02,0.06-0.02,0.15-0.07c0,0,0.13-0.05,0.18-0.11c0.03,0.16,0.01,0.08,0.16,0.11
	c-0.01-0.06,0-0.17-0.03-0.25c0.09,0.16,0.21,0.15,0.16,0.06c0.04-0.06,0-0.08,0.04-0.04c0.1-0.28,0.31-0.36,0.53-0.64
	c-0.03,0.01-0.05,0.03-0.07,0.04c0.23-0.11,0.24-0.3,0.04-0.41c0.08-0.02,0.15,0.04,0.2,0.14c0.17-0.28,0.33-0.37,0.57-0.52
	c0.19-0.12,0.87-0.35,0.74-0.51c0.03,0.04,0.05,0.01,0.05-0.02c0.03,0.28,0.64-0.15,0.65-0.19c0.12,0.07,0.61-0.02,0.5-0.14
	c0.17-0.13,0.77-0.38,0.8-0.59c0.07,0.02,0.06-0.02,0.13-0.02c-0.22-0.19,0.27-0.31,0.33-0.58c-0.04,0.02-0.06,0.04-0.08,0.04
	c0.2-0.15,0.51-0.45,0.63-0.64c0.08-0.13,0.18-0.47-0.09-0.36c0.05-0.08,0.12-0.12,0.24-0.13c-0.02-0.04-0.04-0.09-0.05-0.12
	c0.04,0,0.09,0.02,0.12,0.03c-0.06-0.07-0.09-0.12-0.16-0.18c0.24,0.21,0.23-0.29,0.22-0.4c-0.02,0.01-0.07,0-0.08,0
	c0.2-0.17-0.1-0.18-0.16,0.05c0.01-0.13,0.02-0.14,0.01-0.28c0.2,0.05,0.12-0.31-0.07-0.1c0.02,0.03,0.01-0.06,0.01-0.06
	c-0.01,0-0.03,0.04-0.04,0.03c0.01-0.07,0.03-0.13,0.05-0.18c0.2-0.2-0.19-0.66-0.01-0.89c-0.04-0.02-0.01-0.03-0.02-0.09
	c-0.01,0.02-0.03,0.03-0.05,0.03c0.07-0.12,0.14-0.45-0.05-0.43c-0.08,0.14-0.13-0.09,0.04-0.05c0-0.05,0.03-0.05,0.01-0.11
	c0.05,0,0.05-0.01,0.05-0.05c0.13,0,0.07-0.09,0.01-0.17c0.03-0.01,0.02,0.02,0.05,0.01c-0.11-0.1-0.21-0.19-0.07-0.31
	c-0.06-0.04-0.07-0.09-0.13-0.15c0.13-0.06,0.08-0.38,0.08-0.52c-0.22-0.19,0.05-0.53-0.21-0.63c0.14-0.05,0.22-0.23,0.26-0.37
	c-0.06,0-0.01,0.01-0.07,0.03c0-0.12,0.01-0.18,0.14-0.24c-0.08-0.02-0.1-0.06-0.15-0.05c0.07-0.07,0.08-0.1,0.2-0.13
	c-0.11-0.06-0.18-0.14-0.15-0.24c-0.09,0-0.12-0.04-0.14-0.12c0.04-0.11,0.01-0.05-0.02-0.11c0,0.04,0.03,0.01,0.03,0.06
	c-0.1-0.01-0.18-0.09-0.23-0.19c-0.01,0.02-0.03,0.03-0.04,0.05c0.02,0.01,0.07,0.02,0.08,0.03c-0.02,0.01-0.05,0-0.04,0.03
	c-0.05,0-0.1-0.03-0.14-0.04c0.04-0.11-0.01-0.15-0.15-0.16c0.01,0.05,0,0.07,0,0.11c0-0.21-0.2-0.36-0.35-0.21
	c0.07-0.1,0.07-0.12,0.07-0.2c0.05-0.08,0.06-0.11-0.07-0.16c0.07-0.1,0.01-0.41-0.16-0.36c0.08-0.08,0.18-0.49-0.08-0.39
	c0.01-0.1-0.02-0.22-0.04-0.27c-0.01,0-0.08,0-0.09,0c0.06,0,0.11-0.01,0.2,0.03c-0.19-0.26-0.32-0.44-0.31-0.79
	c0.02,0,0.02,0.03,0.04,0.03c0.02-0.1,0.12-0.23,0.16-0.38c-0.02-0.06,0-0.22-0.14-0.24c0.05,0.01,0-0.06-0.01-0.07
	c-0.02,0.06-0.07,0.08-0.09,0.12c0.07-0.13,0.11-0.47,0.09-0.62c0.14-0.12,0.51-0.56-0.04-0.59c0,0.01,0.02,0.03,0.01,0.04
	c-0.01-0.04-0.04-0.09-0.02-0.15c-0.07-0.07-0.2-0.26-0.35-0.33c0,0.01,0.05,0.03,0.05,0.04c-0.59-0.07-0.1-1.24,0.05-1.5
	c-0.02-0.01-0.02,0.02-0.05,0.01c0.09-0.1,0.16-0.19,0.05-0.21c0.05-0.09,0.02-0.07,0.03-0.17c0.05-0.01,0.05-0.03,0.07-0.08
	c0.01,0.04-0.01,0.07,0,0.11c0.06-0.14,0.05-0.09,0.01-0.19c0-0.05,0.04-0.05,0.02-0.12c0.03-0.04,0.1-0.09,0.13-0.1
	c0.1,0.04,0.13,0.02,0.17-0.09c0.02,0.02,0,0.05,0.01,0.07c0.06-0.16,0.38-0.65,0.14-0.6c0.02-0.06,0.01-0.06,0.09-0.1
	c0.01,0-0.06-0.01-0.06-0.02c0,0,0.07-0.01,0.08-0.01c0.01,0.02,0.02,0.08,0.04,0.1c0-0.01,0.06-0.09,0.07-0.1
	c-0.06-0.03-0.05-0.02-0.07-0.07c0.15,0.14,0.21-0.32,0.11-0.41c0.15,0.15,0.2-0.2,0.25-0.31c0,0.03-0.02,0.05-0.02,0.08
	c0.23-0.07,0.18-0.32,0.31-0.48c-0.22-0.03,0.02-0.41,0.19-0.49c0.14-0.06,0.68-0.07,0.46-0.33c0.11-0.07,0.18-0.07,0.18,0.04
	c0.08-0.08-0.04-0.34-0.07-0.42c0.03,0.04,0.07,0.09,0.1,0.13c0.02-0.06,0.06-0.15,0.07-0.2c-0.09,0.27,0.17,0.1,0.25,0.02
	c0.14,0.14,0.77-0.68,0.73-0.9c0.05,0.08,0.04,0.01,0.08,0.02c0.01-0.03,0.1-0.22,0.07-0.34c0,0.03,0.02,0.09,0.02,0.12
	c0.06-0.08,0.1-0.12,0.11-0.19c0.22-0.05,0.33-0.38,0.49-0.44c0.1-0.25,0.45-0.5,0.66-0.73c0.34-0.37,0.83-0.69,1.12-1.06
	c0.51-0.64,1.39-1.02,2.1-1.43c0.73-0.43,1.3-1.17,1.9-1.79c0.44-0.46,0.75-0.94,1.12-1.44c0.35-0.47,0.73-0.93,0.98-1.47
	c0.07-0.15,0.02-0.28,0.1-0.43c0.12-0.24,0.21-0.48,0.37-0.7c0.19-0.27,0.33-0.57,0.44-0.82c0.12-0.27,0.36-0.44,0.5-0.72
	c0.09-0.17,0.14-0.43,0.27-0.59c0.16-0.21,0.29-0.35,0.42-0.56c0.08-0.13,0.07-0.47,0.1-0.65c0.04-0.25-0.06-0.51,0.25-0.61
	C91.9,39.37,92.14,39.58,92.1,39.33z M45.91,58.96c0.07-0.03,0.15-0.08,0.22-0.1c-0.11-0.02-0.22,0.01-0.3,0.09
	C45.87,58.99,45.89,58.94,45.91,58.96z M78.15,61.4c-0.01,0.05-0.06,0.05-0.05,0.12c0.05-0.02,0.08-0.06,0.12-0.1
	C78.21,61.39,78.16,61.41,78.15,61.4z M77.79,59.49c0.25,0.21,0.11-0.21,0.08-0.33c-0.01,0.03,0.01,0.06,0,0.09
	c-0.05,0.01-0.05-0.02-0.1-0.01c0.04-0.14-0.06-0.41-0.12-0.57c-0.02,0.12-0.09,0.18-0.14,0.21c0.02,0.18-0.08,0.38,0.11,0.5
	c0,0,0,0,0,0c0-0.06,0-0.04,0-0.07c0.03,0.03,0.12,0.11,0.14,0.15c0-0.04,0.01-0.07,0.02-0.09C77.77,59.41,77.78,59.45,77.79,59.49z
	"/>
</svg>
