<?xml version="1.0" encoding="utf-8"?>
<!-- Generator: Adobe Illustrator 24.3.0, SVG Export Plug-In . SVG Version: 6.00 Build 0)  -->
<svg version="1.1" id="Layer_1" xmlns="http://www.w3.org/2000/svg" xmlns:xlink="http://www.w3.org/1999/xlink" x="0px" y="0px"
	 viewBox="0 0 100 100" style="enable-background:new 0 0 100 100;" xml:space="preserve">
<style type="text/css">
	.st0{fill:#BFBFBF;}
</style>
<g>
	<g>
		<path class="st0" d="M87.2,71.09l-0.14-0.22c0.21-0.13,0.42-0.27,0.61-0.41l0.16,0.21C87.63,70.81,87.42,70.95,87.2,71.09z"/>
	</g>
	<g>
		<path class="st0" d="M86.68,70.48l-0.14-0.22c0.6-0.38,1.12-0.79,1.61-1.28c0.39-0.39,0.74-0.81,1.06-1.27l0.22,0.15
			c-0.32,0.47-0.69,0.91-1.09,1.3C87.84,69.66,87.3,70.09,86.68,70.48z"/>
	</g>
	<g>
		<path class="st0" d="M85.53,70.24l-0.13-0.23c0.83-0.45,1.54-0.98,2.17-1.61c0.74-0.74,1.35-1.6,1.85-2.63l0.24,0.12
			c-0.51,1.05-1.13,1.94-1.9,2.7C87.11,69.23,86.38,69.78,85.53,70.24z"/>
	</g>
	<g>
		<path class="st0" d="M85.06,69.61l-0.13-0.23c0.79-0.44,1.46-0.95,2.07-1.55c0.77-0.77,1.39-1.66,1.9-2.73l0.24,0.11
			c-0.52,1.1-1.16,2.02-1.95,2.81C86.56,68.64,85.87,69.16,85.06,69.61z"/>
	</g>
	<g>
		<path class="st0" d="M89.86,60.93l-0.13-0.02l-0.12-0.06c0.07-0.23,0.14-0.47,0.21-0.7l0.25,0.08
			C90,60.46,89.93,60.69,89.86,60.93z"/>
	</g>
	<g>
		<path class="st0" d="M84.6,68.97l-0.13-0.23c0.74-0.42,1.38-0.91,1.96-1.49c0.79-0.79,1.43-1.72,1.95-2.85l0.24,0.11
			c-0.53,1.15-1.19,2.11-2,2.92C86.02,68.03,85.36,68.53,84.6,68.97z"/>
	</g>
	<g>
		
			<rect x="88.71" y="60.43" transform="matrix(0.2844 -0.9587 0.9587 0.2844 5.6932 128.7487)" class="st0" width="0.75" height="0.26"/>
	</g>
	<g>
		<path class="st0" d="M84.14,68.33l-0.13-0.23c0.69-0.41,1.29-0.88,1.84-1.42c0.67-0.67,1.22-1.42,1.68-2.3l0.23,0.12
			c-0.48,0.91-1.04,1.68-1.73,2.37C85.47,67.43,84.85,67.9,84.14,68.33z"/>
	</g>
	<g>
		<path class="st0" d="M88.12,61.69l-0.25-0.08c0.2-0.6,0.39-1.23,0.56-1.83l0.09-0.32l0.25,0.07l-0.09,0.32
			C88.51,60.45,88.33,61.08,88.12,61.69z"/>
	</g>
	<g>
		<path class="st0" d="M78.77,69.59l-0.07-0.25l0.25-0.07c2.2-0.65,4.48-1.31,6.33-3.16c0.7-0.7,1.27-1.49,1.75-2.43l0.23,0.12
			c-0.49,0.96-1.08,1.78-1.79,2.5c-1.89,1.89-4.2,2.57-6.44,3.23L78.77,69.59z"/>
	</g>
	<g>
		<path class="st0" d="M87.35,61.68l-0.25-0.09c0.15-0.41,0.3-0.86,0.47-1.42l0.25,0.08C87.65,60.81,87.5,61.27,87.35,61.68z"/>
	</g>
	<g>
		<path class="st0" d="M78.34,68.97l-0.07-0.25l0.11-0.03c2.2-0.65,4.48-1.31,6.33-3.16c0.89-0.89,1.56-1.92,2.12-3.24l0.24,0.1
			c-0.57,1.35-1.27,2.41-2.18,3.32c-1.89,1.89-4.21,2.57-6.44,3.23L78.34,68.97z"/>
	</g>
	<g>
		<path class="st0" d="M85.9,63.04l-0.23-0.13c0.43-0.77,0.79-1.61,1.15-2.74l0.25,0.08C86.7,61.4,86.33,62.26,85.9,63.04z"/>
	</g>
	<g>
		<path class="st0" d="M78.63,68.14l-0.08-0.25c1.91-0.57,3.91-1.27,5.57-2.94c0.43-0.43,0.81-0.89,1.15-1.4l0.22,0.15
			c-0.35,0.53-0.74,1-1.18,1.44C82.61,66.84,80.57,67.56,78.63,68.14z"/>
	</g>
	<g>
		<path class="st0" d="M85.74,61.65l-0.24-0.11c0.28-0.59,0.53-1.26,0.79-2.09l0.25,0.08C86.27,60.37,86.02,61.05,85.74,61.65z"/>
	</g>
	<g>
		<path class="st0" d="M78.21,67.52l-0.08-0.25c1.84-0.56,3.78-1.24,5.43-2.89c0.47-0.47,0.87-0.97,1.23-1.53l0.22,0.14
			c-0.37,0.58-0.79,1.1-1.27,1.57C82.05,66.25,80,66.98,78.21,67.52z"/>
	</g>
	<g>
		<path class="st0" d="M84.89,61.62l-0.23-0.12c0.32-0.6,0.59-1.25,0.87-2.06l0.25,0.09C85.5,60.34,85.22,61.01,84.89,61.62z"/>
	</g>
	<g>
		<path class="st0" d="M78.5,66.67l-0.08-0.25c1.44-0.48,3.12-1.17,4.57-2.62c0.5-0.5,0.93-1.04,1.31-1.66l0.22,0.14
			c-0.39,0.63-0.84,1.19-1.35,1.71C81.68,65.48,79.97,66.18,78.5,66.67z"/>
	</g>
	<g>
		<path class="st0" d="M84.71,60.22l-0.24-0.11c0.1-0.23,0.19-0.46,0.28-0.69L85,59.52C84.91,59.76,84.82,59.99,84.71,60.22z"/>
	</g>
	<g>
		<path class="st0" d="M78.07,66.05l-0.09-0.25c1.39-0.47,3-1.15,4.42-2.57c0.36-0.36,0.69-0.75,0.99-1.17l0.21,0.15
			c-0.3,0.43-0.65,0.83-1.01,1.2C81.12,64.88,79.4,65.59,78.07,66.05z"/>
	</g>
	<g>
		<path class="st0" d="M83.88,60.2l-0.24-0.12c0.1-0.21,0.21-0.44,0.31-0.68l0.24,0.1C84.1,59.75,83.99,59.98,83.88,60.2z"/>
	</g>
	<g>
		<path class="st0" d="M80.38,64.14l-0.14-0.22c0.59-0.37,1.11-0.79,1.59-1.27c0.05-0.05,0.09-0.09,0.13-0.14l0.19,0.18
			c-0.05,0.05-0.09,0.09-0.14,0.14C81.52,63.33,80.99,63.76,80.38,64.14z"/>
	</g>
	<g>
		<path class="st0" d="M79.04,64.86l-0.11-0.24c0.23-0.11,0.46-0.22,0.67-0.33l0.12,0.23C79.51,64.64,79.28,64.76,79.04,64.86z"/>
	</g>
	<g>
		<path class="st0" d="M83.02,60.17l-0.23-0.13c0.23-0.41,0.44-0.85,0.64-1.34l0.24,0.1C83.47,59.3,83.26,59.75,83.02,60.17z"/>
	</g>
	<g>
		<path class="st0" d="M81.68,62.02l-0.19-0.18c0.17-0.18,0.33-0.37,0.48-0.56l0.21,0.16C82.02,61.64,81.85,61.83,81.68,62.02z"/>
	</g>
	<g>
		<path class="st0" d="M81.69,60.75l-0.21-0.16c0.43-0.57,0.81-1.19,1.14-1.91l0.24,0.11C82.51,59.53,82.13,60.17,81.69,60.75z"/>
	</g>
	<g>
		<path class="st0" d="M80.66,61.89l-0.18-0.19c0.07-0.06,0.13-0.13,0.2-0.19c0.11-0.11,0.22-0.23,0.32-0.34l0.2,0.18
			c-0.11,0.12-0.22,0.23-0.33,0.35C80.8,61.76,80.73,61.82,80.66,61.89z"/>
	</g>
	<g>
		<path class="st0" d="M85.98,49.13l-0.21-0.16c0.16-0.2,0.32-0.39,0.5-0.58l0.19,0.18C86.3,48.74,86.14,48.93,85.98,49.13z"/>
	</g>
	<g>
		<path class="st0" d="M79,62.19l-0.15-0.22c0.45-0.31,0.87-0.66,1.26-1.05c0.81-0.81,1.46-1.77,1.99-2.93l0.24,0.11
			c-0.54,1.19-1.21,2.17-2.04,3.01C79.9,61.51,79.46,61.87,79,62.19z"/>
	</g>
	<g>
		<path class="st0" d="M85.03,49.06l-0.22-0.15c0.29-0.42,0.61-0.82,0.96-1.18l0.19,0.18C85.63,48.26,85.31,48.65,85.03,49.06z"/>
	</g>
	<g>
		<path class="st0" d="M81.48,58.11l-0.23-0.12c0.22-0.42,0.41-0.86,0.61-1.36l0.25,0.09C81.9,57.23,81.7,57.69,81.48,58.11z"/>
	</g>
	<g>
		<path class="st0" d="M79.72,60.54l-0.12-0.06l-0.08-0.11c0.53-0.53,0.97-1.09,1.36-1.73l0.23,0.14
			C80.7,59.43,80.25,60.01,79.72,60.54z"/>
	</g>
	<g>
		<path class="st0" d="M78.52,61.55l-0.15-0.21c0.2-0.14,0.4-0.3,0.59-0.45l0.17,0.2C78.93,61.25,78.73,61.4,78.52,61.55z"/>
	</g>
	<g>
		<path class="st0" d="M83.44,50.36l-0.24-0.1c0.57-1.32,1.25-2.35,2.15-3.25c0.52-0.52,1.08-0.96,1.71-1.35l0.14,0.22
			c-0.62,0.38-1.16,0.81-1.66,1.32C84.66,48.07,83.99,49.07,83.44,50.36z"/>
	</g>
	<g>
		<path class="st0" d="M80.95,57.46l-0.23-0.12c0.31-0.6,0.57-1.26,0.85-2.07l0.25,0.08C81.53,56.18,81.26,56.84,80.95,57.46z"/>
	</g>
	<g>
		<path class="st0" d="M78.62,60.45l-0.17-0.2c0.18-0.15,0.35-0.31,0.51-0.47c0.36-0.36,0.69-0.75,0.99-1.17l0.21,0.15
			c-0.31,0.43-0.65,0.84-1.02,1.21C78.98,60.13,78.8,60.3,78.62,60.45z"/>
	</g>
	<g>
		<path class="st0" d="M76.72,61.72l-0.12-0.23c0.46-0.24,0.87-0.49,1.26-0.78l0.15,0.21C77.62,61.22,77.19,61.48,76.72,61.72z"/>
	</g>
	<g>
		<path class="st0" d="M99.03,38.6l-0.22-0.14c0.26-0.4,0.49-0.83,0.7-1.31l0.24,0.11C99.53,37.75,99.29,38.18,99.03,38.6z"/>
	</g>
	<g>
		<path class="st0" d="M85.47,46.14l-0.17-0.2c0.38-0.32,0.79-0.62,1.23-0.89l0.14,0.22C86.24,45.54,85.85,45.82,85.47,46.14z"/>
	</g>
	<g>
		<path class="st0" d="M82.89,49.73l-0.24-0.11c0.21-0.49,0.44-0.93,0.69-1.35l0.23,0.14C83.32,48.81,83.1,49.25,82.89,49.73z"/>
	</g>
	<g>
		<path class="st0" d="M80.72,56.13l-0.24-0.1c0.18-0.42,0.35-0.87,0.53-1.4l0.25,0.08C81.08,55.25,80.9,55.71,80.72,56.13z"/>
	</g>
	<g>
		<path class="st0" d="M77.5,60.31l-0.16-0.21c0.37-0.27,0.72-0.57,1.04-0.89c0.55-0.55,1.02-1.15,1.43-1.85l0.23,0.13
			c-0.42,0.71-0.9,1.33-1.47,1.9C78.24,59.72,77.88,60.03,77.5,60.31z"/>
	</g>
	<g>
		<path class="st0" d="M75.52,61.45l-0.11-0.24c0.48-0.21,0.91-0.44,1.31-0.69l0.14,0.22C76.45,61,76.01,61.23,75.52,61.45z"/>
	</g>
	<g>
		<path class="st0" d="M98.47,38l-0.22-0.14c0.25-0.41,0.48-0.83,0.7-1.31l0.24,0.11C98.97,37.15,98.73,37.59,98.47,38z"/>
	</g>
	<g>
		<path class="st0" d="M86.12,44.68l-0.14-0.22c0.21-0.13,0.44-0.25,0.66-0.37l0.12,0.23C86.54,44.44,86.33,44.56,86.12,44.68z"/>
	</g>
	<g>
		<path class="st0" d="M82.32,49.13l-0.24-0.11c0.22-0.49,0.44-0.93,0.7-1.35L83,47.81C82.76,48.21,82.54,48.65,82.32,49.13z"/>
	</g>
	<g>
		<path class="st0" d="M76.95,59.72l-0.16-0.21c0.36-0.27,0.7-0.56,1.02-0.88c1.64-1.64,2.33-3.6,2.86-5.31l0.25,0.08
			c-0.53,1.74-1.24,3.74-2.92,5.42C77.67,59.14,77.32,59.45,76.95,59.72z"/>
	</g>
	<g>
		<path class="st0" d="M74.97,60.86l-0.11-0.24c0.48-0.22,0.91-0.44,1.31-0.7l0.14,0.22C75.9,60.41,75.46,60.64,74.97,60.86z"/>
	</g>
	<g>
		<path class="st0" d="M97.88,37.45l-0.22-0.14c0.26-0.4,0.49-0.83,0.7-1.31l0.24,0.11C98.38,36.6,98.14,37.04,97.88,37.45z"/>
	</g>
	<g>
		<path class="st0" d="M89.67,42.45l-0.08-0.25l0.47-0.14c0.32-0.09,0.65-0.19,0.97-0.29l0.08,0.25c-0.32,0.1-0.65,0.19-0.97,0.29
			L89.67,42.45z"/>
	</g>
	<g>
		<path class="st0" d="M81.74,48.58l-0.24-0.11c0.56-1.29,1.24-2.3,2.12-3.18c0.86-0.86,1.88-1.54,3.12-2.09l0.11,0.24
			c-1.21,0.54-2.2,1.2-3.04,2.04C82.95,46.33,82.29,47.32,81.74,48.58z"/>
	</g>
	<g>
		<path class="st0" d="M80.34,52.85l-0.25-0.08c0.07-0.24,0.15-0.48,0.22-0.72l0.25,0.07C80.48,52.36,80.41,52.61,80.34,52.85z"/>
	</g>
	<g>
		<path class="st0" d="M74.38,60.3l-0.11-0.24c0.48-0.21,0.91-0.44,1.31-0.69l0.14,0.22C75.3,59.85,74.86,60.08,74.38,60.3z"/>
	</g>
	<g>
		<path class="st0" d="M97.25,36.96l-0.22-0.14c0.26-0.4,0.49-0.83,0.71-1.3l0.24,0.11C97.76,36.11,97.52,36.54,97.25,36.96z"/>
	</g>
	<g>
		<path class="st0" d="M96.33,38.17l-0.2-0.18c0.16-0.18,0.32-0.37,0.47-0.57l0.21,0.16C96.66,37.78,96.5,37.98,96.33,38.17z"/>
	</g>
	<g>
		<path class="st0" d="M89.72,41.69l-0.07-0.25c0.73-0.21,1.45-0.43,2.14-0.68l0.09,0.25C91.17,41.26,90.46,41.48,89.72,41.69z"/>
	</g>
	<g>
		<path class="st0" d="M81.44,47.41L81.2,47.3c0.5-1,1.1-1.85,1.84-2.58c0.99-0.99,2.18-1.74,3.73-2.34l0.1,0.25
			c-1.51,0.59-2.67,1.32-3.64,2.29C82.51,45.61,81.93,46.44,81.44,47.41z"/>
	</g>
	<g>
		<path class="st0" d="M79.73,52.36l-0.25-0.08c0.12-0.37,0.23-0.75,0.34-1.13c0.17-0.58,0.34-1.17,0.54-1.75l0.25,0.08
			c-0.19,0.58-0.37,1.17-0.53,1.75C79.96,51.61,79.85,51.99,79.73,52.36z"/>
	</g>
	<g>
		<path class="st0" d="M74.4,59.44l-0.12-0.23c0.46-0.24,0.87-0.49,1.27-0.77l0.15,0.21C75.29,58.93,74.87,59.19,74.4,59.44z"/>
	</g>
	<g>
		<path class="st0" d="M93.85,39.2l-0.14-0.22c0.56-0.36,1.06-0.77,1.53-1.23c0.74-0.74,1.35-1.61,1.85-2.63l0.24,0.12
			c-0.51,1.06-1.13,1.94-1.9,2.7C94.95,38.42,94.43,38.83,93.85,39.2z"/>
	</g>
	<g>
		<path class="st0" d="M89.67,40.96l-0.08-0.25c0.91-0.27,1.88-0.58,2.81-1.01l0.11,0.24C91.58,40.37,90.6,40.69,89.67,40.96z"/>
	</g>
	<g>
		<path class="st0" d="M80.78,47.02l-0.24-0.11c0.52-1.08,1.15-1.99,1.93-2.77c1.1-1.1,2.41-1.88,4.25-2.54l0.09,0.25
			c-1.8,0.64-3.08,1.4-4.15,2.48C81.9,45.08,81.28,45.96,80.78,47.02z"/>
	</g>
	<g>
		<path class="st0" d="M78.86,52.7l-0.25-0.09c0.23-0.67,0.44-1.36,0.63-2.03c0.29-0.99,0.59-2.01,0.99-2.98l0.24,0.1
			c-0.4,0.96-0.69,1.97-0.98,2.96C79.3,51.33,79.09,52.02,78.86,52.7z"/>
	</g>
	<g>
		<path class="st0" d="M73.64,58.95l-0.12-0.24c0.7-0.35,1.31-0.74,1.87-1.19l0.17,0.2C74.99,58.2,74.36,58.6,73.64,58.95z"/>
	</g>
	<g>
		<path class="st0" d="M96.91,34.31l-0.24-0.11c0.1-0.23,0.2-0.46,0.29-0.69l0.25,0.1C97.12,33.84,97.02,34.07,96.91,34.31z"/>
	</g>
	<g>
		<path class="st0" d="M90.19,40.04l-0.08-0.25c1.44-0.48,3.11-1.17,4.56-2.62c0.67-0.67,1.22-1.42,1.69-2.31l0.23,0.12
			c-0.48,0.91-1.05,1.69-1.73,2.38C93.36,38.85,91.66,39.55,90.19,40.04z"/>
	</g>
	<g>
		<path class="st0" d="M77.57,53.87l-0.24-0.12c0.59-1.2,0.97-2.5,1.34-3.75c0.65-2.24,1.33-4.55,3.23-6.44
			c1.48-1.48,3.16-2.18,4.62-2.66l0.08,0.25c-1.42,0.48-3.07,1.16-4.51,2.6c-1.85,1.85-2.51,4.12-3.16,6.33
			C78.55,51.34,78.17,52.65,77.57,53.87z"/>
	</g>
	<g>
		<path class="st0" d="M75.84,56.37l-0.19-0.18c0.51-0.53,0.94-1.11,1.33-1.78l0.23,0.13C76.81,55.22,76.37,55.82,75.84,56.37z"/>
	</g>
	<g>
		<path class="st0" d="M74.7,57.38l-0.16-0.21c0.2-0.15,0.39-0.31,0.57-0.47l0.18,0.2C75.1,57.07,74.9,57.23,74.7,57.38z"/>
	</g>
	<g>
		<path class="st0" d="M73.41,58.2l-0.12-0.23c0.22-0.12,0.44-0.25,0.64-0.37l0.14,0.22C73.86,57.95,73.64,58.08,73.41,58.2z"/>
	</g>
	<g>
		<path class="st0" d="M91.84,38.55l-0.12-0.23c0.91-0.47,1.69-1.03,2.37-1.72c0.86-0.86,1.51-1.84,2.06-3.1l0.24,0.11
			c-0.56,1.28-1.23,2.29-2.12,3.18C93.57,37.49,92.78,38.07,91.84,38.55z"/>
	</g>
	<g>
		<path class="st0" d="M73.61,57.17l-0.14-0.22c0.54-0.35,1.02-0.74,1.47-1.19c1.85-1.85,2.51-4.12,3.16-6.33
			c0.66-2.24,1.33-4.55,3.23-6.44c0.91-0.91,1.97-1.6,3.32-2.18l0.1,0.24c-1.32,0.56-2.35,1.23-3.23,2.12
			c-1.85,1.85-2.51,4.12-3.16,6.33c-0.65,2.24-1.33,4.55-3.23,6.44C74.66,56.41,74.16,56.81,73.61,57.17z"/>
	</g>
	<g>
		<path class="st0" d="M59.68,67.04l-0.25-0.08c0.27-0.83,0.54-1.5,0.83-2.11l0.24,0.12C60.21,65.56,59.95,66.22,59.68,67.04z"/>
	</g>
	<g>
		<path class="st0" d="M88.21,39.16l-0.08-0.25c1.74-0.53,3.74-1.23,5.38-2.88c0.64-0.64,1.18-1.37,1.63-2.21l0.23,0.12
			c-0.47,0.87-1.02,1.61-1.68,2.27C92.01,37.9,89.98,38.62,88.21,39.16z"/>
	</g>
	<g>
		<path class="st0" d="M74.05,55.83l-0.17-0.2c0.16-0.14,0.32-0.29,0.48-0.45c1.85-1.85,2.51-4.12,3.16-6.33
			c0.65-2.24,1.33-4.55,3.23-6.44c1.57-1.57,3.44-2.31,5.23-2.86l0.08,0.25c-1.75,0.55-3.58,1.26-5.12,2.8
			c-1.85,1.85-2.51,4.12-3.16,6.33c-0.65,2.24-1.33,4.55-3.23,6.44C74.39,55.53,74.22,55.68,74.05,55.83z"/>
	</g>
	<g>
		<path class="st0" d="M58.82,67.42l-0.25-0.08c0.39-1.31,0.88-2.82,1.75-4.18l0.22,0.14C59.68,64.63,59.2,66.12,58.82,67.42z"/>
	</g>
	<g>
		<path class="st0" d="M73.66,55.09l-0.18-0.19c0.1-0.09,0.2-0.19,0.3-0.29c1.85-1.85,2.51-4.13,3.16-6.33
			c0.65-2.24,1.33-4.55,3.23-6.44c1.89-1.89,4.21-2.57,6.44-3.23c2.2-0.65,4.48-1.31,6.33-3.16c0.36-0.36,0.68-0.74,0.98-1.15
			l0.21,0.15c-0.3,0.42-0.64,0.82-1,1.19c-1.89,1.89-4.21,2.57-6.44,3.23c-2.2,0.65-4.48,1.31-6.33,3.16
			c-1.85,1.85-2.51,4.12-3.16,6.33c-0.66,2.24-1.33,4.55-3.23,6.44C73.87,54.9,73.77,55,73.66,55.09z"/>
	</g>
	<g>
		<path class="st0" d="M69.01,57.57l-0.08-0.25c0.24-0.08,0.47-0.16,0.71-0.24l0.09,0.25C69.48,57.42,69.25,57.5,69.01,57.57z"/>
	</g>
	<g>
		<path class="st0" d="M58.78,65.19l-0.25-0.09c0.19-0.52,0.38-0.97,0.59-1.4l0.24,0.12C59.15,64.23,58.96,64.68,58.78,65.19z"/>
	</g>
	<g>
		<path class="st0" d="M72.84,54.73l-0.17-0.2c0.18-0.16,0.37-0.32,0.54-0.5c1.85-1.85,2.51-4.13,3.16-6.33
			c0.65-2.24,1.33-4.55,3.23-6.44c1.89-1.89,4.21-2.57,6.44-3.23c2.2-0.65,4.48-1.31,6.33-3.16c0.28-0.28,0.54-0.58,0.79-0.9
			l0.21,0.16c-0.25,0.32-0.52,0.63-0.81,0.92c-1.89,1.89-4.21,2.57-6.44,3.23c-2.2,0.65-4.48,1.31-6.33,3.16
			c-1.85,1.85-2.51,4.12-3.16,6.33c-0.66,2.24-1.33,4.55-3.23,6.44C73.22,54.4,73.03,54.57,72.84,54.73z"/>
	</g>
	<g>
		<path class="st0" d="M68.12,57.1l-0.08-0.25c0.55-0.17,1-0.32,1.42-0.48l0.09,0.25C69.13,56.77,68.68,56.92,68.12,57.1z"/>
	</g>
	<g>
		<path class="st0" d="M72.87,53.6l-0.19-0.18c1.81-1.84,2.47-4.1,3.11-6.28c0.66-2.24,1.33-4.55,3.23-6.44
			c1.89-1.89,4.21-2.57,6.44-3.23c2.2-0.65,4.48-1.31,6.33-3.16c0.12-0.12,0.24-0.24,0.35-0.37l0.2,0.18
			c-0.11,0.13-0.23,0.25-0.36,0.38c-1.89,1.89-4.2,2.57-6.44,3.23c-2.2,0.65-4.48,1.31-6.33,3.16c-1.85,1.85-2.51,4.12-3.16,6.33
			C75.4,49.42,74.73,51.71,72.87,53.6z"/>
	</g>
	<g>
		<path class="st0" d="M67.6,56.51l-0.08-0.25c0.55-0.17,1-0.33,1.41-0.49l0.09,0.25C68.61,56.18,68.15,56.33,67.6,56.51z"/>
	</g>
	<g>
		<path class="st0" d="M57.54,64.29l-0.25-0.09c0.28-0.8,0.57-1.48,0.9-2.09l0.23,0.12C58.1,62.84,57.82,63.49,57.54,64.29z"/>
	</g>
	<g>
		<path class="st0" d="M56.66,67.16l-0.25-0.08c0.07-0.24,0.14-0.48,0.21-0.72l0.25,0.07C56.8,66.68,56.73,66.92,56.66,67.16z"/>
	</g>
	<g>
		<path class="st0" d="M71.99,53.32l-0.18-0.19c0.08-0.08,0.17-0.16,0.25-0.24c1.85-1.85,2.51-4.12,3.16-6.33
			c0.65-2.24,1.33-4.55,3.23-6.44c1.89-1.89,4.21-2.57,6.44-3.23c2.2-0.65,4.48-1.31,6.33-3.16l0.08-0.08l0.19,0.18l-0.09,0.09
			c-1.89,1.89-4.21,2.57-6.44,3.23c-2.2,0.65-4.48,1.31-6.33,3.16c-1.85,1.85-2.51,4.12-3.16,6.33c-0.66,2.24-1.33,4.55-3.23,6.44
			C72.16,53.16,72.08,53.24,71.99,53.32z"/>
	</g>
	<g>
		<path class="st0" d="M67.35,55.83l-0.08-0.25c1.13-0.37,1.98-0.72,2.75-1.15l0.13,0.23C69.36,55.09,68.5,55.46,67.35,55.83z"/>
	</g>
	<g>
		<path class="st0" d="M55.18,69.12l-0.24-0.11c0.47-1.07,0.81-2.2,1.13-3.3c0.44-1.5,0.89-3.05,1.72-4.47l0.23,0.13
			c-0.81,1.39-1.26,2.92-1.69,4.41C56,66.89,55.66,68.03,55.18,69.12z"/>
	</g>
	<g>
		<path class="st0" d="M67.27,55.09l-0.09-0.25c1.26-0.44,2.9-1.12,4.3-2.53c1.85-1.85,2.51-4.13,3.16-6.33
			c0.65-2.24,1.33-4.55,3.23-6.44c1.89-1.89,4.21-2.57,6.44-3.23c2.17-0.64,4.42-1.3,6.25-3.09l0.18,0.19
			c-1.88,1.84-4.16,2.5-6.36,3.15c-2.2,0.65-4.48,1.31-6.33,3.16c-1.85,1.85-2.51,4.12-3.16,6.33c-0.66,2.24-1.33,4.55-3.23,6.44
			C70.23,53.94,68.56,54.64,67.27,55.09z"/>
	</g>
	<g>
		<path class="st0" d="M53.78,70.09l-0.22-0.14c0.96-1.49,1.46-3.18,1.94-4.81c0.65-2.24,1.33-4.55,3.23-6.44
			c0.61-0.61,1.29-1.13,2.08-1.57l0.13,0.23c-0.77,0.43-1.43,0.93-2.02,1.53c-1.85,1.85-2.51,4.13-3.16,6.33
			C55.26,66.86,54.76,68.56,53.78,70.09z"/>
	</g>
	<g>
		<path class="st0" d="M67.3,54.29l-0.09-0.25c1.55-0.6,2.73-1.33,3.71-2.31c1.85-1.85,2.51-4.12,3.16-6.33
			c0.66-2.24,1.33-4.55,3.23-6.44c1.89-1.89,4.21-2.57,6.44-3.23c2.14-0.63,4.35-1.27,6.16-3l0.18,0.19
			c-1.86,1.77-4.1,2.43-6.27,3.06c-2.2,0.65-4.48,1.31-6.33,3.16c-1.85,1.85-2.51,4.12-3.16,6.33c-0.65,2.24-1.33,4.55-3.23,6.44
			C70.09,52.93,68.88,53.68,67.3,54.29z"/>
	</g>
	<g>
		<path class="st0" d="M53.14,69.61l-0.22-0.15c1.01-1.52,1.51-3.24,2-4.91c0.66-2.24,1.33-4.55,3.23-6.44
			c0.92-0.92,1.98-1.61,3.34-2.19l0.1,0.24c-1.33,0.56-2.37,1.24-3.26,2.13c-1.85,1.85-2.51,4.12-3.16,6.33
			C54.68,66.32,54.17,68.06,53.14,69.61z"/>
	</g>
	<g>
		<path class="st0" d="M66.69,53.73l-0.09-0.25c1.57-0.6,2.76-1.34,3.74-2.33c1.85-1.85,2.51-4.12,3.16-6.33
			c0.65-2.24,1.33-4.55,3.23-6.44c1.89-1.89,4.21-2.57,6.44-3.23c1.91-0.56,3.88-1.14,5.56-2.48l0.16,0.21
			c-1.72,1.37-3.72,1.96-5.65,2.52c-2.2,0.65-4.48,1.31-6.33,3.16c-1.85,1.85-2.51,4.12-3.16,6.33c-0.66,2.24-1.33,4.55-3.23,6.44
			C69.51,52.36,68.29,53.12,66.69,53.73z"/>
	</g>
	<g>
		<path class="st0" d="M52.1,69.68l-0.21-0.16c1.32-1.68,1.9-3.64,2.45-5.54c0.66-2.24,1.33-4.55,3.23-6.44
			c0.74-0.74,1.6-1.35,2.62-1.86l0.12,0.24c-0.99,0.49-1.82,1.08-2.55,1.81c-1.85,1.85-2.51,4.13-3.16,6.33
			C54.03,65.98,53.45,67.97,52.1,69.68z"/>
	</g>
	<g>
		<path class="st0" d="M66.13,53.15l-0.09-0.25c1.56-0.6,2.74-1.34,3.73-2.32c1.85-1.85,2.51-4.13,3.16-6.33
			c0.65-2.24,1.33-4.55,3.23-6.44c1.89-1.89,4.21-2.57,6.44-3.23c1.91-0.56,3.89-1.14,5.57-2.48l0.16,0.21
			c-1.73,1.38-3.73,1.96-5.67,2.53c-2.2,0.65-4.48,1.31-6.33,3.16c-1.85,1.85-2.51,4.12-3.16,6.33c-0.66,2.24-1.33,4.55-3.23,6.44
			C68.94,51.78,67.72,52.54,66.13,53.15z"/>
	</g>
	<g>
		<path class="st0" d="M51.53,69.1l-0.21-0.16c1.32-1.67,1.89-3.63,2.44-5.52c0.65-2.24,1.33-4.55,3.23-6.44
			c1.68-1.68,3.7-2.4,5.46-2.94l0.08,0.25c-1.73,0.53-3.71,1.23-5.35,2.87c-1.85,1.85-2.51,4.13-3.16,6.33
			C53.46,65.4,52.88,67.38,51.53,69.1z"/>
	</g>
	<g>
		<path class="st0" d="M65.61,52.56l-0.1-0.25c1.53-0.59,2.7-1.33,3.68-2.3c1.85-1.85,2.51-4.12,3.16-6.33
			c0.65-2.24,1.33-4.55,3.23-6.44c1.89-1.89,4.21-2.57,6.44-3.23c1.71-0.5,3.47-1.02,5.02-2.08l0.15,0.22
			c-1.58,1.08-3.37,1.61-5.1,2.11c-2.2,0.65-4.48,1.31-6.33,3.16c-1.85,1.85-2.51,4.12-3.16,6.33c-0.65,2.24-1.33,4.55-3.23,6.44
			C68.37,51.2,67.18,51.95,65.61,52.56z"/>
	</g>
	<g>
		<path class="st0" d="M51.44,67.86l-0.22-0.14c0.99-1.51,1.49-3.22,1.98-4.88c0.65-2.24,1.33-4.55,3.23-6.44
			c1.89-1.89,4.2-2.57,6.44-3.23l0.52-0.15l0.08,0.25l-0.52,0.15c-2.2,0.65-4.48,1.31-6.33,3.16c-1.85,1.85-2.51,4.12-3.16,6.33
			C52.96,64.58,52.45,66.31,51.44,67.86z"/>
	</g>
	<g>
		<path class="st0" d="M85.38,32.31l-0.12-0.24c0.46-0.23,0.88-0.48,1.28-0.76l0.15,0.22C86.28,31.81,85.85,32.07,85.38,32.31z"/>
	</g>
	<g>
		<path class="st0" d="M64.4,52.21l-0.09-0.25c1.26-0.44,2.89-1.12,4.3-2.53c1.85-1.85,2.51-4.12,3.16-6.33
			c0.65-2.24,1.33-4.55,3.23-6.44c1.89-1.89,4.21-2.57,6.44-3.23c1.04-0.31,2.12-0.62,3.14-1.06l0.1,0.24
			c-1.03,0.44-2.12,0.76-3.17,1.07c-2.2,0.65-4.48,1.31-6.33,3.16c-1.85,1.85-2.51,4.12-3.16,6.33c-0.66,2.24-1.33,4.55-3.23,6.44
			C67.36,51.07,65.69,51.76,64.4,52.21z"/>
	</g>
	<g>
		<path class="st0" d="M50.91,67.21l-0.22-0.14c0.96-1.49,1.46-3.18,1.93-4.81c0.66-2.24,1.33-4.55,3.23-6.44
			c1.89-1.89,4.21-2.57,6.44-3.23l0.6-0.18l0.07,0.25l-0.6,0.18c-2.2,0.65-4.48,1.31-6.33,3.16c-1.85,1.85-2.51,4.12-3.16,6.33
			C52.39,63.98,51.89,65.68,50.91,67.21z"/>
	</g>
	<g>
		<path class="st0" d="M85.56,31.31l-0.14-0.23c0.66-0.4,1.24-0.85,1.77-1.38l0.04-0.04l0.11,0.08l0.09,0.09l-0.05,0.05
			C86.84,30.44,86.24,30.9,85.56,31.31z"/>
	</g>
	<g>
		<path class="st0" d="M50.39,66.54l-0.22-0.14c0.92-1.47,1.41-3.12,1.87-4.72c0.65-2.24,1.33-4.55,3.23-6.44
			c1.89-1.89,4.21-2.57,6.44-3.23c2.2-0.65,4.48-1.31,6.33-3.16c1.85-1.85,2.51-4.13,3.16-6.33c0.65-2.24,1.33-4.55,3.23-6.44
			c1.89-1.89,4.21-2.57,6.44-3.23c0.61-0.18,1.24-0.36,1.85-0.57l0.08,0.25c-0.61,0.21-1.25,0.39-1.86,0.57
			c-2.2,0.65-4.48,1.31-6.33,3.16c-1.85,1.85-2.51,4.12-3.16,6.33c-0.66,2.24-1.33,4.55-3.23,6.44c-1.89,1.89-4.2,2.57-6.44,3.23
			c-2.2,0.65-4.48,1.31-6.33,3.16c-1.85,1.85-2.51,4.13-3.16,6.33C51.83,63.37,51.34,65.04,50.39,66.54z"/>
	</g>
	<g>
		<path class="st0" d="M85.1,30.67l-0.14-0.22c0.43-0.26,0.83-0.56,1.19-0.88l0.17,0.2C85.95,30.1,85.53,30.4,85.1,30.67z"/>
	</g>
	<g>
		<path class="st0" d="M57.78,52.89l-0.11-0.24c1.12-0.51,2.31-0.86,3.47-1.2c2.2-0.65,4.48-1.31,6.33-3.16
			c1.85-1.85,2.51-4.12,3.16-6.33c0.65-2.24,1.33-4.55,3.23-6.44c1.89-1.89,4.21-2.57,6.44-3.23c0.88-0.26,1.79-0.53,2.67-0.86
			l0.1,0.25c-0.88,0.34-1.8,0.61-2.69,0.87c-2.2,0.65-4.48,1.31-6.33,3.16c-1.85,1.85-2.51,4.12-3.16,6.33
			c-0.66,2.24-1.33,4.55-3.23,6.44c-1.89,1.89-4.21,2.57-6.44,3.23C60.07,52.03,58.88,52.38,57.78,52.89z"/>
	</g>
	<g>
		<path class="st0" d="M50.26,65.2l-0.23-0.12c0.65-1.26,1.06-2.64,1.45-3.97c0.65-2.24,1.33-4.55,3.23-6.44
			c0.67-0.67,1.42-1.22,2.29-1.69l0.12,0.23c-0.85,0.46-1.58,1-2.23,1.64c-1.85,1.85-2.51,4.12-3.16,6.33
			C51.33,62.53,50.92,63.91,50.26,65.2z"/>
	</g>
	<g>
		<path class="st0" d="M84.64,30.02l-0.14-0.22c0.21-0.13,0.41-0.28,0.61-0.42l0.16,0.21C85.06,29.74,84.85,29.89,84.64,30.02z"/>
	</g>
	<g>
		<path class="st0" d="M57.33,52.26l-0.11-0.24c1.09-0.48,2.23-0.82,3.34-1.14c2.2-0.65,4.48-1.31,6.33-3.16
			c1.85-1.85,2.51-4.12,3.16-6.33c0.65-2.24,1.33-4.55,3.23-6.44c1.89-1.89,4.2-2.57,6.44-3.23c0.92-0.27,1.88-0.55,2.79-0.91
			l0.1,0.24c-0.92,0.37-1.88,0.65-2.81,0.92c-2.2,0.65-4.48,1.31-6.33,3.16c-1.85,1.85-2.51,4.12-3.16,6.33
			c-0.66,2.24-1.33,4.55-3.23,6.44c-1.89,1.89-4.21,2.57-6.44,3.23C59.53,51.45,58.39,51.78,57.33,52.26z"/>
	</g>
	<g>
		<path class="st0" d="M50.6,62.4l-0.25-0.08c0.2-0.59,0.37-1.19,0.54-1.78c0.65-2.24,1.33-4.55,3.23-6.44
			c0.7-0.7,1.48-1.27,2.41-1.75l0.12,0.23c-0.9,0.47-1.67,1.03-2.35,1.7c-1.85,1.85-2.51,4.13-3.16,6.33
			C50.98,61.2,50.8,61.81,50.6,62.4z"/>
	</g>
	<g>
		<path class="st0" d="M50.07,63.81l-0.24-0.1c0.1-0.23,0.19-0.46,0.28-0.69l0.25,0.09C50.26,63.35,50.17,63.58,50.07,63.81z"/>
	</g>
	<g>
		<path class="st0" d="M50.07,61.69l-0.25-0.08c0.18-0.54,0.34-1.1,0.5-1.64c0.65-2.24,1.33-4.55,3.23-6.44
			c1.89-1.89,4.2-2.57,6.44-3.23c2.2-0.65,4.48-1.31,6.33-3.16c1.85-1.85,2.51-4.13,3.16-6.33c0.65-2.24,1.33-4.55,3.23-6.44
			c1.89-1.89,4.2-2.57,6.44-3.23c0.27-0.08,0.53-0.16,0.8-0.24l0.08,0.25c-0.27,0.08-0.53,0.16-0.8,0.24
			c-2.2,0.65-4.48,1.31-6.33,3.16c-1.85,1.85-2.51,4.12-3.16,6.33c-0.66,2.24-1.33,4.55-3.23,6.44c-1.89,1.89-4.21,2.57-6.44,3.23
			c-2.2,0.65-4.48,1.31-6.33,3.16c-1.85,1.85-2.51,4.13-3.16,6.33C50.42,60.58,50.25,61.14,50.07,61.69z"/>
	</g>
	<g>
		<path class="st0" d="M49.77,60.25l-0.25-0.08c0.08-0.26,0.16-0.52,0.23-0.79c0.66-2.23,1.33-4.55,3.23-6.44
			c1.89-1.89,4.2-2.57,6.44-3.23c2.2-0.65,4.48-1.31,6.33-3.16c1.85-1.85,2.51-4.12,3.16-6.33c0.65-2.24,1.33-4.55,3.23-6.44
			c1.89-1.89,4.21-2.57,6.44-3.23l0.22-0.06l0.07,0.25l-0.22,0.06c-2.2,0.65-4.48,1.31-6.33,3.16c-1.85,1.85-2.51,4.12-3.16,6.33
			c-0.66,2.24-1.33,4.55-3.23,6.44c-1.89,1.89-4.2,2.57-6.44,3.23c-2.2,0.65-4.48,1.31-6.33,3.16c-1.85,1.85-2.51,4.12-3.16,6.33
			C49.92,59.72,49.85,59.99,49.77,60.25z"/>
	</g>
	<g>
		<path class="st0" d="M49.45,58.81l-0.25-0.07c0.64-2.2,1.31-4.47,3.2-6.36c1.89-1.89,4.2-2.57,6.44-3.23
			c2.2-0.65,4.48-1.31,6.33-3.16c1.85-1.85,2.51-4.12,3.16-6.33c0.65-2.24,1.33-4.55,3.23-6.44c1.74-1.74,3.79-2.44,6.08-3.12
			l0.07,0.25c-2.26,0.67-4.27,1.36-5.97,3.05c-1.85,1.85-2.51,4.12-3.16,6.33c-0.66,2.24-1.33,4.55-3.23,6.44
			c-1.89,1.89-4.2,2.57-6.44,3.23c-2.2,0.65-4.48,1.31-6.33,3.16C50.74,54.4,50.08,56.64,49.45,58.81z"/>
	</g>
	<g>
		<path class="st0" d="M56.27,49.47l-0.09-0.25c0.69-0.24,1.4-0.45,2.08-0.65c2.2-0.65,4.48-1.31,6.33-3.16
			c1.85-1.85,2.51-4.13,3.16-6.33c0.65-2.24,1.33-4.55,3.23-6.44c1.89-1.89,4.21-2.57,6.44-3.23c0.41-0.12,0.82-0.24,1.23-0.37
			l0.08,0.25c-0.41,0.13-0.82,0.25-1.23,0.37c-2.2,0.65-4.48,1.31-6.33,3.16c-1.85,1.85-2.51,4.12-3.16,6.33
			c-0.66,2.24-1.33,4.55-3.23,6.44c-1.89,1.89-4.2,2.57-6.44,3.23C57.66,49.02,56.95,49.23,56.27,49.47z"/>
	</g>
	<g>
		<path class="st0" d="M48.92,58.09l-0.25-0.07c0.59-2.03,1.27-4.32,3.16-6.21c0.82-0.82,1.79-1.48,2.95-2.02l0.11,0.24
			c-1.14,0.52-2.08,1.16-2.88,1.96C50.17,53.83,49.5,56.09,48.92,58.09z"/>
	</g>
	<g>
		<path class="st0" d="M61.55,46.9l-0.12-0.24c1.01-0.5,1.85-1.09,2.59-1.83c1.85-1.85,2.51-4.12,3.16-6.33
			c0.66-2.24,1.33-4.55,3.23-6.44c1.89-1.89,4.21-2.57,6.44-3.23c0.46-0.13,0.92-0.27,1.38-0.41l0.08,0.25
			c-0.46,0.15-0.92,0.28-1.38,0.42c-2.2,0.65-4.48,1.31-6.33,3.16c-1.85,1.85-2.51,4.12-3.16,6.33c-0.66,2.24-1.33,4.55-3.23,6.44
			C63.45,45.78,62.58,46.39,61.55,46.9z"/>
	</g>
	<g>
		<path class="st0" d="M55.84,48.84l-0.08-0.25c0.64-0.22,1.3-0.41,1.93-0.6c1.02-0.3,2.07-0.61,3.06-1.03l0.1,0.24
			c-1.01,0.43-2.07,0.74-3.09,1.04C57.13,48.44,56.48,48.63,55.84,48.84z"/>
	</g>
	<g>
		<path class="st0" d="M48.17,58.09l-0.25-0.07l0.1-0.35c0.65-2.23,1.33-4.55,3.23-6.44c0.69-0.7,1.48-1.27,2.41-1.75l0.12,0.23
			c-0.9,0.47-1.67,1.03-2.35,1.7c-1.85,1.85-2.51,4.12-3.16,6.33L48.17,58.09z"/>
	</g>
	<g>
		
			<rect x="28.74" y="76.96" transform="matrix(0.2845 -0.9587 0.9587 0.2845 -53.2076 82.8915)" class="st0" width="0.38" height="0.26"/>
	</g>
	<g>
		<path class="st0" d="M54.01,48.75l-0.1-0.24c1.04-0.45,2.14-0.77,3.21-1.08c2.2-0.65,4.48-1.31,6.33-3.16
			c1.85-1.85,2.51-4.12,3.16-6.33c0.65-2.24,1.33-4.55,3.23-6.44c1.89-1.89,4.21-2.57,6.44-3.23c0.27-0.08,0.54-0.16,0.8-0.24
			l0.08,0.25c-0.27,0.08-0.54,0.16-0.81,0.24c-2.2,0.65-4.48,1.31-6.33,3.16c-1.85,1.85-2.51,4.12-3.16,6.33
			c-0.66,2.24-1.33,4.55-3.23,6.44c-1.89,1.89-4.21,2.57-6.44,3.23C56.13,47.99,55.04,48.31,54.01,48.75z"/>
	</g>
	<g>
		<path class="st0" d="M47.43,58.09l-0.25-0.08c0.09-0.31,0.18-0.61,0.27-0.92c0.65-2.24,1.33-4.55,3.23-6.44
			c0.56-0.56,1.17-1.04,1.88-1.46l0.13,0.23c-0.69,0.41-1.28,0.87-1.83,1.42c-1.85,1.85-2.51,4.12-3.16,6.33
			C47.61,57.47,47.52,57.78,47.43,58.09z"/>
	</g>
	<g>
		<path class="st0" d="M28.25,77.31L28,77.23c0.1-0.33,0.2-0.66,0.29-0.98l0.03-0.1l0.25,0.07l-0.03,0.1
			C28.45,76.65,28.35,76.98,28.25,77.31z"/>
	</g>
	<g>
		<path class="st0" d="M74.56,28.31l-0.08-0.25c0.4-0.13,0.81-0.24,1.22-0.36l0.23-0.07L76,27.88l-0.23,0.07
			C75.36,28.07,74.96,28.18,74.56,28.31z"/>
	</g>
	<g>
		<path class="st0" d="M60.67,45.61l-0.12-0.23c0.89-0.47,1.65-1.02,2.32-1.69c1.85-1.85,2.51-4.13,3.16-6.33
			c0.65-2.24,1.33-4.55,3.23-6.44c1.47-1.47,3.18-2.17,4.51-2.63l0.09,0.25c-1.38,0.47-2.99,1.15-4.41,2.56
			c-1.85,1.85-2.51,4.12-3.16,6.33c-0.66,2.24-1.33,4.55-3.23,6.44C62.37,44.56,61.59,45.13,60.67,45.61z"/>
	</g>
	<g>
		<path class="st0" d="M54.27,47.84l-0.09-0.25c0.78-0.28,1.58-0.52,2.36-0.75c1.11-0.33,2.26-0.66,3.34-1.14l0.11,0.24
			c-1.09,0.49-2.25,0.83-3.37,1.16C55.84,47.33,55.04,47.56,54.27,47.84z"/>
	</g>
	<g>
		<path class="st0" d="M46.67,58.09l-0.25-0.08c0.16-0.49,0.31-0.99,0.45-1.49c0.66-2.24,1.33-4.55,3.23-6.44
			c0.24-0.24,0.49-0.46,0.75-0.68l0.17,0.21c-0.25,0.2-0.5,0.42-0.73,0.66c-1.85,1.85-2.51,4.13-3.16,6.33
			C46.98,57.09,46.83,57.59,46.67,58.09z"/>
	</g>
	<g>
		<path class="st0" d="M29.31,72l-0.24-0.12c0.51-1.03,1.12-1.9,1.87-2.65c0.66-0.66,1.41-1.21,2.28-1.68l0.13,0.23
			c-0.85,0.46-1.57,0.99-2.22,1.64C30.4,70.15,29.8,70.99,29.31,72z"/>
	</g>
	<g>
		<path class="st0" d="M28.48,74.07l-0.25-0.08c0.08-0.24,0.16-0.48,0.25-0.71l0.25,0.09C28.64,73.6,28.56,73.84,28.48,74.07z"/>
	</g>
	<g>
		<path class="st0" d="M27.5,77.31l-0.25-0.08c0.17-0.52,0.32-1.05,0.47-1.56l0.07-0.24l0.25,0.07l-0.07,0.24
			C27.82,76.26,27.67,76.79,27.5,77.31z"/>
	</g>
	<g>
		<path class="st0" d="M74.84,27.48l-0.07-0.25l0.34-0.1c0.37-0.11,0.73-0.21,1.1-0.33l0.08,0.25c-0.37,0.11-0.73,0.22-1.1,0.33
			L74.84,27.48z"/>
	</g>
	<g>
		<path class="st0" d="M68.92,30.47l-0.18-0.19c0.18-0.18,0.37-0.35,0.57-0.51l0.17,0.2C69.29,30.13,69.1,30.3,68.92,30.47z"/>
	</g>
	<g>
		<path class="st0" d="M60.88,44.58l-0.14-0.22c0.57-0.37,1.08-0.77,1.55-1.25c1.85-1.85,2.51-4.12,3.16-6.33
			c0.6-2.04,1.22-4.15,2.76-5.94l0.2,0.17c-1.51,1.75-2.12,3.83-2.71,5.84c-0.65,2.24-1.33,4.55-3.23,6.44
			C61.99,43.79,61.47,44.21,60.88,44.58z"/>
	</g>
	<g>
		<path class="st0" d="M58.14,45.87l-0.09-0.25c0.79-0.28,1.46-0.57,2.05-0.89l0.13,0.23C59.62,45.3,58.94,45.59,58.14,45.87z"/>
	</g>
	<g>
		<path class="st0" d="M53.83,47.22l-0.09-0.25c0.73-0.26,1.49-0.48,2.22-0.7c0.46-0.13,0.92-0.27,1.37-0.41l0.08,0.25
			c-0.46,0.15-0.92,0.28-1.38,0.42C55.31,46.74,54.56,46.96,53.83,47.22z"/>
	</g>
	<g>
		<path class="st0" d="M52.45,47.79l-0.11-0.24c0.23-0.11,0.46-0.21,0.7-0.31l0.1,0.24C52.91,47.58,52.68,47.68,52.45,47.79z"/>
	</g>
	<g>
		<path class="st0" d="M45.9,58.09l-0.25-0.09c0.24-0.68,0.44-1.38,0.64-2.07c0.65-2.24,1.33-4.55,3.23-6.44
			c0.09-0.09,0.19-0.19,0.29-0.27l0.18,0.19c-0.09,0.09-0.19,0.17-0.28,0.27c-1.85,1.85-2.51,4.13-3.16,6.33
			C46.35,56.7,46.14,57.41,45.9,58.09z"/>
	</g>
	<g>
		<path class="st0" d="M34.26,66.53l-0.09-0.25c0.24-0.09,0.47-0.18,0.71-0.26l0.09,0.25C34.73,66.35,34.49,66.44,34.26,66.53z"/>
	</g>
	<g>
		<path class="st0" d="M26.85,76.96l-0.25-0.08c0.2-0.59,0.37-1.19,0.55-1.78c0.65-2.24,1.33-4.55,3.23-6.44
			c0.85-0.85,1.86-1.53,3.09-2.08l0.11,0.24c-1.2,0.53-2.19,1.2-3.01,2.03c-1.85,1.85-2.51,4.12-3.16,6.33
			C27.23,75.76,27.05,76.36,26.85,76.96z"/>
	</g>
	<g>
		<path class="st0" d="M74.4,26.86l-0.07-0.25l0.23-0.07c0.41-0.12,0.81-0.24,1.21-0.36l0.08,0.25c-0.4,0.13-0.81,0.25-1.22,0.36
			L74.4,26.86z"/>
	</g>
	<g>
		<path class="st0" d="M57.7,45.25L57.61,45c1.78-0.64,3.05-1.4,4.11-2.46c1.85-1.85,2.51-4.12,3.16-6.33
			c0.48-1.63,0.97-3.32,1.94-4.83l0.22,0.14c-0.94,1.48-1.43,3.15-1.91,4.76c-0.65,2.24-1.33,4.55-3.23,6.44
			C60.81,43.82,59.51,44.6,57.7,45.25z"/>
	</g>
	<g>
		<path class="st0" d="M52,47.15l-0.11-0.24c0.94-0.43,1.92-0.75,2.85-1.02l0.07,0.25C53.9,46.42,52.93,46.73,52,47.15z"/>
	</g>
	<g>
		<path class="st0" d="M45.12,58.1L44.87,58c0.33-0.86,0.6-1.76,0.85-2.64c0.65-2.24,1.33-4.55,3.23-6.44
			c0.66-0.66,1.4-1.21,2.26-1.67l0.13,0.23c-0.84,0.45-1.56,0.99-2.2,1.63c-1.85,1.85-2.51,4.13-3.16,6.33
			C45.72,56.32,45.45,57.23,45.12,58.1z"/>
	</g>
	<g>
		<path class="st0" d="M26.32,76.25l-0.25-0.08c0.18-0.54,0.34-1.11,0.5-1.65c0.65-2.24,1.33-4.55,3.23-6.44
			c1.74-1.74,3.78-2.44,6.08-3.12l0.07,0.25c-2.26,0.67-4.27,1.36-5.97,3.05c-1.85,1.85-2.51,4.13-3.16,6.33
			C26.66,75.14,26.5,75.7,26.32,76.25z"/>
	</g>
	<g>
		<path class="st0" d="M73.23,26.47l-0.08-0.25c0.27-0.08,0.54-0.16,0.82-0.24l0.63-0.18l0.08,0.25l-0.63,0.18
			C73.77,26.3,73.5,26.38,73.23,26.47z"/>
	</g>
	<g>
		<path class="st0" d="M55.81,45.11l-0.08-0.25c1.75-0.53,3.76-1.24,5.41-2.89c1.85-1.85,2.51-4.13,3.16-6.33
			c0.56-1.9,1.13-3.86,2.45-5.56l0.21,0.16c-1.29,1.66-1.86,3.6-2.41,5.48c-0.65,2.24-1.33,4.55-3.23,6.44
			C59.64,43.84,57.59,44.56,55.81,45.11z"/>
	</g>
	<g>
		<path class="st0" d="M50.88,46.85l-0.12-0.23c1.3-0.68,2.71-1.09,4.06-1.49l0.19-0.06l0.07,0.25l-0.19,0.06
			C53.55,45.77,52.15,46.18,50.88,46.85z"/>
	</g>
	<g>
		<path class="st0" d="M44.31,58.1L44.06,58c0.45-1.04,0.77-2.14,1.09-3.21c0.65-2.24,1.33-4.55,3.23-6.44
			c0.34-0.34,0.7-0.65,1.09-0.93l0.16,0.21c-0.37,0.27-0.73,0.58-1.06,0.9c-1.85,1.85-2.51,4.12-3.16,6.33
			C45.09,55.94,44.76,57.05,44.31,58.1z"/>
	</g>
	<g>
		<path class="st0" d="M25.79,75.55l-0.25-0.08c0.16-0.5,0.31-1.02,0.46-1.52c0.65-2.24,1.33-4.55,3.23-6.44
			c1.89-1.89,4.2-2.57,6.44-3.23l0.49-0.14l0.07,0.25l-0.49,0.14c-2.2,0.65-4.48,1.31-6.33,3.16c-1.85,1.85-2.51,4.13-3.16,6.33
			C26.1,74.52,25.95,75.04,25.79,75.55z"/>
	</g>
	<g>
		<path class="st0" d="M72.05,26.08l-0.08-0.25c0.48-0.15,0.96-0.29,1.43-0.43c0.24-0.07,0.49-0.14,0.73-0.22l0.08,0.25
			c-0.24,0.07-0.49,0.14-0.73,0.22C73,25.79,72.52,25.93,72.05,26.08z"/>
	</g>
	<g>
		<path class="st0" d="M51.77,45.62l-0.09-0.25c0.84-0.32,1.72-0.58,2.57-0.83c2.2-0.65,4.48-1.31,6.33-3.16
			c1.85-1.85,2.51-4.12,3.16-6.33c0.22-0.77,0.46-1.56,0.73-2.32l0.25,0.09c-0.28,0.76-0.51,1.54-0.73,2.31
			c-0.65,2.24-1.33,4.55-3.23,6.44c-1.89,1.89-4.21,2.57-6.44,3.23C53.47,45.05,52.6,45.31,51.77,45.62z"/>
	</g>
	<g>
		<path class="st0" d="M50.4,46.22l-0.12-0.23c0.22-0.11,0.45-0.22,0.69-0.33l0.11,0.24C50.84,46.01,50.62,46.11,50.4,46.22z"/>
	</g>
	<g>
		<path class="st0" d="M49.14,46.99l-0.15-0.21c0.2-0.14,0.42-0.29,0.64-0.42l0.14,0.23C49.54,46.71,49.33,46.85,49.14,46.99z"/>
	</g>
	<g>
		<path class="st0" d="M43.46,58.11l-0.24-0.12c0.6-1.21,0.98-2.51,1.35-3.78c0.65-2.24,1.33-4.55,3.23-6.44l0.11,0.08l0.09,0.1
			c-1.86,1.86-2.53,4.14-3.17,6.34C44.46,55.56,44.07,56.88,43.46,58.11z"/>
	</g>
	<g>
		<path class="st0" d="M25.68,73.42l-0.25-0.07c0.65-2.22,1.32-4.52,3.22-6.42c1.89-1.89,4.21-2.57,6.44-3.23
			c0.44-0.13,0.88-0.26,1.32-0.4l0.08,0.25c-0.44,0.14-0.88,0.27-1.32,0.4c-2.2,0.65-4.48,1.31-6.33,3.16
			C26.99,68.96,26.32,71.23,25.68,73.42z"/>
	</g>
	<g>
		<path class="st0" d="M71.57,25.47l-0.08-0.25c0.44-0.14,0.89-0.27,1.33-0.4c0.28-0.08,0.56-0.16,0.83-0.25l0.08,0.25
			c-0.28,0.08-0.56,0.17-0.84,0.25C72.45,25.2,72.01,25.33,71.57,25.47z"/>
	</g>
	<g>
		<path class="st0" d="M49.27,45.96l-0.13-0.23c1.43-0.85,3.01-1.31,4.54-1.76c2.2-0.65,4.48-1.31,6.33-3.16
			c1.85-1.85,2.51-4.13,3.16-6.33c0.16-0.56,0.33-1.14,0.52-1.7l0.25,0.08c-0.18,0.56-0.35,1.14-0.52,1.69
			c-0.65,2.24-1.33,4.55-3.23,6.44c-1.89,1.89-4.21,2.57-6.44,3.23C52.23,44.67,50.67,45.13,49.27,45.96z"/>
	</g>
	<g>
		<path class="st0" d="M42.93,57.45l-0.24-0.12c0.57-1.18,0.95-2.46,1.31-3.69c0.6-2.05,1.22-4.17,2.79-5.97l0.2,0.17
			c-1.53,1.75-2.14,3.85-2.73,5.87C43.89,54.96,43.51,56.24,42.93,57.45z"/>
	</g>
	<g>
		<path class="st0" d="M26.38,69.23l-0.24-0.11c0.52-1.08,1.15-1.98,1.93-2.76c1.89-1.89,4.21-2.57,6.44-3.23
			c0.7-0.2,1.42-0.42,2.12-0.66l0.09,0.25c-0.7,0.25-1.43,0.46-2.13,0.67c-2.2,0.65-4.48,1.31-6.33,3.16
			C27.5,67.3,26.89,68.18,26.38,69.23z"/>
	</g>
	<g>
		
			<rect x="71.73" y="24.29" transform="matrix(0.9588 -0.2842 0.2842 0.9588 -3.9685 21.499)" class="st0" width="0.75" height="0.26"/>
	</g>
	<g>
		<path class="st0" d="M65.42,28.29l-0.2-0.17c0.17-0.2,0.35-0.4,0.53-0.59l0.19,0.18C65.76,27.9,65.58,28.09,65.42,28.29z"/>
	</g>
	<g>
		<path class="st0" d="M49.41,45l-0.12-0.24c1.22-0.6,2.53-0.99,3.8-1.36c2.2-0.65,4.48-1.31,6.33-3.16
			c1.85-1.85,2.51-4.13,3.16-6.33c0.17-0.58,0.35-1.18,0.54-1.77l0.25,0.08c-0.19,0.58-0.37,1.18-0.54,1.76
			c-0.66,2.24-1.33,4.55-3.23,6.44c-1.89,1.89-4.21,2.57-6.44,3.23C51.91,44.02,50.61,44.4,49.41,45z"/>
	</g>
	<g>
		<path class="st0" d="M42.7,56.11l-0.24-0.1c0.39-0.96,0.69-1.97,0.97-2.94c0.65-2.24,1.33-4.55,3.23-6.44
			c0.4-0.4,0.85-0.77,1.33-1.1l0.15,0.22c-0.46,0.32-0.9,0.68-1.29,1.07c-1.85,1.85-2.51,4.13-3.16,6.33
			C43.39,54.12,43.09,55.14,42.7,56.11z"/>
	</g>
	<g>
		<path class="st0" d="M26.58,67.3l-0.22-0.15c0.33-0.49,0.72-0.96,1.14-1.37c1.89-1.89,4.2-2.57,6.44-3.23
			c0.96-0.28,1.95-0.57,2.89-0.95l0.1,0.24c-0.95,0.39-1.95,0.68-2.91,0.96c-2.2,0.65-4.48,1.31-6.33,3.16
			C27.28,66.37,26.91,66.82,26.58,67.3z"/>
	</g>
	<g>
		<path class="st0" d="M63.34,30.22l-0.24-0.1c0.33-0.75,0.69-1.4,1.1-1.99l0.22,0.15C64.01,28.85,63.66,29.48,63.34,30.22z"/>
	</g>
	<g>
		<path class="st0" d="M62.58,32.33l-0.25-0.08c0.07-0.24,0.15-0.48,0.23-0.72l0.25,0.08C62.73,31.85,62.66,32.09,62.58,32.33z"/>
	</g>
	<g>
		<path class="st0" d="M45.02,47.79l-0.22-0.14c0.38-0.59,0.8-1.11,1.28-1.6c1.89-1.89,4.21-2.57,6.44-3.23
			c2.2-0.65,4.48-1.31,6.33-3.16c1.85-1.85,2.51-4.12,3.16-6.33l0.11-0.37l0.25,0.07l-0.11,0.37c-0.65,2.23-1.33,4.55-3.22,6.44
			c-1.89,1.89-4.21,2.57-6.44,3.23c-2.2,0.65-4.48,1.31-6.33,3.16C45.79,46.71,45.38,47.22,45.02,47.79z"/>
	</g>
	<g>
		<path class="st0" d="M42.14,55.5l-0.24-0.1c0.39-0.94,0.68-1.94,0.96-2.9c0.34-1.17,0.69-2.37,1.22-3.51l0.24,0.11
			c-0.51,1.12-0.87,2.31-1.2,3.47C42.82,53.54,42.53,54.54,42.14,55.5z"/>
	</g>
	<g>
		<path class="st0" d="M26.96,65.55l-0.19-0.18c0.05-0.05,0.1-0.11,0.16-0.16c1.89-1.89,4.21-2.57,6.44-3.23
			c1.2-0.35,2.45-0.72,3.61-1.27l0.11,0.24c-1.18,0.56-2.43,0.93-3.65,1.28c-2.2,0.65-4.48,1.31-6.33,3.16
			C27.06,65.44,27.01,65.5,26.96,65.55z"/>
	</g>
	<g>
		<path class="st0" d="M61.79,32.48l-0.25-0.07c0.43-1.47,0.89-2.89,1.67-4.21l0.23,0.13C62.66,29.62,62.22,31.03,61.79,32.48z"/>
	</g>
	<g>
		<path class="st0" d="M44.06,47.86l-0.23-0.13c0.47-0.86,1.01-1.6,1.67-2.26c1.89-1.89,4.2-2.57,6.44-3.23
			c2.2-0.65,4.48-1.31,6.33-3.16c1.7-1.7,2.39-3.71,3.05-5.97l0.25,0.07c-0.68,2.3-1.38,4.34-3.12,6.08
			c-1.89,1.89-4.2,2.57-6.44,3.23c-2.2,0.65-4.48,1.31-6.33,3.16C45.05,46.3,44.52,47.02,44.06,47.86z"/>
	</g>
	<g>
		<path class="st0" d="M42.07,53.5l-0.25-0.08c0.16-0.5,0.31-1.01,0.46-1.52l0.19-0.64l0.25,0.08l-0.19,0.64
			C42.38,52.49,42.23,53,42.07,53.5z"/>
	</g>
	<g>
		<path class="st0" d="M26.92,64.45l-0.17-0.2c1.81-1.61,3.96-2.24,6.04-2.85c0.97-0.28,1.97-0.58,2.92-0.97l0.1,0.24
			c-0.96,0.39-1.97,0.69-2.95,0.97C30.81,62.26,28.69,62.88,26.92,64.45z"/>
	</g>
	<g>
		<path class="st0" d="M61.89,29.83l-0.25-0.09c0.09-0.24,0.18-0.47,0.28-0.7l0.24,0.1C62.06,29.37,61.97,29.6,61.89,29.83z"/>
	</g>
	<g>
		<path class="st0" d="M61.2,31.97l-0.25-0.07c0.14-0.46,0.28-0.95,0.45-1.44l0.25,0.08C61.48,31.02,61.33,31.51,61.2,31.97z"/>
	</g>
	<g>
		<path class="st0" d="M46.37,44.04l-0.15-0.22c1.6-1.11,3.4-1.63,5.14-2.14c2.2-0.65,4.48-1.31,6.33-3.16
			c1.69-1.69,2.38-3.68,3.03-5.9l0.25,0.07c-0.67,2.26-1.36,4.28-3.1,6.01c-1.89,1.89-4.2,2.57-6.44,3.23
			C49.72,42.43,47.94,42.96,46.37,44.04z"/>
	</g>
	<g>
		<path class="st0" d="M44.25,46.09l-0.21-0.16c0.27-0.36,0.57-0.71,0.89-1.03l0.12-0.12l0.18,0.19l-0.11,0.11
			C44.8,45.4,44.51,45.74,44.25,46.09z"/>
	</g>
	<g>
		<path class="st0" d="M25.76,64.45l-0.19-0.18c0.07-0.07,0.14-0.14,0.21-0.21c1.89-1.89,4.2-2.57,6.44-3.23
			c0.95-0.28,1.93-0.56,2.86-0.94l0.1,0.24c-0.94,0.38-1.93,0.67-2.88,0.95c-2.2,0.65-4.48,1.31-6.33,3.16
			C25.89,64.31,25.83,64.38,25.76,64.45z"/>
	</g>
	<g>
		<path class="st0" d="M64.01,25.05l-0.18-0.2c0.37-0.34,0.78-0.65,1.21-0.93l0.14,0.22C64.77,24.42,64.38,24.73,64.01,25.05z"/>
	</g>
	<g>
		<path class="st0" d="M59.91,33.71l-0.25-0.09c0.08-0.24,0.16-0.47,0.23-0.71l0.25,0.08C60.07,33.23,59.99,33.47,59.91,33.71z"/>
	</g>
	<g>
		<path class="st0" d="M45.67,43.56l-0.15-0.21c1.63-1.17,3.48-1.71,5.28-2.24c2.2-0.65,4.48-1.31,6.33-3.16
			c0.96-0.96,1.69-2.11,2.28-3.62l0.25,0.1c-0.6,1.54-1.35,2.72-2.34,3.71c-1.89,1.89-4.21,2.57-6.44,3.23
			C49.1,41.87,47.26,42.41,45.67,43.56z"/>
	</g>
	<g>
		<path class="st0" d="M25.6,63.46l-0.18-0.19c1.85-1.73,4.07-2.38,6.22-3.01c0.66-0.19,1.35-0.39,2.01-0.62l0.09,0.25
			c-0.67,0.23-1.35,0.43-2.02,0.63C29.6,61.13,27.41,61.77,25.6,63.46z"/>
	</g>
	<g>
		<path class="st0" d="M62.24,25.8l-0.21-0.16c0.28-0.37,0.58-0.72,0.9-1.05c0.21-0.21,0.44-0.42,0.68-0.61l0.17,0.2
			c-0.23,0.19-0.45,0.39-0.66,0.6C62.8,25.1,62.51,25.44,62.24,25.8z"/>
	</g>
	<g>
		<path class="st0" d="M52.45,40.11l-0.09-0.25c1.22-0.43,2.8-1.11,4.19-2.49c1.05-1.05,1.8-2.3,2.43-4.04l0.25,0.09
			c-0.64,1.78-1.41,3.05-2.5,4.13C55.31,38.98,53.7,39.66,52.45,40.11z"/>
	</g>
	<g>
		<path class="st0" d="M48.14,41.45l-0.09-0.25c0.72-0.25,1.45-0.47,2.17-0.68c0.48-0.14,0.96-0.28,1.43-0.43l0.08,0.25
			c-0.48,0.15-0.96,0.29-1.44,0.43C49.59,40.99,48.85,41.2,48.14,41.45z"/>
	</g>
	<g>
		<path class="st0" d="M46.1,42.35l-0.13-0.23c0.42-0.23,0.87-0.44,1.37-0.65l0.1,0.24C46.95,41.92,46.51,42.12,46.1,42.35z"/>
	</g>
	<g>
		<path class="st0" d="M25.36,62.59l-0.17-0.2c1.77-1.5,3.86-2.12,5.88-2.71c0.8-0.23,1.63-0.48,2.43-0.77l0.09,0.25
			c-0.8,0.3-1.64,0.54-2.44,0.78C29.15,60.52,27.09,61.12,25.36,62.59z"/>
	</g>
	<g>
		<path class="st0" d="M61.8,25.05l-0.21-0.16c0.23-0.3,0.49-0.59,0.76-0.86c0.27-0.27,0.56-0.52,0.86-0.76l0.16,0.21
			c-0.29,0.23-0.57,0.47-0.83,0.74C62.28,24.48,62.03,24.76,61.8,25.05z"/>
	</g>
	<g>
		<path class="st0" d="M57.83,34.72L57.6,34.6c0.11-0.21,0.23-0.44,0.33-0.67l0.24,0.11C58.06,34.28,57.95,34.5,57.83,34.72z"/>
	</g>
	<g>
		<path class="st0" d="M53.49,38.86l-0.12-0.24c1.01-0.5,1.86-1.1,2.6-1.83c0.47-0.47,0.88-0.98,1.25-1.56l0.22,0.14
			c-0.38,0.59-0.8,1.12-1.28,1.6C55.4,37.74,54.53,38.35,53.49,38.86z"/>
	</g>
	<g>
		<path class="st0" d="M52.09,39.45L52,39.21c0.23-0.09,0.46-0.18,0.69-0.27l0.1,0.24C52.56,39.27,52.33,39.37,52.09,39.45z"/>
	</g>
	<g>
		<path class="st0" d="M50.66,39.93l-0.08-0.25c0.24-0.07,0.48-0.15,0.71-0.23l0.08,0.25C51.14,39.78,50.9,39.85,50.66,39.93z"/>
	</g>
	<g>
		
			<rect x="49.16" y="39.99" transform="matrix(0.9588 -0.2842 0.2842 0.9588 -9.3601 15.7317)" class="st0" width="0.75" height="0.26"/>
	</g>
	<g>
		<path class="st0" d="M45.08,42.04l-0.14-0.22c0.6-0.37,1.27-0.7,2.05-1l0.09,0.25C46.32,41.35,45.66,41.67,45.08,42.04z"/>
	</g>
	<g>
		<path class="st0" d="M24.96,61.87l-0.17-0.2c1.73-1.4,3.75-1.99,5.7-2.56c0.64-0.19,1.3-0.38,1.94-0.6l0.09,0.25
			c-0.64,0.22-1.31,0.41-1.95,0.6C28.64,59.92,26.65,60.51,24.96,61.87z"/>
	</g>
	<g>
		<path class="st0" d="M60.74,25.17l-0.22-0.14c0.14-0.21,0.28-0.42,0.44-0.62l0.21,0.16C61.01,24.76,60.87,24.96,60.74,25.17z"/>
	</g>
	<g>
		<path class="st0" d="M56.81,34.9l-0.22-0.14c0.26-0.4,0.5-0.83,0.72-1.3l0.24,0.11C57.32,34.05,57.08,34.49,56.81,34.9z"/>
	</g>
	<g>
		<path class="st0" d="M52.81,38.34L52.7,38.1c1.06-0.51,1.94-1.12,2.7-1.88c0.27-0.27,0.53-0.56,0.76-0.86l0.21,0.16
			c-0.24,0.31-0.5,0.61-0.78,0.89C54.8,37.19,53.9,37.82,52.81,38.34z"/>
	</g>
	<g>
		<path class="st0" d="M49.25,39.6l-0.07-0.25c0.77-0.23,1.46-0.43,2.14-0.68l0.09,0.25C50.72,39.17,50.03,39.37,49.25,39.6z"/>
	</g>
	<g>
		<path class="st0" d="M43.8,41.94l-0.16-0.21c0.93-0.69,1.97-1.22,3.38-1.71l0.09,0.25C45.72,40.75,44.7,41.26,43.8,41.94z"/>
	</g>
	<g>
		<path class="st0" d="M24.3,61.37l-0.17-0.2c1.75-1.45,3.8-2.05,5.79-2.63c0.84-0.25,1.71-0.5,2.53-0.81l0.09,0.25
			c-0.84,0.32-1.71,0.57-2.55,0.82C28.03,59.36,26.01,59.95,24.3,61.37z"/>
	</g>
	<g>
		<path class="st0" d="M59.93,24.98l-0.23-0.13c0.13-0.22,0.26-0.44,0.41-0.64l0.22,0.15C60.18,24.56,60.05,24.77,59.93,24.98z"/>
	</g>
	<g>
		<path class="st0" d="M48.96,38.94l-0.07-0.25c2.25-0.66,4.24-1.35,5.94-3.05c0.83-0.83,1.5-1.82,2.03-3.03l0.24,0.11
			c-0.55,1.23-1.23,2.25-2.09,3.11C53.27,37.57,51.24,38.27,48.96,38.94z"/>
	</g>
	<g>
		<path class="st0" d="M45.41,40.13l-0.1-0.24c0.23-0.1,0.47-0.19,0.7-0.28l0.09,0.25C45.86,39.93,45.63,40.03,45.41,40.13z"/>
	</g>
	<g>
		<path class="st0" d="M43.46,41.2l-0.15-0.22c0.41-0.29,0.83-0.54,1.31-0.78l0.12,0.24C44.27,40.67,43.85,40.92,43.46,41.2z"/>
	</g>
	<g>
		<path class="st0" d="M23.95,60.61l-0.16-0.21c1.7-1.32,3.66-1.89,5.56-2.45c0.69-0.2,1.41-0.41,2.1-0.66l0.09,0.25
			c-0.7,0.25-1.42,0.46-2.12,0.66C27.54,58.76,25.61,59.33,23.95,60.61z"/>
	</g>
	<g>
		<path class="st0" d="M58.82,25.45l-0.24-0.11c0.22-0.49,0.45-0.93,0.71-1.34l0.22,0.14C59.26,24.54,59.03,24.97,58.82,25.45z"/>
	</g>
	<g>
		<path class="st0" d="M48,38.48l-0.1-0.24l0.03-0.01c2.2-0.65,4.48-1.31,6.33-3.16c0.58-0.58,1.08-1.23,1.5-1.98l0.23,0.13
			c-0.44,0.77-0.94,1.43-1.55,2.04C52.54,37.15,50.23,37.83,48,38.48z"/>
	</g>
	<g>
		<path class="st0" d="M45.12,39.43l-0.1-0.24c0.42-0.17,0.89-0.34,1.43-0.51l0.08,0.25C46,39.1,45.54,39.26,45.12,39.43z"/>
	</g>
	<g>
		<path class="st0" d="M43.14,40.45L43,40.23c0.41-0.27,0.85-0.51,1.33-0.74l0.11,0.24C43.97,39.95,43.54,40.18,43.14,40.45z"/>
	</g>
	<g>
		<path class="st0" d="M24.24,59.44l-0.14-0.22c1.47-0.9,3.09-1.37,4.66-1.83c0.56-0.16,1.14-0.33,1.7-0.52l0.08,0.25
			c-0.56,0.19-1.14,0.36-1.71,0.52C27.29,58.09,25.68,58.56,24.24,59.44z"/>
	</g>
	<g>
		<path class="st0" d="M48.05,37.72l-0.07-0.25c2.05-0.61,4.02-1.3,5.7-2.97c0.73-0.73,1.33-1.57,1.82-2.58l0.24,0.12
			c-0.51,1.03-1.12,1.9-1.87,2.65C52.14,36.4,50.13,37.1,48.05,37.72z"/>
	</g>
	<g>
		<path class="st0" d="M44.49,38.88l-0.1-0.24c0.42-0.17,0.89-0.34,1.42-0.52l0.08,0.25C45.36,38.54,44.9,38.71,44.49,38.88z"/>
	</g>
	<g>
		<path class="st0" d="M24.92,58.21l-0.11-0.24c1.1-0.49,2.26-0.83,3.38-1.16c0.54-0.16,1.09-0.32,1.63-0.5l0.08,0.25
			c-0.54,0.18-1.1,0.34-1.64,0.5C27.15,57.39,26,57.72,24.92,58.21z"/>
	</g>
	<g>
		<path class="st0" d="M48.44,36.85l-0.08-0.25c1.51-0.49,3.26-1.2,4.74-2.68c0.63-0.63,1.15-1.33,1.6-2.15l0.23,0.13
			c-0.46,0.84-1,1.56-1.64,2.21C51.77,35.63,49.99,36.34,48.44,36.85z"/>
	</g>
	<g>
		<path class="st0" d="M24.58,57.53l-0.1-0.24c1.02-0.43,2.1-0.75,3.14-1.05c0.39-0.11,0.78-0.23,1.16-0.35l0.08,0.25
			c-0.39,0.12-0.78,0.23-1.17,0.35C26.66,56.79,25.59,57.1,24.58,57.53z"/>
	</g>
	<g>
		<path class="st0" d="M49.73,35.56l-0.11-0.24c1.15-0.53,2.1-1.17,2.91-1.98c0.56-0.57,1.04-1.19,1.46-1.9l0.23,0.13
			c-0.43,0.73-0.92,1.37-1.5,1.96C51.88,34.36,50.91,35.03,49.73,35.56z"/>
	</g>
	<g>
		<path class="st0" d="M25.85,56.29l-0.08-0.25c0.42-0.13,0.85-0.26,1.27-0.38c0.3-0.09,0.6-0.17,0.89-0.26l0.08,0.25
			c-0.3,0.09-0.6,0.18-0.9,0.27C26.7,56.04,26.27,56.16,25.85,56.29z"/>
	</g>
	<g>
		<path class="st0" d="M23.75,57.07l-0.11-0.24c0.43-0.19,0.89-0.37,1.41-0.55l0.09,0.25C24.63,56.7,24.17,56.88,23.75,57.07z"/>
	</g>
	<g>
		<path class="st0" d="M50.36,34.35l-0.14-0.22c0.64-0.39,1.21-0.84,1.73-1.35c0.36-0.36,0.68-0.74,0.98-1.16l0.21,0.15
			c-0.3,0.42-0.64,0.82-1.01,1.19C51.61,33.49,51.02,33.95,50.36,34.35z"/>
	</g>
	<g>
		<path class="st0" d="M26.58,55.33l-0.07-0.25c0.48-0.14,0.96-0.28,1.44-0.43l0.08,0.25C27.54,55.04,27.06,55.19,26.58,55.33z"/>
	</g>
	<g>
		<path class="st0" d="M23.04,56.55l-0.11-0.24c0.23-0.11,0.46-0.21,0.7-0.3l0.1,0.24C23.5,56.35,23.27,56.45,23.04,56.55z"/>
	</g>
	<g>
		<path class="st0" d="M25.54,54.89l-0.07-0.25l0.43-0.13c0.34-0.1,0.67-0.2,1.01-0.3l0.08,0.25c-0.34,0.1-0.67,0.2-1.01,0.3
			L25.54,54.89z"/>
	</g>
	<g>
		<path class="st0" d="M22.04,56.19l-0.12-0.23c0.42-0.22,0.88-0.42,1.39-0.61l0.09,0.25C22.91,55.78,22.46,55.97,22.04,56.19z"/>
	</g>
	<g>
		<path class="st0" d="M40.39,36.58l-0.13-0.23c0.78-0.42,1.64-0.78,2.8-1.15l0.08,0.25C42,35.82,41.15,36.17,40.39,36.58z"/>
	</g>
	<g>
		<path class="st0" d="M24.28,54.52l-0.08-0.25c0.24-0.07,0.48-0.15,0.72-0.22L25,54.3C24.76,54.38,24.52,54.45,24.28,54.52z"/>
	</g>
	<g>
		<path class="st0" d="M21.5,55.6l-0.12-0.23c0.61-0.31,1.28-0.59,2.1-0.86l0.08,0.25C22.76,55.02,22.1,55.29,21.5,55.6z"/>
	</g>
	<g>
		<path class="st0" d="M39.79,36.02l-0.13-0.23c1.07-0.58,2.18-0.97,3.52-1.37l0.08,0.25C41.94,35.07,40.84,35.45,39.79,36.02z"/>
	</g>
	<g>
		<path class="st0" d="M24.4,53.74l-0.07-0.25l0.43-0.13c0.34-0.1,0.68-0.2,1.01-0.3l0.08,0.25c-0.34,0.1-0.68,0.2-1.02,0.3
			L24.4,53.74z"/>
	</g>
	<g>
		<path class="st0" d="M20.91,55.03l-0.12-0.23c0.43-0.22,0.88-0.42,1.39-0.61l0.09,0.25C21.77,54.62,21.32,54.82,20.91,55.03z"/>
	</g>
	<g>
		<path class="st0" d="M39.17,35.47l-0.13-0.23c0.42-0.23,0.87-0.45,1.37-0.65l0.1,0.24C40.02,35.04,39.58,35.25,39.17,35.47z"/>
	</g>
	<g>
		<path class="st0" d="M23.77,53.18l-0.07-0.25l0.47-0.14c0.33-0.1,0.65-0.19,0.97-0.29l0.08,0.25c-0.32,0.1-0.65,0.19-0.98,0.29
			L23.77,53.18z"/>
	</g>
	<g>
		<path class="st0" d="M20.28,54.49l-0.12-0.23c0.99-0.51,2.02-0.86,2.82-1.11l0.08,0.25C22.27,53.64,21.25,53.98,20.28,54.49z"/>
	</g>
	<g>
		<path class="st0" d="M18.98,54.32l-0.14-0.22c0.41-0.26,0.85-0.49,1.34-0.71l0.11,0.24C19.82,53.84,19.39,54.07,18.98,54.32z"/>
	</g>
	<g>
		<path class="st0" d="M36.63,35.26l-0.17-0.2c0.39-0.31,0.81-0.6,1.26-0.86l0.13,0.23C37.41,34.67,37,34.95,36.63,35.26z"/>
	</g>
	<g>
		<path class="st0" d="M34.29,38.11l-0.23-0.12c0.47-0.87,1.02-1.61,1.68-2.28c0.05-0.05,0.1-0.1,0.15-0.15l0.18,0.19
			c-0.05,0.05-0.1,0.1-0.15,0.15C35.28,36.54,34.74,37.26,34.29,38.11z"/>
	</g>
	<g>
		<path class="st0" d="M23.88,51.66l-0.08-0.25c0.24-0.07,0.48-0.15,0.72-0.22l0.08,0.25C24.36,51.51,24.12,51.59,23.88,51.66z"/>
	</g>
	<g>
		<path class="st0" d="M17.71,54.23l-0.16-0.21c0.75-0.57,1.62-1.05,2.66-1.46l0.1,0.24C19.29,53.21,18.44,53.67,17.71,54.23z"/>
	</g>
	<g>
		<path class="st0" d="M33.65,37.64l-0.23-0.12c0.48-0.92,1.05-1.7,1.74-2.39c1.5-1.5,3.23-2.25,5.37-2.91l0.08,0.25
			c-2.1,0.64-3.79,1.37-5.26,2.84C34.68,35.99,34.12,36.75,33.65,37.64z"/>
	</g>
	<g>
		<path class="st0" d="M31.44,44.01l-0.25-0.09c0.15-0.41,0.3-0.86,0.47-1.42l0.25,0.08C31.74,43.14,31.59,43.6,31.44,44.01z"/>
	</g>
	<g>
		<path class="st0" d="M23.9,50.9l-0.08-0.25c0.24-0.08,0.47-0.15,0.71-0.24l0.09,0.25C24.38,50.74,24.14,50.82,23.9,50.9z"/>
	</g>
	<g>
		<path class="st0" d="M17.64,53.3l-0.14-0.22c0.6-0.39,1.26-0.74,2.02-1.05l0.1,0.24C18.87,52.58,18.22,52.91,17.64,53.3z"/>
	</g>
	<g>
		<path class="st0" d="M33.02,37.19l-0.23-0.12c0.49-0.97,1.08-1.79,1.8-2.51c1.73-1.73,3.81-2.45,5.96-3.08l0.08,0.25
			c-2.12,0.63-4.16,1.33-5.85,3.02C34.07,35.45,33.5,36.24,33.02,37.19z"/>
	</g>
	<g>
		<path class="st0" d="M30.82,43.57l-0.25-0.09c0.3-0.81,0.55-1.66,0.79-2.47l0.11-0.39l0.25,0.07l-0.11,0.39
			C31.37,41.9,31.12,42.75,30.82,43.57z"/>
	</g>
	<g>
		<path class="st0" d="M21.76,50.8l-0.07-0.25l0.19-0.05c0.88-0.26,1.8-0.53,2.67-0.86l0.1,0.25c-0.88,0.34-1.8,0.61-2.69,0.87
			L21.76,50.8z"/>
	</g>
	<g>
		<path class="st0" d="M20.32,51.24l-0.08-0.25c0.24-0.08,0.48-0.15,0.72-0.23l0.08,0.25C20.8,51.08,20.56,51.16,20.32,51.24z"/>
	</g>
	<g>
		<path class="st0" d="M16.95,52.8l-0.15-0.22c0.77-0.52,1.64-0.95,2.72-1.35l0.09,0.25C18.55,51.87,17.71,52.29,16.95,52.8z"/>
	</g>
	<g>
		<path class="st0" d="M32.38,36.74l-0.24-0.12c0.51-1.03,1.12-1.89,1.87-2.64c1.89-1.89,4.21-2.57,6.44-3.23l0.1-0.03l0.07,0.25
			l-0.1,0.03c-2.2,0.65-4.48,1.31-6.33,3.16C33.47,34.9,32.87,35.74,32.38,36.74z"/>
	</g>
	<g>
		<path class="st0" d="M30.45,42.41l-0.25-0.08c0.21-0.63,0.4-1.28,0.59-1.91l0.07-0.24l0.25,0.07l-0.07,0.24
			C30.85,41.13,30.66,41.78,30.45,42.41z"/>
	</g>
	<g>
		<path class="st0" d="M29.2,45.18l-0.22-0.14c0.25-0.41,0.47-0.84,0.69-1.32l0.24,0.11C29.68,44.32,29.45,44.76,29.2,45.18z"/>
	</g>
	<g>
		<path class="st0" d="M16.89,51.9l-0.13-0.23c1.44-0.85,3.02-1.31,4.54-1.76c1.53-0.45,3.12-0.91,4.54-1.77l0.14,0.23
			c-1.45,0.87-3.05,1.34-4.6,1.8C19.86,50.61,18.29,51.07,16.89,51.9z"/>
	</g>
	<g>
		<path class="st0" d="M15.67,52.75l-0.17-0.2c0.2-0.16,0.4-0.32,0.61-0.46l0.15,0.22C16.06,52.44,15.86,52.59,15.67,52.75z"/>
	</g>
	<g>
		<path class="st0" d="M32.08,35.64l-0.23-0.13c0.45-0.8,0.96-1.48,1.58-2.1c1.89-1.89,4.2-2.57,6.44-3.23
			c0.47-0.14,0.94-0.27,1.4-0.42l0.08,0.25c-0.47,0.15-0.94,0.29-1.4,0.42c-2.2,0.65-4.48,1.31-6.33,3.16
			C33.02,34.2,32.52,34.86,32.08,35.64z"/>
	</g>
	<g>
		<path class="st0" d="M28.11,45.36L27.9,45.2c1.22-1.63,1.77-3.52,2.31-5.35l0.03-0.11l0.25,0.07l-0.03,0.11
			C29.92,41.78,29.36,43.69,28.11,45.36z"/>
	</g>
	<g>
		<path class="st0" d="M15.57,51.81l-0.15-0.21c1.64-1.19,3.5-1.73,5.31-2.26c1.94-0.57,3.94-1.15,5.64-2.54l0.17,0.2
			c-1.74,1.42-3.77,2.01-5.73,2.58C19.01,50.11,17.17,50.65,15.57,51.81z"/>
	</g>
	<g>
		<path class="st0" d="M31.81,34.56l-0.22-0.14c0.37-0.58,0.79-1.1,1.27-1.58c1.89-1.89,4.21-2.57,6.44-3.23
			c0.88-0.26,1.8-0.53,2.67-0.86l0.1,0.25c-0.88,0.34-1.8,0.61-2.69,0.87c-2.2,0.65-4.48,1.31-6.33,3.16
			C32.58,33.49,32.18,33.99,31.81,34.56z"/>
	</g>
	<g>
		<path class="st0" d="M14.88,51.33l-0.16-0.21c1.67-1.25,3.58-1.81,5.43-2.35c2.2-0.65,4.48-1.31,6.33-3.16
			c1.85-1.85,2.51-4.1,3.15-6.29l0.25,0.07c-0.65,2.22-1.32,4.51-3.21,6.4c-1.89,1.89-4.21,2.57-6.44,3.23
			C18.4,49.55,16.51,50.11,14.88,51.33z"/>
	</g>
	<g>
		<path class="st0" d="M31.57,33.49l-0.21-0.16c0.28-0.38,0.59-0.74,0.92-1.08c1.89-1.89,4.21-2.57,6.44-3.23
			c0.84-0.24,1.7-0.5,2.53-0.81l0.09,0.25c-0.84,0.32-1.7,0.57-2.55,0.82c-2.2,0.65-4.48,1.31-6.33,3.16
			C32.15,32.77,31.85,33.12,31.57,33.49z"/>
	</g>
	<g>
		<path class="st0" d="M14.18,50.84l-0.16-0.21c1.7-1.32,3.66-1.89,5.55-2.44c2.2-0.65,4.48-1.31,6.33-3.16
			c1.85-1.85,2.51-4.12,3.16-6.33l0.16-0.54l0.25,0.07l-0.16,0.53c-0.65,2.24-1.33,4.55-3.23,6.44c-1.89,1.89-4.21,2.57-6.44,3.23
			C17.78,48.99,15.84,49.56,14.18,50.84z"/>
	</g>
	<g>
		<path class="st0" d="M31.36,32.46l-0.2-0.17c0.17-0.21,0.36-0.41,0.55-0.6c1.89-1.89,4.21-2.57,6.44-3.23
			c1.02-0.3,2.08-0.61,3.08-1.03l0.1,0.24c-1.01,0.43-2.08,0.74-3.11,1.04c-2.2,0.65-4.48,1.31-6.33,3.16
			C31.71,32.06,31.53,32.26,31.36,32.46z"/>
	</g>
	<g>
		<path class="st0" d="M14.08,49.92l-0.15-0.22c1.58-1.07,3.35-1.59,5.06-2.09c2.2-0.65,4.48-1.31,6.33-3.16
			c1.85-1.85,2.51-4.12,3.16-6.33l0.11-0.39l0.25,0.07l-0.11,0.39c-0.65,2.24-1.33,4.55-3.23,6.44c-1.89,1.89-4.2,2.57-6.44,3.23
			C17.38,48.36,15.62,48.88,14.08,49.92z"/>
	</g>
	<g>
		<path class="st0" d="M31.18,31.44l-0.19-0.18c0.05-0.05,0.1-0.1,0.14-0.15c1.89-1.89,4.21-2.57,6.44-3.23
			c1.21-0.35,2.46-0.72,3.62-1.27l0.11,0.24c-1.18,0.56-2.44,0.93-3.66,1.29c-2.2,0.65-4.48,1.31-6.33,3.16
			C31.28,31.35,31.23,31.39,31.18,31.44z"/>
	</g>
	<g>
		<path class="st0" d="M28.24,37.39l-0.25-0.07c0.38-1.28,0.73-2.43,1.29-3.55l0.24,0.12C28.96,34.98,28.61,36.12,28.24,37.39z"/>
	</g>
	<g>
		<path class="st0" d="M13.38,49.43l-0.15-0.22c1.61-1.13,3.43-1.66,5.19-2.18c2.2-0.65,4.48-1.31,6.33-3.16
			c1.69-1.69,2.39-3.73,3.02-5.85l0.25,0.07c-0.64,2.15-1.35,4.23-3.08,5.96c-1.89,1.89-4.21,2.57-6.44,3.23
			C16.76,47.8,14.96,48.33,13.38,49.43z"/>
	</g>
	<g>
		<path class="st0" d="M31.04,30.45l-0.18-0.19c1.83-1.68,4.02-2.32,6.14-2.94c1.39-0.41,2.83-0.83,4.15-1.54L41.28,26
			c-1.34,0.73-2.79,1.15-4.2,1.57C34.99,28.18,32.83,28.81,31.04,30.45z"/>
	</g>
	<g>
		<path class="st0" d="M27.62,36.95l-0.25-0.07c0.26-0.89,0.56-1.9,0.95-2.87l0.24,0.1C28.17,35.07,27.88,36.07,27.62,36.95z"/>
	</g>
	<g>
		<path class="st0" d="M12.69,48.94l-0.15-0.21c1.64-1.19,3.51-1.74,5.31-2.26c2.2-0.65,4.48-1.31,6.33-3.16
			c1.68-1.68,2.36-3.66,2.98-5.71l0.25,0.08c-0.62,2.08-1.32,4.09-3.04,5.82c-1.89,1.89-4.21,2.57-6.44,3.23
			C16.14,47.24,14.29,47.78,12.69,48.94z"/>
	</g>
	<g>
		<path class="st0" d="M30.92,29.48l-0.16-0.21c1.73-1.38,3.74-1.97,5.68-2.54c2.2-0.65,4.48-1.31,6.33-3.16
			c0.05-0.05,0.11-0.11,0.16-0.16l0.19,0.18c-0.05,0.06-0.11,0.11-0.16,0.17c-1.89,1.89-4.21,2.57-6.44,3.23
			C34.59,27.55,32.6,28.13,30.92,29.48z"/>
	</g>
	<g>
		<path class="st0" d="M12.61,48.03l-0.14-0.22c1.51-0.95,3.18-1.45,4.81-1.92c2.2-0.65,4.48-1.31,6.33-3.16
			c1.85-1.85,2.51-4.13,3.16-6.33c0.34-1.17,0.7-2.39,1.23-3.53l0.24,0.11c-0.52,1.12-0.87,2.33-1.21,3.49
			c-0.66,2.24-1.33,4.55-3.23,6.44c-1.89,1.89-4.21,2.57-6.44,3.23C15.75,46.61,14.09,47.1,12.61,48.03z"/>
	</g>
	<g>
		<path class="st0" d="M30.24,29l-0.17-0.2c1.75-1.45,3.8-2.05,5.79-2.63c1.98-0.58,4.03-1.18,5.75-2.63l0.17,0.2
			c-1.77,1.49-3.84,2.1-5.85,2.68C33.97,26.99,31.95,27.58,30.24,29z"/>
	</g>
	<g>
		<path class="st0" d="M26.39,36.08L26.14,36l0.05-0.18c0.33-1.13,0.67-2.29,1.17-3.39l0.24,0.11c-0.49,1.08-0.83,2.24-1.15,3.36
			L26.39,36.08z"/>
	</g>
	<g>
		<path class="st0" d="M25.43,38.94l-0.24-0.1c0.31-0.75,0.56-1.53,0.74-2.12l0.25,0.08C25.99,37.4,25.74,38.18,25.43,38.94z"/>
	</g>
	<g>
		<path class="st0" d="M11.92,47.53l-0.14-0.22c1.54-1,3.26-1.51,4.92-2c2.2-0.65,4.48-1.31,6.33-3.16c0.58-0.58,1.08-1.23,1.5-1.98
			l0.23,0.13c-0.44,0.77-0.94,1.43-1.55,2.04c-1.89,1.89-4.21,2.57-6.44,3.23C15.13,46.05,13.43,46.55,11.92,47.53z"/>
	</g>
	<g>
		<path class="st0" d="M29.02,29l-0.19-0.18l0,0c1.89-1.89,4.21-2.57,6.44-3.23c1.94-0.57,3.95-1.16,5.66-2.55l0.17,0.2
			c-1.74,1.43-3.78,2.02-5.75,2.6C33.15,26.49,30.87,27.15,29.02,29z"/>
	</g>
	<g>
		<path class="st0" d="M26.21,34.19l-0.25-0.08c0.27-0.87,0.51-1.53,0.77-2.13l0.24,0.11C26.71,32.68,26.47,33.33,26.21,34.19z"/>
	</g>
	<g>
		<path class="st0" d="M25.56,36.35l-0.25-0.08c0.07-0.24,0.14-0.48,0.21-0.72l0.25,0.07C25.71,35.87,25.64,36.11,25.56,36.35z"/>
	</g>
	<g>
		<path class="st0" d="M24.8,38.49l-0.24-0.1c0.18-0.42,0.35-0.87,0.52-1.4l0.25,0.08C25.16,37.6,24.98,38.06,24.8,38.49z"/>
	</g>
	<g>
		<path class="st0" d="M11.87,46.64l-0.13-0.23c1.39-0.79,2.91-1.24,4.39-1.67c2.2-0.65,4.48-1.31,6.33-3.16
			c0.38-0.38,0.73-0.8,1.04-1.24l0.22,0.15c-0.32,0.46-0.68,0.89-1.07,1.28c-1.89,1.89-4.21,2.57-6.44,3.23
			C14.74,45.42,13.24,45.86,11.87,46.64z"/>
	</g>
	<g>
		<path class="st0" d="M28.37,28.51l-0.19-0.18l0.08-0.08c1.89-1.89,4.21-2.57,6.44-3.23c1.81-0.53,3.69-1.08,5.31-2.28l0.16,0.21
			c-1.66,1.23-3.56,1.79-5.4,2.32c-2.2,0.65-4.48,1.31-6.33,3.16L28.37,28.51z"/>
	</g>
	<g>
		<path class="st0" d="M25.6,33.72l-0.25-0.08c0.27-0.87,0.5-1.53,0.76-2.14l0.24,0.1C26.1,32.21,25.86,32.86,25.6,33.72z"/>
	</g>
	<g>
		<path class="st0" d="M11.85,45.77l-0.12-0.24c1.23-0.61,2.54-0.99,3.82-1.37c2.2-0.65,4.48-1.31,6.33-3.16
			c0.35-0.35,0.68-0.74,0.97-1.15l0.21,0.15c-0.3,0.42-0.64,0.82-1,1.19c-1.89,1.89-4.2,2.57-6.44,3.23
			C14.36,44.79,13.06,45.17,11.85,45.77z"/>
	</g>
	<g>
		<path class="st0" d="M27.23,28.57l-0.21-0.17c0.21-0.26,0.43-0.51,0.66-0.74c1.89-1.89,4.21-2.57,6.44-3.23
			c1.52-0.44,3.09-0.9,4.5-1.74l0.13,0.23c-1.44,0.86-3.03,1.32-4.56,1.77c-2.2,0.65-4.48,1.31-6.33,3.16
			C27.65,28.08,27.43,28.32,27.23,28.57z"/>
	</g>
	<g>
		<path class="st0" d="M25,33.24l-0.25-0.08c0.18-0.6,0.43-1.38,0.75-2.14l0.24,0.1C25.42,31.88,25.17,32.65,25,33.24z"/>
	</g>
	<g>
		<path class="st0" d="M23.57,37.54l-0.24-0.11c0.19-0.42,0.36-0.87,0.54-1.39l0.25,0.09C23.94,36.65,23.76,37.11,23.57,37.54z"/>
	</g>
	<g>
		<path class="st0" d="M12.56,44.64l-0.09-0.25c0.83-0.31,1.68-0.56,2.51-0.8c2.2-0.65,4.48-1.31,6.33-3.16
			c0.33-0.33,0.64-0.69,0.92-1.07l0.21,0.16c-0.29,0.39-0.6,0.76-0.95,1.11c-1.89,1.89-4.21,2.57-6.44,3.23
			C14.23,44.09,13.37,44.34,12.56,44.64z"/>
	</g>
	<g>
		<path class="st0" d="M26.61,28.05l-0.21-0.16c0.22-0.28,0.46-0.54,0.71-0.8c1.89-1.89,4.21-2.57,6.44-3.23
			c1.14-0.33,2.31-0.68,3.41-1.18l0.11,0.24c-1.12,0.51-2.3,0.85-3.44,1.19c-2.2,0.65-4.48,1.31-6.33,3.16
			C27.06,27.52,26.83,27.78,26.61,28.05z"/>
	</g>
	<g>
		<path class="st0" d="M24.4,32.73l-0.25-0.08c0.18-0.6,0.43-1.38,0.74-2.14l0.24,0.1C24.82,31.37,24.58,32.14,24.4,32.73z"/>
	</g>
	<g>
		<path class="st0" d="M22.96,37.03l-0.24-0.11c0.49-1.09,0.83-2.25,1.16-3.38l0.05-0.16l0.25,0.07l-0.05,0.16
			C23.81,34.75,23.46,35.92,22.96,37.03z"/>
	</g>
	<g>
		<path class="st0" d="M11.92,44.09l-0.09-0.25c0.85-0.32,1.73-0.58,2.58-0.83c2.2-0.65,4.48-1.31,6.33-3.16
			c0.14-0.14,0.28-0.29,0.41-0.44l0.2,0.17c-0.13,0.15-0.28,0.3-0.42,0.45c-1.89,1.89-4.21,2.57-6.44,3.23
			C13.63,43.52,12.75,43.78,11.92,44.09z"/>
	</g>
	<g>
		<path class="st0" d="M28.2,25.51l-0.14-0.22c1.54-1.01,3.26-1.51,4.93-2c0.61-0.18,1.25-0.37,1.86-0.57l0.08,0.25
			c-0.62,0.21-1.26,0.4-1.87,0.58C31.41,24.02,29.71,24.52,28.2,25.51z"/>
	</g>
	<g>
		<path class="st0" d="M26.5,26.93l-0.19-0.18c0.07-0.08,0.15-0.16,0.23-0.24c0.1-0.1,0.21-0.2,0.31-0.3l0.18,0.19
			c-0.1,0.09-0.2,0.19-0.3,0.29C26.65,26.78,26.58,26.85,26.5,26.93z"/>
	</g>
	<g>
		<path class="st0" d="M22.37,36.49l-0.24-0.11c0.5-1.1,0.85-2.28,1.18-3.42c0.36-1.22,0.73-2.49,1.3-3.67l0.24,0.11
			c-0.56,1.17-0.93,2.42-1.28,3.63C23.23,34.18,22.88,35.37,22.37,36.49z"/>
	</g>
	<g>
		<path class="st0" d="M12.01,43.28l-0.08-0.25c0.63-0.21,1.28-0.4,1.9-0.59c2.2-0.65,4.48-1.31,6.33-3.16
			c0.31-0.31,0.59-0.64,0.85-0.99l0.21,0.16c-0.27,0.36-0.56,0.7-0.88,1.02c-1.89,1.89-4.2,2.57-6.44,3.23
			C13.28,42.88,12.63,43.07,12.01,43.28z"/>
	</g>
	<g>
		<path class="st0" d="M22.82,33.05l-0.25-0.07l0.18-0.6c0.65-2.24,1.33-4.55,3.23-6.44c0.96-0.96,2.09-1.68,3.55-2.27l0.1,0.24
			c-1.43,0.58-2.53,1.28-3.46,2.22c-1.85,1.85-2.51,4.12-3.16,6.33L22.82,33.05z"/>
	</g>
	<g>
		<path class="st0" d="M10.74,42.95l-0.09-0.25c0.85-0.33,1.74-0.59,2.61-0.84c2.2-0.65,4.48-1.31,6.33-3.16
			c1.52-1.52,2.23-3.31,2.76-5.01l0.25,0.08c-0.55,1.74-1.27,3.56-2.83,5.12c-1.89,1.89-4.21,2.57-6.44,3.23
			C12.47,42.37,11.59,42.63,10.74,42.95z"/>
	</g>
	<g>
		<path class="st0" d="M10.94,42.1l-0.08-0.25c0.6-0.2,1.22-0.38,1.82-0.56c2.2-0.65,4.48-1.31,6.33-3.16
			c1.85-1.85,2.51-4.12,3.16-6.33c0.65-2.24,1.33-4.55,3.23-6.44c0.97-0.97,2.12-1.7,3.62-2.3l0.1,0.24
			c-1.46,0.58-2.59,1.3-3.53,2.24c-1.85,1.85-2.51,4.12-3.16,6.33c-0.65,2.24-1.33,4.55-3.23,6.44c-1.89,1.89-4.21,2.57-6.44,3.23
			C12.16,41.72,11.54,41.9,10.94,42.1z"/>
	</g>
	<g>
		<path class="st0" d="M22.64,28.81l-0.25-0.09c0.62-1.65,1.39-2.89,2.42-3.92c0.69-0.69,1.48-1.26,2.4-1.74l0.12,0.23
			c-0.9,0.47-1.66,1.02-2.33,1.7C24,25.98,23.25,27.2,22.64,28.81z"/>
	</g>
	<g>
		<path class="st0" d="M22.17,30.23l-0.25-0.08c0.07-0.24,0.15-0.48,0.23-0.72l0.25,0.08C22.32,29.75,22.24,29.99,22.17,30.23z"/>
	</g>
	<g>
		<path class="st0" d="M9.82,41.72l-0.09-0.25c0.78-0.29,1.59-0.52,2.37-0.75c2.2-0.65,4.48-1.31,6.33-3.16
			c1.46-1.46,2.19-3.16,2.84-5.25l0.25,0.08c-0.66,2.13-1.4,3.86-2.9,5.36c-1.89,1.89-4.2,2.57-6.44,3.23
			C11.4,41.2,10.59,41.44,9.82,41.72z"/>
	</g>
	<g>
		<path class="st0" d="M21.04,31.51l-0.25-0.08c0.08-0.26,0.15-0.52,0.23-0.78c0.65-2.24,1.33-4.55,3.23-6.44
			c0.41-0.41,0.87-0.79,1.36-1.13l0.15,0.22c-0.48,0.33-0.92,0.69-1.33,1.1c-1.85,1.85-2.51,4.12-3.16,6.33
			C21.19,30.99,21.12,31.25,21.04,31.51z"/>
	</g>
	<g>
		<path class="st0" d="M9.54,41.04l-0.09-0.25c0.68-0.24,1.39-0.45,2.07-0.65c2.2-0.65,4.48-1.31,6.33-3.16
			c1.49-1.49,2.18-3.21,2.71-4.84l0.25,0.08c-0.51,1.58-1.24,3.41-2.77,4.94c-1.89,1.89-4.2,2.57-6.44,3.23
			C10.92,40.6,10.22,40.8,9.54,41.04z"/>
	</g>
	<g>
		<path class="st0" d="M22.51,25.55l-0.22-0.14c0.4-0.66,0.86-1.24,1.39-1.77c0.05-0.05,0.09-0.09,0.14-0.14l0.18,0.19
			c-0.05,0.04-0.09,0.09-0.14,0.13C23.34,24.34,22.9,24.91,22.51,25.55z"/>
	</g>
	<g>
		<path class="st0" d="M19.93,32.57l-0.25-0.09c0.29-0.78,0.53-1.6,0.76-2.39c0.39-1.34,0.8-2.73,1.46-4.01l0.23,0.12
			c-0.65,1.26-1.06,2.63-1.45,3.96C20.46,30.95,20.22,31.77,19.93,32.57z"/>
	</g>
	<g>
		<path class="st0" d="M19.33,33.96l-0.24-0.12c0.11-0.22,0.21-0.44,0.31-0.68l0.24,0.1C19.55,33.52,19.44,33.74,19.33,33.96z"/>
	</g>
	<g>
		<path class="st0" d="M8.78,40.53l-0.09-0.25c0.75-0.27,1.52-0.49,2.26-0.71c2.2-0.65,4.48-1.31,6.33-3.16
			c0.57-0.57,1.05-1.19,1.46-1.91l0.23,0.13c-0.43,0.74-0.92,1.38-1.51,1.97c-1.89,1.89-4.2,2.57-6.44,3.23
			C10.29,40.04,9.52,40.27,8.78,40.53z"/>
	</g>
	<g>
		<path class="st0" d="M20.09,29.7l-0.25-0.07l0.03-0.11c0.54-1.85,1.1-3.76,2.35-5.43l0.21,0.16c-1.22,1.63-1.77,3.52-2.3,5.34
			L20.09,29.7z"/>
	</g>
	<g>
		<path class="st0" d="M19.13,32.56l-0.24-0.1c0.31-0.74,0.54-1.49,0.73-2.12l0.25,0.08C19.68,31.05,19.44,31.81,19.13,32.56z"/>
	</g>
	<g>
		<path class="st0" d="M8.34,39.91l-0.09-0.25c0.7-0.25,1.43-0.46,2.13-0.66c2.2-0.65,4.48-1.31,6.33-3.16
			c0.76-0.76,1.37-1.64,1.88-2.69l0.24,0.11c-0.52,1.08-1.15,1.99-1.93,2.77c-1.89,1.89-4.21,2.57-6.44,3.23
			C9.76,39.45,9.04,39.66,8.34,39.91z"/>
	</g>
	<g>
		<path class="st0" d="M20.34,26.52l-0.25-0.09c0.29-0.78,0.61-1.46,0.97-2.06l0.23,0.13C20.94,25.1,20.63,25.76,20.34,26.52z"/>
	</g>
	<g>
		<path class="st0" d="M19.86,27.94l-0.25-0.08c0.07-0.24,0.15-0.48,0.23-0.72l0.25,0.08C20.01,27.46,19.94,27.7,19.86,27.94z"/>
	</g>
	<g>
		<path class="st0" d="M19.22,30.11l-0.25-0.08c0.12-0.37,0.23-0.75,0.33-1.12l0.09-0.32l0.25,0.07l-0.09,0.32
			C19.44,29.35,19.33,29.73,19.22,30.11z"/>
	</g>
	<g>
		<path class="st0" d="M18.45,32.24l-0.24-0.1c0.18-0.42,0.36-0.88,0.53-1.4l0.25,0.08C18.81,31.35,18.63,31.82,18.45,32.24z"/>
	</g>
	<g>
		<path class="st0" d="M7.51,39.43l-0.09-0.25c0.79-0.29,1.6-0.53,2.39-0.76c2.2-0.65,4.48-1.31,6.33-3.16
			c0.7-0.7,1.28-1.5,1.76-2.45l0.24,0.12c-0.49,0.97-1.09,1.8-1.81,2.52c-1.89,1.89-4.21,2.57-6.44,3.23
			C9.1,38.9,8.29,39.14,7.51,39.43z"/>
	</g>
	<g>
		<path class="st0" d="M19.91,25.57l-0.24-0.1c0.09-0.23,0.2-0.47,0.3-0.7l0.24,0.11C20.1,25.11,20.01,25.34,19.91,25.57z"/>
	</g>
	<g>
		<path class="st0" d="M18.98,28.42l-0.25-0.07c0.21-0.71,0.42-1.44,0.68-2.16l0.25,0.09C19.39,26.99,19.18,27.71,18.98,28.42z"/>
	</g>
	<g>
		<path class="st0" d="M18.54,29.86l-0.25-0.08c0.08-0.24,0.15-0.48,0.22-0.72l0.25,0.08C18.69,29.38,18.62,29.62,18.54,29.86z"/>
	</g>
	<g>
		<path class="st0" d="M18.03,31.29l-0.24-0.1c0.09-0.23,0.18-0.46,0.26-0.7l0.25,0.09C18.22,30.82,18.13,31.05,18.03,31.29z"/>
	</g>
	<g>
		<path class="st0" d="M6.62,38.97l-0.1-0.25c0.89-0.35,1.81-0.62,2.71-0.88c2.2-0.65,4.48-1.31,6.33-3.16
			c0.78-0.78,1.42-1.71,1.93-2.82l0.24,0.11c-0.53,1.14-1.18,2.08-1.99,2.89c-1.89,1.89-4.2,2.57-6.44,3.23
			C8.41,38.36,7.49,38.63,6.62,38.97z"/>
	</g>
	<g>
		<path class="st0" d="M4,40.37l-0.16-0.21c0.59-0.43,1.23-0.81,1.97-1.14l0.11,0.24C5.2,39.59,4.57,39.95,4,40.37z"/>
	</g>
	<g>
		<path class="st0" d="M18.41,27.81l-0.25-0.07c0.07-0.24,0.14-0.48,0.21-0.72l0.25,0.08C18.55,27.33,18.48,27.57,18.41,27.81z"/>
	</g>
	<g>
		<path class="st0" d="M2.88,40.24l-0.17-0.2c1.79-1.55,3.91-2.17,5.95-2.77c2.2-0.65,4.48-1.31,6.33-3.16
			c1.67-1.67,2.36-3.63,2.96-5.66l0.25,0.08c-0.59,1.98-1.31,4.05-3.03,5.77c-1.89,1.89-4.2,2.57-6.44,3.23
			C6.71,38.12,4.63,38.73,2.88,40.24z"/>
	</g>
	<g>
		<path class="st0" d="M1.39,41.89l-0.22-0.15c0.27-0.39,0.57-0.76,0.9-1.1l0.19,0.18C1.94,41.16,1.65,41.52,1.39,41.89z"/>
	</g>
	<g>
		
			<rect x="17.36" y="26.97" transform="matrix(0.2819 -0.9594 0.9594 0.2819 -13.2685 36.48)" class="st0" width="0.75" height="0.26"/>
	</g>
	<g>
		<path class="st0" d="M16.79,30.37l-0.24-0.1c0.32-0.75,0.56-1.53,0.74-2.12l0.25,0.08C17.36,28.82,17.11,29.6,16.79,30.37z"/>
	</g>
	<g>
		<path class="st0" d="M2.1,39.85l-0.18-0.19c1.84-1.69,4.04-2.34,6.16-2.96c2.2-0.65,4.48-1.31,6.33-3.16
			c0.58-0.58,1.06-1.21,1.48-1.94l0.23,0.13c-0.43,0.75-0.93,1.4-1.52,2c-1.89,1.89-4.21,2.57-6.44,3.23
			C6.06,37.56,3.89,38.2,2.1,39.85z"/>
	</g>
	<g>
		<path class="st0" d="M15.68,30.92l-0.23-0.13c0.32-0.59,0.61-1.26,0.89-2.05l0.25,0.09C16.3,29.63,16.01,30.31,15.68,30.92z"/>
	</g>
	<g>
		<path class="st0" d="M13.84,33.32l-0.18-0.19c0.06-0.06,0.12-0.11,0.17-0.17c0.47-0.47,0.87-0.97,1.23-1.53l0.22,0.14
			c-0.37,0.58-0.79,1.1-1.27,1.58C13.96,33.21,13.9,33.27,13.84,33.32z"/>
	</g>
	<g>
		<path class="st0" d="M1.09,39.7L0.9,39.52c0.05-0.06,0.11-0.11,0.16-0.17c1.89-1.89,4.21-2.57,6.44-3.23
			c1.92-0.56,3.9-1.14,5.58-2.49l0.16,0.21c-1.73,1.38-3.73,1.97-5.68,2.54c-2.2,0.65-4.48,1.31-6.33,3.16
			C1.2,39.59,1.14,39.64,1.09,39.7z"/>
	</g>
	<g>
		<path class="st0" d="M15.8,28.83l-0.25-0.1c0.16-0.42,0.32-0.87,0.49-1.41l0.25,0.08C16.12,27.95,15.96,28.41,15.8,28.83z"/>
	</g>
	<g>
		<path class="st0" d="M0.44,39.2l-0.19-0.18c0.08-0.08,0.16-0.17,0.24-0.25c1.89-1.89,4.2-2.57,6.44-3.23
			c2.2-0.65,4.48-1.31,6.33-3.16c0.82-0.82,1.47-1.79,2-2.96l0.24,0.11c-0.54,1.21-1.22,2.2-2.06,3.04
			c-1.89,1.89-4.2,2.57-6.44,3.23c-2.2,0.65-4.48,1.31-6.33,3.16C0.6,39.04,0.52,39.12,0.44,39.2z"/>
	</g>
	<g>
		<path class="st0" d="M15.24,28.21L15,28.11c0.09-0.23,0.17-0.47,0.25-0.7l0.25,0.08C15.42,27.73,15.33,27.97,15.24,28.21z"/>
	</g>
	<g>
		<path class="st0" d="M14.25,30.26l-0.22-0.14c0.25-0.41,0.48-0.84,0.69-1.32l0.24,0.11C14.73,29.4,14.5,29.84,14.25,30.26z"/>
	</g>
	<g>
		<path class="st0" d="M11.66,33.03l-0.15-0.21c0.42-0.3,0.82-0.63,1.18-1c0.33-0.33,0.64-0.7,0.92-1.08l0.21,0.16
			c-0.29,0.39-0.61,0.77-0.95,1.11C12.5,32.37,12.09,32.72,11.66,33.03z"/>
	</g>
	<g>
		<path class="st0" d="M1.31,37.37l-0.15-0.22c1.61-1.13,3.44-1.67,5.2-2.19c1.3-0.38,2.64-0.77,3.87-1.4l0.12,0.23
			c-1.26,0.64-2.61,1.03-3.92,1.42C4.69,35.74,2.88,36.27,1.31,37.37z"/>
	</g>
	<g>
		<path class="st0" d="M13.25,30.32l-0.21-0.16c0.42-0.57,0.78-1.2,1.1-1.93l0.24,0.11C14.04,29.08,13.67,29.73,13.25,30.32z"/>
	</g>
	<g>
		<path class="st0" d="M12.3,31.43l-0.2-0.17l0.01-0.02c0.16-0.16,0.32-0.33,0.46-0.5l0.2,0.17C12.62,31.09,12.46,31.26,12.3,31.43z
			"/>
	</g>
	<g>
		<path class="st0" d="M0.43,37.02l-0.16-0.21c1.69-1.29,3.64-1.86,5.52-2.42c0.36-0.11,0.73-0.21,1.09-0.32l0.08,0.25
			c-0.36,0.11-0.73,0.22-1.09,0.32C4,35.2,2.08,35.76,0.43,37.02z"/>
	</g>
	<g>
		<path class="st0" d="M0.73,35.85L0.6,35.62c1.32-0.8,2.75-1.25,4.21-1.68l0.07,0.25C3.44,34.62,2.03,35.07,0.73,35.85z"/>
	</g>
	<g>
		<path class="st0" d="M2.8,34.09l-0.09-0.25c0.24-0.08,0.48-0.16,0.72-0.23l0.08,0.25C3.28,33.93,3.04,34.01,2.8,34.09z"/>
	</g>
</g>
</svg>
