<?xml version="1.0" encoding="utf-8"?>
<!-- Generator: Adobe Illustrator 24.3.0, SVG Export Plug-In . SVG Version: 6.00 Build 0)  -->
<svg version="1.1" id="Layer_1" xmlns="http://www.w3.org/2000/svg" xmlns:xlink="http://www.w3.org/1999/xlink" x="0px" y="0px"
	 viewBox="0 0 32 32" style="enable-background:new 0 0 32 32;" xml:space="preserve">
<style type="text/css">
	.st0{opacity:0.2;}
</style>
<g class="st0">
	<g>
		<path d="M27.78,22.68l-0.04-0.07c0.07-0.04,0.13-0.09,0.19-0.13l0.05,0.07C27.91,22.59,27.85,22.63,27.78,22.68z"/>
	</g>
	<g>
		<path d="M27.61,22.48l-0.04-0.07c0.19-0.12,0.36-0.25,0.51-0.41c0.12-0.12,0.23-0.26,0.33-0.4l0.07,0.05
			c-0.1,0.15-0.22,0.29-0.34,0.41C27.98,22.22,27.81,22.36,27.61,22.48z"/>
	</g>
	<g>
		<path d="M27.25,22.41l-0.04-0.07c0.26-0.14,0.49-0.31,0.69-0.51c0.24-0.24,0.43-0.51,0.58-0.83l0.07,0.04
			c-0.16,0.33-0.36,0.61-0.6,0.86C27.75,22.09,27.52,22.26,27.25,22.41z"/>
	</g>
	<g>
		<path d="M27.1,22.21l-0.04-0.07c0.25-0.14,0.46-0.3,0.66-0.49c0.24-0.24,0.44-0.53,0.6-0.87l0.08,0.04
			c-0.17,0.35-0.37,0.64-0.62,0.89C27.58,21.9,27.35,22.07,27.1,22.21z"/>
	</g>
	<g>
		<path d="M28.62,19.46l-0.04-0.01l-0.04-0.02c0.02-0.07,0.04-0.15,0.07-0.22l0.08,0.02C28.66,19.31,28.64,19.38,28.62,19.46z"/>
	</g>
	<g>
		<path d="M26.95,22.01l-0.04-0.07c0.23-0.13,0.44-0.29,0.62-0.47c0.25-0.25,0.45-0.55,0.62-0.9l0.08,0.03
			c-0.17,0.36-0.38,0.67-0.63,0.93C27.4,21.71,27.19,21.87,26.95,22.01z"/>
	</g>
	<g>
		<rect x="28.25" y="19.3" transform="matrix(0.2844 -0.9587 0.9587 0.2844 1.7609 41.0457)" width="0.24" height="0.08"/>
	</g>
	<g>
		<path d="M26.81,21.8l-0.04-0.07c0.22-0.13,0.41-0.28,0.58-0.45c0.21-0.21,0.38-0.45,0.53-0.73l0.07,0.04
			c-0.15,0.29-0.33,0.53-0.55,0.75C27.23,21.52,27.03,21.67,26.81,21.8z"/>
	</g>
	<g>
		<path d="M28.07,19.7l-0.08-0.03c0.06-0.19,0.12-0.39,0.18-0.58l0.03-0.1l0.08,0.02l-0.03,0.1C28.19,19.31,28.13,19.51,28.07,19.7z
			"/>
	</g>
	<g>
		<path d="M25.11,22.2l-0.02-0.08l0.08-0.02c0.7-0.2,1.42-0.42,2-1c0.22-0.22,0.4-0.47,0.55-0.77l0.07,0.04
			c-0.16,0.31-0.34,0.56-0.57,0.79c-0.6,0.6-1.33,0.81-2.04,1.02L25.11,22.2z"/>
	</g>
	<g>
		<path d="M27.82,19.7l-0.08-0.03c0.05-0.13,0.1-0.27,0.15-0.45l0.08,0.02C27.92,19.42,27.87,19.57,27.82,19.7z"/>
	</g>
	<g>
		<path d="M24.97,22.01l-0.02-0.08l0.04-0.01c0.7-0.2,1.42-0.42,2-1c0.28-0.28,0.49-0.61,0.67-1.03l0.08,0.03
			c-0.18,0.43-0.4,0.76-0.69,1.05c-0.6,0.6-1.33,0.81-2.04,1.02L24.97,22.01z"/>
	</g>
	<g>
		<path d="M27.36,20.13l-0.07-0.04c0.14-0.24,0.25-0.51,0.37-0.87l0.08,0.03C27.62,19.61,27.5,19.88,27.36,20.13z"/>
	</g>
	<g>
		<path d="M25.06,21.74l-0.02-0.08c0.6-0.18,1.24-0.4,1.76-0.93c0.14-0.14,0.26-0.28,0.36-0.44l0.07,0.05
			c-0.11,0.17-0.23,0.32-0.37,0.46C26.32,21.33,25.68,21.56,25.06,21.74z"/>
	</g>
	<g>
		<path d="M27.31,19.69l-0.08-0.04c0.09-0.19,0.17-0.4,0.25-0.66l0.08,0.03C27.48,19.28,27.4,19.5,27.31,19.69z"/>
	</g>
	<g>
		<path d="M24.93,21.55l-0.02-0.08c0.58-0.18,1.2-0.39,1.72-0.92c0.15-0.15,0.27-0.31,0.39-0.48l0.07,0.05
			c-0.12,0.18-0.25,0.35-0.4,0.5C26.15,21.15,25.5,21.37,24.93,21.55z"/>
	</g>
	<g>
		<path d="M27.05,19.68l-0.07-0.04c0.1-0.19,0.19-0.4,0.27-0.65l0.08,0.03C27.24,19.27,27.15,19.48,27.05,19.68z"/>
	</g>
	<g>
		<path d="M25.02,21.28L25,21.2c0.46-0.15,0.99-0.37,1.45-0.83c0.16-0.16,0.29-0.33,0.42-0.53l0.07,0.04
			c-0.12,0.2-0.26,0.38-0.43,0.54C26.03,20.9,25.49,21.12,25.02,21.28z"/>
	</g>
	<g>
		<path d="M26.99,19.24l-0.08-0.03c0.03-0.07,0.06-0.15,0.09-0.22l0.08,0.03C27.05,19.09,27.02,19.16,26.99,19.24z"/>
	</g>
	<g>
		<path d="M24.89,21.08L24.86,21c0.44-0.15,0.95-0.36,1.4-0.81c0.11-0.11,0.22-0.24,0.31-0.37l0.07,0.05
			c-0.1,0.14-0.2,0.26-0.32,0.38C25.85,20.71,25.31,20.94,24.89,21.08z"/>
	</g>
	<g>
		<path d="M26.73,19.23l-0.07-0.04c0.03-0.07,0.07-0.14,0.1-0.21l0.08,0.03C26.79,19.09,26.76,19.16,26.73,19.23z"/>
	</g>
	<g>
		<path d="M25.62,20.48l-0.04-0.07c0.19-0.12,0.35-0.25,0.5-0.4c0.01-0.01,0.03-0.03,0.04-0.04l0.06,0.06
			c-0.01,0.01-0.03,0.03-0.04,0.04C25.98,20.22,25.81,20.36,25.62,20.48z"/>
	</g>
	<g>
		<path d="M25.19,20.71l-0.03-0.08c0.07-0.03,0.14-0.07,0.21-0.1l0.04,0.07C25.34,20.64,25.27,20.67,25.19,20.71z"/>
	</g>
	<g>
		<path d="M26.45,19.22l-0.07-0.04c0.07-0.13,0.14-0.27,0.2-0.42l0.08,0.03C26.6,18.94,26.53,19.09,26.45,19.22z"/>
	</g>
	<g>
		<path d="M26.03,19.8l-0.06-0.06c0.05-0.06,0.1-0.12,0.15-0.18l0.07,0.05C26.14,19.68,26.08,19.75,26.03,19.8z"/>
	</g>
	<g>
		<path d="M26.03,19.4l-0.07-0.05c0.14-0.18,0.26-0.38,0.36-0.6l0.08,0.04C26.29,19.02,26.17,19.22,26.03,19.4z"/>
	</g>
	<g>
		<path d="M25.71,19.76l-0.06-0.06c0.02-0.02,0.04-0.04,0.06-0.06c0.04-0.04,0.07-0.07,0.1-0.11l0.06,0.06
			c-0.03,0.04-0.07,0.07-0.11,0.11C25.75,19.72,25.73,19.74,25.71,19.76z"/>
	</g>
	<g>
		<path d="M27.39,15.72l-0.07-0.05c0.05-0.06,0.1-0.12,0.16-0.18l0.06,0.06C27.49,15.6,27.44,15.66,27.39,15.72z"/>
	</g>
	<g>
		<path d="M25.18,19.86l-0.05-0.07c0.14-0.1,0.28-0.21,0.4-0.33c0.26-0.26,0.46-0.56,0.63-0.93l0.08,0.03
			c-0.17,0.38-0.38,0.69-0.65,0.95C25.47,19.64,25.33,19.76,25.18,19.86z"/>
	</g>
	<g>
		<path d="M27.09,15.7l-0.07-0.05c0.09-0.13,0.19-0.26,0.3-0.37l0.06,0.06C27.28,15.45,27.18,15.57,27.09,15.7z"/>
	</g>
	<g>
		<path d="M25.97,18.57l-0.07-0.04c0.07-0.13,0.13-0.27,0.19-0.43l0.08,0.03C26.1,18.29,26.04,18.43,25.97,18.57z"/>
	</g>
	<g>
		<path d="M25.41,19.34l-0.04-0.02l-0.02-0.03c0.17-0.17,0.31-0.35,0.43-0.55l0.07,0.04C25.72,18.99,25.58,19.17,25.41,19.34z"/>
	</g>
	<g>
		<path d="M25.03,19.66l-0.05-0.07c0.06-0.05,0.13-0.09,0.19-0.14l0.05,0.06C25.16,19.56,25.09,19.61,25.03,19.66z"/>
	</g>
	<g>
		<path d="M26.59,16.11l-0.08-0.03c0.18-0.42,0.4-0.74,0.68-1.03c0.16-0.16,0.34-0.3,0.54-0.43l0.04,0.07
			c-0.2,0.12-0.37,0.26-0.53,0.42C26.97,15.39,26.76,15.71,26.59,16.11z"/>
	</g>
	<g>
		<path d="M25.8,18.36l-0.07-0.04c0.1-0.19,0.18-0.4,0.27-0.65l0.08,0.03C25.98,17.96,25.9,18.17,25.8,18.36z"/>
	</g>
	<g>
		<path d="M25.06,19.31l-0.05-0.06c0.06-0.05,0.11-0.1,0.16-0.15c0.11-0.11,0.22-0.24,0.31-0.37l0.07,0.05
			c-0.1,0.14-0.21,0.26-0.32,0.38C25.17,19.21,25.12,19.26,25.06,19.31z"/>
	</g>
	<g>
		<path d="M24.46,19.71l-0.04-0.07c0.14-0.08,0.28-0.16,0.4-0.25l0.05,0.07C24.74,19.55,24.61,19.63,24.46,19.71z"/>
	</g>
	<g>
		<path d="M31.52,12.39l-0.07-0.04c0.08-0.13,0.15-0.26,0.22-0.41l0.08,0.03C31.68,12.12,31.61,12.26,31.52,12.39z"/>
	</g>
	<g>
		<path d="M27.23,14.78l-0.05-0.06c0.12-0.1,0.25-0.2,0.39-0.28l0.04,0.07C27.47,14.59,27.35,14.68,27.23,14.78z"/>
	</g>
	<g>
		<path d="M26.41,15.91l-0.08-0.03c0.07-0.16,0.14-0.3,0.22-0.43l0.07,0.04C26.55,15.62,26.48,15.76,26.41,15.91z"/>
	</g>
	<g>
		<path d="M25.73,17.94l-0.08-0.03c0.06-0.13,0.11-0.28,0.17-0.44l0.08,0.03C25.84,17.66,25.78,17.81,25.73,17.94z"/>
	</g>
	<g>
		<path d="M24.71,19.26l-0.05-0.07c0.12-0.09,0.23-0.18,0.33-0.28c0.17-0.17,0.32-0.37,0.45-0.58l0.07,0.04
			c-0.13,0.23-0.29,0.42-0.46,0.6C24.94,19.08,24.83,19.18,24.71,19.26z"/>
	</g>
	<g>
		<path d="M24.08,19.62l-0.03-0.08c0.15-0.07,0.29-0.14,0.42-0.22l0.04,0.07C24.37,19.48,24.23,19.55,24.08,19.62z"/>
	</g>
	<g>
		<path d="M31.34,12.2l-0.07-0.04c0.08-0.13,0.15-0.26,0.22-0.41l0.08,0.03C31.5,11.93,31.43,12.07,31.34,12.2z"/>
	</g>
	<g>
		<path d="M27.43,14.32l-0.04-0.07c0.07-0.04,0.14-0.08,0.21-0.12l0.04,0.07C27.57,14.24,27.5,14.28,27.43,14.32z"/>
	</g>
	<g>
		<path d="M26.23,15.72l-0.08-0.03c0.07-0.16,0.14-0.3,0.22-0.43l0.07,0.04C26.37,15.43,26.3,15.57,26.23,15.72z"/>
	</g>
	<g>
		<path d="M24.53,19.08l-0.05-0.07c0.11-0.08,0.22-0.18,0.32-0.28c0.52-0.52,0.74-1.14,0.9-1.68l0.08,0.02
			c-0.17,0.55-0.39,1.18-0.92,1.72C24.76,18.89,24.65,18.99,24.53,19.08z"/>
	</g>
	<g>
		<path d="M23.91,19.44l-0.03-0.08c0.15-0.07,0.29-0.14,0.41-0.22l0.04,0.07C24.2,19.3,24.06,19.37,23.91,19.44z"/>
	</g>
	<g>
		<path d="M31.16,12.03l-0.07-0.04c0.08-0.13,0.15-0.26,0.22-0.41l0.08,0.03C31.32,11.76,31.24,11.9,31.16,12.03z"/>
	</g>
	<g>
		<path d="M28.56,13.61l-0.02-0.08l0.15-0.04c0.1-0.03,0.21-0.06,0.31-0.09l0.02,0.08c-0.1,0.03-0.21,0.06-0.31,0.09L28.56,13.61z"
			/>
	</g>
	<g>
		<path d="M26.05,15.55l-0.08-0.03c0.18-0.41,0.39-0.73,0.67-1.01c0.27-0.27,0.59-0.49,0.99-0.66l0.03,0.08
			c-0.38,0.17-0.7,0.38-0.96,0.64C26.43,14.84,26.22,15.15,26.05,15.55z"/>
	</g>
	<g>
		<path d="M25.6,16.9l-0.08-0.02c0.02-0.08,0.05-0.15,0.07-0.23l0.08,0.02C25.65,16.75,25.63,16.82,25.6,16.9z"/>
	</g>
	<g>
		<path d="M23.72,19.26l-0.03-0.08c0.15-0.07,0.29-0.14,0.42-0.22l0.04,0.07C24.01,19.12,23.87,19.19,23.72,19.26z"/>
	</g>
	<g>
		<path d="M30.96,11.87l-0.07-0.05c0.08-0.13,0.16-0.26,0.23-0.41l0.08,0.04C31.12,11.6,31.04,11.74,30.96,11.87z"/>
	</g>
	<g>
		<path d="M30.67,12.25l-0.06-0.06c0.05-0.06,0.1-0.12,0.15-0.18l0.07,0.05C30.77,12.13,30.72,12.19,30.67,12.25z"/>
	</g>
	<g>
		<path d="M28.57,13.37l-0.02-0.08c0.23-0.07,0.46-0.14,0.68-0.22l0.03,0.08C29.04,13.23,28.81,13.3,28.57,13.37z"/>
	</g>
	<g>
		<path d="M25.95,15.18l-0.07-0.04c0.16-0.32,0.35-0.58,0.58-0.82c0.31-0.31,0.69-0.55,1.18-0.74l0.03,0.08
			c-0.48,0.19-0.85,0.42-1.15,0.72C26.29,14.61,26.11,14.87,25.95,15.18z"/>
	</g>
	<g>
		<path d="M25.41,16.75l-0.08-0.02c0.04-0.12,0.07-0.24,0.11-0.36c0.05-0.18,0.11-0.37,0.17-0.56l0.08,0.03
			c-0.06,0.18-0.12,0.37-0.17,0.55C25.48,16.51,25.45,16.63,25.41,16.75z"/>
	</g>
	<g>
		<path d="M23.72,18.99l-0.04-0.07c0.15-0.07,0.28-0.15,0.4-0.24l0.05,0.07C24.01,18.83,23.87,18.91,23.72,18.99z"/>
	</g>
	<g>
		<path d="M29.88,12.58l-0.05-0.07c0.18-0.11,0.34-0.24,0.48-0.39c0.24-0.24,0.43-0.51,0.59-0.83l0.07,0.04
			c-0.16,0.33-0.36,0.61-0.6,0.86C30.23,12.33,30.07,12.46,29.88,12.58z"/>
	</g>
	<g>
		<path d="M28.56,13.14l-0.02-0.08c0.29-0.09,0.6-0.18,0.89-0.32l0.04,0.08C29.16,12.95,28.85,13.05,28.56,13.14z"/>
	</g>
	<g>
		<path d="M25.74,15.06l-0.08-0.04c0.16-0.34,0.36-0.63,0.61-0.88c0.35-0.35,0.76-0.6,1.34-0.8l0.03,0.08
			c-0.57,0.2-0.97,0.44-1.31,0.78C26.1,14.44,25.9,14.72,25.74,15.06z"/>
	</g>
	<g>
		<path d="M25.14,16.85l-0.08-0.03c0.07-0.21,0.14-0.43,0.2-0.64c0.09-0.31,0.19-0.64,0.31-0.94l0.08,0.03
			c-0.13,0.3-0.22,0.63-0.31,0.94C25.28,16.42,25.21,16.64,25.14,16.85z"/>
	</g>
	<g>
		<path d="M23.48,18.83l-0.04-0.07c0.22-0.11,0.42-0.23,0.59-0.38l0.05,0.06C23.91,18.6,23.71,18.72,23.48,18.83z"/>
	</g>
	<g>
		<path d="M30.85,11.03L30.78,11c0.03-0.07,0.06-0.14,0.09-0.22l0.08,0.03C30.92,10.88,30.89,10.96,30.85,11.03z"/>
	</g>
	<g>
		<path d="M28.72,12.85l-0.03-0.08c0.46-0.15,0.98-0.37,1.44-0.83c0.21-0.21,0.39-0.45,0.53-0.73l0.07,0.04
			c-0.15,0.29-0.33,0.53-0.55,0.75C29.73,12.47,29.19,12.69,28.72,12.85z"/>
	</g>
	<g>
		<path d="M24.73,17.22l-0.07-0.04c0.19-0.38,0.31-0.79,0.42-1.19c0.21-0.71,0.42-1.44,1.02-2.04c0.47-0.47,1-0.69,1.46-0.84
			l0.03,0.08c-0.45,0.15-0.97,0.37-1.43,0.82c-0.58,0.58-0.8,1.31-1,2C25.04,16.42,24.92,16.84,24.73,17.22z"/>
	</g>
	<g>
		<path d="M24.18,18.02l-0.06-0.06c0.16-0.17,0.3-0.35,0.42-0.56l0.07,0.04C24.49,17.65,24.35,17.84,24.18,18.02z"/>
	</g>
	<g>
		<path d="M23.82,18.34l-0.05-0.07c0.06-0.05,0.12-0.1,0.18-0.15l0.06,0.06C23.95,18.24,23.88,18.29,23.82,18.34z"/>
	</g>
	<g>
		<path d="M23.41,18.6l-0.04-0.07c0.07-0.04,0.14-0.08,0.2-0.12l0.04,0.07C23.55,18.52,23.48,18.56,23.41,18.6z"/>
	</g>
	<g>
		<path d="M29.24,12.38l-0.04-0.07c0.29-0.15,0.54-0.33,0.75-0.54c0.27-0.27,0.48-0.58,0.65-0.98l0.08,0.03
			c-0.18,0.41-0.39,0.73-0.67,1.01C29.79,12.04,29.54,12.22,29.24,12.38z"/>
	</g>
	<g>
		<path d="M23.47,18.27l-0.05-0.07c0.17-0.11,0.32-0.24,0.47-0.38c0.58-0.58,0.8-1.31,1-2c0.21-0.71,0.42-1.44,1.02-2.04
			c0.29-0.29,0.62-0.51,1.05-0.69L27,13.17c-0.42,0.18-0.74,0.39-1.02,0.67c-0.58,0.58-0.8,1.31-1,2c-0.21,0.71-0.42,1.44-1.02,2.04
			C23.81,18.03,23.65,18.16,23.47,18.27z"/>
	</g>
	<g>
		<path d="M19.07,21.4l-0.08-0.03c0.09-0.26,0.17-0.48,0.26-0.67l0.07,0.04C19.23,20.93,19.15,21.14,19.07,21.4z"/>
	</g>
	<g>
		<path d="M28.1,12.57l-0.02-0.08c0.55-0.17,1.18-0.39,1.7-0.91c0.2-0.2,0.37-0.43,0.52-0.7l0.07,0.04
			c-0.15,0.27-0.32,0.51-0.53,0.72C29.3,12.17,28.66,12.4,28.1,12.57z"/>
	</g>
	<g>
		<path d="M23.61,17.85l-0.05-0.06c0.05-0.04,0.1-0.09,0.15-0.14c0.58-0.58,0.8-1.31,1-2c0.21-0.71,0.42-1.44,1.02-2.04
			c0.5-0.5,1.09-0.73,1.65-0.91l0.02,0.08c-0.55,0.17-1.13,0.4-1.62,0.89c-0.58,0.58-0.8,1.31-1,2c-0.21,0.71-0.42,1.44-1.02,2.04
			C23.72,17.75,23.67,17.8,23.61,17.85z"/>
	</g>
	<g>
		<path d="M18.79,21.51l-0.08-0.02c0.12-0.42,0.28-0.89,0.55-1.32l0.07,0.05C19.07,20.63,18.91,21.1,18.79,21.51z"/>
	</g>
	<g>
		<path d="M23.49,17.61l-0.06-0.06c0.03-0.03,0.06-0.06,0.1-0.09c0.58-0.58,0.8-1.31,1-2c0.21-0.71,0.42-1.44,1.02-2.04
			c0.6-0.6,1.33-0.81,2.04-1.02c0.7-0.2,1.42-0.42,2-1c0.11-0.11,0.22-0.24,0.31-0.37l0.07,0.05c-0.1,0.13-0.2,0.26-0.32,0.38
			c-0.6,0.6-1.33,0.81-2.04,1.02c-0.7,0.2-1.42,0.42-2,1c-0.58,0.58-0.8,1.31-1,2c-0.21,0.71-0.42,1.44-1.02,2.04
			C23.56,17.55,23.52,17.58,23.49,17.61z"/>
	</g>
	<g>
		<path d="M22.02,18.4l-0.03-0.08c0.08-0.02,0.15-0.05,0.22-0.08l0.03,0.08C22.17,18.35,22.09,18.37,22.02,18.4z"/>
	</g>
	<g>
		<path d="M18.78,20.81l-0.08-0.03c0.06-0.16,0.12-0.31,0.19-0.44l0.07,0.04C18.9,20.51,18.84,20.65,18.78,20.81z"/>
	</g>
	<g>
		<path d="M23.23,17.5l-0.05-0.06c0.06-0.05,0.12-0.1,0.17-0.16c0.58-0.58,0.8-1.31,1-2c0.21-0.71,0.42-1.44,1.02-2.04
			c0.6-0.6,1.33-0.81,2.04-1.02c0.7-0.2,1.42-0.42,2-1c0.09-0.09,0.17-0.18,0.25-0.28l0.07,0.05c-0.08,0.1-0.16,0.2-0.26,0.29
			c-0.6,0.6-1.33,0.81-2.04,1.02c-0.7,0.2-1.42,0.42-2,1c-0.58,0.58-0.8,1.31-1,2c-0.21,0.71-0.42,1.44-1.02,2.04
			C23.35,17.39,23.29,17.45,23.23,17.5z"/>
	</g>
	<g>
		<path d="M21.74,18.25l-0.02-0.08c0.17-0.05,0.32-0.1,0.45-0.15l0.03,0.08C22.06,18.14,21.91,18.19,21.74,18.25z"/>
	</g>
	<g>
		<path d="M23.24,17.14l-0.06-0.06c0.57-0.58,0.78-1.3,0.99-1.99c0.21-0.71,0.42-1.44,1.02-2.04c0.6-0.6,1.33-0.81,2.04-1.02
			c0.7-0.2,1.42-0.42,2-1c0.04-0.04,0.08-0.08,0.11-0.12l0.06,0.06c-0.04,0.04-0.07,0.08-0.11,0.12c-0.6,0.6-1.33,0.81-2.04,1.02
			c-0.7,0.2-1.42,0.42-2,1c-0.58,0.58-0.8,1.31-1,2C24.04,15.82,23.83,16.54,23.24,17.14z"/>
	</g>
	<g>
		<path d="M21.57,18.06l-0.02-0.08c0.17-0.05,0.32-0.1,0.45-0.15l0.03,0.08C21.89,17.96,21.75,18,21.57,18.06z"/>
	</g>
	<g>
		<path d="M18.39,20.52l-0.08-0.03c0.09-0.25,0.18-0.47,0.28-0.66l0.07,0.04C18.56,20.07,18.47,20.27,18.39,20.52z"/>
	</g>
	<g>
		<path d="M18.11,21.43l-0.08-0.02c0.02-0.08,0.05-0.15,0.07-0.23l0.08,0.02C18.15,21.28,18.13,21.36,18.11,21.43z"/>
	</g>
	<g>
		<path d="M22.96,17.05l-0.06-0.06c0.03-0.02,0.05-0.05,0.08-0.08c0.58-0.58,0.8-1.31,1-2c0.21-0.71,0.42-1.44,1.02-2.04
			c0.6-0.6,1.33-0.81,2.04-1.02c0.7-0.2,1.42-0.42,2-1l0.03-0.03l0.06,0.06l-0.03,0.03c-0.6,0.6-1.33,0.81-2.04,1.02
			c-0.7,0.2-1.42,0.42-2,1c-0.58,0.58-0.8,1.31-1,2c-0.21,0.71-0.42,1.44-1.02,2.04C23.02,17,22.99,17.03,22.96,17.05z"/>
	</g>
	<g>
		<path d="M21.49,17.85l-0.03-0.08c0.36-0.12,0.63-0.23,0.87-0.36l0.04,0.07C22.13,17.61,21.86,17.73,21.49,17.85z"/>
	</g>
	<g>
		<path d="M17.64,22.05l-0.08-0.03c0.15-0.34,0.26-0.7,0.36-1.04c0.14-0.48,0.28-0.97,0.54-1.41l0.07,0.04
			c-0.25,0.44-0.4,0.93-0.54,1.4C17.9,21.35,17.79,21.71,17.64,22.05z"/>
	</g>
	<g>
		<path d="M21.47,17.61l-0.03-0.08c0.4-0.14,0.92-0.36,1.36-0.8c0.58-0.58,0.8-1.31,1-2c0.21-0.71,0.42-1.44,1.02-2.04
			c0.6-0.6,1.33-0.81,2.04-1.02c0.69-0.2,1.4-0.41,1.98-0.98l0.06,0.06c-0.59,0.58-1.32,0.79-2.01,1c-0.7,0.2-1.42,0.42-2,1
			c-0.58,0.58-0.8,1.31-1,2c-0.21,0.71-0.42,1.44-1.02,2.04C22.4,17.25,21.88,17.47,21.47,17.61z"/>
	</g>
	<g>
		<path d="M17.2,22.36l-0.07-0.05c0.31-0.47,0.46-1.01,0.61-1.52c0.21-0.71,0.42-1.44,1.02-2.04c0.19-0.19,0.41-0.36,0.66-0.5
			l0.04,0.07c-0.24,0.14-0.45,0.3-0.64,0.48c-0.58,0.58-0.8,1.31-1,2C17.67,21.34,17.51,21.88,17.2,22.36z"/>
	</g>
	<g>
		<path d="M21.48,17.36l-0.03-0.08c0.49-0.19,0.86-0.42,1.17-0.73c0.58-0.58,0.8-1.31,1-2c0.21-0.71,0.42-1.44,1.02-2.04
			c0.6-0.6,1.33-0.81,2.04-1.02c0.68-0.2,1.38-0.4,1.95-0.95l0.06,0.06c-0.59,0.56-1.3,0.77-1.99,0.97c-0.7,0.2-1.42,0.42-2,1
			c-0.58,0.58-0.8,1.31-1,2c-0.21,0.71-0.42,1.44-1.02,2.04C22.36,16.93,21.98,17.17,21.48,17.36z"/>
	</g>
	<g>
		<path d="M16.99,22.21l-0.07-0.05c0.32-0.48,0.48-1.03,0.63-1.55c0.21-0.71,0.42-1.44,1.02-2.04c0.29-0.29,0.63-0.51,1.06-0.69
			l0.03,0.08c-0.42,0.18-0.75,0.39-1.03,0.67c-0.58,0.58-0.8,1.31-1,2C17.48,21.17,17.32,21.72,16.99,22.21z"/>
	</g>
	<g>
		<path d="M21.28,17.18l-0.03-0.08c0.5-0.19,0.87-0.42,1.19-0.74c0.58-0.58,0.8-1.31,1-2c0.21-0.71,0.42-1.44,1.02-2.04
			c0.6-0.6,1.33-0.81,2.04-1.02c0.6-0.18,1.23-0.36,1.76-0.78l0.05,0.07c-0.55,0.43-1.18,0.62-1.79,0.8c-0.7,0.2-1.42,0.42-2,1
			c-0.58,0.58-0.8,1.31-1,2c-0.21,0.71-0.42,1.44-1.02,2.04C22.18,16.75,21.79,16.99,21.28,17.18z"/>
	</g>
	<g>
		<path d="M16.66,22.23l-0.07-0.05c0.42-0.53,0.6-1.15,0.78-1.75c0.21-0.71,0.42-1.44,1.02-2.04c0.24-0.24,0.51-0.43,0.83-0.59
			l0.04,0.07c-0.31,0.16-0.58,0.34-0.81,0.57c-0.58,0.58-0.8,1.31-1,2C17.28,21.06,17.09,21.69,16.66,22.23z"/>
	</g>
	<g>
		<path d="M21.11,17l-0.03-0.08c0.49-0.19,0.87-0.42,1.18-0.73c0.58-0.58,0.8-1.31,1-2c0.21-0.71,0.42-1.44,1.02-2.04
			c0.6-0.6,1.33-0.81,2.04-1.02c0.61-0.18,1.23-0.36,1.76-0.79l0.05,0.07c-0.55,0.44-1.18,0.62-1.79,0.8c-0.7,0.2-1.42,0.42-2,1
			c-0.58,0.58-0.8,1.31-1,2c-0.21,0.71-0.42,1.44-1.02,2.04C22,16.56,21.61,16.8,21.11,17z"/>
	</g>
	<g>
		<path d="M16.49,22.05l-0.07-0.05c0.42-0.53,0.6-1.15,0.77-1.75c0.21-0.71,0.42-1.44,1.02-2.04c0.53-0.53,1.17-0.76,1.73-0.93
			l0.02,0.08c-0.55,0.17-1.18,0.39-1.69,0.91c-0.58,0.58-0.8,1.31-1,2C17.1,20.88,16.91,21.5,16.49,22.05z"/>
	</g>
	<g>
		<path d="M20.94,16.81l-0.03-0.08c0.49-0.19,0.86-0.42,1.16-0.73c0.58-0.58,0.8-1.31,1-2c0.21-0.71,0.42-1.44,1.02-2.04
			c0.6-0.6,1.33-0.81,2.04-1.02c0.54-0.16,1.1-0.32,1.59-0.66l0.05,0.07c-0.5,0.34-1.07,0.51-1.61,0.67c-0.7,0.2-1.42,0.42-2,1
			c-0.58,0.58-0.8,1.31-1,2c-0.21,0.71-0.42,1.44-1.02,2.04C21.82,16.38,21.44,16.62,20.94,16.81z"/>
	</g>
	<g>
		<path d="M16.45,21.65l-0.07-0.05c0.31-0.48,0.47-1.02,0.63-1.54c0.21-0.71,0.42-1.44,1.02-2.04c0.6-0.6,1.33-0.81,2.04-1.02
			l0.16-0.05l0.02,0.08l-0.17,0.05c-0.7,0.2-1.42,0.42-2,1c-0.58,0.58-0.8,1.31-1,2C16.94,20.62,16.78,21.16,16.45,21.65z"/>
	</g>
	<g>
		<path d="M27.2,10.4l-0.04-0.07c0.15-0.07,0.28-0.15,0.4-0.24l0.05,0.07C27.48,10.24,27.35,10.32,27.2,10.4z"/>
	</g>
	<g>
		<path d="M20.56,16.7l-0.03-0.08c0.4-0.14,0.92-0.36,1.36-0.8c0.58-0.58,0.8-1.31,1-2c0.21-0.71,0.42-1.44,1.02-2.04
			c0.6-0.6,1.33-0.81,2.04-1.02c0.33-0.1,0.67-0.2,0.99-0.34l0.03,0.08c-0.33,0.14-0.67,0.24-1,0.34c-0.7,0.2-1.42,0.42-2,1
			c-0.58,0.58-0.8,1.31-1,2c-0.21,0.71-0.42,1.44-1.02,2.04C21.5,16.34,20.97,16.56,20.56,16.7z"/>
	</g>
	<g>
		<path d="M16.29,21.45l-0.07-0.05c0.3-0.47,0.46-1.01,0.61-1.52c0.21-0.71,0.42-1.44,1.02-2.04c0.6-0.6,1.33-0.81,2.04-1.02
			l0.19-0.06l0.02,0.08l-0.19,0.06c-0.7,0.2-1.42,0.42-2,1c-0.58,0.58-0.8,1.31-1,2C16.76,20.43,16.6,20.97,16.29,21.45z"/>
	</g>
	<g>
		<path d="M27.26,10.08l-0.04-0.07c0.21-0.13,0.39-0.27,0.56-0.44l0.01-0.01l0.03,0.03l0.03,0.03l-0.02,0.02
			C27.66,9.81,27.47,9.95,27.26,10.08z"/>
	</g>
	<g>
		<path d="M16.12,21.24l-0.07-0.04c0.29-0.47,0.45-0.99,0.59-1.49c0.21-0.71,0.42-1.44,1.02-2.04c0.6-0.6,1.33-0.81,2.04-1.02
			c0.7-0.2,1.42-0.42,2-1c0.58-0.58,0.8-1.31,1-2c0.21-0.71,0.42-1.44,1.02-2.04c0.6-0.6,1.33-0.81,2.04-1.02
			c0.19-0.06,0.39-0.11,0.58-0.18l0.03,0.08c-0.19,0.07-0.39,0.12-0.59,0.18c-0.7,0.2-1.42,0.42-2,1c-0.58,0.58-0.8,1.31-1,2
			c-0.21,0.71-0.42,1.44-1.02,2.04c-0.6,0.6-1.33,0.81-2.04,1.02c-0.7,0.2-1.42,0.42-2,1c-0.58,0.58-0.8,1.31-1,2
			C16.58,20.23,16.42,20.76,16.12,21.24z"/>
	</g>
	<g>
		<path d="M27.11,9.88l-0.04-0.07c0.13-0.08,0.26-0.18,0.38-0.28L27.5,9.6C27.38,9.7,27.25,9.79,27.11,9.88z"/>
	</g>
	<g>
		<path d="M18.46,16.91l-0.03-0.08c0.36-0.16,0.73-0.27,1.1-0.38c0.7-0.2,1.42-0.42,2-1c0.58-0.58,0.8-1.31,1-2
			c0.21-0.71,0.42-1.44,1.02-2.04c0.6-0.6,1.33-0.81,2.04-1.02c0.28-0.08,0.57-0.17,0.84-0.27l0.03,0.08
			c-0.28,0.11-0.57,0.19-0.85,0.28c-0.7,0.2-1.42,0.42-2,1c-0.58,0.58-0.8,1.31-1,2c-0.21,0.71-0.42,1.44-1.02,2.04
			c-0.6,0.6-1.33,0.81-2.04,1.02C19.19,16.64,18.81,16.75,18.46,16.91z"/>
	</g>
	<g>
		<path d="M16.08,20.81l-0.07-0.04c0.21-0.4,0.33-0.83,0.46-1.26c0.21-0.71,0.42-1.44,1.02-2.04c0.21-0.21,0.45-0.39,0.73-0.53
			l0.04,0.07c-0.27,0.14-0.5,0.32-0.71,0.52c-0.58,0.58-0.8,1.31-1,2C16.42,19.97,16.29,20.4,16.08,20.81z"/>
	</g>
	<g>
		<path d="M26.97,9.68l-0.04-0.07c0.07-0.04,0.13-0.09,0.19-0.13l0.05,0.07C27.1,9.59,27.03,9.63,26.97,9.68z"/>
	</g>
	<g>
		<path d="M18.32,16.71l-0.03-0.08c0.34-0.15,0.71-0.26,1.06-0.36c0.7-0.2,1.42-0.42,2-1c0.58-0.58,0.8-1.31,1-2
			c0.21-0.71,0.42-1.44,1.02-2.04c0.6-0.6,1.33-0.81,2.04-1.02c0.29-0.09,0.6-0.17,0.88-0.29L26.32,10
			c-0.29,0.12-0.6,0.21-0.89,0.29c-0.7,0.2-1.42,0.42-2,1c-0.58,0.58-0.8,1.31-1,2c-0.21,0.71-0.42,1.44-1.02,2.04
			c-0.6,0.6-1.33,0.81-2.04,1.02C19.02,16.46,18.66,16.56,18.32,16.71z"/>
	</g>
	<g>
		<path d="M16.19,19.92l-0.08-0.03c0.06-0.19,0.12-0.38,0.17-0.56c0.21-0.71,0.42-1.44,1.02-2.04c0.22-0.22,0.47-0.4,0.76-0.55
			l0.04,0.07c-0.29,0.15-0.53,0.33-0.74,0.54c-0.58,0.58-0.8,1.31-1,2C16.31,19.55,16.25,19.74,16.19,19.92z"/>
	</g>
	<g>
		<path d="M16.02,20.37l-0.08-0.03c0.03-0.07,0.06-0.15,0.09-0.22l0.08,0.03C16.08,20.23,16.05,20.3,16.02,20.37z"/>
	</g>
	<g>
		<path d="M16.02,19.7l-0.08-0.03c0.06-0.17,0.11-0.35,0.16-0.52c0.21-0.71,0.42-1.44,1.02-2.04c0.6-0.6,1.33-0.81,2.04-1.02
			c0.7-0.2,1.42-0.42,2-1c0.58-0.58,0.8-1.31,1-2c0.21-0.71,0.42-1.44,1.02-2.04c0.6-0.6,1.33-0.81,2.04-1.02
			c0.08-0.02,0.17-0.05,0.25-0.07l0.02,0.08c-0.08,0.03-0.17,0.05-0.25,0.07c-0.7,0.2-1.42,0.42-2,1c-0.58,0.58-0.8,1.31-1,2
			c-0.21,0.71-0.42,1.44-1.02,2.04c-0.6,0.6-1.33,0.81-2.04,1.02c-0.7,0.2-1.42,0.42-2,1c-0.58,0.58-0.8,1.31-1,2
			C16.13,19.35,16.08,19.53,16.02,19.7z"/>
	</g>
	<g>
		<path d="M15.93,19.24l-0.08-0.02c0.02-0.08,0.05-0.17,0.07-0.25c0.21-0.71,0.42-1.44,1.02-2.04c0.6-0.6,1.33-0.81,2.04-1.02
			c0.7-0.2,1.42-0.42,2-1c0.58-0.58,0.8-1.31,1-2c0.21-0.71,0.42-1.44,1.02-2.04c0.6-0.6,1.33-0.81,2.04-1.02l0.07-0.02l0.02,0.08
			l-0.07,0.02c-0.7,0.2-1.42,0.42-2,1c-0.58,0.58-0.8,1.31-1,2c-0.21,0.71-0.42,1.44-1.02,2.04c-0.6,0.6-1.33,0.81-2.04,1.02
			c-0.7,0.2-1.42,0.42-2,1c-0.58,0.58-0.8,1.31-1,2C15.98,19.08,15.95,19.16,15.93,19.24z"/>
	</g>
	<g>
		<path d="M15.83,18.79l-0.08-0.02c0.2-0.7,0.41-1.41,1.01-2.01c0.6-0.6,1.33-0.81,2.04-1.02c0.7-0.2,1.42-0.42,2-1
			c0.58-0.58,0.8-1.31,1-2c0.21-0.71,0.42-1.44,1.02-2.04c0.55-0.55,1.2-0.77,1.93-0.99l0.02,0.08c-0.72,0.21-1.35,0.43-1.89,0.97
			c-0.58,0.58-0.8,1.31-1,2c-0.21,0.71-0.42,1.44-1.02,2.04c-0.6,0.6-1.33,0.81-2.04,1.02c-0.7,0.2-1.42,0.42-2,1
			C16.23,17.39,16.03,18.1,15.83,18.79z"/>
	</g>
	<g>
		<path d="M17.99,15.83l-0.03-0.08c0.22-0.08,0.44-0.14,0.66-0.21c0.7-0.2,1.42-0.42,2-1c0.58-0.58,0.8-1.31,1-2
			c0.21-0.71,0.42-1.44,1.02-2.04c0.6-0.6,1.33-0.81,2.04-1.02c0.13-0.04,0.26-0.08,0.39-0.12l0.02,0.08
			c-0.13,0.04-0.26,0.08-0.39,0.12c-0.7,0.2-1.42,0.42-2,1c-0.58,0.58-0.8,1.31-1,2c-0.21,0.71-0.42,1.44-1.02,2.04
			c-0.6,0.6-1.33,0.81-2.04,1.02C18.42,15.69,18.2,15.76,17.99,15.83z"/>
	</g>
	<g>
		<path d="M15.66,18.56l-0.08-0.02c0.19-0.64,0.4-1.37,1-1.97c0.26-0.26,0.57-0.47,0.93-0.64l0.03,0.08
			c-0.36,0.17-0.66,0.37-0.91,0.62C16.05,17.21,15.84,17.93,15.66,18.56z"/>
	</g>
	<g>
		<path d="M19.66,15.02l-0.04-0.07c0.32-0.16,0.59-0.35,0.82-0.58c0.58-0.58,0.8-1.31,1-2c0.21-0.71,0.42-1.44,1.02-2.04
			c0.6-0.6,1.33-0.81,2.04-1.02c0.15-0.04,0.29-0.09,0.44-0.13l0.03,0.08c-0.15,0.05-0.29,0.09-0.44,0.13c-0.7,0.2-1.42,0.42-2,1
			c-0.58,0.58-0.8,1.31-1,2c-0.21,0.71-0.42,1.44-1.02,2.04C20.26,14.66,19.98,14.86,19.66,15.02z"/>
	</g>
	<g>
		<path d="M17.85,15.63l-0.03-0.08c0.2-0.07,0.41-0.13,0.61-0.19c0.32-0.09,0.66-0.19,0.97-0.32l0.03,0.08
			c-0.32,0.13-0.65,0.23-0.98,0.33C18.26,15.5,18.05,15.57,17.85,15.63z"/>
	</g>
	<g>
		<path d="M15.42,18.56l-0.08-0.02l0.03-0.11c0.21-0.71,0.42-1.44,1.02-2.04c0.22-0.22,0.47-0.4,0.76-0.55l0.04,0.07
			c-0.29,0.15-0.53,0.33-0.74,0.54c-0.58,0.58-0.8,1.31-1,2L15.42,18.56z"/>
	</g>
	<g>
		<rect x="9.27" y="24.53" transform="matrix(0.2845 -0.9587 0.9587 0.2845 -16.8862 26.5281)" width="0.12" height="0.08"/>
	</g>
	<g>
		<path d="M17.27,15.6l-0.03-0.08c0.33-0.14,0.68-0.24,1.01-0.34c0.7-0.2,1.42-0.42,2-1c0.58-0.58,0.8-1.31,1-2
			c0.21-0.71,0.42-1.44,1.02-2.04c0.6-0.6,1.33-0.81,2.04-1.02c0.08-0.02,0.17-0.05,0.25-0.08l0.02,0.08
			c-0.08,0.03-0.17,0.05-0.26,0.08c-0.7,0.2-1.42,0.42-2,1c-0.58,0.58-0.8,1.31-1,2c-0.21,0.71-0.42,1.44-1.02,2.04
			c-0.6,0.6-1.33,0.81-2.04,1.02C17.94,15.36,17.6,15.46,17.27,15.6z"/>
	</g>
	<g>
		<path d="M15.19,18.56l-0.08-0.02c0.03-0.1,0.06-0.19,0.09-0.29c0.21-0.71,0.42-1.44,1.02-2.04c0.18-0.18,0.37-0.33,0.59-0.46
			l0.04,0.07c-0.22,0.13-0.41,0.28-0.58,0.45c-0.58,0.58-0.8,1.31-1,2C15.24,18.37,15.22,18.46,15.19,18.56z"/>
	</g>
	<g>
		<path d="M9.12,24.65l-0.08-0.02c0.03-0.1,0.06-0.21,0.09-0.31l0.01-0.03l0.08,0.02l-0.01,0.03C9.18,24.44,9.15,24.54,9.12,24.65z"
			/>
	</g>
	<g>
		<path d="M23.77,9.13l-0.02-0.08c0.13-0.04,0.26-0.08,0.38-0.12l0.07-0.02L24.23,9l-0.07,0.02C24.03,9.06,23.9,9.09,23.77,9.13z"/>
	</g>
	<g>
		<path d="M19.38,14.61l-0.04-0.07c0.28-0.15,0.52-0.32,0.73-0.53c0.58-0.58,0.8-1.31,1-2c0.21-0.71,0.42-1.44,1.02-2.04
			c0.46-0.46,1.01-0.69,1.43-0.83l0.03,0.08c-0.44,0.15-0.95,0.36-1.39,0.81c-0.58,0.58-0.8,1.31-1,2
			c-0.21,0.71-0.42,1.44-1.02,2.04C19.92,14.28,19.67,14.46,19.38,14.61z"/>
	</g>
	<g>
		<path d="M17.35,15.32l-0.03-0.08c0.25-0.09,0.5-0.16,0.75-0.24c0.35-0.1,0.72-0.21,1.06-0.36l0.03,0.08
			c-0.35,0.16-0.71,0.26-1.07,0.37C17.85,15.15,17.6,15.23,17.35,15.32z"/>
	</g>
	<g>
		<path d="M14.95,18.56l-0.08-0.03c0.05-0.16,0.1-0.31,0.14-0.47c0.21-0.71,0.42-1.44,1.02-2.04c0.08-0.08,0.16-0.15,0.24-0.21
			l0.05,0.07c-0.08,0.06-0.16,0.13-0.23,0.21c-0.58,0.58-0.8,1.31-1,2C15.04,18.24,15,18.4,14.95,18.56z"/>
	</g>
	<g>
		<path d="M9.45,22.96l-0.07-0.04c0.16-0.33,0.35-0.6,0.59-0.84c0.21-0.21,0.45-0.38,0.72-0.53l0.04,0.07
			c-0.27,0.14-0.5,0.31-0.7,0.52C9.8,22.38,9.61,22.65,9.45,22.96z"/>
	</g>
	<g>
		<path d="M9.19,23.62L9.11,23.6c0.03-0.08,0.05-0.15,0.08-0.23l0.08,0.03C9.24,23.47,9.21,23.55,9.19,23.62z"/>
	</g>
	<g>
		<path d="M8.88,24.65L8.8,24.62c0.05-0.16,0.1-0.33,0.15-0.49l0.02-0.07l0.08,0.02l-0.02,0.07C8.98,24.31,8.93,24.48,8.88,24.65z"
			/>
	</g>
	<g>
		<path d="M23.86,8.87l-0.02-0.08l0.11-0.03c0.12-0.03,0.23-0.07,0.35-0.1l0.02,0.08c-0.12,0.04-0.23,0.07-0.35,0.1L23.86,8.87z"/>
	</g>
	<g>
		<path d="M21.99,9.82l-0.06-0.06c0.06-0.06,0.12-0.11,0.18-0.16l0.05,0.06C22.11,9.71,22.05,9.76,21.99,9.82z"/>
	</g>
	<g>
		<path d="M19.45,14.29l-0.04-0.07c0.18-0.12,0.34-0.25,0.49-0.39c0.58-0.58,0.8-1.31,1-2c0.19-0.65,0.38-1.31,0.87-1.88l0.06,0.05
			c-0.48,0.55-0.67,1.21-0.86,1.85c-0.21,0.71-0.42,1.44-1.02,2.04C19.8,14.03,19.63,14.17,19.45,14.29z"/>
	</g>
	<g>
		<path d="M18.58,14.69l-0.03-0.08c0.25-0.09,0.46-0.18,0.65-0.28l0.04,0.07C19.05,14.51,18.83,14.6,18.58,14.69z"/>
	</g>
	<g>
		<path d="M17.21,15.12l-0.03-0.08c0.23-0.08,0.47-0.15,0.7-0.22c0.15-0.04,0.29-0.09,0.44-0.13l0.03,0.08
			c-0.14,0.05-0.29,0.09-0.44,0.13C17.68,14.97,17.44,15.04,17.21,15.12z"/>
	</g>
	<g>
		<path d="M16.78,15.3l-0.04-0.08c0.07-0.03,0.15-0.07,0.22-0.1l0.03,0.08C16.92,15.23,16.85,15.27,16.78,15.3z"/>
	</g>
	<g>
		<path d="M14.7,18.56l-0.08-0.03c0.08-0.22,0.14-0.44,0.2-0.65c0.21-0.71,0.42-1.44,1.02-2.04c0.03-0.03,0.06-0.06,0.09-0.09
			L16,15.82c-0.03,0.03-0.06,0.06-0.09,0.08c-0.58,0.58-0.8,1.31-1,2C14.85,18.12,14.78,18.34,14.7,18.56z"/>
	</g>
	<g>
		<path d="M11.02,21.23l-0.03-0.08c0.07-0.03,0.15-0.06,0.23-0.08l0.03,0.08C11.17,21.18,11.09,21.2,11.02,21.23z"/>
	</g>
	<g>
		<path d="M8.67,24.53l-0.08-0.03c0.06-0.19,0.12-0.38,0.17-0.56c0.21-0.71,0.42-1.44,1.02-2.04c0.27-0.27,0.59-0.49,0.98-0.66
			l0.03,0.08c-0.38,0.17-0.69,0.38-0.95,0.64c-0.58,0.58-0.8,1.31-1,2C8.79,24.15,8.73,24.35,8.67,24.53z"/>
	</g>
	<g>
		<path d="M23.72,8.68L23.7,8.6l0.07-0.02c0.13-0.04,0.26-0.08,0.38-0.12l0.02,0.08c-0.13,0.04-0.26,0.08-0.39,0.12L23.72,8.68z"/>
	</g>
	<g>
		<path d="M18.44,14.5l-0.03-0.08c0.56-0.2,0.96-0.44,1.3-0.78c0.58-0.58,0.8-1.31,1-2c0.15-0.52,0.31-1.05,0.61-1.53l0.07,0.04
			c-0.3,0.47-0.45,1-0.6,1.51c-0.21,0.71-0.42,1.44-1.02,2.04C19.42,14.04,19.01,14.29,18.44,14.5z"/>
	</g>
	<g>
		<path d="M16.63,15.1l-0.03-0.08c0.3-0.14,0.61-0.24,0.9-0.32l0.02,0.08C17.23,14.87,16.93,14.96,16.63,15.1z"/>
	</g>
	<g>
		<path d="M14.45,18.56l-0.08-0.03c0.11-0.27,0.19-0.56,0.27-0.83c0.21-0.71,0.42-1.44,1.02-2.04c0.21-0.21,0.44-0.38,0.72-0.53
			l0.04,0.07c-0.27,0.14-0.49,0.31-0.7,0.51c-0.58,0.58-0.8,1.31-1,2C14.65,18,14.56,18.29,14.45,18.56z"/>
	</g>
	<g>
		<path d="M8.5,24.31l-0.08-0.03c0.06-0.17,0.11-0.35,0.16-0.52C8.79,23.05,9,22.32,9.6,21.72c0.55-0.55,1.2-0.77,1.93-0.99
			l0.02,0.08c-0.72,0.21-1.35,0.43-1.89,0.97c-0.58,0.58-0.8,1.31-1,2C8.61,23.96,8.56,24.14,8.5,24.31z"/>
	</g>
	<g>
		<path d="M23.35,8.55l-0.02-0.08c0.09-0.03,0.17-0.05,0.26-0.08l0.2-0.06l0.02,0.08l-0.2,0.06C23.53,8.5,23.44,8.52,23.35,8.55z"/>
	</g>
	<g>
		<path d="M17.84,14.45l-0.02-0.08c0.56-0.17,1.19-0.39,1.71-0.91c0.58-0.58,0.8-1.31,1-2c0.18-0.6,0.36-1.22,0.78-1.76l0.07,0.05
			c-0.41,0.53-0.59,1.14-0.76,1.73c-0.21,0.71-0.42,1.44-1.02,2.04C19.05,14.05,18.4,14.28,17.84,14.45z"/>
	</g>
	<g>
		<path d="M16.28,15l-0.04-0.07c0.41-0.22,0.86-0.35,1.29-0.47l0.06-0.02l0.02,0.08l-0.06,0.02C17.12,14.66,16.68,14.79,16.28,15z"
			/>
	</g>
	<g>
		<path d="M14.2,18.57l-0.08-0.03c0.14-0.33,0.25-0.68,0.34-1.02c0.21-0.71,0.42-1.44,1.02-2.04c0.11-0.11,0.22-0.21,0.34-0.29
			l0.05,0.07c-0.12,0.09-0.23,0.18-0.33,0.29c-0.58,0.58-0.8,1.31-1,2C14.45,17.88,14.34,18.23,14.2,18.57z"/>
	</g>
	<g>
		<path d="M8.33,24.09l-0.08-0.03c0.05-0.16,0.1-0.32,0.15-0.48c0.21-0.71,0.42-1.44,1.02-2.04c0.6-0.6,1.33-0.81,2.04-1.02
			l0.15-0.05l0.02,0.08l-0.15,0.05c-0.7,0.2-1.42,0.42-2,1c-0.58,0.58-0.8,1.31-1,2C8.43,23.76,8.39,23.93,8.33,24.09z"/>
	</g>
	<g>
		<path d="M22.98,8.43l-0.03-0.08c0.15-0.05,0.3-0.09,0.45-0.14c0.08-0.02,0.15-0.05,0.23-0.07l0.02,0.08
			c-0.08,0.02-0.15,0.05-0.23,0.07C23.28,8.33,23.13,8.38,22.98,8.43z"/>
	</g>
	<g>
		<path d="M16.56,14.61l-0.03-0.08c0.27-0.1,0.54-0.18,0.81-0.26c0.7-0.2,1.42-0.42,2-1c0.58-0.58,0.8-1.31,1-2
			c0.07-0.24,0.14-0.49,0.23-0.74l0.08,0.03c-0.09,0.24-0.16,0.49-0.23,0.73C20.22,12,20,12.73,19.41,13.33
			c-0.6,0.6-1.33,0.81-2.04,1.02C17.1,14.43,16.82,14.51,16.56,14.61z"/>
	</g>
	<g>
		<path d="M16.13,14.8l-0.04-0.07c0.07-0.04,0.14-0.07,0.22-0.1l0.03,0.08C16.27,14.74,16.2,14.77,16.13,14.8z"/>
	</g>
	<g>
		<path d="M15.73,15.05l-0.05-0.07c0.06-0.05,0.13-0.09,0.2-0.13l0.04,0.07C15.86,14.96,15.79,15,15.73,15.05z"/>
	</g>
	<g>
		<path d="M13.93,18.57l-0.07-0.04c0.19-0.38,0.31-0.8,0.43-1.2c0.21-0.71,0.42-1.44,1.02-2.04l0.03,0.02l0.03,0.03
			c-0.59,0.59-0.8,1.31-1,2.01C14.24,17.76,14.12,18.18,13.93,18.57z"/>
	</g>
	<g>
		<path d="M8.3,23.41l-0.08-0.02c0.21-0.7,0.42-1.43,1.02-2.03c0.6-0.6,1.33-0.81,2.04-1.02c0.14-0.04,0.28-0.08,0.42-0.13
			l0.03,0.08c-0.14,0.04-0.28,0.08-0.42,0.13c-0.7,0.2-1.42,0.42-2,1C8.71,22,8.5,22.72,8.3,23.41z"/>
	</g>
	<g>
		<path d="M22.83,8.24L22.8,8.16c0.14-0.04,0.28-0.09,0.42-0.13C23.31,8,23.4,7.98,23.49,7.95l0.02,0.08
			c-0.09,0.03-0.18,0.05-0.26,0.08C23.11,8.15,22.97,8.19,22.83,8.24z"/>
	</g>
	<g>
		<path d="M15.77,14.72l-0.04-0.07c0.45-0.27,0.95-0.41,1.44-0.56c0.7-0.2,1.42-0.42,2-1c0.58-0.58,0.8-1.31,1-2
			c0.05-0.18,0.11-0.36,0.16-0.54l0.08,0.03c-0.06,0.18-0.11,0.36-0.16,0.54c-0.21,0.71-0.42,1.44-1.02,2.04
			c-0.6,0.6-1.33,0.81-2.04,1.02C16.71,14.31,16.21,14.46,15.77,14.72z"/>
	</g>
	<g>
		<path d="M13.76,18.36l-0.07-0.04c0.18-0.37,0.3-0.78,0.41-1.17c0.19-0.65,0.39-1.32,0.88-1.89l0.06,0.05
			c-0.48,0.55-0.68,1.22-0.86,1.86C14.07,17.57,13.95,17.98,13.76,18.36z"/>
	</g>
	<g>
		<path d="M8.52,22.09l-0.08-0.04c0.16-0.34,0.36-0.63,0.61-0.87c0.6-0.6,1.33-0.81,2.04-1.02c0.22-0.06,0.45-0.13,0.67-0.21
			l0.03,0.08c-0.22,0.08-0.45,0.15-0.68,0.21c-0.7,0.2-1.42,0.42-2,1C8.88,21.48,8.68,21.75,8.52,22.09z"/>
	</g>
	<g>
		<rect x="22.88" y="7.86" transform="matrix(0.9588 -0.2842 0.2842 0.9588 -1.2979 6.8618)" width="0.24" height="0.08"/>
	</g>
	<g>
		<path d="M20.88,9.13l-0.06-0.05c0.05-0.06,0.11-0.13,0.17-0.19l0.06,0.06C20.99,9,20.93,9.06,20.88,9.13z"/>
	</g>
	<g>
		<path d="M15.81,14.42l-0.04-0.07c0.39-0.19,0.8-0.31,1.2-0.43c0.7-0.2,1.42-0.42,2-1c0.58-0.58,0.8-1.31,1-2
			c0.05-0.18,0.11-0.38,0.17-0.56l0.08,0.03c-0.06,0.18-0.12,0.37-0.17,0.56c-0.21,0.71-0.42,1.44-1.02,2.04
			c-0.6,0.6-1.33,0.81-2.04,1.02C16.6,14.11,16.19,14.23,15.81,14.42z"/>
	</g>
	<g>
		<path d="M13.69,17.93l-0.08-0.03c0.12-0.3,0.22-0.62,0.31-0.93c0.21-0.71,0.42-1.44,1.02-2.04c0.13-0.13,0.27-0.25,0.42-0.35
			l0.05,0.07c-0.15,0.1-0.28,0.21-0.41,0.34c-0.58,0.58-0.8,1.31-1,2C13.91,17.31,13.81,17.63,13.69,17.93z"/>
	</g>
	<g>
		<path d="M8.59,21.48l-0.07-0.05c0.11-0.16,0.23-0.3,0.36-0.44c0.6-0.6,1.33-0.81,2.04-1.02c0.3-0.09,0.62-0.18,0.91-0.3l0.03,0.08
			c-0.3,0.12-0.62,0.21-0.92,0.3c-0.7,0.2-1.42,0.42-2,1C8.81,21.18,8.69,21.33,8.59,21.48z"/>
	</g>
	<g>
		<path d="M20.22,9.74L20.15,9.7c0.1-0.24,0.22-0.44,0.35-0.63l0.07,0.05C20.44,9.3,20.32,9.51,20.22,9.74z"/>
	</g>
	<g>
		<path d="M19.98,10.4l-0.08-0.02c0.02-0.08,0.05-0.15,0.07-0.23l0.08,0.03C20.03,10.25,20.01,10.33,19.98,10.4z"/>
	</g>
	<g>
		<path d="M14.42,15.3l-0.07-0.04c0.12-0.19,0.25-0.35,0.41-0.51c0.6-0.6,1.33-0.81,2.04-1.02c0.7-0.2,1.42-0.42,2-1
			c0.58-0.58,0.8-1.31,1-2l0.03-0.12l0.08,0.02l-0.03,0.12c-0.21,0.71-0.42,1.44-1.02,2.04c-0.6,0.6-1.33,0.81-2.04,1.02
			c-0.7,0.2-1.42,0.42-2,1C14.67,14.96,14.54,15.12,14.42,15.3z"/>
	</g>
	<g>
		<path d="M13.51,17.74l-0.08-0.03c0.12-0.3,0.21-0.61,0.3-0.92c0.11-0.37,0.22-0.75,0.39-1.11l0.08,0.03
			c-0.16,0.35-0.27,0.73-0.38,1.1C13.73,17.12,13.63,17.44,13.51,17.74z"/>
	</g>
	<g>
		<path d="M8.71,20.92l-0.06-0.06c0.02-0.02,0.03-0.03,0.05-0.05c0.6-0.6,1.33-0.81,2.04-1.02c0.38-0.11,0.78-0.23,1.14-0.4
			l0.04,0.08c-0.37,0.18-0.77,0.29-1.15,0.41c-0.7,0.2-1.42,0.42-2,1C8.74,20.89,8.72,20.91,8.71,20.92z"/>
	</g>
	<g>
		<path d="M19.73,10.45l-0.08-0.02c0.14-0.46,0.28-0.92,0.53-1.33l0.07,0.04C20.01,9.55,19.87,9.99,19.73,10.45z"/>
	</g>
	<g>
		<path d="M14.12,15.32l-0.07-0.04c0.15-0.27,0.32-0.51,0.53-0.72c0.6-0.6,1.33-0.81,2.04-1.02c0.7-0.2,1.42-0.42,2-1
			c0.54-0.54,0.76-1.17,0.97-1.89l0.08,0.02c-0.21,0.73-0.44,1.37-0.99,1.93c-0.6,0.6-1.33,0.81-2.04,1.02c-0.7,0.2-1.42,0.42-2,1
			C14.43,14.83,14.26,15.06,14.12,15.32z"/>
	</g>
	<g>
		<path d="M13.49,17.11l-0.08-0.03c0.05-0.16,0.1-0.32,0.15-0.48l0.06-0.2l0.08,0.02l-0.06,0.2C13.59,16.79,13.54,16.95,13.49,17.11
			z"/>
	</g>
	<g>
		<path d="M8.69,20.58l-0.06-0.06c0.57-0.51,1.25-0.71,1.91-0.9c0.31-0.09,0.62-0.18,0.92-0.31l0.03,0.08
			c-0.3,0.12-0.62,0.22-0.93,0.31C9.92,19.88,9.25,20.08,8.69,20.58z"/>
	</g>
	<g>
		<path d="M19.76,9.61l-0.08-0.03c0.03-0.07,0.06-0.15,0.09-0.22l0.08,0.03C19.82,9.47,19.79,9.54,19.76,9.61z"/>
	</g>
	<g>
		<path d="M19.54,10.29l-0.08-0.02c0.04-0.15,0.09-0.3,0.14-0.46l0.08,0.03C19.63,9.99,19.59,10.15,19.54,10.29z"/>
	</g>
	<g>
		<path d="M14.85,14.11l-0.05-0.07c0.51-0.35,1.08-0.52,1.63-0.68c0.7-0.2,1.42-0.42,2-1c0.54-0.54,0.75-1.16,0.96-1.87l0.08,0.02
			c-0.21,0.72-0.43,1.35-0.98,1.9c-0.6,0.6-1.33,0.81-2.04,1.02C15.91,13.61,15.35,13.77,14.85,14.11z"/>
	</g>
	<g>
		<path d="M14.18,14.76l-0.07-0.05c0.09-0.12,0.18-0.23,0.28-0.33l0.04-0.04l0.06,0.06l-0.04,0.04
			C14.35,14.54,14.26,14.65,14.18,14.76z"/>
	</g>
	<g>
		<path d="M8.33,20.57l-0.06-0.06c0.02-0.02,0.04-0.05,0.07-0.07c0.6-0.6,1.33-0.81,2.04-1.02c0.3-0.09,0.61-0.18,0.9-0.3l0.03,0.08
			c-0.3,0.12-0.61,0.21-0.91,0.3c-0.7,0.2-1.42,0.42-2,1C8.37,20.53,8.35,20.55,8.33,20.57z"/>
	</g>
	<g>
		<path d="M20.44,8.1l-0.06-0.06c0.12-0.11,0.25-0.21,0.38-0.29l0.05,0.07C20.68,7.9,20.55,8,20.44,8.1z"/>
	</g>
	<g>
		<path d="M19.14,10.84l-0.08-0.03c0.03-0.07,0.05-0.15,0.07-0.23l0.08,0.03C19.19,10.69,19.16,10.77,19.14,10.84z"/>
	</g>
	<g>
		<path d="M14.63,13.96l-0.05-0.07c0.52-0.37,1.1-0.54,1.67-0.71c0.7-0.2,1.42-0.42,2-1c0.31-0.31,0.53-0.67,0.72-1.15l0.08,0.03
			c-0.19,0.49-0.43,0.86-0.74,1.17c-0.6,0.6-1.33,0.81-2.04,1.02C15.71,13.43,15.13,13.6,14.63,13.96z"/>
	</g>
	<g>
		<path d="M8.28,20.26L8.22,20.2c0.59-0.55,1.29-0.75,1.97-0.95c0.21-0.06,0.43-0.12,0.64-0.2l0.03,0.08
			c-0.21,0.07-0.43,0.14-0.64,0.2C9.54,19.52,8.85,19.73,8.28,20.26z"/>
	</g>
	<g>
		<path d="M19.88,8.34l-0.07-0.05c0.09-0.12,0.18-0.23,0.29-0.33c0.07-0.07,0.14-0.13,0.21-0.19l0.05,0.06
			c-0.07,0.06-0.14,0.12-0.21,0.19C20.05,8.12,19.96,8.23,19.88,8.34z"/>
	</g>
	<g>
		<path d="M16.78,12.87l-0.03-0.08c0.39-0.14,0.89-0.35,1.33-0.79c0.33-0.33,0.57-0.73,0.77-1.28l0.08,0.03
			c-0.2,0.56-0.45,0.97-0.79,1.31C17.68,12.51,17.17,12.73,16.78,12.87z"/>
	</g>
	<g>
		<path d="M15.41,13.29l-0.03-0.08c0.23-0.08,0.46-0.15,0.69-0.21c0.15-0.04,0.3-0.09,0.45-0.14l0.03,0.08
			c-0.15,0.05-0.3,0.09-0.46,0.14C15.87,13.15,15.64,13.22,15.41,13.29z"/>
	</g>
	<g>
		<path d="M14.76,13.58l-0.04-0.07c0.13-0.07,0.28-0.14,0.44-0.2l0.03,0.08C15.04,13.44,14.9,13.51,14.76,13.58z"/>
	</g>
	<g>
		<path d="M8.2,19.99l-0.05-0.06c0.56-0.48,1.22-0.67,1.86-0.86c0.25-0.07,0.52-0.15,0.77-0.24l0.03,0.08
			c-0.25,0.09-0.52,0.17-0.77,0.25C9.4,19.33,8.75,19.52,8.2,19.99z"/>
	</g>
	<g>
		<path d="M19.74,8.1l-0.07-0.05c0.07-0.1,0.16-0.19,0.24-0.27c0.09-0.09,0.18-0.17,0.27-0.24l0.05,0.07
			c-0.09,0.07-0.18,0.15-0.26,0.23C19.89,7.92,19.81,8.01,19.74,8.1z"/>
	</g>
	<g>
		<path d="M18.48,11.16l-0.07-0.04c0.04-0.07,0.07-0.14,0.1-0.21l0.08,0.03C18.55,11.02,18.52,11.09,18.48,11.16z"/>
	</g>
	<g>
		<path d="M17.1,12.47l-0.04-0.07c0.32-0.16,0.59-0.35,0.82-0.58c0.15-0.15,0.28-0.31,0.4-0.49l0.07,0.04
			c-0.12,0.19-0.25,0.35-0.41,0.51C17.71,12.12,17.43,12.31,17.1,12.47z"/>
	</g>
	<g>
		<path d="M16.66,12.66l-0.03-0.08c0.07-0.03,0.15-0.06,0.22-0.09l0.03,0.08C16.81,12.6,16.74,12.63,16.66,12.66z"/>
	</g>
	<g>
		<path d="M16.21,12.81l-0.02-0.08c0.08-0.02,0.15-0.05,0.23-0.07l0.03,0.08C16.36,12.76,16.28,12.79,16.21,12.81z"/>
	</g>
	<g>
		<rect x="15.73" y="12.83" transform="matrix(0.9588 -0.2842 0.2842 0.9588 -3.0048 5.036)" width="0.24" height="0.08"/>
	</g>
	<g>
		<path d="M14.44,13.48l-0.04-0.07c0.19-0.12,0.4-0.22,0.65-0.32l0.03,0.08C14.83,13.26,14.63,13.36,14.44,13.48z"/>
	</g>
	<g>
		<path d="M8.07,19.76l-0.05-0.06c0.55-0.44,1.19-0.63,1.8-0.81c0.2-0.06,0.41-0.12,0.61-0.19l0.03,0.08
			c-0.2,0.07-0.41,0.13-0.62,0.19C9.24,19.14,8.61,19.33,8.07,19.76z"/>
	</g>
	<g>
		<path d="M19.4,8.14l-0.07-0.05c0.04-0.07,0.09-0.13,0.14-0.2l0.07,0.05C19.49,8.01,19.44,8.07,19.4,8.14z"/>
	</g>
	<g>
		<path d="M18.16,11.22l-0.07-0.05c0.08-0.13,0.16-0.26,0.23-0.41l0.08,0.04C18.32,10.95,18.24,11.09,18.16,11.22z"/>
	</g>
	<g>
		<path d="M16.89,12.31l-0.04-0.08c0.33-0.16,0.61-0.35,0.85-0.6c0.09-0.09,0.17-0.18,0.24-0.27l0.07,0.05
			c-0.08,0.1-0.16,0.19-0.25,0.28C17.52,11.94,17.23,12.14,16.89,12.31z"/>
	</g>
	<g>
		<path d="M15.76,12.71l-0.02-0.08c0.24-0.07,0.46-0.14,0.68-0.21l0.03,0.08C16.23,12.57,16.01,12.64,15.76,12.71z"/>
	</g>
	<g>
		<path d="M14.04,13.45l-0.05-0.07c0.29-0.22,0.62-0.39,1.07-0.54l0.03,0.08C14.65,13.07,14.32,13.23,14.04,13.45z"/>
	</g>
	<g>
		<path d="M7.86,19.6l-0.05-0.06c0.56-0.46,1.2-0.65,1.83-0.83c0.27-0.08,0.54-0.16,0.8-0.26l0.03,0.08
			c-0.27,0.1-0.54,0.18-0.81,0.26C9.05,18.96,8.4,19.15,7.86,19.6z"/>
	</g>
	<g>
		<path d="M19.14,8.08l-0.07-0.04c0.04-0.07,0.08-0.14,0.13-0.2l0.07,0.05C19.22,7.95,19.18,8.01,19.14,8.08z"/>
	</g>
	<g>
		<path d="M15.67,12.5l-0.02-0.08c0.71-0.21,1.34-0.43,1.88-0.96c0.26-0.26,0.47-0.58,0.64-0.96l0.08,0.03
			c-0.17,0.39-0.39,0.71-0.66,0.98C17.04,12.07,16.39,12.29,15.67,12.5z"/>
	</g>
	<g>
		<path d="M14.55,12.87l-0.03-0.08c0.07-0.03,0.15-0.06,0.22-0.09l0.03,0.08C14.69,12.81,14.62,12.84,14.55,12.87z"/>
	</g>
	<g>
		<path d="M13.93,13.21l-0.05-0.07c0.13-0.09,0.26-0.17,0.41-0.25l0.04,0.07C14.19,13.05,14.05,13.13,13.93,13.21z"/>
	</g>
	<g>
		<path d="M7.75,19.36L7.7,19.29c0.54-0.42,1.16-0.6,1.76-0.77c0.22-0.06,0.45-0.13,0.67-0.21l0.03,0.08
			c-0.22,0.08-0.45,0.14-0.67,0.21C8.89,18.77,8.28,18.95,7.75,19.36z"/>
	</g>
	<g>
		<path d="M18.79,8.23l-0.08-0.03c0.07-0.15,0.14-0.29,0.23-0.43l0.07,0.04C18.93,7.94,18.86,8.08,18.79,8.23z"/>
	</g>
	<g>
		<path d="M15.37,12.35l-0.03-0.08l0.01,0c0.7-0.2,1.42-0.42,2-1c0.19-0.19,0.34-0.39,0.48-0.63l0.07,0.04
			c-0.14,0.24-0.3,0.45-0.49,0.64C16.8,11.93,16.07,12.15,15.37,12.35z"/>
	</g>
	<g>
		<path d="M14.46,12.65l-0.03-0.08c0.13-0.05,0.28-0.11,0.45-0.16l0.03,0.08C14.73,12.55,14.59,12.6,14.46,12.65z"/>
	</g>
	<g>
		<path d="M13.83,12.98l-0.05-0.07c0.13-0.09,0.27-0.16,0.42-0.23l0.04,0.08C14.09,12.82,13.96,12.89,13.83,12.98z"/>
	</g>
	<g>
		<path d="M7.85,18.99L7.8,18.92c0.47-0.28,0.98-0.43,1.48-0.58c0.18-0.05,0.36-0.11,0.54-0.16l0.03,0.08
			c-0.18,0.06-0.36,0.11-0.54,0.16C8.81,18.56,8.3,18.71,7.85,18.99z"/>
	</g>
	<g>
		<path d="M15.38,12.11l-0.02-0.08c0.65-0.19,1.27-0.41,1.8-0.94c0.23-0.23,0.42-0.5,0.58-0.82l0.07,0.04
			c-0.16,0.33-0.35,0.6-0.59,0.84C16.68,11.7,16.04,11.92,15.38,12.11z"/>
	</g>
	<g>
		<path d="M14.25,12.48l-0.03-0.08c0.13-0.05,0.28-0.11,0.45-0.16l0.03,0.08C14.53,12.37,14.39,12.43,14.25,12.48z"/>
	</g>
	<g>
		<path d="M8.06,18.6l-0.03-0.08c0.35-0.16,0.71-0.26,1.07-0.37c0.17-0.05,0.35-0.1,0.52-0.16l0.03,0.08
			c-0.17,0.06-0.35,0.11-0.52,0.16C8.77,18.34,8.4,18.45,8.06,18.6z"/>
	</g>
	<g>
		<path d="M15.51,11.84l-0.03-0.08c0.48-0.16,1.03-0.38,1.5-0.85c0.2-0.2,0.36-0.42,0.51-0.68l0.07,0.04
			c-0.15,0.27-0.32,0.49-0.52,0.7C16.56,11.45,16,11.68,15.51,11.84z"/>
	</g>
	<g>
		<path d="M7.95,18.38l-0.03-0.08c0.32-0.14,0.66-0.24,0.99-0.33c0.12-0.04,0.25-0.07,0.37-0.11l0.02,0.08
			c-0.12,0.04-0.25,0.07-0.37,0.11C8.61,18.15,8.27,18.25,7.95,18.38z"/>
	</g>
	<g>
		<path d="M15.91,11.43l-0.03-0.08c0.36-0.17,0.67-0.37,0.92-0.63c0.18-0.18,0.33-0.38,0.46-0.6l0.07,0.04
			c-0.14,0.23-0.29,0.44-0.47,0.62C16.6,11.05,16.29,11.26,15.91,11.43z"/>
	</g>
	<g>
		<path d="M8.36,17.99l-0.02-0.08c0.13-0.04,0.27-0.08,0.4-0.12c0.09-0.03,0.19-0.06,0.28-0.08l0.02,0.08
			c-0.09,0.03-0.19,0.06-0.28,0.08C8.62,17.91,8.49,17.95,8.36,17.99z"/>
	</g>
	<g>
		<path d="M7.69,18.24l-0.03-0.08c0.13-0.06,0.28-0.12,0.45-0.18l0.03,0.08C7.97,18.12,7.82,18.18,7.69,18.24z"/>
	</g>
	<g>
		<path d="M16.12,11.05l-0.04-0.07c0.2-0.12,0.38-0.26,0.55-0.43c0.11-0.11,0.22-0.24,0.31-0.37L17,10.23
			c-0.1,0.13-0.2,0.26-0.32,0.38C16.51,10.77,16.32,10.92,16.12,11.05z"/>
	</g>
	<g>
		<path d="M8.58,17.69l-0.02-0.08c0.15-0.04,0.3-0.09,0.46-0.14l0.03,0.08C8.89,17.6,8.74,17.64,8.58,17.69z"/>
	</g>
	<g>
		<path d="M7.47,18.08L7.43,18c0.07-0.03,0.15-0.07,0.22-0.1l0.03,0.08C7.61,18.01,7.54,18.04,7.47,18.08z"/>
	</g>
	<g>
		<path d="M8.26,17.55l-0.02-0.08l0.14-0.04c0.11-0.03,0.21-0.06,0.32-0.09l0.02,0.08c-0.11,0.03-0.21,0.06-0.32,0.1L8.26,17.55z"/>
	</g>
	<g>
		<path d="M7.15,17.96l-0.04-0.07c0.13-0.07,0.28-0.13,0.44-0.19l0.03,0.08C7.42,17.83,7.28,17.89,7.15,17.96z"/>
	</g>
	<g>
		<path d="M12.96,11.75l-0.04-0.07c0.25-0.13,0.52-0.25,0.89-0.36l0.03,0.08C13.47,11.51,13.2,11.62,12.96,11.75z"/>
	</g>
	<g>
		<path d="M7.86,17.43l-0.02-0.08c0.08-0.02,0.15-0.05,0.23-0.07l0.02,0.08C8.01,17.39,7.93,17.41,7.86,17.43z"/>
	</g>
	<g>
		<path d="M6.98,17.77L6.94,17.7c0.19-0.1,0.41-0.19,0.67-0.27l0.03,0.08C7.38,17.59,7.17,17.68,6.98,17.77z"/>
	</g>
	<g>
		<path d="M12.77,11.57l-0.04-0.07c0.34-0.18,0.69-0.31,1.12-0.43l0.02,0.08C13.45,11.27,13.1,11.39,12.77,11.57z"/>
	</g>
	<g>
		<path d="M7.9,17.18L7.87,17.1l0.14-0.04c0.11-0.03,0.21-0.06,0.32-0.1l0.02,0.08c-0.11,0.03-0.21,0.06-0.32,0.1L7.9,17.18z"/>
	</g>
	<g>
		<path d="M6.79,17.59l-0.04-0.07c0.13-0.07,0.28-0.13,0.44-0.19l0.03,0.08C7.06,17.46,6.92,17.53,6.79,17.59z"/>
	</g>
	<g>
		<path d="M12.57,11.4l-0.04-0.07c0.13-0.07,0.28-0.14,0.43-0.21L13,11.2C12.84,11.26,12.7,11.33,12.57,11.4z"/>
	</g>
	<g>
		<path d="M7.7,17.01l-0.02-0.08l0.15-0.04c0.1-0.03,0.21-0.06,0.31-0.09l0.02,0.08c-0.1,0.03-0.21,0.06-0.31,0.09L7.7,17.01z"/>
	</g>
	<g>
		<path d="M6.59,17.42l-0.04-0.07c0.31-0.16,0.64-0.27,0.89-0.35l0.02,0.08C7.22,17.15,6.9,17.26,6.59,17.42z"/>
	</g>
	<g>
		<path d="M6.18,17.37L6.14,17.3c0.13-0.08,0.27-0.16,0.43-0.23l0.03,0.08C6.44,17.22,6.31,17.29,6.18,17.37z"/>
	</g>
	<g>
		<path d="M11.77,11.33l-0.05-0.06c0.12-0.1,0.26-0.19,0.4-0.27l0.04,0.07C12.02,11.15,11.89,11.24,11.77,11.33z"/>
	</g>
	<g>
		<path d="M11.03,12.24l-0.07-0.04c0.15-0.28,0.32-0.51,0.53-0.72c0.02-0.02,0.03-0.03,0.05-0.05l0.06,0.06
			c-0.02,0.02-0.03,0.03-0.05,0.05C11.34,11.74,11.17,11.97,11.03,12.24z"/>
	</g>
	<g>
		<path d="M7.73,16.53l-0.02-0.08c0.08-0.02,0.15-0.05,0.23-0.07l0.03,0.08C7.88,16.48,7.81,16.5,7.73,16.53z"/>
	</g>
	<g>
		<path d="M5.78,17.34l-0.05-0.07c0.24-0.18,0.51-0.33,0.84-0.46l0.03,0.08C6.28,17.01,6.01,17.16,5.78,17.34z"/>
	</g>
	<g>
		<path d="M10.83,12.09l-0.07-0.04c0.15-0.29,0.33-0.54,0.55-0.76c0.48-0.48,1.02-0.71,1.7-0.92l0.02,0.08
			c-0.66,0.2-1.2,0.44-1.66,0.9C11.15,11.56,10.97,11.81,10.83,12.09z"/>
	</g>
	<g>
		<path d="M10.12,14.1l-0.08-0.03c0.05-0.13,0.09-0.27,0.15-0.45l0.08,0.02C10.22,13.83,10.17,13.97,10.12,14.1z"/>
	</g>
	<g>
		<path d="M7.74,16.28l-0.03-0.08c0.08-0.02,0.15-0.05,0.22-0.07l0.03,0.08C7.89,16.24,7.81,16.26,7.74,16.28z"/>
	</g>
	<g>
		<path d="M5.76,17.04l-0.05-0.07c0.19-0.12,0.4-0.23,0.64-0.33l0.03,0.08C6.14,16.82,5.94,16.92,5.76,17.04z"/>
	</g>
	<g>
		<path d="M10.62,11.94l-0.07-0.04c0.16-0.31,0.34-0.57,0.57-0.79c0.55-0.55,1.21-0.77,1.89-0.98l0.02,0.08
			c-0.67,0.2-1.32,0.42-1.85,0.96C10.96,11.39,10.78,11.65,10.62,11.94z"/>
	</g>
	<g>
		<path d="M9.93,13.96l-0.08-0.03c0.1-0.26,0.17-0.52,0.25-0.78l0.04-0.12l0.08,0.02l-0.04,0.12C10.1,13.43,10.02,13.7,9.93,13.96z"
			/>
	</g>
	<g>
		<path d="M7.06,16.25l-0.02-0.08l0.06-0.02c0.28-0.08,0.57-0.17,0.84-0.27l0.03,0.08c-0.28,0.11-0.57,0.19-0.85,0.28L7.06,16.25z"
			/>
	</g>
	<g>
		<path d="M6.6,16.39l-0.03-0.08c0.08-0.02,0.15-0.05,0.23-0.07l0.02,0.08C6.75,16.34,6.68,16.37,6.6,16.39z"/>
	</g>
	<g>
		<path d="M5.54,16.89l-0.05-0.07c0.24-0.17,0.52-0.3,0.86-0.43l0.03,0.08C6.04,16.59,5.78,16.72,5.54,16.89z"/>
	</g>
	<g>
		<path d="M10.42,11.8l-0.07-0.04c0.16-0.33,0.35-0.6,0.59-0.84c0.6-0.6,1.33-0.81,2.04-1.02l0.03-0.01l0.02,0.08L13,9.99
			c-0.7,0.2-1.42,0.42-2,1C10.77,11.22,10.58,11.49,10.42,11.8z"/>
	</g>
	<g>
		<path d="M9.81,13.6l-0.08-0.03c0.07-0.2,0.13-0.41,0.19-0.6l0.02-0.08l0.08,0.02L10,12.99C9.94,13.19,9.88,13.4,9.81,13.6z"/>
	</g>
	<g>
		<path d="M9.41,14.47l-0.07-0.04c0.08-0.13,0.15-0.27,0.22-0.42l0.08,0.03C9.57,14.2,9.5,14.34,9.41,14.47z"/>
	</g>
	<g>
		<path d="M5.52,16.6l-0.04-0.07c0.45-0.27,0.95-0.42,1.44-0.56c0.49-0.14,0.99-0.29,1.44-0.56l0.04,0.07
			c-0.46,0.28-0.97,0.43-1.46,0.57C6.46,16.19,5.96,16.34,5.52,16.6z"/>
	</g>
	<g>
		<path d="M5.13,16.87l-0.05-0.06c0.06-0.05,0.13-0.1,0.19-0.15l0.05,0.07C5.26,16.77,5.19,16.82,5.13,16.87z"/>
	</g>
	<g>
		<path d="M10.33,11.45l-0.07-0.04c0.14-0.25,0.31-0.47,0.5-0.66c0.6-0.6,1.33-0.81,2.04-1.02c0.15-0.04,0.3-0.09,0.44-0.13
			l0.03,0.08c-0.15,0.05-0.3,0.09-0.44,0.13c-0.7,0.2-1.42,0.42-2,1C10.63,11,10.47,11.21,10.33,11.45z"/>
	</g>
	<g>
		<path d="M9.07,14.53L9,14.48c0.39-0.52,0.56-1.11,0.73-1.69l0.01-0.03l0.08,0.02l-0.01,0.03C9.64,13.4,9.47,14,9.07,14.53z"/>
	</g>
	<g>
		<path d="M5.1,16.57l-0.05-0.07c0.52-0.38,1.11-0.55,1.68-0.72c0.61-0.18,1.25-0.37,1.78-0.8l0.05,0.06
			c-0.55,0.45-1.19,0.64-1.81,0.82C6.19,16.04,5.61,16.21,5.1,16.57z"/>
	</g>
	<g>
		<path d="M10.24,11.11l-0.07-0.05c0.12-0.18,0.25-0.35,0.4-0.5c0.6-0.6,1.33-0.81,2.04-1.02c0.28-0.08,0.57-0.17,0.84-0.27
			l0.03,0.08c-0.28,0.11-0.57,0.19-0.85,0.28c-0.7,0.2-1.42,0.42-2,1C10.49,10.77,10.36,10.93,10.24,11.11z"/>
	</g>
	<g>
		<path d="M4.88,16.42l-0.05-0.07c0.53-0.4,1.13-0.57,1.72-0.74c0.7-0.2,1.42-0.42,2-1c0.58-0.58,0.79-1.3,1-1.99l0.08,0.02
			c-0.21,0.7-0.42,1.43-1.02,2.03c-0.6,0.6-1.33,0.81-2.04,1.02C5.99,15.86,5.4,16.03,4.88,16.42z"/>
	</g>
	<g>
		<path d="M10.17,10.77l-0.07-0.05c0.09-0.12,0.19-0.24,0.29-0.34c0.6-0.6,1.33-0.81,2.04-1.02c0.26-0.08,0.54-0.16,0.8-0.26
			l0.03,0.08c-0.26,0.1-0.54,0.18-0.81,0.26c-0.7,0.2-1.42,0.42-2,1C10.35,10.55,10.25,10.66,10.17,10.77z"/>
	</g>
	<g>
		<path d="M4.66,16.27L4.61,16.2c0.54-0.42,1.16-0.6,1.76-0.77c0.7-0.2,1.42-0.42,2-1c0.58-0.58,0.8-1.31,1-2l0.05-0.17l0.08,0.02
			l-0.05,0.17c-0.21,0.71-0.42,1.44-1.02,2.04c-0.6,0.6-1.33,0.81-2.04,1.02C5.8,15.68,5.19,15.86,4.66,16.27z"/>
	</g>
	<g>
		<path d="M10.1,10.45l-0.06-0.05c0.05-0.07,0.11-0.13,0.17-0.19c0.6-0.6,1.33-0.81,2.04-1.02c0.32-0.09,0.66-0.19,0.97-0.33
			l0.03,0.08c-0.32,0.14-0.66,0.23-0.98,0.33c-0.7,0.2-1.42,0.42-2,1C10.21,10.32,10.15,10.38,10.1,10.45z"/>
	</g>
	<g>
		<path d="M4.63,15.98l-0.05-0.07c0.5-0.34,1.06-0.5,1.6-0.66c0.7-0.2,1.42-0.42,2-1c0.58-0.58,0.8-1.31,1-2l0.04-0.12l0.08,0.02
			l-0.04,0.12c-0.21,0.71-0.42,1.44-1.02,2.04c-0.6,0.6-1.33,0.81-2.04,1.02C5.67,15.48,5.12,15.64,4.63,15.98z"/>
	</g>
	<g>
		<path d="M10.04,10.12l-0.06-0.06c0.01-0.02,0.03-0.03,0.05-0.05c0.6-0.6,1.33-0.81,2.04-1.02c0.38-0.11,0.78-0.23,1.15-0.4
			l0.04,0.08c-0.37,0.18-0.77,0.3-1.16,0.41c-0.7,0.2-1.42,0.42-2,1C10.07,10.09,10.06,10.11,10.04,10.12z"/>
	</g>
	<g>
		<path d="M9.11,12.01l-0.08-0.02c0.12-0.41,0.23-0.77,0.41-1.13l0.07,0.04C9.34,11.24,9.23,11.6,9.11,12.01z"/>
	</g>
	<g>
		<path d="M4.41,15.82l-0.05-0.07C4.87,15.4,5.45,15.23,6,15.06c0.7-0.2,1.42-0.42,2-1c0.53-0.53,0.76-1.18,0.96-1.85l0.08,0.02
			c-0.2,0.68-0.43,1.34-0.98,1.89c-0.6,0.6-1.33,0.81-2.04,1.02C5.48,15.3,4.91,15.47,4.41,15.82z"/>
	</g>
	<g>
		<path d="M10,9.81L9.94,9.75c0.58-0.53,1.27-0.73,1.94-0.93c0.44-0.13,0.9-0.26,1.31-0.49l0.04,0.07c-0.42,0.23-0.88,0.37-1.33,0.5
			C11.25,9.09,10.56,9.29,10,9.81z"/>
	</g>
	<g>
		<path d="M8.91,11.87l-0.08-0.02c0.08-0.28,0.18-0.6,0.3-0.91l0.08,0.03C9.09,11.27,9,11.59,8.91,11.87z"/>
	</g>
	<g>
		<path d="M4.19,15.67L4.14,15.6c0.52-0.38,1.11-0.55,1.68-0.72c0.7-0.2,1.42-0.42,2-1c0.53-0.53,0.75-1.16,0.94-1.81l0.08,0.02
			c-0.2,0.66-0.42,1.3-0.96,1.84c-0.6,0.6-1.33,0.81-2.04,1.02C5.28,15.13,4.7,15.3,4.19,15.67z"/>
	</g>
	<g>
		<path d="M9.96,9.5L9.91,9.44c0.55-0.44,1.18-0.62,1.8-0.8c0.7-0.2,1.42-0.42,2-1c0.02-0.02,0.03-0.03,0.05-0.05l0.06,0.06
			c-0.02,0.02-0.03,0.04-0.05,0.05c-0.6,0.6-1.33,0.81-2.04,1.02C11.12,8.89,10.49,9.08,9.96,9.5z"/>
	</g>
	<g>
		<path d="M4.16,15.38l-0.04-0.07c0.48-0.3,1.01-0.46,1.52-0.61c0.7-0.2,1.42-0.42,2-1c0.58-0.58,0.8-1.31,1-2
			c0.11-0.37,0.22-0.76,0.39-1.12l0.08,0.04c-0.16,0.36-0.28,0.74-0.38,1.1c-0.21,0.71-0.42,1.44-1.02,2.04
			c-0.6,0.6-1.33,0.81-2.04,1.02C5.16,14.93,4.63,15.08,4.16,15.38z"/>
	</g>
	<g>
		<path d="M9.74,9.35L9.69,9.29c0.56-0.46,1.2-0.65,1.83-0.83c0.63-0.18,1.28-0.37,1.82-0.83l0.05,0.06
			c-0.56,0.47-1.22,0.66-1.85,0.85C10.93,8.72,10.29,8.9,9.74,9.35z"/>
	</g>
	<g>
		<path d="M8.53,11.59l-0.08-0.02l0.02-0.06c0.1-0.36,0.21-0.73,0.37-1.07l0.08,0.03c-0.15,0.34-0.26,0.71-0.37,1.06L8.53,11.59z"/>
	</g>
	<g>
		<path d="M8.22,12.5l-0.08-0.03c0.1-0.24,0.18-0.48,0.23-0.67l0.08,0.02C8.4,12.01,8.32,12.26,8.22,12.5z"/>
	</g>
	<g>
		<path d="M3.94,15.22L3.9,15.15c0.49-0.32,1.03-0.48,1.56-0.63c0.7-0.2,1.42-0.42,2-1c0.19-0.19,0.34-0.39,0.48-0.63l0.07,0.04
			c-0.14,0.24-0.3,0.45-0.49,0.64c-0.6,0.6-1.33,0.81-2.04,1.02C4.96,14.75,4.42,14.91,3.94,15.22z"/>
	</g>
	<g>
		<path d="M9.36,9.35L9.3,9.29l0,0c0.6-0.6,1.33-0.81,2.04-1.02c0.62-0.18,1.25-0.37,1.79-0.81l0.05,0.06
			c-0.55,0.45-1.2,0.64-1.82,0.82C10.67,8.56,9.94,8.77,9.36,9.35z"/>
	</g>
	<g>
		<path d="M8.47,10.99l-0.08-0.02c0.09-0.28,0.16-0.48,0.25-0.68l0.08,0.03C8.63,10.52,8.55,10.72,8.47,10.99z"/>
	</g>
	<g>
		<path d="M8.26,11.68l-0.08-0.02c0.02-0.08,0.05-0.15,0.07-0.23l0.08,0.02C8.31,11.53,8.29,11.6,8.26,11.68z"/>
	</g>
	<g>
		<path d="M8.02,12.36l-0.08-0.03c0.06-0.13,0.11-0.28,0.17-0.44l0.08,0.03C8.14,12.07,8.08,12.22,8.02,12.36z"/>
	</g>
	<g>
		<path d="M3.93,14.94l-0.04-0.07c0.44-0.25,0.92-0.39,1.39-0.53c0.7-0.2,1.42-0.42,2-1c0.12-0.12,0.23-0.25,0.33-0.39l0.07,0.05
			c-0.1,0.15-0.21,0.28-0.34,0.41c-0.6,0.6-1.33,0.81-2.04,1.02C4.84,14.55,4.36,14.69,3.93,14.94z"/>
	</g>
	<g>
		<path d="M9.15,9.2L9.09,9.14l0.03-0.03c0.6-0.6,1.33-0.81,2.04-1.02c0.57-0.17,1.17-0.34,1.68-0.72l0.05,0.07
			C12.36,7.82,11.76,8,11.18,8.17c-0.7,0.2-1.42,0.42-2,1L9.15,9.2z"/>
	</g>
	<g>
		<path d="M8.27,10.85L8.2,10.82c0.08-0.28,0.16-0.49,0.24-0.68l0.08,0.03C8.43,10.37,8.36,10.57,8.27,10.85z"/>
	</g>
	<g>
		<path d="M3.92,14.66l-0.04-0.07c0.39-0.19,0.81-0.31,1.21-0.43c0.7-0.2,1.42-0.42,2-1c0.11-0.11,0.22-0.23,0.31-0.36l0.07,0.05
			c-0.1,0.13-0.2,0.26-0.32,0.38c-0.6,0.6-1.33,0.81-2.04,1.02C4.72,14.35,4.3,14.47,3.92,14.66z"/>
	</g>
	<g>
		<path d="M8.79,9.22L8.73,9.16C8.79,9.08,8.86,9,8.94,8.93c0.6-0.6,1.33-0.81,2.04-1.02c0.48-0.14,0.98-0.29,1.42-0.55l0.04,0.07
			C11.99,7.7,11.49,7.85,11,7.99c-0.7,0.2-1.42,0.42-2,1C8.92,9.06,8.86,9.14,8.79,9.22z"/>
	</g>
	<g>
		<path d="M8.08,10.69L8,10.67c0.06-0.19,0.14-0.44,0.24-0.68l0.08,0.03C8.22,10.26,8.14,10.51,8.08,10.69z"/>
	</g>
	<g>
		<path d="M7.63,12.05l-0.08-0.03c0.06-0.13,0.11-0.28,0.17-0.44l0.08,0.03C7.75,11.77,7.69,11.92,7.63,12.05z"/>
	</g>
	<g>
		<path d="M4.15,14.3l-0.03-0.08c0.26-0.1,0.53-0.18,0.8-0.25c0.7-0.2,1.42-0.42,2-1c0.1-0.1,0.2-0.22,0.29-0.34l0.07,0.05
			c-0.09,0.12-0.19,0.24-0.3,0.35c-0.6,0.6-1.33,0.81-2.04,1.02C4.67,14.13,4.4,14.21,4.15,14.3z"/>
	</g>
	<g>
		<path d="M8.6,9.05L8.53,9C8.6,8.91,8.68,8.83,8.76,8.75c0.6-0.6,1.33-0.81,2.04-1.02c0.36-0.11,0.73-0.21,1.08-0.37l0.03,0.08
			c-0.35,0.16-0.73,0.27-1.09,0.38c-0.7,0.2-1.42,0.42-2,1C8.74,8.88,8.66,8.97,8.6,9.05z"/>
	</g>
	<g>
		<path d="M7.9,10.53l-0.08-0.02c0.06-0.19,0.14-0.44,0.24-0.68l0.08,0.03C8.03,10.1,7.95,10.35,7.9,10.53z"/>
	</g>
	<g>
		<path d="M7.44,11.89l-0.08-0.03c0.16-0.35,0.26-0.71,0.37-1.07l0.01-0.05l0.08,0.02l-0.01,0.05C7.71,11.17,7.6,11.54,7.44,11.89z"
			/>
	</g>
	<g>
		<path d="M3.94,14.13l-0.03-0.08c0.27-0.1,0.55-0.18,0.82-0.26c0.7-0.2,1.42-0.42,2-1c0.05-0.05,0.09-0.09,0.13-0.14l0.06,0.05
			c-0.04,0.05-0.09,0.1-0.13,0.14c-0.6,0.6-1.33,0.81-2.04,1.02C4.49,13.95,4.21,14.03,3.94,14.13z"/>
	</g>
	<g>
		<path d="M9.1,8.25L9.05,8.18c0.49-0.32,1.03-0.48,1.56-0.63c0.19-0.06,0.39-0.12,0.59-0.18l0.03,0.08
			c-0.2,0.07-0.4,0.13-0.59,0.18C10.11,7.78,9.58,7.93,9.1,8.25z"/>
	</g>
	<g>
		<path d="M8.56,8.7L8.5,8.64c0.02-0.03,0.05-0.05,0.07-0.08c0.03-0.03,0.07-0.06,0.1-0.09l0.06,0.06C8.7,8.56,8.66,8.59,8.63,8.62
			C8.61,8.65,8.58,8.67,8.56,8.7z"/>
	</g>
	<g>
		<path d="M7.25,11.72l-0.08-0.03c0.16-0.35,0.27-0.72,0.37-1.08c0.11-0.39,0.23-0.79,0.41-1.16l0.08,0.04
			c-0.18,0.37-0.29,0.77-0.41,1.15C7.53,10.99,7.42,11.37,7.25,11.72z"/>
	</g>
	<g>
		<path d="M3.97,13.87l-0.03-0.08c0.2-0.07,0.4-0.13,0.6-0.19c0.7-0.2,1.42-0.42,2-1c0.1-0.1,0.19-0.2,0.27-0.31l0.07,0.05
			c-0.08,0.11-0.18,0.22-0.28,0.32c-0.6,0.6-1.33,0.81-2.04,1.02C4.37,13.75,4.17,13.81,3.97,13.87z"/>
	</g>
	<g>
		<path d="M7.39,10.63l-0.08-0.02l0.06-0.19c0.21-0.71,0.42-1.44,1.02-2.04c0.3-0.3,0.66-0.53,1.12-0.72l0.03,0.08
			c-0.45,0.18-0.8,0.41-1.1,0.7c-0.58,0.58-0.8,1.31-1,2L7.39,10.63z"/>
	</g>
	<g>
		<path d="M3.57,13.77l-0.03-0.08c0.27-0.1,0.55-0.19,0.82-0.27c0.7-0.2,1.42-0.42,2-1c0.48-0.48,0.7-1.05,0.88-1.59l0.08,0.03
			c-0.17,0.55-0.4,1.13-0.9,1.62c-0.6,0.6-1.33,0.81-2.04,1.02C4.12,13.59,3.84,13.67,3.57,13.77z"/>
	</g>
	<g>
		<path d="M3.63,13.5l-0.03-0.08C3.8,13.36,4,13.3,4.18,13.24c0.7-0.2,1.42-0.42,2-1c0.58-0.58,0.8-1.31,1-2
			C7.4,9.53,7.61,8.8,8.21,8.2c0.31-0.31,0.67-0.54,1.15-0.73l0.03,0.08C8.92,7.73,8.57,7.96,8.27,8.26c-0.58,0.58-0.8,1.31-1,2
			c-0.21,0.71-0.42,1.44-1.02,2.04c-0.6,0.6-1.33,0.81-2.04,1.02C4.02,13.38,3.82,13.44,3.63,13.5z"/>
	</g>
	<g>
		<path d="M7.34,9.29L7.26,9.26c0.2-0.52,0.44-0.92,0.77-1.24c0.22-0.22,0.47-0.4,0.76-0.55l0.04,0.07C8.54,7.69,8.3,7.87,8.09,8.08
			C7.77,8.4,7.53,8.78,7.34,9.29z"/>
	</g>
	<g>
		<path d="M7.19,9.74L7.11,9.72c0.02-0.08,0.05-0.15,0.07-0.23l0.08,0.03C7.24,9.59,7.21,9.66,7.19,9.74z"/>
	</g>
	<g>
		<path d="M3.28,13.38L3.25,13.3c0.25-0.09,0.5-0.17,0.75-0.24c0.7-0.2,1.42-0.42,2-1c0.46-0.46,0.69-1,0.9-1.66l0.08,0.02
			c-0.21,0.67-0.44,1.22-0.92,1.7c-0.6,0.6-1.33,0.81-2.04,1.02C3.78,13.21,3.52,13.29,3.28,13.38z"/>
	</g>
	<g>
		<path d="M6.83,10.15l-0.08-0.02c0.02-0.08,0.05-0.16,0.07-0.25c0.21-0.71,0.42-1.44,1.02-2.04c0.13-0.13,0.28-0.25,0.43-0.36
			l0.05,0.07C8.17,7.65,8.03,7.77,7.9,7.9c-0.58,0.58-0.8,1.31-1,2C6.88,9.98,6.86,10.06,6.83,10.15z"/>
	</g>
	<g>
		<path d="M3.19,13.16l-0.03-0.08c0.22-0.08,0.44-0.14,0.66-0.2c0.7-0.2,1.42-0.42,2-1c0.47-0.47,0.69-1.01,0.86-1.53l0.08,0.03
			c-0.16,0.5-0.39,1.08-0.88,1.56c-0.6,0.6-1.33,0.81-2.04,1.02C3.63,13.02,3.41,13.09,3.19,13.16z"/>
	</g>
	<g>
		<path d="M7.3,8.26L7.22,8.21C7.35,8.01,7.5,7.82,7.66,7.66c0.01-0.01,0.03-0.03,0.04-0.04l0.06,0.06C7.75,7.69,7.74,7.7,7.72,7.71
			C7.56,7.88,7.42,8.06,7.3,8.26z"/>
	</g>
	<g>
		<path d="M6.48,10.48L6.4,10.45c0.09-0.25,0.17-0.51,0.24-0.76C6.77,9.27,6.9,8.83,7.11,8.42l0.07,0.04
			C6.97,8.86,6.85,9.3,6.72,9.72C6.65,9.97,6.57,10.23,6.48,10.48z"/>
	</g>
	<g>
		<path d="M6.29,10.92l-0.07-0.04c0.03-0.07,0.07-0.14,0.1-0.21l0.08,0.03C6.36,10.78,6.33,10.85,6.29,10.92z"/>
	</g>
	<g>
		<path d="M2.95,13l-0.03-0.08c0.24-0.09,0.48-0.16,0.72-0.23c0.7-0.2,1.42-0.42,2-1c0.18-0.18,0.33-0.38,0.46-0.61l0.07,0.04
			c-0.14,0.23-0.29,0.44-0.48,0.62c-0.6,0.6-1.33,0.81-2.04,1.02C3.43,12.85,3.18,12.92,2.95,13z"/>
	</g>
	<g>
		<path d="M6.53,9.57L6.45,9.55l0.01-0.04C6.63,8.93,6.81,8.32,7.2,7.8l0.07,0.05C6.88,8.36,6.71,8.96,6.54,9.54L6.53,9.57z"/>
	</g>
	<g>
		<path d="M6.23,10.48l-0.08-0.03c0.1-0.24,0.17-0.47,0.23-0.67L6.46,9.8C6.4,10,6.33,10.24,6.23,10.48z"/>
	</g>
	<g>
		<path d="M2.81,12.81l-0.03-0.08c0.22-0.08,0.45-0.15,0.67-0.21c0.7-0.2,1.42-0.42,2-1C5.7,11.28,5.89,11,6.05,10.66l0.08,0.04
			c-0.16,0.34-0.36,0.63-0.61,0.88c-0.6,0.6-1.33,0.81-2.04,1.02C3.26,12.66,3.03,12.73,2.81,12.81z"/>
	</g>
	<g>
		<path d="M6.61,8.57L6.53,8.54c0.09-0.25,0.19-0.46,0.31-0.65l0.07,0.04C6.8,8.12,6.7,8.32,6.61,8.57z"/>
	</g>
	<g>
		<path d="M6.46,9.02L6.38,8.99C6.4,8.92,6.43,8.84,6.45,8.76l0.08,0.03C6.51,8.87,6.48,8.94,6.46,9.02z"/>
	</g>
	<g>
		<path d="M6.25,9.7L6.18,9.68c0.04-0.12,0.07-0.24,0.11-0.36l0.03-0.1l0.08,0.02l-0.03,0.1C6.33,9.46,6.29,9.58,6.25,9.7z"/>
	</g>
	<g>
		<path d="M6.01,10.38l-0.08-0.03c0.06-0.13,0.11-0.28,0.17-0.44l0.08,0.03C6.13,10.1,6.07,10.24,6.01,10.38z"/>
	</g>
	<g>
		<path d="M2.55,12.65l-0.03-0.08c0.25-0.09,0.51-0.17,0.76-0.24c0.7-0.2,1.42-0.42,2-1c0.22-0.22,0.4-0.48,0.56-0.78l0.07,0.04
			c-0.16,0.31-0.34,0.57-0.57,0.8c-0.6,0.6-1.33,0.81-2.04,1.02C3.05,12.49,2.79,12.56,2.55,12.65z"/>
	</g>
	<g>
		<path d="M6.47,8.27L6.4,8.24c0.03-0.07,0.06-0.15,0.1-0.22l0.08,0.04C6.54,8.12,6.5,8.19,6.47,8.27z"/>
	</g>
	<g>
		<path d="M6.18,9.17L6.1,9.14c0.07-0.22,0.13-0.45,0.21-0.68l0.08,0.03C6.31,8.71,6.24,8.94,6.18,9.17z"/>
	</g>
	<g>
		<path d="M6.04,9.62L5.96,9.6c0.02-0.08,0.05-0.15,0.07-0.23L6.11,9.4C6.09,9.47,6.06,9.55,6.04,9.62z"/>
	</g>
	<g>
		<path d="M5.88,10.08L5.8,10.04C5.83,9.97,5.86,9.9,5.89,9.82l0.08,0.03C5.94,9.93,5.91,10,5.88,10.08z"/>
	</g>
	<g>
		<path d="M2.27,12.51l-0.03-0.08c0.28-0.11,0.57-0.2,0.86-0.28c0.7-0.2,1.42-0.42,2-1c0.25-0.25,0.45-0.54,0.61-0.89l0.08,0.04
			c-0.17,0.36-0.37,0.66-0.63,0.92c-0.6,0.6-1.33,0.81-2.04,1.02C2.83,12.32,2.54,12.4,2.27,12.51z"/>
	</g>
	<g>
		<path d="M1.44,12.95l-0.05-0.07c0.19-0.14,0.39-0.26,0.62-0.36l0.03,0.08C1.82,12.7,1.62,12.82,1.44,12.95z"/>
	</g>
	<g>
		<path d="M6,8.97L5.92,8.95C5.94,8.87,5.96,8.8,5.99,8.72l0.08,0.02C6.04,8.82,6.02,8.9,6,8.97z"/>
	</g>
	<g>
		<path d="M1.08,12.91l-0.05-0.06c0.57-0.49,1.24-0.69,1.88-0.88c0.7-0.2,1.42-0.42,2-1c0.53-0.53,0.75-1.15,0.94-1.79L5.93,9.2
			c-0.19,0.63-0.41,1.28-0.96,1.83c-0.6,0.6-1.33,0.81-2.04,1.02C2.3,12.24,1.64,12.43,1.08,12.91z"/>
	</g>
	<g>
		<path d="M0.61,13.43l-0.07-0.05c0.09-0.12,0.18-0.24,0.28-0.35l0.06,0.06C0.79,13.2,0.69,13.31,0.61,13.43z"/>
	</g>
	<g>
		<rect x="5.67" y="8.71" transform="matrix(0.2819 -0.9594 0.9594 0.2819 -4.2418 11.8355)" width="0.24" height="0.08"/>
	</g>
	<g>
		<path d="M5.49,9.78L5.41,9.75c0.1-0.24,0.18-0.48,0.24-0.67l0.08,0.02C5.67,9.3,5.59,9.54,5.49,9.78z"/>
	</g>
	<g>
		<path d="M0.83,12.79l-0.06-0.06c0.58-0.54,1.28-0.74,1.95-0.94c0.7-0.2,1.42-0.42,2-1c0.18-0.18,0.34-0.38,0.47-0.61l0.07,0.04
			c-0.14,0.24-0.29,0.44-0.48,0.63c-0.6,0.6-1.33,0.81-2.04,1.02C2.09,12.06,1.4,12.26,0.83,12.79z"/>
	</g>
	<g>
		<path d="M5.13,9.96L5.06,9.92c0.1-0.19,0.19-0.4,0.28-0.65L5.42,9.3C5.33,9.55,5.24,9.77,5.13,9.96z"/>
	</g>
	<g>
		<path d="M4.55,10.72L4.5,10.66c0.02-0.02,0.04-0.04,0.06-0.05c0.15-0.15,0.28-0.31,0.39-0.49l0.07,0.05
			c-0.12,0.18-0.25,0.35-0.4,0.5C4.59,10.68,4.57,10.7,4.55,10.72z"/>
	</g>
	<g>
		<path d="M0.52,12.74l-0.06-0.06c0.02-0.02,0.03-0.04,0.05-0.05c0.6-0.6,1.33-0.81,2.04-1.02c0.61-0.18,1.23-0.36,1.77-0.79
			l0.05,0.07c-0.55,0.44-1.18,0.62-1.8,0.8c-0.7,0.2-1.42,0.42-2,1C0.55,12.7,0.53,12.72,0.52,12.74z"/>
	</g>
	<g>
		<path d="M5.17,9.3L5.09,9.27c0.05-0.13,0.1-0.28,0.16-0.45l0.08,0.02C5.27,9.02,5.22,9.16,5.17,9.3z"/>
	</g>
	<g>
		<path d="M0.31,12.58l-0.06-0.06c0.02-0.03,0.05-0.05,0.08-0.08c0.6-0.6,1.33-0.81,2.04-1.02c0.7-0.2,1.42-0.42,2-1
			C4.63,10.17,4.83,9.86,5,9.49l0.08,0.03c-0.17,0.38-0.39,0.7-0.65,0.96c-0.6,0.6-1.33,0.81-2.04,1.02c-0.7,0.2-1.42,0.42-2,1
			C0.36,12.53,0.34,12.56,0.31,12.58z"/>
	</g>
	<g>
		<path d="M5,9.1L4.92,9.07C4.95,9,4.97,8.92,5,8.85l0.08,0.03C5.05,8.95,5.02,9.03,5,9.1z"/>
	</g>
	<g>
		<path d="M4.68,9.75L4.61,9.71c0.08-0.13,0.15-0.27,0.22-0.42L4.9,9.32C4.84,9.48,4.76,9.62,4.68,9.75z"/>
	</g>
	<g>
		<path d="M3.86,10.63l-0.05-0.07c0.13-0.09,0.26-0.2,0.37-0.32c0.11-0.11,0.2-0.22,0.29-0.34l0.07,0.05
			c-0.09,0.12-0.19,0.24-0.3,0.35C4.13,10.42,4,10.53,3.86,10.63z"/>
	</g>
	<g>
		<path d="M0.58,12l-0.05-0.07c0.51-0.36,1.09-0.53,1.65-0.69C2.59,11.12,3.02,11,3.41,10.8l0.04,0.07c-0.4,0.2-0.83,0.33-1.24,0.45
			C1.65,11.48,1.08,11.65,0.58,12z"/>
	</g>
	<g>
		<path d="M4.36,9.77L4.3,9.72c0.13-0.18,0.25-0.38,0.35-0.61l0.08,0.03C4.62,9.38,4.5,9.58,4.36,9.77z"/>
	</g>
	<g>
		<path d="M4.06,10.12L4,10.07l0-0.01c0.05-0.05,0.1-0.1,0.15-0.16l0.06,0.05C4.17,10.01,4.12,10.07,4.06,10.12z"/>
	</g>
	<g>
		<path d="M0.31,11.89l-0.05-0.07c0.53-0.41,1.15-0.59,1.75-0.76c0.11-0.03,0.23-0.07,0.34-0.1l0.02,0.08
			c-0.11,0.04-0.23,0.07-0.35,0.1C1.44,11.31,0.83,11.49,0.31,11.89z"/>
	</g>
	<g>
		<path d="M0.4,11.52l-0.04-0.07c0.42-0.25,0.87-0.4,1.33-0.53L1.72,11C1.26,11.13,0.81,11.27,0.4,11.52z"/>
	</g>
	<g>
		<path d="M1.06,10.96l-0.03-0.08c0.08-0.03,0.15-0.05,0.23-0.07l0.02,0.08C1.21,10.91,1.13,10.94,1.06,10.96z"/>
	</g>
</g>
</svg>
