<?xml version="1.0" encoding="utf-8"?>
<!-- Generator: Adobe Illustrator 24.3.0, SVG Export Plug-In . SVG Version: 6.00 Build 0)  -->
<svg version="1.1" id="Layer_1" xmlns="http://www.w3.org/2000/svg" xmlns:xlink="http://www.w3.org/1999/xlink" x="0px" y="0px"
	 viewBox="0 0 100 100" style="enable-background:new 0 0 100 100;" xml:space="preserve">
<style type="text/css">
	.st0{fill:#FFFFFF;}
</style>
<g>
	<path d="M99.75,49.36c0,0.03,0,0.06,0,0.08c-0.11,0.21-0.22,0.41-0.32,0.62c-0.05,0.1-0.11,0.22-0.08,0.31
		c0.11,0.42-0.21,0.83-0.02,1.25c-0.12,0.3-0.04,0.59,0,0.89c0,0.02-0.03,0.05-0.04,0.08c-0.1,0.02-0.21,0.03-0.31,0.05
		c0.02,0.13,0.08,0.25,0.04,0.32c-0.08,0.14-0.02,0.21,0.05,0.32c0.12,0.19,0.25,0.4,0.29,0.61c0.08,0.45,0.2,0.9,0.16,1.37
		c-0.01,0.07-0.01,0.16,0.03,0.2c0.25,0.29,0.13,0.6,0.08,0.9c-0.02,0.15-0.09,0.33-0.03,0.44c0.09,0.16,0.03,0.28,0,0.43
		c-0.06,0.27-0.21,0.46-0.38,0.67c-0.19,0.22-0.33,0.49-0.48,0.75c-0.02,0.04,0,0.1-0.01,0.16c-0.02,0.12-0.01,0.25-0.06,0.36
		c-0.27,0.64-0.56,1.28-0.81,1.93c-0.15,0.4-0.5,0.67-0.59,1.12c-0.05,0.27-0.1,0.49,0.1,0.72c-0.15,0.28-0.36,0.52-0.43,0.8
		c-0.13,0.54-0.44,0.96-0.73,1.4c-0.1,0.15-0.22,0.26-0.35,0.38c-0.17,0.16-0.31,0.39-0.39,0.61c-0.09,0.26-0.1,0.55-0.14,0.81
		c-0.43,0.12-0.77,0.28-0.98,0.64c-0.05,0.08-0.21,0.12-0.32,0.13c-0.3,0.03-0.56,0.09-0.76,0.35c-0.29,0.4-0.59,0.79-0.91,1.17
		c-0.25,0.29-0.44,0.61-0.51,0.99c-0.08,0.42-0.37,0.69-0.72,0.9c-0.27,0.16-0.38,0.41-0.47,0.69c-0.11,0.37-0.18,0.77-0.54,1
		c0.04,0.13,0.07,0.25,0.1,0.37c0.07,0.22-0.2,0.63-0.41,0.57c-0.28-0.08-0.37,0.1-0.48,0.26c-0.2,0.29-0.36,0.6-0.57,0.88
		c-0.3,0.4-0.48,0.83-0.61,1.31c-0.12,0.44-0.32,0.87-0.5,1.29c-0.19,0.44-0.43,0.86-0.24,1.37c0.03,0.08,0.04,0.25,0.01,0.26
		c-0.22,0.09-0.19,0.28-0.19,0.45c-0.01,0.19-0.08,0.3-0.29,0.33c-0.12,0.02-0.25,0.09-0.35,0.18c-0.24,0.2-0.51,0.34-0.82,0.32
		c-0.35-0.02-0.71-0.07-1.06-0.1c-0.27-0.02-0.55,0-0.82-0.04c-0.83-0.11-1.59,0.04-2.27,0.55c-0.46,0.35-0.91,0.72-1.38,1.07
		c-0.1,0.08-0.24,0.12-0.36,0.16c-0.39,0.14-0.79,0.17-1.19,0.09c-0.05-0.01-0.1,0.02-0.18,0.04c0.08,0.12,0.15,0.22,0.22,0.31
		c0.1-0.08,0.18-0.14,0.29-0.23c0.16,0.36-0.04,0.64-0.12,0.92c-0.02,0.06-0.14,0.12-0.22,0.13c-0.04,0-0.11-0.11-0.13-0.18
		c-0.05-0.12-0.07-0.26-0.13-0.38c-0.06-0.12-0.16-0.23-0.24-0.34c-0.15,0.09-0.25,0.15-0.37,0.21c-0.18-0.31-0.1-0.83-0.62-0.74
		c-0.18-0.19-0.32-0.35-0.47-0.51c0.17-0.33,0.17-0.33,0.37-0.4c-0.02-0.11-0.04-0.23-0.07-0.39c-0.15,0.02-0.31,0-0.37,0.06
		c-0.09,0.1-0.12,0.26-0.15,0.34c-0.15,0.07-0.28,0.11-0.38,0.17c-0.23,0.15-0.35,0.13-0.52-0.07c-0.09-0.11-0.18-0.21-0.26-0.32
		c-0.17-0.22-0.42-0.24-0.64-0.14c-0.31,0.14-0.65,0.29-0.87,0.53c-0.28,0.3-0.67,0.43-0.94,0.72c-0.12,0.12-0.26,0.12-0.39-0.03
		c-0.06-0.08-0.17-0.16-0.26-0.16c-0.18,0-0.27-0.11-0.38-0.22c-0.07-0.08-0.16-0.18-0.26-0.2c-0.36-0.06-0.56-0.33-0.82-0.53
		c-0.23-0.18-0.44-0.42-0.8-0.27c-0.09,0.04-0.25-0.07-0.37-0.13c-0.15-0.07-0.27-0.19-0.43-0.24c-0.32-0.11-0.39-0.05-0.45,0.29
		c-0.23,0.2-0.41-0.09-0.62-0.05c-0.07-0.54-0.61-1.02-1.14-1.01c-0.56,0.02-0.85-0.28-1.06-0.74c-0.13-0.28-0.25-0.62-0.47-0.8
		c-0.29-0.23-0.41-0.54-0.6-0.82c-0.04-0.06-0.07-0.15-0.09-0.23c-0.03-0.21-0.05-0.42-0.07-0.65c0.35-0.28,0.44-0.43,0.39-0.75
		c-0.16-0.86-0.5-1.64-1.08-2.3c-0.29-0.33-0.6-0.66-1.02-0.83c-0.15-0.06-0.27-0.08-0.4,0.07c-0.19,0.21-0.94,0.26-1.2,0.12
		c-0.03-0.02-0.05-0.06-0.11-0.14c0.11-0.11,0.22-0.22,0.34-0.32c0.28-0.24,0.59-0.45,0.58-0.88c0-0.07,0.04-0.13,0.05-0.2
		c0.04-0.47,0.14-0.95-0.19-1.37c-0.1-0.13-0.18-0.27-0.25-0.42c-0.1-0.22-0.18-0.46-0.28-0.73c-0.17,0.34-0.31,0.61-0.44,0.89
		c-0.03,0.06-0.01,0.13-0.02,0.2c-0.02,0.16-0.01,0.33-0.05,0.48c-0.09,0.32-0.2,0.63-0.31,0.94c-0.07,0.22-0.24,0.29-0.44,0.17
		c-0.19-0.11-0.34-0.14-0.53,0c-0.15,0.11-0.33,0.19-0.51,0.21c-0.14,0.02-0.26,0.01-0.38,0.1c-0.11,0.09-0.24,0.05-0.32-0.07
		c-0.08-0.12-0.01-0.2,0.07-0.29c0.06-0.07,0.17-0.16,0.16-0.22c-0.04-0.24,0.13-0.37,0.21-0.57c0.31,0.03,0.6,0.05,0.94,0.08
		c0.07-0.41,0.33-0.83-0.04-1.26c0.25-0.26,0.29-0.54,0.14-0.81c0.08-0.09,0.19-0.15,0.2-0.22c0.03-0.36,0.23-0.63,0.46-0.88
		c0.18-0.19,0.35-0.38,0.52-0.57c-0.08-0.22-0.14-0.41-0.22-0.6c-0.08-0.19-0.01-0.32,0.15-0.42c0.11-0.06,0.23-0.12,0.28-0.15
		c-0.12-0.35-0.22-0.65-0.31-0.94c-0.05,0.23-0.1,0.45-0.15,0.68c-0.11-0.02-0.2-0.04-0.3-0.06c-0.2,0.29-0.48,0.5-0.58,0.88
		c-0.08,0.31-0.26,0.6-0.42,0.89c-0.05,0.08-0.16,0.14-0.26,0.19c-0.22,0.1-0.45,0.2-0.69,0.27c-0.37,0.11-0.65,0.37-0.92,0.61
		c-0.29,0.25-0.33,0.69-0.68,0.9c-0.03,0.02-0.02,0.1-0.03,0.16c-0.02,0.09-0.05,0.18-0.07,0.28c-0.13,0-0.25,0-0.4,0
		c0.05,0.18,0,0.3-0.12,0.4c-0.01,0.01,0.01,0.05,0.03,0.09c0.08,0,0.17,0,0.35,0c-0.21,0.27-0.03,0.57-0.21,0.85
		c-0.17-0.15-0.31-0.27-0.45-0.4c-0.11,0.08-0.21,0.15-0.28,0.19c-0.25-0.26-0.46-0.48-0.68-0.7c-0.03-0.03-0.09-0.05-0.09-0.07
		c0-0.38-0.28-0.26-0.56-0.24c0.1-0.2,0.17-0.35,0.25-0.5c0.14,0.08,0.24,0.15,0.35,0.21c-0.05-0.33,0.06-0.66-0.19-0.9
		c-0.02-0.02-0.02-0.08-0.01-0.12c0.08-0.35-0.11-0.58-0.33-0.8c-0.21-0.2-0.42-0.4-0.63-0.59c0.23-0.74-0.6-1.39-1.2-1.13
		c-0.06-0.1-0.12-0.2-0.18-0.3c-0.06-0.1-0.14-0.18-0.2-0.28c-0.06-0.09-0.13-0.17-0.15-0.2c0-0.24,0-0.41,0-0.61
		c0.06,0,0.13,0,0.2,0c0.08,0,0.16-0.02,0.26-0.03c-0.02-0.1-0.02-0.19-0.05-0.26c-0.12-0.32-0.23-0.36-0.56-0.23
		c-0.11,0.04-0.23,0.07-0.39,0.13c0.02-0.19-0.02-0.36,0.06-0.47c0.11-0.16,0.02-0.23-0.07-0.3c-0.16-0.12-0.33-0.21-0.53-0.33
		c-0.29,0.21-0.66,0.12-1.02,0.13c-0.04,0-0.11,0-0.11-0.01c-0.1-0.28-0.42-0.28-0.6-0.46c-0.2-0.21-0.49-0.14-0.74-0.2
		c-0.04-0.01-0.09,0.04-0.13,0.08c-0.22,0.21-0.63,0.24-0.86,0.02c-0.67-0.63-1.48-1.01-2.35-1.35c-0.47,0.44-1.06,0.41-1.66,0.38
		c-0.37-0.02-0.75,0-1.12,0.05c-0.66,0.08-1.31,0.19-1.97,0.3c-0.21,0.04-0.43,0.12-0.61,0.23c-0.75,0.47-1.54,0.87-2.39,1.13
		c-0.13,0.04-0.26,0.09-0.39,0.15c-1,0.48-2.05,0.61-3.15,0.45c-0.09-0.01-0.19-0.03-0.28-0.01c-0.41,0.12-0.8,0.29-1.09,0.63
		c-0.19,0.22-0.45,0.35-0.71,0.48c-0.32,0.15-0.64,0.34-0.9,0.57c-0.28,0.25-0.58,0.42-0.94,0.48c-0.54,0.1-0.86,0.4-0.97,0.94
		c-0.1,0.46-0.11,0.96-0.53,1.3c-0.04,0.03-0.01,0.15-0.05,0.19c-0.18,0.18-0.35,0.43-0.57,0.48c-0.19,0.04-0.35,0.05-0.49,0.21
		c-0.06,0.07-0.19,0.09-0.31,0.15c-0.1-0.18-0.15-0.48-0.42-0.33c-0.29,0.15-0.68-0.05-0.92,0.28c-0.02,0.03-0.13,0.02-0.2-0.01
		c-0.19-0.06-0.33-0.06-0.43,0.17c-0.05,0.09-0.25,0.11-0.38,0.15c-0.13-0.19-0.24-0.35-0.35-0.52c-0.32,0.31-0.64,0.3-1.01,0.17
		c-0.18-0.06-0.4,0-0.6,0.03c-0.1,0.02-0.2,0.11-0.3,0.11c-0.55,0.03-1.08,0.14-1.55,0.45c-0.05,0.03-0.13,0.03-0.2,0.03
		c-0.2,0.01-0.41,0.02-0.61,0.02c-0.46-0.02-0.76,0.29-1.02,0.59c-0.17,0.2-0.3,0.47-0.03,0.71c-0.25,0.19-0.49,0.36-0.73,0.54
		c-0.35-0.28-0.66-0.08-0.98,0.12c0.1,0.28-0.11,0.38-0.3,0.5c-0.38,0.23-0.38,0.23-0.4,0.65c-0.22,0.01-0.46,0.02-0.4,0.3
		c-0.16,0.07-0.28,0.12-0.41,0.18c0.06,0.11,0.06,0.21-0.08,0.24c-0.1,0.02-0.21-0.01-0.32-0.02c-0.1-0.02-0.2-0.05-0.3-0.08
		c-0.06,0.1-0.09,0.17-0.13,0.23c-0.27-0.04-0.52-0.13-0.77-0.12c-0.29,0.01-0.58,0.12-0.87,0.13c-0.37,0.01-0.76,0.21-1.12,0
		c-0.35-0.19-0.71-0.28-1.09-0.26c-0.31-0.45-0.78-0.78-1.35-1.02c-0.3-0.13-0.59-0.24-0.87,0.09c-0.63-0.7-0.67-1.51-0.68-2.34
		c0.06,0,0.09-0.01,0.12,0c0.04,0.01,0.08,0.03,0.11,0.05c0.37,0.23,0.6,0.2,0.81-0.18c0.25-0.45,0.37-0.95,0.19-1.47
		c-0.06-0.17-0.11-0.34-0.18-0.51c-0.13-0.32-0.22-0.63,0.03-0.93c0.02-0.03,0.05-0.08,0.04-0.11c-0.05-0.16-0.15-0.31-0.15-0.46
		c-0.01-0.16,0.13-0.32,0.02-0.5c-0.05-0.09-0.07-0.21-0.08-0.32c-0.02-0.37-0.17-0.69-0.39-0.98c-0.49-0.66-0.97-1.33-1.45-2.01
		c-0.35-0.5-0.51-1.09-0.75-1.64c-0.11-0.25-0.15-0.49-0.17-0.75c-0.03-0.37-0.1-0.74-0.15-1.1c-0.01-0.07-0.04-0.13-0.07-0.19
		c-0.18-0.45-0.41-0.87-0.83-1.16c-0.22-0.15-0.37-0.35-0.36-0.65c0-0.09-0.05-0.19-0.11-0.26c-0.27-0.3-0.51-0.63-0.82-0.86
		c-0.46-0.34-0.67-0.73-0.59-1.3c0.02-0.11-0.04-0.24-0.09-0.35c-0.46-0.94-1.11-1.75-1.92-2.41c-0.41-0.33-0.75-0.7-1.06-1.15
		c0.09-0.02,0.16-0.04,0.24-0.06c0.05-0.16-0.1-0.47,0.29-0.41c0.32,0.46,0.65,0.92,0.98,1.39c0.23-0.02,0.34-0.17,0.35-0.41
		c0.01-0.24-0.08-0.37-0.32-0.46c-0.29-0.11-0.51-0.29-0.63-0.58C1.33,50,1.2,49.83,1.08,49.67c-0.24-0.34-0.24-0.51,0.03-0.86
		c0.17,0.18,0.31,0.39,0.5,0.52c0.28,0.19,0.38,0.43,0.31,0.74c-0.03,0.16-0.03,0.29,0.08,0.4c0.28-0.17,0.1-0.45,0.18-0.72
		c0.36,0.39,0.24,1,0.73,1.29c0.08-0.11,0.16-0.22,0.24-0.32c-0.02,0-0.05-0.01-0.07-0.01c-0.03-0.41-0.07-0.82-0.1-1.28
		c-0.03-0.02-0.14-0.04-0.19-0.11c-0.3-0.37-0.57-0.76-0.87-1.13c-0.13-0.17-0.3-0.31-0.44-0.48c-0.1-0.12-0.2-0.26-0.27-0.41
		c-0.14-0.32-0.21-0.69-0.53-0.9c-0.34-0.23-0.39-0.59-0.44-0.94c-0.02-0.13,0.03-0.27,0.03-0.4c-0.03-0.62,0.11-1.18,0.48-1.69
		c0.06-0.08,0.11-0.2,0.11-0.3c-0.01-0.22-0.06-0.43-0.09-0.65c-0.01-0.09-0.06-0.21-0.03-0.27c0.22-0.41-0.04-0.67-0.28-0.93
		c-0.14-0.15-0.24-0.41-0.17-0.58c0.2-0.49,0.34-0.99,0.4-1.51c0.04-0.3,0.16-0.56,0.42-0.73c0.07-0.04,0.16-0.05,0.28-0.08
		c-0.03,0.55-0.33,1.09,0.19,1.48c-0.03,0.16-0.05,0.28-0.08,0.41c0.17-0.09,0.32-0.17,0.49-0.26c0.07-0.37,0.15-0.77,0.21-1.09
		c0.11-0.17,0.21-0.28,0.25-0.41c0.05-0.19,0.15-0.32,0.3-0.43c0.42-0.31,0.87-0.57,1.34-0.79c0.15-0.07,0.33-0.17,0.39-0.3
		c0.22-0.51,0.79-0.73,0.98-1.25c0.03-0.08,0.13-0.15,0.21-0.19c0.28-0.13,0.47-0.31,0.46-0.6c0.16-0.04,0.3-0.05,0.41-0.11
		c0.41-0.21,0.8-0.47,1-0.92c0.05-0.12,0.14-0.16,0.26-0.08c-0.03,0.15-0.05,0.29-0.09,0.51c0.35-0.19,0.62-0.34,0.91-0.5
		c0.09,0.3,0.3,0.35,0.55,0.29c0.3-0.07,0.55-0.3,0.88-0.31c0.06,0,0.13-0.1,0.18-0.16c0.08-0.09,0.13-0.21,0.22-0.3
		c0.19-0.19,0.36-0.45,0.6-0.55c0.36-0.15,0.75-0.24,1.14-0.28c0.42-0.04,0.64-0.29,0.8-0.61c0.27-0.51,0.46-0.59,0.88-0.54
		c0.27,0.03,0.54,0.08,0.84,0.13c0.14-0.2,0.35-0.31,0.62-0.36c0.74-0.14,1.41-0.47,2.06-0.84c0.08-0.05,0.17-0.09,0.26-0.13
		c0.67-0.34,1.22-0.81,1.55-1.5c0.14-0.29,0.25-0.58,0.36-0.88c0.06-0.17,0.08-0.35,0.13-0.57c0,0,0.07-0.01,0.13-0.04
		c0.06-0.03,0.11-0.07,0.17-0.11c-0.1-0.26,0-0.63,0.19-0.64c0.24-0.02,0.35-0.16,0.5-0.32c0.18-0.2,0.4-0.37,0.61-0.54
		c0.17-0.13,0.2-0.28,0.09-0.49c-0.13,0.04-0.24,0.08-0.41,0.14c0-0.2,0.02-0.36,0-0.51c-0.05-0.28-0.15-0.55-0.19-0.84
		c-0.1-0.62,0.15-1.12,0.53-1.58c0.18-0.21,0.36-0.43,0.59-0.7c0.04,0,0.18,0,0.35,0c-0.09-0.31-0.01-0.53,0.2-0.71
		c0.04-0.03,0.1-0.08,0.1-0.12c0.02-0.26,0.23-0.31,0.43-0.38c0.06,0.09,0.11,0.17,0.16,0.25c-0.07,0.13-0.13,0.25-0.2,0.39
		c0.36,0.17,0.48,0.48,0.55,0.81c0.01,0.04,0.03,0.07,0.05,0.11c0.19,0.3,0.37,0.6,0.57,0.89c0.08,0.12,0.2,0.22,0.28,0.31
		c0.06-0.02,0.08-0.02,0.08-0.02c0.13-0.26,0.19-0.51,0.02-0.78c-0.08-0.12-0.07-0.26,0.05-0.33c0.07-0.04,0.2,0.01,0.29,0.05
		c0.07,0.03,0.13,0.09,0.19,0.13c0.18-0.3-0.04-0.51-0.18-0.69c-0.13-0.17-0.36-0.26-0.58-0.41c-0.05-0.09-0.14-0.24-0.23-0.41
		c0.14-0.14,0.28-0.28,0.44-0.43c-0.2-0.1-0.21-0.29-0.12-0.52c0.19-0.01,0.33-0.2,0.57-0.1c0.21,0.08,0.15,0.26,0.18,0.38
		c0.27,0.06,0.13-0.19,0.24-0.26c0.29,0.18,0.74,0.05,0.88,0.47c0.22,0,0.3-0.11,0.3-0.29c0-0.07-0.04-0.14-0.02-0.2
		c0.05-0.16,0.11-0.32,0.18-0.51c0.1,0.08,0.17,0.13,0.23,0.18c0.1-0.11,0.11-0.21,0-0.28c-0.3-0.19-0.52-0.55-0.52-0.85
		c0.01-0.41,0.25-0.66,0.67-0.65c0.04-0.21,0.08-0.43,0.12-0.65c0.18,0.03,0.32,0.05,0.45,0.07c0.01-0.16-0.03-0.32,0.03-0.4
		c0.07-0.09,0.23-0.11,0.37-0.16c0.01-0.09,0.01-0.18,0.02-0.27c0.34-0.17,0.34,0.17,0.44,0.28c0.14-0.01,0.25-0.01,0.35-0.03
		c0.06-0.01,0.1-0.07,0.18-0.13c-0.2-0.08-0.35-0.13-0.51-0.19c0.14-0.27-0.13-0.41-0.15-0.63c0.14-0.19,0.28-0.38,0.44-0.58
		c0.07-0.08,0.13-0.13,0.27-0.1c0.13,0.03,0.32-0.06,0.43-0.15c0.06-0.05,0.01-0.22,0-0.34c0-0.12,0-0.23,0-0.36
		c0.45,0.07,0.52,0.14,0.43,0.44c0.36,0.15,0.36,0.15,0.43,0.36c0.1-0.04,0.2-0.08,0.32-0.13c-0.22-0.3,0.08-0.5,0.17-0.72
		c0.09-0.23,0.15-0.21-0.13-0.32c-0.18-0.07-0.24-0.2-0.17-0.38c0.06-0.16,0.15-0.28,0.35-0.25c0.19,0.03,0.34,0.2,0.36,0.39
		c0.01,0.11,0.01,0.21,0.02,0.33c0.15-0.18,0.24-0.37,0.38-0.47c0.14-0.1,0.28-0.3,0.53-0.19c-0.23,0.32-0.23,0.37,0.05,0.54
		c0.13-0.21,0.27-0.42,0.42-0.66c-0.02-0.08-0.06-0.21-0.1-0.33c0.63-0.31,0.72-0.29,1.11,0.26c0.51-0.13,0.6-0.1,0.99,0.31
		c0.07,0.07,0.16,0.11,0.23,0.17c0.12,0.11,0.24,0.22,0.35,0.34c0.41,0.5,0.84,0.98,1.49,1.28c-0.08,0.16-0.18,0.31-0.22,0.46
		c-0.07,0.22-0.1,0.45-0.13,0.68c0,0.05,0.11,0.1,0.22,0.19c-0.09-0.58-0.02-0.66,0.53-0.67c-0.02-0.15-0.05-0.29-0.07-0.43
		c0.28-0.19,0.57-0.2,0.88-0.12c0.21,0.05,0.42,0.12,0.64,0.14c0.26,0.03,0.49,0.08,0.56,0.39c0.01,0.05,0.08,0.08,0.15,0.14
		c0.01-0.09,0.01-0.13,0.01-0.17c0.03-0.37,0.12-0.44,0.46-0.29c0.2,0.09,0.38,0.23,0.58,0.36c0.01-0.23-0.02-0.48,0.19-0.66
		c-0.17-0.16-0.21-0.32-0.02-0.5c-0.32-0.04-0.55-0.17-0.76-0.36c-0.15-0.13-0.15-0.25-0.09-0.4c0.05-0.13,0.13-0.24,0.18-0.37
		c0.06-0.13,0.1-0.28,0.14-0.41c0.2-0.07,0.41-0.14,0.61-0.21c-0.01-0.14-0.05-0.25-0.03-0.35c0.06-0.26,0.19-0.51,0.22-0.78
		c0.03-0.21,0.11-0.32,0.29-0.39c0.28,0.26,0.56,0.14,0.85-0.4c-0.1-0.12-0.21-0.24-0.31-0.36c0-0.18,0-0.36,0-0.54
		c0-0.13,0.07-0.19,0.21-0.2c0.35-0.02,0.36-0.04,0.38-0.36c0-0.09,0-0.19,0-0.32c0.18-0.05,0.34-0.09,0.54-0.14
		c0.04-0.2,0.08-0.43,0.12-0.69c0.19,0.05,0.36,0.09,0.45,0.11c0.26-0.14,0.46-0.24,0.67-0.35c-0.01-0.11-0.01-0.24-0.02-0.42
		c0.22,0.02,0.4,0.03,0.6,0.05c0.06-0.11,0.12-0.22,0.2-0.39c0.07,0.11,0.12,0.17,0.14,0.24c0.13,0.4,0.18,0.45,0.57,0.42
		c0.31-0.02,0.62-0.09,0.97-0.14c0.3,0.2,0.31,0.2,0.63-0.03c0.13-0.1,0.25-0.21,0.44-0.08c0.05,0.04,0.2-0.03,0.29-0.08
		c0.17-0.09,0.33-0.19,0.51-0.29c0.02-0.24,0.14-0.5-0.08-0.71c0.06-0.11,0.11-0.21,0.16-0.29c-0.1-0.08-0.21-0.14-0.27-0.23
		c-0.1-0.15-0.15-0.35-0.37-0.34c-0.19,0.01-0.37,0.08-0.56,0.12c-0.05,0.01-0.1,0.07-0.14,0.08c-0.09,0-0.2,0-0.26-0.05
		c-0.17-0.16-0.31-0.34-0.46-0.51c-0.12-0.01-0.23-0.02-0.44-0.04c0.17-0.18,0.3-0.39,0.38-0.38c0.22,0.03,0.23-0.2,0.39-0.23
		c0.15,0.13,0.3,0.26,0.47,0.42c-0.05-0.16-0.09-0.28-0.14-0.43c0.38,0.12,0.38,0.12,0.63,0c0.32,0.34,0.64,0.69,0.98,1.06
		c0.16-0.17,0.32-0.34,0.49-0.53c0.25,0.19,0.44,0.39,0.56,0.67c0.06,0.14,0.19,0.26,0.28,0.38c0.31-0.13,0.57,0.1,0.84,0.18
		c0.25,0.07,0.47,0.06,0.64-0.07C51.65,6.16,51.79,6.3,52,6.37c-0.11,0.12-0.18,0.21-0.29,0.33c0.13,0,0.23,0.03,0.28-0.01
		c0.16-0.13,0.31-0.06,0.41,0.03c0.19,0.16,0.43,0.23,0.64,0.35c0.3,0.18,0.52,0.16,0.8-0.05c0.09-0.07,0.19-0.12,0.33-0.21
		c0.13,0.5,0.59,0.58,0.84,0.92c0.16-0.08,0.33-0.13,0.45-0.24c0.19-0.18,0.4-0.28,0.66-0.26c0.26,0.02,0.46-0.1,0.69-0.19
		c0.16-0.06,0.33-0.1,0.49-0.15c0.01,0.03,0.02,0.05,0.04,0.08c-0.13,0.11-0.28,0.2-0.39,0.32c-0.1,0.12-0.38,0.18-0.21,0.43
		c0.32-0.17,0.62-0.33,0.98-0.53c-0.09,0.21-0.15,0.34-0.21,0.47c0.08,0.02,0.14,0.04,0.21,0.06c-0.04,0.16-0.08,0.3-0.11,0.43
		c0.59,0.23,0.63,0.21,0.73-0.37c-0.13-0.06-0.27-0.11-0.44-0.18c0.32-0.45,0.75-0.65,1.29-0.91c-0.27,0.4-0.01,0.64,0.03,0.93
		c0.5-0.19,0.73-0.07,0.96,0.51c-0.48,0.32-0.77,0.78-1.03,1.29c-0.05,0-0.11,0-0.21,0c0.16,0.15,0.29,0.28,0.44,0.43
		c-0.09,0.05-0.14,0.07-0.18,0.1c-0.05,0.04-0.12,0.08-0.14,0.14c-0.11,0.35-0.39,0.52-0.75,0.65c0.03-0.12,0.07-0.25,0.1-0.37
		c-0.21,0.07-0.21,0.07-0.44,0.28c-0.06-0.05-0.12-0.09-0.22-0.16c-0.05,0.3-0.32,0.1-0.49,0.24c0.07,0.11,0.13,0.2,0.19,0.3
		c-0.36,0.27-0.37,0.32-0.09,0.72c0.12-0.02,0.14-0.27,0.32-0.12c-0.02,0.54-0.52,0.93-0.46,1.5c-0.5,0.22-0.71,0.69-0.96,1.13
		c-0.05,0.1-0.08,0.19-0.19,0.24c-0.2,0.1-0.21,0.26-0.13,0.45c0.08,0.21,0.23,0.34,0.42,0.43c0.11,0.05,0.23,0.1,0.33,0.16
		c0.36,0.24,0.7,0.49,1.06,0.72c0.21,0.13,0.45,0.21,0.46,0.52c0,0.06,0.09,0.13,0.16,0.18c0.26,0.18,0.54,0.33,0.78,0.53
		c0.26,0.22,0.5,0.44,0.87,0.26c0.02-0.01,0.06,0,0.08,0.01c0.25,0.16,0.53,0.29,0.75,0.49c0.17,0.15,0.34,0.27,0.56,0.31
		c0.4,0.07,0.69,0.28,0.92,0.63c0.32,0.51,0.76,0.89,1.37,1.07c0.36,0.11,0.74,0.09,1.1,0.29c0.34,0.19,0.75,0.24,0.94,0.64
		c0.06,0.22,0.12,0.46,0.22,0.68c0.04,0.09,0.16,0.18,0.25,0.19c0.25,0.03,0.42,0.17,0.61,0.32c0.15,0.13,0.35,0.21,0.53,0.31
		c0.15,0.08,0.35,0.13,0.46,0.26c0.14,0.17,0.29,0.18,0.48,0.18c0.65,0.01,1.21-0.26,1.75-0.56c0.09-0.05,0.16-0.16,0.2-0.25
		c0.09-0.25,0.14-0.51,0.22-0.76c0.04-0.14,0.09-0.28,0.17-0.4c0.22-0.34,0.48-0.67,0.67-1.02c0.13-0.24,0.16-0.52,0.26-0.77
		c0.11-0.29,0.31-0.56,0.14-0.89c-0.01-0.02,0.01-0.05,0.01-0.08c0.15-0.67,0.34-1.34,0.65-1.96c0.14-0.28,0.15-0.51,0.05-0.81
		c-0.16-0.49-0.3-1-0.06-1.53c0.13-0.29,0.16-0.62-0.1-0.89c-0.15-0.16-0.16-0.34-0.11-0.54c0.11-0.41,0.19-0.83,0.45-1.19
		c0.08-0.11,0.1-0.28,0.09-0.41c-0.01-0.17-0.07-0.35-0.13-0.51c-0.06-0.19-0.01-0.34,0.17-0.41c0.26-0.09,0.32-0.33,0.41-0.54
		c0.08-0.21-0.04-0.33-0.27-0.3c-0.09,0.01-0.19,0-0.34,0c0.12-0.29,0.2-0.53,0.3-0.75c0.15-0.31,0.26-0.68,0.51-0.89
		c0.22-0.18,0.27-0.39,0.36-0.61c0.08-0.19,0.11-0.4,0.2-0.59c0.22-0.44,0.27-0.91,0.25-1.39c-0.01-0.17,0.06-0.3,0.21-0.3
		c0.37,0,0.54-0.21,0.64-0.5c0.24-0.1,0.42-0.08,0.56,0.14c-0.03,0.07-0.06,0.14-0.1,0.25c0.1,0.09,0.21,0.19,0.32,0.29
		c0.07,0.08,0.16,0.16,0.2,0.25c0.14,0.33,0.03,0.71,0.24,1.03c0.01,0.01,0,0.03-0.01,0.04c-0.18,0.35,0.04,0.7-0.03,1.06
		c-0.04,0.17,0.23,0.39,0.39,0.33c0.29-0.12,0.41,0.12,0.64,0.23c-0.34,0.23-0.48,0.53-0.46,0.83c0.18,0.16,0.42,0.26,0.45,0.4
		c0.05,0.29,0.22,0.43,0.45,0.58c-0.07,0.21-0.13,0.42-0.2,0.63c0.16,0.01,0.3,0.01,0.45,0.02c-0.11,0.36-0.18,1.03-0.04,1.29
		c0.19,0.34,0.13,0.63,0,0.94c-0.07,0.17-0.06,0.33,0.03,0.51c0.18,0.35,0.35,0.71,0.34,1.12c0,0.14,0.08,0.29,0.14,0.43
		c0.11,0.24,0.33,0.3,0.55,0.28c0.21-0.03,0.39-0.13,0.45-0.37c0.02-0.07,0.06-0.14,0.07-0.18c0.18,0.04,0.33,0.11,0.45,0.08
		c0.14-0.04,0.26-0.18,0.4-0.28c0.27,0.17,0.38,0.46,0.35,0.72c-0.03,0.26,0.06,0.32,0.26,0.41c0.18,0.09,0.43,0.13,0.51,0.37
		c0.09,0.26,0.29,0.39,0.53,0.47c0.07,0.03,0.16,0.05,0.21,0.1c0.12,0.13,0.22,0.28,0.33,0.42c-0.36,0.48-0.36,0.48-0.02,0.77
		c-0.06,0.09-0.13,0.17-0.16,0.27c-0.04,0.12-0.09,0.28-0.05,0.39c0.2,0.5,0.08,1.07,0.38,1.54c0.03,0.05,0.03,0.14,0,0.2
		c-0.1,0.23,0.1,0.52-0.15,0.71c-0.03,0.02-0.02,0.11,0,0.16c0.12,0.23,0.23,0.47,0.38,0.68c0.14,0.2,0.32,0.37,0.5,0.58
		c0.12,0.01,0.27,0.03,0.43,0.05c-0.05,0.22-0.15,0.41-0.12,0.56c0.06,0.29,0.21,0.56,0.3,0.85c0.08,0.26,0.24,0.55,0.18,0.77
		c-0.1,0.39-0.01,0.83-0.31,1.17c-0.14,0.16-0.17,0.38-0.02,0.58c0.21,0.27,0.33,0.62,0.74,0.75c-0.07,0.24-0.13,0.46-0.19,0.68
		c-0.02,0.1-0.07,0.24-0.03,0.31c0.22,0.37,0.48,0.73,0.91,0.87c0.17,0.06,0.29,0.12,0.4,0.25c0.05,0.06,0.12,0.1,0.28,0.23
		c0.06-0.12,0.12-0.24,0.18-0.35c0.12,0.23,0.17,0.48,0.32,0.59c0.15,0.11,0.4,0.09,0.62,0.12c0-0.12,0-0.2,0-0.28
		c0.03-0.01,0.06-0.01,0.09-0.02c0.14,0.37,0.27,0.73,0.41,1.1c0.04,0.11,0.07,0.23,0.11,0.35c0.01,0.03,0.06,0.04,0.11,0.07
		c0.03-0.1,0.06-0.18,0.09-0.27c0.26-0.06,0.33,0.09,0.36,0.29c0.02,0.23,0.1,0.37,0.37,0.3c0.06-0.01,0.14,0.04,0.21,0.07
		c0.25,0.12,0.46,0.27,0.48,0.59c0,0.05,0.11,0.1,0.18,0.17c0.07-0.1,0.12-0.17,0.17-0.24c0.4,0.05,0.48,0.52,0.82,0.62
		c0.12,0.3,0.23,0.59,0.35,0.89c-0.02,0.02-0.05,0.04-0.07,0.07c-0.15-0.07-0.29-0.15-0.45-0.23c-0.04,0.06-0.11,0.12-0.1,0.17
		c0.05,0.33,0.2,0.64,0.46,0.82c0.2,0.14,0.38,0.29,0.56,0.46c0.2,0.19,0.28,0.4,0.18,0.57c0.09,0.23,0.17,0.38,0.2,0.54
		c0.04,0.26,0.14,0.46,0.36,0.53c-0.23,0.92-0.08,1.72,0.41,2.47c0.08-0.04,0.12-0.06,0.17-0.09c0.08,0.11,0.15,0.21,0.24,0.34
		c-0.08-0.61,0.03-0.82,0.49-0.96c0.13,0.56,0.5,0.95,0.97,1.26c0.05-0.2,0.1-0.38,0.14-0.55c0.22,0.04,0.34,0.11,0.42,0.29
		c0.18,0.42,0.3,0.82,0.16,1.28c-0.11,0.34-0.32,0.69-0.09,1.06c0.01,0.01,0.01,0.03,0.01,0.04c-0.2,0.33,0.06,0.63,0.03,0.96
		c0.16-0.06,0.29-0.13,0.37,0.05c0.08,0.17,0.17,0.34,0.26,0.5c0.03,0.06,0.05,0.14,0.1,0.16c0.21,0.09,0.3,0.27,0.4,0.46
		c0.18,0.33,0.2,0.33,0.57,0.13c0.1,0.05,0.21,0.11,0.29,0.15c0.06,0.16,0.08,0.35,0.17,0.39c0.27,0.13,0.28,0.35,0.3,0.58
		c0.06,0.54,0.33,0.95,0.78,1.24c0.13,0.08,0.27,0.25,0.28,0.38c0.02,0.33,0.12,0.6,0.25,0.9c0.08,0.2,0.14,0.29,0.35,0.32
		c0.11,0.02,0.26,0.11,0.28,0.19c0.04,0.19,0.14,0.4-0.02,0.59c-0.12,0.14-0.11,0.3-0.08,0.47C99.19,48.73,99.62,49.29,99.75,49.36z
		 M75.41,80.63c0.3,0.19,0.37,0.16,0.59-0.09c0.23-0.27,0.31-0.52,0.08-0.82c-0.04-0.05-0.06-0.12-0.12-0.23
		c-0.29,0.28-0.71,0.27-0.95,0.59c0.16,0.01,0.39-0.01,0.41,0.05C75.47,80.26,75.42,80.43,75.41,80.63z M28.12,17.38
		c0.04-0.01,0.07-0.02,0.11-0.04c-0.01-0.07-0.03-0.14-0.04-0.21c-0.05,0.01-0.09,0.03-0.14,0.04
		C28.07,17.24,28.1,17.31,28.12,17.38z"/>
	<path d="M77.52,95.75c-0.16-0.43-0.57-0.37-0.9-0.42c-0.12-0.02-0.24,0.02-0.32,0.03c-0.24-0.52-0.4-1.07-0.72-1.52
		c-0.23-0.32-0.27-0.65-0.41-0.97c-0.19-0.44-0.11-0.88-0.18-1.32c-0.01-0.06-0.01-0.16,0.03-0.18c0.26-0.17,0.15-0.38,0.07-0.59
		c-0.03-0.06-0.06-0.13-0.1-0.18c-0.3-0.39-0.4-0.87-0.57-1.31c-0.09-0.23-0.08-0.5-0.12-0.76c-0.02-0.13-0.04-0.27-0.05-0.4
		c-0.01-0.09-0.04-0.23,0.01-0.27c0.24-0.21,0.22-0.47,0.23-0.74c0-0.03,0.05-0.06,0.07-0.08c0.25,0.14,0.49,0.29,0.74,0.4
		c0.16,0.07,0.36,0.15,0.49-0.13c0.03,0.12,0.06,0.24,0.1,0.38c0.35,0.08,0.61,0.31,0.89,0.52c0.31,0.24,0.65,0.53,1.1,0.53
		c0.19,0,0.38-0.04,0.56-0.08c0.38-0.1,0.75-0.28,1.16-0.17c0.03,0.01,0.08-0.01,0.12-0.03c0.18-0.13,0.33-0.09,0.46,0.11
		c0.18-0.17,0.34-0.31,0.5-0.45c0.15,0.08,0.26,0.15,0.42,0.23c0.09-0.12,0.17-0.24,0.27-0.37c0.41,0.13,0.62,0.45,0.75,0.87
		c-0.13,0.23-0.39,0.47-0.1,0.78c-0.2,0.21-0.3,0.44-0.24,0.73c0.01,0.06-0.01,0.14-0.03,0.2c-0.1,0.46-0.19,0.91-0.16,1.39
		c0.01,0.19-0.07,0.39-0.12,0.62c-0.09-0.04-0.17-0.07-0.24-0.09c-0.05-0.22,0.22-0.43-0.05-0.63c-0.37,0.29-0.37,0.71-0.43,1.08
		c0.1,0.12,0.19,0.21,0.26,0.3c-0.12,0.31-0.35,0.35-0.65,0.34c0.13,0.27,0.25,0.48,0.04,0.74c-0.08,0.1,0.01,0.33,0.02,0.5
		c-0.2,0.01-0.36,0.02-0.58,0.03c-0.08-0.19-0.18-0.41-0.27-0.64c-0.11,0.02-0.21,0.04-0.32,0.06c-0.14,0.18,0.2,0.49-0.17,0.6
		c0.02,0.24-0.07,0.44-0.26,0.64c-0.16-0.08-0.33-0.15-0.51-0.24c-0.11,0.15-0.24,0.31-0.36,0.47
		C77.8,95.75,77.66,95.75,77.52,95.75z M79.62,93.79c-0.03,0.02-0.05,0.03-0.08,0.05c0.02,0.1,0.01,0.21,0.22,0.19
		C79.71,93.94,79.67,93.86,79.62,93.79z"/>
	<path class="st0" d="M28.12,17.38c-0.02-0.07-0.05-0.14-0.07-0.21c0.05-0.01,0.09-0.03,0.14-0.04c0.01,0.07,0.03,0.14,0.04,0.21
		C28.19,17.35,28.16,17.37,28.12,17.38z"/>
	<path d="M61.45,72.87c-0.2,0.29-0.2,0.28-0.49,0.21c-0.14-0.04-0.3-0.07-0.44-0.05c-0.09,0.01-0.22,0.11-0.24,0.19
		c-0.04,0.25-0.23,0.28-0.43,0.36c-0.2-0.19-0.41-0.33-0.72-0.16c-0.13,0.07-0.32,0.02-0.49,0.03c-0.16,0.01-0.32,0.02-0.49,0.02
		c-0.19-0.25-0.57-0.46-0.23-0.94c0.75-0.13,1.5-0.48,2.37-0.42c0.01,0.05,0.03,0.11,0.04,0.17c0.01,0.07,0.02,0.14,0.03,0.23
		c0.19,0,0.36,0.1,0.59,0.03C61.17,72.47,61.33,72.69,61.45,72.87z"/>
	<path d="M82.42,85.97c0,0.28,0,0.51,0,0.77c-0.1,0.02-0.19,0.03-0.28,0.05c-0.36,0.07-0.33,0.06-0.48-0.3
		c-0.11-0.28-0.17-0.59-0.43-0.83c0.17-0.16,0.33-0.32,0.5-0.48C82.05,85.42,82.01,85.89,82.42,85.97z"/>
	<path d="M73.32,83.95c0.28,0.13,0.44,0.3,0.36,0.61c0,0.01,0,0.03,0,0.04c0.08,0.49-0.06,0.86-0.62,1
		c-0.2-0.24-0.05-0.54-0.07-0.82C72.98,84.49,73.08,84.2,73.32,83.95z"/>
</g>
</svg>
