<?xml version="1.0" encoding="utf-8"?>
<!-- Generator: Adobe Illustrator 24.3.0, SVG Export Plug-In . SVG Version: 6.00 Build 0)  -->
<svg version="1.1" id="Layer_1" xmlns="http://www.w3.org/2000/svg" xmlns:xlink="http://www.w3.org/1999/xlink" x="0px" y="0px"
	 viewBox="0 0 32 32" style="enable-background:new 0 0 32 32;" xml:space="preserve">
<style type="text/css">
	.st0{fill:#C8902B;}
	.st1{fill:#FFCD7E;}
	.st2{fill:#FBB235;}
	.st3{fill:#81D2F5;}
	.st4{fill:#2887C8;}
	.st5{fill:#54B8E8;}
</style>
<g>
	<g>
		<polygon class="st0" points="13.76,9.46 12.4,11.32 16,8.71 16,7.83 13.76,9.46 		"/>
		<polygon class="st1" points="16,7.83 16,8.71 19.6,11.32 18.24,9.46 16,7.83 		"/>
		<polygon class="st0" points="26.8,13.66 27.66,16.3 29.01,18.16 27.64,13.93 26.8,13.66 		"/>
		<polygon class="st0" points="21.79,12.03 19.6,11.32 23.19,13.93 25.42,15.55 29.01,18.16 27.66,16.3 21.79,12.03 		"/>
		<polygon class="st1" points="26.8,13.66 27.64,13.93 31.24,11.32 29.04,12.03 26.8,13.66 		"/>
		<polygon class="st0" points="29.04,12.03 31.24,11.32 26.79,11.32 26.27,12.03 29.04,12.03 		"/>
		<polygon class="st1" points="26.27,12.03 26.79,11.32 25.42,7.09 25.42,7.09 25.42,7.09 25.42,9.4 26.27,12.03 		"/>
		<polygon class="st2" points="26.27,12.03 25.42,9.4 24.56,12.03 21.79,12.03 27.66,16.3 26.8,13.66 29.04,12.03 26.27,12.03 		"/>
		<polygon class="st1" points="5.73,12.03 5.21,11.32 0.76,11.32 2.96,12.03 5.73,12.03 		"/>
		<polygon class="st1" points="7.44,12.03 7.96,11.32 6.58,7.09 6.58,9.4 7.44,12.03 		"/>
		<polygon class="st0" points="2.96,12.03 0.76,11.32 4.36,13.93 5.2,13.66 2.96,12.03 		"/>
		<polygon class="st0" points="6.58,9.4 6.58,7.09 5.21,11.32 5.73,12.03 6.58,9.4 		"/>
		<polygon class="st0" points="7.44,12.03 10.21,12.03 12.4,11.32 7.96,11.32 7.44,12.03 		"/>
		<polygon class="st1" points="5.2,13.66 4.36,13.93 2.99,18.16 4.34,16.3 5.2,13.66 		"/>
		<polygon class="st1" points="4.34,16.3 2.99,18.16 6.58,15.55 8.81,13.93 12.4,11.32 10.21,12.03 4.34,16.3 		"/>
		<polygon class="st2" points="5.73,12.03 2.96,12.03 5.2,13.66 4.34,16.3 10.21,12.03 7.44,12.03 6.58,9.4 5.73,12.03 		"/>
		<polygon class="st3" points="9.95,17.45 10.18,18.16 16,13.93 16,13.05 9.95,17.45 		"/>
		<polygon class="st4" points="8.78,17.45 6.58,18.16 10.18,18.16 9.95,17.45 8.78,17.45 		"/>
		<polygon class="st4" points="16,12.2 16,11.32 6.58,18.16 8.78,17.45 16,12.2 		"/>
		<polygon class="st3" points="16,12.2 23.22,17.45 25.42,18.16 16,11.32 16,12.2 		"/>
		<polygon class="st4" points="16,13.05 16,13.93 16,13.93 21.82,18.16 22.05,17.45 16,13.05 		"/>
		<polygon class="st4" points="22.05,17.45 21.82,18.16 25.42,18.16 23.22,17.45 22.05,17.45 		"/>
		<polygon class="st5" points="9.95,17.45 16,13.05 22.05,17.45 23.22,17.45 16,12.2 8.78,17.45 9.95,17.45 		"/>
		<polygon class="st1" points="15.14,5.19 14.88,4.84 14.63,4.48 10.18,4.48 12.37,5.19 15.14,5.19 		"/>
		<polygon class="st0" points="12.37,5.19 10.18,4.48 13.78,7.09 14.61,6.82 12.37,5.19 		"/>
		<polygon class="st1" points="20.72,4.84 19.63,5.19 19.63,5.19 17.39,6.82 18.22,7.09 21.82,4.48 20.72,4.84 		"/>
		<polygon class="st0" points="16,2.56 16,2.56 16,0.25 14.63,4.48 14.88,4.84 15.14,5.19 16,2.56 		"/>
		<polygon class="st5" points="15.14,5.19 14.88,4.84 15.14,5.19 15.14,5.19 		"/>
		<polygon class="st1" points="16.86,5.19 16.86,5.19 17.37,4.48 16,0.25 16,2.56 16.86,5.19 		"/>
		<polygon class="st0" points="19.63,5.19 20.72,4.84 21.82,4.48 17.37,4.48 16.86,5.19 19.63,5.19 		"/>
		<polygon class="st5" points="19.63,5.19 19.63,5.19 20.72,4.84 19.63,5.19 19.63,5.19 		"/>
		<polygon class="st1" points="13.78,7.09 12.4,11.32 13.76,9.46 14.61,6.82 13.78,7.09 		"/>
		<polygon class="st0" points="18.24,9.46 19.6,11.32 18.22,7.09 17.39,6.82 18.24,9.46 		"/>
		<polygon class="st2" points="19.63,5.19 16.86,5.19 16,2.56 15.14,5.19 15.14,5.19 12.37,5.19 14.61,6.82 13.76,9.46 16,7.83 
			18.24,9.46 17.39,6.82 19.63,5.19 		"/>
		<polygon class="st2" points="16,2.56 15.14,5.19 15.14,5.19 15.14,5.19 16,2.56 16,2.56 16,2.56 		"/>
		<polygon class="st2" points="16.86,5.19 16.86,5.19 19.63,5.19 19.63,5.19 16.86,5.19 		"/>
		<polygon class="st2" points="16.86,5.19 16,2.56 16,2.56 16.86,5.19 16.86,5.19 16.86,5.19 		"/>
		<polygon class="st5" points="16.27,16.92 16.27,17.45 15.74,17.45 15.74,16.92 16.27,16.92 		"/>
		<polygon class="st1" points="19.6,11.32 21.79,12.03 24.56,12.03 24.04,11.32 19.6,11.32 		"/>
		<polygon class="st0" points="24.04,11.32 24.56,12.03 25.42,9.4 25.42,7.09 24.04,11.32 		"/>
		<polygon class="st3" points="16.27,16.92 16.27,17.45 16.26,17.45 16.98,18.16 16.98,18.16 16.98,16.21 15.02,16.21 15.74,16.92 
			16.27,16.92 		"/>
		<polygon class="st4" points="15.02,18.16 16.98,18.16 16.26,17.45 15.74,17.45 15.74,16.92 15.74,16.92 15.02,16.21 15.02,16.21 
			15.02,18.16 		"/>
	</g>
	<g>
		<g>
			<path d="M11.74,23.26c0,1.06-1.08,2.04-2.26,2.04c-0.09,0-0.21-0.01-0.35-0.02l-0.25-0.02c-0.08-0.02-0.16-0.02-0.24-0.02
				c-0.22,0-0.45,0.04-0.65,0.1c-0.08,0.03-0.11,0.04-0.16,0.04c-0.21,0-0.35-0.19-0.35-0.47c0-0.18,0.02-0.35,0.08-0.58
				c0.07-0.29,0.18-0.68,0.32-1.05l0.35-0.95l0.24-0.64c0.07-0.19,0.12-0.34,0.14-0.42c0.02-0.07,0.03-0.12,0.04-0.14
				c0-0.02,0.01-0.02,0.01-0.03c0-0.04-0.02-0.05-0.13-0.08c-0.12-0.03-0.2-0.14-0.2-0.27c0-0.23,0.13-0.3,0.64-0.35l0.67-0.07
				c0.59-0.05,0.78-0.07,0.98-0.07c0.86,0,1.36,0.33,1.36,0.88c0,0.28-0.12,0.53-0.35,0.73c-0.13,0.12-0.29,0.23-0.54,0.37
				C11.52,22.43,11.74,22.79,11.74,23.26z M10.84,22.23c0.4-0.2,0.62-0.35,0.76-0.49c0.16-0.16,0.26-0.39,0.26-0.61
				c0-0.48-0.46-0.77-1.24-0.77c-0.22,0-0.4,0.02-1.24,0.09c-0.45,0.05-0.55,0.06-0.71,0.08c-0.15,0.02-0.23,0.08-0.23,0.2
				c0,0.08,0.05,0.14,0.12,0.16l0.08,0.02c0.09,0.02,0.12,0.06,0.12,0.14c0,0.12-0.12,0.5-0.42,1.29c-0.35,0.9-0.48,1.3-0.62,1.81
				C7.63,24.49,7.6,24.7,7.6,24.9c0,0.22,0.09,0.35,0.24,0.35c0.04,0,0.05,0,0.12-0.02c0.2-0.08,0.45-0.12,0.69-0.12
				c0.08,0,0.16,0.01,0.25,0.02l0.24,0.03c0.14,0.02,0.25,0.02,0.34,0.02c1.11,0,2.14-0.93,2.14-1.94c0-0.3-0.12-0.58-0.35-0.78
				c-0.14-0.12-0.28-0.18-0.51-0.21L10.84,22.23z M10.52,22.33c0.63,0,1.03,0.36,1.03,0.94c0,0.95-1.01,1.84-2.07,1.84
				c-0.08,0-0.19-0.01-0.32-0.02l-0.25-0.03c-0.09-0.01-0.18-0.02-0.26-0.02c-0.25,0-0.42,0.03-0.72,0.12
				c-0.05,0.02-0.07,0.02-0.09,0.02c-0.1,0-0.16-0.11-0.16-0.27c0-0.18,0.04-0.4,0.12-0.72c0.14-0.49,0.27-0.89,0.62-1.8
				c0.31-0.81,0.43-1.18,0.43-1.32c0-0.12-0.06-0.18-0.18-0.22l-0.08-0.02c-0.05-0.02-0.07-0.04-0.07-0.09
				c0-0.08,0.05-0.1,0.35-0.14C9,20.57,9.1,20.57,9.53,20.52c0.75-0.07,0.9-0.08,1.09-0.08c0.73,0,1.16,0.25,1.16,0.69
				c0,0.31-0.15,0.52-0.55,0.79c-0.23,0.15-0.52,0.3-0.81,0.41H10.52z M9.15,24.85c0.53,0,1.15-0.91,1.15-1.71
				c0-0.31-0.18-0.51-0.46-0.51c-0.14,0-0.28,0.06-0.38,0.17c-0.09,0.09-0.14,0.18-0.24,0.45l-0.19,0.56
				C9,23.89,8.97,23.99,8.91,24.19c-0.05,0.2-0.08,0.28-0.08,0.35C8.83,24.74,8.95,24.85,9.15,24.85z M9.05,24.02
				c0.1-0.33,0.22-0.7,0.28-0.85c0.13-0.32,0.28-0.45,0.51-0.45c0.24,0,0.38,0.16,0.38,0.43c0,0.73-0.59,1.62-1.08,1.62
				c-0.15,0-0.22-0.08-0.22-0.22C8.92,24.49,8.96,24.35,9.05,24.02z M9.84,22.83c-0.2,0-0.3,0.12-0.44,0.49l-0.19,0.55
				c-0.08,0.22-0.18,0.58-0.18,0.66c0,0.08,0.04,0.12,0.12,0.12c0.12,0,0.33-0.12,0.48-0.29c0.28-0.32,0.48-0.82,0.48-1.21
				C10.11,22.94,10.02,22.83,9.84,22.83z M10.79,21.11c0-0.27-0.15-0.44-0.41-0.44c-0.12,0-0.22,0.02-0.37,0.07
				c-0.02,0.27-0.08,0.52-0.25,0.99L9.6,22.21c-0.01,0.03-0.04,0.12-0.08,0.24C10.29,22.18,10.79,21.65,10.79,21.11z M9.69,22.24
				l0.16-0.48c0.15-0.45,0.22-0.71,0.24-0.95c0.1-0.03,0.2-0.05,0.29-0.05c0.21,0,0.32,0.13,0.32,0.35c0,0.45-0.46,0.98-1.05,1.2
				L9.69,22.24z M10.35,21.68c0.15-0.19,0.25-0.4,0.25-0.58c0-0.15-0.08-0.23-0.22-0.23c-0.05,0-0.08,0-0.19,0.02
				c-0.05,0.32-0.09,0.48-0.34,1.21C10.11,21.93,10.23,21.84,10.35,21.68z"/>
			<path d="M14.71,21.36c-0.06,0.22-0.13,0.41-0.32,0.94c0.28-0.04,0.51-0.06,0.71-0.06c0.36,0,0.51,0.11,0.51,0.35
				c0,0.29-0.13,0.51-0.32,0.51c-0.07,0-0.14-0.04-0.18-0.08l-0.05-0.05c-0.03-0.04-0.12-0.05-0.32-0.05
				c-0.12,0-0.25,0.01-0.61,0.05c-0.11,0.26-0.14,0.34-0.25,0.65c-0.18,0.5-0.27,0.81-0.27,0.97c0,0.07,0.04,0.11,0.11,0.11
				c0.45,0,1-0.41,1.38-1.02c0.09-0.16,0.17-0.22,0.28-0.22c0.17,0,0.3,0.13,0.3,0.28c0,0.08-0.02,0.17-0.08,0.3l-0.12,0.26
				c-0.05,0.12-0.1,0.25-0.14,0.38l-0.1,0.35c-0.06,0.22-0.22,0.36-0.39,0.36c-0.06,0-0.12-0.02-0.29-0.05
				c-0.28-0.06-0.51-0.08-0.98-0.08c-0.34,0-0.64,0.03-0.98,0.09c-0.08,0.02-0.16,0.02-0.2,0.02c-0.22,0-0.35-0.17-0.35-0.48
				c0-0.19,0.04-0.4,0.13-0.78c0.1-0.36,0.28-0.9,0.48-1.38l0.18-0.45c0.12-0.29,0.24-0.61,0.35-0.92c0.05-0.15,0.08-0.25,0.08-0.32
				c0-0.08-0.01-0.09-0.12-0.14c-0.12-0.05-0.18-0.14-0.18-0.25c0-0.17,0.13-0.28,0.34-0.28c0.02,0,0.05,0,0.09,0
				c0.12,0.01,0.23,0.01,0.31,0.01c0.25,0,0.48-0.02,0.85-0.06l0.15-0.02c0.41-0.05,0.58-0.06,0.9-0.06c0.59,0,0.85,0.11,0.85,0.37
				c0,0.09,0,0.1-0.13,0.48c0,0.01-0.01,0.03-0.05,0.18c-0.08,0.26-0.12,0.37-0.12,0.41l-0.05,0.2c-0.04,0.17-0.15,0.27-0.29,0.27
				c-0.17,0-0.31-0.15-0.31-0.31c0-0.03,0-0.08,0.01-0.14c0.03-0.23,0.04-0.28,0.04-0.41c0-0.34-0.08-0.41-0.47-0.41
				c-0.07,0-0.14,0-0.26,0.02C14.77,21.07,14.76,21.16,14.71,21.36z M14.77,20.81c0.14-0.02,0.22-0.02,0.3-0.02
				c0.45,0,0.58,0.12,0.58,0.52c0,0.13-0.01,0.22-0.04,0.42c-0.01,0.05-0.02,0.09-0.02,0.12c0,0.1,0.09,0.19,0.2,0.19
				c0.09,0,0.15-0.06,0.18-0.18l0.05-0.2c0.01-0.04,0.04-0.13,0.08-0.28c0.05-0.17,0.08-0.28,0.09-0.32
				c0.12-0.36,0.12-0.37,0.12-0.44c0-0.18-0.22-0.25-0.73-0.25c-0.31,0-0.51,0.01-0.88,0.05l-0.16,0.02
				c-0.34,0.05-0.58,0.06-0.85,0.06c-0.08,0-0.19,0-0.32-0.01c-0.04,0-0.07,0-0.08,0c-0.15,0-0.22,0.06-0.22,0.17
				c0,0.06,0.03,0.11,0.12,0.15c0.15,0.07,0.18,0.12,0.18,0.24c0,0.08-0.02,0.18-0.08,0.35c-0.1,0.28-0.23,0.64-0.35,0.92
				l-0.18,0.46c-0.36,0.91-0.59,1.72-0.59,2.11c0,0.24,0.08,0.36,0.23,0.36c0.03,0,0.11-0.01,0.18-0.02
				c0.32-0.06,0.67-0.09,1.01-0.09c0.48,0,0.7,0.02,1,0.08c0.17,0.04,0.22,0.05,0.27,0.05c0.12,0,0.24-0.12,0.28-0.28l0.1-0.35
				c0.04-0.14,0.08-0.26,0.14-0.39l0.12-0.26c0.05-0.11,0.07-0.2,0.07-0.25c0-0.09-0.08-0.17-0.18-0.17c-0.07,0-0.12,0.04-0.19,0.15
				c-0.38,0.64-0.97,1.08-1.45,1.08c-0.16,0-0.24-0.06-0.24-0.2c0-0.22,0.15-0.71,0.41-1.38l0.12-0.31c0.01,0,0.02-0.02,0.02-0.05
				l0.06-0.01c0.28-0.04,0.5-0.05,0.65-0.05c0.23,0,0.33,0.02,0.39,0.09l0.04,0.05c0.02,0.02,0.06,0.05,0.09,0.05
				c0.12,0,0.21-0.17,0.21-0.4c0-0.17-0.11-0.23-0.4-0.23c-0.22,0-0.55,0.03-0.84,0.08l-0.05,0.01l0.02-0.07
				c0.27-0.71,0.33-0.88,0.41-1.2c0.04-0.16,0.05-0.25,0.06-0.36L14.77,20.81z M14.15,22.35l-0.07,0.2c0.46-0.08,0.75-0.12,1-0.12
				c0.25,0,0.33,0.03,0.33,0.15c0,0.18-0.06,0.32-0.13,0.32c-0.01,0-0.02-0.01-0.03-0.02l-0.04-0.05c-0.07-0.08-0.19-0.12-0.45-0.12
				c-0.16,0-0.35,0.02-0.66,0.06l-0.12,0.01c-0.02,0.06-0.03,0.09-0.04,0.11l-0.12,0.3c-0.27,0.68-0.41,1.18-0.41,1.41
				c0,0.18,0.11,0.28,0.32,0.28c0.51,0,1.16-0.48,1.52-1.11c0.05-0.09,0.08-0.12,0.13-0.12c0.05,0,0.1,0.05,0.1,0.09
				c0,0.04-0.03,0.12-0.07,0.22l-0.12,0.26c-0.06,0.13-0.11,0.26-0.15,0.4l-0.1,0.35c-0.04,0.13-0.12,0.22-0.22,0.22
				c-0.03,0-0.08-0.01-0.25-0.04c-0.31-0.06-0.53-0.08-1.01-0.08c-0.22,0-0.37,0.01-0.55,0.02c-0.16,0.02-0.37,0.05-0.46,0.07
				c-0.07,0.02-0.14,0.02-0.18,0.02c-0.09,0-0.15-0.1-0.15-0.29c0-0.36,0.24-1.18,0.59-2.07l0.18-0.46
				c0.12-0.28,0.26-0.65,0.35-0.93c0.06-0.18,0.09-0.28,0.09-0.38c0-0.16-0.06-0.24-0.22-0.32c-0.05-0.02-0.07-0.04-0.07-0.07
				c0-0.06,0.05-0.09,0.14-0.09c0.02,0,0.05,0,0.08,0.01c0.14,0,0.25,0.01,0.32,0.01c0.26,0,0.5-0.02,0.87-0.06l0.15-0.02
				c0.39-0.05,0.58-0.06,0.88-0.06c0.44,0,0.65,0.06,0.65,0.18c0,0.02-0.01,0.05-0.02,0.08l-0.11,0.32
				c-0.01,0.04-0.05,0.15-0.1,0.32c-0.04,0.15-0.07,0.25-0.08,0.29l-0.05,0.19c-0.02,0.08-0.05,0.12-0.11,0.12
				c-0.06,0-0.12-0.05-0.12-0.11c0-0.03,0-0.07,0.01-0.11c0.03-0.17,0.04-0.32,0.04-0.43c0-0.46-0.17-0.61-0.66-0.61
				c-0.08,0-0.15,0.01-0.31,0.02l-0.13,0.02C14.59,21.11,14.49,21.47,14.15,22.35z"/>
			<path d="M17.39,25.37c-0.41,0-0.87-0.12-1.19-0.31c-0.17-0.09-0.25-0.21-0.25-0.35c0-0.08,0.01-0.12,0.09-0.35
				c0.02-0.08,0.09-0.32,0.15-0.51c0.08-0.32,0.18-0.44,0.36-0.44c0.17,0,0.3,0.14,0.3,0.32c0,0.02,0,0.06-0.01,0.11
				c-0.01,0.13-0.02,0.28-0.02,0.35c0,0.36,0.18,0.53,0.54,0.53c0.28,0,0.49-0.1,0.65-0.3c0.15-0.18,0.23-0.38,0.23-0.53
				c0-0.21-0.11-0.38-0.32-0.52l-0.42-0.29c-0.48-0.32-0.71-0.71-0.71-1.2c0-0.91,0.91-1.66,2.04-1.66c0.85,0,1.37,0.36,1.37,0.94
				c0,0.41-0.31,0.77-0.68,0.77c-0.31,0-0.55-0.23-0.55-0.51c0-0.18,0.09-0.33,0.25-0.41c0.03-0.02,0.04-0.03,0.04-0.05
				c0-0.06-0.15-0.11-0.32-0.11c-0.4,0-0.75,0.28-0.75,0.59c0,0.15,0.06,0.26,0.24,0.39l0.42,0.32c0.42,0.31,0.53,0.41,0.63,0.57
				c0.12,0.19,0.19,0.45,0.19,0.69C19.68,24.51,18.67,25.37,17.39,25.37z M19.34,22.72c-0.08-0.12-0.25-0.25-0.54-0.47
				c-0.18-0.12-0.42-0.31-0.49-0.37c-0.15-0.13-0.22-0.25-0.22-0.43c0-0.38,0.4-0.71,0.86-0.71c0.25,0,0.44,0.11,0.43,0.23
				c0,0.05-0.03,0.09-0.09,0.13c-0.15,0.09-0.2,0.18-0.2,0.32c0,0.22,0.19,0.39,0.44,0.39c0.32,0,0.58-0.3,0.58-0.65
				c0-0.5-0.48-0.83-1.21-0.83c-1.09,0-1.98,0.69-1.98,1.55c0,0.45,0.22,0.8,0.68,1.11L18,23.29c0.24,0.16,0.36,0.37,0.36,0.61
				c0,0.2-0.12,0.45-0.3,0.65c-0.17,0.18-0.41,0.29-0.7,0.29c-0.43,0-0.65-0.22-0.65-0.65c0-0.07,0.01-0.25,0.02-0.35
				c0-0.04,0-0.08,0-0.1c0-0.12-0.08-0.21-0.18-0.21c-0.12,0-0.18,0.09-0.25,0.35c-0.05,0.18-0.12,0.42-0.15,0.51
				c-0.08,0.22-0.08,0.25-0.08,0.31c0,0.12,0.07,0.2,0.23,0.28c0.31,0.16,0.73,0.26,1.09,0.26c1.22,0,2.18-0.81,2.18-1.83
				C19.57,23.16,19.49,22.92,19.34,22.72z M17.39,25.18c-0.36,0-0.8-0.12-1.08-0.28c-0.12-0.06-0.16-0.12-0.16-0.19
				c0-0.04,0.01-0.07,0.08-0.28c0.04-0.12,0.09-0.32,0.15-0.51c0.06-0.22,0.11-0.3,0.18-0.3c0.06,0,0.11,0.05,0.11,0.13
				c0,0.02-0.01,0.05-0.01,0.09c0,0.02-0.01,0.06-0.01,0.12c-0.01,0.1-0.01,0.2-0.01,0.25c0,0.48,0.25,0.74,0.74,0.74
				c0.32,0,0.6-0.13,0.8-0.38c0.18-0.22,0.28-0.45,0.28-0.65c0-0.27-0.15-0.51-0.4-0.68l-0.42-0.28c-0.43-0.29-0.64-0.63-0.64-1.05
				c0-0.81,0.84-1.47,1.85-1.47c0.73,0,1.18,0.28,1.18,0.75c0,0.31-0.22,0.57-0.49,0.57c-0.2,0-0.36-0.14-0.36-0.31
				c0-0.12,0.04-0.18,0.16-0.25c0.09-0.05,0.14-0.12,0.14-0.2c0-0.18-0.22-0.31-0.51-0.31c-0.51,0-0.94,0.35-0.94,0.78
				c0,0.15,0.05,0.3,0.15,0.4c0.04,0.04,0.09,0.09,0.17,0.15c0.15,0.12,0.28,0.22,0.42,0.32c0.34,0.25,0.48,0.38,0.58,0.51
				c0.11,0.16,0.17,0.38,0.17,0.59C19.49,24.4,18.56,25.18,17.39,25.18z"/>
			<path d="M23.27,21.46c-0.12,0.41-0.25,0.76-0.45,1.3c-0.3,0.77-0.36,0.93-0.47,1.28c-0.07,0.22-0.09,0.34-0.09,0.43
				c0,0.08,0,0.08,0.12,0.12c0.12,0.05,0.17,0.14,0.17,0.25c0,0.22-0.12,0.28-0.54,0.32c-0.2,0.01-0.45,0.05-0.59,0.1l-0.25,0.08
				c-0.07,0.02-0.13,0.03-0.17,0.03c-0.21,0-0.34-0.18-0.34-0.48c0-0.18,0.04-0.41,0.12-0.71c0.09-0.35,0.28-0.9,0.45-1.37
				l0.32-0.81c0.06-0.18,0.18-0.51,0.25-0.71c0.04-0.11,0.06-0.18,0.11-0.38c-0.16,0.04-0.27,0.1-0.42,0.23
				c-0.19,0.17-0.32,0.34-0.53,0.75c-0.09,0.17-0.17,0.23-0.3,0.23c-0.16,0-0.28-0.12-0.28-0.28c0-0.09,0.02-0.17,0.11-0.35
				c0.08-0.18,0.15-0.37,0.22-0.61c0.04-0.12,0.06-0.23,0.07-0.27l0.02-0.08c0.03-0.18,0.16-0.29,0.32-0.29
				c0.04,0,0.1,0.01,0.17,0.02c0.25,0.04,0.67,0.06,1.24,0.06c0.58,0,1.05-0.02,1.53-0.06c0.07-0.01,0.16-0.02,0.19-0.02
				c0.23,0,0.38,0.13,0.38,0.33c0,0.07-0.02,0.17-0.14,0.55c-0.1,0.35-0.13,0.47-0.15,0.63c-0.05,0.25-0.14,0.37-0.32,0.37
				c-0.16,0-0.29-0.14-0.29-0.31c0-0.05,0.01-0.08,0.02-0.15c0-0.02,0.01-0.08,0.01-0.16c0.01-0.06,0.02-0.14,0.02-0.16
				c0-0.29-0.11-0.42-0.35-0.44C23.37,21.13,23.35,21.22,23.27,21.46z M23.39,20.77c0.32,0,0.49,0.19,0.49,0.55
				c0,0.02-0.01,0.1-0.02,0.17c-0.01,0.08-0.01,0.15-0.02,0.16c0,0.05-0.01,0.1-0.01,0.13c0,0.12,0.08,0.2,0.18,0.2
				c0.12,0,0.18-0.08,0.21-0.28c0.02-0.09,0.04-0.19,0.07-0.32l0.09-0.32l0.1-0.36c0.02-0.06,0.03-0.12,0.03-0.16
				c0.01-0.13-0.09-0.22-0.26-0.22c-0.03,0-0.12,0.01-0.18,0.02c-0.45,0.04-0.95,0.06-1.54,0.06c-0.57,0-1.03-0.02-1.25-0.06
				c-0.05-0.02-0.11-0.02-0.15-0.02c-0.11,0-0.19,0.08-0.22,0.21l-0.02,0.08c-0.04,0.22-0.19,0.65-0.31,0.9
				c-0.08,0.17-0.1,0.24-0.1,0.31c0,0.09,0.08,0.16,0.18,0.16c0.08,0,0.13-0.05,0.2-0.17c0.38-0.71,0.72-1.02,1.18-1.04
				c-0.01,0.12-0.03,0.23-0.08,0.39c-0.08,0.27-0.19,0.58-0.3,0.86l-0.32,0.82c-0.18,0.45-0.36,1.01-0.45,1.35
				c-0.08,0.28-0.12,0.51-0.12,0.68c0,0.24,0.08,0.37,0.22,0.37c0.03,0,0.08-0.01,0.13-0.02c0.4-0.14,0.57-0.17,0.87-0.19
				c0.35-0.02,0.44-0.06,0.44-0.2c0-0.07-0.03-0.12-0.11-0.15l-0.08-0.04c-0.07-0.03-0.11-0.1-0.11-0.2c0-0.1,0.03-0.23,0.1-0.45
				c0.11-0.34,0.16-0.5,0.47-1.28c0.38-0.99,0.57-1.59,0.59-1.94C23.33,20.77,23.38,20.77,23.39,20.77z M23.13,21.27
				c-0.1,0.36-0.25,0.81-0.49,1.41c-0.08,0.22-0.15,0.41-0.24,0.63c-0.11,0.27-0.22,0.59-0.27,0.78c-0.05,0.18-0.07,0.27-0.07,0.35
				c0,0.17,0.06,0.24,0.25,0.32c0.05,0.02,0.05,0.03,0.05,0.08c0,0.07-0.06,0.09-0.35,0.11c-0.31,0.02-0.6,0.08-0.9,0.2
				c-0.04,0.02-0.07,0.02-0.09,0.02c-0.1,0-0.15-0.11-0.15-0.29c0-0.16,0.04-0.39,0.11-0.67c0.09-0.33,0.28-0.89,0.45-1.34
				l0.32-0.81c0.16-0.41,0.3-0.83,0.36-1.08c0.02-0.12,0.04-0.18,0.05-0.29c-0.33,0.01-0.48,0.06-0.71,0.23
				c-0.18,0.15-0.28,0.26-0.44,0.51c-0.15,0.24-0.19,0.31-0.22,0.35c-0.04,0.09-0.08,0.12-0.12,0.12c-0.05,0-0.09-0.04-0.09-0.08
				c0-0.05,0.02-0.13,0.09-0.28c0.1-0.22,0.22-0.57,0.28-0.8l0.02-0.12L21,20.56c0.03-0.11,0.06-0.15,0.15-0.15
				c0.03,0,0.07,0.01,0.12,0.02c0.15,0.03,0.26,0.04,0.51,0.05c0.2,0.01,0.62,0.01,0.85,0.01c0.51,0,1.07-0.02,1.46-0.06
				c0.07-0.01,0.15-0.01,0.19-0.01c0.1,0,0.16,0.05,0.16,0.12c0,0.03-0.01,0.09-0.02,0.15l-0.1,0.35l-0.09,0.32
				c-0.04,0.13-0.06,0.24-0.07,0.33c-0.02,0.15-0.05,0.2-0.13,0.2c-0.05,0-0.09-0.05-0.09-0.12c0-0.02,0-0.06,0.01-0.11
				c0-0.02,0.01-0.08,0.02-0.17c0.01-0.08,0.01-0.16,0.01-0.2c0-0.38-0.22-0.61-0.55-0.61c-0.04,0-0.11,0.01-0.18,0.01
				C23.22,20.91,23.2,21.03,23.13,21.27z"/>
		</g>
		<g>
			<path d="M7.39,29.71c-0.2,0.53-0.22,0.57-0.28,0.85c-0.04,0.15-0.05,0.22-0.05,0.27c0,0.06,0.02,0.09,0.11,0.13
				c0.14,0.05,0.19,0.12,0.19,0.25c0,0.19-0.12,0.28-0.39,0.3C6.56,31.54,6.27,31.6,6,31.7c-0.1,0.04-0.14,0.05-0.19,0.05
				c-0.23,0-0.36-0.18-0.36-0.48c0-0.2,0.05-0.51,0.16-0.88c0.06-0.22,0.15-0.48,0.25-0.78c0.05-0.15,0.1-0.27,0.22-0.58
				c0.05-0.12,0.09-0.26,0.14-0.38c0.1-0.25,0.21-0.54,0.29-0.78c0.08-0.22,0.12-0.37,0.12-0.46c0-0.06-0.01-0.07-0.1-0.12
				c-0.13-0.06-0.19-0.15-0.19-0.26c0-0.16,0.13-0.29,0.31-0.29c0.02,0,0.05,0.01,0.08,0.01c0.09,0.01,0.12,0.01,0.18,0.01
				c0.24,0,0.58-0.05,0.78-0.12c0.11-0.03,0.12-0.04,0.16-0.04c0.2,0,0.34,0.17,0.34,0.42c0,0.38-0.12,0.8-0.45,1.71
				c0.13,0.01,0.2,0.01,0.29,0.01c0.11,0,0.18,0,0.33-0.02l0.2-0.53c0.19-0.49,0.25-0.68,0.25-0.79c0-0.05-0.01-0.07-0.05-0.09
				c-0.18-0.09-0.23-0.15-0.23-0.28c0-0.17,0.12-0.28,0.31-0.28c0.02,0,0.08,0,0.16,0c0.04,0.01,0.08,0.01,0.12,0.01
				c0.24,0,0.45-0.03,0.68-0.09l0.15-0.05c0.04-0.01,0.07-0.02,0.1-0.02c0.21,0,0.34,0.17,0.34,0.45c0,0.22-0.05,0.45-0.18,0.88
				c-0.12,0.38-0.24,0.72-0.44,1.21c-0.08,0.21-0.15,0.4-0.23,0.61c-0.18,0.45-0.32,0.94-0.32,1.08c0,0.07,0.01,0.08,0.12,0.14
				c0.12,0.05,0.17,0.13,0.17,0.25c0,0.19-0.12,0.28-0.39,0.29c-0.34,0.03-0.65,0.08-0.86,0.16c-0.22,0.08-0.23,0.08-0.31,0.08
				c-0.21,0-0.34-0.18-0.34-0.48c0-0.38,0.15-0.93,0.51-1.91H7.98c-0.22,0-0.27,0.01-0.47,0.02C7.46,29.52,7.42,29.64,7.39,29.71z
				 M7.63,29.25c0.05,0,0.11,0,0.21-0.01c0.1,0,0.13,0,0.17,0c0.12,0,0.18,0.01,0.28,0.02c-0.02,0.04-0.02,0.05-0.02,0.06
				l-0.21,0.58c-0.1,0.26-0.22,0.68-0.28,0.95c-0.04,0.18-0.05,0.28-0.05,0.42c0,0.22,0.08,0.35,0.22,0.35c0.05,0,0.05,0,0.26-0.08
				c0.17-0.05,0.28-0.08,0.46-0.11c0.18-0.03,0.35-0.05,0.43-0.05c0.21-0.02,0.28-0.06,0.28-0.18c0-0.08-0.02-0.11-0.11-0.15
				c-0.16-0.08-0.19-0.12-0.19-0.25c0-0.09,0.03-0.22,0.08-0.41c0.12-0.4,0.17-0.52,0.48-1.32c0.2-0.5,0.33-0.86,0.45-1.26
				c0.12-0.39,0.15-0.59,0.15-0.78c0-0.21-0.08-0.33-0.21-0.33c-0.02,0-0.05,0.01-0.08,0.02l-0.15,0.05
				c-0.23,0.06-0.46,0.09-0.71,0.09c-0.05,0-0.08,0-0.12,0c-0.08-0.01-0.14-0.01-0.15-0.01c-0.12,0-0.19,0.07-0.19,0.17
				c0,0.08,0.03,0.11,0.16,0.17c0.1,0.05,0.13,0.1,0.13,0.19c0,0.13-0.03,0.25-0.18,0.66c-0.08,0.21-0.15,0.41-0.23,0.61
				c-0.02,0.05-0.04,0.08-0.08,0.18c-0.12,0.01-0.22,0.02-0.38,0.02c-0.17,0-0.28-0.01-0.48-0.02c0.02-0.08,0.03-0.1,0.12-0.32
				c0.03-0.09,0.12-0.35,0.18-0.52c0.14-0.43,0.2-0.72,0.2-0.98c0-0.19-0.08-0.31-0.21-0.31c-0.03,0-0.05,0-0.13,0.03
				c-0.21,0.07-0.57,0.12-0.82,0.12c-0.07,0-0.12,0-0.19-0.01c-0.03,0-0.06,0-0.08,0c-0.11,0-0.19,0.08-0.19,0.17
				c0,0.07,0.03,0.11,0.12,0.15c0.14,0.06,0.17,0.11,0.17,0.23c0,0.16-0.03,0.26-0.41,1.28c-0.35,0.89-0.51,1.36-0.61,1.74
				c-0.09,0.35-0.15,0.65-0.15,0.84c0,0.23,0.08,0.36,0.25,0.36c0.04,0,0.07-0.01,0.15-0.04c0.27-0.11,0.61-0.17,0.99-0.2
				c0.21-0.02,0.28-0.06,0.28-0.18c0-0.08-0.02-0.11-0.12-0.15c-0.13-0.05-0.18-0.12-0.18-0.24c0-0.05,0.01-0.11,0.03-0.22
				c0.03-0.14,0.09-0.35,0.13-0.46l0.18-0.48l0.14-0.36l0.02-0.05C7.51,29.25,7.53,29.25,7.63,29.25z M7.27,29.41
				c-0.25,0.66-0.43,1.23-0.43,1.42c0,0.16,0.06,0.24,0.24,0.32c0.05,0.02,0.07,0.05,0.07,0.07c0,0.06-0.05,0.09-0.2,0.1
				c-0.36,0.02-0.78,0.1-1.02,0.2c-0.06,0.03-0.08,0.03-0.12,0.03c-0.11,0-0.15-0.08-0.15-0.28c0-0.17,0.05-0.46,0.15-0.81
				c0.11-0.37,0.27-0.83,0.61-1.73c0.4-1.05,0.43-1.13,0.43-1.31c0-0.16-0.06-0.24-0.22-0.32c-0.05-0.02-0.07-0.04-0.07-0.07
				c0-0.05,0.05-0.08,0.1-0.08c0.02,0,0.04,0,0.07,0.01c0.06,0,0.13,0.01,0.2,0.01c0.27,0,0.58-0.05,0.85-0.13
				c0.05-0.02,0.08-0.02,0.1-0.02c0.08,0,0.12,0.07,0.12,0.22c0,0.28-0.07,0.57-0.27,1.15L7.62,28.5l-0.08,0.26
				c-0.02,0.04-0.04,0.09-0.06,0.18c0.2,0.01,0.31,0.02,0.45,0.02c0.14,0,0.31-0.01,0.5-0.02h0.08c0.06-0.15,0.07-0.17,0.18-0.45
				c0.29-0.76,0.34-0.92,0.34-1.09c0-0.13-0.06-0.22-0.18-0.27c-0.09-0.04-0.12-0.05-0.12-0.09c0-0.05,0.04-0.08,0.11-0.08
				c0.02,0,0.08,0.01,0.15,0.01c0.03,0,0.07,0,0.12,0c0.27,0,0.49-0.02,0.74-0.1l0.15-0.04c0.02-0.01,0.04-0.01,0.05-0.01
				c0.08,0,0.12,0.08,0.12,0.24c0,0.19-0.05,0.39-0.17,0.81c-0.11,0.37-0.23,0.71-0.42,1.2c-0.08,0.2-0.16,0.41-0.25,0.61
				c-0.1,0.26-0.22,0.63-0.28,0.84c-0.04,0.15-0.05,0.23-0.05,0.32c0,0.13,0.05,0.22,0.14,0.27l0.1,0.05
				c0.04,0.02,0.06,0.04,0.06,0.07c0,0.06-0.05,0.08-0.21,0.09c-0.29,0.02-0.67,0.08-0.91,0.17l-0.15,0.05
				c-0.03,0.02-0.06,0.02-0.08,0.02c-0.08,0-0.14-0.1-0.14-0.26c0-0.15,0.02-0.28,0.07-0.51c0.06-0.24,0.17-0.62,0.25-0.83
				l0.22-0.59c0.01-0.02,0.03-0.08,0.06-0.18c-0.21-0.02-0.35-0.02-0.55-0.02c-0.08,0-0.22,0.01-0.39,0.01H7.36
				C7.33,29.26,7.33,29.27,7.27,29.41z"/>
			<path d="M10.24,30.35c0-0.93,0.5-2.02,1.31-2.82c0.61-0.61,1.29-0.93,1.98-0.93c0.78,0,1.26,0.51,1.26,1.34
				c0,0.81-0.41,1.78-1.11,2.6c-0.66,0.76-1.43,1.2-2.13,1.2C10.75,31.74,10.24,31.19,10.24,30.35z M13.7,30.31
				c0.61-0.78,0.96-1.63,0.96-2.37c0-0.77-0.42-1.22-1.14-1.22c-0.71,0-1.42,0.37-2.04,1.05c-0.7,0.77-1.12,1.74-1.12,2.58
				c0,0.78,0.46,1.28,1.18,1.28C12.25,31.63,13.05,31.14,13.7,30.31z M10.44,30.34c0-0.87,0.49-1.91,1.25-2.67
				c0.56-0.57,1.21-0.88,1.84-0.88c0.66,0,1.05,0.42,1.05,1.14c0,0.78-0.4,1.7-1.07,2.47c-0.61,0.71-1.33,1.12-1.97,1.12
				C10.87,31.53,10.44,31.07,10.44,30.34z M12.37,27.89c-0.48,0.77-0.78,1.67-0.78,2.31c0,0.51,0.18,0.79,0.54,0.79
				c0.25,0,0.55-0.19,0.78-0.51c0.55-0.75,0.92-1.87,0.92-2.77c0-0.44-0.15-0.67-0.45-0.67C13.04,27.06,12.72,27.32,12.37,27.89z
				 M13.74,27.72c0,0.87-0.38,1.98-0.91,2.71c-0.22,0.3-0.48,0.47-0.71,0.47c-0.3,0-0.45-0.23-0.45-0.71c0-0.65,0.35-1.64,0.85-2.39
				c0.31-0.45,0.58-0.67,0.85-0.67C13.62,27.14,13.74,27.34,13.74,27.72z M12.53,28c-0.46,0.75-0.75,1.61-0.75,2.22
				c0,0.38,0.12,0.57,0.34,0.57c0.18,0,0.42-0.16,0.61-0.42c0.52-0.71,0.89-1.8,0.89-2.64c0-0.32-0.08-0.47-0.25-0.47
				C13.13,27.25,12.84,27.51,12.53,28z"/>
			<path d="M18.1,27.83c-0.12,0.41-0.25,0.76-0.45,1.3c-0.3,0.77-0.36,0.93-0.47,1.28c-0.07,0.22-0.09,0.34-0.09,0.43
				c0,0.08,0,0.08,0.12,0.12c0.12,0.05,0.17,0.14,0.17,0.25c0,0.22-0.12,0.28-0.54,0.32c-0.2,0.01-0.45,0.05-0.59,0.1L16,31.71
				c-0.07,0.02-0.13,0.03-0.17,0.03c-0.21,0-0.34-0.18-0.34-0.48c0-0.18,0.04-0.41,0.12-0.71c0.09-0.35,0.28-0.9,0.45-1.37
				l0.32-0.81c0.06-0.18,0.18-0.51,0.25-0.71c0.04-0.11,0.06-0.18,0.11-0.38c-0.16,0.04-0.27,0.1-0.42,0.23
				c-0.19,0.17-0.32,0.34-0.53,0.75c-0.09,0.17-0.17,0.23-0.3,0.23c-0.16,0-0.28-0.12-0.28-0.28c0-0.09,0.02-0.17,0.11-0.35
				c0.08-0.18,0.15-0.37,0.22-0.61c0.04-0.12,0.06-0.23,0.07-0.27l0.02-0.08c0.03-0.18,0.16-0.29,0.32-0.29
				c0.04,0,0.1,0.01,0.17,0.02c0.25,0.04,0.67,0.06,1.24,0.06c0.58,0,1.05-0.02,1.53-0.06c0.07-0.01,0.16-0.02,0.19-0.02
				c0.23,0,0.38,0.13,0.38,0.33c0,0.07-0.02,0.17-0.14,0.55c-0.1,0.35-0.13,0.47-0.15,0.63c-0.05,0.25-0.14,0.37-0.32,0.37
				c-0.16,0-0.29-0.14-0.29-0.31c0-0.05,0.01-0.08,0.02-0.15c0-0.02,0.01-0.08,0.01-0.16c0.01-0.06,0.02-0.14,0.02-0.16
				c0-0.29-0.11-0.42-0.35-0.44C18.19,27.5,18.17,27.59,18.1,27.83z M18.21,27.15c0.32,0,0.49,0.19,0.49,0.55
				c0,0.02-0.01,0.1-0.02,0.17c-0.01,0.08-0.01,0.15-0.02,0.16c0,0.05-0.01,0.1-0.01,0.13c0,0.12,0.08,0.2,0.18,0.2
				c0.12,0,0.18-0.08,0.21-0.28c0.02-0.09,0.04-0.19,0.07-0.32l0.09-0.32l0.1-0.36c0.02-0.06,0.03-0.12,0.03-0.16
				c0.01-0.13-0.09-0.22-0.26-0.22c-0.03,0-0.12,0.01-0.18,0.02c-0.45,0.04-0.95,0.06-1.54,0.06c-0.57,0-1.03-0.02-1.25-0.06
				c-0.05-0.02-0.11-0.02-0.15-0.02c-0.11,0-0.19,0.08-0.22,0.21l-0.02,0.08c-0.04,0.22-0.19,0.65-0.31,0.9
				c-0.08,0.17-0.1,0.24-0.1,0.31c0,0.09,0.08,0.16,0.18,0.16c0.08,0,0.13-0.05,0.2-0.17c0.38-0.71,0.72-1.02,1.18-1.04
				c-0.01,0.12-0.03,0.23-0.08,0.39c-0.08,0.27-0.19,0.58-0.3,0.86l-0.32,0.82c-0.18,0.45-0.36,1.01-0.45,1.35
				c-0.08,0.28-0.12,0.51-0.12,0.68c0,0.24,0.08,0.37,0.22,0.37c0.03,0,0.08-0.01,0.13-0.02c0.4-0.14,0.57-0.17,0.87-0.19
				c0.35-0.02,0.44-0.06,0.44-0.2c0-0.07-0.03-0.12-0.11-0.15l-0.08-0.04c-0.07-0.03-0.11-0.1-0.11-0.2c0-0.1,0.03-0.23,0.1-0.45
				c0.11-0.34,0.16-0.5,0.47-1.28c0.38-0.99,0.57-1.59,0.59-1.94C18.16,27.15,18.21,27.15,18.21,27.15z M17.95,27.65
				c-0.1,0.36-0.25,0.81-0.49,1.41c-0.08,0.22-0.15,0.41-0.24,0.63c-0.11,0.27-0.22,0.59-0.27,0.78c-0.05,0.18-0.07,0.27-0.07,0.35
				c0,0.17,0.06,0.24,0.25,0.32c0.05,0.02,0.05,0.03,0.05,0.08c0,0.07-0.06,0.09-0.35,0.11c-0.31,0.02-0.6,0.08-0.9,0.2
				c-0.04,0.02-0.07,0.02-0.09,0.02c-0.1,0-0.15-0.11-0.15-0.29c0-0.16,0.04-0.39,0.11-0.67c0.09-0.33,0.28-0.89,0.45-1.34
				l0.32-0.81c0.16-0.41,0.3-0.83,0.36-1.08c0.02-0.12,0.04-0.18,0.05-0.29c-0.33,0.01-0.48,0.06-0.71,0.23
				c-0.18,0.15-0.28,0.26-0.44,0.51c-0.15,0.24-0.19,0.31-0.22,0.35c-0.04,0.09-0.08,0.12-0.12,0.12c-0.05,0-0.09-0.04-0.09-0.08
				c0-0.05,0.02-0.13,0.09-0.28c0.1-0.22,0.22-0.57,0.28-0.8l0.02-0.12l0.02-0.08c0.03-0.11,0.06-0.15,0.15-0.15
				c0.03,0,0.07,0.01,0.12,0.02c0.15,0.03,0.26,0.04,0.51,0.05c0.2,0.01,0.62,0.01,0.85,0.01c0.51,0,1.07-0.02,1.46-0.06
				c0.07-0.01,0.15-0.01,0.19-0.01c0.1,0,0.16,0.05,0.16,0.12c0,0.03-0.01,0.09-0.02,0.15l-0.1,0.35l-0.09,0.32
				c-0.04,0.13-0.06,0.24-0.07,0.33c-0.02,0.15-0.05,0.2-0.13,0.2c-0.05,0-0.09-0.05-0.09-0.12c0-0.02,0-0.06,0.01-0.11
				c0-0.02,0.01-0.08,0.02-0.17c0.01-0.08,0.01-0.16,0.01-0.2c0-0.38-0.22-0.61-0.55-0.61c-0.04,0-0.11,0.01-0.18,0.01
				C18.04,27.28,18.02,27.4,17.95,27.65z"/>
			<path d="M21.51,27.73c-0.06,0.22-0.13,0.41-0.32,0.94c0.28-0.04,0.51-0.06,0.71-0.06c0.36,0,0.51,0.11,0.51,0.35
				c0,0.29-0.13,0.51-0.32,0.51c-0.07,0-0.14-0.04-0.18-0.08l-0.05-0.05c-0.03-0.04-0.12-0.05-0.32-0.05
				c-0.12,0-0.25,0.01-0.61,0.05c-0.11,0.26-0.14,0.34-0.25,0.65c-0.18,0.5-0.27,0.81-0.27,0.97c0,0.07,0.04,0.11,0.11,0.11
				c0.45,0,1-0.41,1.38-1.02c0.09-0.16,0.17-0.22,0.28-0.22c0.17,0,0.3,0.13,0.3,0.28c0,0.08-0.02,0.17-0.08,0.3l-0.12,0.26
				c-0.05,0.12-0.1,0.25-0.14,0.38l-0.1,0.35c-0.06,0.22-0.22,0.36-0.39,0.36c-0.06,0-0.12-0.02-0.29-0.05
				c-0.28-0.06-0.51-0.08-0.98-0.08c-0.34,0-0.64,0.03-0.98,0.09c-0.08,0.02-0.16,0.02-0.2,0.02c-0.22,0-0.35-0.17-0.35-0.48
				c0-0.19,0.04-0.4,0.13-0.78c0.1-0.36,0.28-0.9,0.48-1.38l0.18-0.45c0.12-0.29,0.24-0.61,0.35-0.92c0.05-0.15,0.08-0.25,0.08-0.32
				c0-0.08-0.01-0.09-0.12-0.14c-0.12-0.05-0.18-0.14-0.18-0.25c0-0.17,0.13-0.28,0.34-0.28c0.02,0,0.05,0,0.09,0
				c0.12,0.01,0.23,0.01,0.31,0.01c0.25,0,0.48-0.02,0.85-0.06l0.15-0.02c0.41-0.05,0.58-0.06,0.9-0.06c0.59,0,0.85,0.11,0.85,0.37
				c0,0.09,0,0.1-0.13,0.48c0,0.01-0.01,0.03-0.05,0.18c-0.08,0.26-0.12,0.37-0.12,0.41l-0.05,0.2c-0.04,0.17-0.15,0.27-0.29,0.27
				c-0.17,0-0.31-0.15-0.31-0.31c0-0.03,0-0.08,0.01-0.14c0.03-0.23,0.04-0.28,0.04-0.41c0-0.34-0.08-0.41-0.47-0.41
				c-0.07,0-0.14,0-0.26,0.02C21.58,27.44,21.56,27.53,21.51,27.73z M21.57,27.18c0.14-0.02,0.22-0.02,0.3-0.02
				c0.45,0,0.58,0.12,0.58,0.52c0,0.13-0.01,0.22-0.04,0.42c-0.01,0.05-0.02,0.09-0.02,0.12c0,0.1,0.09,0.19,0.2,0.19
				c0.09,0,0.15-0.06,0.18-0.18l0.05-0.2c0.01-0.04,0.04-0.13,0.08-0.28c0.05-0.17,0.08-0.28,0.09-0.32
				c0.12-0.36,0.12-0.37,0.12-0.44c0-0.18-0.22-0.25-0.73-0.25c-0.31,0-0.51,0.01-0.88,0.05l-0.16,0.02
				c-0.34,0.05-0.58,0.06-0.85,0.06c-0.08,0-0.19,0-0.32-0.01c-0.04,0-0.07,0-0.08,0c-0.15,0-0.22,0.06-0.22,0.17
				c0,0.06,0.03,0.11,0.12,0.15c0.15,0.07,0.18,0.12,0.18,0.24c0,0.08-0.02,0.18-0.08,0.35c-0.1,0.28-0.23,0.64-0.35,0.92
				l-0.18,0.46c-0.36,0.91-0.59,1.72-0.59,2.11c0,0.24,0.08,0.36,0.23,0.36c0.03,0,0.11-0.01,0.18-0.02
				c0.32-0.06,0.67-0.09,1.01-0.09c0.48,0,0.7,0.02,1,0.08c0.17,0.04,0.22,0.05,0.27,0.05c0.12,0,0.24-0.12,0.28-0.28l0.1-0.35
				c0.04-0.14,0.08-0.26,0.14-0.39l0.12-0.26c0.05-0.11,0.07-0.2,0.07-0.25c0-0.09-0.08-0.17-0.18-0.17c-0.07,0-0.12,0.04-0.19,0.15
				c-0.38,0.64-0.97,1.08-1.45,1.08c-0.16,0-0.24-0.06-0.24-0.2c0-0.22,0.15-0.71,0.41-1.38l0.12-0.31c0.01,0,0.02-0.02,0.02-0.05
				l0.06-0.01c0.28-0.04,0.5-0.05,0.65-0.05c0.23,0,0.33,0.02,0.39,0.09l0.04,0.05c0.02,0.02,0.06,0.05,0.09,0.05
				c0.12,0,0.21-0.17,0.21-0.4c0-0.17-0.11-0.23-0.4-0.23c-0.22,0-0.55,0.03-0.84,0.08l-0.05,0.01l0.02-0.07
				c0.27-0.71,0.33-0.88,0.41-1.2c0.04-0.16,0.05-0.25,0.06-0.36L21.57,27.18z M20.96,28.72l-0.07,0.2c0.46-0.08,0.75-0.12,1-0.12
				c0.25,0,0.33,0.03,0.33,0.15c0,0.18-0.06,0.32-0.13,0.32c-0.01,0-0.02-0.01-0.03-0.02l-0.04-0.05c-0.07-0.08-0.19-0.12-0.45-0.12
				c-0.16,0-0.35,0.02-0.66,0.06l-0.12,0.01c-0.02,0.06-0.03,0.09-0.04,0.11l-0.12,0.3c-0.27,0.68-0.41,1.18-0.41,1.41
				c0,0.18,0.11,0.28,0.32,0.28c0.51,0,1.16-0.48,1.52-1.11c0.05-0.09,0.08-0.12,0.13-0.12c0.05,0,0.1,0.05,0.1,0.09
				c0,0.04-0.03,0.12-0.07,0.22l-0.12,0.26c-0.06,0.13-0.11,0.26-0.15,0.4l-0.1,0.35c-0.04,0.13-0.12,0.22-0.22,0.22
				c-0.03,0-0.08-0.01-0.25-0.04c-0.31-0.06-0.53-0.08-1.01-0.08c-0.22,0-0.37,0.01-0.55,0.02c-0.16,0.02-0.37,0.05-0.46,0.07
				c-0.07,0.02-0.14,0.02-0.18,0.02c-0.09,0-0.15-0.1-0.15-0.29c0-0.36,0.24-1.18,0.59-2.07l0.18-0.46
				c0.12-0.28,0.26-0.65,0.35-0.93c0.06-0.18,0.09-0.28,0.09-0.38c0-0.16-0.06-0.24-0.22-0.32c-0.05-0.02-0.07-0.04-0.07-0.07
				c0-0.06,0.05-0.09,0.14-0.09c0.02,0,0.05,0,0.08,0.01c0.14,0,0.25,0.01,0.32,0.01c0.26,0,0.5-0.02,0.87-0.06l0.15-0.02
				c0.39-0.05,0.58-0.06,0.88-0.06c0.44,0,0.65,0.06,0.65,0.18c0,0.02-0.01,0.05-0.02,0.08l-0.11,0.32
				c-0.01,0.04-0.05,0.15-0.1,0.32c-0.04,0.15-0.07,0.25-0.08,0.29l-0.05,0.19c-0.02,0.08-0.05,0.12-0.11,0.12
				c-0.06,0-0.12-0.05-0.12-0.11c0-0.03,0-0.07,0.01-0.11c0.03-0.17,0.04-0.32,0.04-0.43c0-0.46-0.17-0.61-0.66-0.61
				c-0.08,0-0.15,0.01-0.31,0.02l-0.13,0.02C21.39,27.49,21.29,27.84,20.96,28.72z"/>
			<path d="M25.18,28.81l-0.31,0.78c-0.02,0.05-0.06,0.16-0.14,0.38c-0.15,0.41-0.19,0.56-0.25,0.78c-0.02,0.08-0.03,0.13-0.03,0.17
				c0,0.08,0.05,0.11,0.14,0.11c0.42,0,1-0.43,1.33-0.99c0.12-0.19,0.18-0.25,0.31-0.25c0.16,0,0.3,0.13,0.3,0.28
				c0,0.09-0.02,0.17-0.1,0.34c-0.17,0.38-0.24,0.58-0.3,0.81c-0.09,0.36-0.21,0.5-0.43,0.5c-0.03,0-0.09-0.01-0.16-0.02
				c-0.33-0.06-0.65-0.09-0.98-0.09c-0.33,0-0.71,0.03-1.11,0.09c-0.08,0.02-0.16,0.02-0.2,0.02c-0.23,0-0.35-0.16-0.35-0.47
				c0-0.22,0.04-0.45,0.12-0.75c0.05-0.18,0.15-0.48,0.22-0.71c0.07-0.2,0.15-0.41,0.3-0.8l0.26-0.69c0.22-0.55,0.3-0.8,0.3-0.91
				c0-0.05-0.02-0.07-0.08-0.1c-0.14-0.07-0.22-0.16-0.22-0.28c0-0.15,0.14-0.28,0.32-0.28c0.03,0,0.08,0,0.15,0.01
				c0.04,0,0.08,0,0.14,0c0.21,0,0.39-0.02,0.51-0.05l0.26-0.07c0.06-0.02,0.12-0.02,0.15-0.02c0.19,0,0.32,0.17,0.32,0.43
				C25.67,27.41,25.51,27.98,25.18,28.81z M25.35,26.74c-0.03,0-0.08,0.01-0.12,0.02c-0.37,0.11-0.51,0.13-0.81,0.13
				c-0.05,0-0.11,0-0.14-0.01c-0.06,0-0.12-0.01-0.15-0.01c-0.12,0-0.2,0.08-0.2,0.17c0,0.08,0.04,0.12,0.15,0.18
				c0.1,0.05,0.15,0.11,0.15,0.2c0,0.13-0.08,0.37-0.31,0.95l-0.27,0.69c-0.2,0.53-0.28,0.73-0.38,1.06
				c-0.2,0.61-0.25,0.87-0.25,1.15c0,0.25,0.07,0.35,0.23,0.35c0.04,0,0.12-0.01,0.18-0.02c0.54-0.08,0.74-0.09,1.13-0.09
				c0.38,0,0.68,0.03,1.01,0.09c0.05,0.02,0.09,0.02,0.12,0.02c0.16,0,0.25-0.12,0.33-0.41c0.07-0.28,0.13-0.45,0.31-0.84
				c0.07-0.15,0.08-0.22,0.08-0.29c0-0.09-0.08-0.17-0.18-0.17c-0.08,0-0.12,0.04-0.21,0.18c-0.31,0.57-0.97,1.05-1.44,1.05
				c-0.16,0-0.24-0.07-0.24-0.21c0-0.23,0.14-0.68,0.42-1.4c0.41-1.02,0.55-1.43,0.66-1.83c0.08-0.31,0.12-0.49,0.12-0.68
				C25.55,26.86,25.47,26.74,25.35,26.74z M25.41,27.48c-0.08,0.37-0.22,0.78-0.41,1.27l-0.3,0.78c-0.02,0.05-0.06,0.16-0.15,0.38
				c-0.22,0.61-0.28,0.85-0.28,1.04c0,0.19,0.11,0.29,0.32,0.29c0.26,0,0.55-0.12,0.85-0.35c0.24-0.18,0.55-0.54,0.66-0.75
				c0.05-0.11,0.08-0.14,0.13-0.14c0.05,0,0.11,0.04,0.11,0.08c0,0.05-0.02,0.12-0.08,0.26c-0.18,0.41-0.19,0.45-0.32,0.85
				c-0.08,0.27-0.13,0.35-0.25,0.35c-0.02,0-0.07,0-0.11-0.02c-0.38-0.07-0.64-0.09-1.04-0.09c-0.38,0-0.56,0.01-1.13,0.09
				c-0.06,0.02-0.13,0.02-0.17,0.02c-0.11,0-0.15-0.08-0.15-0.28s0.04-0.42,0.12-0.7c0.05-0.18,0.14-0.48,0.22-0.7
				c0.07-0.19,0.14-0.38,0.29-0.79L24,28.39c0.24-0.61,0.31-0.84,0.31-0.98c0-0.13-0.06-0.22-0.18-0.28
				c-0.08-0.04-0.11-0.06-0.11-0.1c0-0.05,0.05-0.08,0.12-0.08c0.02,0,0.07,0,0.13,0.01c0.03,0,0.08,0.01,0.14,0.01
				c0.32,0,0.55-0.04,0.85-0.13c0.04-0.02,0.07-0.02,0.09-0.02c0.08,0,0.13,0.08,0.13,0.23C25.47,27.18,25.45,27.32,25.41,27.48z"/>
		</g>
	</g>
</g>
</svg>
