<?xml version="1.0" encoding="utf-8"?>
<!-- Generator: Adobe Illustrator 24.3.0, SVG Export Plug-In . SVG Version: 6.00 Build 0)  -->
<svg version="1.1" id="Layer_1" xmlns="http://www.w3.org/2000/svg" xmlns:xlink="http://www.w3.org/1999/xlink" x="0px" y="0px"
	 viewBox="0 0 64 64" style="enable-background:new 0 0 64 64;" xml:space="preserve">
<style type="text/css">
	.st0{fill-rule:evenodd;clip-rule:evenodd;fill:#FFFFFF;}
	.st1{fill-rule:evenodd;clip-rule:evenodd;fill:#00D9EC;}
	.st2{fill:#FFFFFF;}
	.st3{fill:#00D9EC;}
</style>
<g>
	<path class="st0" d="M31.42,23.5c-0.05,0.14-0.09,0.27-0.14,0.41l-0.93,2.56c-0.16,0.01-0.32,0.01-0.48,0.02
		c-8.64,0.52-16.83,5.18-21.55,13.02c0.09-0.21,0.19-0.41,0.29-0.62c0.14-0.3,0.29-0.6,0.45-0.9c1.41-2.71,3.22-5.09,5.32-7.08
		c4.31-4.11,9.84-6.64,15.65-7.29C30.49,23.57,30.95,23.53,31.42,23.5z"/>
	<g>
		<path class="st1" d="M48.57,17.55c-0.05,0.13-0.16,0.25-0.33,0.36c-0.42,0.27-1.19,0.5-2.21,0.68c-0.04,0.01-0.07,0.01-0.11,0.02
			c-0.6,0.1-1.27,0.19-2,0.26c-0.57,0.05-1.18,0.1-1.81,0.14l-0.67,0.92l-1.28,1.76l-0.91,1.26l0,0l-1.62,2.23l-0.97,1.33
			l-0.34,0.46l-0.39,0.53l-0.11,0.15c-0.2,0.23-0.5,0.38-0.83,0.38c-0.6,0-1.09-0.49-1.09-1.09c0-0.06,0-0.12,0.01-0.18
			c0.06-0.14,0.12-0.29,0.17-0.44c0.02-0.04,0.03-0.08,0.04-0.11c0.02-0.05,0.04-0.1,0.06-0.15l1.05-2.89
			c0.41-1.23,0.79-2.46,1.13-3.69c0.01-0.04,0.02-0.09,0.04-0.13h-6.91V16.3c0.59-0.11,1.18-0.21,1.77-0.29
			c0.93-0.13,1.87-0.22,2.82-0.27h2.32c0-0.02-0.01-0.03-0.01-0.05c-0.34-1.25-0.73-2.51-1.15-3.77l-0.92-2.52L34.2,9.04
			c-0.02-0.05-0.04-0.1-0.06-0.15c-0.01-0.04-0.03-0.07-0.04-0.11c-0.06-0.14-0.11-0.29-0.17-0.44c-0.01-0.06-0.01-0.11-0.01-0.17
			c0-0.6,0.49-1.09,1.09-1.09c0.33,0,0.63,0.15,0.83,0.38l0.11,0.15l0.39,0.53l0.34,0.46l0.77,1.05l0.2,0.28l1.62,2.23l0,0
			l0.91,1.26l1.95,2.68c0.63,0.04,1.24,0.08,1.81,0.14c0.73,0.07,1.41,0.16,2,0.26c0.03,0,0.07,0.01,0.11,0.02
			c1.02,0.18,1.79,0.4,2.21,0.68C48.42,17.3,48.53,17.42,48.57,17.55z"/>
		<path class="st1" d="M37.79,15.74c-0.46-0.02-0.92-0.04-1.38-0.05c-0.77-0.01-1.54,0.01-2.31,0.05c-0.94,0.05-1.88,0.14-2.82,0.27
			c-0.59,0.08-1.18,0.18-1.77,0.29c-10.09,1.9-19.23,8.25-24.34,18.06c-3.76,7.22-4.73,15.16-3.29,22.57
			c-0.02-0.16-0.03-0.31-0.04-0.47l-0.02-0.25c-0.01-0.21-0.03-0.42-0.04-0.63c0-0.07-0.01-0.15-0.01-0.22
			c0-0.1-0.01-0.19-0.01-0.29c0-0.01,0-0.03,0-0.04c0-0.08-0.01-0.17-0.01-0.25c0-0.03,0-0.06,0-0.08c0-0.05,0-0.09,0-0.14
			c0-0.15-0.01-0.31-0.01-0.46V54.1c0-0.08,0-0.16,0-0.25v-0.14c0-18.91,15.33-34.23,34.23-34.23c0.14,0,0.28,0,0.41,0
			c0.01-0.04,0.02-0.09,0.04-0.13h-5.15c0,0,0.01,0,0.01,0c0,0,0,0,0.01,0c0.07-0.01,0.14-0.02,0.22-0.03
			c0.17-0.02,0.34-0.04,0.52-0.05c0.09-0.01,0.18-0.02,0.26-0.02c0.16-0.01,0.32-0.03,0.48-0.04c0.09-0.01,0.18-0.01,0.27-0.02
			c0.17-0.01,0.33-0.02,0.5-0.03c0.08,0,0.16-0.01,0.24-0.01c0.22-0.01,0.44-0.02,0.66-0.02c0.03,0,0.05,0,0.08,0
			c0.24,0,0.49-0.01,0.74-0.01c0.08,0,0.15,0,0.23,0.01c0.17,0,0.34,0,0.51,0.01c0.09,0,0.18,0,0.27,0.01
			c0.16,0.01,0.32,0.01,0.48,0.02c0.09,0.01,0.18,0.01,0.27,0.02c0.17,0.01,0.34,0.02,0.51,0.03c0.01,0,0.03,0,0.04,0
			c0.56-1.22,1.31-2.34,2.21-3.32C39.1,15.83,38.44,15.78,37.79,15.74z"/>
	</g>
	<g>
		<path class="st2" d="M19.76,42.7c-0.99-0.55-1.77-1.32-2.35-2.31c-0.58-0.99-0.87-2.1-0.87-3.33c0-1.23,0.29-2.34,0.87-3.32
			c0.58-0.98,1.36-1.75,2.35-2.3c0.99-0.55,2.07-0.82,3.26-0.82c1.18,0,2.27,0.27,3.26,0.82c0.99,0.55,1.76,1.32,2.33,2.3
			c0.57,0.98,0.85,2.09,0.85,3.32c0,1.23-0.29,2.34-0.86,3.33c-0.57,0.99-1.35,1.76-2.33,2.31c-0.98,0.55-2.06,0.83-3.25,0.83
			C21.84,43.52,20.75,43.25,19.76,42.7z M25.43,39.72c0.6-0.67,0.91-1.55,0.91-2.65c0-1.11-0.3-2-0.91-2.66c-0.6-0.66-1.41-1-2.41-1
			c-1.02,0-1.83,0.33-2.43,0.99c-0.6,0.66-0.91,1.55-0.91,2.67c0,1.11,0.3,2,0.91,2.66c0.6,0.66,1.41,1,2.43,1
			C24.02,40.73,24.83,40.39,25.43,39.72z"/>
		<path class="st2" d="M40.28,43.4l-2.62-4.75h-0.74v4.75h-3.07V30.8H39c0.99,0,1.84,0.17,2.54,0.52c0.7,0.35,1.22,0.82,1.57,1.43
			c0.35,0.6,0.52,1.28,0.52,2.02c0,0.84-0.24,1.59-0.71,2.24c-0.47,0.66-1.17,1.12-2.09,1.4l2.91,4.99H40.28z M36.92,36.47h1.9
			c0.56,0,0.98-0.14,1.26-0.41c0.28-0.27,0.42-0.66,0.42-1.17c0-0.48-0.14-0.85-0.42-1.13c-0.28-0.27-0.7-0.41-1.26-0.41h-1.9V36.47
			z"/>
		<path class="st2" d="M56.08,41.17h-4.7l-0.75,2.22h-3.21l4.56-12.59h3.55l4.56,12.59h-3.25L56.08,41.17z M55.29,38.81l-1.56-4.61
			l-1.54,4.61H55.29z"/>
	</g>
	<g>
		<path class="st3" d="M21.62,47.35v0.83h-2.13v6.99h-1.02v-6.99h-2.14v-0.83H21.62z"/>
		<path class="st3" d="M28.68,55.16l-1.86-3.2h-1.23v3.2h-1.02v-7.81h2.52c0.59,0,1.09,0.1,1.5,0.3c0.41,0.2,0.71,0.47,0.91,0.82
			c0.2,0.34,0.3,0.74,0.3,1.18c0,0.54-0.16,1.01-0.47,1.42c-0.31,0.41-0.78,0.68-1.4,0.82l1.96,3.27H28.68z M25.58,51.15h1.5
			c0.55,0,0.97-0.14,1.24-0.41c0.28-0.27,0.41-0.64,0.41-1.09c0-0.46-0.14-0.82-0.41-1.08s-0.69-0.38-1.25-0.38h-1.5V51.15z"/>
		<path class="st3" d="M37.68,53.43h-3.41l-0.63,1.74h-1.08l2.82-7.77h1.18l2.81,7.77h-1.08L37.68,53.43z M37.39,52.6l-1.41-3.95
			l-1.41,3.95H37.39z"/>
		<path class="st3" d="M48.76,47.35l-2.95,7.81h-1.18l-2.95-7.81h1.09l2.46,6.74l2.46-6.74H48.76z"/>
		<path class="st3" d="M52.58,48.18v2.61h2.85v0.84h-2.85v2.69h3.18v0.84h-4.2v-7.83h4.2v0.84H52.58z"/>
		<path class="st3" d="M60.01,54.33h2.74v0.83h-3.76v-7.81h1.02V54.33z"/>
	</g>
</g>
</svg>
