<?xml version="1.0" encoding="utf-8"?>
<!-- Generator: Adobe Illustrator 24.3.0, SVG Export Plug-In . SVG Version: 6.00 Build 0)  -->
<svg version="1.1" id="Layer_1" xmlns="http://www.w3.org/2000/svg" xmlns:xlink="http://www.w3.org/1999/xlink" x="0px" y="0px"
	 viewBox="0 0 32 32" style="enable-background:new 0 0 32 32;" xml:space="preserve">
<style type="text/css">
	.st0{fill:#004E7D;}
	.st1{fill:#00D9EC;}
	.st2{fill:#FFA700;}
</style>
<g>
	<circle class="st0" cx="14.6" cy="8.15" r="1.77"/>
	<path class="st0" d="M14.68,5.26c-1.67,0-3.03,1.35-3.03,3.03s1.31,2.67,2.8,2.72c5.34,0.2,8.3-4.86,6.63-8.48
		c0,0,2.81,1.71,1.05,6.52c-1.51,4.13-6.45,6.51-8.04,9.33c-1.85,3.27-0.53,5.52-0.53,5.52s-1.32-0.9-2.45-2.81
		C7.76,15.46,7.99,8.79,11.8,6.06C13.37,4.93,14.68,5.26,14.68,5.26z"/>
	<path class="st1" d="M13.97,23.8c0,0-1.37-2.64,1.85-5.39c2.75-2.34,4.97-3.48,6.48-6.54c0.3,3.29-1.38,5.41-4.35,7.31
		C16.19,20.31,13.71,21.36,13.97,23.8z"/>
	<path class="st0" d="M14.33,23.79c0,0,0.15-1.2,1.18-2.05c1.02-0.85,3-1.08,3.89-1.73C18.43,23.54,15.3,22.08,14.33,23.79z"/>
	<polygon class="st2" points="20.35,0.25 20.96,0.87 21.82,0.72 21.42,1.5 21.83,2.27 20.97,2.13 20.36,2.76 20.23,1.89 19.44,1.51 
		20.23,1.12 	"/>
	<polygon class="st2" points="20,2.87 20.38,3.15 20.82,2.99 20.68,3.44 20.96,3.81 20.49,3.81 20.22,4.2 20.08,3.75 19.63,3.61 
		20.01,3.34 	"/>
	<polygon class="st2" points="22.71,2.1 22.81,2.56 23.24,2.74 22.83,2.98 22.8,3.45 22.45,3.14 21.99,3.25 22.18,2.82 21.93,2.41 
		22.4,2.46 	"/>
</g>
<g>
	<g>
		<path d="M7.61,30.09c-0.1,0.1-0.26,0.15-0.47,0.15H6.8v0.75H6.56v-1.8h0.58c0.2,0,0.36,0.05,0.46,0.15
			c0.11,0.1,0.16,0.22,0.16,0.38C7.77,29.87,7.72,29.99,7.61,30.09z M7.43,29.96c0.06-0.06,0.09-0.14,0.09-0.24
			c0-0.22-0.13-0.33-0.38-0.33H6.8v0.66h0.35C7.28,30.04,7.37,30.02,7.43,29.96z"/>
		<path d="M8.29,29.38v0.6h0.66v0.19H8.29v0.62h0.73v0.19H8.06v-1.8h0.97v0.19H8.29z"/>
		<path d="M9.74,30.89c-0.14-0.08-0.25-0.19-0.33-0.33c-0.08-0.14-0.12-0.3-0.12-0.47s0.04-0.33,0.12-0.47
			c0.08-0.14,0.19-0.25,0.33-0.33c0.14-0.08,0.29-0.12,0.46-0.12c0.17,0,0.32,0.04,0.46,0.12c0.14,0.08,0.25,0.19,0.33,0.33
			c0.08,0.14,0.12,0.3,0.12,0.47c0,0.18-0.04,0.34-0.12,0.47c-0.08,0.14-0.19,0.25-0.33,0.33c-0.14,0.08-0.29,0.12-0.46,0.12
			C10.03,31.01,9.88,30.97,9.74,30.89z M10.54,30.71c0.1-0.06,0.18-0.14,0.24-0.25c0.06-0.11,0.09-0.23,0.09-0.38
			c0-0.14-0.03-0.27-0.09-0.38c-0.06-0.11-0.14-0.19-0.24-0.25c-0.1-0.06-0.21-0.09-0.34-0.09s-0.24,0.03-0.34,0.09
			c-0.1,0.06-0.18,0.14-0.24,0.25c-0.06,0.11-0.09,0.23-0.09,0.38c0,0.14,0.03,0.27,0.09,0.38c0.06,0.11,0.14,0.19,0.24,0.25
			c0.1,0.06,0.21,0.09,0.34,0.09C10.32,30.8,10.44,30.77,10.54,30.71z"/>
		<path d="M12.46,30.09c-0.1,0.1-0.26,0.15-0.47,0.15h-0.35v0.75h-0.23v-1.8h0.58c0.2,0,0.36,0.05,0.46,0.15
			c0.11,0.1,0.16,0.22,0.16,0.38C12.61,29.87,12.56,29.99,12.46,30.09z M12.28,29.96c0.06-0.06,0.09-0.14,0.09-0.24
			c0-0.22-0.13-0.33-0.38-0.33h-0.35v0.66h0.35C12.12,30.04,12.22,30.02,12.28,29.96z"/>
		<path d="M13.14,30.8h0.63v0.19h-0.86v-1.8h0.23V30.8z"/>
		<path d="M14.26,29.38v0.6h0.66v0.19h-0.66v0.62h0.73v0.19h-0.97v-1.8h0.97v0.19H14.26z"/>
		<path d="M16.06,29.61c0.08-0.14,0.19-0.25,0.32-0.33c0.14-0.08,0.29-0.12,0.46-0.12c0.2,0,0.37,0.05,0.51,0.14
			c0.15,0.09,0.25,0.23,0.32,0.4H17.4c-0.05-0.11-0.12-0.19-0.22-0.25c-0.09-0.06-0.21-0.09-0.34-0.09c-0.13,0-0.24,0.03-0.34,0.09
			s-0.18,0.14-0.23,0.25c-0.06,0.11-0.09,0.23-0.09,0.38c0,0.14,0.03,0.27,0.09,0.38c0.06,0.11,0.14,0.19,0.23,0.25
			c0.1,0.06,0.21,0.09,0.34,0.09c0.13,0,0.24-0.03,0.34-0.09c0.09-0.06,0.17-0.14,0.22-0.25h0.28c-0.07,0.17-0.17,0.31-0.32,0.4
			C17.21,30.96,17.04,31,16.84,31c-0.17,0-0.32-0.04-0.46-0.12c-0.14-0.08-0.24-0.19-0.32-0.33c-0.08-0.14-0.12-0.3-0.12-0.47
			S15.99,29.75,16.06,29.61z"/>
		<path d="M19.41,29.19v1.8h-0.23v-0.82h-0.92v0.82h-0.23v-1.8h0.23v0.79h0.92v-0.79H19.41z"/>
		<path d="M20.17,30.89c-0.14-0.08-0.25-0.19-0.33-0.33c-0.08-0.14-0.12-0.3-0.12-0.47s0.04-0.33,0.12-0.47
			c0.08-0.14,0.19-0.25,0.33-0.33c0.14-0.08,0.29-0.12,0.46-0.12c0.17,0,0.32,0.04,0.46,0.12s0.25,0.19,0.33,0.33
			c0.08,0.14,0.12,0.3,0.12,0.47c0,0.18-0.04,0.34-0.12,0.47c-0.08,0.14-0.19,0.25-0.33,0.33c-0.14,0.08-0.29,0.12-0.46,0.12
			C20.46,31.01,20.31,30.97,20.17,30.89z M20.97,30.71c0.1-0.06,0.18-0.14,0.24-0.25c0.06-0.11,0.09-0.23,0.09-0.38
			c0-0.14-0.03-0.27-0.09-0.38c-0.06-0.11-0.14-0.19-0.24-0.25c-0.1-0.06-0.21-0.09-0.34-0.09s-0.24,0.03-0.34,0.09
			s-0.18,0.14-0.24,0.25c-0.06,0.11-0.09,0.23-0.09,0.38c0,0.14,0.03,0.27,0.09,0.38c0.06,0.11,0.14,0.19,0.24,0.25
			c0.1,0.06,0.21,0.09,0.34,0.09C20.75,30.8,20.87,30.77,20.97,30.71z"/>
		<path d="M22.08,29.19v1.8h-0.23v-1.8H22.08z"/>
		<path d="M22.51,29.61c0.08-0.14,0.19-0.25,0.32-0.33c0.14-0.08,0.29-0.12,0.46-0.12c0.2,0,0.37,0.05,0.51,0.14
			c0.15,0.09,0.25,0.23,0.32,0.4h-0.28c-0.05-0.11-0.12-0.19-0.22-0.25c-0.09-0.06-0.21-0.09-0.34-0.09c-0.13,0-0.24,0.03-0.34,0.09
			s-0.18,0.14-0.23,0.25c-0.06,0.11-0.09,0.23-0.09,0.38c0,0.14,0.03,0.27,0.09,0.38c0.06,0.11,0.14,0.19,0.23,0.25
			c0.1,0.06,0.21,0.09,0.34,0.09c0.13,0,0.24-0.03,0.34-0.09c0.09-0.06,0.17-0.14,0.22-0.25h0.28c-0.07,0.17-0.17,0.31-0.32,0.4
			C23.65,30.96,23.48,31,23.29,31c-0.17,0-0.32-0.04-0.46-0.12c-0.14-0.08-0.24-0.19-0.32-0.33c-0.08-0.14-0.12-0.3-0.12-0.47
			S22.43,29.75,22.51,29.61z"/>
		<path d="M24.7,29.38v0.6h0.66v0.19H24.7v0.62h0.73v0.19h-0.97v-1.8h0.97v0.19H24.7z"/>
	</g>
	<g>
		<path class="st2" d="M11.03,27.43c0.28-0.23,0.5-0.42,0.66-0.57c0.16-0.15,0.3-0.3,0.41-0.47c0.11-0.16,0.17-0.32,0.17-0.47
			c0-0.12-0.03-0.21-0.08-0.27c-0.05-0.07-0.14-0.1-0.24-0.1s-0.19,0.04-0.25,0.12c-0.06,0.08-0.09,0.2-0.09,0.34h-0.7
			c0.01-0.24,0.06-0.44,0.16-0.61s0.23-0.28,0.39-0.36c0.16-0.08,0.34-0.12,0.54-0.12c0.34,0,0.59,0.09,0.77,0.26
			c0.17,0.17,0.26,0.4,0.26,0.68c0,0.3-0.1,0.59-0.31,0.85c-0.21,0.26-0.47,0.51-0.79,0.76h1.15v0.59H10.9v-0.54
			C10.99,27.46,11.04,27.42,11.03,27.43z"/>
		<path class="st2" d="M13.64,25.36c0.19-0.28,0.49-0.42,0.92-0.42c0.42,0,0.73,0.14,0.92,0.42c0.19,0.28,0.28,0.67,0.28,1.16
			c0,0.5-0.09,0.88-0.28,1.17c-0.19,0.28-0.49,0.42-0.92,0.42c-0.42,0-0.73-0.14-0.92-0.42c-0.19-0.28-0.28-0.67-0.28-1.17
			C13.36,26.03,13.45,25.64,13.64,25.36z M14.95,25.85c-0.06-0.16-0.19-0.23-0.39-0.23s-0.33,0.08-0.39,0.23
			c-0.06,0.16-0.09,0.38-0.09,0.66c0,0.19,0.01,0.35,0.03,0.48c0.02,0.13,0.07,0.23,0.14,0.31c0.07,0.08,0.17,0.12,0.31,0.12
			s0.24-0.04,0.31-0.12c0.07-0.08,0.12-0.18,0.14-0.31c0.02-0.13,0.03-0.29,0.03-0.48C15.04,26.23,15.01,26.01,14.95,25.85z"/>
		<path class="st2" d="M16.25,27.43c0.28-0.23,0.5-0.42,0.66-0.57c0.16-0.15,0.3-0.3,0.41-0.47c0.11-0.16,0.17-0.32,0.17-0.47
			c0-0.12-0.03-0.21-0.08-0.27c-0.05-0.07-0.14-0.1-0.24-0.1c-0.11,0-0.19,0.04-0.25,0.12c-0.06,0.08-0.09,0.2-0.09,0.34h-0.7
			c0.01-0.24,0.06-0.44,0.16-0.61c0.1-0.16,0.23-0.28,0.39-0.36c0.16-0.08,0.34-0.12,0.54-0.12c0.34,0,0.59,0.09,0.77,0.26
			c0.17,0.17,0.26,0.4,0.26,0.68c0,0.3-0.1,0.59-0.31,0.85c-0.21,0.26-0.47,0.51-0.79,0.76h1.15v0.59h-2.14v-0.54
			C16.21,27.46,16.26,27.42,16.25,27.43z"/>
		<path class="st2" d="M18.6,27.56v-0.59l1.35-1.93h0.82v1.89h0.35v0.63h-0.35v0.56h-0.73v-0.56H18.6z M20.08,25.85l-0.72,1.08h0.72
			V25.85z"/>
	</g>
</g>
</svg>
