<?xml version="1.0" encoding="utf-8"?>
<!-- Generator: Adobe Illustrator 24.3.0, SVG Export Plug-In . SVG Version: 6.00 Build 0)  -->
<svg version="1.1" id="Layer_1" xmlns="http://www.w3.org/2000/svg" xmlns:xlink="http://www.w3.org/1999/xlink" x="0px" y="0px"
	 viewBox="0 0 64 64" style="enable-background:new 0 0 64 64;" xml:space="preserve">
<style type="text/css">
	.st0{clip-path:url(#SVGID_1_);fill:#012039;}
	.st1{fill:#003B6C;}
	.st2{fill:#00D9EC;}
</style>
<g>
	<g>
		<defs>
			<path id="SVGID_3_" d="M56.65,11.05c1.97,3.79,3.05,8.09,3.05,12.64C59.7,39,47.31,51.4,32.01,51.4C16.69,51.4,4.3,39,4.3,23.68
				c0-4.55,1.08-8.85,3.05-12.64c-1.25,3.02-1.94,6.3-1.94,9.76c0,8.19,3.89,15.52,9.98,20.26c2.68,1.75,7.72,3.54,12.1-0.47
				c4.21-3.84,2.78-9,2.43-10.06l-1.6,0.54v-1.06l2.61-3.2c-0.25-2.61-0.59-6.61-0.89-10.57l-12.07,4.25l-0.42,0.17v-3.3
				c0-0.2,0.17-0.37,0.39-0.37c0.2,0,0.37,0.17,0.37,0.37v0.34l2.98-2.14V14c0-0.27,0.22-0.49,0.52-0.49c0.27,0,0.52,0.22,0.52,0.49
				v0.86l2.39-1.72v-1.8c0-0.27,0.25-0.49,0.52-0.49c0.3,0,0.52,0.22,0.52,0.49v1.03l3.84-2.75c-0.17-3.02-0.25-5.31-0.15-5.85
				c0.44-1.89,2.43-3.52,2.58-3.52s2.16,1.62,2.58,3.52c0.12,0.54,0.02,2.83-0.15,5.85l3.84,2.75v-1.03c0-0.27,0.22-0.49,0.52-0.49
				c0.27,0,0.52,0.22,0.52,0.49v1.8l2.39,1.72V14c0-0.27,0.25-0.49,0.52-0.49c0.3,0,0.52,0.22,0.52,0.49v1.6l2.98,2.14v-0.34
				c0-0.2,0.17-0.37,0.39-0.37c0.2,0,0.37,0.17,0.37,0.37v3.3l-0.42-0.17L34,16.26c-0.32,3.96-0.66,7.97-0.89,10.57l2.61,3.2v1.06
				l-1.6-0.54c-0.37,1.06-1.77,6.22,2.41,10.06c4.3,3.93,9.25,2.26,11.98,0.57c6.15-4.77,10.08-12.12,10.08-20.36
				C58.59,17.34,57.91,14.07,56.65,11.05L56.65,11.05z"/>
		</defs>
		<use xlink:href="#SVGID_3_"  style="overflow:visible;fill-rule:evenodd;clip-rule:evenodd;fill:#012039;"/>
		<clipPath id="SVGID_1_">
			<use xlink:href="#SVGID_3_"  style="overflow:visible;"/>
		</clipPath>
		<rect x="4.3" y="50.29" class="st0" width="55.4" height="1.11"/>
		<rect x="4.3" y="49.01" class="st0" width="55.4" height="1.28"/>
		<rect x="4.3" y="47.73" class="st0" width="55.4" height="1.28"/>
		<rect x="4.3" y="46.46" class="st0" width="55.4" height="1.28"/>
		<rect x="4.3" y="45.18" class="st0" width="55.4" height="1.28"/>
		<rect x="4.3" y="43.9" class="st0" width="55.4" height="1.28"/>
		<rect x="4.3" y="42.62" class="st0" width="55.4" height="1.28"/>
		<rect x="4.3" y="41.35" class="st0" width="55.4" height="1.28"/>
		<rect x="4.3" y="40.07" class="st0" width="55.4" height="1.28"/>
		<rect x="4.3" y="38.79" class="st0" width="55.4" height="1.28"/>
		<rect x="4.3" y="37.51" class="st0" width="55.4" height="1.28"/>
		<rect x="4.3" y="36.24" class="st0" width="55.4" height="1.28"/>
		<rect x="4.3" y="34.96" class="st0" width="55.4" height="1.28"/>
		<rect x="4.3" y="33.68" class="st0" width="55.4" height="1.28"/>
		<rect x="4.3" y="32.4" class="st0" width="55.4" height="1.28"/>
		<rect x="4.3" y="31.13" class="st0" width="55.4" height="1.28"/>
		<rect x="4.3" y="29.85" class="st0" width="55.4" height="1.28"/>
		<rect x="4.3" y="28.57" class="st0" width="55.4" height="1.28"/>
		<rect x="4.3" y="27.29" class="st0" width="55.4" height="1.28"/>
		<rect x="4.3" y="26.02" class="st0" width="55.4" height="1.28"/>
		<rect x="4.3" y="24.74" class="st0" width="55.4" height="1.28"/>
		<rect x="4.3" y="23.46" class="st0" width="55.4" height="1.28"/>
		<rect x="4.3" y="22.18" class="st0" width="55.4" height="1.28"/>
		<rect x="4.3" y="20.9" class="st0" width="55.4" height="1.28"/>
		<rect x="4.3" y="19.63" class="st0" width="55.4" height="1.28"/>
		<rect x="4.3" y="18.35" class="st0" width="55.4" height="1.28"/>
		<rect x="4.3" y="17.07" class="st0" width="55.4" height="1.28"/>
		<rect x="4.3" y="15.79" class="st0" width="55.4" height="1.28"/>
		<rect x="4.3" y="14.52" class="st0" width="55.4" height="1.28"/>
		<rect x="4.3" y="13.24" class="st0" width="55.4" height="1.28"/>
		<rect x="4.3" y="11.96" class="st0" width="55.4" height="1.28"/>
		<rect x="4.3" y="10.68" class="st0" width="55.4" height="1.28"/>
		<rect x="4.3" y="9.41" class="st0" width="55.4" height="1.28"/>
		<rect x="4.3" y="8.13" class="st0" width="55.4" height="1.28"/>
		<rect x="4.3" y="6.85" class="st0" width="55.4" height="1.28"/>
		<rect x="4.3" y="5.57" class="st0" width="55.4" height="1.28"/>
		<rect x="4.3" y="4.3" class="st0" width="55.4" height="1.28"/>
		<rect x="4.3" y="3.02" class="st0" width="55.4" height="1.28"/>
		<rect x="4.3" y="1.74" class="st0" width="55.4" height="1.28"/>
		<rect x="4.3" y="0.46" class="st0" width="55.4" height="1.28"/>
		<rect x="4.3" y="0.25" class="st0" width="55.4" height="0.21"/>
	</g>
	<g>
		<path class="st1" d="M4.82,63.56c-0.31-0.13-0.56-0.32-0.74-0.56c-0.19-0.25-0.28-0.55-0.29-0.9h1.39
			c0.02,0.2,0.09,0.35,0.21,0.45c0.12,0.1,0.27,0.16,0.46,0.16c0.19,0,0.35-0.04,0.46-0.13c0.11-0.09,0.17-0.21,0.17-0.37
			c0-0.13-0.04-0.24-0.13-0.33c-0.09-0.09-0.2-0.16-0.33-0.21c-0.13-0.06-0.31-0.12-0.55-0.19c-0.35-0.11-0.63-0.21-0.85-0.32
			c-0.22-0.11-0.41-0.26-0.56-0.47c-0.16-0.21-0.24-0.48-0.24-0.82c0-0.5,0.18-0.89,0.54-1.17c0.36-0.28,0.83-0.42,1.41-0.42
			c0.59,0,1.07,0.14,1.43,0.42c0.36,0.28,0.55,0.68,0.58,1.18H6.34c-0.01-0.17-0.07-0.31-0.19-0.41c-0.12-0.1-0.27-0.15-0.45-0.15
			c-0.16,0-0.28,0.04-0.38,0.13c-0.1,0.08-0.14,0.2-0.14,0.36c0,0.17,0.08,0.31,0.24,0.4c0.16,0.1,0.42,0.2,0.76,0.31
			c0.35,0.12,0.63,0.23,0.84,0.34c0.22,0.11,0.4,0.26,0.56,0.47c0.16,0.2,0.24,0.47,0.24,0.79c0,0.31-0.08,0.58-0.23,0.83
			c-0.16,0.25-0.38,0.45-0.68,0.6c-0.3,0.15-0.64,0.22-1.05,0.22C5.48,63.75,5.13,63.69,4.82,63.56z"/>
		<path class="st1" d="M11.73,63.7l-1.8-2.37v2.37h-1.3v-5.36h1.3v2.35l1.79-2.35h1.53l-2.08,2.63l2.15,2.73H11.73z"/>
		<path class="st1" d="M18.54,58.34l-1.85,3.59v1.77h-1.3v-1.77l-1.85-3.59h1.48l1.04,2.24l1.03-2.24H18.54z"/>
		<path class="st2" d="M20.81,59.59c0.23-0.41,0.55-0.74,0.96-0.97c0.41-0.23,0.87-0.35,1.39-0.35c0.64,0,1.18,0.17,1.63,0.5
			c0.45,0.34,0.76,0.79,0.91,1.37h-1.43c-0.11-0.22-0.26-0.39-0.45-0.51c-0.2-0.12-0.42-0.18-0.67-0.18c-0.4,0-0.73,0.14-0.98,0.42
			c-0.25,0.28-0.37,0.65-0.37,1.12c0,0.47,0.12,0.84,0.37,1.12c0.25,0.28,0.57,0.42,0.98,0.42c0.25,0,0.47-0.06,0.67-0.18
			c0.2-0.12,0.35-0.29,0.45-0.51h1.43c-0.15,0.58-0.46,1.04-0.91,1.37c-0.45,0.33-1,0.5-1.63,0.5c-0.52,0-0.98-0.12-1.39-0.35
			c-0.41-0.23-0.73-0.55-0.96-0.97c-0.23-0.41-0.34-0.88-0.34-1.41C20.46,60.48,20.58,60.01,20.81,59.59z"/>
		<path class="st2" d="M27.65,63.4c-0.42-0.23-0.75-0.56-1-0.98C26.4,62,26.28,61.53,26.28,61c0-0.52,0.12-0.99,0.37-1.41
			c0.25-0.42,0.58-0.74,1-0.98c0.42-0.23,0.88-0.35,1.39-0.35c0.5,0,0.97,0.12,1.39,0.35c0.42,0.23,0.75,0.56,0.99,0.98
			c0.24,0.42,0.36,0.89,0.36,1.41c0,0.52-0.12,1-0.37,1.42c-0.24,0.42-0.57,0.75-0.99,0.98c-0.42,0.23-0.88,0.35-1.38,0.35
			C28.53,63.75,28.07,63.63,27.65,63.4z M30.06,62.13c0.26-0.28,0.39-0.66,0.39-1.13c0-0.47-0.13-0.85-0.39-1.13
			c-0.26-0.28-0.6-0.42-1.03-0.42c-0.43,0-0.78,0.14-1.03,0.42c-0.26,0.28-0.39,0.66-0.39,1.14c0,0.47,0.13,0.85,0.39,1.13
			c0.26,0.28,0.6,0.42,1.03,0.42C29.46,62.56,29.8,62.42,30.06,62.13z"/>
		<path class="st2" d="M38.56,58.34v5.36h-1.3v-3.21l-1.2,3.21h-1.05l-1.21-3.22v3.22h-1.3v-5.36h1.54l1.5,3.71l1.49-3.71H38.56z"/>
		<path class="st2" d="M43.37,60.92c-0.14,0.26-0.36,0.46-0.66,0.62c-0.3,0.16-0.66,0.24-1.1,0.24h-0.81v1.92h-1.3v-5.36h2.11
			c0.43,0,0.79,0.07,1.08,0.22c0.3,0.15,0.52,0.35,0.66,0.61c0.15,0.26,0.22,0.56,0.22,0.89C43.58,60.37,43.51,60.66,43.37,60.92z
			 M42.07,60.56c0.12-0.12,0.18-0.28,0.18-0.5s-0.06-0.38-0.18-0.5c-0.12-0.12-0.31-0.18-0.56-0.18h-0.71v1.34h0.71
			C41.77,60.74,41.95,60.68,42.07,60.56z"/>
		<path class="st2" d="M47.6,62.75h-2l-0.32,0.95h-1.37l1.94-5.36h1.51l1.94,5.36h-1.38L47.6,62.75z M47.26,61.74l-0.66-1.96
			l-0.66,1.96H47.26z"/>
		<path class="st2" d="M54.68,63.7h-1.3l-2.18-3.3v3.3h-1.3v-5.36h1.3l2.18,3.32v-3.32h1.3V63.7z"/>
		<path class="st2" d="M60.22,58.34l-1.85,3.59v1.77h-1.3v-1.77l-1.85-3.59h1.48l1.04,2.24l1.03-2.24H60.22z"/>
	</g>
</g>
</svg>
