<?xml version="1.0" encoding="utf-8"?>
<!-- Generator: Adobe Illustrator 24.3.0, SVG Export Plug-In . SVG Version: 6.00 Build 0)  -->
<svg version="1.1" id="Layer_1" xmlns="http://www.w3.org/2000/svg" xmlns:xlink="http://www.w3.org/1999/xlink" x="0px" y="0px"
	 viewBox="0 0 64 64" style="enable-background:new 0 0 64 64;" xml:space="preserve">
<style type="text/css">
	.st0{clip-path:url(#SVGID_1_);}
	.st1{fill:#003B6C;}
	.st2{fill:#00D9EC;}
	.st3{clip-path:url(#SVGID_2_);fill:#F15021;}
	.st4{clip-path:url(#SVGID_4_);fill:#9B260B;}
	.st5{fill:none;}
	.st6{clip-path:url(#SVGID_5_);fill:#00D9EC;}
	.st7{fill:#282E7C;}
	.st8{clip-path:url(#SVGID_6_);fill:#012039;}
	.st9{fill:#012039;}
</style>
<g>
	<g>
		<defs>
			<path id="SVGID_3_" d="M-52.75,26.74c1.97,3.79,3.05,8.09,3.05,12.64c0,15.32-12.39,27.71-27.69,27.71
				c-15.32,0-27.71-12.39-27.71-27.71c0-4.55,1.08-8.85,3.05-12.64c-1.25,3.02-1.94,6.3-1.94,9.76c0,8.19,3.89,15.52,9.98,20.26
				c2.68,1.75,7.72,3.54,12.1-0.47c4.21-3.84,2.78-9,2.43-10.06l-1.6,0.54v-1.06l2.61-3.2c-0.25-2.61-0.59-6.61-0.89-10.57
				l-12.07,4.25l-0.42,0.17v-3.3c0-0.2,0.17-0.37,0.39-0.37c0.2,0,0.37,0.17,0.37,0.37v0.34l2.98-2.14v-1.6
				c0-0.27,0.22-0.49,0.52-0.49c0.27,0,0.52,0.22,0.52,0.49v0.86l2.39-1.72v-1.8c0-0.27,0.25-0.49,0.52-0.49
				c0.3,0,0.52,0.22,0.52,0.49v1.03l3.84-2.75c-0.17-3.02-0.25-5.31-0.15-5.85c0.44-1.89,2.43-3.52,2.58-3.52s2.16,1.62,2.58,3.52
				c0.12,0.54,0.02,2.83-0.15,5.85l3.84,2.75v-1.03c0-0.27,0.22-0.49,0.52-0.49c0.27,0,0.52,0.22,0.52,0.49v1.8l2.39,1.72v-0.86
				c0-0.27,0.25-0.49,0.52-0.49c0.3,0,0.52,0.22,0.52,0.49v1.6l2.98,2.14v-0.34c0-0.2,0.17-0.37,0.39-0.37
				c0.2,0,0.37,0.17,0.37,0.37v3.3l-0.42-0.17l-12.05-4.25c-0.32,3.96-0.66,7.97-0.89,10.57l2.61,3.2v1.06l-1.6-0.54
				c-0.37,1.06-1.77,6.22,2.41,10.06c4.3,3.93,9.25,2.26,11.98,0.57c6.15-4.77,10.08-12.12,10.08-20.36
				C-50.81,33.04-51.5,29.76-52.75,26.74L-52.75,26.74z"/>
		</defs>
		<use xlink:href="#SVGID_3_"  style="overflow:visible;fill-rule:evenodd;clip-rule:evenodd;"/>
		<clipPath id="SVGID_1_">
			<use xlink:href="#SVGID_3_"  style="overflow:visible;"/>
		</clipPath>
		<rect x="-105.1" y="65.98" class="st0" width="55.4" height="1.11"/>
		<rect x="-105.1" y="64.71" class="st0" width="55.4" height="1.28"/>
		<rect x="-105.1" y="63.43" class="st0" width="55.4" height="1.28"/>
		<rect x="-105.1" y="62.15" class="st0" width="55.4" height="1.28"/>
		<rect x="-105.1" y="60.87" class="st0" width="55.4" height="1.28"/>
		<rect x="-105.1" y="59.6" class="st0" width="55.4" height="1.28"/>
		<rect x="-105.1" y="58.32" class="st0" width="55.4" height="1.28"/>
		<rect x="-105.1" y="57.04" class="st0" width="55.4" height="1.28"/>
		<rect x="-105.1" y="55.76" class="st0" width="55.4" height="1.28"/>
		<rect x="-105.1" y="54.49" class="st0" width="55.4" height="1.28"/>
		<rect x="-105.1" y="53.21" class="st0" width="55.4" height="1.28"/>
		<rect x="-105.1" y="51.93" class="st0" width="55.4" height="1.28"/>
		<rect x="-105.1" y="50.65" class="st0" width="55.4" height="1.28"/>
		<rect x="-105.1" y="49.38" class="st0" width="55.4" height="1.28"/>
		<rect x="-105.1" y="48.1" class="st0" width="55.4" height="1.28"/>
		<rect x="-105.1" y="46.82" class="st0" width="55.4" height="1.28"/>
		<rect x="-105.1" y="45.54" class="st0" width="55.4" height="1.28"/>
		<rect x="-105.1" y="44.26" class="st0" width="55.4" height="1.28"/>
		<rect x="-105.1" y="42.99" class="st0" width="55.4" height="1.28"/>
		<rect x="-105.1" y="41.71" class="st0" width="55.4" height="1.28"/>
		<rect x="-105.1" y="40.43" class="st0" width="55.4" height="1.28"/>
		<rect x="-105.1" y="39.15" class="st0" width="55.4" height="1.28"/>
		<rect x="-105.1" y="37.88" class="st0" width="55.4" height="1.28"/>
		<rect x="-105.1" y="36.6" class="st0" width="55.4" height="1.28"/>
		<rect x="-105.1" y="35.32" class="st0" width="55.4" height="1.28"/>
		<rect x="-105.1" y="34.04" class="st0" width="55.4" height="1.28"/>
		<rect x="-105.1" y="32.77" class="st0" width="55.4" height="1.28"/>
		<rect x="-105.1" y="31.49" class="st0" width="55.4" height="1.28"/>
		<rect x="-105.1" y="30.21" class="st0" width="55.4" height="1.28"/>
		<rect x="-105.1" y="28.93" class="st0" width="55.4" height="1.28"/>
		<rect x="-105.1" y="27.66" class="st0" width="55.4" height="1.28"/>
		<rect x="-105.1" y="26.38" class="st0" width="55.4" height="1.28"/>
		<rect x="-105.1" y="25.1" class="st0" width="55.4" height="1.28"/>
		<rect x="-105.1" y="23.82" class="st0" width="55.4" height="1.28"/>
		<rect x="-105.1" y="22.55" class="st0" width="55.4" height="1.28"/>
		<rect x="-105.1" y="21.27" class="st0" width="55.4" height="1.28"/>
		<rect x="-105.1" y="19.99" class="st0" width="55.4" height="1.28"/>
		<rect x="-105.1" y="18.71" class="st0" width="55.4" height="1.28"/>
		<rect x="-105.1" y="17.44" class="st0" width="55.4" height="1.28"/>
		<rect x="-105.1" y="16.16" class="st0" width="55.4" height="1.28"/>
		<rect x="-105.1" y="15.94" class="st0" width="55.4" height="0.21"/>
	</g>
	<g>
		<path class="st1" d="M-104.59,79.25c-0.31-0.13-0.56-0.32-0.74-0.56c-0.19-0.25-0.28-0.55-0.29-0.9h1.39
			c0.02,0.2,0.09,0.35,0.21,0.45c0.12,0.1,0.27,0.16,0.46,0.16c0.19,0,0.35-0.04,0.46-0.13c0.11-0.09,0.17-0.21,0.17-0.37
			c0-0.13-0.04-0.24-0.13-0.33c-0.09-0.09-0.2-0.16-0.33-0.21c-0.13-0.06-0.31-0.12-0.55-0.19c-0.35-0.11-0.63-0.21-0.85-0.32
			c-0.22-0.11-0.41-0.26-0.56-0.47c-0.16-0.21-0.24-0.48-0.24-0.82c0-0.5,0.18-0.89,0.54-1.17c0.36-0.28,0.83-0.42,1.41-0.42
			c0.59,0,1.07,0.14,1.43,0.42c0.36,0.28,0.55,0.68,0.58,1.18h-1.41c-0.01-0.17-0.07-0.31-0.19-0.41c-0.12-0.1-0.27-0.15-0.45-0.15
			c-0.16,0-0.28,0.04-0.38,0.13c-0.1,0.08-0.14,0.2-0.14,0.36c0,0.17,0.08,0.31,0.24,0.4c0.16,0.1,0.42,0.2,0.76,0.31
			c0.35,0.12,0.63,0.23,0.84,0.34c0.22,0.11,0.4,0.26,0.56,0.47c0.16,0.2,0.24,0.47,0.24,0.79c0,0.31-0.08,0.58-0.23,0.83
			c-0.16,0.25-0.38,0.45-0.68,0.6c-0.3,0.15-0.64,0.22-1.05,0.22C-103.92,79.44-104.28,79.38-104.59,79.25z"/>
		<path class="st1" d="M-97.67,79.39l-1.8-2.37v2.37h-1.3v-5.36h1.3v2.35l1.79-2.35h1.53l-2.08,2.63l2.15,2.73H-97.67z"/>
		<path class="st1" d="M-90.86,74.03l-1.85,3.59v1.77h-1.3v-1.77l-1.85-3.59h1.48l1.04,2.24l1.03-2.24H-90.86z"/>
		<path class="st2" d="M-88.6,75.29c0.23-0.41,0.55-0.74,0.96-0.97c0.41-0.23,0.87-0.35,1.39-0.35c0.64,0,1.18,0.17,1.63,0.5
			c0.45,0.34,0.76,0.79,0.91,1.37h-1.43c-0.11-0.22-0.26-0.39-0.45-0.51c-0.2-0.12-0.42-0.18-0.67-0.18c-0.4,0-0.73,0.14-0.98,0.42
			c-0.25,0.28-0.37,0.65-0.37,1.12c0,0.47,0.12,0.84,0.37,1.12c0.25,0.28,0.57,0.42,0.98,0.42c0.25,0,0.47-0.06,0.67-0.18
			c0.2-0.12,0.35-0.29,0.45-0.51h1.43c-0.15,0.58-0.46,1.04-0.91,1.37c-0.45,0.33-1,0.5-1.63,0.5c-0.52,0-0.98-0.12-1.39-0.35
			c-0.41-0.23-0.73-0.55-0.96-0.97c-0.23-0.41-0.34-0.88-0.34-1.41C-88.94,76.18-88.83,75.7-88.6,75.29z"/>
		<path class="st2" d="M-81.76,79.09c-0.42-0.23-0.75-0.56-1-0.98c-0.25-0.42-0.37-0.89-0.37-1.42c0-0.52,0.12-0.99,0.37-1.41
			c0.25-0.42,0.58-0.74,1-0.98c0.42-0.23,0.88-0.35,1.39-0.35c0.5,0,0.97,0.12,1.39,0.35c0.42,0.23,0.75,0.56,0.99,0.98
			c0.24,0.42,0.36,0.89,0.36,1.41c0,0.52-0.12,1-0.37,1.42c-0.24,0.42-0.57,0.75-0.99,0.98c-0.42,0.23-0.88,0.35-1.38,0.35
			C-80.88,79.44-81.34,79.33-81.76,79.09z M-79.35,77.83c0.26-0.28,0.39-0.66,0.39-1.13c0-0.47-0.13-0.85-0.39-1.13
			c-0.26-0.28-0.6-0.42-1.03-0.42c-0.43,0-0.78,0.14-1.03,0.42c-0.26,0.28-0.39,0.66-0.39,1.14c0,0.47,0.13,0.85,0.39,1.13
			c0.26,0.28,0.6,0.42,1.03,0.42C-79.94,78.25-79.6,78.11-79.35,77.83z"/>
		<path class="st2" d="M-70.84,74.03v5.36h-1.3v-3.21l-1.2,3.21h-1.05l-1.21-3.22v3.22h-1.3v-5.36h1.54l1.5,3.71l1.49-3.71H-70.84z"
			/>
		<path class="st2" d="M-66.03,76.61c-0.14,0.26-0.36,0.46-0.66,0.62c-0.3,0.16-0.66,0.24-1.1,0.24h-0.81v1.92h-1.3v-5.36h2.11
			c0.43,0,0.79,0.07,1.08,0.22c0.3,0.15,0.52,0.35,0.66,0.61c0.15,0.26,0.22,0.56,0.22,0.89C-65.82,76.07-65.89,76.35-66.03,76.61z
			 M-67.33,76.25c0.12-0.12,0.18-0.28,0.18-0.5c0-0.21-0.06-0.38-0.18-0.5c-0.12-0.12-0.31-0.18-0.56-0.18h-0.71v1.34h0.71
			C-67.64,76.43-67.45,76.37-67.33,76.25z"/>
		<path class="st2" d="M-61.81,78.44h-2l-0.32,0.95h-1.37l1.94-5.36h1.51l1.94,5.36h-1.38L-61.81,78.44z M-62.14,77.44l-0.66-1.96
			l-0.66,1.96H-62.14z"/>
		<path class="st2" d="M-54.72,79.39h-1.3l-2.18-3.3v3.3h-1.3v-5.36h1.3l2.18,3.32v-3.32h1.3V79.39z"/>
		<path class="st2" d="M-49.18,74.03l-1.85,3.59v1.77h-1.3v-1.77l-1.85-3.59h1.48l1.04,2.24l1.03-2.24H-49.18z"/>
	</g>
</g>
<g>
	<g>
		<g>
			<g>
				<defs>
					<path id="SVGID_9_" d="M55.96,19.22c-0.03,0.2-0.05,0.39-0.09,0.59v0c-0.24,0.28-0.49,0.57-0.74,0.86
						c-0.18,0.22-0.38,0.44-0.56,0.66c-0.04,0.05-0.09,0.1-0.12,0.14c-5.68,6.62-12.36,14.05-19.38,19.41
						c-4.21,3.21-8.65,5.64-12.9,7.31c-1.26-1.04-2.41-2.22-3.42-3.51c-0.1-0.13-0.2-0.26-0.3-0.4c-0.98-1.31-1.83-2.74-2.51-4.25
						c-1.28-2.83-1.98-5.96-1.98-9.27c0-8.39,4.58-15.72,11.37-19.62h0.01c3.3-1.89,7.13-2.98,11.21-2.98
						c7.96,0,14.95,4.11,18.97,10.33C55.67,18.75,55.81,18.98,55.96,19.22z"/>
				</defs>
				<use xlink:href="#SVGID_9_"  style="overflow:visible;fill:#F15021;"/>
				<clipPath id="SVGID_2_">
					<use xlink:href="#SVGID_9_"  style="overflow:visible;"/>
				</clipPath>
				<polygon class="st3" points="23.32,8.19 13.95,15.36 13.95,8.19 				"/>
				<polygon class="st3" points="23.83,8.19 13.95,15.75 13.95,15.36 23.32,8.19 				"/>
				<polygon class="st3" points="24.34,8.19 13.95,16.14 13.95,15.75 23.83,8.19 				"/>
				<polygon class="st3" points="24.84,8.19 13.95,16.52 13.95,16.14 24.34,8.19 				"/>
				<polygon class="st3" points="25.35,8.19 13.95,16.91 13.95,16.52 24.84,8.19 				"/>
				<polygon class="st3" points="25.86,8.19 13.95,17.3 13.95,16.91 25.35,8.19 				"/>
				<polygon class="st3" points="26.36,8.19 13.95,17.69 13.95,17.3 25.86,8.19 				"/>
				<polygon class="st3" points="26.87,8.19 13.95,18.08 13.95,17.69 26.36,8.19 				"/>
				<polygon class="st3" points="27.38,8.19 13.95,18.46 13.95,18.08 26.87,8.19 				"/>
				<polygon class="st3" points="27.88,8.19 13.95,18.85 13.95,18.46 27.38,8.19 				"/>
				<polygon class="st3" points="28.39,8.19 13.95,19.24 13.95,18.85 27.88,8.19 				"/>
				<polygon class="st3" points="28.9,8.19 13.95,19.63 13.95,19.24 28.39,8.19 				"/>
				<polygon class="st3" points="29.4,8.19 13.95,20.02 13.95,19.63 28.9,8.19 				"/>
				<polygon class="st3" points="29.91,8.19 13.95,20.4 13.95,20.02 29.4,8.19 				"/>
				<polygon class="st3" points="30.42,8.19 13.95,20.79 13.95,20.4 29.91,8.19 				"/>
				<polygon class="st3" points="30.92,8.19 13.95,21.18 13.95,20.79 30.42,8.19 				"/>
				<polygon class="st3" points="31.43,8.19 13.95,21.57 13.95,21.18 30.92,8.19 				"/>
				<polygon class="st3" points="31.94,8.19 13.95,21.96 13.95,21.57 31.43,8.19 				"/>
				<polygon class="st3" points="32.44,8.19 13.95,22.34 13.95,21.96 31.94,8.19 				"/>
				<polygon class="st3" points="32.95,8.19 13.95,22.73 13.95,22.34 32.44,8.19 				"/>
				<polygon class="st3" points="33.46,8.19 13.95,23.12 13.95,22.73 32.95,8.19 				"/>
				<polygon class="st3" points="33.96,8.19 13.95,23.51 13.95,23.12 33.46,8.19 				"/>
				<polygon class="st3" points="34.47,8.19 13.95,23.9 13.95,23.51 33.96,8.19 				"/>
				<polygon class="st3" points="34.98,8.19 13.95,24.28 13.95,23.9 34.47,8.19 				"/>
				<polygon class="st3" points="35.49,8.19 13.95,24.67 13.95,24.28 34.98,8.19 				"/>
				<polygon class="st3" points="35.99,8.19 13.95,25.06 13.95,24.67 35.49,8.19 				"/>
				<polygon class="st3" points="36.5,8.19 13.95,25.45 13.95,25.06 35.99,8.19 				"/>
				<polygon class="st3" points="37.01,8.19 13.95,25.84 13.95,25.45 36.5,8.19 				"/>
				<polygon class="st3" points="37.51,8.19 13.95,26.22 13.95,25.84 37.01,8.19 				"/>
				<polygon class="st3" points="38.02,8.19 13.95,26.61 13.95,26.22 37.51,8.19 				"/>
				<polygon class="st3" points="38.53,8.19 13.95,27 13.95,26.61 38.02,8.19 				"/>
				<polygon class="st3" points="39.03,8.19 13.95,27.39 13.95,27 38.53,8.19 				"/>
				<polygon class="st3" points="39.54,8.19 13.95,27.78 13.95,27.39 39.03,8.19 				"/>
				<polygon class="st3" points="40.05,8.19 13.95,28.16 13.95,27.78 39.54,8.19 				"/>
				<polygon class="st3" points="40.55,8.19 13.95,28.55 13.95,28.16 40.05,8.19 				"/>
				<polygon class="st3" points="41.06,8.19 13.95,28.94 13.95,28.55 40.55,8.19 				"/>
				<polygon class="st3" points="41.57,8.19 13.95,29.33 13.95,28.94 41.06,8.19 				"/>
				<polygon class="st3" points="42.07,8.19 13.95,29.72 13.95,29.33 41.57,8.19 				"/>
				<polygon class="st3" points="42.58,8.19 13.95,30.1 13.95,29.72 42.07,8.19 				"/>
				<polygon class="st3" points="43.09,8.19 13.95,30.49 13.95,30.1 42.58,8.19 				"/>
				<polygon class="st3" points="43.59,8.19 13.95,30.88 13.95,30.49 43.09,8.19 				"/>
				<polygon class="st3" points="44.1,8.19 13.95,31.27 13.95,30.88 43.59,8.19 				"/>
				<polygon class="st3" points="44.61,8.19 13.95,31.66 13.95,31.27 44.1,8.19 				"/>
				<polygon class="st3" points="45.11,8.19 13.95,32.04 13.95,31.66 44.61,8.19 				"/>
				<polygon class="st3" points="45.62,8.19 13.95,32.43 13.95,32.04 45.11,8.19 				"/>
				<polygon class="st3" points="46.13,8.19 13.95,32.82 13.95,32.43 45.62,8.19 				"/>
				<polygon class="st3" points="46.63,8.19 13.95,33.21 13.95,32.82 46.13,8.19 				"/>
				<polygon class="st3" points="47.14,8.19 13.95,33.6 13.95,33.21 46.63,8.19 				"/>
				<polygon class="st3" points="47.65,8.19 13.95,33.98 13.95,33.6 47.14,8.19 				"/>
				<polygon class="st3" points="48.15,8.19 13.95,34.37 13.95,33.98 47.65,8.19 				"/>
				<polygon class="st3" points="48.66,8.19 13.95,34.76 13.95,34.37 48.15,8.19 				"/>
				<polygon class="st3" points="48.96,8.19 49.03,8.29 13.95,35.15 13.95,34.76 48.66,8.19 				"/>
				<polygon class="st3" points="49.03,8.29 49.22,8.53 13.95,35.54 13.95,35.15 				"/>
				<polygon class="st3" points="49.22,8.53 49.41,8.78 13.95,35.92 13.95,35.54 				"/>
				<polygon class="st3" points="49.41,8.78 49.6,9.02 13.95,36.31 13.95,35.92 				"/>
				<polygon class="st3" points="49.6,9.02 49.78,9.27 13.95,36.7 13.95,36.31 				"/>
				<polygon class="st3" points="49.78,9.27 49.97,9.51 13.95,37.09 13.95,36.7 				"/>
				<polygon class="st3" points="49.97,9.51 50.16,9.76 13.95,37.48 13.95,37.09 				"/>
				<polygon class="st3" points="50.16,9.76 50.34,10 13.95,37.86 13.95,37.48 				"/>
				<polygon class="st3" points="50.34,10 50.53,10.24 13.95,38.25 13.95,37.86 				"/>
				<polygon class="st3" points="50.53,10.24 50.72,10.49 13.95,38.64 13.95,38.25 				"/>
				<polygon class="st3" points="50.72,10.49 50.91,10.73 13.95,39.03 13.95,38.64 				"/>
				<polygon class="st3" points="50.91,10.73 51.09,10.98 14.04,39.35 13.95,39.24 13.95,39.03 				"/>
				
					<rect x="9.33" y="25.13" transform="matrix(0.794 -0.6079 0.6079 0.794 -8.6436 25.0654)" class="st3" width="46.67" height="0.31"/>
				
					<rect x="9.51" y="25.38" transform="matrix(0.794 -0.6079 0.6079 0.794 -8.7537 25.2297)" class="st3" width="46.67" height="0.31"/>
				
					<rect x="9.7" y="25.62" transform="matrix(0.794 -0.6079 0.6079 0.794 -8.8638 25.3939)" class="st3" width="46.67" height="0.31"/>
				
					<rect x="9.89" y="25.87" transform="matrix(0.794 -0.6079 0.6079 0.794 -8.974 25.5582)" class="st3" width="46.67" height="0.31"/>
				
					<rect x="10.08" y="26.11" transform="matrix(0.794 -0.6079 0.6079 0.794 -9.0841 25.7224)" class="st3" width="46.67" height="0.31"/>
				
					<rect x="10.26" y="26.35" transform="matrix(0.794 -0.6079 0.6079 0.794 -9.1942 25.8867)" class="st3" width="46.67" height="0.31"/>
				
					<rect x="10.45" y="26.6" transform="matrix(0.794 -0.6079 0.6079 0.794 -9.3043 26.0509)" class="st3" width="46.67" height="0.31"/>
				
					<rect x="10.64" y="26.84" transform="matrix(0.794 -0.6079 0.6079 0.794 -9.4144 26.2152)" class="st3" width="46.67" height="0.31"/>
				
					<rect x="10.83" y="27.09" transform="matrix(0.794 -0.6079 0.6079 0.794 -9.5245 26.3794)" class="st3" width="46.67" height="0.31"/>
				
					<rect x="11.01" y="27.33" transform="matrix(0.794 -0.6079 0.6079 0.794 -9.6346 26.5437)" class="st3" width="46.67" height="0.31"/>
				
					<rect x="11.2" y="27.58" transform="matrix(0.794 -0.6079 0.6079 0.794 -9.7448 26.7079)" class="st3" width="46.67" height="0.31"/>
				
					<rect x="11.39" y="27.82" transform="matrix(0.794 -0.6079 0.6079 0.794 -9.8549 26.8721)" class="st3" width="46.67" height="0.31"/>
				
					<rect x="11.58" y="28.07" transform="matrix(0.794 -0.6079 0.6079 0.794 -9.965 27.0364)" class="st3" width="46.67" height="0.31"/>
				
					<rect x="11.76" y="28.31" transform="matrix(0.794 -0.6079 0.6079 0.794 -10.0751 27.2007)" class="st3" width="46.67" height="0.31"/>
				
					<rect x="11.95" y="28.56" transform="matrix(0.794 -0.6079 0.6079 0.794 -10.1852 27.3649)" class="st3" width="46.67" height="0.31"/>
				
					<rect x="12.14" y="28.8" transform="matrix(0.794 -0.6079 0.6079 0.794 -10.2953 27.5291)" class="st3" width="46.67" height="0.31"/>
				
					<rect x="12.32" y="29.05" transform="matrix(0.794 -0.6079 0.6079 0.794 -10.4054 27.6934)" class="st3" width="46.67" height="0.31"/>
				
					<rect x="12.51" y="29.29" transform="matrix(0.794 -0.6079 0.6079 0.794 -10.5155 27.8576)" class="st3" width="46.67" height="0.31"/>
				
					<rect x="12.7" y="29.53" transform="matrix(0.794 -0.6079 0.6079 0.794 -10.6257 28.0219)" class="st3" width="46.67" height="0.31"/>
				
					<rect x="12.89" y="29.78" transform="matrix(0.794 -0.6079 0.6079 0.794 -10.7358 28.1861)" class="st3" width="46.67" height="0.31"/>
				
					<rect x="13.07" y="30.02" transform="matrix(0.794 -0.6079 0.6079 0.794 -10.8459 28.3504)" class="st3" width="46.67" height="0.31"/>
				
					<rect x="13.26" y="30.27" transform="matrix(0.794 -0.6079 0.6079 0.794 -10.956 28.5146)" class="st3" width="46.67" height="0.31"/>
				
					<rect x="13.45" y="30.51" transform="matrix(0.794 -0.6079 0.6079 0.794 -11.0661 28.6789)" class="st3" width="46.67" height="0.31"/>
				
					<rect x="13.64" y="30.76" transform="matrix(0.794 -0.6079 0.6079 0.794 -11.1762 28.8431)" class="st3" width="46.67" height="0.31"/>
				
					<rect x="13.82" y="31" transform="matrix(0.794 -0.6079 0.6079 0.794 -11.2863 29.0073)" class="st3" width="46.67" height="0.31"/>
				<polygon class="st3" points="55.78,17.09 55.96,17.33 55.96,17.34 18.91,45.71 18.72,45.46 				"/>
				<polygon class="st3" points="55.96,17.73 19.1,45.95 18.91,45.71 55.96,17.34 				"/>
				<polygon class="st3" points="55.96,18.12 19.28,46.2 19.1,45.95 55.96,17.73 				"/>
				<polygon class="st3" points="55.96,18.51 19.47,46.44 19.28,46.2 55.96,18.12 				"/>
				<polygon class="st3" points="55.96,18.89 19.66,46.69 19.47,46.44 55.96,18.51 				"/>
				<polygon class="st3" points="55.96,19.28 19.85,46.93 19.66,46.69 55.96,18.89 				"/>
				<polygon class="st3" points="55.96,19.67 20.03,47.18 19.85,46.93 55.96,19.28 				"/>
				<polygon class="st3" points="55.96,20.06 20.22,47.42 20.03,47.18 55.96,19.67 				"/>
				<polygon class="st3" points="55.96,20.45 20.41,47.67 20.22,47.42 55.96,20.06 				"/>
				<polygon class="st3" points="55.96,20.83 20.6,47.91 20.41,47.67 55.96,20.45 				"/>
				<polygon class="st3" points="55.96,21.22 20.78,48.15 20.6,47.91 55.96,20.83 				"/>
				<polygon class="st3" points="55.96,21.61 21.22,48.2 20.82,48.2 20.78,48.15 55.96,21.22 				"/>
				<polygon class="st3" points="55.96,22 21.73,48.2 21.22,48.2 55.96,21.61 				"/>
				<polygon class="st3" points="55.96,22.39 22.24,48.2 21.73,48.2 55.96,22 				"/>
				<polygon class="st3" points="55.96,22.77 22.74,48.2 22.24,48.2 55.96,22.39 				"/>
				<polygon class="st3" points="55.96,23.16 23.25,48.2 22.74,48.2 55.96,22.77 				"/>
				<polygon class="st3" points="55.96,23.55 23.76,48.2 23.25,48.2 55.96,23.16 				"/>
				<polygon class="st3" points="55.96,23.94 24.26,48.2 23.76,48.2 55.96,23.55 				"/>
				<polygon class="st3" points="55.96,24.33 24.77,48.2 24.26,48.2 55.96,23.94 				"/>
				<polygon class="st3" points="55.96,24.71 25.28,48.2 24.77,48.2 55.96,24.33 				"/>
				<polygon class="st3" points="55.96,25.1 25.78,48.2 25.28,48.2 55.96,24.71 				"/>
				<polygon class="st3" points="55.96,25.49 26.29,48.2 25.78,48.2 55.96,25.1 				"/>
				<polygon class="st3" points="55.96,25.88 26.8,48.2 26.29,48.2 55.96,25.49 				"/>
				<polygon class="st3" points="55.96,26.27 27.31,48.2 26.8,48.2 55.96,25.88 				"/>
				<polygon class="st3" points="55.96,26.65 27.81,48.2 27.31,48.2 55.96,26.27 				"/>
				<polygon class="st3" points="55.96,27.04 28.32,48.2 27.81,48.2 55.96,26.65 				"/>
				<polygon class="st3" points="55.96,27.43 28.83,48.2 28.32,48.2 55.96,27.04 				"/>
				<polygon class="st3" points="55.96,27.82 29.33,48.2 28.83,48.2 55.96,27.43 				"/>
				<polygon class="st3" points="55.96,28.21 29.84,48.2 29.33,48.2 55.96,27.82 				"/>
				<polygon class="st3" points="55.96,28.59 30.35,48.2 29.84,48.2 55.96,28.21 				"/>
				<polygon class="st3" points="55.96,28.98 30.85,48.2 30.35,48.2 55.96,28.59 				"/>
				<polygon class="st3" points="55.96,29.37 31.36,48.2 30.85,48.2 55.96,28.98 				"/>
				<polygon class="st3" points="31.36,48.2 55.96,29.37 55.96,48.2 				"/>
			</g>
		</g>
		<g>
			<g>
				<path d="M24.31,11.9c0,0-3.85-0.2-4.52,1.51c0,0-0.12-1.36,1.46-2.05c0,0-3.16,1.38-3.38,1.95c0,0-0.12-1.36,0.67-1.7
					c0,0-1.58,0.69-3.04,2.74c0,0,0.44-1.14,0.89-2.27c0,0-2.59,1.61-3.26,3.31C13.12,15.38,16.68,6.29,24.31,11.9z"/>
			</g>
			<g>
				<path d="M23.9,12.09c0,0-0.03-4.16-1.9-4.78c0,0,1.46-0.22,2.3,1.44c0,0-1.69-3.32-2.31-3.52c0,0,1.46-0.22,1.88,0.61
					c0,0-0.84-1.66-3.14-3.1c0,0,1.25,0.41,2.5,0.82c0,0-1.89-2.69-3.77-3.31C19.45,0.25,29.47,3.51,23.9,12.09z"/>
			</g>
			<g>
				<path d="M24.17,11.7c0,0,0.2,3.15-1.19,3.71c0,0,1.11,0.09,1.66-1.21c0,0-1.1,2.6-1.56,2.78c0,0,1.11,0.09,1.39-0.56
					c0,0-0.55,1.3-2.21,2.51c0,0,0.92-0.37,1.85-0.75c0,0-1.29,2.14-2.67,2.7C21.43,20.88,28.83,17.88,24.17,11.7z"/>
			</g>
			<g>
				<path d="M24.24,11.76c0,0,2.91,2.98,2,4.74c0,0,1.19-0.87,0.62-2.64c0,0,1.13,3.55,0.83,4.13c0,0,1.19-0.87,0.91-1.75
					c0,0,0.57,1.77-0.06,4.42c0,0,0.6-1.17,1.21-2.34c0,0,0.55,3.25-0.36,5C29.39,23.31,34.22,13.95,24.24,11.76z"/>
			</g>
			<g>
				<path d="M24.53,12.29c0,0-2.7-2.75-4.07-2.77l1.64-0.53c0,0-2.45-0.57-3.27-0.3c0,0,0.28-0.54,1.64-0.53c0,0-0.81-1.1-4.36-0.86
					c0,0,1.1-0.81,2.46-0.8c0,0-5.18-0.59-6-0.33l3.28-1.06c0,0-4.36-0.86-6.28,0.22c0,0,1.77-2.51,5.76-1.95
					c1.57,0.22,3.03,0.91,4.27,1.9C21.19,6.55,23.41,8.83,24.53,12.29z"/>
			</g>
			<g>
				<path d="M24.42,12c0,0,2.43-1.31,3.36-1.04l-1.01-0.71c0,0,1.8,0.13,2.3,0.48c0,0-0.08-0.43-1.01-0.71c0,0,0.78-0.58,3.16,0.33
					c0,0-0.58-0.78-1.52-1.06c0,0,3.67,0.68,4.17,1.04l-2.02-1.42c0,0,3.16,0.33,4.25,1.47c0,0-0.68-2.09-3.53-2.54
					c-1.12-0.18-2.27-0.02-3.32,0.4C27.9,8.78,25.91,9.87,24.42,12z"/>
			</g>
			<g>
				<path d="M24.1,12.38c0,0,1.83-2.44,2.9-2.59l-1.34-0.24c0,0,1.86-0.7,2.53-0.58c0,0-0.27-0.4-1.34-0.24c0,0,0.52-0.95,3.33-1.13
					c0,0-0.95-0.52-2.01-0.37c0,0,4-1.01,4.67-0.88l-2.69-0.49c0,0,3.33-1.13,4.95-0.49c0,0-1.65-1.78-4.72-0.93
					c-1.21,0.34-2.28,1.03-3.15,1.93C26.12,7.53,24.62,9.55,24.1,12.38z"/>
			</g>
			<g>
				<path d="M24.1,11.88c0,0,3.31,0.31,4.06,1.21l-0.54-1.39c0,0,1.71,1.33,1.98,2.02c0,0,0.21-0.48-0.54-1.39
					c0,0,1.17-0.06,2.94,2.44c0,0-0.06-1.17-0.81-2.08c0,0,3.21,3.14,3.48,3.83l-1.08-2.77c0,0,2.94,2.44,3.27,4.31
					c0,0,0.71-2.55-1.83-4.9c-1-0.93-2.26-1.53-3.59-1.82C29.75,10.98,27.02,10.74,24.1,11.88z"/>
			</g>
		</g>
		<g>
			<path d="M24.63,49.97L24.63,49.97c-6.41-3.98-10.67-11.09-10.67-19.19c0-8.39,4.58-15.72,11.37-19.62h0.01
				C3.75,31.47,24.63,49.97,24.63,49.97z"/>
		</g>
		<g>
			<g>
				<defs>
					<path id="SVGID_11_" d="M42.91,34.01c-1.29,1.27-2.61,2.5-3.94,3.67c-1.28,1.13-2.59,2.21-3.9,3.21
						c-0.13,0.1-0.25,0.19-0.38,0.28l-4.31,2.1c-0.44-0.9-0.69-1.84-0.77-2.78c-0.03-0.36-0.04-0.72-0.02-1.07
						c0.14-2.79,1.75-5.42,4.44-6.74c2.41-1.18,5.13-1.01,7.31,0.19C41.9,33.18,42.43,33.56,42.91,34.01z"/>
				</defs>
				<use xlink:href="#SVGID_11_"  style="overflow:visible;fill:#9B260B;"/>
				<clipPath id="SVGID_4_">
					<use xlink:href="#SVGID_11_"  style="overflow:visible;"/>
				</clipPath>
				<rect x="29.57" y="31.5" class="st4" width="0.01" height="11.77"/>
				<rect x="29.58" y="31.5" class="st4" width="0.24" height="11.77"/>
				<rect x="29.82" y="31.5" class="st4" width="0.24" height="11.77"/>
				<rect x="30.05" y="31.5" class="st4" width="0.24" height="11.77"/>
				<rect x="30.29" y="31.5" class="st4" width="0.24" height="11.77"/>
				<rect x="30.53" y="31.5" class="st4" width="0.24" height="11.77"/>
				<rect x="30.77" y="31.5" class="st4" width="0.24" height="11.77"/>
				<rect x="31.01" y="31.5" class="st4" width="0.24" height="11.77"/>
				<rect x="31.25" y="31.5" class="st4" width="0.24" height="11.77"/>
				<rect x="31.48" y="31.5" class="st4" width="0.24" height="11.77"/>
				<rect x="31.72" y="31.5" class="st4" width="0.24" height="11.77"/>
				<rect x="31.96" y="31.5" class="st4" width="0.24" height="11.77"/>
				<rect x="32.2" y="31.5" class="st4" width="0.24" height="11.77"/>
				<rect x="32.44" y="31.5" class="st4" width="0.24" height="11.77"/>
				<rect x="32.67" y="31.5" class="st4" width="0.24" height="11.77"/>
				<rect x="32.91" y="31.5" class="st4" width="0.24" height="11.77"/>
				<rect x="33.15" y="31.5" class="st4" width="0.24" height="11.77"/>
				<rect x="33.39" y="31.5" class="st4" width="0.24" height="11.77"/>
				<rect x="33.63" y="31.5" class="st4" width="0.24" height="11.77"/>
				<rect x="33.86" y="31.5" class="st4" width="0.24" height="11.77"/>
				<rect x="34.1" y="31.5" class="st4" width="0.24" height="11.77"/>
				<rect x="34.34" y="31.5" class="st4" width="0.24" height="11.77"/>
				<rect x="34.58" y="31.5" class="st4" width="0.24" height="11.77"/>
				<rect x="34.82" y="31.5" class="st4" width="0.24" height="11.77"/>
				<rect x="35.06" y="31.5" class="st4" width="0.24" height="11.77"/>
				<rect x="35.29" y="31.5" class="st4" width="0.24" height="11.77"/>
				<rect x="35.53" y="31.5" class="st4" width="0.24" height="11.77"/>
				<rect x="35.77" y="31.5" class="st4" width="0.24" height="11.77"/>
				<rect x="36.01" y="31.5" class="st4" width="0.24" height="11.77"/>
				<rect x="36.25" y="31.5" class="st4" width="0.24" height="11.77"/>
				<rect x="36.48" y="31.5" class="st4" width="0.24" height="11.77"/>
				<rect x="36.72" y="31.5" class="st4" width="0.24" height="11.77"/>
				<rect x="36.96" y="31.5" class="st4" width="0.24" height="11.77"/>
				<rect x="37.2" y="31.5" class="st4" width="0.24" height="11.77"/>
				<rect x="37.44" y="31.5" class="st4" width="0.24" height="11.77"/>
				<rect x="37.67" y="31.5" class="st4" width="0.24" height="11.77"/>
				<rect x="37.91" y="31.5" class="st4" width="0.24" height="11.77"/>
				<rect x="38.15" y="31.5" class="st4" width="0.24" height="11.77"/>
				<rect x="38.39" y="31.5" class="st4" width="0.24" height="11.77"/>
				<rect x="38.63" y="31.5" class="st4" width="0.24" height="11.77"/>
				<rect x="38.87" y="31.5" class="st4" width="0.24" height="11.77"/>
				<rect x="39.1" y="31.5" class="st4" width="0.24" height="11.77"/>
				<rect x="39.34" y="31.5" class="st4" width="0.24" height="11.77"/>
				<rect x="39.58" y="31.5" class="st4" width="0.24" height="11.77"/>
				<rect x="39.82" y="31.5" class="st4" width="0.24" height="11.77"/>
				<rect x="40.06" y="31.5" class="st4" width="0.24" height="11.77"/>
				<rect x="40.29" y="31.5" class="st4" width="0.24" height="11.77"/>
				<rect x="40.53" y="31.5" class="st4" width="0.24" height="11.77"/>
				<rect x="40.77" y="31.5" class="st4" width="0.24" height="11.77"/>
				<rect x="41.01" y="31.5" class="st4" width="0.24" height="11.77"/>
				<rect x="41.25" y="31.5" class="st4" width="0.24" height="11.77"/>
				<rect x="41.48" y="31.5" class="st4" width="0.24" height="11.77"/>
				<rect x="41.72" y="31.5" class="st4" width="0.24" height="11.77"/>
				<rect x="41.96" y="31.5" class="st4" width="0.24" height="11.77"/>
				<rect x="42.2" y="31.5" class="st4" width="0.24" height="11.77"/>
				<rect x="42.44" y="31.5" class="st4" width="0.24" height="11.77"/>
				<rect x="42.68" y="31.5" class="st4" width="0.24" height="11.77"/>
				<rect x="42.91" y="31.5" class="st4" width="0" height="11.77"/>
			</g>
		</g>
		<g>
			<g>
				<path d="M21.18,41.21c-0.27,0.01-0.54,0.01-0.81,0c0.09-1.51,0.29-3,0.55-4.49c0.24-1.37,0.52-2.75,1.09-4.02
					c0.1-0.23,0.21-0.45,0.34-0.67c0.14-0.25,0.3-0.5,0.52-0.69c0.21-0.19,0.49-0.33,0.78-0.34c-0.14,0-0.5,0.65-0.58,0.77
					c-0.18,0.28-0.35,0.57-0.5,0.87c-0.3,0.6-0.52,1.24-0.66,1.89C21.44,36.73,21.25,38.99,21.18,41.21z"/>
			</g>
			<g>
				<path d="M23.61,30.97c0,0-3.13-1.63-5.91,0.82c0,0-0.75,0.55-1.43,1.82l1.02-1.01l-0.14,0.35l0.51-0.45l-0.14,0.35l0.51-0.45
					l-0.02,0.36l0.51-0.57l-0.15,0.47l0.63-0.56l-0.14,0.35l0.63-0.56l-0.26,0.34l0.74-0.31l-0.13,0.23l0.74-0.31l-0.13,0.23
					l0.99-0.54l-0.38,0.33l0.73-0.19l-0.37,0.22l0.98-0.3l-0.25,0.22L23.61,30.97z"/>
			</g>
			<g>
				<path d="M23.34,30.84c0,0-1.42-3.23-5.13-3.06c0,0-0.93-0.04-2.26,0.53l1.43-0.15l-0.33,0.18l0.67-0.03l-0.33,0.18l0.67-0.03
					l-0.24,0.26l0.76-0.12l-0.41,0.27l0.84-0.04l-0.33,0.18l0.84-0.04l-0.42,0.1l0.77,0.22l-0.25,0.1l0.77,0.22l-0.25,0.1l1.11,0.2
					l-0.51,0.02l0.69,0.31l-0.43-0.06l0.95,0.38l-0.34,0.02L23.34,30.84z"/>
			</g>
			<g>
				<path d="M23.45,31.04c0,0,1.04-3.12-1.64-5.33c0,0-0.62-0.61-1.89-1.05L21,25.46l-0.34-0.08l0.49,0.4L20.8,25.7l0.49,0.4
					l-0.33,0.03l0.6,0.39l-0.45-0.07l0.61,0.5l-0.34-0.08l0.61,0.5l-0.35-0.19l0.4,0.63l-0.23-0.09l0.4,0.63l-0.23-0.09l0.64,0.83
					l-0.37-0.3l0.29,0.64l-0.25-0.31L22.68,30l-0.24-0.2L23.45,31.04z"/>
			</g>
			<g>
				<path d="M23.44,30.8c0,0,0.1-3.29,3.37-4.44c0,0,0.79-0.36,2.14-0.33l-1.29,0.37l0.35,0.04l-0.59,0.21l0.35,0.04l-0.59,0.21
					l0.3,0.14l-0.7,0.16l0.45,0.09l-0.74,0.26l0.35,0.04l-0.74,0.26l0.4-0.06l-0.59,0.46l0.25,0l-0.59,0.46l0.25,0l-0.89,0.56
					l0.45-0.16l-0.49,0.51l0.35-0.2l-0.69,0.66l0.3-0.1L23.44,30.8z"/>
			</g>
			<g>
				<path d="M23.36,30.88c0,0,2.32-2.66,5.81-1.39c0,0,0.9,0.24,2,1.18l-1.32-0.57l0.26,0.27l-0.63-0.23l0.26,0.27l-0.63-0.23
					l0.15,0.32l-0.69-0.34l0.31,0.38l-0.79-0.29l0.26,0.27l-0.79-0.29l0.37,0.22l-0.8-0.02l0.21,0.17l-0.8-0.02l0.21,0.17
					l-1.12-0.14l0.48,0.17l-0.75,0.09l0.43,0.06l-1.02,0.08l0.32,0.12L23.36,30.88z"/>
			</g>
			<g>
				<path d="M23.21,30.56c0,0,3.52,0.23,4.62,3.78c0,0,0.36,0.86,0.28,2.3l-0.35-1.4l-0.06,0.37l-0.2-0.64l-0.06,0.37l-0.2-0.64
					l-0.17,0.32l-0.15-0.75l-0.12,0.48l-0.25-0.81l-0.06,0.37l-0.25-0.81l0.04,0.43l-0.47-0.65l-0.01,0.27l-0.47-0.65l-0.01,0.27
					l-0.57-0.97l0.15,0.48l-0.52-0.54l0.21,0.38l-0.68-0.76l0.1,0.32L23.21,30.56z"/>
			</g>
			<g>
				<circle cx="23.53" cy="31.47" r="0.42"/>
			</g>
			<g>
				<circle cx="23.78" cy="31.97" r="0.25"/>
			</g>
			<g>
				<circle cx="23.28" cy="31.81" r="0.25"/>
			</g>
			<g>
				<circle cx="23.45" cy="32.14" r="0.25"/>
			</g>
		</g>
		<g>
			<path d="M39.8,19.7c0,0,1.01-0.34,1.73,0.61c0.04,0.05,0.11,0.06,0.15,0.01c0.21-0.26,0.85-0.92,1.73-0.62
				c0,0-0.69-0.35-1.74,0.32c-0.03,0.02-0.08,0.02-0.11,0C41.37,19.87,40.72,19.39,39.8,19.7z"/>
		</g>
		<g>
			<path d="M35.25,22.26c0,0,1.01-0.34,1.73,0.61c0.04,0.05,0.11,0.06,0.15,0.01c0.21-0.26,0.85-0.92,1.73-0.62
				c0,0-0.69-0.35-1.74,0.32c-0.03,0.02-0.08,0.02-0.11,0C36.83,22.42,36.17,21.95,35.25,22.26z"/>
		</g>
		<g>
			<path d="M39.8,23.68c0,0,1.01-0.34,1.73,0.61c0.04,0.05,0.11,0.06,0.15,0.01c0.21-0.26,0.85-0.92,1.73-0.62
				c0,0-0.69-0.35-1.74,0.32c-0.03,0.02-0.08,0.02-0.11,0C41.37,23.84,40.72,23.37,39.8,23.68z"/>
		</g>
		<g>
			<path d="M42.92,26.52c0,0,1.01-0.34,1.73,0.61c0.04,0.05,0.11,0.06,0.15,0.01c0.21-0.26,0.85-0.92,1.73-0.62
				c0,0-0.69-0.35-1.74,0.32c-0.03,0.02-0.08,0.02-0.11,0C44.5,26.69,43.84,26.21,42.92,26.52z"/>
		</g>
		<g>
			<path d="M38.97,37.68c-1.28,1.13-2.59,2.21-3.9,3.21c-0.13,0.1-0.25,0.19-0.38,0.28c-1.1,0.82-2.21,1.59-3.33,2.31l-1.89-0.02
				l0,0l-1.22,0.78l-0.26,0.16l-7.74-0.09l-1.8-0.02c-0.98-1.31-1.83-2.74-2.51-4.25l1.11-0.63c0.35-0.2,0.78-0.19,1.13,0.02
				l1.72,1.08c0.54,0.34,1.25,0.22,1.66-0.27l1.05-1.28c0.34-0.41,0.95-0.45,1.34-0.08l0.22,0.21l0.98-0.56
				c0.35-0.2,0.78-0.19,1.12,0.02l0.17,0.11l1.02-1.55c0.14-0.21,0.45-0.21,0.59,0l1.53,2.3l0.01,0.01
				c0.02-0.02,0.04-0.04,0.06-0.06l1.05-1.27c0.34-0.41,0.95-0.45,1.34-0.08l0.69,0.65c0.02,0.02,0.03,0.03,0.05,0.05
				c0.4,0.32,1,0.23,1.3-0.2l0.65-0.99l0.84-1.27c0.14-0.21,0.45-0.21,0.59,0l0.16,0.25l0.38,0.57L36.8,37
				c0.35-0.2,0.78-0.19,1.12,0.02L38.97,37.68z"/>
		</g>
		<g>
			<path class="st5" d="M54.57,21.33c0.19-0.22,0.38-0.44,0.56-0.66c-0.03,0.03-0.06,0.06-0.09,0.1
				C54.88,20.95,54.73,21.14,54.57,21.33z"/>
		</g>
		<g>
			<g>
				<defs>
					<path id="SVGID_13_" d="M54.45,21.48c-0.63,0.74-1.28,1.48-1.93,2.23c-5.81,7.12-12.61,16.08-20.01,21.73
						c-2.43,1.86-4.95,3.45-7.46,4.79c0.76,0.45,1.54,0.85,2.35,1.21c2.8,1.24,5.89,1.93,9.14,1.93c0.62,0,1.23-0.03,1.83-0.07
						C50,52.36,59.14,42.64,59.14,30.78c0-3.03-0.6-5.92-1.69-8.57c-0.38-0.93-0.83-1.83-1.32-2.7c-0.09,0.1-0.17,0.2-0.26,0.3v0
						c-0.24,0.28-0.49,0.57-0.74,0.86c-0.18,0.22-0.38,0.44-0.56,0.66C54.53,21.38,54.48,21.43,54.45,21.48z"/>
				</defs>
				<use xlink:href="#SVGID_13_"  style="overflow:visible;fill:#00D9EC;"/>
				<clipPath id="SVGID_5_">
					<use xlink:href="#SVGID_13_"  style="overflow:visible;"/>
				</clipPath>
				<polygon class="st6" points="57.07,19.51 57.63,21.03 25.06,33.12 25.06,19.51 				"/>
				<polygon class="st6" points="57.63,21.03 57.73,21.29 25.06,33.42 25.06,33.12 				"/>
				<polygon class="st6" points="57.73,21.29 57.83,21.55 25.06,33.72 25.06,33.42 				"/>
				<polygon class="st6" points="57.83,21.55 57.93,21.81 25.06,34.01 25.06,33.72 				"/>
				<polygon class="st6" points="57.93,21.81 58.02,22.07 25.06,34.31 25.06,34.01 				"/>
				<polygon class="st6" points="58.02,22.07 58.12,22.33 25.06,34.61 25.06,34.31 				"/>
				<polygon class="st6" points="58.12,22.33 58.22,22.59 25.06,34.9 25.06,34.61 				"/>
				<polygon class="st6" points="58.22,22.59 58.31,22.85 25.06,35.2 25.06,34.9 				"/>
				<polygon class="st6" points="58.31,22.85 58.41,23.11 25.06,35.5 25.06,35.2 				"/>
				<polygon class="st6" points="58.41,23.11 58.51,23.37 25.06,35.79 25.06,35.5 				"/>
				<polygon class="st6" points="58.51,23.37 58.6,23.64 25.06,36.09 25.06,35.79 				"/>
				<polygon class="st6" points="58.6,23.64 58.7,23.9 25.06,36.39 25.06,36.09 				"/>
				<polygon class="st6" points="58.7,23.9 58.8,24.16 25.06,36.68 25.06,36.39 				"/>
				<polygon class="st6" points="58.8,24.16 58.89,24.42 25.06,36.98 25.06,36.68 				"/>
				<polygon class="st6" points="58.89,24.42 58.99,24.68 25.06,37.28 25.06,36.98 				"/>
				<polygon class="st6" points="58.99,24.68 59.09,24.94 25.06,37.57 25.06,37.28 				"/>
				<polygon class="st6" points="59.09,24.94 59.14,25.07 59.14,25.22 25.06,37.87 25.06,37.57 				"/>
				<polygon class="st6" points="59.14,25.51 25.06,38.17 25.06,37.87 59.14,25.22 				"/>
				<polygon class="st6" points="59.14,25.81 25.06,38.46 25.06,38.17 59.14,25.51 				"/>
				<polygon class="st6" points="59.14,26.11 25.06,38.76 25.06,38.46 59.14,25.81 				"/>
				<polygon class="st6" points="59.14,26.4 25.06,39.06 25.06,38.76 59.14,26.11 				"/>
				<polygon class="st6" points="59.14,26.7 25.06,39.35 25.06,39.06 59.14,26.4 				"/>
				<polygon class="st6" points="59.14,27 25.06,39.65 25.06,39.35 59.14,26.7 				"/>
				<polygon class="st6" points="59.14,27.29 25.06,39.95 25.06,39.65 59.14,27 				"/>
				<polygon class="st6" points="59.14,27.59 25.06,40.24 25.06,39.95 59.14,27.29 				"/>
				<polygon class="st6" points="59.14,27.89 25.06,40.54 25.06,40.24 59.14,27.59 				"/>
				<polygon class="st6" points="59.14,28.18 25.06,40.84 25.06,40.54 59.14,27.89 				"/>
				<polygon class="st6" points="59.14,28.48 25.06,41.13 25.06,40.84 59.14,28.18 				"/>
				<polygon class="st6" points="59.14,28.78 25.06,41.43 25.06,41.13 59.14,28.48 				"/>
				<polygon class="st6" points="59.14,29.07 25.06,41.73 25.06,41.43 59.14,28.78 				"/>
				<polygon class="st6" points="59.14,29.37 25.06,42.02 25.06,41.73 59.14,29.07 				"/>
				<polygon class="st6" points="59.14,29.67 25.06,42.32 25.06,42.02 59.14,29.37 				"/>
				<polygon class="st6" points="59.14,29.96 25.06,42.62 25.06,42.32 59.14,29.67 				"/>
				<polygon class="st6" points="59.14,30.26 25.06,42.91 25.06,42.62 59.14,29.96 				"/>
				<polygon class="st6" points="59.14,30.56 25.06,43.21 25.06,42.91 59.14,30.26 				"/>
				<polygon class="st6" points="59.14,30.85 25.06,43.51 25.06,43.21 59.14,30.56 				"/>
				<polygon class="st6" points="59.14,31.15 25.06,43.8 25.06,43.51 59.14,30.85 				"/>
				<polygon class="st6" points="59.14,31.45 25.06,44.1 25.06,43.8 59.14,31.15 				"/>
				<polygon class="st6" points="59.14,31.74 25.06,44.4 25.06,44.1 59.14,31.45 				"/>
				<polygon class="st6" points="59.14,32.04 25.06,44.69 25.06,44.4 59.14,31.74 				"/>
				<polygon class="st6" points="59.14,32.34 25.06,44.99 25.06,44.69 59.14,32.04 				"/>
				<polygon class="st6" points="59.14,32.63 25.06,45.29 25.06,44.99 59.14,32.34 				"/>
				<polygon class="st6" points="59.14,32.93 25.06,45.58 25.06,45.29 59.14,32.63 				"/>
				<polygon class="st6" points="59.14,33.23 25.06,45.88 25.06,45.58 59.14,32.93 				"/>
				<polygon class="st6" points="59.14,33.52 25.06,46.18 25.06,45.88 59.14,33.23 				"/>
				<polygon class="st6" points="59.14,33.82 25.06,46.47 25.06,46.18 59.14,33.52 				"/>
				<polygon class="st6" points="59.14,34.12 25.06,46.77 25.06,46.47 59.14,33.82 				"/>
				<polygon class="st6" points="59.14,34.41 25.06,47.07 25.06,46.77 59.14,34.12 				"/>
				<polygon class="st6" points="59.14,34.71 25.06,47.36 25.06,47.07 59.14,34.41 				"/>
				<polygon class="st6" points="59.14,35.01 25.06,47.66 25.06,47.36 59.14,34.71 				"/>
				<polygon class="st6" points="59.14,35.3 25.06,47.96 25.06,47.66 59.14,35.01 				"/>
				<polygon class="st6" points="59.14,35.6 25.06,48.25 25.06,47.96 59.14,35.3 				"/>
				<polygon class="st6" points="59.14,35.9 25.06,48.55 25.06,48.25 59.14,35.6 				"/>
				<polygon class="st6" points="59.14,36.19 25.06,48.85 25.06,48.55 59.14,35.9 				"/>
				<polygon class="st6" points="59.14,36.49 25.06,49.14 25.06,48.85 59.14,36.19 				"/>
				<polygon class="st6" points="59.14,36.79 25.06,49.44 25.06,49.14 59.14,36.49 				"/>
				<polygon class="st6" points="59.14,37.08 25.06,49.74 25.06,49.44 59.14,36.79 				"/>
				<polygon class="st6" points="59.14,37.38 25.06,50.03 25.06,49.74 59.14,37.08 				"/>
				<polygon class="st6" points="59.14,37.68 25.06,50.33 25.06,50.03 59.14,37.38 				"/>
				<polygon class="st6" points="59.14,37.97 25.06,50.63 25.06,50.33 59.14,37.68 				"/>
				<polygon class="st6" points="59.14,38.27 25.06,50.92 25.06,50.63 59.14,37.97 				"/>
				<polygon class="st6" points="59.14,38.57 25.06,51.22 25.06,50.92 59.14,38.27 				"/>
				<polygon class="st6" points="59.14,38.86 25.06,51.52 25.06,51.22 59.14,38.57 				"/>
				<polygon class="st6" points="59.14,39.16 25.12,51.79 25.06,51.62 25.06,51.52 59.14,38.86 				"/>
				<polygon class="st6" points="59.14,39.46 25.21,52.05 25.12,51.79 59.14,39.16 				"/>
				<polygon class="st6" points="59.14,39.75 25.31,52.31 25.21,52.05 59.14,39.46 				"/>
				<polygon class="st6" points="59.14,40.05 25.41,52.57 25.31,52.31 59.14,39.75 				"/>
				<polygon class="st6" points="59.14,40.35 25.5,52.83 25.41,52.57 59.14,40.05 				"/>
				<polygon class="st6" points="59.14,40.64 25.6,53.09 25.5,52.83 59.14,40.35 				"/>
				<polygon class="st6" points="59.14,40.94 25.7,53.36 25.6,53.09 59.14,40.64 				"/>
				<polygon class="st6" points="59.14,41.24 26.46,53.37 25.7,53.37 25.7,53.36 59.14,40.94 				"/>
				<polygon class="st6" points="59.14,41.53 27.26,53.37 26.46,53.37 59.14,41.24 				"/>
				<polygon class="st6" points="59.14,41.83 28.06,53.37 27.26,53.37 59.14,41.53 				"/>
				<polygon class="st6" points="59.14,42.13 28.86,53.37 28.06,53.37 59.14,41.83 				"/>
				<polygon class="st6" points="59.14,42.42 29.66,53.37 28.86,53.37 59.14,42.13 				"/>
				<polygon class="st6" points="59.14,42.72 30.46,53.37 29.66,53.37 59.14,42.42 				"/>
				<polygon class="st6" points="59.14,43.02 31.26,53.37 30.46,53.37 59.14,42.72 				"/>
				<polygon class="st6" points="59.14,43.31 32.06,53.37 31.26,53.37 59.14,43.02 				"/>
				<polygon class="st6" points="59.14,43.61 32.86,53.37 32.06,53.37 59.14,43.31 				"/>
				<polygon class="st6" points="32.86,53.37 59.14,43.61 59.14,53.37 				"/>
			</g>
		</g>
		<g>
			<path class="st7" d="M52.52,23.71c-5.24,6.01-11.2,12.41-17.45,17.18c-4.21,3.21-8.65,5.64-12.9,7.31
				c0.78,0.64,1.59,1.23,2.45,1.76c0.14,0.09,0.29,0.17,0.43,0.26c2.51-1.34,5.02-2.93,7.46-4.79
				C39.9,39.79,46.71,30.83,52.52,23.71z"/>
		</g>
		<g>
			<defs>
				<path id="SVGID_15_" d="M63.04,15.08l-0.46,0.55l-0.15-0.44l0.88-1.06c0.09-0.1,0.07-0.25-0.03-0.33
					c-0.1-0.08-0.25-0.07-0.33,0.03l-0.7,0.84l-0.13-0.38l1-1.21c0.08-0.1,0.07-0.25-0.03-0.33c-0.1-0.08-0.25-0.07-0.33,0.03
					l-0.82,0.98l-0.25-0.74l-0.09-0.27l-0.31,0.41l1.55-2.14c0.44-0.6,0.67-1.33,0.66-2.08L63.36,9c-0.1,0.04-0.2,0.08-0.3,0.13
					c-0.51,0.24-0.95,0.6-1.3,1.05L60.38,12l-1.07-0.04l0.72-1.06c0.07-0.11,0.05-0.26-0.06-0.33c-0.11-0.07-0.25-0.05-0.33,0.06
					l-0.88,1.3l-0.39-0.01l0.61-0.9c0.07-0.11,0.05-0.26-0.06-0.33c-0.11-0.07-0.25-0.05-0.33,0.06l-0.78,1.14l-0.47-0.02l0.4-0.59
					c0.07-0.11,0.05-0.25-0.06-0.33c-0.11-0.07-0.26-0.05-0.33,0.06l-0.57,0.84l-1.66-0.07l-0.55,0.84l1.65,0.48v0
					c0.04,0.03,0.09,0.04,0.14,0.04l2.59,0.75l-1.3,1.71c-0.09,0.12-0.24,0.18-0.38,0.16l-1.14-0.16c-0.18-0.03-0.35,0.05-0.45,0.2
					l-0.42,0.61l1.61,0.36c0.03,0.01,0.07,0.02,0.1,0.03c-0.47,0.57-0.96,1.14-1.45,1.71c-4.43,5.18-9.54,10.59-14.18,14.36
					c-0.78,0.63-1.55,1.22-2.3,1.76c-0.93,0.66-1.83,1.28-2.72,1.86c-0.54,0.36-1.07,0.7-1.59,1.03c-0.66,0.42-1.31,0.82-1.94,1.19
					c-1.09,0.65-2.15,1.24-3.17,1.78c-3.52,1.85-6.64,3.08-9.36,3.83c-0.51,0.14-1.01,0.27-1.5,0.38
					c-7.36,1.66-11.46-0.36-12.41-2.57c-0.53-1.24-0.41-2.93,0.34-4.89c0.26-0.69,0.6-1.41,1.02-2.16c1.35-2.42,3.51-5.11,6.45-7.78
					C7.57,32.33,3.05,37.77,1.29,42.14c-0.94,2.35-1.08,4.38-0.31,5.88c2.03,3.93,11.05,4.19,21.19,0.18
					c3.01-1.19,6.13-2.76,9.19-4.72c1.12-0.72,2.23-1.49,3.33-2.31c0.13-0.09,0.25-0.18,0.38-0.28c1.31-1,2.62-2.08,3.9-3.21
					c1.33-1.17,2.65-2.4,3.94-3.67c4.12-4.04,8.02-8.44,11.53-12.53c0.04-0.05,0.08-0.1,0.12-0.14c0.19-0.22,0.38-0.44,0.56-0.66
					c0.25-0.29,0.49-0.58,0.74-0.86v0c0.09-0.1,0.17-0.2,0.26-0.3c0.61-0.71,1.2-1.4,1.77-2.08c0.07,0.08,0.13,0.17,0.18,0.27
					l0.76,1.4l0.45-0.46c0.14-0.14,0.18-0.36,0.09-0.54l-0.55-1.15c-0.07-0.14-0.05-0.3,0.04-0.42l1.07-1.47
					c0.1-0.12,0.2-0.24,0.3-0.36l1.41,2.22c0.01,0.05,0.04,0.09,0.08,0.12c0,0,0,0,0,0l0.92,1.45l0.65-0.76l-0.53-1.57l0.65-0.78
					c0.08-0.1,0.07-0.25-0.03-0.33C63.27,14.96,63.12,14.98,63.04,15.08z"/>
			</defs>
			<use xlink:href="#SVGID_15_"  style="overflow:visible;fill:#012039;"/>
			<clipPath id="SVGID_6_">
				<use xlink:href="#SVGID_15_"  style="overflow:visible;"/>
			</clipPath>
			<rect x="0.21" y="8.94" class="st8" width="0.27" height="43.27"/>
			<rect x="0.48" y="8.94" class="st8" width="0.81" height="43.27"/>
			<rect x="1.29" y="8.94" class="st8" width="0.81" height="43.27"/>
			<rect x="2.1" y="8.94" class="st8" width="0.81" height="43.27"/>
			<rect x="2.91" y="8.94" class="st8" width="0.81" height="43.27"/>
			<rect x="3.72" y="8.94" class="st8" width="0.81" height="43.27"/>
			<rect x="4.53" y="8.94" class="st8" width="0.81" height="43.27"/>
			<rect x="5.33" y="8.94" class="st8" width="0.81" height="43.27"/>
			<rect x="6.14" y="8.94" class="st8" width="0.81" height="43.27"/>
			<rect x="6.95" y="8.94" class="st8" width="0.81" height="43.27"/>
			<rect x="7.76" y="8.94" class="st8" width="0.81" height="43.27"/>
			<rect x="8.57" y="8.94" class="st8" width="0.81" height="43.27"/>
			<rect x="9.37" y="8.94" class="st8" width="0.81" height="43.27"/>
			<rect x="10.18" y="8.94" class="st8" width="0.81" height="43.27"/>
			<rect x="10.99" y="8.94" class="st8" width="0.81" height="43.27"/>
			<rect x="11.8" y="8.94" class="st8" width="0.81" height="43.27"/>
			<rect x="12.61" y="8.94" class="st8" width="0.81" height="43.27"/>
			<rect x="13.41" y="8.94" class="st8" width="0.81" height="43.27"/>
			<rect x="14.22" y="8.94" class="st8" width="0.81" height="43.27"/>
			<rect x="15.03" y="8.94" class="st8" width="0.81" height="43.27"/>
			<rect x="15.84" y="8.94" class="st8" width="0.81" height="43.27"/>
			<rect x="16.65" y="8.94" class="st8" width="0.81" height="43.27"/>
			<rect x="17.45" y="8.94" class="st8" width="0.81" height="43.27"/>
			<rect x="18.26" y="8.94" class="st8" width="0.81" height="43.27"/>
			<rect x="19.07" y="8.94" class="st8" width="0.81" height="43.27"/>
			<rect x="19.88" y="8.94" class="st8" width="0.81" height="43.27"/>
			<rect x="20.69" y="8.94" class="st8" width="0.81" height="43.27"/>
			<rect x="21.49" y="8.94" class="st8" width="0.81" height="43.27"/>
			<rect x="22.3" y="8.94" class="st8" width="0.81" height="43.27"/>
			<rect x="23.11" y="8.94" class="st8" width="0.81" height="43.27"/>
			<rect x="23.92" y="8.94" class="st8" width="0.81" height="43.27"/>
			<rect x="24.73" y="8.94" class="st8" width="0.81" height="43.27"/>
			<rect x="25.54" y="8.94" class="st8" width="0.81" height="43.27"/>
			<rect x="26.34" y="8.94" class="st8" width="0.81" height="43.27"/>
			<rect x="27.15" y="8.94" class="st8" width="0.81" height="43.27"/>
			<rect x="27.96" y="8.94" class="st8" width="0.81" height="43.27"/>
			<rect x="28.77" y="8.94" class="st8" width="0.81" height="43.27"/>
			<rect x="29.58" y="8.94" class="st8" width="0.81" height="43.27"/>
			<rect x="30.38" y="8.94" class="st8" width="0.81" height="43.27"/>
			<rect x="31.19" y="8.94" class="st8" width="0.81" height="43.27"/>
			<rect x="32" y="8.94" class="st8" width="0.81" height="43.27"/>
			<rect x="32.81" y="8.94" class="st8" width="0.81" height="43.27"/>
			<rect x="33.62" y="8.94" class="st8" width="0.81" height="43.27"/>
			<rect x="34.42" y="8.94" class="st8" width="0.81" height="43.27"/>
			<rect x="35.23" y="8.94" class="st8" width="0.81" height="43.27"/>
			<rect x="36.04" y="8.94" class="st8" width="0.81" height="43.27"/>
			<rect x="36.85" y="8.94" class="st8" width="0.81" height="43.27"/>
			<rect x="37.66" y="8.94" class="st8" width="0.81" height="43.27"/>
			<rect x="38.46" y="8.94" class="st8" width="0.81" height="43.27"/>
			<rect x="39.27" y="8.94" class="st8" width="0.81" height="43.27"/>
			<rect x="40.08" y="8.94" class="st8" width="0.81" height="43.27"/>
			<rect x="40.89" y="8.94" class="st8" width="0.81" height="43.27"/>
			<rect x="41.7" y="8.94" class="st8" width="0.81" height="43.27"/>
			<rect x="42.51" y="8.94" class="st8" width="0.81" height="43.27"/>
			<rect x="43.31" y="8.94" class="st8" width="0.81" height="43.27"/>
			<rect x="44.12" y="8.94" class="st8" width="0.81" height="43.27"/>
			<rect x="44.93" y="8.94" class="st8" width="0.81" height="43.27"/>
			<rect x="45.74" y="8.94" class="st8" width="0.81" height="43.27"/>
			<rect x="46.55" y="8.94" class="st8" width="0.81" height="43.27"/>
			<rect x="47.35" y="8.94" class="st8" width="0.81" height="43.27"/>
			<rect x="48.16" y="8.94" class="st8" width="0.81" height="43.27"/>
			<rect x="48.97" y="8.94" class="st8" width="0.81" height="43.27"/>
			<rect x="49.78" y="8.94" class="st8" width="0.81" height="43.27"/>
			<rect x="50.59" y="8.94" class="st8" width="0.81" height="43.27"/>
			<rect x="51.39" y="8.94" class="st8" width="0.81" height="43.27"/>
			<rect x="52.2" y="8.94" class="st8" width="0.81" height="43.27"/>
			<rect x="53.01" y="8.94" class="st8" width="0.81" height="43.27"/>
			<rect x="53.82" y="8.94" class="st8" width="0.81" height="43.27"/>
			<rect x="54.63" y="8.94" class="st8" width="0.81" height="43.27"/>
			<rect x="55.43" y="8.94" class="st8" width="0.81" height="43.27"/>
			<rect x="56.24" y="8.94" class="st8" width="0.81" height="43.27"/>
			<rect x="57.05" y="8.94" class="st8" width="0.81" height="43.27"/>
			<rect x="57.86" y="8.94" class="st8" width="0.81" height="43.27"/>
			<rect x="58.67" y="8.94" class="st8" width="0.81" height="43.27"/>
			<rect x="59.47" y="8.94" class="st8" width="0.81" height="43.27"/>
			<rect x="60.28" y="8.94" class="st8" width="0.81" height="43.27"/>
			<rect x="61.09" y="8.94" class="st8" width="0.81" height="43.27"/>
			<rect x="61.9" y="8.94" class="st8" width="0.81" height="43.27"/>
			<rect x="62.71" y="8.94" class="st8" width="0.81" height="43.27"/>
			<rect x="63.52" y="8.94" class="st8" width="0.01" height="43.27"/>
		</g>
	</g>
	<g>
		<path class="st9" d="M3.09,63.57c-0.3-0.12-0.53-0.3-0.71-0.54C2.2,62.79,2.11,62.5,2.1,62.17h1.33c0.02,0.19,0.08,0.33,0.2,0.43
			c0.11,0.1,0.26,0.15,0.44,0.15c0.18,0,0.33-0.04,0.44-0.13c0.11-0.08,0.16-0.2,0.16-0.35c0-0.13-0.04-0.23-0.13-0.31
			c-0.08-0.08-0.19-0.15-0.31-0.2c-0.12-0.05-0.3-0.11-0.53-0.18c-0.33-0.1-0.6-0.2-0.81-0.31c-0.21-0.1-0.39-0.25-0.54-0.45
			c-0.15-0.2-0.23-0.46-0.23-0.78c0-0.48,0.17-0.85,0.52-1.12c0.34-0.27,0.79-0.4,1.35-0.4c0.56,0,1.02,0.13,1.36,0.4
			c0.34,0.27,0.53,0.65,0.55,1.13H4.55c-0.01-0.17-0.07-0.3-0.18-0.39c-0.11-0.09-0.25-0.14-0.43-0.14c-0.15,0-0.27,0.04-0.36,0.12
			c-0.09,0.08-0.14,0.2-0.14,0.35c0,0.17,0.08,0.29,0.23,0.39c0.16,0.09,0.4,0.19,0.73,0.3c0.33,0.11,0.6,0.22,0.81,0.32
			c0.21,0.1,0.38,0.25,0.54,0.44c0.15,0.19,0.23,0.44,0.23,0.75c0,0.29-0.07,0.56-0.22,0.79c-0.15,0.24-0.36,0.43-0.65,0.57
			c-0.28,0.14-0.61,0.21-1,0.21C3.72,63.75,3.39,63.69,3.09,63.57z"/>
		<path class="st9" d="M7.95,58.58v3.06c0,0.31,0.08,0.54,0.23,0.71c0.15,0.17,0.37,0.25,0.66,0.25c0.29,0,0.52-0.08,0.67-0.25
			c0.16-0.17,0.23-0.4,0.23-0.71v-3.06h1.25v3.05c0,0.46-0.1,0.84-0.29,1.16s-0.46,0.55-0.78,0.71c-0.33,0.16-0.69,0.24-1.1,0.24
			c-0.4,0-0.76-0.08-1.08-0.24c-0.32-0.16-0.57-0.4-0.75-0.71c-0.18-0.32-0.28-0.71-0.28-1.16v-3.05H7.95z"/>
		<path class="st9" d="M17.66,58.58v5.12h-1.25v-3.07l-1.14,3.07h-1.01l-1.15-3.08v3.08h-1.25v-5.12h1.47l1.44,3.54l1.42-3.54H17.66
			z"/>
		<path class="st9" d="M24.35,58.58v5.12H23.1v-3.07l-1.14,3.07h-1.01l-1.15-3.08v3.08h-1.25v-5.12h1.47l1.44,3.54l1.42-3.54H24.35z
			"/>
		<path class="st9" d="M26.49,59.58v1.03h1.67v0.96h-1.67v1.12h1.89v1h-3.13v-5.12h3.13v1H26.49z"/>
		<path class="st9" d="M31.8,63.7l-1.06-1.93h-0.3v1.93h-1.25v-5.12h2.09c0.4,0,0.75,0.07,1.03,0.21c0.28,0.14,0.5,0.33,0.64,0.58
			c0.14,0.25,0.21,0.52,0.21,0.82c0,0.34-0.1,0.64-0.29,0.91c-0.19,0.27-0.47,0.46-0.85,0.57l1.18,2.03H31.8z M30.44,60.89h0.77
			c0.23,0,0.4-0.06,0.51-0.17c0.11-0.11,0.17-0.27,0.17-0.47c0-0.19-0.06-0.35-0.17-0.46c-0.11-0.11-0.29-0.17-0.51-0.17h-0.77
			V60.89z"/>
		<path class="st2" d="M39.17,58.58v1h-1.36v4.12h-1.25v-4.12h-1.36v-1H39.17z"/>
		<path class="st2" d="M42.4,63.7l-1.06-1.93h-0.3v1.93h-1.25v-5.12h2.09c0.4,0,0.75,0.07,1.03,0.21c0.28,0.14,0.5,0.33,0.64,0.58
			c0.14,0.25,0.21,0.52,0.21,0.82c0,0.34-0.1,0.64-0.29,0.91c-0.19,0.27-0.47,0.46-0.85,0.57l1.18,2.03H42.4z M41.04,60.89h0.77
			c0.23,0,0.4-0.06,0.51-0.17c0.11-0.11,0.17-0.27,0.17-0.47c0-0.19-0.06-0.35-0.17-0.46c-0.11-0.11-0.29-0.17-0.51-0.17h-0.77
			V60.89z"/>
		<path class="st2" d="M47.73,62.8h-1.91l-0.31,0.9h-1.3l1.85-5.12h1.44l1.85,5.12h-1.32L47.73,62.8z M47.41,61.83l-0.63-1.87
			l-0.63,1.87H47.41z"/>
		<path class="st2" d="M54.72,58.58l-1.81,5.12h-1.56l-1.81-5.12h1.33l1.27,3.86l1.28-3.86H54.72z"/>
		<path class="st2" d="M56.48,59.58v1.03h1.67v0.96h-1.67v1.12h1.89v1h-3.13v-5.12h3.13v1H56.48z"/>
		<path class="st2" d="M60.43,62.74h1.63v0.96h-2.88v-5.12h1.25V62.74z"/>
	</g>
</g>
</svg>
