<?xml version="1.0" encoding="utf-8"?>
<!-- Generator: Adobe Illustrator 24.3.0, SVG Export Plug-In . SVG Version: 6.00 Build 0)  -->
<svg version="1.1" id="Layer_1" xmlns="http://www.w3.org/2000/svg" xmlns:xlink="http://www.w3.org/1999/xlink" x="0px" y="0px"
	 viewBox="0 0 64 64" style="enable-background:new 0 0 64 64;" xml:space="preserve">
<style type="text/css">
	.st0{fill:#EEE17C;}
</style>
<g>
	<g>
		<path class="st0" d="M22.9,36.12c-4.84-0.11-8.55-1.65-13.94-17.51C5.27,7.75,2.05,4.25,0.25,3.13h4.17
			c0.54,0,1.07,0.19,1.48,0.54c1.84,1.57,4.71,5.44,8.03,14.93c2.35,6.73,4.42,11.31,6.41,14.37C21.2,34.29,22.04,35.32,22.9,36.12z
			"/>
		<path class="st0" d="M29.5,36.12c-2.02-0.05-3.83-0.34-5.66-1.81c-0.85-0.69-1.54-1.56-2.1-2.5c-1.77-3.02-3.62-7.28-5.69-13.2
			c-3.8-10.86-7-14.36-8.75-15.48h3.71c0.54,0,1.07,0.19,1.48,0.54c1.84,1.57,4.7,5.44,8.03,14.93c0.38,1.09,0.76,2.12,1.12,3.09
			c1.06,2.83,2.07,5.22,3.04,7.21C26.34,32.33,27.91,34.63,29.5,36.12z"/>
		<path class="st0" d="M31.3,7.82c0,0-1.87,0.99-2.56,7.08l-2.26,13.55c-0.97-2-1.98-4.38-3.04-7.21l3.79-9.54
			C27.24,11.71,29.02,7.82,31.3,7.82z"/>
		<path class="st0" d="M41.1,36.12c4.84-0.11,8.55-1.65,13.94-17.51c3.68-10.86,6.91-14.36,8.71-15.48h-4.17
			c-0.54,0-1.07,0.19-1.48,0.54c-1.84,1.57-4.71,5.44-8.03,14.93c-2.35,6.73-4.42,11.31-6.41,14.37
			C42.8,34.29,41.96,35.32,41.1,36.12z"/>
		<path class="st0" d="M34.5,36.12c2.02-0.05,3.83-0.34,5.66-1.81c0.85-0.69,1.54-1.56,2.1-2.5c1.77-3.02,3.62-7.28,5.69-13.2
			c3.8-10.86,7-14.36,8.75-15.48h-3.71c-0.54,0-1.07,0.19-1.48,0.54c-1.84,1.57-4.7,5.44-8.03,14.93c-0.38,1.09-0.76,2.12-1.12,3.09
			c-1.06,2.83-2.07,5.22-3.04,7.21C37.66,32.33,36.09,34.63,34.5,36.12z"/>
		<path class="st0" d="M32.7,7.82c0,0,1.87,0.99,2.56,7.08l2.26,13.55c0.97-2,1.98-4.38,3.04-7.21l-3.79-9.54
			C36.76,11.71,34.98,7.82,32.7,7.82z"/>
	</g>
	<g>
		<g>
			<path d="M13.66,43.44l-1.91,6.57h-0.96l-1.53-5.29l-1.58,5.29l-0.95,0.01l-1.84-6.58H5.8l1.43,5.57l1.58-5.57h0.96L11.29,49
				l1.44-5.56H13.66z"/>
			<path d="M15.46,43.44v6.57H14.6v-6.57H15.46z"/>
			<path d="M22.09,50.01h-0.86l-3.45-5.23v5.23h-0.86v-6.58h0.86l3.45,5.23v-5.23h0.86V50.01z"/>
			<path d="M28.53,45.35c-0.18-0.38-0.45-0.68-0.79-0.89c-0.35-0.21-0.75-0.32-1.21-0.32c-0.46,0-0.87,0.11-1.24,0.32
				c-0.37,0.21-0.66,0.51-0.87,0.91c-0.21,0.39-0.32,0.85-0.32,1.36c0,0.52,0.11,0.97,0.32,1.36c0.21,0.39,0.5,0.69,0.87,0.9
				c0.37,0.21,0.78,0.32,1.24,0.32c0.64,0,1.17-0.19,1.58-0.58c0.41-0.38,0.66-0.9,0.73-1.56h-2.62v-0.7h3.54v0.66
				c-0.05,0.54-0.22,1.04-0.51,1.49c-0.29,0.45-0.67,0.8-1.14,1.07c-0.47,0.26-1,0.39-1.58,0.39c-0.61,0-1.17-0.14-1.67-0.43
				c-0.5-0.29-0.9-0.68-1.19-1.19c-0.29-0.51-0.44-1.08-0.44-1.73c0-0.64,0.15-1.22,0.44-1.73c0.29-0.51,0.69-0.91,1.19-1.2
				c0.5-0.29,1.06-0.43,1.67-0.43c0.7,0,1.32,0.17,1.85,0.52c0.54,0.35,0.93,0.83,1.17,1.46H28.53z"/>
			<path d="M31.81,49.85c-0.34-0.15-0.61-0.37-0.81-0.64c-0.19-0.27-0.3-0.59-0.3-0.95h0.91c0.03,0.31,0.16,0.57,0.38,0.78
				c0.22,0.21,0.55,0.32,0.98,0.32c0.41,0,0.73-0.1,0.97-0.31c0.24-0.2,0.35-0.47,0.35-0.79c0-0.25-0.07-0.46-0.21-0.61
				c-0.14-0.16-0.31-0.28-0.52-0.36c-0.21-0.08-0.49-0.17-0.84-0.26c-0.43-0.11-0.78-0.23-1.04-0.34c-0.26-0.11-0.48-0.29-0.67-0.53
				c-0.19-0.24-0.28-0.57-0.28-0.98c0-0.36,0.09-0.68,0.27-0.95c0.18-0.28,0.44-0.49,0.77-0.64c0.33-0.15,0.71-0.23,1.14-0.23
				c0.62,0,1.12,0.15,1.51,0.46c0.39,0.31,0.61,0.72,0.66,1.23h-0.94c-0.03-0.25-0.16-0.47-0.4-0.66c-0.23-0.19-0.54-0.29-0.92-0.29
				c-0.36,0-0.65,0.09-0.88,0.28c-0.23,0.19-0.34,0.44-0.34,0.78c0,0.24,0.07,0.43,0.2,0.58c0.14,0.15,0.3,0.27,0.5,0.34
				c0.2,0.08,0.48,0.17,0.83,0.27c0.43,0.12,0.78,0.24,1.05,0.35c0.26,0.12,0.49,0.3,0.68,0.54c0.19,0.24,0.28,0.57,0.28,0.99
				c0,0.32-0.08,0.62-0.25,0.91c-0.17,0.28-0.42,0.51-0.75,0.69c-0.33,0.18-0.73,0.26-1.18,0.26C32.54,50.08,32.15,50,31.81,49.85z"
				/>
			<path d="M40.47,43.44v0.7h-1.79v5.88h-0.86v-5.88h-1.8v-0.7H40.47z"/>
			<path d="M42.84,49.65c-0.5-0.29-0.9-0.69-1.19-1.2c-0.29-0.51-0.44-1.09-0.44-1.73c0-0.64,0.15-1.22,0.44-1.73
				c0.29-0.51,0.69-0.91,1.19-1.2c0.5-0.29,1.06-0.43,1.67-0.43c0.62,0,1.18,0.14,1.68,0.43c0.5,0.29,0.9,0.68,1.19,1.19
				c0.29,0.51,0.43,1.09,0.43,1.74c0,0.65-0.14,1.23-0.43,1.74c-0.29,0.51-0.69,0.91-1.19,1.19c-0.5,0.29-1.06,0.43-1.68,0.43
				C43.9,50.08,43.34,49.94,42.84,49.65z M45.75,49.01c0.37-0.21,0.66-0.52,0.87-0.91c0.21-0.4,0.32-0.86,0.32-1.38
				c0-0.53-0.11-0.99-0.32-1.38c-0.21-0.39-0.5-0.7-0.86-0.91c-0.36-0.21-0.78-0.32-1.24-0.32c-0.47,0-0.88,0.11-1.24,0.32
				c-0.36,0.21-0.65,0.52-0.86,0.91c-0.21,0.39-0.32,0.85-0.32,1.38c0,0.52,0.11,0.98,0.32,1.38c0.21,0.4,0.5,0.7,0.87,0.91
				c0.37,0.21,0.78,0.32,1.24,0.32C44.97,49.34,45.38,49.23,45.75,49.01z"/>
			<path d="M54.11,50.01h-0.86l-3.45-5.23v5.23h-0.86v-6.58h0.86l3.45,5.23v-5.23h0.86V50.01z"/>
			<path d="M56.43,44.14v2.2h2.4v0.71h-2.4v2.26h2.68v0.71h-3.54v-6.58h3.54v0.71H56.43z"/>
		</g>
		<g>
			<path d="M16.86,59.34H14l-0.53,1.46h-0.91l2.38-6.54h0.99l2.37,6.54h-0.91L16.86,59.34z M16.62,58.64l-1.19-3.32l-1.19,3.32
				H16.62z"/>
			<path d="M27.6,54.23l-1.91,6.57h-0.96l-1.53-5.29l-1.58,5.29l-0.95,0.01l-1.84-6.58h0.91l1.43,5.57l1.58-5.57h0.96l1.51,5.56
				l1.44-5.56H27.6z"/>
			<path d="M32.42,59.34h-2.87l-0.53,1.46h-0.91l2.38-6.54h0.99l2.37,6.54h-0.91L32.42,59.34z M32.18,58.64l-1.19-3.32l-1.19,3.32
				H32.18z"/>
			<path d="M38.36,60.8l-1.57-2.69h-1.04v2.69H34.9v-6.57h2.12c0.5,0,0.92,0.08,1.26,0.25c0.34,0.17,0.6,0.4,0.77,0.69
				c0.17,0.29,0.25,0.62,0.25,0.99c0,0.45-0.13,0.85-0.39,1.2c-0.26,0.35-0.65,0.58-1.17,0.69l1.65,2.75H38.36z M35.75,57.43h1.26
				c0.47,0,0.81-0.11,1.05-0.34c0.23-0.23,0.35-0.54,0.35-0.92c0-0.39-0.11-0.69-0.34-0.91c-0.23-0.21-0.58-0.32-1.05-0.32h-1.26
				V57.43z"/>
			<path d="M44.54,54.63c0.52,0.27,0.93,0.65,1.21,1.15c0.28,0.5,0.42,1.08,0.42,1.75c0,0.67-0.14,1.26-0.42,1.75
				c-0.28,0.49-0.68,0.87-1.21,1.13c-0.53,0.26-1.15,0.39-1.86,0.39h-2.05v-6.57h2.05C43.39,54.23,44.01,54.36,44.54,54.63z
				 M44.62,59.42c0.45-0.45,0.67-1.08,0.67-1.89c0-0.82-0.22-1.46-0.67-1.91c-0.45-0.46-1.1-0.69-1.94-0.69h-1.19v5.17h1.19
				C43.53,60.1,44.17,59.87,44.62,59.42z"/>
			<path d="M48.22,60.64c-0.34-0.15-0.61-0.37-0.81-0.64c-0.19-0.27-0.3-0.59-0.3-0.95h0.91c0.03,0.31,0.16,0.57,0.38,0.78
				c0.22,0.21,0.55,0.32,0.98,0.32c0.41,0,0.73-0.1,0.97-0.31c0.24-0.2,0.35-0.47,0.35-0.79c0-0.25-0.07-0.46-0.21-0.61
				c-0.14-0.16-0.31-0.28-0.52-0.36c-0.21-0.08-0.49-0.17-0.84-0.26c-0.43-0.11-0.78-0.23-1.04-0.34c-0.26-0.11-0.48-0.29-0.67-0.53
				c-0.19-0.24-0.28-0.57-0.28-0.98c0-0.36,0.09-0.68,0.27-0.95c0.18-0.28,0.44-0.49,0.77-0.64c0.33-0.15,0.71-0.23,1.14-0.23
				c0.62,0,1.12,0.15,1.51,0.46c0.39,0.31,0.61,0.72,0.66,1.23h-0.94c-0.03-0.25-0.16-0.47-0.4-0.66c-0.23-0.19-0.54-0.29-0.92-0.29
				c-0.36,0-0.65,0.09-0.88,0.28c-0.23,0.19-0.34,0.44-0.34,0.78c0,0.24,0.07,0.43,0.2,0.58c0.14,0.15,0.3,0.27,0.5,0.34
				c0.2,0.08,0.48,0.17,0.83,0.27c0.43,0.12,0.78,0.24,1.05,0.35c0.26,0.12,0.49,0.3,0.68,0.54c0.19,0.24,0.28,0.57,0.28,0.99
				c0,0.32-0.08,0.62-0.25,0.91c-0.17,0.28-0.42,0.51-0.75,0.69c-0.33,0.18-0.73,0.26-1.18,0.26
				C48.95,60.87,48.56,60.79,48.22,60.64z"/>
		</g>
	</g>
</g>
<rect x="-27.68" y="1.85" class="st0" width="10.55" height="12.26"/>
</svg>
